<svg width="140" height="15" viewBox="0 0 140 15" fill="none" xmlns="http://www.w3.org/2000/svg">
<g clip-path="url(#clip0_5133_2187)">
<path d="M24.5606 1.44173C26.2626 1.44173 27.5213 1.96973 28.6786 3.02439C28.832 3.16039 28.832 3.36506 28.696 3.50106L27.3686 4.87906C27.25 4.99839 27.062 4.99839 26.9433 4.87906C26.314 4.31706 25.48 4.01106 24.646 4.01106C22.7233 4.01106 21.3106 5.61106 21.3106 7.51639C21.3106 9.40573 22.7406 10.9711 24.6626 10.9711C25.4633 10.9711 26.3306 10.6824 26.9433 10.1544C27.062 10.0531 27.2833 10.0531 27.386 10.1717L28.7133 11.5837C28.832 11.7031 28.8153 11.9244 28.696 12.0431C27.5386 13.1664 26.0753 13.6937 24.5606 13.6937C21.158 13.6937 18.418 10.9884 18.418 7.58439C18.418 4.18173 21.158 1.44173 24.5606 1.44173Z" fill="#004A94"/>
<path d="M35.7597 10.9714C37.6317 10.9714 39.1624 9.43936 39.1624 7.5847C39.1624 5.7127 37.6317 4.1647 35.7597 4.1647C33.9051 4.1647 32.3731 5.7127 32.3731 7.5847C32.3731 9.43936 33.9051 10.9714 35.7597 10.9714ZM35.7597 1.44203C39.1624 1.44203 41.8851 4.18137 41.8851 7.5847C41.8851 10.9887 39.1624 13.694 35.7597 13.694C32.3564 13.694 29.6504 10.9887 29.6504 7.5847C29.6504 4.18137 32.3564 1.44203 35.7597 1.44203Z" fill="#004A94"/>
<path d="M48.7115 6.7002C49.4088 6.7002 50.0048 6.05353 50.0048 5.33886C50.0048 4.62353 49.4088 4.04553 48.7115 4.04553H46.1935V6.7002H48.7115ZM43.5215 1.93553C43.5215 1.76486 43.6575 1.6122 43.8448 1.6122H48.9335C50.9748 1.6122 52.6428 3.26286 52.6428 5.28753C52.6428 6.85353 51.6041 8.11286 50.1242 8.7082L52.4555 13.0302C52.5748 13.2522 52.4555 13.5235 52.1662 13.5235H49.9028C49.7668 13.5235 49.6648 13.4389 49.6308 13.3709L47.3675 8.86153H46.1935V13.2002C46.1935 13.3709 46.0402 13.5235 45.8702 13.5235H43.8448C43.6575 13.5235 43.5215 13.3709 43.5215 13.2002V1.93553Z" fill="#004A94"/>
<path d="M54.7368 1.74809C54.7368 1.57876 54.8895 1.44209 55.0601 1.44209H55.4861L62.2761 7.97609H62.2921V1.93543C62.2921 1.76476 62.4288 1.61209 62.6155 1.61209H64.6575C64.8281 1.61209 64.9815 1.76476 64.9815 1.93543V13.3881C64.9815 13.5581 64.8281 13.6941 64.6575 13.6941H64.3855C64.3341 13.6941 64.1981 13.6428 64.1641 13.6094L57.4428 6.85343H57.4255V13.2008C57.4255 13.3708 57.2895 13.5241 57.1021 13.5241H55.0775C54.9068 13.5241 54.7535 13.3708 54.7535 13.2008L54.7368 1.74809Z" fill="#004A94"/>
<path d="M67.4844 1.93556C67.4844 1.76489 67.6204 1.61223 67.8077 1.61223H74.8524C75.0397 1.61223 75.1757 1.76489 75.1757 1.93556V3.79023C75.1757 3.96023 75.0397 4.11356 74.8524 4.11356H70.139V6.22356H74.019C74.189 6.22356 74.3424 6.37689 74.3424 6.54689V8.40223C74.3424 8.58823 74.189 8.72556 74.019 8.72556H70.139V11.0222H74.8524C75.0397 11.0222 75.1757 11.1756 75.1757 11.3456V13.2002C75.1757 13.3709 75.0397 13.5236 74.8524 13.5236H67.8077C67.6204 13.5236 67.4844 13.3709 67.4844 13.2002V1.93556Z" fill="#004A94"/>
<path d="M82.2227 6.7002C82.92 6.7002 83.516 6.05353 83.516 5.33886C83.516 4.62353 82.92 4.04553 82.2227 4.04553H79.7047V6.7002H82.2227ZM77.0327 1.93553C77.0327 1.76486 77.1687 1.6122 77.356 1.6122H82.4447C84.486 1.6122 86.154 3.26286 86.154 5.28753C86.154 6.85353 85.1154 8.11286 83.6354 8.7082L85.9667 13.0302C86.086 13.2522 85.9667 13.5235 85.6774 13.5235H83.414C83.278 13.5235 83.176 13.4389 83.142 13.3709L80.8787 8.86153H79.7047V13.2002C79.7047 13.3709 79.5514 13.5235 79.3814 13.5235H77.356C77.1687 13.5235 77.0327 13.3709 77.0327 13.2002V1.93553Z" fill="#004A94"/>
<path d="M87.9247 11.9072L88.7247 10.4945C88.8607 10.2738 89.184 10.3072 89.3027 10.3925C89.3707 10.4272 90.5967 11.3285 91.7194 11.3285C92.4 11.3285 92.8934 10.9032 92.8934 10.3072C92.8934 9.59318 92.298 9.04851 91.1414 8.58851C89.6767 8.01051 87.8394 6.87051 87.8394 4.82852C87.8394 3.14318 89.1494 1.44185 91.77 1.44185C93.54 1.44185 94.9014 2.34385 95.412 2.71785C95.616 2.83718 95.5827 3.14318 95.514 3.26252L94.6467 4.57318C94.5274 4.76051 94.2207 4.91318 94.0674 4.79385C93.9147 4.70918 92.6727 3.77318 91.634 3.77318C91.022 3.77318 90.562 4.18185 90.562 4.64118C90.562 5.27051 91.0727 5.74718 92.4167 6.29185C93.744 6.81918 95.8547 7.85718 95.8547 10.1712C95.8547 11.9245 94.34 13.6938 91.8387 13.6938C89.626 13.6938 88.4014 12.7752 88.0094 12.3838C87.8394 12.2132 87.7887 12.1452 87.9247 11.9072Z" fill="#004A94"/>
<path d="M99.4639 4.11362H97.0305C96.8425 4.11362 96.7065 3.96029 96.7065 3.79029V1.93562C96.7065 1.76495 96.8425 1.61229 97.0305 1.61229H104.586C104.773 1.61229 104.909 1.76495 104.909 1.93562V3.79029C104.909 3.96029 104.773 4.11362 104.586 4.11362H102.152V13.2003C102.152 13.371 101.999 13.5236 101.829 13.5236H99.7865C99.6165 13.5236 99.4639 13.371 99.4639 13.2003V4.11362Z" fill="#004A94"/>
<path d="M111.615 10.9714C113.487 10.9714 115.019 9.43936 115.019 7.5847C115.019 5.7127 113.487 4.1647 111.615 4.1647C109.761 4.1647 108.229 5.7127 108.229 7.5847C108.229 9.43936 109.761 10.9714 111.615 10.9714ZM111.615 1.44203C115.019 1.44203 117.741 4.18137 117.741 7.5847C117.741 10.9887 115.019 13.694 111.615 13.694C108.213 13.694 105.506 10.9887 105.506 7.5847C105.506 4.18137 108.213 1.44203 111.615 1.44203Z" fill="#004A94"/>
<path d="M119.359 1.74809C119.359 1.57876 119.512 1.44209 119.682 1.44209H120.108L126.898 7.97609H126.914V1.93543C126.914 1.76476 127.051 1.61209 127.238 1.61209H129.28C129.45 1.61209 129.604 1.76476 129.604 1.93543V13.3881C129.604 13.5581 129.45 13.6941 129.28 13.6941H129.008C128.956 13.6941 128.82 13.6428 128.786 13.6094L122.065 6.85343H122.048V13.2008C122.048 13.3708 121.912 13.5241 121.724 13.5241H119.7C119.529 13.5241 119.376 13.3708 119.376 13.2008L119.359 1.74809Z" fill="#004A94"/>
<path d="M132.107 1.93556C132.107 1.76489 132.243 1.61223 132.43 1.61223H139.475C139.662 1.61223 139.799 1.76489 139.799 1.93556V3.79023C139.799 3.96023 139.662 4.11356 139.475 4.11356H134.762V6.22356H138.642C138.812 6.22356 138.965 6.37689 138.965 6.54689V8.40223C138.965 8.58823 138.812 8.72556 138.642 8.72556H134.762V11.0222H139.475C139.662 11.0222 139.799 11.1756 139.799 11.3456V13.2002C139.799 13.3709 139.662 13.5236 139.475 13.5236H132.43C132.243 13.5236 132.107 13.3709 132.107 13.2002V1.93556Z" fill="#004A94"/>
<path d="M13.3742 14.9326H1.30616C0.592828 14.9326 0.0141602 14.354 0.0141602 13.6406V1.57195C0.0141602 0.858618 0.592828 0.279951 1.30616 0.279951H14.6668V2.86462H2.59883V12.348H12.0815V10.8193H5.27949C4.56616 10.8193 3.98683 10.2406 3.98683 9.52662V5.55195C3.98683 4.83862 4.56616 4.25995 5.27949 4.25995H14.6668V6.84462H6.57216V8.23462H13.3742C14.0875 8.23462 14.6662 8.81262 14.6662 9.52662V13.6406C14.6662 14.354 14.0875 14.9326 13.3742 14.9326Z" fill="#004A94"/>
</g>
<defs>
<clipPath id="clip0_5133_2187">
<rect width="140" height="15" fill="white"/>
</clipPath>
</defs>
</svg>
