<svg width="277" height="69" viewBox="0 0 277 69" fill="none" xmlns="http://www.w3.org/2000/svg">
<path d="M34.9244 26.8922C30.2958 26.9003 26.7412 30.4747 26.7539 35.1079C26.7667 39.7202 30.3492 43.2632 34.9974 43.2516C39.6202 43.2412 43.1933 39.6506 43.1748 35.0348C43.1562 30.419 39.5749 26.883 34.9244 26.8922ZM36.7498 39.632C35.0171 40.4033 33.3784 40.0959 31.9554 38.855C30.1126 37.2453 29.8087 34.1534 31.2491 32.0821C31.6451 31.5017 32.1717 31.0223 32.7865 30.6823C33.4014 30.3424 34.0874 30.1513 34.7895 30.1246C35.4916 30.0979 36.1902 30.2362 36.8291 30.5284C37.4681 30.8206 38.0296 31.2586 38.4685 31.8072C39.1911 32.6933 39.5668 33.8159 39.5657 35.4697C39.4972 37.1421 38.6854 38.7692 36.7498 39.632Z" fill="#DB4437"/>
<path d="M52.7957 26.8865C48.137 26.8934 44.5615 30.4678 44.5743 35.1207C44.5835 39.7121 48.1845 43.2598 52.8282 43.254C57.4335 43.2482 61.0102 39.6912 61.0148 35.1172C61.0183 30.4539 57.4486 26.8807 52.7957 26.8865ZM52.2019 39.9777C50.4495 39.7817 48.9546 38.4468 48.4084 36.597C47.7125 34.2358 48.6983 31.6832 50.7012 30.6475C53.6075 29.1399 57.0207 31.0616 57.3639 34.3935C57.3871 34.6255 57.3918 34.8574 57.3952 34.9224C57.3941 38.1209 55.0781 40.3001 52.2019 39.9777Z" fill="#F4B400"/>
<path d="M89.8365 37.5388C93.4491 36.0427 97.0641 34.5455 100.745 33.0227C100.462 32.3732 100.243 31.7945 99.9669 31.2437C97.8886 27.1173 93.419 25.6595 89.5559 27.9105C87.0218 29.3881 85.8911 31.747 85.7287 34.6069C85.3912 40.793 91.2758 44.9855 96.9632 42.6161C98.4569 41.9933 99.6306 40.9681 100.57 39.6251L97.7866 37.7811C95.4972 41.1792 90.9452 40.408 89.8365 37.5388ZM92.4691 30.2057C94.1044 29.7418 95.7941 30.3889 96.4795 31.7945L89.2276 34.8099C89.0479 32.7432 90.4628 30.774 92.4691 30.2057Z" fill="#DB4437"/>
<path d="M25.4388 29.3892H24.7778C21.3959 29.3892 18.0141 29.3892 14.6323 29.3892C14.4212 29.3892 14.2113 29.4159 14.0002 29.4298H13.8843C13.8518 29.4483 13.7927 29.4657 13.7927 29.4854C13.7776 30.5501 13.7637 31.6159 13.7718 32.6817C13.7718 32.7316 13.9782 32.7791 14.0884 32.8278C14.2214 32.8482 14.3553 32.8618 14.4897 32.8684C16.9947 32.8684 19.5005 32.8684 22.0071 32.8684C21.8309 35.0719 20.8822 36.8371 19.0915 38.1627C15.3722 40.9182 8.15977 40.4462 5.49699 34.3738C3.95337 30.8539 4.40335 27.4536 6.90724 24.4985C9.37518 21.5841 13.2279 20.567 16.7349 21.8462C17.9086 22.2741 18.9674 23.0129 20.0077 23.5719L22.4502 21.2837C22.4502 21.2837 22.2739 21.1527 22.2055 21.0889C17.7474 16.9579 10.9014 16.712 5.89594 20.509C-0.117344 25.0749 -0.854943 33.7034 4.34072 39.174C7.40013 42.3946 11.2087 43.661 15.5903 43.1739C20.4496 42.6335 24.235 39.2865 25.302 34.6637C25.7103 32.9337 25.7569 31.138 25.4388 29.3892Z" fill="#4285F4"/>
<path d="M78.1095 27.4269H74.7358C74.7172 27.8398 74.701 28.2271 74.6801 28.6864L73.968 28.1459L73.1562 27.6032C71.63 26.7531 70.0168 26.6986 68.3815 27.159C65.263 28.0357 62.8553 30.8354 62.5329 34.0363C62.1746 37.5816 63.5257 40.3557 66.5712 42.2206C69.0588 43.7434 72.4615 43.6958 74.5502 41.5248C74.5676 41.5074 74.6186 41.5248 74.6662 41.5248C74.6662 42.1974 74.7242 42.8724 74.6558 43.5334C74.4528 45.4783 73.4137 46.7378 71.7019 47.2029C69.8753 47.6992 68.051 47.1054 66.9388 45.6303C66.6732 45.2823 66.4598 44.8892 66.1966 44.4705L63.1302 45.7462C64.8582 49.8912 69.3812 51.6099 73.4995 50.0373L75.42 48.9274C75.426 48.9289 75.4322 48.9292 75.4383 48.9282C75.4443 48.9272 75.4501 48.9249 75.4552 48.9215C75.4604 48.9181 75.4647 48.9137 75.4681 48.9085C75.4714 48.9033 75.4736 48.8975 75.4745 48.8915L75.5812 48.7929L75.6972 48.6769L76.0892 48.2675L76.0834 48.2536C76.378 47.879 76.7201 47.5322 76.9567 47.124C77.8114 45.65 78.1304 44.031 78.1315 42.3412C78.1315 37.512 78.1315 32.6825 78.1315 27.8525C78.135 27.7249 78.1199 27.5927 78.1095 27.4269ZM74.5212 37.3276C73.7349 39.225 72.0359 40.1992 70.0423 39.9869C68.2076 39.7921 66.6094 38.2763 66.1954 36.3175C66.1084 35.9058 66.0794 35.4802 66.0481 35.2065C66.1165 33.2685 66.7648 31.784 68.3096 30.7936C68.7665 30.4923 69.2788 30.2848 69.8166 30.1833C70.3545 30.0818 70.9071 30.0883 71.4424 30.2023C71.9777 30.3164 72.485 30.5358 72.9347 30.8478C73.3844 31.1597 73.7676 31.558 74.062 32.0195C75.1463 33.6941 75.2797 35.4964 74.5212 37.3276Z" fill="#4285F4"/>
<path d="M80.5586 18.7068V42.7344H84.0958V18.7068H80.5586Z" fill="#0F9D58"/>
<path d="M121.848 22.0476C122.915 22.0476 123.79 22.2289 124.472 22.5916L123.672 25.1836C123.16 24.9276 122.584 24.7996 121.944 24.7996C121.219 24.7996 120.622 25.0556 120.152 25.5676C119.704 26.0582 119.48 26.7196 119.48 27.5516V29.5356H123.576V32.2236H119.48V45.2156H116.536V32.2236H113.592V29.5356H116.536V27.2636C116.536 25.7062 117.027 24.4476 118.008 23.4876C119.011 22.5276 120.291 22.0476 121.848 22.0476ZM124.533 37.3756C124.533 34.9649 125.29 32.9702 126.805 31.3916C128.341 29.8129 130.271 29.0236 132.597 29.0236C134.922 29.0236 136.842 29.8129 138.357 31.3916C139.893 32.9702 140.661 34.9649 140.661 37.3756C140.661 39.8076 139.893 41.8022 138.357 43.3596C136.842 44.9382 134.922 45.7276 132.597 45.7276C130.271 45.7276 128.341 44.9382 126.805 43.3596C125.29 41.7809 124.533 39.7862 124.533 37.3756ZM127.477 37.3756C127.477 39.0609 127.967 40.4262 128.949 41.4716C129.93 42.5169 131.146 43.0396 132.597 43.0396C134.047 43.0396 135.263 42.5169 136.245 41.4716C137.226 40.4262 137.717 39.0609 137.717 37.3756C137.717 35.7116 137.226 34.3569 136.245 33.3116C135.242 32.2449 134.026 31.7116 132.597 31.7116C131.167 31.7116 129.951 32.2449 128.949 33.3116C127.967 34.3569 127.477 35.7116 127.477 37.3756ZM145.966 45.2156H143.022V29.5356H145.838V32.0956H145.966C146.265 31.2636 146.873 30.5596 147.79 29.9836C148.729 29.3862 149.646 29.0876 150.542 29.0876C151.396 29.0876 152.121 29.2156 152.718 29.4716L151.822 32.3196C151.46 32.1702 150.884 32.0956 150.094 32.0956C148.985 32.0956 148.014 32.5436 147.182 33.4396C146.372 34.3356 145.966 35.3809 145.966 36.5756V45.2156ZM175.366 39.1036C175.366 41.1089 174.63 42.7196 173.158 43.9356C171.665 45.1302 169.851 45.7276 167.718 45.7276C165.819 45.7276 164.145 45.1729 162.694 44.0636C161.243 42.9542 160.241 41.4396 159.686 39.5196L162.502 38.3676C162.694 39.0502 162.961 39.6689 163.302 40.2236C163.643 40.7782 164.038 41.2582 164.486 41.6636C164.955 42.0476 165.467 42.3569 166.022 42.5916C166.577 42.8049 167.163 42.9116 167.782 42.9116C169.126 42.9116 170.225 42.5702 171.078 41.8876C171.931 41.1836 172.358 40.2556 172.358 39.1036C172.358 38.1436 172.006 37.3222 171.302 36.6396C170.641 35.9782 169.403 35.3382 167.59 34.7196C165.755 34.0582 164.614 33.6102 164.166 33.3756C161.734 32.1382 160.518 30.3142 160.518 27.9036C160.518 26.2182 161.19 24.7782 162.534 23.5836C163.899 22.3889 165.574 21.7916 167.558 21.7916C169.307 21.7916 170.822 22.2396 172.102 23.1356C173.382 24.0102 174.235 25.1089 174.662 26.4316L171.91 27.5836C171.654 26.7302 171.142 26.0262 170.374 25.4716C169.627 24.8956 168.71 24.6076 167.622 24.6076C166.47 24.6076 165.499 24.9276 164.71 25.5676C163.921 26.1649 163.526 26.9436 163.526 27.9036C163.526 28.6929 163.835 29.3756 164.454 29.9516C165.137 30.5276 166.619 31.2102 168.902 31.9996C171.227 32.7889 172.881 33.7596 173.862 34.9116C174.865 36.0422 175.366 37.4396 175.366 39.1036ZM183.793 45.4716C182.513 45.4716 181.446 45.0769 180.593 44.2876C179.761 43.4982 179.334 42.3996 179.313 40.9916V32.2236H176.561V29.5356H179.313V24.7356H182.257V29.5356H186.097V32.2236H182.257V40.0316C182.257 41.0769 182.46 41.7916 182.865 42.1756C183.27 42.5382 183.729 42.7196 184.241 42.7196C184.476 42.7196 184.7 42.6982 184.913 42.6556C185.148 42.5916 185.361 42.5169 185.553 42.4316L186.481 45.0556C185.713 45.3329 184.817 45.4716 183.793 45.4716ZM190.729 40.4156C190.729 41.1836 191.049 41.8236 191.689 42.3356C192.35 42.8476 193.118 43.1036 193.993 43.1036C195.23 43.1036 196.329 42.6449 197.289 41.7276C198.27 40.8102 198.761 39.7329 198.761 38.4956C197.844 37.7702 196.564 37.4076 194.921 37.4076C193.726 37.4076 192.724 37.6956 191.913 38.2716C191.124 38.8476 190.729 39.5622 190.729 40.4156ZM194.537 29.0236C196.713 29.0236 198.43 29.6102 199.689 30.7836C200.948 31.9356 201.577 33.5249 201.577 35.5516V45.2156H198.761V43.0396H198.633C197.417 44.8316 195.796 45.7276 193.769 45.7276C192.041 45.7276 190.59 45.2156 189.417 44.1916C188.265 43.1676 187.689 41.8876 187.689 40.3516C187.689 38.7302 188.297 37.4396 189.513 36.4796C190.75 35.5196 192.393 35.0396 194.441 35.0396C196.19 35.0396 197.63 35.3596 198.761 35.9996V35.3276C198.761 34.3036 198.356 33.4396 197.545 32.7356C196.734 32.0102 195.785 31.6476 194.697 31.6476C193.054 31.6476 191.753 32.3409 190.793 33.7276L188.201 32.0956C189.63 30.0476 191.742 29.0236 194.537 29.0236ZM223.265 45.4716C221.985 45.4716 220.919 45.0769 220.065 44.2876C219.233 43.4982 218.807 42.3996 218.785 40.9916V32.2236H216.033V29.5356H218.785V24.7356H221.729V29.5356H225.569V32.2236H221.729V40.0316C221.729 41.0769 221.932 41.7916 222.337 42.1756C222.743 42.5382 223.201 42.7196 223.713 42.7196C223.948 42.7196 224.172 42.6982 224.385 42.6556C224.62 42.5916 224.833 42.5169 225.025 42.4316L225.953 45.0556C225.185 45.3329 224.289 45.4716 223.265 45.4716ZM204.897 29.5356H207.713V32.0956H207.841C208.716 30.0902 210.519 29.0876 213.249 29.0876L213.857 29.1516V32.2236L212.545 32.0956C211.18 32.0956 210.049 32.5222 209.153 33.3756C208.279 34.2076 207.841 35.2742 207.841 36.5756V45.2156H204.897V29.5356ZM242.157 45.2156H239.341V43.0396H239.213C238.765 43.8076 238.072 44.4476 237.133 44.9596C236.216 45.4716 235.256 45.7276 234.253 45.7276C232.333 45.7276 230.851 45.1836 229.805 44.0956C228.781 42.9862 228.269 41.4182 228.269 39.3916V29.5356H231.213V39.1996C231.277 41.7596 232.568 43.0396 235.085 43.0396C236.259 43.0396 237.24 42.5702 238.029 41.6316C238.819 40.6716 239.213 39.5302 239.213 38.2076V29.5356H242.157V45.2156ZM253.421 43.0396C254.829 43.0396 256.013 42.5062 256.973 41.4396C257.933 40.3942 258.413 39.0396 258.413 37.3756C258.413 35.7329 257.933 34.3782 256.973 33.3116C256.013 32.2449 254.829 31.7116 253.421 31.7116C251.992 31.7116 250.797 32.2449 249.837 33.3116C248.899 34.3782 248.429 35.7329 248.429 37.3756C248.429 39.0396 248.899 40.4049 249.837 41.4716C250.797 42.5169 251.992 43.0396 253.421 43.0396ZM253.901 45.7276C252.749 45.7276 251.693 45.4822 250.733 44.9916C249.795 44.5009 249.069 43.8502 248.557 43.0396H248.429L248.557 45.2156V52.1276H245.613V29.5356H248.429V31.7116H248.557C249.069 30.9009 249.795 30.2502 250.733 29.7596C251.693 29.2689 252.749 29.0236 253.901 29.0236C255.971 29.0236 257.72 29.8342 259.149 31.4556C260.621 33.0982 261.357 35.0716 261.357 37.3756C261.357 39.7009 260.621 41.6742 259.149 43.2956C257.72 44.9169 255.971 45.7276 253.901 45.7276ZM275.897 40.8636C275.897 42.2289 275.3 43.3809 274.105 44.3196C272.911 45.2582 271.407 45.7276 269.593 45.7276C268.015 45.7276 266.628 45.3222 265.433 44.5116C264.239 43.6796 263.385 42.5916 262.873 41.2476L265.497 40.1276C265.881 41.0662 266.436 41.8022 267.161 42.3356C267.908 42.8476 268.719 43.1036 269.593 43.1036C270.532 43.1036 271.311 42.9009 271.929 42.4956C272.569 42.0902 272.889 41.6102 272.889 41.0556C272.889 40.0529 272.121 39.3169 270.585 38.8476L267.897 38.1756C264.847 37.4076 263.321 35.9356 263.321 33.7596C263.321 32.3302 263.897 31.1889 265.049 30.3356C266.223 29.4609 267.716 29.0236 269.529 29.0236C270.916 29.0236 272.164 29.3542 273.273 30.0156C274.404 30.6769 275.193 31.5622 275.641 32.6716L273.017 33.7596C272.719 33.0982 272.228 32.5862 271.545 32.2236C270.884 31.8396 270.137 31.6476 269.305 31.6476C268.537 31.6476 267.844 31.8396 267.225 32.2236C266.628 32.6076 266.329 33.0769 266.329 33.6316C266.329 34.5276 267.172 35.1676 268.857 35.5516L271.225 36.1596C274.34 36.9276 275.897 38.4956 275.897 40.8636Z" fill="#1D2433" fill-opacity="0.65"/>
</svg>
