<svg width="182" height="182" viewBox="0 0 182 182" fill="none" xmlns="http://www.w3.org/2000/svg">
<rect x="1" y="1" width="180" height="180" stroke="#fff"/>
<path d="M45.0219 90.4601L40.3671 87.7185L40.3986 75.9721L35.7542 73.2372L21.0459 81.792L21 98.9836L35.663 107.621L40.3264 104.908L40.3577 93.1733L45.0219 90.4601Z" fill="#FFC696"/>
<path d="M69.7289 70.5817L55.1217 61.9715L40.413 70.5268L40.3984 75.972L50.4163 81.873L50.4025 87.3306L55.0664 84.6171L65.1054 90.5088L69.7289 87.8257V70.5817Z" fill="#C2C6C9"/>
<path d="M45.0215 90.4601L50.402 87.3308L50.4161 81.8728L40.3982 75.9722L40.3667 87.7186L45.0215 90.4601Z" fill="#FFA459"/>
<path d="M50.3856 93.6192L50.3718 99.0653L40.3263 104.908L40.312 110.364L54.975 119L69.729 110.411V93.2227L65.1054 90.5087L55.03 96.3549L50.3856 93.6192Z" fill="#FFC696"/>
<path d="M50.3864 93.6192L45.0226 90.4601L40.3584 93.1733L40.3271 104.908L50.3726 99.0653L50.3864 93.6192Z" fill="#FFA459"/>
<path d="M50.4019 87.3307L50.3853 93.6191L55.0294 96.3548L65.1048 90.5086L55.0659 84.6172L50.4019 87.3307Z" fill="#FFA459"/>
<path d="M50.3858 93.6192L50.4025 87.3308L45.022 90.4601L50.3858 93.6192Z" fill="#F98E2B"/>
<path d="M48.5455 105.848L61.6982 98.1984L61.7386 82.825L48.6273 75.1029L35.4748 82.7532L35.4339 98.1266L48.5455 105.848ZM62.8263 98.862L48.5416 107.171L34.3022 98.7843L34.3463 82.0888L48.631 73.7797L62.8705 82.167L62.8263 98.862Z" fill="white"/>
<path d="M131.697 71.5205L121.691 96.8693L111.769 71.5205H109.754L120.43 99.2106H122.624L133.798 71.5205H131.697Z" fill="#F98E2B"/>
<path d="M134.846 83.1402C135.316 79.9066 136.623 77.2919 138.733 75.3695C140.855 73.4416 143.471 72.4634 146.507 72.4634C149.75 72.4634 152.432 73.3756 154.478 75.1748C156.506 76.9561 157.913 79.6163 158.658 83.0811L158.894 84.1866H134.695L134.846 83.1402ZM146.796 98.2431C143.484 98.2431 140.677 97.1592 138.45 95.0203C136.227 92.8872 134.977 90.0672 134.733 86.6391L134.662 85.6622H160.999C160.885 81.3188 159.574 77.7322 157.103 75.0002C154.533 72.1594 151.155 70.7189 147.062 70.7189C142.866 70.7189 139.381 72.1079 136.704 74.8483C134.024 77.5896 132.665 81.1199 132.665 85.3415C132.665 89.3682 134.058 92.8631 136.805 95.7296C139.542 98.5918 142.939 100.042 146.903 100.042C149.892 100.042 152.552 99.2166 154.809 97.5877C156.762 96.1821 158.367 94.2101 159.583 91.7224H157.304C156.302 93.6693 154.917 95.2337 153.185 96.3733C151.304 97.6144 149.154 98.2431 146.796 98.2431Z" fill="#F98E2B"/>
<path d="M88.919 70.9339C87.1823 70.9339 85.6007 71.2498 84.2176 71.8743C82.8433 72.4925 81.6507 73.4255 80.6728 74.6473L79.0755 76.6367V61.9715H77.1963V99.2107H79.0755V85.7673C79.0755 83.1368 79.1711 81.3243 79.3687 80.2251C79.5719 79.0953 79.9325 78.0719 80.4396 77.1838C81.2666 75.7494 82.4064 74.6348 83.827 73.8706C85.227 73.1162 86.8691 72.7331 88.7069 72.7331C91.9698 72.7331 94.3543 73.6957 95.7955 75.594C97.2051 77.4487 97.8902 80.5487 97.8902 85.072V99.2107H99.7705V85.1246C99.7705 80.0365 98.8929 76.3421 97.1614 74.1443C95.4797 72.0135 92.7064 70.9339 88.919 70.9339Z" fill="#F98E2B"/>
<path d="M104.668 99.2081H106.601V71.5204H104.668V99.2081Z" fill="#F98E2B"/>
<path d="M82.7548 116.929H81.6101L77.9316 107.188H79.2546L81.91 114.608C82.0726 115.059 82.1761 115.455 82.2201 115.797H82.2574C82.3324 115.341 82.4293 114.957 82.5484 114.646L85.2977 107.188H86.5828L82.7548 116.929Z" fill="#C2C6C9"/>
<path d="M96.3668 111.212C96.3486 110.198 96.1107 109.412 95.6542 108.853C95.1971 108.295 94.5624 108.016 93.7494 108.016C93.3424 108.016 92.9656 108.089 92.6183 108.235C92.2712 108.38 91.9661 108.591 91.7037 108.867C91.441 109.143 91.2232 109.479 91.0515 109.875C90.8795 110.272 90.7591 110.717 90.6903 111.212H96.3668ZM90.6619 112.278C90.6682 112.874 90.7466 113.409 90.897 113.885C91.0468 114.361 91.2625 114.764 91.5437 115.093C91.8256 115.423 92.168 115.675 92.5716 115.85C92.9747 116.024 93.4302 116.111 93.9368 116.111C95.0189 116.111 96.0419 115.727 97.005 114.96V116.159C96.0852 116.824 94.9717 117.158 93.6647 117.158C93.0203 117.158 92.4356 117.043 91.9101 116.815C91.3847 116.587 90.9374 116.255 90.5684 115.821C90.1992 115.386 89.9149 114.852 89.7145 114.218C89.5146 113.584 89.4141 112.861 89.4141 112.049C89.4141 111.32 89.5238 110.645 89.7424 110.023C89.9618 109.401 90.2651 108.864 90.6528 108.411C91.0405 107.957 91.5004 107.602 92.032 107.345C92.5633 107.089 93.1452 106.96 93.7773 106.96C94.3967 106.96 94.9436 107.069 95.4191 107.288C95.8944 107.507 96.2936 107.819 96.6157 108.225C96.9375 108.631 97.1835 109.126 97.3518 109.71C97.5209 110.293 97.6053 110.946 97.6053 111.669V112.278H90.6619Z" fill="#C2C6C9"/>
<path d="M108.366 116.929V111.317C108.366 109.116 107.578 108.016 106.001 108.016C105.582 108.016 105.195 108.1 104.838 108.268C104.481 108.436 104.174 108.669 103.913 108.967C103.654 109.265 103.451 109.619 103.304 110.028C103.157 110.437 103.083 110.879 103.083 111.354V116.929H101.882V107.188H103.083V108.881H103.121C103.834 107.601 104.907 106.961 106.339 106.961C107.39 106.961 108.191 107.305 108.741 107.997C109.292 108.688 109.567 109.687 109.567 110.993V116.929H108.366Z" fill="#C2C6C9"/>
<path d="M118.506 116.815C118.094 117.024 117.643 117.129 117.155 117.129C115.604 117.129 114.828 116.222 114.828 114.409V108.253H113.14V107.188H114.828V104.734L116.03 104.335V107.188H118.506V108.253H116.03V114.218C116.03 114.878 116.135 115.353 116.349 115.645C116.561 115.937 116.921 116.083 117.428 116.083C117.803 116.083 118.163 115.968 118.506 115.74V116.815Z" fill="#C2C6C9"/>
<path d="M128.696 116.929V115.274H128.658C128.007 116.53 126.997 117.158 125.627 117.158C123.344 117.158 122.202 115.744 122.202 112.915V107.188H123.403V112.687C123.403 113.854 123.608 114.716 124.018 115.274C124.427 115.832 125.055 116.111 125.899 116.111C126.312 116.111 126.689 116.03 127.03 115.868C127.371 115.707 127.664 115.478 127.912 115.184C128.159 114.888 128.351 114.535 128.489 114.123C128.626 113.71 128.696 113.254 128.696 112.753V107.188H129.896V116.929H128.696Z" fill="#C2C6C9"/>
<path d="M139.68 108.434C139.398 108.225 139.035 108.121 138.591 108.121C138.272 108.121 137.991 108.182 137.746 108.306C137.503 108.43 137.288 108.596 137.103 108.805C136.919 109.015 136.763 109.257 136.635 109.533C136.506 109.809 136.403 110.096 136.325 110.394C136.246 110.692 136.19 110.993 136.157 111.298C136.122 111.602 136.104 111.89 136.104 112.163V116.929H134.913V107.188H136.104V109.272H136.142C136.255 108.917 136.397 108.598 136.569 108.316C136.741 108.033 136.94 107.795 137.165 107.602C137.39 107.409 137.635 107.262 137.902 107.16C138.167 107.058 138.447 107.008 138.741 107.008C138.935 107.008 139.109 107.02 139.262 107.046C139.415 107.071 139.554 107.109 139.68 107.16V108.434Z" fill="#C2C6C9"/>
<path d="M149.372 111.212C149.353 110.198 149.116 109.412 148.659 108.853C148.202 108.295 147.567 108.016 146.754 108.016C146.348 108.016 145.971 108.089 145.623 108.235C145.276 108.38 144.971 108.591 144.709 108.867C144.446 109.143 144.228 109.479 144.056 109.875C143.884 110.272 143.764 110.717 143.695 111.212H149.372ZM143.667 112.278C143.674 112.874 143.751 113.409 143.902 113.885C144.052 114.361 144.268 114.764 144.549 115.093C144.831 115.423 145.173 115.675 145.577 115.85C145.98 116.024 146.435 116.111 146.941 116.111C148.024 116.111 149.047 115.727 150.01 114.96V116.159C149.091 116.824 147.977 117.158 146.67 117.158C146.025 117.158 145.44 117.043 144.915 116.815C144.389 116.587 143.942 116.255 143.573 115.821C143.204 115.386 142.92 114.852 142.719 114.218C142.519 113.584 142.419 112.861 142.419 112.049C142.419 111.32 142.528 110.645 142.748 110.023C142.966 109.401 143.269 108.864 143.658 108.411C144.046 107.957 144.505 107.602 145.036 107.345C145.569 107.089 146.151 106.96 146.782 106.96C147.402 106.96 147.948 107.069 148.424 107.288C148.9 107.507 149.299 107.819 149.621 108.225C149.943 108.631 150.188 109.126 150.358 109.71C150.526 110.293 150.61 110.946 150.61 111.669V112.278H143.667Z" fill="#C2C6C9"/>
<path d="M154.343 115.179C154.523 115.325 154.72 115.455 154.934 115.569C155.146 115.683 155.365 115.781 155.59 115.864C155.816 115.946 156.042 116.008 156.27 116.049C156.499 116.091 156.716 116.111 156.923 116.111C158.349 116.111 159.062 115.569 159.062 114.484C159.062 114.237 159.012 114.023 158.912 113.842C158.812 113.662 158.668 113.497 158.48 113.347C158.292 113.199 158.068 113.061 157.804 112.934C157.542 112.807 157.245 112.674 156.914 112.534C156.469 112.351 156.087 112.163 155.769 111.973C155.45 111.783 155.186 111.576 154.98 111.35C154.774 111.125 154.621 110.878 154.521 110.608C154.421 110.339 154.371 110.033 154.371 109.69C154.371 109.259 154.463 108.875 154.647 108.539C154.832 108.203 155.081 107.918 155.393 107.683C155.706 107.448 156.067 107.27 156.477 107.145C156.887 107.022 157.317 106.961 157.767 106.961C158.599 106.961 159.325 107.119 159.944 107.435V108.72C159.225 108.25 158.449 108.016 157.617 108.016C157.317 108.016 157.043 108.054 156.796 108.13C156.549 108.206 156.338 108.314 156.163 108.454C155.987 108.593 155.851 108.759 155.755 108.953C155.657 109.146 155.609 109.36 155.609 109.595C155.609 109.836 155.647 110.047 155.721 110.227C155.797 110.408 155.914 110.572 156.074 110.717C156.233 110.864 156.44 111.003 156.693 111.136C156.946 111.269 157.254 111.412 157.617 111.564C158.08 111.755 158.48 111.943 158.818 112.13C159.156 112.317 159.435 112.52 159.653 112.739C159.872 112.958 160.035 113.202 160.141 113.471C160.247 113.741 160.301 114.053 160.301 114.409C160.301 114.846 160.212 115.236 160.033 115.578C159.855 115.921 159.608 116.209 159.292 116.444C158.976 116.679 158.605 116.856 158.18 116.977C157.755 117.097 157.291 117.158 156.791 117.158C155.822 117.158 155.005 116.951 154.343 116.539V115.179Z" fill="#C2C6C9"/>
</svg>
