<svg width="69" height="69" viewBox="0 0 69 69" fill="none" xmlns="http://www.w3.org/2000/svg">
<path d="M34.5563 54.5042C46.388 54.5042 55.9797 44.8638 55.9797 32.9717C55.9797 21.0795 46.388 11.4391 34.5563 11.4391C22.7244 11.4391 13.1328 21.0795 13.1328 32.9717C13.1328 44.8638 22.7244 54.5042 34.5563 54.5042Z" fill="#FFD21E"/>
<path d="M55.9809 32.9717C55.9809 21.0796 46.3892 11.4391 34.5574 11.4391C22.7256 11.4391 13.134 21.0796 13.134 32.9717C13.134 44.8638 22.7256 54.5043 34.5574 54.5043C46.3892 54.5043 55.9809 44.8638 55.9809 32.9717ZM10.668 32.9717C10.668 19.7107 21.3636 8.96057 34.5574 8.96057C47.7512 8.96057 58.4469 19.7107 58.4469 32.9717C58.4469 46.2327 47.7512 56.9829 34.5574 56.9829C21.3636 56.9829 10.668 46.2327 10.668 32.9717Z" fill="#FF9D0B"/>
<path d="M41.5172 27.1108C42.3029 27.3896 42.6155 29.0131 43.4092 28.5889C44.9123 27.7855 45.483 25.9096 44.6837 24.3988C43.8845 22.888 42.018 22.3145 40.5149 23.1178C39.0117 23.9211 38.4411 25.7971 39.2403 27.3079C39.6176 28.021 40.8149 26.8615 41.5172 27.1108Z" fill="#3A3B45"/>
<path d="M26.9966 27.1108C26.211 27.3896 25.8984 29.0131 25.1047 28.5889C23.6016 27.7855 23.0309 25.9096 23.8302 24.3988C24.6294 22.888 26.4959 22.3145 27.999 23.1178C29.5022 23.9211 30.0728 25.7971 29.2736 27.3079C28.8963 28.021 27.699 26.8615 26.9966 27.1108Z" fill="#3A3B45"/>
<path d="M34.4051 41.9807C40.4644 41.9807 42.4197 36.5508 42.4197 33.7625C42.4197 32.3133 41.4505 32.7694 39.8981 33.5419C38.4636 34.2557 36.531 35.2396 34.4051 35.2396C29.9789 35.2396 26.3906 30.9742 26.3906 33.7625C26.3906 36.5508 28.3459 41.9807 34.4051 41.9807Z" fill="#3A3B45"/>
<path d="M49.0466 30.0284C50.1532 30.0284 51.0502 29.1268 51.0502 28.0146C51.0502 26.9024 50.1532 26.0007 49.0466 26.0007C47.94 26.0007 47.043 26.9024 47.043 28.0146C47.043 29.1268 47.94 30.0284 49.0466 30.0284Z" fill="#FF9D0B"/>
<path d="M20.3747 30.0284C21.4813 30.0284 22.3784 29.1268 22.3784 28.0146C22.3784 26.9024 21.4813 26.0007 20.3747 26.0007C19.2681 26.0007 18.3711 26.9024 18.3711 28.0146C18.3711 29.1268 19.2681 30.0284 20.3747 30.0284Z" fill="#FF9D0B"/>
<path d="M16.2512 36.8446C15.2531 36.8446 14.3611 37.2567 13.739 38.004C13.3543 38.4668 12.9523 39.2129 12.9197 40.3301C12.5011 40.2093 12.0985 40.1417 11.7224 40.1417C10.7668 40.1417 9.90374 40.5098 9.29341 41.1784C8.50922 42.0366 8.16089 43.0912 8.31255 44.1465C8.38468 44.649 8.55175 45.0995 8.80144 45.5165C8.27495 45.9447 7.88717 46.5408 7.69975 47.2577C7.55302 47.8197 7.4026 48.9902 8.18802 50.196C8.13808 50.2747 8.09123 50.3565 8.04746 50.4402C7.57522 51.3411 7.54501 52.3592 7.96176 53.3073C8.59368 54.7442 10.1639 55.8763 13.2131 57.0914C15.1101 57.8474 16.8456 58.3307 16.861 58.335C19.3689 58.9888 21.637 59.3209 23.6006 59.3209C27.2096 59.3209 29.7933 58.2099 31.2803 56.0188C33.6736 52.4906 33.3314 49.2635 30.2347 46.1529C28.5209 44.4315 27.3816 41.8935 27.1442 41.3364C26.6658 39.6869 25.4008 37.8534 23.2979 37.8534H23.2972C23.1203 37.8534 22.9415 37.8676 22.7652 37.8955C21.8442 38.0411 21.039 38.574 20.4638 39.3758C19.843 38.6001 19.24 37.9829 18.6944 37.6346C17.872 37.1104 17.0502 36.8446 16.2512 36.8446ZM16.2512 39.3232C16.5657 39.3232 16.9497 39.4576 17.3733 39.7278C18.6883 40.5662 21.2258 44.9501 22.1549 46.6554C22.4662 47.2267 22.9982 47.4684 23.4773 47.4684C24.4279 47.4684 25.1702 46.5185 23.5642 45.3114C21.1494 43.4952 21.9964 40.5265 23.1493 40.3437C23.1998 40.3357 23.2498 40.332 23.2979 40.332C24.3459 40.332 24.8083 42.1475 24.8083 42.1475C24.8083 42.1475 26.1634 45.5679 28.4913 47.9058C30.8192 50.2444 30.9394 52.1213 29.2428 54.6221C28.0856 56.3274 25.8705 56.8423 23.6006 56.8423C21.2461 56.8423 18.8325 56.2884 17.4799 55.9358C17.4134 55.9184 9.18737 53.583 10.2293 51.5952C10.4043 51.2612 10.6929 51.1274 11.056 51.1274C12.5233 51.1274 15.1921 53.3221 16.3394 53.3221C16.5959 53.3221 16.7765 53.2125 16.8505 52.9448C17.3394 51.1819 9.41732 50.4408 10.085 47.8873C10.2027 47.4355 10.5221 47.2521 10.9709 47.2527C12.9098 47.2527 17.2598 50.68 18.1716 50.68C18.2413 50.68 18.2913 50.6595 18.3184 50.6162C18.7752 49.8751 18.5249 49.3577 15.3049 47.399C12.0849 45.4397 9.82483 44.2611 11.1102 42.8545C11.2582 42.6922 11.4678 42.6203 11.7224 42.6203C13.6774 42.6209 18.2962 46.8456 18.2962 46.8456C18.2962 46.8456 19.5428 48.1487 20.2967 48.1487C20.47 48.1487 20.6173 48.08 20.7172 47.9102C21.2517 47.0043 15.7525 42.8155 15.4424 41.0873C15.2322 39.9162 15.5897 39.3232 16.2512 39.3232Z" fill="#FF9D0B"/>
<path d="M29.2446 54.6222C30.9412 52.1214 30.821 50.2445 28.4931 47.9059C26.1652 45.568 24.8101 42.1476 24.8101 42.1476C24.8101 42.1476 24.304 40.161 23.1511 40.3438C21.9983 40.5266 21.1518 43.4953 23.5666 45.3115C25.9815 47.127 23.0858 48.3608 22.1567 46.6555C21.2276 44.9502 18.6907 40.5663 17.3751 39.7279C16.0601 38.8895 15.1341 39.3592 15.4442 41.0874C15.7543 42.8156 21.2541 47.0044 20.719 47.9109C20.1839 48.8168 18.298 46.8457 18.298 46.8457C18.298 46.8457 12.3969 41.448 11.112 42.8546C9.82724 44.2612 12.0868 45.4398 15.3067 47.3991C18.5273 49.3578 18.777 49.8752 18.3202 50.6162C17.8628 51.3573 10.7545 45.3338 10.0868 47.8873C9.41973 50.4409 17.3412 51.182 16.8523 52.9449C16.3634 54.7084 11.2723 49.6081 10.2311 51.5953C9.18916 53.5831 17.4152 55.9185 17.4818 55.9359C20.1389 56.6286 26.8871 58.0966 29.2446 54.6222Z" fill="#FFD21E"/>
<path d="M53.1682 36.8446C54.1663 36.8446 55.0584 37.2567 55.6805 38.004C56.0652 38.4668 56.4671 39.2129 56.4998 40.3301C56.9184 40.2093 57.321 40.1417 57.6971 40.1417C58.6526 40.1417 59.5157 40.5098 60.1261 41.1784C60.9103 42.0366 61.2586 43.0912 61.1069 44.1465C61.0348 44.649 60.8677 45.0995 60.618 45.5165C61.1445 45.9447 61.5323 46.5408 61.7197 47.2577C61.8664 47.8197 62.0169 48.9902 61.2315 50.196C61.2814 50.2747 61.3282 50.3565 61.372 50.4402C61.8443 51.3411 61.8745 52.3592 61.4577 53.3073C60.8258 54.7442 59.2556 55.8763 56.2063 57.0914C54.3094 57.8474 52.5739 58.3307 52.5585 58.335C50.0506 58.9888 47.7825 59.3209 45.8189 59.3209C42.2099 59.3209 39.6261 58.2099 38.1391 56.0188C35.7459 52.4906 36.088 49.2635 39.1847 46.1529C40.8986 44.4315 42.0379 41.8935 42.2753 41.3364C42.7537 39.6869 44.0187 37.8534 46.1216 37.8534H46.1222C46.2992 37.8534 46.4779 37.8676 46.6543 37.8955C47.5753 38.0411 48.3805 38.574 48.9557 39.3758C49.5765 38.6001 50.1794 37.9829 50.725 37.6346C51.5474 37.1104 52.3692 36.8446 53.1682 36.8446ZM53.1682 39.3232C52.8538 39.3232 52.4697 39.4576 52.0462 39.7278C50.7312 40.5662 48.1937 44.9501 47.2646 46.6554C46.9533 47.2267 46.4212 47.4684 45.9422 47.4684C44.9916 47.4684 44.2493 46.5185 45.8553 45.3114C48.2701 43.4952 47.423 40.5265 46.2702 40.3437C46.2196 40.3357 46.1697 40.332 46.1216 40.332C45.0736 40.332 44.6112 42.1475 44.6112 42.1475C44.6112 42.1475 43.2561 45.5679 40.9282 47.9058C38.6003 50.2444 38.4801 52.1213 40.1767 54.6221C41.3339 56.3274 43.5489 56.8423 45.8189 56.8423C48.1733 56.8423 50.5869 56.2884 51.9395 55.9358C52.0061 55.9184 60.2321 53.583 59.1902 51.5952C59.0151 51.2612 58.7266 51.1274 58.3635 51.1274C56.8962 51.1274 54.2274 53.3221 53.0801 53.3221C52.8236 53.3221 52.643 53.2125 52.569 52.9448C52.0801 51.1819 60.0022 50.4408 59.3345 47.8873C59.2167 47.4355 58.8974 47.2521 58.4486 47.2527C56.5097 47.2527 52.1596 50.68 51.2478 50.68C51.1782 50.68 51.1282 50.6595 51.1011 50.6162C50.6443 49.8751 50.8946 49.3577 54.1146 47.399C57.3345 45.4397 59.5946 44.2611 58.3092 42.8545C58.1613 42.6922 57.9517 42.6203 57.6971 42.6203C55.7421 42.6209 51.1233 46.8456 51.1233 46.8456C51.1233 46.8456 49.8767 48.1487 49.1227 48.1487C48.9495 48.1487 48.8022 48.08 48.7023 47.9102C48.1678 47.0043 53.667 42.8155 53.9771 41.0873C54.1873 39.9162 53.8297 39.3232 53.1682 39.3232Z" fill="#FF9D0B"/>
<path d="M40.1746 54.6222C38.478 52.1214 38.5982 50.2445 40.9262 47.9059C43.2541 45.568 44.6091 42.1476 44.6091 42.1476C44.6091 42.1476 45.1153 40.161 46.2681 40.3438C47.421 40.5266 48.2675 43.4953 45.8526 45.3115C43.4378 47.127 46.3335 48.3608 47.2626 46.6555C48.1916 44.9502 50.7285 40.5663 52.0442 39.7279C53.3591 38.8895 54.2851 39.3592 53.975 41.0874C53.6649 42.8156 48.1651 47.0044 48.7002 47.9109C49.2354 48.8168 51.1212 46.8457 51.1212 46.8457C51.1212 46.8457 57.0224 41.448 58.3072 42.8546C59.592 44.2612 57.3325 45.4398 54.1125 47.3991C50.8919 49.3578 50.6422 49.8752 51.0991 50.6162C51.5565 51.3573 58.6648 45.3338 59.3324 47.8873C59.9995 50.4409 52.0781 51.182 52.5669 52.9449C53.0558 54.7084 58.1469 49.6081 59.1882 51.5953C60.2301 53.5831 52.0041 55.9185 51.9375 55.9359C49.2804 56.6286 42.5321 58.0966 40.1746 54.6222Z" fill="#FFD21E"/>
<mask id="mask0_4656_12466" style="mask-type:alpha" maskUnits="userSpaceOnUse" x="26" y="32" width="17" height="10">
<path d="M34.4012 41.9807C40.4605 41.9807 42.4158 36.5508 42.4158 33.7625C42.4158 32.3133 41.4466 32.7694 39.8942 33.5419C38.4597 34.2557 36.5271 35.2396 34.4012 35.2396C29.9749 35.2396 26.3867 30.9742 26.3867 33.7625C26.3867 36.5508 28.342 41.9807 34.4012 41.9807Z" fill="white"/>
</mask>
<g mask="url(#mask0_4656_12466)">
<path d="M34.5579 48.308C37.5108 48.308 39.9047 45.9019 39.9047 42.9339C39.9047 40.622 38.4524 38.6512 36.4148 37.8927C36.3398 37.8648 36.264 37.8385 36.1875 37.8139C35.6737 37.6488 35.1261 39.4237 34.5579 39.4237C34.0269 39.4237 33.5139 37.6375 33.0297 37.7824C30.8213 38.4432 29.2109 40.4995 29.2109 42.9339C29.2109 45.9019 31.6048 48.308 34.5579 48.308Z" fill="#F94040"/>
</g>
</svg>
