<svg width="140" height="35" viewBox="0 0 140 35" fill="none" xmlns="http://www.w3.org/2000/svg">
<path d="M33.0656 23.5152L19.1014 6.00645L4.88654 23.5329C4.32006 24.3496 3.3444 24.7803 2.35969 24.6484C1.37499 24.5164 0.546928 23.844 0.215111 22.907C-0.116706 21.9699 0.103551 20.9258 0.785552 20.2028L15.7754 1.71538C16.5879 0.707795 17.813 0.123091 19.1067 0.125434C20.4241 0.127753 21.6521 0.722019 22.461 1.74011L37.2002 20.217C37.8286 21.0127 37.9479 22.0976 37.5076 23.0111C37.0674 23.9246 36.1446 24.5065 35.1311 24.5098C34.3271 24.5109 33.5665 24.1447 33.0656 23.5152Z" fill="#365ABD"/>
<path d="M26.998 33.7579H11.249C10.2569 33.835 9.30537 33.349 8.78573 32.4998C8.26609 31.6505 8.26609 30.5815 8.78573 29.7322C9.30537 28.883 10.2569 28.397 11.249 28.474H26.9963C28.3751 28.5812 29.4394 29.732 29.4394 31.116C29.4394 32.4999 28.3751 33.6508 26.9963 33.7579H26.998Z" fill="#365ABD"/>
<path d="M20.376 17.1042C20.0568 16.7475 19.601 16.5437 19.1225 16.5437C18.6441 16.5437 18.1883 16.7475 17.8691 17.1042C17.0923 17.9716 16.0313 19.2047 14.905 20.6569C14.5094 21.1663 14.4388 21.8569 14.723 22.436C15.0073 23.015 15.5967 23.3812 16.2414 23.3792H22.016C22.6585 23.3764 23.2436 23.0085 23.5247 22.4304C23.8059 21.8523 23.7343 21.1645 23.34 20.6569C22.2137 19.2047 21.1527 17.9716 20.376 17.1042Z" fill="#365ABD"/>
<path d="M51.6035 9.78001C51.6035 8.98834 52.0734 8.51334 52.7792 8.51334C53.4586 8.51334 53.9285 8.98834 53.9285 9.78001V25.4551C53.9285 26.2468 53.4586 26.7218 52.7792 26.7218C52.0752 26.7218 51.6035 26.2468 51.6035 25.4551V9.78001Z" fill="#365ABD"/>
<path d="M58.2598 14.9979C58.2598 14.2596 58.7297 13.8113 59.3563 13.8113C59.9828 13.8113 60.4527 14.2596 60.4527 14.9979V15.3662H60.4791C61.0793 14.3895 62.2814 13.6512 63.978 13.6512C66.6937 13.6512 68.3112 15.5245 68.3112 18.4012V25.5173C68.3112 26.2556 67.8413 26.704 67.2147 26.704C66.5881 26.704 66.1182 26.2556 66.1182 25.5173V18.9296C66.1182 16.8979 65.2048 15.7095 63.3251 15.7095C61.6284 15.7095 60.4527 16.9228 60.4527 18.7962V25.5262C60.4527 26.2645 59.9828 26.7129 59.3563 26.7129C58.7297 26.7129 58.2598 26.2645 58.2598 25.5262V14.9979Z" fill="#365ABD"/>
<path d="M77.0796 13.9412C77.6797 13.9412 78.0194 14.3112 78.0194 14.8307C78.0194 15.3502 77.6797 15.7202 77.0796 15.7202H75.2263C75.1832 15.7142 75.1398 15.729 75.1091 15.7601C75.0783 15.7912 75.0637 15.835 75.0696 15.8785V25.5102C75.0696 26.2485 74.5997 26.6969 73.9731 26.6969C73.3466 26.6969 72.8767 26.2485 72.8767 25.5102V15.8946C72.8826 15.851 72.868 15.8072 72.8372 15.7761C72.8065 15.745 72.7631 15.7303 72.72 15.7362H72.016C71.4159 15.7362 71.0762 15.3662 71.0762 14.8467C71.0762 14.3272 71.4159 13.9572 72.016 13.9572H72.72C72.7631 13.9632 72.8065 13.9484 72.8372 13.9173C72.868 13.8862 72.8826 13.8424 72.8767 13.7989V12.6745C72.8767 9.63947 74.1298 8.63788 76.7487 8.63788H76.9247C77.6815 8.63788 78.074 9.05951 78.074 9.66616C78.074 10.2728 77.6832 10.6944 77.0039 10.6944C75.3847 10.6944 75.0679 11.0111 75.0679 12.5411V13.7864C75.062 13.83 75.0766 13.8738 75.1073 13.9049C75.1381 13.936 75.1814 13.9507 75.2245 13.9447L77.0796 13.9412Z" fill="#365ABD"/>
<path d="M90.5752 25.5263C90.5752 26.2646 90.1053 26.7129 89.4788 26.7129C88.8522 26.7129 88.3823 26.2646 88.3823 25.5263V25.1562H88.3559C87.7557 26.1329 86.6064 26.8712 84.9098 26.8712C82.1941 26.8712 80.603 24.9979 80.603 22.1212V15.005C80.603 14.2667 81.073 13.8184 81.6995 13.8184C82.3261 13.8184 82.796 14.2667 82.796 15.005V21.6017C82.796 23.6334 83.676 24.8218 85.5627 24.8218C87.2594 24.8218 88.3788 23.6085 88.3788 21.7351V14.9979C88.3788 14.2596 88.8487 13.8113 89.4752 13.8113C90.1018 13.8113 90.5717 14.2596 90.5717 14.9979L90.5752 25.5263Z" fill="#365ABD"/>
<path d="M94.5426 25.4729C94.2216 25.277 94.0223 24.9285 94.0146 24.5496C94.0165 24.2798 94.1251 24.0221 94.3162 23.8339C94.5074 23.6457 94.7651 23.5427 95.0319 23.548C95.2926 23.5554 95.5459 23.6374 95.7623 23.7846C96.7796 24.3912 97.8515 24.8929 99.2612 24.8929C101.063 24.8929 102.003 24.1012 102.003 22.9929C102.003 21.9379 101.533 21.4096 99.5499 21.1979L98.244 21.0662C95.7905 20.8029 94.511 19.5362 94.511 17.5081C94.511 15.1064 96.2076 13.6548 99.131 13.6548C100.436 13.6374 101.723 13.957 102.871 14.5834C103.315 14.8218 103.524 15.1171 103.524 15.5067C103.525 15.759 103.426 16.0012 103.25 16.1795C103.073 16.3579 102.834 16.4577 102.584 16.4567C102.311 16.4459 102.043 16.3736 101.801 16.245C100.939 15.8207 99.996 15.5929 99.0377 15.5779C97.4713 15.5779 96.6617 16.2895 96.6617 17.3196C96.6617 18.3496 97.2355 18.8495 99.1152 19.0346L100.421 19.1662C103.031 19.4562 104.18 20.6962 104.18 22.7545C104.18 25.2345 102.405 26.8713 99.0888 26.8713C97.4684 26.8801 95.8834 26.3926 94.5426 25.4729Z" fill="#365ABD"/>
<path d="M107.31 23.4412C107.049 22.6495 106.893 21.7529 106.893 20.2478C106.893 18.7428 107.023 17.8461 107.285 17.0545C107.989 14.8645 109.791 13.6512 112.167 13.6512C114.621 13.6512 116.391 14.8645 117.076 17.0314C117.363 17.8764 117.493 18.8531 117.493 20.0931C117.503 20.3249 117.415 20.5501 117.25 20.7117C117.085 20.8732 116.86 20.9556 116.631 20.9381H109.291C109.248 20.9321 109.205 20.9469 109.174 20.978C109.144 21.0091 109.129 21.0529 109.135 21.0964C109.12 21.6147 109.191 22.1317 109.344 22.6264C109.814 24.0781 110.963 24.8164 112.503 24.8164C113.735 24.8164 114.566 24.4464 115.506 23.7348C115.713 23.542 115.981 23.4298 116.263 23.4181C116.507 23.4122 116.743 23.5076 116.915 23.682C117.088 23.8565 117.182 24.0948 117.176 24.3414C117.175 24.6411 117.052 24.9272 116.837 25.1331C115.618 26.2772 114.01 26.9013 112.347 26.8747C109.761 26.873 108.014 25.6579 107.31 23.4412ZM115.089 19.1715C115.132 19.1775 115.175 19.1628 115.206 19.1317C115.237 19.1006 115.251 19.0567 115.246 19.0132C115.263 18.5323 115.204 18.0516 115.07 17.59C114.652 16.3233 113.607 15.6099 112.197 15.6099C110.787 15.6099 109.744 16.3215 109.325 17.59C109.19 18.0516 109.131 18.5323 109.149 19.0132C109.143 19.0567 109.158 19.1006 109.188 19.1317C109.219 19.1628 109.262 19.1775 109.306 19.1715H115.089Z" fill="#365ABD"/>
<path d="M119.838 25.1046L125.294 9.82627C125.58 8.98123 126.024 8.50623 126.807 8.50623C127.59 8.50623 128.087 8.98123 128.374 9.82627L133.752 25.1046C133.815 25.2758 133.85 25.456 133.856 25.6383C133.86 25.9311 133.745 26.2128 133.538 26.4173C133.33 26.6218 133.049 26.7312 132.76 26.72C132.238 26.7329 131.774 26.3841 131.637 25.8749L130.436 22.4112H123.15L121.95 25.8678C121.812 26.377 121.349 26.7258 120.827 26.7129C120.537 26.7241 120.256 26.6147 120.049 26.4102C119.841 26.2056 119.726 25.924 119.73 25.6312C119.738 25.451 119.774 25.2733 119.838 25.1046ZM129.68 20.2496L126.86 12.0928H126.783L123.91 20.2461L129.68 20.2496Z" fill="#365ABD"/>
<path d="M136.91 9.78001C136.91 8.98834 137.38 8.51334 138.085 8.51334C138.765 8.51334 139.235 8.98834 139.235 9.78001V25.4551C139.235 26.2468 138.765 26.7218 138.085 26.7218C137.381 26.7218 136.91 26.2468 136.91 25.4551V9.78001Z" fill="#365ABD"/>
</svg>
