<svg width="140" height="37" viewBox="0 0 140 37" fill="none" xmlns="http://www.w3.org/2000/svg">
<path d="M50.901 13.6316H55.8084C55.8393 13.6316 55.87 13.6377 55.8986 13.6495C55.9272 13.6614 55.9532 13.6787 55.9751 13.7006C55.997 13.7225 56.0144 13.7485 56.0262 13.7771C56.0381 13.8057 56.0442 13.8364 56.0442 13.8674L56.0368 15.2453C56.0368 15.3078 56.0119 15.3678 55.9677 15.412C55.9235 15.4562 55.8635 15.4811 55.801 15.4811L48.8378 15.4737C48.7753 15.4737 48.7153 15.4488 48.6711 15.4046C48.6269 15.3604 48.6021 15.3004 48.6021 15.2379L48.6168 4.70842C48.6168 4.64714 48.6406 4.58826 48.6832 4.54424C48.7259 4.50023 48.784 4.47454 48.8452 4.47263L50.4442 4.45052C50.4757 4.44954 50.5072 4.45491 50.5367 4.46631C50.5661 4.47772 50.593 4.49493 50.6157 4.51693C50.6383 4.53892 50.6564 4.56525 50.6687 4.59435C50.681 4.62344 50.6873 4.65472 50.6873 4.68631L50.6652 13.3958C50.6652 13.4583 50.6901 13.5183 50.7343 13.5625C50.7785 13.6067 50.8385 13.6316 50.901 13.6316Z" fill="#212D3A"/>
<path d="M63.5969 13.8011C64.9281 13.7618 65.5962 13.0765 65.6011 11.7453L65.6232 4.98842C65.6232 4.65439 65.7878 4.49228 66.1169 4.50211L67.5685 4.53895C67.6193 4.53895 67.668 4.55991 67.704 4.59722C67.7399 4.63453 67.7601 4.68513 67.7601 4.73789C67.7699 6.99754 67.7576 9.1614 67.7232 11.2295C67.6127 17.5442 58.498 17.3821 58.7264 10.8832C58.805 8.7414 58.8173 6.73474 58.7632 4.86316C58.7612 4.81198 58.7698 4.76093 58.7887 4.71314C58.8075 4.66535 58.836 4.62184 58.8726 4.58526C58.9092 4.54869 58.953 4.51983 59.0013 4.50047C59.0497 4.4811 59.1015 4.47162 59.1538 4.47263L60.6127 4.51684C60.6818 4.51876 60.7474 4.54833 60.7956 4.59925C60.8438 4.65017 60.8707 4.71843 60.8706 4.78947L60.8411 11.4726C60.8313 13.0839 61.6296 13.8649 63.2359 13.8158L63.5969 13.8011Z" fill="#212D3A"/>
<path d="M73.279 8.2821L73.3453 15.3042C73.3453 15.3687 73.3197 15.4305 73.2741 15.4761C73.2285 15.5217 73.1667 15.5474 73.1022 15.5474L71.5327 15.5621C71.4682 15.5621 71.4064 15.5365 71.3608 15.4909C71.3152 15.4453 71.2896 15.3834 71.2896 15.3189L71.3117 4.81158C71.3117 4.74709 71.3373 4.68524 71.3829 4.63964C71.4285 4.59404 71.4903 4.56842 71.5548 4.56842L73.3232 4.59052C73.3622 4.5905 73.4007 4.59986 73.4353 4.61782C73.4699 4.63577 73.4997 4.66179 73.5222 4.69368L78.319 11.8779C78.3484 11.9197 78.3901 11.9512 78.4384 11.968C78.4867 11.9847 78.539 11.9858 78.5879 11.9711C78.6369 11.9565 78.68 11.9267 78.711 11.8862C78.7421 11.8456 78.7597 11.7963 78.7611 11.7453L78.7169 4.83368C78.7169 4.76919 78.7425 4.70734 78.7881 4.66174C78.8337 4.61614 78.8956 4.59052 78.9601 4.59052L80.5222 4.58316C80.5867 4.58316 80.6485 4.60877 80.6941 4.65437C80.7397 4.69998 80.7653 4.76182 80.7653 4.82631L80.7064 15.3632C80.7064 15.4276 80.6808 15.4895 80.6352 15.5351C80.5896 15.5807 80.5277 15.6063 80.4632 15.6063L78.7906 15.5989C78.7497 15.5994 78.7093 15.5895 78.6733 15.5701C78.6372 15.5508 78.6066 15.5227 78.5843 15.4884L73.7285 8.14947C73.7004 8.10435 73.6582 8.0697 73.6085 8.05081C73.5588 8.03192 73.5043 8.02984 73.4533 8.04489C73.4023 8.05993 73.3577 8.09128 73.3262 8.13412C73.2947 8.17696 73.2781 8.22894 73.279 8.2821Z" fill="#212D3A"/>
<path d="M90.3742 12.8211L86.631 12.8284C86.5809 12.8286 86.532 12.8443 86.4911 12.8733C86.4502 12.9023 86.4193 12.9433 86.4026 12.9905L85.5552 15.4295C85.5402 15.477 85.5109 15.5187 85.4714 15.549C85.4318 15.5793 85.3839 15.5967 85.3342 15.5989L83.6689 15.6432C83.6292 15.6435 83.59 15.634 83.5547 15.6157C83.5195 15.5974 83.4893 15.5707 83.4667 15.538C83.4442 15.5052 83.43 15.4675 83.4254 15.428C83.4209 15.3886 83.426 15.3486 83.4405 15.3116L87.4784 4.75263C87.4963 4.70673 87.5277 4.66736 87.5685 4.63973C87.6093 4.6121 87.6575 4.59751 87.7068 4.59789L89.5121 4.61263C89.5613 4.61225 89.6095 4.62683 89.6503 4.65447C89.6911 4.6821 89.7226 4.72147 89.7405 4.76737L93.6973 15.3116C93.7118 15.3486 93.7169 15.3886 93.7123 15.428C93.7078 15.4675 93.6936 15.5052 93.6711 15.538C93.6485 15.5707 93.6183 15.5974 93.5831 15.6157C93.5478 15.634 93.5086 15.6435 93.4689 15.6432L91.6784 15.6211C91.6282 15.6209 91.5794 15.6052 91.5385 15.5762C91.4976 15.5472 91.4667 15.5062 91.45 15.4589L90.61 12.9832C90.5928 12.9347 90.5608 12.8929 90.5184 12.8638C90.4761 12.8346 90.4256 12.8197 90.3742 12.8211ZM88.3847 7.21368L87.1984 10.6768C87.105 10.9421 87.1984 11.0747 87.4784 11.0747L89.4752 11.0968C89.8043 11.0968 89.9173 10.9396 89.8142 10.6253L88.6721 7.21368C88.5787 6.93368 88.4829 6.93368 88.3847 7.21368Z" fill="#212D3A"/>
<path d="M102.229 11.399L104.477 15.4811C104.483 15.493 104.486 15.5062 104.486 15.5196C104.485 15.533 104.482 15.5462 104.475 15.5578C104.469 15.5695 104.459 15.5794 104.448 15.5866C104.437 15.5937 104.424 15.598 104.41 15.599L102.458 15.6726C102.31 15.6775 102.202 15.6112 102.134 15.4737C101.52 14.2112 100.901 13.0004 100.277 11.8411C99.9575 11.2467 99.4564 11.0649 98.7736 11.2958C98.5476 11.3744 98.4371 11.5316 98.442 11.7674L98.4494 15.3853C98.4543 15.5523 98.3708 15.6382 98.1989 15.6432L96.7694 15.6505C96.568 15.6505 96.4673 15.5498 96.4673 15.3484L96.482 5.01053C96.482 4.74527 96.6147 4.61018 96.8799 4.60527C99.2304 4.56842 102.686 4.07474 103.666 6.83053C104.241 8.44176 103.804 9.78035 102.355 10.8463C102.153 10.9937 102.112 11.1779 102.229 11.399ZM98.4862 6.58L98.4715 9.39474C98.4715 9.44164 98.4901 9.48662 98.5233 9.51979C98.5565 9.55295 98.6014 9.57158 98.6483 9.57158L100.24 9.57895C100.439 9.57997 100.637 9.54342 100.821 9.47138C101.006 9.39935 101.174 9.29325 101.316 9.15914C101.457 9.02502 101.57 8.86553 101.647 8.68976C101.724 8.51399 101.764 8.3254 101.765 8.13474V7.86948C101.767 7.48455 101.609 7.11462 101.326 6.84102C101.042 6.56742 100.657 6.41257 100.255 6.41053L98.6631 6.40316C98.6162 6.40316 98.5712 6.42179 98.538 6.45496C98.5049 6.48812 98.4862 6.5331 98.4862 6.58Z" fill="#212D3A"/>
<path d="M42.1695 11.5316L31.9421 29.26C31.8493 29.4223 31.7152 29.5572 31.5535 29.651C31.3917 29.7449 31.208 29.7943 31.0211 29.7943C30.8341 29.7943 30.6504 29.7449 30.4887 29.651C30.3269 29.5572 30.1928 29.4223 30.1 29.26L19.8726 11.5316C19.7797 11.3707 19.7307 11.1882 19.7305 11.0024C19.7302 10.8165 19.7788 10.6339 19.8713 10.4728C19.9638 10.3116 20.097 10.1776 20.2576 10.0841C20.4182 9.99061 20.6005 9.94092 20.7863 9.94H41.2558C41.4416 9.94092 41.6239 9.99061 41.7845 10.0841C41.9451 10.1776 42.0783 10.3116 42.1708 10.4728C42.2633 10.6339 42.3119 10.8165 42.3116 11.0024C42.3114 11.1882 42.2624 11.3707 42.1695 11.5316Z" fill="#212D3A"/>
<path d="M16.6087 14.3684C16.2255 15.1053 15.7245 15.7316 15.1055 16.2474C14.8795 16.434 14.6216 16.5225 14.3318 16.5126C14.0862 16.5028 13.902 16.6109 13.7792 16.8368C13.676 17.0235 13.536 17.1782 13.3592 17.3011L4.65708 23.4537C1.69498 16.6674 4.03077 9.04843 10.0581 4.89264C10.1493 4.82995 10.2523 4.78676 10.3609 4.76578C10.4695 4.74479 10.5813 4.74645 10.6892 4.77066C10.7971 4.79487 10.8988 4.84111 10.988 4.90648C11.0773 4.97184 11.152 5.05493 11.2076 5.15053L16.6087 14.3684Z" fill="url(#paint0_linear_5021_82873)"/>
<path d="M16.6083 14.3684L18.4873 17.5737C17.3525 18.1533 16.2743 18.9147 15.2525 19.8579C15.1248 19.9758 14.9701 20.0175 14.7883 19.9832C14.7125 19.9695 14.6351 19.973 14.5623 19.9934C14.4894 20.0139 14.423 20.0507 14.3683 20.1011L12.1799 22.0832C11.9638 22.2797 11.7132 22.3681 11.4283 22.3484C11.2171 22.3386 11.0648 22.4246 10.9715 22.6063C10.8585 22.8274 10.689 22.9895 10.4631 23.0926C10.2666 23.186 10.0652 23.2719 9.85884 23.3505C9.64762 23.4291 9.46586 23.5421 9.31358 23.6895C8.38025 24.6032 7.41007 25.5218 6.40305 26.4453L4.65674 23.4537L13.3588 17.3011C13.5357 17.1782 13.6757 17.0235 13.7788 16.8368C13.9017 16.6109 14.0859 16.5028 14.3315 16.5126C14.6213 16.5225 14.8792 16.434 15.1052 16.2474C15.7241 15.7316 16.2252 15.1053 16.6083 14.3684Z" fill="url(#paint1_linear_5021_82873)"/>
<path d="M18.4875 17.5737L25.6496 29.8126C25.6986 29.8957 25.7297 29.9881 25.7409 30.0841C25.7522 30.18 25.7433 30.2773 25.7149 30.3701C25.6866 30.4628 25.6393 30.5488 25.5761 30.6228C25.5128 30.6968 25.435 30.7571 25.3475 30.8C18.5981 34.0495 10.8907 32.4358 6.40332 26.4453C7.41034 25.5218 8.38051 24.6032 9.31385 23.6895C9.46613 23.5421 9.64788 23.4291 9.85911 23.3505C10.0654 23.2719 10.2668 23.186 10.4633 23.0926C10.6893 22.9895 10.8588 22.8274 10.9717 22.6063C11.0651 22.4246 11.2174 22.3386 11.4286 22.3484C11.7135 22.3681 11.964 22.2797 12.1802 22.0832L14.3686 20.1011C14.4233 20.0507 14.4897 20.0139 14.5625 19.9935C14.6354 19.973 14.7128 19.9695 14.7886 19.9832C14.9703 20.0176 15.1251 19.9758 15.2528 19.8579C16.2745 18.9147 17.3528 18.1533 18.4875 17.5737Z" fill="url(#paint2_linear_5021_82873)"/>
<path d="M53.6861 30.6379L57.4145 21.3537C57.4454 21.2764 57.5054 21.2142 57.5822 21.1799C57.659 21.1457 57.7467 21.1419 57.8272 21.1695L58.0482 21.2505C58.0769 21.2614 58.1032 21.2777 58.1255 21.2986C58.1477 21.3194 58.1656 21.3443 58.178 21.3718C58.1904 21.3993 58.197 21.4288 58.1975 21.4586C58.198 21.4884 58.1923 21.5179 58.1809 21.5453L54.0914 31.4853C53.6247 32.6249 53.1605 32.6249 52.6987 31.4853L48.6535 21.5011C48.57 21.2947 48.6387 21.1916 48.8598 21.1916L49.243 21.1842C49.3658 21.1793 49.4493 21.2333 49.4935 21.3463L53.1851 30.6379C53.3521 31.0554 53.5191 31.0554 53.6861 30.6379Z" fill="#212D3A"/>
<path d="M62.2112 27.0716L62.167 31.3232C62.167 31.3701 62.1856 31.415 62.2188 31.4482C62.252 31.4814 62.297 31.5 62.3439 31.5L68.1575 31.5221C68.202 31.522 68.2449 31.5386 68.2777 31.5686C68.3104 31.5986 68.3307 31.6399 68.3344 31.6842L68.3639 32.0526C68.3659 32.0771 68.3628 32.1017 68.3549 32.1248C68.3469 32.148 68.3342 32.1693 68.3176 32.1873C68.3009 32.2053 68.2808 32.2197 68.2583 32.2295C68.2358 32.2393 68.2115 32.2443 68.187 32.2442L61.526 32.2368C61.5027 32.2368 61.4797 32.2323 61.4583 32.2234C61.4368 32.2145 61.4173 32.2015 61.4009 32.1851C61.3845 32.1686 61.3715 32.1491 61.3626 32.1277C61.3537 32.1062 61.3491 32.0832 61.3491 32.06L61.3786 21.3905C61.3786 21.3436 61.3972 21.2987 61.4304 21.2655C61.4636 21.2323 61.5085 21.2137 61.5554 21.2137L67.8112 21.2579C67.8351 21.2579 67.8587 21.2627 67.8806 21.272C67.9026 21.2814 67.9224 21.2951 67.9389 21.3123C67.9555 21.3295 67.9683 21.3499 67.9768 21.3722C67.9852 21.3945 67.9891 21.4183 67.9881 21.4421L67.966 21.8032C67.9641 21.8488 67.9446 21.8919 67.9116 21.9235C67.8787 21.9551 67.8348 21.9727 67.7891 21.9726H62.3733C62.3264 21.9726 62.2814 21.9913 62.2483 22.0244C62.2151 22.0576 62.1965 22.1026 62.1965 22.1495L62.2186 25.9663C62.2186 26.0132 62.2372 26.0582 62.2704 26.0914C62.3036 26.1245 62.3485 26.1432 62.3954 26.1432L66.6175 26.2021C66.6446 26.2032 66.671 26.2104 66.6948 26.2233C66.7186 26.2362 66.7391 26.2544 66.7548 26.2765C66.7704 26.2985 66.7808 26.3239 66.7851 26.3506C66.7894 26.3773 66.7876 26.4047 66.7796 26.4305L66.6765 26.7621C66.6654 26.7984 66.643 26.8302 66.6125 26.8527C66.5819 26.8753 66.545 26.8874 66.507 26.8874L62.3881 26.8947C62.3412 26.8947 62.2962 26.9134 62.263 26.9465C62.2299 26.9797 62.2112 27.0247 62.2112 27.0716Z" fill="#212D3A"/>
<path d="M79.7554 30.439L79.7628 21.619C79.7628 21.4274 79.8586 21.3168 80.0501 21.2874L80.3007 21.2505C80.4579 21.226 80.5365 21.2947 80.5365 21.4568L80.507 31.2937C80.5021 32.7035 80.0845 32.8386 79.2543 31.699L73.0428 23.0926C72.7873 22.7439 72.6596 22.7856 72.6596 23.2179L72.6228 32.0158C72.6228 32.173 72.5466 32.2516 72.3943 32.2516L72.0922 32.2442C71.935 32.2442 71.8564 32.1681 71.8564 32.0158L71.8933 21.5305C71.8926 21.4789 71.9045 21.4279 71.928 21.3818C71.9515 21.3358 71.986 21.296 72.0285 21.2657C72.071 21.2354 72.1204 21.2156 72.1725 21.2078C72.2246 21.2 72.2779 21.2046 72.328 21.2211C72.6424 21.3242 72.9003 21.5182 73.1017 21.8032C75.1501 24.6916 77.2329 27.6119 79.3501 30.5642C79.6203 30.9425 79.7554 30.9007 79.7554 30.439Z" fill="#212D3A"/>
<path d="M135.895 23.0337C134.68 21.8695 132.97 21.5305 131.526 22.3853C130.111 23.2253 130.376 25.2221 131.894 25.7821C132.793 26.1112 133.709 26.4182 134.643 26.7032C137.612 27.6095 137.715 31.4189 134.783 32.4358C132.936 33.0793 131.199 32.7305 129.573 31.3895C129.534 31.3577 129.502 31.3186 129.479 31.2746C129.455 31.2305 129.44 31.1823 129.435 31.1329C129.431 31.0834 129.436 31.0337 129.451 30.9867C129.465 30.9396 129.49 30.8962 129.522 30.8589L129.662 30.6895C129.784 30.5421 129.915 30.5347 130.052 30.6674C131.437 32.0035 132.987 32.3449 134.702 31.6916C136.64 30.9474 136.448 28.3021 134.569 27.58C132.624 26.8284 128.387 26.1358 130.126 22.7905C131.32 20.4989 134.665 20.9411 136.308 22.4074C136.367 22.4614 136.387 22.5253 136.367 22.5989L136.278 22.9232C136.215 23.1786 136.087 23.2154 135.895 23.0337Z" fill="#0E110F" fill-opacity="0.996"/>
<path d="M88.7822 22.2453L88.7527 32.1484C88.7527 32.1713 88.7481 32.194 88.7391 32.215C88.7302 32.2361 88.717 32.2551 88.7005 32.2709C88.684 32.2868 88.6644 32.2991 88.643 32.3072C88.6216 32.3152 88.5987 32.3189 88.5759 32.3179L88.1117 32.3105C88.068 32.3086 88.0268 32.2899 87.9965 32.2584C87.9663 32.2268 87.9495 32.1847 87.9495 32.141L87.9938 22.2158C87.9938 22.1708 87.9759 22.1277 87.9441 22.096C87.9123 22.0642 87.8692 22.0463 87.8243 22.0463L83.9264 22.0095C83.8894 22.0091 83.8535 21.9967 83.8243 21.9741C83.795 21.9515 83.7739 21.9199 83.7643 21.8842L83.6685 21.5526C83.6616 21.527 83.6607 21.5001 83.6661 21.4741C83.6714 21.4482 83.6828 21.4238 83.6993 21.403C83.7158 21.3822 83.7369 21.3656 83.761 21.3545C83.7851 21.3433 83.8114 21.338 83.838 21.3389L92.9159 21.361C92.9435 21.3605 92.9708 21.3668 92.9954 21.3792C93.0201 21.3916 93.0413 21.4099 93.0573 21.4324C93.0733 21.4549 93.0835 21.481 93.0871 21.5084C93.0907 21.5357 93.0876 21.5636 93.078 21.5895L92.9527 21.9284C92.9405 21.9614 92.9183 21.9897 92.8893 22.0095C92.8602 22.0293 92.8257 22.0396 92.7906 22.0389L88.9517 22.0758C88.9067 22.0758 88.8636 22.0936 88.8318 22.1254C88.8 22.1572 88.7822 22.2003 88.7822 22.2453Z" fill="#212D3A"/>
<path d="M96.895 28.0737C96.9024 33.2611 103.541 33.2316 103.659 28.2137C103.718 25.9196 103.735 23.7189 103.711 21.6116C103.711 21.4691 103.78 21.3954 103.917 21.3905L104.256 21.3832C104.457 21.3733 104.553 21.4716 104.543 21.6779C104.435 23.3972 104.423 25.2614 104.507 27.2705C104.647 30.6305 103.21 33.1211 99.415 32.5389C97.2585 32.2098 96.1582 30.8737 96.114 28.5305C96.0698 26.2021 96.0648 23.886 96.0992 21.5821C96.1041 21.4298 96.1827 21.3537 96.335 21.3537H96.6887C96.7434 21.3537 96.7959 21.3754 96.8346 21.4141C96.8733 21.4528 96.895 21.5053 96.895 21.56C96.8901 23.5888 96.8901 25.76 96.895 28.0737Z" fill="#0E110F" fill-opacity="0.996"/>
<path d="M109.37 28.1179L109.34 32.0674C109.34 32.1404 109.312 32.2105 109.261 32.2628C109.21 32.3151 109.141 32.3454 109.068 32.3474L108.825 32.3547C108.785 32.3557 108.745 32.3486 108.708 32.3338C108.671 32.319 108.637 32.2968 108.609 32.2685C108.581 32.2402 108.558 32.2065 108.543 32.1694C108.529 32.1323 108.522 32.0926 108.523 32.0526L108.552 22.5989C108.557 21.5575 109.078 21.0982 110.114 21.221C112.325 21.4814 113.437 21.614 113.452 21.6189C114.011 21.6849 114.532 21.9314 114.936 22.3202C115.339 22.709 115.602 23.2186 115.685 23.7705C115.955 25.6323 115.331 26.8481 113.813 27.4179C113.769 27.4344 113.729 27.4601 113.696 27.4933C113.663 27.5264 113.637 27.5663 113.62 27.6102C113.603 27.654 113.596 27.701 113.599 27.7479C113.602 27.7947 113.614 27.8405 113.636 27.8821L115.876 32.0526C115.889 32.0774 115.897 32.1044 115.9 32.1321C115.903 32.1598 115.9 32.1876 115.891 32.2138C115.883 32.2399 115.87 32.264 115.852 32.2844C115.834 32.3049 115.812 32.3213 115.788 32.3326L115.582 32.4284C115.49 32.4707 115.386 32.4768 115.29 32.4453C115.194 32.4139 115.114 32.3473 115.066 32.2589L112.87 28.1179C112.698 27.7937 112.428 27.6316 112.059 27.6316H109.856C109.532 27.6316 109.37 27.7937 109.37 28.1179ZM109.37 22.4663L109.399 26.6074C109.401 26.6882 109.435 26.765 109.493 26.8214C109.55 26.8779 109.628 26.9095 109.709 26.9095L112.538 26.8947C112.852 26.8925 113.163 26.8364 113.452 26.7296C113.742 26.6228 114.004 26.4674 114.224 26.2724C114.445 26.0773 114.619 25.8464 114.737 25.5928C114.854 25.3392 114.914 25.068 114.911 24.7947V24.1905C114.905 23.6403 114.65 23.1149 114.199 22.7295C113.749 22.3441 113.141 22.1302 112.509 22.1347L109.679 22.1495C109.638 22.1495 109.597 22.1577 109.559 22.1737C109.521 22.1897 109.487 22.2132 109.458 22.2427C109.429 22.2722 109.406 22.3072 109.391 22.3456C109.376 22.384 109.369 22.4251 109.37 22.4663Z" fill="#0E110F" fill-opacity="0.996"/>
<path d="M120.665 31.6768L126.515 31.6989C126.56 31.6988 126.603 31.7154 126.636 31.7454C126.668 31.7755 126.689 31.8168 126.692 31.8611L126.722 32.2442C126.724 32.2686 126.721 32.2932 126.713 32.3164C126.705 32.3396 126.692 32.3609 126.675 32.3789C126.659 32.3969 126.639 32.4113 126.616 32.4211C126.594 32.4309 126.569 32.4359 126.545 32.4358L119.891 32.4211C119.844 32.4211 119.799 32.4024 119.766 32.3693C119.733 32.3361 119.714 32.2911 119.714 32.2442L119.736 21.5674C119.736 21.5205 119.755 21.4755 119.788 21.4423C119.821 21.4092 119.866 21.3905 119.913 21.3905L126.125 21.4347C126.168 21.4344 126.21 21.45 126.243 21.4785C126.275 21.507 126.296 21.5465 126.302 21.5895L126.353 21.98C126.356 22.005 126.354 22.0304 126.347 22.0545C126.339 22.0786 126.327 22.1008 126.31 22.1196C126.293 22.1384 126.273 22.1535 126.25 22.1637C126.227 22.174 126.202 22.1791 126.176 22.1789L120.68 22.1568C120.633 22.1568 120.588 22.1755 120.555 22.2086C120.521 22.2418 120.503 22.2868 120.503 22.3337L120.51 26.1505C120.51 26.1974 120.529 26.2424 120.562 26.2756C120.595 26.3087 120.64 26.3274 120.687 26.3274L124.865 26.3495C124.889 26.3495 124.912 26.3543 124.934 26.3636C124.956 26.3729 124.976 26.3866 124.993 26.4038C125.009 26.4211 125.022 26.4414 125.03 26.4637C125.039 26.4861 125.043 26.5098 125.042 26.5337L125.02 26.8874C125.018 26.933 124.998 26.9761 124.965 27.0077C124.932 27.0393 124.888 27.0569 124.843 27.0568L120.694 27.0937C120.647 27.0937 120.602 27.1123 120.569 27.1455C120.536 27.1786 120.518 27.2236 120.518 27.2705L120.488 31.5C120.488 31.5469 120.507 31.5919 120.54 31.625C120.573 31.6582 120.618 31.6768 120.665 31.6768Z" fill="#0E110F" fill-opacity="0.996"/>
<defs>
<linearGradient id="paint0_linear_5021_82873" x1="9.99305" y1="4.75118" x2="4.05276" y2="24.6842" gradientUnits="userSpaceOnUse">
<stop stop-color="#B0488D"/>
<stop offset="1" stop-color="#CA4282"/>
</linearGradient>
<linearGradient id="paint1_linear_5021_82873" x1="11.7895" y1="18.0526" x2="13.2632" y2="21.7368" gradientUnits="userSpaceOnUse">
<stop stop-color="#BA4689"/>
<stop offset="1" stop-color="#CA4382"/>
</linearGradient>
<linearGradient id="paint2_linear_5021_82873" x1="25.4213" y1="30.579" x2="12.8949" y2="21.3684" gradientUnits="userSpaceOnUse">
<stop stop-color="#E13D79"/>
<stop offset="1" stop-color="#CA4282"/>
</linearGradient>
</defs>
</svg>
