<svg width="140" height="55" viewBox="0 0 140 55" fill="none" xmlns="http://www.w3.org/2000/svg">
<path d="M135.94 12.9638H133.056V36.0824H135.94V12.9638ZM123.844 18.61C121.856 18.61 118.846 19.2421 117.726 22.8798H120.736C121.24 21.7 122.458 21.1241 123.844 21.1241C125.818 21.1241 127.218 21.6719 127.316 23.2731C127.386 24.3546 126.602 25.1973 125.58 25.1973H123.018C119.532 25.1973 116.662 27.3602 116.662 30.8294C116.662 34.116 119.448 36.4616 122.822 36.4616C124.614 36.4616 127.316 35.4503 127.316 30.8294C127.316 32.557 125.174 33.9475 123.018 33.9475C120.876 33.9475 119.532 32.543 119.532 30.8294C119.532 28.4136 121.338 27.5007 123.018 27.5007H125.09C125.874 27.5007 127.316 26.9951 127.316 23.4135V30.8294V36.0543H130.2V23.4276C130.2 20.0988 126.868 18.61 123.844 18.61ZM108.01 33.9615C105.63 33.9615 103.684 32.0233 103.684 27.7114C103.684 23.3995 105.616 21.4612 108.01 21.4612C110.39 21.4612 112.336 24.2281 112.336 27.7114C112.336 31.1946 110.39 33.9615 108.01 33.9615ZM108.01 19.0033C105.672 19.1718 103.684 20.8994 103.684 27.7114V12.9217H100.8V36.0402H103.684V33.484C104.51 35.2397 106.274 36.3914 108.01 36.4476C111.972 36.588 115.206 32.543 115.206 27.7254C115.206 22.8938 111.972 18.7364 108.01 19.0033ZM90.7898 33.9756C88.0738 33.9475 85.7918 31.6581 85.7918 27.5288C85.7918 23.6944 88.0038 21.1241 90.7898 21.082C93.5618 21.1241 95.7878 23.6663 95.7878 27.5288C95.7878 31.6581 93.5198 33.9475 90.7898 33.9756ZM90.7898 18.61C86.4218 18.61 83.0618 21.8545 83.0618 27.5428C83.0618 33.2312 86.3238 36.4335 90.7898 36.4756C95.2558 36.4335 98.5178 33.2031 98.5178 27.5428C98.5178 21.8685 95.1718 18.61 90.7898 18.61ZM80.7798 12.9638H77.8958V36.0824H80.7798V12.9638ZM72.7438 36.2369C72.9258 37.8521 71.1758 39.6639 67.9838 39.6639C65.4638 39.6639 63.2098 37.9223 63.2098 36.279C63.2098 36.1666 63.2238 36.0543 63.2378 35.9419H60.5498C60.5358 36.0964 60.5218 36.2369 60.5218 36.3914C60.5218 39.5656 63.8538 42.1499 67.9698 42.1499C72.0858 42.1499 75.6698 39.4532 75.4038 36.3492C75.1798 33.6806 71.7358 33.1048 68.0398 33.1048C70.5598 33.1329 72.5618 34.6217 72.7438 36.2369ZM67.9418 30.8294C65.3518 30.8294 63.2378 28.512 63.2378 26.1664C63.2378 23.8208 65.3378 21.5034 67.9418 21.5034C70.5318 21.5034 72.6458 23.8208 72.6458 26.1664C72.6458 28.512 70.5318 30.8294 67.9418 30.8294ZM75.5158 26.1664C75.5158 24.2281 74.6898 22.4725 73.3738 21.1944L75.5158 19.0454L73.6258 17.1353L71.0918 19.6775C70.1258 19.2561 69.0618 19.0314 67.9278 19.0314C63.7418 19.0314 60.3398 22.2337 60.3398 26.1664C60.3398 28.5401 61.5718 30.5626 63.4618 31.7986C65.1558 32.8941 66.8078 33.0907 68.0538 33.0907C72.1978 33.1048 75.5158 30.0148 75.5158 26.1664Z" fill="black"/>
<path d="M28.0701 53.5266C42.4061 53.5266 54.0401 41.869 54.0401 27.4726C54.0401 13.0902 42.4201 1.41858 28.0701 1.41858C13.7201 1.41858 2.1001 13.0902 2.1001 27.4867C2.1001 41.869 13.7201 53.5266 28.0701 53.5266Z" fill="black"/>
<path d="M43.3579 27.2619C43.3579 30.7592 41.4259 33.5121 39.0319 33.5121C36.6519 33.5121 34.7059 31.5738 34.7059 27.2619C34.7059 22.95 36.6379 21.0118 39.0319 21.0118C41.4259 21.0118 43.3579 23.7647 43.3579 27.2619ZM46.2419 27.2619C46.2419 22.4444 43.0079 18.3993 39.0459 18.5398C37.3099 18.596 35.5459 19.7617 34.7199 21.5034V18.9471H31.8359V42.0516H34.7199V27.2619C34.7199 34.0739 36.7079 35.8155 39.0459 35.97C43.0079 36.2369 46.2419 32.0795 46.2419 27.2619ZM29.1619 18.9752H26.2779V12.9076H23.3939V18.9752H20.5099V21.2927H20.9299C21.0559 21.2927 23.3939 21.3629 23.3939 23.7225V31.8407C23.3939 32.2901 23.4639 32.7256 23.6039 33.1469C24.0099 34.411 25.0179 35.4223 26.2779 35.8296C26.6839 35.97 27.1179 36.0402 27.5799 36.0402H29.1619V33.1469H27.5379C26.8659 33.1469 26.2779 32.557 26.2779 31.8407V23.9332C26.2779 21.7843 23.4359 21.3629 21.8959 21.3067H29.1619V18.9752ZM17.4859 18.5538C15.7079 18.5538 13.8879 20.9837 13.8879 25.2535C13.8879 23.259 14.9099 21.2365 17.4859 21.2365C18.9559 21.2365 19.7399 21.6298 19.7399 21.6298V18.9612C19.0399 18.6943 18.2839 18.5538 17.4859 18.5538ZM11.0039 35.9981H13.8879V18.9471H11.0039V35.9981Z" fill="white"/>
</svg>
