<svg width="175" height="69" viewBox="0 0 175 69" fill="none" xmlns="http://www.w3.org/2000/svg">
<path d="M169.558 16.2678H165.975V44.8938H169.558V16.2678ZM154.531 23.2591C152.062 23.2591 148.323 24.0417 146.931 28.546H150.671C151.297 27.0851 152.81 26.3721 154.531 26.3721C156.984 26.3721 158.723 27.0504 158.845 29.033C158.931 30.3721 157.958 31.4156 156.688 31.4156H153.505C149.175 31.4156 145.61 34.0938 145.61 38.3895C145.61 42.4591 149.071 45.3634 153.262 45.3634C155.488 45.3634 158.845 44.1112 158.845 38.3895C158.845 40.5286 156.184 42.2504 153.505 42.2504C150.845 42.2504 149.175 40.5112 149.175 38.3895C149.175 35.3982 151.418 34.2678 153.505 34.2678H156.079C157.053 34.2678 158.845 33.6417 158.845 29.2069V38.3895V44.8591H162.427V29.2243C162.427 25.1025 158.288 23.2591 154.531 23.2591ZM134.862 42.2678C131.905 42.2678 129.488 39.8678 129.488 34.5286C129.488 29.1895 131.888 26.7895 134.862 26.7895C137.818 26.7895 140.236 30.2156 140.236 34.5286C140.236 38.8417 137.818 42.2678 134.862 42.2678ZM134.862 23.746C131.958 23.9547 129.488 26.0938 129.488 34.5286V16.2156H125.905V44.8417H129.488V41.6764C130.514 43.8504 132.705 45.2764 134.862 45.346C139.784 45.5199 143.801 40.5112 143.801 34.546C143.801 28.5634 139.784 23.4156 134.862 23.746ZM113.471 42.2851C110.097 42.2504 107.262 39.4156 107.262 34.3025C107.262 29.5547 110.01 26.3721 113.471 26.3199C116.914 26.3721 119.679 29.5199 119.679 34.3025C119.679 39.4156 116.862 42.2504 113.471 42.2851ZM113.471 23.2591C108.045 23.2591 103.871 27.2764 103.871 34.3199C103.871 41.3634 107.923 45.3286 113.471 45.3808C119.018 45.3286 123.071 41.3286 123.071 34.3199C123.071 27.2938 118.914 23.2591 113.471 23.2591ZM101.036 16.2678H97.4532V44.8938H101.036V16.2678ZM91.0532 45.0851C91.2793 47.0851 89.1054 49.3286 85.1402 49.3286C82.0097 49.3286 79.2097 47.1721 79.2097 45.1373C79.2097 44.9982 79.2271 44.8591 79.2445 44.7199H75.9054C75.888 44.9112 75.8706 45.0851 75.8706 45.2764C75.8706 49.2069 80.0097 52.4069 85.1228 52.4069C90.2358 52.4069 94.688 49.0677 94.3576 45.2243C94.0793 41.9199 89.8011 41.2069 85.2097 41.2069C88.3402 41.2417 90.8271 43.0851 91.0532 45.0851ZM85.088 38.3895C81.8706 38.3895 79.2445 35.5199 79.2445 32.6156C79.2445 29.7112 81.8532 26.8417 85.088 26.8417C88.3054 26.8417 90.9315 29.7112 90.9315 32.6156C90.9315 35.5199 88.3054 38.3895 85.088 38.3895ZM94.4967 32.6156C94.4967 30.2156 93.4706 28.0417 91.8358 26.4591L94.4967 23.7982L92.1489 21.433L89.001 24.5808C87.8011 24.0591 86.4793 23.7808 85.0706 23.7808C79.8706 23.7808 75.6445 27.746 75.6445 32.6156C75.6445 35.5547 77.175 38.0591 79.5228 39.5895C81.6271 40.946 83.6793 41.1895 85.2271 41.1895C90.375 41.2069 94.4967 37.3808 94.4967 32.6156Z" fill="black"/>
<path d="M35.5577 66.4939C53.3664 66.4939 67.8186 52.0591 67.8186 34.233C67.8186 16.4243 53.3838 1.97217 35.5577 1.97217C17.7317 1.97217 3.29688 16.4243 3.29688 34.2504C3.29688 52.0591 17.7317 66.4939 35.5577 66.4939Z" fill="black"/>
<path d="M54.5507 33.9722C54.5507 38.3026 52.1507 41.7113 49.1768 41.7113C46.2202 41.7113 43.8029 39.3113 43.8029 33.9722C43.8029 28.633 46.2029 26.233 49.1768 26.233C52.1507 26.233 54.5507 29.6417 54.5507 33.9722ZM58.1333 33.9722C58.1333 28.0069 54.1159 22.9982 49.1942 23.1722C47.0376 23.2417 44.8463 24.6852 43.8202 26.8417V23.6765H40.2376V52.2852H43.8202V33.9722C43.8202 42.4069 46.2898 44.5635 49.1942 44.7548C54.1159 45.0852 58.1333 39.9374 58.1333 33.9722ZM36.9159 23.7113H33.3333V16.1982H29.7507V23.7113H26.1681V26.5809H26.6898C26.8463 26.5809 29.7507 26.6678 29.7507 29.5895V39.6417C29.7507 40.1982 29.8376 40.7374 30.0116 41.2591C30.5159 42.8243 31.7681 44.0765 33.3333 44.5809C33.8376 44.7548 34.3768 44.8417 34.9507 44.8417H36.9159V41.2591H34.8985C34.0637 41.2591 33.3333 40.5287 33.3333 39.6417V29.8504C33.3333 27.1895 29.8029 26.6678 27.8898 26.5982H36.9159V23.7113ZM22.4115 23.1895C20.2029 23.1895 17.942 26.1982 17.942 31.4852C17.942 29.0156 19.2115 26.5113 22.4115 26.5113C24.2376 26.5113 25.2115 26.9982 25.2115 26.9982V23.6939C24.342 23.3635 23.4029 23.1895 22.4115 23.1895ZM14.3594 44.7895H17.942V23.6765H14.3594V44.7895Z" fill="white"/>
</svg>
