<svg width="68" height="67" viewBox="0 0 68 67" fill="none" xmlns="http://www.w3.org/2000/svg">
<g clip-path="url(#clip0_5023_65857)">
<g style="mix-blend-mode:luminosity">
<mask id="mask0_5023_65857" style="mask-type:luminance" maskUnits="userSpaceOnUse" x="0" y="0" width="68" height="67">
<path d="M0.5 67H67.5V0H0.5V67Z" fill="white"/>
</mask>
<g mask="url(#mask0_5023_65857)">
<path d="M49.0782 42.8392L49.0787 48.2497C49.0812 49.0312 49.0833 49.7062 48.7812 50.0091C48.5684 50.2227 48.0223 50.4768 46.6289 50.4768C45.2357 50.4768 44.6896 50.2227 44.4769 50.0091C44.1748 49.7062 44.1768 49.0312 44.1793 48.2497L44.1798 42.8392H42.3134L42.313 48.2438C42.3093 49.3405 42.3061 50.4747 43.155 51.3262C43.8467 52.0196 44.9503 52.3423 46.6289 52.3423C48.3077 52.3423 49.4113 52.0196 50.103 51.3262C50.9519 50.4747 50.9487 49.3405 50.945 48.2438L50.9446 42.8392H49.0782Z" fill="#231F20"/>
<path d="M37.4215 48.2494L37.4217 44.7045H39.8711V42.839H37.4217V40.3987H35.5554L35.5552 48.2435C35.5515 49.3402 35.5481 50.4745 36.3972 51.326C37.0887 52.0194 38.1925 52.3423 39.8711 52.3423V50.4768C38.4779 50.4768 37.9318 50.2224 37.7188 50.0088C37.4167 49.7062 37.419 49.031 37.4215 48.2494Z" fill="#231F20"/>
<path d="M31.2461 52.2512H33.1124V44.7045H31.2461V52.2512Z" fill="#231F20"/>
<path d="M31.2461 42.8394H33.1124V40.3995H31.2461V42.8394Z" fill="#231F20"/>
<path d="M57.9897 47.2728C57.1916 46.4917 56.455 46.4241 55.8543 46.2546C55.3975 46.1258 55.1428 46.0918 54.9862 45.9101C54.7384 45.6227 54.8206 45.3545 54.8439 45.2839C54.9742 44.8874 55.441 44.7503 55.9805 44.7328L57.7448 44.7385L57.7507 42.8445L55.9545 42.8393C54.7017 42.8789 53.6377 43.5161 53.2035 44.5278C52.8417 45.3722 52.9962 46.3369 53.6295 47.1095C54.4215 48.076 55.8859 47.8854 56.7086 48.6947C56.8389 48.8229 57.0549 49.2194 56.9351 49.6222C56.8546 49.8925 56.5715 50.3352 55.8784 50.358L53.3783 50.3391L53.3664 52.2328L55.9014 52.2515C57.3916 52.2515 58.3332 51.3652 58.7176 50.2537C59.0409 49.3182 58.8579 48.1224 57.9897 47.2728Z" fill="#231F20"/>
<path d="M17.7341 44.7163L17.7343 42.8509H17.7339V42.8392H15.8675L15.868 48.2494C15.8705 49.031 15.8728 49.7062 15.5704 50.009C15.3577 50.2224 14.8116 50.4768 13.4184 50.4768C12.0248 50.4768 11.4787 50.2224 11.2659 50.009C10.9636 49.7062 10.9659 49.031 10.9684 48.2494L10.9688 42.8392H9.10249L9.10203 48.2438C9.09839 49.3405 9.0952 50.4745 9.94408 51.3262C10.6355 52.0196 11.7398 52.3423 13.4184 52.3423C15.097 52.3423 16.2008 52.0196 16.8923 51.3262C17.7412 50.4745 17.738 49.3405 17.7343 48.2438L17.7341 44.7163Z" fill="#231F20"/>
<path d="M28.8067 47.2293C28.8031 45.5667 28.4807 44.3795 27.7906 43.6921C26.9392 42.8436 25.8033 42.8456 24.7065 42.8504H23.9085V44.7159H24.7122C25.4891 44.7111 26.1696 44.7111 26.4731 45.0133C26.6866 45.226 26.9411 45.8629 26.9411 47.2554V48.0286C26.9411 49.682 26.8367 50.4768 24.4915 50.4768C22.1465 50.4768 22.0421 49.682 22.0421 48.0286V45.006V44.7161V42.8506V42.839V40.3987H20.1758V41.9639V42.8506V44.7161V47.6414V48.0286C20.1758 49.4288 20.1758 52.3423 24.4915 52.3423C28.8074 52.3423 28.8074 49.4288 28.8074 48.0286V47.2293H28.8067Z" fill="#231F20"/>
<path d="M43.8094 25.044C43.8094 25.8401 43.6021 26.4853 43.1968 26.9186C43.1166 27.0084 43.0271 27.0835 42.9375 27.1495C42.3958 27.5688 41.7453 27.6018 41.2411 27.5499C38.6774 27.2768 35.2892 24.2809 33.6728 20.8565L33.6445 20.7952L40.0159 15.6186L42.9564 21.8127C43.536 23.028 43.8094 24.135 43.8094 25.044Z" fill="#084EA2"/>
<path d="M42.9351 27.1498V27.1546L34.2359 34.2012C34.2924 34.154 34.3443 34.1069 34.3915 34.0552C34.7683 33.6219 34.9615 32.9954 34.9615 32.2323C34.9615 31.3232 34.6883 30.2163 34.1087 29.0009L31.168 22.8115L33.6422 20.7954L33.6704 20.8567C35.2868 24.2812 38.675 27.2771 41.2385 27.5501C41.7429 27.602 42.3931 27.569 42.9351 27.1498Z" fill="#00ADDC"/>
<path d="M34.9609 32.2322C34.9609 32.9953 34.7677 33.6217 34.3906 34.0551C34.3435 34.1068 34.2917 34.1539 34.2352 34.2011L34.2211 34.2152C33.778 34.5827 33.123 34.7947 32.3737 34.7146C29.8054 34.4413 26.4172 31.4456 24.8008 28.0212L21.8789 21.8176L30.7479 14.6578L33.6413 20.7956L31.1673 22.8116L34.1079 29.0008C34.6875 30.2162 34.9609 31.3231 34.9609 32.2322Z" fill="#182E7B"/>
</g>
</g>
</g>
<defs>
<clipPath id="clip0_5023_65857">
<rect width="67" height="67" fill="white" transform="translate(0.5)"/>
</clipPath>
</defs>
</svg>
