<svg width="182" height="182" viewBox="0 0 182 182" fill="none" xmlns="http://www.w3.org/2000/svg">
<rect x="1" y="1" width="180" height="180" stroke="none"/>
<path d="M66.916 93V81.017H72.4923V92.2882C72.4923 95.2543 74.0347 96.9153 76.6448 96.9153C79.255 96.9153 80.6787 95.1356 80.6787 92.2882V81.017H86.255V92.8814C86.255 98.4576 82.4584 102.136 76.6448 102.136C70.8313 102.254 66.916 98.4576 66.916 93Z" fill="#0B0B0D"/>
<path d="M109.984 89.2034V101.661H104.408V90.0339C104.408 86.9491 103.221 85.4068 100.848 85.4068C98.001 85.4068 96.2213 87.4237 96.2213 90.7457V101.542H90.645V81.0169H94.4416L95.5094 83.5085C97.0518 81.6101 99.5433 80.4237 102.272 80.4237C107.018 80.5424 109.984 83.983 109.984 89.2034Z" fill="#0B0B0D"/>
<path d="M114.492 81.017H120.068V101.542H114.492V81.017ZM114.492 73.1865H120.068V78.4068H114.492C114.492 78.2882 114.492 73.1865 114.492 73.1865Z" fill="#0B0B0D"/>
<path d="M137.272 85.8814H132.052V101.542H126.594V85.8814H123.035V81.2542H126.594V79.3559C126.594 75.4407 128.848 72.9492 133.119 72.9492H137.272V77.339H134.306C132.882 77.339 132.052 78.0509 132.052 79.5932V81.3729H137.391L137.272 85.8814Z" fill="#0B0B0D"/>
<path d="M161 81.017L151.983 101.305C149.492 106.881 147.356 109.017 142.729 109.017H140.475V104.034H142.373C145.102 104.034 145.695 103.322 147 100.237L147.119 100.119L138.458 81.1356H144.509L149.966 93.8305L155.068 81.017H161Z" fill="#0B0B0D"/>
<path d="M42.3559 72C35.8305 72 30.4915 77.339 30.4915 83.8644C30.4915 89.0847 34.7627 93.4746 40.1017 93.4746C44.017 93.4746 47.339 90.2712 47.339 86.2373C47.339 83.5085 45.2034 81.3729 42.4746 81.3729C40.4576 81.3729 38.7966 83.0339 38.7966 85.0508C38.7966 86.4746 39.8644 87.5424 41.2881 87.5424C41.5254 87.5424 41.7627 87.5424 41.8814 87.4237C41.5254 88.0169 40.8136 88.3729 40.1017 88.3729C37.6102 88.3729 35.5932 86.3559 35.5932 83.8644C35.5932 80.0678 38.678 76.9831 42.4746 76.9831C47.5763 76.9831 51.7288 81.1356 51.7288 86.2373C51.7288 92.6441 46.5085 97.8644 40.1017 97.8644C32.3898 97.8644 26.1017 91.5763 26.1017 83.8644C26.1017 82.9153 26.2203 81.9661 26.339 81.0169H21.2373C21.1186 81.9661 21 82.9153 21 83.8644C21 94.3051 29.5424 102.847 39.9831 102.847C49.1186 102.847 56.5932 95.3729 56.5932 86.2373C56.5932 78.4068 50.1864 72 42.3559 72Z" fill="#00B828"/>
</svg>