<svg width="140" height="120" viewBox="0 0 140 120" fill="none" xmlns="http://www.w3.org/2000/svg">
<g clip-path="url(#clip0_5021_82802)">
<path d="M80.8067 113.12C78.6648 113.12 76.3282 112.925 73.7969 112.535C72.4988 112.341 71.1358 112.211 69.8377 112.211C68.7344 112.211 67.631 112.276 66.5276 112.471C64.2559 112.795 62.114 112.925 60.102 112.99C57.1164 112.99 54.5202 112.665 52.2485 111.951C49.7172 112.471 47.121 112.73 44.5248 112.73C35.4381 112.73 26.6759 107.797 18.433 97.9318C13.2406 91.701 9.99537 85.5999 9.67084 84.9509L8.04822 81.9003L8.63236 78.4604C8.89198 76.7728 9.93046 71.2559 12.0074 66.5178C11.7478 64.5707 11.618 62.5587 11.618 60.5466C11.618 56.4576 12.1372 52.4335 13.1108 48.5392L0 29.0028L9.08669 11.6083L48.484 11.089C51.9889 9.79091 55.6236 8.75243 59.3231 8.10338C63.2823 7.38943 67.3714 7 71.4604 7C71.9796 7 72.4339 7 72.9532 7C80.4173 7.12981 87.6866 8.49281 94.5016 11.0241L130.784 11.3486L139.935 28.6783L128.966 45.1641C130.589 50.0969 131.433 55.1595 131.433 60.3519C131.433 62.5586 131.303 64.7654 130.978 66.9722C132.86 71.4506 133.769 76.643 134.094 78.2657L134.678 81.6407L133.12 84.6912C132.211 86.5086 128.707 92.9991 123.125 99.2949C115.336 108.122 106.963 112.665 98.3959 112.665C95.4103 112.665 92.4247 112.341 89.5688 111.692C87.1025 112.665 84.1168 113.12 80.8067 113.12Z" fill="#F7F7F7"/>
<path d="M12.0723 28.3537L30.7649 56.0682L48.8734 21.4738L15.5122 21.9282C13.8896 24.8489 13.5651 25.433 12.0723 28.3537Z" fill="#FEDF3C"/>
<path d="M31.0249 61.1308L9.2168 28.159L13.89 19.3969L53.1575 18.8776L31.0249 61.1308ZM15.0582 28.2239L30.4407 51.0056L44.5251 24.1349L17.0054 24.5244L15.0582 28.2239Z" fill="#191919"/>
<path d="M127.928 28.0941L109.43 55.8735L91.1914 21.4089L124.617 21.7335C126.11 24.5893 127.928 28.0941 127.928 28.0941Z" fill="#F05556"/>
<path d="M109.17 60.936L86.8428 18.7478L126.11 19.0723L130.719 28.4186L109.17 60.936ZM95.4751 24.0051L109.689 50.8109L124.942 27.8994L122.995 24.1998L95.4751 24.0051Z" fill="#191919"/>
<path d="M51.9241 100.917C51.7943 100.853 51.6645 100.853 51.5347 100.788C51.6645 100.723 51.7294 100.723 51.8592 100.658C51.8592 100.788 51.8592 100.853 51.9241 100.917Z" stroke="white" stroke-width="0.51924" stroke-miterlimit="10"/>
<path d="M87.362 100.074C88.011 100.333 88.5952 100.593 89.2442 100.788C92.1 101.761 95.2155 102.281 98.4607 102.281C112.545 102.216 123.968 80.0181 123.968 80.0181C123.968 80.0181 122.605 71.905 120.334 68.5948C120.918 65.9337 121.177 63.2077 121.177 60.4168C121.177 50.0969 116.959 40.6208 110.014 33.2216C101.122 23.8104 87.8163 17.7093 72.8233 17.4497C72.4338 17.4497 71.9795 17.4497 71.5901 17.4497C68.0852 17.4497 64.6452 17.7742 61.3351 18.4233C45.8228 21.2791 32.9716 30.5605 26.546 42.8275C23.6902 48.2796 22.1325 54.3157 22.1325 60.6764C22.1325 63.3375 22.3921 65.8688 22.9114 68.4001C20.445 71.8401 18.9521 80.2777 18.9521 80.2777C18.9521 80.2777 30.4403 102.475 44.5247 102.41C47.8349 102.41 51.0152 101.826 53.9359 100.853L87.362 100.074Z" fill="#181818" stroke="#191919" stroke-width="4.14743" stroke-miterlimit="10"/>
<path d="M51.6644 77.0325C50.1715 78.8499 47.0561 78.785 44.6546 76.8378C42.2531 74.8907 41.5392 71.8401 42.9671 70.0228C44.4599 68.2055 47.5753 68.2704 49.9768 70.2175C52.4432 72.1647 53.1572 75.2152 51.6644 77.0325Z" fill="#55A3DA"/>
<path d="M73.732 78.3955C72.5637 78.2008 71.3954 78.1359 70.1622 78.1359C69.5132 78.1359 68.8641 78.1359 68.2151 78.2008C58.2846 78.9796 50.496 85.8596 50.5609 94.1674C50.5609 95.79 50.8855 97.3477 51.4047 98.8406C51.4047 98.9055 51.4696 98.9704 51.4696 99.0353C53.0922 103.124 60.102 102.93 65.0997 102.216C68.4747 101.761 71.9796 101.761 75.3546 102.281C80.2225 103.059 87.0375 103.319 88.7251 99.4247C88.8549 99.1002 88.9847 98.7107 89.1145 98.3213C89.5688 96.9583 89.8285 95.5304 89.8285 94.0376C89.8285 86.249 82.8836 79.7585 73.732 78.3955Z" fill="white" stroke="#191919" stroke-width="5.17942" stroke-miterlimit="10"/>
<path d="M95.0857 74.8257C93.0737 77.2921 89.8934 78.071 88.0111 76.5782C86.1289 75.0204 86.1938 71.7752 88.2058 69.3088C90.2179 66.8424 93.3982 66.0635 95.2805 67.5564C97.1627 69.1141 97.0978 72.3593 95.0857 74.8257Z" fill="#70C16E"/>
<path d="M78.9893 95.5304C78.9893 98.4511 75.9387 101.047 73.6022 102.605C71.5252 102.605 69.9675 102.605 67.9554 102.605C65.554 101.047 62.5034 98.4511 62.5034 95.5304C62.5034 90.7274 66.203 86.8331 70.7464 86.7682C75.2897 86.8331 78.9893 90.7274 78.9893 95.5304Z" fill="#191919"/>
</g>
<defs>
<clipPath id="clip0_5021_82802">
<rect width="140" height="119.36" fill="white"/>
</clipPath>
</defs>
</svg>
