<svg width="402" height="177" viewBox="0 0 402 177" fill="none" xmlns="http://www.w3.org/2000/svg">
<g clip-path="url(#clip0_4988_124771)">
<path d="M373.498 55.0522V71.0028L359.728 78.978V63.0275L373.498 55.0522Z" fill="#33FF66"/>
<path d="M373.497 55.0538L359.726 63.029L345.961 55.0538L359.726 47.0732L373.497 55.0538Z" fill="#FFCC33"/>
<path d="M359.726 63.0275V78.978L345.961 71.0028V55.0522L359.726 63.0275Z" fill="#3399FF"/>
<path d="M373.497 55.0538L359.726 47.0732L345.961 55.0538" stroke="#1A1A1A" stroke-width="0.52538" stroke-miterlimit="10"/>
<path d="M359.728 63.0275L373.498 55.0522V71.0028L359.728 78.978" stroke="#1A1A1A" stroke-width="0.52538" stroke-miterlimit="10"/>
<path d="M345.961 55.0522V71.0028L359.726 78.978V63.0275L345.961 55.0522Z" stroke="#1A1A1A" stroke-width="0.52538" stroke-miterlimit="10"/>
<path d="M373.498 118.814V134.764L359.728 142.74V126.789L373.498 118.814Z" fill="#33FF66"/>
<path d="M373.497 118.815L359.726 126.791L345.961 118.815L359.726 110.835L373.497 118.815Z" fill="#FFCC33"/>
<path d="M359.726 126.789V142.74L345.961 134.764V118.814L359.726 126.789Z" fill="#3399FF"/>
<path d="M373.497 118.815L359.726 110.835L345.961 118.815" stroke="#1A1A1A" stroke-width="0.52538" stroke-miterlimit="10"/>
<path d="M359.728 126.789L373.498 118.814V134.764L359.728 142.74" stroke="#1A1A1A" stroke-width="0.52538" stroke-miterlimit="10"/>
<path d="M345.961 118.814V134.764L359.726 142.74V126.789L345.961 118.814Z" stroke="#1A1A1A" stroke-width="0.52538" stroke-miterlimit="10"/>
<path d="M387.263 126.793V142.743L373.493 150.719V134.768L387.263 126.793Z" fill="#33FF66"/>
<path d="M387.274 126.782L373.504 134.758L359.739 126.782L373.504 118.802L387.274 126.782Z" fill="#FFCC33"/>
<path d="M373.504 134.768V150.719L359.739 142.743V126.793L373.504 134.768Z" fill="#3399FF"/>
<path d="M387.274 126.782L373.504 118.802L359.739 126.782" stroke="#1A1A1A" stroke-width="0.52538" stroke-miterlimit="10"/>
<path d="M373.493 134.768L387.263 126.793V142.743L373.493 150.719" stroke="#1A1A1A" stroke-width="0.52538" stroke-miterlimit="10"/>
<path d="M359.739 126.793V142.743L373.504 150.719V134.768L359.739 126.793Z" stroke="#1A1A1A" stroke-width="0.52538" stroke-miterlimit="10"/>
<path d="M401.029 134.76V150.71L387.259 158.686V142.735L401.029 134.76Z" fill="#33FF66"/>
<path d="M401.028 134.761L387.258 142.737L373.493 134.761L387.258 126.781L401.028 134.761Z" fill="#FFCC33"/>
<path d="M387.258 142.735V158.686L373.493 150.71V134.76L387.258 142.735Z" fill="#3399FF"/>
<path d="M401.028 134.761L387.258 126.781L373.493 134.761" stroke="#1A1A1A" stroke-width="0.52538" stroke-miterlimit="10"/>
<path d="M387.259 142.735L401.029 134.76V150.71L387.259 158.686" stroke="#1A1A1A" stroke-width="0.52538" stroke-miterlimit="10"/>
<path d="M373.493 134.76V150.71L387.258 158.686V142.735L373.493 134.76Z" stroke="#1A1A1A" stroke-width="0.52538" stroke-miterlimit="10"/>
<path d="M387.263 110.882V126.832L373.493 134.808V118.857L387.263 110.882Z" fill="#33FF66"/>
<path d="M387.274 110.883L373.504 118.859L359.739 110.883L373.504 102.903L387.274 110.883Z" fill="#FFCC33"/>
<path d="M373.504 118.857V134.808L359.739 126.832V110.882L373.504 118.857Z" fill="#3399FF"/>
<path d="M387.274 110.883L373.504 102.903L359.739 110.883" stroke="#1A1A1A" stroke-width="0.52538" stroke-miterlimit="10"/>
<path d="M373.493 118.857L387.263 110.882V126.832L373.493 134.808" stroke="#1A1A1A" stroke-width="0.52538" stroke-miterlimit="10"/>
<path d="M359.739 110.882V126.832L373.504 134.808V118.857L359.739 110.882Z" stroke="#1A1A1A" stroke-width="0.52538" stroke-miterlimit="10"/>
<path d="M387.263 94.9238V110.874L373.493 118.85V102.899L387.263 94.9238Z" fill="#33FF66"/>
<path d="M387.274 94.9252L373.504 102.9L359.739 94.9252L373.504 86.9447L387.274 94.9252Z" fill="#FFCC33"/>
<path d="M373.504 102.899V118.85L359.739 110.874V94.9238L373.504 102.899Z" fill="#3399FF"/>
<path d="M387.274 94.9252L373.504 86.9447L359.739 94.9252" stroke="#1A1A1A" stroke-width="0.52538" stroke-miterlimit="10"/>
<path d="M373.493 102.899L387.263 94.9238V110.874L373.493 118.85" stroke="#1A1A1A" stroke-width="0.52538" stroke-miterlimit="10"/>
<path d="M359.739 94.9238V110.874L373.504 118.85V102.899L359.739 94.9238Z" stroke="#1A1A1A" stroke-width="0.52538" stroke-miterlimit="10"/>
<path d="M387.263 78.6829V94.6334L373.493 102.609V86.6581L387.263 78.6829Z" fill="#33FF66"/>
<path d="M387.274 78.6844L373.504 86.6596L359.739 78.6844L373.504 70.7039L387.274 78.6844Z" fill="#FFCC33"/>
<path d="M373.504 86.6581V102.609L359.739 94.6334V78.6829L373.504 86.6581Z" fill="#3399FF"/>
<path d="M387.274 78.6844L373.504 70.7039L359.739 78.6844" stroke="#1A1A1A" stroke-width="0.52538" stroke-miterlimit="10"/>
<path d="M373.493 86.6581L387.263 78.6829V94.6334L373.493 102.609" stroke="#1A1A1A" stroke-width="0.52538" stroke-miterlimit="10"/>
<path d="M359.739 78.6829V94.6334L373.504 102.609V86.6581L359.739 78.6829Z" stroke="#1A1A1A" stroke-width="0.52538" stroke-miterlimit="10"/>
<path d="M387.263 63.0195V78.9701L373.493 86.9453V70.9948L387.263 63.0195Z" fill="#33FF66"/>
<path d="M387.274 63.021L373.504 70.9963L359.739 63.021L373.504 55.0405L387.274 63.021Z" fill="#FFCC33"/>
<path d="M373.504 70.9948V86.9453L359.739 78.9701V63.0195L373.504 70.9948Z" fill="#3399FF"/>
<path d="M387.274 63.021L373.504 55.0405L359.739 63.021" stroke="#1A1A1A" stroke-width="0.52538" stroke-miterlimit="10"/>
<path d="M373.493 70.9948L387.263 63.0195V78.9701L373.493 86.9453" stroke="#1A1A1A" stroke-width="0.52538" stroke-miterlimit="10"/>
<path d="M359.739 63.0195V78.9701L373.504 86.9453V70.9948L359.739 63.0195Z" stroke="#1A1A1A" stroke-width="0.52538" stroke-miterlimit="10"/>
<path d="M401.029 70.9985V86.9491L387.259 94.9243V78.9738L401.029 70.9985Z" fill="#33FF66"/>
<path d="M401.028 71.0001L387.258 78.9753L373.493 71.0001L387.258 63.0195L401.028 71.0001Z" fill="#FFCC33"/>
<path d="M387.258 78.9738V94.9243L373.493 86.9491V70.9985L387.258 78.9738Z" fill="#3399FF"/>
<path d="M401.028 71.0001L387.258 63.0195L373.493 71.0001" stroke="#1A1A1A" stroke-width="0.52538" stroke-miterlimit="10"/>
<path d="M387.259 78.9738L401.029 70.9985V86.9491L387.259 94.9243" stroke="#1A1A1A" stroke-width="0.52538" stroke-miterlimit="10"/>
<path d="M373.493 70.9985V86.9491L387.258 94.9243V78.9738L373.493 70.9985Z" stroke="#1A1A1A" stroke-width="0.52538" stroke-miterlimit="10"/>
</g>
<g clip-path="url(#clip1_4988_124771)">
<path d="M359.542 126.793V142.743L345.772 150.719V134.768L359.542 126.793Z" fill="#33FF66"/>
<path d="M359.535 126.782L345.764 134.758L331.994 126.782L345.764 118.802L359.535 126.782Z" fill="#FFCC33"/>
<path d="M345.764 134.768V150.719L331.994 142.743V126.793L345.764 134.768Z" fill="#3399FF"/>
<path d="M359.535 126.782L345.764 118.802L331.994 126.782" stroke="#1A1A1A" stroke-width="0.52538" stroke-miterlimit="10"/>
<path d="M345.772 134.768L359.542 126.793V142.743L345.772 150.719" stroke="#1A1A1A" stroke-width="0.52538" stroke-miterlimit="10"/>
<path d="M331.994 126.793V142.743L345.764 150.719V134.768L331.994 126.793Z" stroke="#1A1A1A" stroke-width="0.52538" stroke-miterlimit="10"/>
<path d="M304.679 94.9827V110.933L290.909 118.908V102.958L304.679 94.9827Z" fill="#33FF66"/>
<path d="M304.667 94.9842L290.896 102.959L277.131 94.9842L290.896 87.0037L304.667 94.9842Z" fill="#FFCC33"/>
<path d="M290.896 102.958V118.908L277.131 110.933V94.9827L290.896 102.958Z" fill="#3399FF"/>
<path d="M304.667 94.9842L290.896 87.0037L277.131 94.9842" stroke="#1A1A1A" stroke-width="0.52538" stroke-miterlimit="10"/>
<path d="M290.909 102.958L304.679 94.9827V110.933L290.909 118.908" stroke="#1A1A1A" stroke-width="0.52538" stroke-miterlimit="10"/>
<path d="M277.131 94.9827V110.933L290.896 118.908V102.958L277.131 94.9827Z" stroke="#1A1A1A" stroke-width="0.52538" stroke-miterlimit="10"/>
<path d="M318.445 102.962V118.912L304.675 126.887V110.937L318.445 102.962Z" fill="#33FF66"/>
<path d="M318.444 102.963L304.674 110.938L290.909 102.963L304.674 94.9827L318.444 102.963Z" fill="#FFCC33"/>
<path d="M304.674 110.937V126.887L290.909 118.912V102.962L304.674 110.937Z" fill="#3399FF"/>
<path d="M318.444 102.963L304.674 94.9827L290.909 102.963" stroke="#1A1A1A" stroke-width="0.52538" stroke-miterlimit="10"/>
<path d="M304.675 110.937L318.445 102.962V118.912L304.675 126.887" stroke="#1A1A1A" stroke-width="0.52538" stroke-miterlimit="10"/>
<path d="M290.909 102.962V118.912L304.674 126.887V110.937L290.909 102.962Z" stroke="#1A1A1A" stroke-width="0.52538" stroke-miterlimit="10"/>
<path d="M318.445 87.0155V102.966L304.675 110.941V94.9908L318.445 87.0155Z" fill="#33FF66"/>
<path d="M318.444 87.0052L304.674 94.9804L290.909 87.0052L304.674 79.0247L318.444 87.0052Z" fill="#FFCC33"/>
<path d="M304.674 94.9908V110.941L290.909 102.966V87.0155L304.674 94.9908Z" fill="#3399FF"/>
<path d="M318.444 87.0052L304.674 79.0247L290.909 87.0052" stroke="#1A1A1A" stroke-width="0.52538" stroke-miterlimit="10"/>
<path d="M304.675 94.9908L318.445 87.0155V102.966L304.675 110.941" stroke="#1A1A1A" stroke-width="0.52538" stroke-miterlimit="10"/>
<path d="M290.909 87.0155V102.966L304.674 110.941V94.9908L290.909 87.0155Z" stroke="#1A1A1A" stroke-width="0.52538" stroke-miterlimit="10"/>
<path d="M318.333 71.0575V87.008L304.557 94.9833V79.0328L318.333 71.0575Z" fill="#33FF66"/>
<path d="M318.331 71.059L304.556 79.0343L290.791 71.059L304.556 63.0785L318.331 71.059Z" fill="#FFCC33"/>
<path d="M304.556 79.0328V94.9833L290.791 87.008V71.0575L304.556 79.0328Z" fill="#3399FF"/>
<path d="M318.331 71.059L304.556 63.0785L290.791 71.059" stroke="#1A1A1A" stroke-width="0.52538" stroke-miterlimit="10"/>
<path d="M304.557 79.0328L318.333 71.0575V87.008L304.557 94.9833" stroke="#1A1A1A" stroke-width="0.52538" stroke-miterlimit="10"/>
<path d="M290.791 71.0575V87.008L304.556 94.9833V79.0328L290.791 71.0575Z" stroke="#1A1A1A" stroke-width="0.52538" stroke-miterlimit="10"/>
<path d="M332.105 94.9827V110.933L318.334 118.908V102.958L332.105 94.9827Z" fill="#33FF66"/>
<path d="M332.104 94.9842L318.334 102.959L304.569 94.9842L318.334 87.0037L332.104 94.9842Z" fill="#FFCC33"/>
<path d="M318.334 102.958V118.908L304.569 110.933V94.9827L318.334 102.958Z" fill="#3399FF"/>
<path d="M332.104 94.9842L318.334 87.0037L304.569 94.9842" stroke="#1A1A1A" stroke-width="0.52538" stroke-miterlimit="10"/>
<path d="M318.334 102.958L332.105 94.9827V110.933L318.334 118.908" stroke="#1A1A1A" stroke-width="0.52538" stroke-miterlimit="10"/>
<path d="M304.569 94.9827V110.933L318.334 118.908V102.958L304.569 94.9827Z" stroke="#1A1A1A" stroke-width="0.52538" stroke-miterlimit="10"/>
<path d="M332.199 62.9724V78.9229L318.429 86.8982V70.9477L332.199 62.9724Z" fill="#33FF66"/>
<path d="M332.21 62.9738L318.44 70.9491L304.675 62.9738L318.44 54.9933L332.21 62.9738Z" fill="#FFCC33"/>
<path d="M318.44 70.9477V86.8982L304.675 78.9229V62.9724L318.44 70.9477Z" fill="#3399FF"/>
<path d="M332.21 62.9738L318.44 54.9933L304.675 62.9738" stroke="#1A1A1A" stroke-width="0.52538" stroke-miterlimit="10"/>
<path d="M318.429 70.9477L332.199 62.9724V78.9229L318.429 86.8982" stroke="#1A1A1A" stroke-width="0.52538" stroke-miterlimit="10"/>
<path d="M304.675 62.9724V78.9229L318.44 86.8982V70.9477L304.675 62.9724Z" stroke="#1A1A1A" stroke-width="0.52538" stroke-miterlimit="10"/>
<path d="M345.764 55.0522V71.0028L331.994 78.978V63.0275L345.764 55.0522Z" fill="#33FF66"/>
<path d="M345.764 55.0538L331.993 63.029L318.229 55.0538L331.993 47.0732L345.764 55.0538Z" fill="#FFCC33"/>
<path d="M331.993 63.0275V78.978L318.229 71.0028V55.0522L331.993 63.0275Z" fill="#3399FF"/>
<path d="M345.764 55.0538L331.993 47.0732L318.229 55.0538" stroke="#1A1A1A" stroke-width="0.52538" stroke-miterlimit="10"/>
<path d="M331.994 63.0275L345.764 55.0522V71.0028L331.994 78.978" stroke="#1A1A1A" stroke-width="0.52538" stroke-miterlimit="10"/>
<path d="M318.229 55.0522V71.0028L331.993 78.978V63.0275L318.229 55.0522Z" stroke="#1A1A1A" stroke-width="0.52538" stroke-miterlimit="10"/>
<path d="M345.552 102.962V118.912L331.782 126.887V110.937L345.552 102.962Z" fill="#33FF66"/>
<path d="M345.563 102.963L331.793 110.938L318.028 102.963L331.793 94.9827L345.563 102.963Z" fill="#FFCC33"/>
<path d="M331.793 110.937V126.887L318.028 118.912V102.962L331.793 110.937Z" fill="#3399FF"/>
<path d="M345.563 102.963L331.793 94.9827L318.028 102.963" stroke="#1A1A1A" stroke-width="0.52538" stroke-miterlimit="10"/>
<path d="M331.782 110.937L345.552 102.962V118.912L331.782 126.887" stroke="#1A1A1A" stroke-width="0.52538" stroke-miterlimit="10"/>
<path d="M318.028 102.962V118.912L331.793 126.887V110.937L318.028 102.962Z" stroke="#1A1A1A" stroke-width="0.52538" stroke-miterlimit="10"/>
<path d="M359.542 110.882V126.832L345.772 134.808V118.857L359.542 110.882Z" fill="#33FF66"/>
<path d="M359.535 110.883L345.764 118.859L331.994 110.883L345.764 102.903L359.535 110.883Z" fill="#FFCC33"/>
<path d="M345.764 118.857V134.808L331.994 126.832V110.882L345.764 118.857Z" fill="#3399FF"/>
<path d="M359.535 110.883L345.764 102.903L331.994 110.883" stroke="#1A1A1A" stroke-width="0.52538" stroke-miterlimit="10"/>
<path d="M345.772 118.857L359.542 110.882V126.832L345.772 134.808" stroke="#1A1A1A" stroke-width="0.52538" stroke-miterlimit="10"/>
<path d="M331.994 110.882V126.832L345.764 134.808V118.857L331.994 110.882Z" stroke="#1A1A1A" stroke-width="0.52538" stroke-miterlimit="10"/>
<path d="M359.542 94.9238V110.874L345.772 118.85V102.899L359.542 94.9238Z" fill="#33FF66"/>
<path d="M359.535 94.9252L345.764 102.9L331.994 94.9252L345.764 86.9447L359.535 94.9252Z" fill="#FFCC33"/>
<path d="M345.764 102.899V118.85L331.994 110.874V94.9238L345.764 102.899Z" fill="#3399FF"/>
<path d="M359.535 94.9252L345.764 86.9447L331.994 94.9252" stroke="#1A1A1A" stroke-width="0.52538" stroke-miterlimit="10"/>
<path d="M345.772 102.899L359.542 94.9238V110.874L345.772 118.85" stroke="#1A1A1A" stroke-width="0.52538" stroke-miterlimit="10"/>
<path d="M331.994 94.9238V110.874L345.764 118.85V102.899L331.994 94.9238Z" stroke="#1A1A1A" stroke-width="0.52538" stroke-miterlimit="10"/>
<path d="M359.542 78.6829V94.6334L345.772 102.609V86.6581L359.542 78.6829Z" fill="#33FF66"/>
<path d="M359.535 78.6844L345.764 86.6596L331.994 78.6844L345.764 70.7039L359.535 78.6844Z" fill="#FFCC33"/>
<path d="M345.764 86.6581V102.609L331.994 94.6334V78.6829L345.764 86.6581Z" fill="#3399FF"/>
<path d="M359.535 78.6844L345.764 70.7039L331.994 78.6844" stroke="#1A1A1A" stroke-width="0.52538" stroke-miterlimit="10"/>
<path d="M345.772 86.6581L359.542 78.6829V94.6334L345.772 102.609" stroke="#1A1A1A" stroke-width="0.52538" stroke-miterlimit="10"/>
<path d="M331.994 78.6829V94.6334L345.764 102.609V86.6581L331.994 78.6829Z" stroke="#1A1A1A" stroke-width="0.52538" stroke-miterlimit="10"/>
<path d="M359.542 63.0195V78.9701L345.772 86.9453V70.9948L359.542 63.0195Z" fill="#33FF66"/>
<path d="M359.535 63.021L345.764 70.9963L331.994 63.021L345.764 55.0405L359.535 63.021Z" fill="#FFCC33"/>
<path d="M345.764 70.9948V86.9453L331.994 78.9701V63.0195L345.764 70.9948Z" fill="#3399FF"/>
<path d="M359.535 63.021L345.764 55.0405L331.994 63.021" stroke="#1A1A1A" stroke-width="0.52538" stroke-miterlimit="10"/>
<path d="M345.772 70.9948L359.542 63.0195V78.9701L345.772 86.9453" stroke="#1A1A1A" stroke-width="0.52538" stroke-miterlimit="10"/>
<path d="M331.994 63.0195V78.9701L345.764 86.9453V70.9948L331.994 63.0195Z" stroke="#1A1A1A" stroke-width="0.52538" stroke-miterlimit="10"/>
</g>
<g clip-path="url(#clip2_4988_124771)">
<path d="M263.168 136.665V152.616L249.397 160.591V144.641L263.168 136.665Z" fill="#33FF66"/>
<path d="M263.167 136.667L249.396 144.642L235.631 136.667L249.396 128.686L263.167 136.667Z" fill="#FFCC33"/>
<path d="M249.396 144.641V160.591L235.631 152.616V136.665L249.396 144.641Z" fill="#3399FF"/>
<path d="M263.167 136.667L249.396 128.686L235.631 136.667" stroke="#1A1A1A" stroke-width="0.52538" stroke-miterlimit="10"/>
<path d="M249.397 144.641L263.168 136.665V152.616L249.397 160.591" stroke="#1A1A1A" stroke-width="0.52538" stroke-miterlimit="10"/>
<path d="M235.631 136.665V152.616L249.396 160.591V144.641L235.631 136.665Z" stroke="#1A1A1A" stroke-width="0.52538" stroke-miterlimit="10"/>
<path d="M276.933 144.644V160.595L263.163 168.57V152.62L276.933 144.644Z" fill="#33FF66"/>
<path d="M276.944 144.646L263.174 152.621L249.409 144.646L263.174 136.665L276.944 144.646Z" fill="#FFCC33"/>
<path d="M263.174 152.62V168.57L249.409 160.595V144.644L263.174 152.62Z" fill="#3399FF"/>
<path d="M276.944 144.646L263.174 136.665L249.409 144.646" stroke="#1A1A1A" stroke-width="0.52538" stroke-miterlimit="10"/>
<path d="M263.163 152.62L276.933 144.644V160.595L263.163 168.57" stroke="#1A1A1A" stroke-width="0.52538" stroke-miterlimit="10"/>
<path d="M249.409 144.644V160.595L263.174 168.57V152.62L249.409 144.644Z" stroke="#1A1A1A" stroke-width="0.52538" stroke-miterlimit="10"/>
<path d="M263.168 120.766V136.717L249.397 144.692V128.742L263.168 120.766Z" fill="#33FF66"/>
<path d="M263.167 120.768L249.396 128.743L235.631 120.768L249.396 112.787L263.167 120.768Z" fill="#FFCC33"/>
<path d="M249.396 128.742V144.692L235.631 136.717V120.766L249.396 128.742Z" fill="#3399FF"/>
<path d="M263.167 120.768L249.396 112.787L235.631 120.768" stroke="#1A1A1A" stroke-width="0.52538" stroke-miterlimit="10"/>
<path d="M249.397 128.742L263.168 120.766V136.717L249.397 144.692" stroke="#1A1A1A" stroke-width="0.52538" stroke-miterlimit="10"/>
<path d="M235.631 120.766V136.717L249.396 144.692V128.742L235.631 120.766Z" stroke="#1A1A1A" stroke-width="0.52538" stroke-miterlimit="10"/>
<path d="M263.168 104.808V120.759L249.397 128.734V112.784L263.168 104.808Z" fill="#33FF66"/>
<path d="M263.167 104.81L249.396 112.785L235.631 104.81L249.396 96.8293L263.167 104.81Z" fill="#FFCC33"/>
<path d="M249.396 112.784V128.734L235.631 120.759V104.808L249.396 112.784Z" fill="#3399FF"/>
<path d="M263.167 104.81L249.396 96.8293L235.631 104.81" stroke="#1A1A1A" stroke-width="0.52538" stroke-miterlimit="10"/>
<path d="M249.397 112.784L263.168 104.808V120.759L249.397 128.734" stroke="#1A1A1A" stroke-width="0.52538" stroke-miterlimit="10"/>
<path d="M235.631 104.808V120.759L249.396 128.734V112.784L235.631 104.808Z" stroke="#1A1A1A" stroke-width="0.52538" stroke-miterlimit="10"/>
<path d="M263.168 88.5674V104.518L249.397 112.493V96.5426L263.168 88.5674Z" fill="#33FF66"/>
<path d="M263.167 88.5689L249.396 96.5442L235.631 88.5689L249.396 80.5884L263.167 88.5689Z" fill="#FFCC33"/>
<path d="M249.396 96.5426V112.493L235.631 104.518V88.5674L249.396 96.5426Z" fill="#3399FF"/>
<path d="M263.167 88.5689L249.396 80.5884L235.631 88.5689" stroke="#1A1A1A" stroke-width="0.52538" stroke-miterlimit="10"/>
<path d="M249.397 96.5426L263.168 88.5674V104.518L249.397 112.493" stroke="#1A1A1A" stroke-width="0.52538" stroke-miterlimit="10"/>
<path d="M235.631 88.5674V104.518L249.396 112.493V96.5426L235.631 88.5674Z" stroke="#1A1A1A" stroke-width="0.52538" stroke-miterlimit="10"/>
<path d="M263.168 72.9158V88.8663L249.397 96.8416V80.891L263.168 72.9158Z" fill="#33FF66"/>
<path d="M263.167 72.9056L249.396 80.8808L235.631 72.9056L249.396 64.925L263.167 72.9056Z" fill="#FFCC33"/>
<path d="M249.396 80.891V96.8416L235.631 88.8663V72.9158L249.396 80.891Z" fill="#3399FF"/>
<path d="M263.167 72.9056L249.396 64.925L235.631 72.9056" stroke="#1A1A1A" stroke-width="0.52538" stroke-miterlimit="10"/>
<path d="M249.397 80.891L263.168 72.9158V88.8663L249.397 96.8416" stroke="#1A1A1A" stroke-width="0.52538" stroke-miterlimit="10"/>
<path d="M235.631 72.9158V88.8663L249.396 96.8416V80.891L235.631 72.9158Z" stroke="#1A1A1A" stroke-width="0.52538" stroke-miterlimit="10"/>
<path d="M290.699 152.623V168.574L276.929 176.549V160.599L290.699 152.623Z" fill="#33FF66"/>
<path d="M290.698 152.625L276.928 160.6L263.163 152.625L276.928 144.644L290.698 152.625Z" fill="#FFCC33"/>
<path d="M276.928 160.599V176.549L263.163 168.574V152.623L276.928 160.599Z" fill="#3399FF"/>
<path d="M290.698 152.625L276.928 144.644L263.163 152.625" stroke="#1A1A1A" stroke-width="0.52538" stroke-miterlimit="10"/>
<path d="M276.929 160.599L290.699 152.623V168.574L276.929 176.549" stroke="#1A1A1A" stroke-width="0.52538" stroke-miterlimit="10"/>
<path d="M263.163 152.623V168.574L276.928 176.549V160.599L263.163 152.623Z" stroke="#1A1A1A" stroke-width="0.52538" stroke-miterlimit="10"/>
</g>
<g clip-path="url(#clip3_4988_124771)">
<path d="M235.327 104.621V120.571L221.557 128.547V112.596L235.327 104.621Z" fill="#33FF66"/>
<path d="M235.314 104.622L221.544 112.598L207.779 104.622L221.544 96.6418L235.314 104.622Z" fill="#FFCC33"/>
<path d="M221.544 112.596V128.547L207.779 120.571V104.621L221.544 112.596Z" fill="#3399FF"/>
<path d="M235.314 104.622L221.544 96.6418L207.779 104.622" stroke="#1A1A1A" stroke-width="0.52538" stroke-miterlimit="10"/>
<path d="M221.557 112.596L235.327 104.621V120.571L221.557 128.547" stroke="#1A1A1A" stroke-width="0.52538" stroke-miterlimit="10"/>
<path d="M207.779 104.621V120.571L221.544 128.547V112.596L207.779 104.621Z" stroke="#1A1A1A" stroke-width="0.52538" stroke-miterlimit="10"/>
<path d="M249.081 112.6V128.55L235.311 136.526V120.575L249.081 112.6Z" fill="#33FF66"/>
<path d="M249.092 112.59L235.322 120.565L221.557 112.59L235.322 104.609L249.092 112.59Z" fill="#FFCC33"/>
<path d="M235.322 120.575V136.526L221.557 128.55V112.6L235.322 120.575Z" fill="#3399FF"/>
<path d="M249.092 112.59L235.322 104.609L221.557 112.59" stroke="#1A1A1A" stroke-width="0.52538" stroke-miterlimit="10"/>
<path d="M235.311 120.575L249.081 112.6V128.55L235.311 136.526" stroke="#1A1A1A" stroke-width="0.52538" stroke-miterlimit="10"/>
<path d="M221.557 112.6V128.55L235.322 136.526V120.575L221.557 112.6Z" stroke="#1A1A1A" stroke-width="0.52538" stroke-miterlimit="10"/>
<path d="M235.327 88.7217V104.672L221.557 112.647V96.6969L235.327 88.7217Z" fill="#33FF66"/>
<path d="M235.314 88.7115L221.544 96.6867L207.779 88.7115L221.544 80.731L235.314 88.7115Z" fill="#FFCC33"/>
<path d="M221.544 96.6969V112.647L207.779 104.672V88.7217L221.544 96.6969Z" fill="#3399FF"/>
<path d="M235.314 88.7115L221.544 80.731L207.779 88.7115" stroke="#1A1A1A" stroke-width="0.52538" stroke-miterlimit="10"/>
<path d="M221.557 96.6969L235.327 88.7217V104.672L221.557 112.647" stroke="#1A1A1A" stroke-width="0.52538" stroke-miterlimit="10"/>
<path d="M207.779 88.7217V104.672L221.544 112.647V96.6969L207.779 88.7217Z" stroke="#1A1A1A" stroke-width="0.52538" stroke-miterlimit="10"/>
<path d="M235.327 72.7637V88.7142L221.557 96.6895V80.7389L235.327 72.7637Z" fill="#33FF66"/>
<path d="M235.314 72.7652L221.544 80.7405L207.779 72.7652L221.544 64.7847L235.314 72.7652Z" fill="#FFCC33"/>
<path d="M221.544 80.7389V96.6895L207.779 88.7142V72.7637L221.544 80.7389Z" fill="#3399FF"/>
<path d="M235.314 72.7652L221.544 64.7847L207.779 72.7652" stroke="#1A1A1A" stroke-width="0.52538" stroke-miterlimit="10"/>
<path d="M221.557 80.7389L235.327 72.7637V88.7142L221.557 96.6895" stroke="#1A1A1A" stroke-width="0.52538" stroke-miterlimit="10"/>
<path d="M207.779 72.7637V88.7142L221.544 96.6895V80.7389L207.779 72.7637Z" stroke="#1A1A1A" stroke-width="0.52538" stroke-miterlimit="10"/>
<path d="M235.327 56.511V72.4615L221.557 80.4368V64.4863L235.327 56.511Z" fill="#33FF66"/>
<path d="M235.314 56.5243L221.544 64.4996L207.779 56.5243L221.544 48.5438L235.314 56.5243Z" fill="#FFCC33"/>
<path d="M221.544 64.4863V80.4368L207.779 72.4615V56.511L221.544 64.4863Z" fill="#3399FF"/>
<path d="M235.314 56.5243L221.544 48.5438L207.779 56.5243" stroke="#1A1A1A" stroke-width="0.52538" stroke-miterlimit="10"/>
<path d="M221.557 64.4863L235.327 56.511V72.4615L221.557 80.4368" stroke="#1A1A1A" stroke-width="0.52538" stroke-miterlimit="10"/>
<path d="M207.779 56.511V72.4615L221.544 80.4368V64.4863L207.779 56.511Z" stroke="#1A1A1A" stroke-width="0.52538" stroke-miterlimit="10"/>
<path d="M235.327 40.8594V56.8099L221.557 64.7852V48.8346L235.327 40.8594Z" fill="#33FF66"/>
<path d="M235.314 40.8609L221.544 48.8362L207.779 40.8609L221.544 32.8804L235.314 40.8609Z" fill="#FFCC33"/>
<path d="M221.544 48.8346V64.7852L207.779 56.8099V40.8594L221.544 48.8346Z" fill="#3399FF"/>
<path d="M235.314 40.8609L221.544 32.8804L207.779 40.8609" stroke="#1A1A1A" stroke-width="0.52538" stroke-miterlimit="10"/>
<path d="M221.557 48.8346L235.327 40.8594V56.8099L221.557 64.7852" stroke="#1A1A1A" stroke-width="0.52538" stroke-miterlimit="10"/>
<path d="M207.779 40.8594V56.8099L221.544 64.7852V48.8346L207.779 40.8594Z" stroke="#1A1A1A" stroke-width="0.52538" stroke-miterlimit="10"/>
<path d="M262.847 120.567V136.518L249.077 144.493V128.542L262.847 120.567Z" fill="#33FF66"/>
<path d="M262.846 120.569L249.075 128.544L235.311 120.569L249.075 112.588L262.846 120.569Z" fill="#FFCC33"/>
<path d="M249.076 128.542V144.493L235.311 136.518V120.567L249.076 128.542Z" fill="#3399FF"/>
<path d="M262.846 120.569L249.075 112.588L235.311 120.569" stroke="#1A1A1A" stroke-width="0.52538" stroke-miterlimit="10"/>
<path d="M249.077 128.542L262.847 120.567V136.518L249.077 144.493" stroke="#1A1A1A" stroke-width="0.52538" stroke-miterlimit="10"/>
<path d="M235.311 120.567V136.518L249.076 144.493V128.542L235.311 120.567Z" stroke="#1A1A1A" stroke-width="0.52538" stroke-miterlimit="10"/>
</g>
<g clip-path="url(#clip4_4988_124771)">
<path d="M193.815 63.4526V79.4032L180.045 87.3784V71.4279L193.815 63.4526Z" fill="#33FF66"/>
<path d="M193.814 63.4542L180.044 71.4294L166.279 63.4542L180.044 55.4736L193.814 63.4542Z" fill="#FFCC33"/>
<path d="M180.044 71.4279V87.3784L166.279 79.4032V63.4526L180.044 71.4279Z" fill="#3399FF"/>
<path d="M193.814 63.4542L180.044 55.4736L166.279 63.4542" stroke="#1A1A1A" stroke-width="0.52538" stroke-miterlimit="10"/>
<path d="M180.045 71.4279L193.815 63.4526V79.4032L180.045 87.3784" stroke="#1A1A1A" stroke-width="0.52538" stroke-miterlimit="10"/>
<path d="M166.279 63.4526V79.4032L180.044 87.3784V71.4279L166.279 63.4526Z" stroke="#1A1A1A" stroke-width="0.52538" stroke-miterlimit="10"/>
<path d="M193.815 127.214V143.165L180.045 151.14V135.189L193.815 127.214Z" fill="#33FF66"/>
<path d="M193.814 127.216L180.044 135.191L166.279 127.216L180.044 119.235L193.814 127.216Z" fill="#FFCC33"/>
<path d="M180.044 135.189V151.14L166.279 143.165V127.214L180.044 135.189Z" fill="#3399FF"/>
<path d="M193.814 127.216L180.044 119.235L166.279 127.216" stroke="#1A1A1A" stroke-width="0.52538" stroke-miterlimit="10"/>
<path d="M180.045 135.189L193.815 127.214V143.165L180.045 151.14" stroke="#1A1A1A" stroke-width="0.52538" stroke-miterlimit="10"/>
<path d="M166.279 127.214V143.165L180.044 151.14V135.189L166.279 127.214Z" stroke="#1A1A1A" stroke-width="0.52538" stroke-miterlimit="10"/>
<path d="M207.581 135.181V151.132L193.811 159.107V143.157L207.581 135.181Z" fill="#33FF66"/>
<path d="M207.58 135.183L193.81 143.158L180.045 135.183L193.81 127.202L207.58 135.183Z" fill="#FFCC33"/>
<path d="M193.81 143.157V159.107L180.045 151.132V135.181L193.81 143.157Z" fill="#3399FF"/>
<path d="M207.58 135.183L193.81 127.202L180.045 135.183" stroke="#1A1A1A" stroke-width="0.52538" stroke-miterlimit="10"/>
<path d="M193.811 143.157L207.581 135.181V151.132L193.811 159.107" stroke="#1A1A1A" stroke-width="0.52538" stroke-miterlimit="10"/>
<path d="M180.045 135.181V151.132L193.81 159.107V143.157L180.045 135.181Z" stroke="#1A1A1A" stroke-width="0.52538" stroke-miterlimit="10"/>
<path d="M221.347 143.16V159.111L207.577 167.086V151.136L221.347 143.16Z" fill="#33FF66"/>
<path d="M221.346 143.162L207.576 151.137L193.811 143.162L207.576 135.181L221.346 143.162Z" fill="#FFCC33"/>
<path d="M207.576 151.136V167.086L193.811 159.111V143.16L207.576 151.136Z" fill="#3399FF"/>
<path d="M221.346 143.162L207.576 135.181L193.811 143.162" stroke="#1A1A1A" stroke-width="0.52538" stroke-miterlimit="10"/>
<path d="M207.577 151.136L221.347 143.16V159.111L207.577 167.086" stroke="#1A1A1A" stroke-width="0.52538" stroke-miterlimit="10"/>
<path d="M193.811 143.16V159.111L207.576 167.086V151.136L193.811 143.16Z" stroke="#1A1A1A" stroke-width="0.52538" stroke-miterlimit="10"/>
<path d="M207.581 119.282V135.233L193.811 143.208V127.257L207.581 119.282Z" fill="#33FF66"/>
<path d="M207.58 119.284L193.81 127.259L180.045 119.284L193.81 111.303L207.58 119.284Z" fill="#FFCC33"/>
<path d="M193.81 127.257V143.208L180.045 135.233V119.282L193.81 127.257Z" fill="#3399FF"/>
<path d="M207.58 119.284L193.81 111.303L180.045 119.284" stroke="#1A1A1A" stroke-width="0.52538" stroke-miterlimit="10"/>
<path d="M193.811 127.257L207.581 119.282V135.233L193.811 143.208" stroke="#1A1A1A" stroke-width="0.52538" stroke-miterlimit="10"/>
<path d="M180.045 119.282V135.233L193.81 143.208V127.257L180.045 119.282Z" stroke="#1A1A1A" stroke-width="0.52538" stroke-miterlimit="10"/>
<path d="M207.581 103.324V119.275L193.811 127.25V111.299L207.581 103.324Z" fill="#33FF66"/>
<path d="M207.58 103.326L193.81 111.301L180.045 103.326L193.81 95.3451L207.58 103.326Z" fill="#FFCC33"/>
<path d="M193.81 111.299V127.25L180.045 119.275V103.324L193.81 111.299Z" fill="#3399FF"/>
<path d="M207.58 103.326L193.81 95.3451L180.045 103.326" stroke="#1A1A1A" stroke-width="0.52538" stroke-miterlimit="10"/>
<path d="M193.811 111.299L207.581 103.324V119.275L193.811 127.25" stroke="#1A1A1A" stroke-width="0.52538" stroke-miterlimit="10"/>
<path d="M180.045 103.324V119.275L193.81 127.25V111.299L180.045 103.324Z" stroke="#1A1A1A" stroke-width="0.52538" stroke-miterlimit="10"/>
<path d="M207.581 87.0833V103.034L193.811 111.009V95.0585L207.581 87.0833Z" fill="#33FF66"/>
<path d="M207.58 87.0848L193.81 95.06L180.045 87.0848L193.81 79.1042L207.58 87.0848Z" fill="#FFCC33"/>
<path d="M193.81 95.0585V111.009L180.045 103.034V87.0833L193.81 95.0585Z" fill="#3399FF"/>
<path d="M207.58 87.0848L193.81 79.1042L180.045 87.0848" stroke="#1A1A1A" stroke-width="0.52538" stroke-miterlimit="10"/>
<path d="M193.811 95.0585L207.581 87.0833V103.034L193.811 111.009" stroke="#1A1A1A" stroke-width="0.52538" stroke-miterlimit="10"/>
<path d="M180.045 87.0833V103.034L193.81 111.009V95.0585L180.045 87.0833Z" stroke="#1A1A1A" stroke-width="0.52538" stroke-miterlimit="10"/>
<path d="M207.581 71.4316V87.3822L193.811 95.3574V79.4069L207.581 71.4316Z" fill="#33FF66"/>
<path d="M207.58 71.4214L193.81 79.3967L180.045 71.4214L193.81 63.4409L207.58 71.4214Z" fill="#FFCC33"/>
<path d="M193.81 79.4069V95.3574L180.045 87.3822V71.4316L193.81 79.4069Z" fill="#3399FF"/>
<path d="M207.58 71.4214L193.81 63.4409L180.045 71.4214" stroke="#1A1A1A" stroke-width="0.52538" stroke-miterlimit="10"/>
<path d="M193.811 79.4069L207.581 71.4316V87.3822L193.811 95.3574" stroke="#1A1A1A" stroke-width="0.52538" stroke-miterlimit="10"/>
<path d="M180.045 71.4316V87.3822L193.81 95.3574V79.4069L180.045 71.4316Z" stroke="#1A1A1A" stroke-width="0.52538" stroke-miterlimit="10"/>
<path d="M221.347 79.4106V95.3612L207.577 103.336V87.3859L221.347 79.4106Z" fill="#33FF66"/>
<path d="M221.346 79.4004L207.576 87.3757L193.811 79.4004L207.576 71.4199L221.346 79.4004Z" fill="#FFCC33"/>
<path d="M207.576 87.3859V103.336L193.811 95.3612V79.4106L207.576 87.3859Z" fill="#3399FF"/>
<path d="M221.346 79.4004L207.576 71.4199L193.811 79.4004" stroke="#1A1A1A" stroke-width="0.52538" stroke-miterlimit="10"/>
<path d="M207.577 87.3859L221.347 79.4106V95.3612L207.577 103.336" stroke="#1A1A1A" stroke-width="0.52538" stroke-miterlimit="10"/>
<path d="M193.811 79.4106V95.3612L207.576 103.336V87.3859L193.811 79.4106Z" stroke="#1A1A1A" stroke-width="0.52538" stroke-miterlimit="10"/>
</g>
<g clip-path="url(#clip5_4988_124771)">
<path d="M179.84 87.8281V103.779L166.069 111.754V95.8034L179.84 87.8281Z" fill="#33FF66"/>
<path d="M179.839 87.8296L166.069 95.8049L152.304 87.8296L166.069 79.8491L179.839 87.8296Z" fill="#FFCC33"/>
<path d="M166.069 95.8034V111.754L152.304 103.779V87.8281L166.069 95.8034Z" fill="#3399FF"/>
<path d="M179.839 87.8296L166.069 79.8491L152.304 87.8296" stroke="#1A1A1A" stroke-width="0.52538" stroke-miterlimit="10"/>
<path d="M166.069 95.8034L179.84 87.8281V103.779L166.069 111.754" stroke="#1A1A1A" stroke-width="0.52538" stroke-miterlimit="10"/>
<path d="M152.304 87.8281V103.779L166.069 111.754V95.8034L152.304 87.8281Z" stroke="#1A1A1A" stroke-width="0.52538" stroke-miterlimit="10"/>
<path d="M179.84 72.0822V88.0327L166.069 96.0079V80.0574L179.84 72.0822Z" fill="#33FF66"/>
<path d="M179.839 72.0837L166.069 80.0589L152.304 72.0837L166.069 64.1031L179.839 72.0837Z" fill="#FFCC33"/>
<path d="M166.069 80.0574V96.0079L152.304 88.0327V72.0822L166.069 80.0574Z" fill="#3399FF"/>
<path d="M179.839 72.0837L166.069 64.1031L152.304 72.0837" stroke="#1A1A1A" stroke-width="0.52538" stroke-miterlimit="10"/>
<path d="M166.069 80.0574L179.84 72.0822V88.0327L166.069 96.0079" stroke="#1A1A1A" stroke-width="0.52538" stroke-miterlimit="10"/>
<path d="M152.304 72.0822V88.0327L166.069 96.0079V80.0574L152.304 72.0822Z" stroke="#1A1A1A" stroke-width="0.52538" stroke-miterlimit="10"/>
<path d="M179.84 56.2421V72.1926L166.069 80.1679V64.2173L179.84 56.2421Z" fill="#33FF66"/>
<path d="M179.839 56.2436L166.069 64.2188L152.304 56.2436L166.069 48.2631L179.839 56.2436Z" fill="#FFCC33"/>
<path d="M166.069 64.2173V80.1679L152.304 72.1926V56.2421L166.069 64.2173Z" fill="#3399FF"/>
<path d="M179.839 56.2436L166.069 48.2631L152.304 56.2436" stroke="#1A1A1A" stroke-width="0.52538" stroke-miterlimit="10"/>
<path d="M166.069 64.2173L179.84 56.2421V72.1926L166.069 80.1679" stroke="#1A1A1A" stroke-width="0.52538" stroke-miterlimit="10"/>
<path d="M152.304 56.2421V72.1926L166.069 80.1679V64.2173L152.304 56.2421Z" stroke="#1A1A1A" stroke-width="0.52538" stroke-miterlimit="10"/>
<path d="M179.84 40.2958V56.2463L166.069 64.2216V48.271L179.84 40.2958Z" fill="#33FF66"/>
<path d="M179.839 40.2855L166.069 48.2607L152.304 40.2855L166.069 32.3049L179.839 40.2855Z" fill="#FFCC33"/>
<path d="M166.069 48.271V64.2216L152.304 56.2463V40.2958L166.069 48.271Z" fill="#3399FF"/>
<path d="M179.839 40.2855L166.069 32.3049L152.304 40.2855" stroke="#1A1A1A" stroke-width="0.52538" stroke-miterlimit="10"/>
<path d="M166.069 48.271L179.84 40.2958V56.2463L166.069 64.2216" stroke="#1A1A1A" stroke-width="0.52538" stroke-miterlimit="10"/>
<path d="M152.304 40.2958V56.2463L166.069 64.2216V48.271L152.304 40.2958Z" stroke="#1A1A1A" stroke-width="0.52538" stroke-miterlimit="10"/>
<path d="M152.308 8.2854V24.2359L138.538 32.2112V16.2607L152.308 8.2854Z" fill="#33FF66"/>
<path d="M152.307 8.28692L138.537 16.2622L124.772 8.28692L138.537 0.306396L152.307 8.28692Z" fill="#FFCC33"/>
<path d="M138.537 16.2607V32.2112L124.772 24.2359V8.2854L138.537 16.2607Z" fill="#3399FF"/>
<path d="M152.307 8.28692L138.537 0.306396L124.772 8.28692" stroke="#1A1A1A" stroke-width="0.52538" stroke-miterlimit="10"/>
<path d="M138.538 16.2607L152.308 8.2854V24.2359L138.538 32.2112" stroke="#1A1A1A" stroke-width="0.52538" stroke-miterlimit="10"/>
<path d="M124.772 8.2854V24.2359L138.537 32.2112V16.2607L124.772 8.2854Z" stroke="#1A1A1A" stroke-width="0.52538" stroke-miterlimit="10"/>
<path d="M166.074 16.3588V32.3093L152.304 40.2846V24.334L166.074 16.3588Z" fill="#33FF66"/>
<path d="M166.073 16.372L152.303 24.3473L138.538 16.372L152.303 8.39148L166.073 16.372Z" fill="#FFCC33"/>
<path d="M152.303 24.334V40.2846L138.538 32.3093V16.3588L152.303 24.334Z" fill="#3399FF"/>
<path d="M166.073 16.372L152.303 8.39148L138.538 16.372" stroke="#1A1A1A" stroke-width="0.52538" stroke-miterlimit="10"/>
<path d="M152.304 24.334L166.074 16.3588V32.3093L152.304 40.2846" stroke="#1A1A1A" stroke-width="0.52538" stroke-miterlimit="10"/>
<path d="M138.538 16.3588V32.3093L152.303 40.2846V24.334L138.538 16.3588Z" stroke="#1A1A1A" stroke-width="0.52538" stroke-miterlimit="10"/>
<path d="M179.84 24.3378V40.2883L166.069 48.2636V32.313L179.84 24.3378Z" fill="#33FF66"/>
<path d="M179.839 24.3393L166.069 32.3146L152.304 24.3393L166.069 16.3588L179.839 24.3393Z" fill="#FFCC33"/>
<path d="M166.069 32.313V48.2636L152.304 40.2883V24.3378L166.069 32.313Z" fill="#3399FF"/>
<path d="M179.839 24.3393L166.069 16.3588L152.304 24.3393" stroke="#1A1A1A" stroke-width="0.52538" stroke-miterlimit="10"/>
<path d="M166.069 32.313L179.84 24.3378V40.2883L166.069 48.2636" stroke="#1A1A1A" stroke-width="0.52538" stroke-miterlimit="10"/>
<path d="M152.304 24.3378V40.2883L166.069 48.2636V32.313L152.304 24.3378Z" stroke="#1A1A1A" stroke-width="0.52538" stroke-miterlimit="10"/>
<path d="M193.606 32.3168V48.2673L179.835 56.2426V40.292L193.606 32.3168Z" fill="#33FF66"/>
<path d="M193.604 32.3183L179.834 40.2936L166.069 32.3183L179.834 24.3378L193.604 32.3183Z" fill="#FFCC33"/>
<path d="M179.834 40.292V56.2426L166.069 48.2673V32.3168L179.834 40.292Z" fill="#3399FF"/>
<path d="M193.604 32.3183L179.834 24.3378L166.069 32.3183" stroke="#1A1A1A" stroke-width="0.52538" stroke-miterlimit="10"/>
<path d="M179.835 40.292L193.606 32.3168V48.2673L179.835 56.2426" stroke="#1A1A1A" stroke-width="0.52538" stroke-miterlimit="10"/>
<path d="M166.069 32.3168V48.2673L179.834 56.2426V40.292L166.069 32.3168Z" stroke="#1A1A1A" stroke-width="0.52538" stroke-miterlimit="10"/>
<path d="M207.383 40.2958V56.2463L193.613 64.2216V48.271L207.383 40.2958Z" fill="#33FF66"/>
<path d="M207.382 40.2855L193.612 48.2607L179.847 40.2855L193.612 32.3049L207.382 40.2855Z" fill="#FFCC33"/>
<path d="M193.612 48.271V64.2216L179.847 56.2463V40.2958L193.612 48.271Z" fill="#3399FF"/>
<path d="M207.382 40.2855L193.612 32.3049L179.847 40.2855" stroke="#1A1A1A" stroke-width="0.52538" stroke-miterlimit="10"/>
<path d="M193.613 48.271L207.383 40.2958V56.2463L193.613 64.2216" stroke="#1A1A1A" stroke-width="0.52538" stroke-miterlimit="10"/>
<path d="M179.847 40.2958V56.2463L193.612 64.2216V48.271L179.847 40.2958Z" stroke="#1A1A1A" stroke-width="0.52538" stroke-miterlimit="10"/>
</g>
<g clip-path="url(#clip6_4988_124771)">
<path d="M124.471 88.0076V103.958L110.701 111.933V95.9828L124.471 88.0076Z" fill="#33FF66"/>
<path d="M124.47 87.9972L110.7 95.9725L96.9351 87.9972L110.7 80.0167L124.47 87.9972Z" fill="#FFCC33"/>
<path d="M110.7 95.9828V111.933L96.9351 103.958V88.0076L110.7 95.9828Z" fill="#3399FF"/>
<path d="M124.47 87.9972L110.7 80.0167L96.9351 87.9972" stroke="#1A1A1A" stroke-width="0.52538" stroke-miterlimit="10"/>
<path d="M110.701 95.9828L124.471 88.0076V103.958L110.701 111.933" stroke="#1A1A1A" stroke-width="0.52538" stroke-miterlimit="10"/>
<path d="M96.9351 88.0076V103.958L110.7 111.933V95.9828L96.9351 88.0076Z" stroke="#1A1A1A" stroke-width="0.52538" stroke-miterlimit="10"/>
<path d="M124.718 119.664V135.615L110.948 143.59V127.64L124.718 119.664Z" fill="#33FF66"/>
<path d="M124.718 119.666L110.948 127.641L97.1826 119.666L110.948 111.685L124.718 119.666Z" fill="#FFCC33"/>
<path d="M110.948 127.64V143.59L97.1826 135.615V119.664L110.948 127.64Z" fill="#3399FF"/>
<path d="M124.718 119.666L110.948 111.685L97.1826 119.666" stroke="#1A1A1A" stroke-width="0.52538" stroke-miterlimit="10"/>
<path d="M110.948 127.64L124.718 119.664V135.615L110.948 143.59" stroke="#1A1A1A" stroke-width="0.52538" stroke-miterlimit="10"/>
<path d="M97.1826 119.664V135.615L110.948 143.59V127.64L97.1826 119.664Z" stroke="#1A1A1A" stroke-width="0.52538" stroke-miterlimit="10"/>
<path d="M124.471 72.0613V88.0118L110.701 95.9871V80.0365L124.471 72.0613Z" fill="#33FF66"/>
<path d="M124.47 72.0511L110.7 80.0263L96.9351 72.0511L110.7 64.0706L124.47 72.0511Z" fill="#FFCC33"/>
<path d="M110.7 80.0365V95.9871L96.9351 88.0118V72.0613L110.7 80.0365Z" fill="#3399FF"/>
<path d="M124.47 72.0511L110.7 64.0706L96.9351 72.0511" stroke="#1A1A1A" stroke-width="0.52538" stroke-miterlimit="10"/>
<path d="M110.701 80.0365L124.471 72.0613V88.0118L110.701 95.9871" stroke="#1A1A1A" stroke-width="0.52538" stroke-miterlimit="10"/>
<path d="M96.9351 72.0613V88.0118L110.7 95.9871V80.0365L96.9351 72.0613Z" stroke="#1A1A1A" stroke-width="0.52538" stroke-miterlimit="10"/>
<path d="M138.496 127.808V143.759L124.726 151.734V135.784L138.496 127.808Z" fill="#33FF66"/>
<path d="M138.496 127.81L124.725 135.785L110.96 127.81L124.725 119.829L138.496 127.81Z" fill="#FFCC33"/>
<path d="M124.725 135.784V151.734L110.96 143.759V127.808L124.725 135.784Z" fill="#3399FF"/>
<path d="M138.496 127.81L124.725 119.829L110.96 127.81" stroke="#1A1A1A" stroke-width="0.52538" stroke-miterlimit="10"/>
<path d="M124.726 135.784L138.496 127.808V143.759L124.726 151.734" stroke="#1A1A1A" stroke-width="0.52538" stroke-miterlimit="10"/>
<path d="M110.96 127.808V143.759L124.725 151.734V135.784L110.96 127.808Z" stroke="#1A1A1A" stroke-width="0.52538" stroke-miterlimit="10"/>
<path d="M138.225 95.739V111.69L124.455 119.665V103.714L138.225 95.739Z" fill="#33FF66"/>
<path d="M138.236 95.7405L124.466 103.716L110.701 95.7405L124.466 87.76L138.236 95.7405Z" fill="#FFCC33"/>
<path d="M124.466 103.714V119.665L110.701 111.69V95.739L124.466 103.714Z" fill="#3399FF"/>
<path d="M138.236 95.7405L124.466 87.76L110.701 95.7405" stroke="#1A1A1A" stroke-width="0.52538" stroke-miterlimit="10"/>
<path d="M124.455 103.714L138.225 95.739V111.69L124.455 119.665" stroke="#1A1A1A" stroke-width="0.52538" stroke-miterlimit="10"/>
<path d="M110.701 95.739V111.69L124.466 119.665V103.714L110.701 95.739Z" stroke="#1A1A1A" stroke-width="0.52538" stroke-miterlimit="10"/>
<path d="M152.003 103.718V119.669L138.233 127.644V111.693L152.003 103.718Z" fill="#33FF66"/>
<path d="M151.99 103.708L138.22 111.683L124.455 103.708L138.22 95.7273L151.99 103.708Z" fill="#FFCC33"/>
<path d="M138.22 111.693V127.644L124.455 119.669V103.718L138.22 111.693Z" fill="#3399FF"/>
<path d="M151.99 103.708L138.22 95.7273L124.455 103.708" stroke="#1A1A1A" stroke-width="0.52538" stroke-miterlimit="10"/>
<path d="M138.233 111.693L152.003 103.718V119.669L138.233 127.644" stroke="#1A1A1A" stroke-width="0.52538" stroke-miterlimit="10"/>
<path d="M124.455 103.718V119.669L138.22 127.644V111.693L124.455 103.718Z" stroke="#1A1A1A" stroke-width="0.52538" stroke-miterlimit="10"/>
<path d="M165.769 111.862V127.813L151.999 135.788V119.837L165.769 111.862Z" fill="#33FF66"/>
<path d="M165.768 111.852L151.998 119.827L138.233 111.852L151.998 103.871L165.768 111.852Z" fill="#FFCC33"/>
<path d="M151.998 119.837V135.788L138.233 127.813V111.862L151.998 119.837Z" fill="#3399FF"/>
<path d="M165.768 111.852L151.998 103.871L138.233 111.852" stroke="#1A1A1A" stroke-width="0.52538" stroke-miterlimit="10"/>
<path d="M151.999 119.837L165.769 111.862V127.813L151.999 135.788" stroke="#1A1A1A" stroke-width="0.52538" stroke-miterlimit="10"/>
<path d="M138.233 111.862V127.813L151.998 135.788V119.837L138.233 111.862Z" stroke="#1A1A1A" stroke-width="0.52538" stroke-miterlimit="10"/>
<path d="M152.003 135.834V151.785L138.233 159.76V143.81L152.003 135.834Z" fill="#33FF66"/>
<path d="M151.99 135.836L138.22 143.811L124.455 135.836L138.22 127.855L151.99 135.836Z" fill="#FFCC33"/>
<path d="M138.22 143.81V159.76L124.455 151.785V135.834L138.22 143.81Z" fill="#3399FF"/>
<path d="M151.99 135.836L138.22 127.855L124.455 135.836" stroke="#1A1A1A" stroke-width="0.52538" stroke-miterlimit="10"/>
<path d="M138.233 143.81L152.003 135.834V151.785L138.233 159.76" stroke="#1A1A1A" stroke-width="0.52538" stroke-miterlimit="10"/>
<path d="M124.455 135.834V151.785L138.22 159.76V143.81L124.455 135.834Z" stroke="#1A1A1A" stroke-width="0.52538" stroke-miterlimit="10"/>
<path d="M165.769 143.755V159.705L151.999 167.68V151.73L165.769 143.755Z" fill="#33FF66"/>
<path d="M165.768 143.756L151.998 151.731L138.233 143.756L151.998 135.776L165.768 143.756Z" fill="#FFCC33"/>
<path d="M151.998 151.73V167.68L138.233 159.705V143.755L151.998 151.73Z" fill="#3399FF"/>
<path d="M165.768 143.756L151.998 135.776L138.233 143.756" stroke="#1A1A1A" stroke-width="0.52538" stroke-miterlimit="10"/>
<path d="M151.999 151.73L165.769 143.755V159.705L151.999 167.68" stroke="#1A1A1A" stroke-width="0.52538" stroke-miterlimit="10"/>
<path d="M138.233 143.755V159.705L151.998 167.68V151.73L138.233 143.755Z" stroke="#1A1A1A" stroke-width="0.52538" stroke-miterlimit="10"/>
<path d="M179.535 135.834V151.785L165.765 159.76V143.81L179.535 135.834Z" fill="#33FF66"/>
<path d="M179.534 135.836L165.763 143.811L151.999 135.836L165.763 127.855L179.534 135.836Z" fill="#FFCC33"/>
<path d="M165.763 143.81V159.76L151.999 151.785V135.834L165.763 143.81Z" fill="#3399FF"/>
<path d="M179.534 135.836L165.763 127.855L151.999 135.836" stroke="#1A1A1A" stroke-width="0.52538" stroke-miterlimit="10"/>
<path d="M165.765 143.81L179.535 135.834V151.785L165.765 159.76" stroke="#1A1A1A" stroke-width="0.52538" stroke-miterlimit="10"/>
<path d="M151.999 135.834V151.785L165.763 159.76V143.81L151.999 135.834Z" stroke="#1A1A1A" stroke-width="0.52538" stroke-miterlimit="10"/>
<path d="M179.547 119.888V135.834L165.776 143.814V127.858L179.547 119.888Z" fill="#33FF66"/>
<path d="M179.534 119.883L165.763 127.853L151.999 119.883L165.763 111.897L179.534 119.883Z" fill="#FFCC33"/>
<path d="M165.763 127.858V143.814L151.999 135.834V119.888L165.763 127.858Z" fill="#3399FF"/>
<path d="M179.534 119.883L165.763 111.897L151.999 119.883" stroke="#1A1A1A" stroke-width="0.52538" stroke-miterlimit="10"/>
<path d="M165.776 127.858L179.547 119.888V135.834L165.776 143.814" stroke="#1A1A1A" stroke-width="0.52538" stroke-miterlimit="10"/>
<path d="M151.999 119.888V135.834L165.763 143.814V127.858L151.999 119.888Z" stroke="#1A1A1A" stroke-width="0.52538" stroke-miterlimit="10"/>
<path d="M124.471 56.1033V72.0538L110.701 80.0291V64.0785L124.471 56.1033Z" fill="#33FF66"/>
<path d="M124.47 56.1048L110.7 64.0801L96.9351 56.1048L110.7 48.1243L124.47 56.1048Z" fill="#FFCC33"/>
<path d="M110.7 64.0785V80.0291L96.9351 72.0538V56.1033L110.7 64.0785Z" fill="#3399FF"/>
<path d="M124.47 56.1048L110.7 48.1243L96.9351 56.1048" stroke="#1A1A1A" stroke-width="0.52538" stroke-miterlimit="10"/>
<path d="M110.701 64.0785L124.471 56.1033V72.0538L110.701 80.0291" stroke="#1A1A1A" stroke-width="0.52538" stroke-miterlimit="10"/>
<path d="M96.9351 56.1033V72.0538L110.7 80.0291V64.0785L96.9351 56.1033Z" stroke="#1A1A1A" stroke-width="0.52538" stroke-miterlimit="10"/>
<path d="M138.225 64.0823V80.0328L124.455 88.0081V72.0575L138.225 64.0823Z" fill="#33FF66"/>
<path d="M138.236 64.0721L124.466 72.0473L110.701 64.0721L124.466 56.0916L138.236 64.0721Z" fill="#FFCC33"/>
<path d="M124.466 72.0575V88.0081L110.701 80.0328V64.0823L124.466 72.0575Z" fill="#3399FF"/>
<path d="M138.236 64.0721L124.466 56.0916L110.701 64.0721" stroke="#1A1A1A" stroke-width="0.52538" stroke-miterlimit="10"/>
<path d="M124.455 72.0575L138.225 64.0823V80.0328L124.455 88.0081" stroke="#1A1A1A" stroke-width="0.52538" stroke-miterlimit="10"/>
<path d="M110.701 64.0823V80.0328L124.466 88.0081V72.0575L110.701 64.0823Z" stroke="#1A1A1A" stroke-width="0.52538" stroke-miterlimit="10"/>
<path d="M152.003 72.0613V88.0118L138.233 95.9871V80.0365L152.003 72.0613Z" fill="#33FF66"/>
<path d="M151.99 72.0511L138.22 80.0263L124.455 72.0511L138.22 64.0706L151.99 72.0511Z" fill="#FFCC33"/>
<path d="M138.22 80.0365V95.9871L124.455 88.0118V72.0613L138.22 80.0365Z" fill="#3399FF"/>
<path d="M151.99 72.0511L138.22 64.0706L124.455 72.0511" stroke="#1A1A1A" stroke-width="0.52538" stroke-miterlimit="10"/>
<path d="M138.233 80.0365L152.003 72.0613V88.0118L138.233 95.9871" stroke="#1A1A1A" stroke-width="0.52538" stroke-miterlimit="10"/>
<path d="M124.455 72.0613V88.0118L138.22 95.9871V80.0365L124.455 72.0613Z" stroke="#1A1A1A" stroke-width="0.52538" stroke-miterlimit="10"/>
<path d="M165.769 80.0286V95.9791L151.999 103.954V88.0038L165.769 80.0286Z" fill="#33FF66"/>
<path d="M165.768 80.0182L151.998 87.9935L138.233 80.0182L151.998 72.0377L165.768 80.0182Z" fill="#FFCC33"/>
<path d="M151.998 88.0038V103.954L138.233 95.9791V80.0286L151.998 88.0038Z" fill="#3399FF"/>
<path d="M165.768 80.0182L151.998 72.0377L138.233 80.0182" stroke="#1A1A1A" stroke-width="0.52538" stroke-miterlimit="10"/>
<path d="M151.999 88.0038L165.769 80.0286V95.9791L151.999 103.954" stroke="#1A1A1A" stroke-width="0.52538" stroke-miterlimit="10"/>
<path d="M138.233 80.0286V95.9791L151.998 103.954V88.0038L138.233 80.0286Z" stroke="#1A1A1A" stroke-width="0.52538" stroke-miterlimit="10"/>
</g>
<g clip-path="url(#clip7_4988_124771)">
<path d="M69.3 103.099V119.05L55.5298 127.025V111.075L69.3 103.099Z" fill="#33FF66"/>
<path d="M69.2993 103.101L55.5291 111.076L41.7642 103.101L55.5291 95.1202L69.2993 103.101Z" fill="#FFCC33"/>
<path d="M55.5291 111.075V127.025L41.7642 119.05V103.099L55.5291 111.075Z" fill="#3399FF"/>
<path d="M69.2993 103.101L55.5291 95.1202L41.7642 103.101" stroke="#1A1A1A" stroke-width="0.52538" stroke-miterlimit="10"/>
<path d="M55.5298 111.075L69.3 103.099V119.05L55.5298 127.025" stroke="#1A1A1A" stroke-width="0.52538" stroke-miterlimit="10"/>
<path d="M41.7642 103.099V119.05L55.5291 127.025V111.075L41.7642 103.099Z" stroke="#1A1A1A" stroke-width="0.52538" stroke-miterlimit="10"/>
<path d="M69.3 87.1412V103.092L55.5298 111.067V95.1165L69.3 87.1412Z" fill="#33FF66"/>
<path d="M69.2993 87.1428L55.5291 95.118L41.7642 87.1428L55.5291 79.1622L69.2993 87.1428Z" fill="#FFCC33"/>
<path d="M55.5291 95.1165V111.067L41.7642 103.092V87.1412L55.5291 95.1165Z" fill="#3399FF"/>
<path d="M69.2993 87.1428L55.5291 79.1622L41.7642 87.1428" stroke="#1A1A1A" stroke-width="0.52538" stroke-miterlimit="10"/>
<path d="M55.5298 95.1165L69.3 87.1412V103.092L55.5298 111.067" stroke="#1A1A1A" stroke-width="0.52538" stroke-miterlimit="10"/>
<path d="M41.7642 87.1412V103.092L55.5291 111.067V95.1165L41.7642 87.1412Z" stroke="#1A1A1A" stroke-width="0.52538" stroke-miterlimit="10"/>
<path d="M69.3 71.1949V87.1455L55.5298 95.1207V79.1702L69.3 71.1949Z" fill="#33FF66"/>
<path d="M69.2993 71.1847L55.5291 79.16L41.7642 71.1847L55.5291 63.2042L69.2993 71.1847Z" fill="#FFCC33"/>
<path d="M55.5291 79.1702V95.1207L41.7642 87.1455V71.1949L55.5291 79.1702Z" fill="#3399FF"/>
<path d="M69.2993 71.1847L55.5291 63.2042L41.7642 71.1847" stroke="#1A1A1A" stroke-width="0.52538" stroke-miterlimit="10"/>
<path d="M55.5298 79.1702L69.3 71.1949V87.1455L55.5298 95.1207" stroke="#1A1A1A" stroke-width="0.52538" stroke-miterlimit="10"/>
<path d="M41.7642 71.1949V87.1455L55.5291 95.1207V79.1702L41.7642 71.1949Z" stroke="#1A1A1A" stroke-width="0.52538" stroke-miterlimit="10"/>
<path d="M69.3 55.2369V71.1875L55.5298 79.1627V63.2122L69.3 55.2369Z" fill="#33FF66"/>
<path d="M69.2993 55.2385L55.5291 63.2137L41.7642 55.2385L55.5291 47.2579L69.2993 55.2385Z" fill="#FFCC33"/>
<path d="M55.5291 63.2122V79.1627L41.7642 71.1875V55.2369L55.5291 63.2122Z" fill="#3399FF"/>
<path d="M69.2993 55.2385L55.5291 47.2579L41.7642 55.2385" stroke="#1A1A1A" stroke-width="0.52538" stroke-miterlimit="10"/>
<path d="M55.5298 63.2122L69.3 55.2369V71.1875L55.5298 79.1627" stroke="#1A1A1A" stroke-width="0.52538" stroke-miterlimit="10"/>
<path d="M41.7642 55.2369V71.1875L55.5291 79.1627V63.2122L41.7642 55.2369Z" stroke="#1A1A1A" stroke-width="0.52538" stroke-miterlimit="10"/>
<path d="M83.0661 63.4752V79.4258L69.2959 87.4063V71.4557L83.0661 63.4752Z" fill="#33FF66"/>
<path d="M83.0649 63.4715L69.2947 71.452L55.5298 63.4715L69.2947 55.4962L83.0649 63.4715Z" fill="#FFCC33"/>
<path d="M69.2947 71.4557V87.4063L55.5298 79.4258V63.4752L69.2947 71.4557Z" fill="#3399FF"/>
<path d="M83.0649 63.4715L69.2947 55.4962L55.5298 63.4715" stroke="#1A1A1A" stroke-width="0.52538" stroke-miterlimit="10"/>
<path d="M69.2959 71.4557L83.0661 63.4752V79.4258L69.2959 87.4063" stroke="#1A1A1A" stroke-width="0.52538" stroke-miterlimit="10"/>
<path d="M55.5298 63.4752V79.4258L69.2947 87.4063V71.4557L55.5298 63.4752Z" stroke="#1A1A1A" stroke-width="0.52538" stroke-miterlimit="10"/>
<path d="M96.8317 87.4122V103.363L83.0615 111.338V95.3875L96.8317 87.4122Z" fill="#33FF66"/>
<path d="M96.8311 87.402L83.0609 95.3773L69.2959 87.402L83.0609 79.4215L96.8311 87.402Z" fill="#FFCC33"/>
<path d="M83.0609 95.3875V111.338L69.2959 103.363V87.4122L83.0609 95.3875Z" fill="#3399FF"/>
<path d="M96.8311 87.402L83.0609 79.4215L69.2959 87.402" stroke="#1A1A1A" stroke-width="0.52538" stroke-miterlimit="10"/>
<path d="M83.0615 95.3875L96.8317 87.4122V103.363L83.0615 111.338" stroke="#1A1A1A" stroke-width="0.52538" stroke-miterlimit="10"/>
<path d="M69.2959 87.4122V103.363L83.0609 111.338V95.3875L69.2959 87.4122Z" stroke="#1A1A1A" stroke-width="0.52538" stroke-miterlimit="10"/>
<path d="M110.598 111.29V127.241L96.8276 135.216V119.266L110.598 111.29Z" fill="#33FF66"/>
<path d="M110.597 111.292L96.8265 119.267L83.0615 111.292L96.8265 103.311L110.597 111.292Z" fill="#FFCC33"/>
<path d="M96.8265 119.266V135.216L83.0615 127.241V111.29L96.8265 119.266Z" fill="#3399FF"/>
<path d="M110.597 111.292L96.8265 103.311L83.0615 111.292" stroke="#1A1A1A" stroke-width="0.52538" stroke-miterlimit="10"/>
<path d="M96.8276 119.266L110.598 111.29V127.241L96.8276 135.216" stroke="#1A1A1A" stroke-width="0.52538" stroke-miterlimit="10"/>
<path d="M83.0615 111.29V127.241L96.8265 135.216V119.266L83.0615 111.29Z" stroke="#1A1A1A" stroke-width="0.52538" stroke-miterlimit="10"/>
<path d="M69.3 39.2789V55.2295L55.5298 63.2047V47.2542L69.3 39.2789Z" fill="#33FF66"/>
<path d="M69.2993 39.2804L55.5291 47.2557L41.7642 39.2804L55.5291 31.2999L69.2993 39.2804Z" fill="#FFCC33"/>
<path d="M55.5291 47.2542V63.2047L41.7642 55.2295V39.2789L55.5291 47.2542Z" fill="#3399FF"/>
<path d="M69.2993 39.2804L55.5291 31.2999L41.7642 39.2804" stroke="#1A1A1A" stroke-width="0.52538" stroke-miterlimit="10"/>
<path d="M55.5298 47.2542L69.3 39.2789V55.2295L55.5298 63.2047" stroke="#1A1A1A" stroke-width="0.52538" stroke-miterlimit="10"/>
<path d="M41.7642 39.2789V55.2295L55.5291 63.2047V47.2542L41.7642 39.2789Z" stroke="#1A1A1A" stroke-width="0.52538" stroke-miterlimit="10"/>
<path d="M124.658 135.263V151.213L110.888 159.189V143.238L124.658 135.263Z" fill="#33FF66"/>
<path d="M124.657 135.264L110.887 143.24L97.1221 135.264L110.887 127.284L124.657 135.264Z" fill="#FFCC33"/>
<path d="M110.887 143.238V159.189L97.1221 151.213V135.263L110.887 143.238Z" fill="#3399FF"/>
<path d="M124.657 135.264L110.887 127.284L97.1221 135.264" stroke="#1A1A1A" stroke-width="0.52538" stroke-miterlimit="10"/>
<path d="M110.888 143.238L124.658 135.263V151.213L110.888 159.189" stroke="#1A1A1A" stroke-width="0.52538" stroke-miterlimit="10"/>
<path d="M97.1221 135.263V151.213L110.887 159.189V143.238L97.1221 135.263Z" stroke="#1A1A1A" stroke-width="0.52538" stroke-miterlimit="10"/>
<path d="M124.658 119.317V135.267L110.888 143.242V127.292L124.658 119.317Z" fill="#33FF66"/>
<path d="M124.657 119.306L110.887 127.282L97.1221 119.306L110.887 111.326L124.657 119.306Z" fill="#FFCC33"/>
<path d="M110.887 127.292V143.242L97.1221 135.267V119.317L110.887 127.292Z" fill="#3399FF"/>
<path d="M124.657 119.306L110.887 111.326L97.1221 119.306" stroke="#1A1A1A" stroke-width="0.52538" stroke-miterlimit="10"/>
<path d="M110.888 127.292L124.658 119.317V135.267L110.888 143.242" stroke="#1A1A1A" stroke-width="0.52538" stroke-miterlimit="10"/>
<path d="M97.1221 119.317V135.267L110.887 143.242V127.292L97.1221 119.317Z" stroke="#1A1A1A" stroke-width="0.52538" stroke-miterlimit="10"/>
<path d="M124.658 103.37V119.316L110.888 127.296V111.34L124.658 103.37Z" fill="#33FF66"/>
<path d="M124.657 103.36L110.887 111.33L97.1221 103.36L110.887 95.3795L124.657 103.36Z" fill="#FFCC33"/>
<path d="M110.887 111.34V127.296L97.1221 119.316V103.37L110.887 111.34Z" fill="#3399FF"/>
<path d="M124.657 103.36L110.887 95.3795L97.1221 103.36" stroke="#1A1A1A" stroke-width="0.52538" stroke-miterlimit="10"/>
<path d="M110.888 111.34L124.658 103.37V119.316L110.888 127.296" stroke="#1A1A1A" stroke-width="0.52538" stroke-miterlimit="10"/>
<path d="M97.1221 103.37V119.316L110.887 127.296V111.34L97.1221 103.37Z" stroke="#1A1A1A" stroke-width="0.52538" stroke-miterlimit="10"/>
<path d="M124.658 87.4122V103.363L110.888 111.338V95.3875L124.658 87.4122Z" fill="#33FF66"/>
<path d="M124.657 87.402L110.887 95.3773L97.1221 87.402L110.887 79.4215L124.657 87.402Z" fill="#FFCC33"/>
<path d="M110.887 95.3875V111.338L97.1221 103.363V87.4122L110.887 95.3875Z" fill="#3399FF"/>
<path d="M124.657 87.402L110.887 79.4215L97.1221 87.402" stroke="#1A1A1A" stroke-width="0.52538" stroke-miterlimit="10"/>
<path d="M110.888 95.3875L124.658 87.4122V103.363L110.888 111.338" stroke="#1A1A1A" stroke-width="0.52538" stroke-miterlimit="10"/>
<path d="M97.1221 87.4122V103.363L110.887 111.338V95.3875L97.1221 87.4122Z" stroke="#1A1A1A" stroke-width="0.52538" stroke-miterlimit="10"/>
<path d="M124.658 71.4542V87.4048L110.888 95.3853V79.4347L124.658 71.4542Z" fill="#33FF66"/>
<path d="M124.657 71.4557L110.887 79.4363L97.1221 71.4557L110.887 63.4752L124.657 71.4557Z" fill="#FFCC33"/>
<path d="M110.887 79.4347V95.3853L97.1221 87.4048V71.4542L110.887 79.4347Z" fill="#3399FF"/>
<path d="M124.657 71.4557L110.887 63.4752L97.1221 71.4557" stroke="#1A1A1A" stroke-width="0.52538" stroke-miterlimit="10"/>
<path d="M110.888 79.4347L124.658 71.4542V87.4048L110.888 95.3853" stroke="#1A1A1A" stroke-width="0.52538" stroke-miterlimit="10"/>
<path d="M97.1221 71.4542V87.4048L110.887 95.3853V79.4347L97.1221 71.4542Z" stroke="#1A1A1A" stroke-width="0.52538" stroke-miterlimit="10"/>
</g>
<g clip-path="url(#clip8_4988_124771)">
<path d="M27.8005 47.6989V63.6494L14.0303 71.6247V55.6741L27.8005 47.6989Z" fill="#33FF66"/>
<path d="M27.7876 47.6886L14.0174 55.6639L0.252441 47.6886L14.0174 39.7081L27.7876 47.6886Z" fill="#FFCC33"/>
<path d="M14.0174 55.6741V71.6247L0.252441 63.6494V47.6989L14.0174 55.6741Z" fill="#3399FF"/>
<path d="M27.7876 47.6886L14.0174 39.7081L0.252441 47.6886" stroke="#1A1A1A" stroke-width="0.52538" stroke-miterlimit="10"/>
<path d="M14.0303 55.6741L27.8005 47.6989V63.6494L14.0303 71.6247" stroke="#1A1A1A" stroke-width="0.52538" stroke-miterlimit="10"/>
<path d="M0.252441 47.6989V63.6494L14.0174 71.6247V55.6741L0.252441 47.6989Z" stroke="#1A1A1A" stroke-width="0.52538" stroke-miterlimit="10"/>
<path d="M27.8005 111.448V127.399L14.0303 135.374V119.424L27.8005 111.448Z" fill="#33FF66"/>
<path d="M27.7876 111.45L14.0174 119.425L0.252441 111.45L14.0174 103.469L27.7876 111.45Z" fill="#FFCC33"/>
<path d="M14.0174 119.424V135.374L0.252441 127.399V111.448L14.0174 119.424Z" fill="#3399FF"/>
<path d="M27.7876 111.45L14.0174 103.469L0.252441 111.45" stroke="#1A1A1A" stroke-width="0.52538" stroke-miterlimit="10"/>
<path d="M14.0303 119.424L27.8005 111.448V127.399L14.0303 135.374" stroke="#1A1A1A" stroke-width="0.52538" stroke-miterlimit="10"/>
<path d="M0.252441 111.448V127.399L14.0174 135.374V119.424L0.252441 111.448Z" stroke="#1A1A1A" stroke-width="0.52538" stroke-miterlimit="10"/>
<path d="M41.5544 119.427V135.378L27.7842 143.353V127.403L41.5544 119.427Z" fill="#33FF66"/>
<path d="M41.5654 119.429L27.7952 127.404L14.0303 119.429L27.7952 111.448L41.5654 119.429Z" fill="#FFCC33"/>
<path d="M27.7952 127.403V143.353L14.0303 135.378V119.427L27.7952 127.403Z" fill="#3399FF"/>
<path d="M41.5654 119.429L27.7952 111.448L14.0303 119.429" stroke="#1A1A1A" stroke-width="0.52538" stroke-miterlimit="10"/>
<path d="M27.7842 127.403L41.5544 119.427V135.378L27.7842 143.353" stroke="#1A1A1A" stroke-width="0.52538" stroke-miterlimit="10"/>
<path d="M14.0303 119.427V135.378L27.7952 143.353V127.403L14.0303 119.427Z" stroke="#1A1A1A" stroke-width="0.52538" stroke-miterlimit="10"/>
<path d="M55.32 127.406V143.357L41.5498 151.332V135.382L55.32 127.406Z" fill="#33FF66"/>
<path d="M55.3193 127.408L41.5491 135.383L27.7842 127.408L41.5491 119.427L55.3193 127.408Z" fill="#FFCC33"/>
<path d="M41.5491 135.382V151.332L27.7842 143.357V127.406L41.5491 135.382Z" fill="#3399FF"/>
<path d="M55.3193 127.408L41.5491 119.427L27.7842 127.408" stroke="#1A1A1A" stroke-width="0.52538" stroke-miterlimit="10"/>
<path d="M41.5498 135.382L55.32 127.406V143.357L41.5498 151.332" stroke="#1A1A1A" stroke-width="0.52538" stroke-miterlimit="10"/>
<path d="M27.7842 127.406V143.357L41.5491 151.332V135.382L27.7842 127.406Z" stroke="#1A1A1A" stroke-width="0.52538" stroke-miterlimit="10"/>
<path d="M41.5544 103.528V119.479L27.7842 127.454V111.504L41.5544 103.528Z" fill="#33FF66"/>
<path d="M41.5654 103.53L27.7952 111.505L14.0303 103.53L27.7952 95.5494L41.5654 103.53Z" fill="#FFCC33"/>
<path d="M27.7952 111.504V127.454L14.0303 119.479V103.528L27.7952 111.504Z" fill="#3399FF"/>
<path d="M41.5654 103.53L27.7952 95.5494L14.0303 103.53" stroke="#1A1A1A" stroke-width="0.52538" stroke-miterlimit="10"/>
<path d="M27.7842 111.504L41.5544 103.528V119.479L27.7842 127.454" stroke="#1A1A1A" stroke-width="0.52538" stroke-miterlimit="10"/>
<path d="M14.0303 103.528V119.479L27.7952 127.454V111.504L14.0303 103.528Z" stroke="#1A1A1A" stroke-width="0.52538" stroke-miterlimit="10"/>
<path d="M41.5544 87.5704V103.521L27.7842 111.496V95.5457L41.5544 87.5704Z" fill="#33FF66"/>
<path d="M41.5654 87.5719L27.7952 95.5472L14.0303 87.5719L27.7952 79.5914L41.5654 87.5719Z" fill="#FFCC33"/>
<path d="M27.7952 95.5457V111.496L14.0303 103.521V87.5704L27.7952 95.5457Z" fill="#3399FF"/>
<path d="M41.5654 87.5719L27.7952 79.5914L14.0303 87.5719" stroke="#1A1A1A" stroke-width="0.52538" stroke-miterlimit="10"/>
<path d="M27.7842 95.5457L41.5544 87.5704V103.521L27.7842 111.496" stroke="#1A1A1A" stroke-width="0.52538" stroke-miterlimit="10"/>
<path d="M14.0303 87.5704V103.521L27.7952 111.496V95.5457L14.0303 87.5704Z" stroke="#1A1A1A" stroke-width="0.52538" stroke-miterlimit="10"/>
<path d="M41.5544 71.3295V87.28L27.7842 95.2553V79.3047L41.5544 71.3295Z" fill="#33FF66"/>
<path d="M41.5654 71.3193L27.7952 79.2945L14.0303 71.3193L27.7952 63.3387L41.5654 71.3193Z" fill="#FFCC33"/>
<path d="M27.7952 79.3047V95.2553L14.0303 87.28V71.3295L27.7952 79.3047Z" fill="#3399FF"/>
<path d="M41.5654 71.3193L27.7952 63.3387L14.0303 71.3193" stroke="#1A1A1A" stroke-width="0.52538" stroke-miterlimit="10"/>
<path d="M27.7842 79.3047L41.5544 71.3295V87.28L27.7842 95.2553" stroke="#1A1A1A" stroke-width="0.52538" stroke-miterlimit="10"/>
<path d="M14.0303 71.3295V87.28L27.7952 95.2553V79.3047L14.0303 71.3295Z" stroke="#1A1A1A" stroke-width="0.52538" stroke-miterlimit="10"/>
<path d="M41.5544 55.6779V71.6284L27.7842 79.6037V63.6531L41.5544 55.6779Z" fill="#33FF66"/>
<path d="M41.5654 55.6677L27.7952 63.6429L14.0303 55.6677L27.7952 47.6871L41.5654 55.6677Z" fill="#FFCC33"/>
<path d="M27.7952 63.6531V79.6037L14.0303 71.6284V55.6779L27.7952 63.6531Z" fill="#3399FF"/>
<path d="M41.5654 55.6677L27.7952 47.6871L14.0303 55.6677" stroke="#1A1A1A" stroke-width="0.52538" stroke-miterlimit="10"/>
<path d="M27.7842 63.6531L41.5544 55.6779V71.6284L27.7842 79.6037" stroke="#1A1A1A" stroke-width="0.52538" stroke-miterlimit="10"/>
<path d="M14.0303 55.6779V71.6284L27.7952 79.6037V63.6531L14.0303 55.6779Z" stroke="#1A1A1A" stroke-width="0.52538" stroke-miterlimit="10"/>
<path d="M55.32 63.6451V79.5957L41.5498 87.5709V71.6204L55.32 63.6451Z" fill="#33FF66"/>
<path d="M55.3193 63.6467L41.5491 71.6219L27.7842 63.6467L41.5491 55.6661L55.3193 63.6467Z" fill="#FFCC33"/>
<path d="M41.5491 71.6204V87.5709L27.7842 79.5957V63.6451L41.5491 71.6204Z" fill="#3399FF"/>
<path d="M55.3193 63.6467L41.5491 55.6661L27.7842 63.6467" stroke="#1A1A1A" stroke-width="0.52538" stroke-miterlimit="10"/>
<path d="M41.5498 71.6204L55.32 63.6451V79.5957L41.5498 87.5709" stroke="#1A1A1A" stroke-width="0.52538" stroke-miterlimit="10"/>
<path d="M27.7842 63.6451V79.5957L41.5491 87.5709V71.6204L27.7842 63.6451Z" stroke="#1A1A1A" stroke-width="0.52538" stroke-miterlimit="10"/>
</g>
<defs>
<clipPath id="clip0_4988_124771">
<rect width="55.5957" height="112.379" fill="white" transform="translate(345.699 46.7662)"/>
</clipPath>
<clipPath id="clip1_4988_124771">
<rect width="82.9259" height="104.398" fill="white" transform="translate(276.87 46.7662)"/>
</clipPath>
<clipPath id="clip2_4988_124771">
<rect width="55.5957" height="112.379" fill="white" transform="translate(235.36 64.6218)"/>
</clipPath>
<clipPath id="clip3_4988_124771">
<rect width="55.5957" height="112.379" fill="white" transform="translate(207.521 32.576)"/>
</clipPath>
<clipPath id="clip4_4988_124771">
<rect width="55.5957" height="112.379" fill="white" transform="translate(166.012 55.1696)"/>
</clipPath>
<clipPath id="clip5_4988_124771">
<rect width="83.1309" height="112.205" fill="white" transform="translate(124.514)"/>
</clipPath>
<clipPath id="clip6_4988_124771">
<rect width="83.1361" height="120.328" fill="white" transform="translate(96.6641 47.8152)"/>
</clipPath>
<clipPath id="clip7_4988_124771">
<rect width="83.4198" height="128.65" fill="white" transform="translate(41.5063 30.9967)"/>
</clipPath>
<clipPath id="clip8_4988_124771">
<rect width="55.5957" height="112.379" fill="white" transform="translate(-0.00341797 39.4)"/>
</clipPath>
</defs>
</svg>
