<svg width="361" height="361" viewBox="0 0 361 361" fill="none" xmlns="http://www.w3.org/2000/svg">
<g clip-path="url(#clip0_4739_39910)">
<rect width="360" height="360" transform="translate(0.140625 0.98584)" fill="white"/>
<rect width="180" height="180" transform="translate(0.140625 1.38989)" fill="#FFF3E4"/>
<path d="M96.9922 57.187L99.5284 43.0928" stroke="#201D1E" stroke-width="6.41304" stroke-linecap="square"/>
<path d="M108.659 52.187L99.818 41.3899L87.7891 48.4189" stroke="#201D1E" stroke-width="6.41304" stroke-linecap="square" stroke-linejoin="round"/>
<path d="M86.4141 117.332L88.8778 103.238" stroke="#201D1E" stroke-width="6.41304" stroke-linecap="square"/>
<path d="M98.0816 112.296L89.1685 101.535L77.1758 108.6" stroke="#201D1E" stroke-width="6.41304" stroke-linecap="square" stroke-linejoin="round"/>
<path d="M91.5195 88.274L93.9833 74.1798" stroke="#201D1E" stroke-width="6.41304" stroke-linecap="square"/>
<path d="M103.186 83.2376L94.3091 72.5129L82.3164 79.5419" stroke="#201D1E" stroke-width="6.41304" stroke-linecap="square" stroke-linejoin="round"/>
<path d="M83.187 141.39C86.4487 141.39 89.0928 138.746 89.0928 135.484C89.0928 132.222 86.4487 129.578 83.187 129.578C79.9254 129.578 77.2812 132.222 77.2812 135.484C77.2812 138.746 79.9254 141.39 83.187 141.39Z" fill="#201D1E"/>
<path d="M66.4505 116.1L55.6172 123.636" stroke="#201D1E" stroke-width="6.08695" stroke-linecap="square"/>
<path d="M67.1023 128.31L54.3125 124.542L55.2545 111.245" stroke="#201D1E" stroke-width="6.08695" stroke-linecap="square" stroke-linejoin="round"/>
<path d="M105.797 123.165L113.333 134.035" stroke="#201D1E" stroke-width="6.08695" stroke-linecap="square"/>
<path d="M100.938 134.397L114.235 135.303L118.003 122.586" stroke="#201D1E" stroke-width="6.08695" stroke-linecap="square" stroke-linejoin="round"/>
<path d="M118.148 101.1L131.409 103.492" stroke="#201D1E" stroke-width="6.23188" stroke-linecap="square"/>
<path d="M122.715 112.731L133.005 103.781L126.519 91.8611" stroke="#201D1E" stroke-width="6.23188" stroke-linecap="square" stroke-linejoin="round"/>
<path d="M114.273 74.7958L126.085 68.274" stroke="#201D1E" stroke-width="6.23188" stroke-linecap="square"/>
<path d="M114.93 62.2957L127.502 67.513L125.147 80.8826" stroke="#201D1E" stroke-width="6.23188" stroke-linecap="square" stroke-linejoin="round"/>
<path d="M62.1682 91.245L48.8711 88.9261" stroke="#201D1E" stroke-width="6.23188" stroke-linecap="square"/>
<path d="M53.8754 100.593L47.2812 88.6725L57.4624 79.687" stroke="#201D1E" stroke-width="6.23188" stroke-linecap="square" stroke-linejoin="round"/>
<path d="M74.7791 67.8028L65.9023 57.6578" stroke="#201D1E" stroke-width="6.23188" stroke-linecap="square"/>
<path d="M78.4392 55.8827L64.8522 56.4624L62.4609 69.832" stroke="#201D1E" stroke-width="6.23188" stroke-linecap="square" stroke-linejoin="round"/>
<rect width="180" height="180" transform="translate(180.141 181.39)" fill="#ECEBFF"/>
<mask id="mask0_4739_39910" style="mask-type:luminance" maskUnits="userSpaceOnUse" x="220" y="221" width="101" height="101">
<path d="M320.137 221.39H220.137V321.39H320.137V221.39Z" fill="white"/>
</mask>
<g mask="url(#mask0_4739_39910)">
<path fill-rule="evenodd" clip-rule="evenodd" d="M252.535 280.931C255.227 280.931 260.581 280.783 267.982 277.736C276.606 274.185 293.764 267.739 306.141 261.119C314.798 256.488 318.593 250.364 318.593 242.116C318.593 230.669 309.313 221.39 297.867 221.39H249.907C233.465 221.39 220.137 234.719 220.137 251.16C220.137 267.602 232.616 280.931 252.535 280.931Z" fill="#39594D"/>
<path fill-rule="evenodd" clip-rule="evenodd" d="M260.645 301.431C260.645 293.372 265.496 286.105 272.94 283.016L288.044 276.748C303.321 270.407 320.136 281.634 320.136 298.175C320.136 310.99 309.746 321.378 296.93 321.374L280.578 321.37C269.568 321.367 260.645 312.441 260.645 301.431Z" fill="#D18EE2"/>
<path d="M237.298 284.855C227.82 284.855 220.137 292.538 220.137 302.016V304.239C220.137 313.717 227.82 321.401 237.298 321.401C246.776 321.401 254.46 313.717 254.46 304.239V302.016C254.46 292.538 246.776 284.855 237.298 284.855Z" fill="#FF7759"/>
</g>
<rect width="180" height="180" transform="translate(0.140625 181.39)" fill="#F7F7F7"/>
<path d="M83.576 220.977C72.6374 220.977 62.9192 228.02 59.5318 238.416C56.0556 239.133 52.7718 240.582 49.899 242.666C47.0262 244.751 44.6304 247.423 42.8708 250.506C37.3848 259.987 38.6375 271.907 45.987 280.035C43.718 286.842 44.4967 294.291 48.1205 300.455C53.573 309.97 64.5439 314.847 75.2797 312.578C77.6302 315.231 80.5194 317.352 83.7544 318.8C86.9895 320.248 90.4961 320.99 94.0405 320.976C104.979 320.976 114.697 313.932 118.085 303.536C125.128 302.08 131.19 297.677 134.712 291.447C140.232 281.965 138.979 270.045 131.631 261.918V261.884C132.752 258.52 133.141 254.954 132.773 251.427C132.405 247.9 131.288 244.491 129.497 241.431C124.044 231.949 113.071 227.071 102.37 229.34C100.009 226.694 97.1122 224.58 93.8721 223.138C90.6319 221.696 87.1224 220.96 83.576 220.977ZM83.576 227.479L83.5424 227.513C87.9449 227.513 92.1782 229.036 95.5644 231.848C95.4288 231.915 95.1577 232.084 94.9549 232.186L75.0433 243.666C74.0269 244.242 73.4174 245.325 73.4174 246.511V273.466L64.8499 268.522V246.24C64.848 241.269 66.8191 236.502 70.3303 232.984C73.8415 229.466 78.6056 227.487 83.576 227.479ZM107.562 235.326C110.862 235.32 114.105 236.185 116.963 237.834C119.822 239.482 122.194 241.856 123.841 244.716C126.008 248.509 126.82 252.945 126.075 257.246C125.939 257.144 125.669 257.009 125.499 256.907L105.587 245.393C105.086 245.109 104.521 244.96 103.945 244.96C103.37 244.96 102.804 245.109 102.303 245.393L78.9706 258.87V248.982L98.2391 237.84C101.072 236.198 104.288 235.332 107.562 235.326ZM58.3139 245.562V269.233C58.3139 270.418 58.9235 271.468 59.9398 272.078L83.2376 285.522L74.6353 290.499L55.4005 279.391C51.1019 276.9 47.9675 272.805 46.6852 268.005C45.4028 263.205 46.0774 258.093 48.5609 253.79C50.7517 249.992 54.202 247.082 58.3139 245.562ZM102.946 251.42L122.215 262.528C131.189 267.709 134.236 279.155 129.054 288.129L129.088 288.163C126.887 291.956 123.433 294.868 119.335 296.358V272.686C119.335 271.501 118.725 270.417 117.709 269.842L94.3777 256.364L102.946 251.42ZM88.7908 259.582L98.6122 265.271V276.615L88.7908 282.304L78.9706 276.615V265.271L88.7908 259.582ZM104.233 268.522L112.8 273.466V295.715C112.8 306.078 104.402 314.476 94.0741 314.476V314.442C89.7052 314.442 85.4382 312.919 82.0856 310.108C82.2212 310.041 82.526 309.871 82.6952 309.769L102.607 298.289C103.623 297.713 104.266 296.63 104.232 295.444L104.233 268.522ZM98.6446 283.084V292.971L79.3762 304.079C70.402 309.226 58.9559 306.179 53.7746 297.238H53.8082C51.6075 293.479 50.8276 289.009 51.5727 284.708C51.7083 284.81 51.9795 284.945 52.1487 285.047L72.0603 296.561C72.5612 296.844 73.1269 296.993 73.7024 296.993C74.2778 296.993 74.8435 296.844 75.3445 296.561L98.6446 283.084Z" fill="#1D2433"/>
<rect width="180" height="180" transform="translate(180.141 1.38989)" fill="#F4FBFF"/>
<path d="M235.013 141.158L209.354 96.7128C208.367 95.0041 207.848 93.0657 207.848 91.0926C207.848 89.1195 208.367 87.1812 209.354 85.4724L235.013 41.0279C236 39.3189 237.419 37.8998 239.128 36.9131C240.837 35.9265 242.776 35.4071 244.749 35.4072H296.069C298.042 35.4073 299.98 35.9267 301.689 36.9134C303.398 37.9 304.817 39.3191 305.804 41.0279L331.463 85.4724C332.45 87.1813 332.97 89.1198 332.97 91.0931C332.97 93.0664 332.45 95.0049 331.463 96.7138L305.804 141.158C304.817 142.867 303.398 144.286 301.689 145.272C299.98 146.259 298.042 146.778 296.069 146.778H244.749C242.776 146.778 240.837 146.259 239.128 145.272C237.419 144.286 236 142.866 235.013 141.157V141.158Z" fill="url(#paint0_linear_4739_39910)"/>
<path d="M323.297 109.041L285.958 73.4935L270.029 69.2307L255.721 74.5484L250.195 88.9445L254.638 104.973L294.821 145.653H298.889L302.186 143.828L303.974 142.602L306.008 139.551L323.297 109.041Z" fill="#417CE0"/>
<path d="M270.712 69.1913C258.439 69.1913 248.488 79.1416 248.488 91.4164C248.488 103.69 258.439 113.641 270.712 113.641C282.986 113.641 292.936 103.69 292.936 91.4164C292.936 79.1416 282.985 69.1913 270.712 69.1913ZM270.712 108.279C261.399 108.279 253.849 100.729 253.849 91.4154C253.849 82.1023 261.399 74.5531 270.712 74.5531C280.026 74.5531 287.576 82.1032 287.576 91.4164C287.576 100.73 280.026 108.28 270.712 108.28" fill="white"/>
<path d="M260.164 90.5579V97.4661C261.186 99.2209 262.628 100.694 264.361 101.754V90.5579H260.164ZM268.486 84.7344V103.333C269.199 103.464 269.929 103.544 270.68 103.544C271.364 103.544 272.031 103.472 272.685 103.362V84.7344H268.486ZM277.196 93.4285V101.632C278.956 100.513 280.401 98.9629 281.395 97.1288V93.4295L277.196 93.4285ZM286.706 105.105L284.403 107.41C284.208 107.605 284.099 107.87 284.099 108.146C284.099 108.422 284.208 108.687 284.403 108.882L293.137 117.613C293.332 117.808 293.597 117.917 293.873 117.917C294.149 117.917 294.414 117.808 294.609 117.613L296.912 115.311C297.106 115.116 297.214 114.851 297.214 114.576C297.214 114.3 297.106 114.036 296.912 113.84L288.177 105.105C287.982 104.911 287.717 104.802 287.442 104.802C287.166 104.802 286.901 104.911 286.706 105.105Z" fill="white"/>
</g>
<defs>
<linearGradient id="paint0_linear_4739_39910" x1="270.409" y1="35.4082" x2="270.409" y2="146.605" gradientUnits="userSpaceOnUse">
<stop stop-color="#4387FD"/>
<stop offset="1" stop-color="#4683EA"/>
</linearGradient>
<clipPath id="clip0_4739_39910">
<rect width="360" height="360" fill="white" transform="translate(0.140625 0.98584)"/>
</clipPath>
</defs>
</svg>
