<svg width="346" height="346" viewBox="0 0 346 346" fill="none" xmlns="http://www.w3.org/2000/svg">
<rect width="115.315" height="115.271" transform="translate(0.621094 0.218323)" fill="#FFF3E4"/>
<path d="M62.3906 22.332L63.9124 13.8755" stroke="#201D1E" stroke-width="3.84782" stroke-linecap="square"/>
<path d="M69.3889 19.332L64.0846 12.8538L56.8672 17.0711" stroke="#201D1E" stroke-width="3.84782" stroke-linecap="square" stroke-linejoin="round"/>
<path d="M56.0391 58.4189L57.5173 49.9624" stroke="#201D1E" stroke-width="3.84782" stroke-linecap="square"/>
<path d="M63.0435 55.3972L57.6956 48.9407L50.5 53.1798" stroke="#201D1E" stroke-width="3.84782" stroke-linecap="square" stroke-linejoin="round"/>
<path d="M59.1055 40.9842L60.5837 32.5277" stroke="#201D1E" stroke-width="3.84782" stroke-linecap="square"/>
<path d="M66.1077 37.9624L60.7816 31.5276L53.5859 35.745" stroke="#201D1E" stroke-width="3.84782" stroke-linecap="square" stroke-linejoin="round"/>
<path d="M54.106 72.8538C56.063 72.8538 57.6494 71.2673 57.6494 69.3103C57.6494 67.3533 56.063 65.7668 54.106 65.7668C52.149 65.7668 50.5625 67.3533 50.5625 69.3103C50.5625 71.2673 52.149 72.8538 54.106 72.8538Z" fill="#201D1E"/>
<path d="M44.0625 57.6798L37.5625 62.2015" stroke="#201D1E" stroke-width="3.65217" stroke-linecap="square"/>
<path d="M44.4551 65.0058L36.7812 62.745L37.3465 54.7667" stroke="#201D1E" stroke-width="3.65217" stroke-linecap="square" stroke-linejoin="round"/>
<path d="M67.6719 61.9191L72.1936 68.4408" stroke="#201D1E" stroke-width="3.65217" stroke-linecap="square"/>
<path d="M64.7578 68.6581L72.7361 69.2015L74.9969 61.5711" stroke="#201D1E" stroke-width="3.65217" stroke-linecap="square" stroke-linejoin="round"/>
<path d="M75.082 48.68L83.0385 50.1148" stroke="#201D1E" stroke-width="3.73912" stroke-linecap="square"/>
<path d="M77.8203 55.6581L83.9942 50.2886L80.1029 43.1364" stroke="#201D1E" stroke-width="3.73912" stroke-linecap="square" stroke-linejoin="round"/>
<path d="M72.7578 32.8973L79.8448 28.9843" stroke="#201D1E" stroke-width="3.73912" stroke-linecap="square"/>
<path d="M73.1523 25.3972L80.6958 28.5276L79.2828 36.5493" stroke="#201D1E" stroke-width="3.73912" stroke-linecap="square" stroke-linejoin="round"/>
<path d="M41.4939 42.7668L33.5156 41.3755" stroke="#201D1E" stroke-width="3.73912" stroke-linecap="square"/>
<path d="M36.519 48.3754L32.5625 41.2233L38.6712 35.832" stroke="#201D1E" stroke-width="3.73912" stroke-linecap="square" stroke-linejoin="round"/>
<path d="M49.0605 28.7015L43.7344 22.6145" stroke="#201D1E" stroke-width="3.73912" stroke-linecap="square"/>
<path d="M51.2588 21.5494L43.1067 21.8973L41.6719 29.919" stroke="#201D1E" stroke-width="3.73912" stroke-linecap="square" stroke-linejoin="round"/>
<path d="M17.4973 100.854V86.8938H23.4973C24.7907 86.8938 25.7907 87.2738 26.4973 88.0338C27.204 88.7938 27.5573 89.8138 27.5573 91.0938C27.5573 92.3738 27.204 93.3938 26.4973 94.1538C25.7907 94.9138 24.7907 95.2938 23.4973 95.2938H19.7573V100.854H17.4973ZM19.7573 93.3138H23.3573C23.9307 93.3138 24.3773 93.1671 24.6973 92.8738C25.0173 92.5671 25.1773 92.1338 25.1773 91.5738V90.6138C25.1773 90.0538 25.0173 89.6271 24.6973 89.3338C24.3773 89.0271 23.9307 88.8738 23.3573 88.8738H19.7573V93.3138ZM30.9764 88.5938C30.5231 88.5938 30.1897 88.4871 29.9764 88.2738C29.7764 88.0604 29.6764 87.7871 29.6764 87.4538V87.1138C29.6764 86.7804 29.7764 86.5071 29.9764 86.2938C30.1897 86.0804 30.5231 85.9738 30.9764 85.9738C31.4297 85.9738 31.7564 86.0804 31.9564 86.2938C32.1564 86.5071 32.2564 86.7804 32.2564 87.1138V87.4538C32.2564 87.7871 32.1564 88.0604 31.9564 88.2738C31.7564 88.4871 31.4297 88.5938 30.9764 88.5938ZM29.8764 90.4538H32.0564V100.854H29.8764V90.4538ZM35.1694 100.854V90.4538H37.3494V92.1738H37.4494C37.676 91.6138 38.016 91.1471 38.4694 90.7738C38.936 90.4004 39.5694 90.2138 40.3694 90.2138C41.436 90.2138 42.2627 90.5671 42.8494 91.2738C43.4494 91.9671 43.7494 92.9604 43.7494 94.2538V100.854H41.5694V94.5338C41.5694 92.9071 40.916 92.0938 39.6094 92.0938C39.3294 92.0938 39.0494 92.1338 38.7694 92.2138C38.5027 92.2804 38.2627 92.3871 38.0494 92.5338C37.836 92.6804 37.6627 92.8671 37.5294 93.0938C37.4094 93.3204 37.3494 93.5871 37.3494 93.8938V100.854H35.1694ZM50.8509 101.094C50.1043 101.094 49.4376 100.967 48.8509 100.714C48.2643 100.46 47.7643 100.1 47.3509 99.6338C46.9376 99.1538 46.6176 98.5804 46.3909 97.9138C46.1776 97.2338 46.0709 96.4804 46.0709 95.6538C46.0709 94.8271 46.1776 94.0804 46.3909 93.4138C46.6176 92.7338 46.9376 92.1604 47.3509 91.6938C47.7643 91.2138 48.2643 90.8471 48.8509 90.5938C49.4376 90.3404 50.1043 90.2138 50.8509 90.2138C51.6109 90.2138 52.2776 90.3471 52.8509 90.6138C53.4376 90.8804 53.9243 91.2538 54.3109 91.7338C54.6976 92.2004 54.9843 92.7471 55.1709 93.3738C55.3709 94.0004 55.4709 94.6738 55.4709 95.3938V96.2138H48.3309V96.5538C48.3309 97.3538 48.5643 98.0138 49.0309 98.5338C49.5109 99.0404 50.1909 99.2938 51.0709 99.2938C51.7109 99.2938 52.2509 99.1538 52.6909 98.8738C53.1309 98.5938 53.5043 98.2138 53.8109 97.7338L55.0909 98.9938C54.7043 99.6338 54.1443 100.147 53.4109 100.534C52.6776 100.907 51.8243 101.094 50.8509 101.094ZM50.8509 91.9138C50.4776 91.9138 50.1309 91.9804 49.8109 92.1138C49.5043 92.2471 49.2376 92.4338 49.0109 92.6738C48.7976 92.9138 48.6309 93.2004 48.5109 93.5338C48.3909 93.8671 48.3309 94.2338 48.3309 94.6338V94.7738H53.1709V94.5738C53.1709 93.7738 52.9643 93.1338 52.5509 92.6538C52.1376 92.1604 51.5709 91.9138 50.8509 91.9138ZM61.9042 101.094C61.1576 101.094 60.4909 100.967 59.9042 100.714C59.3176 100.46 58.8242 100.1 58.4242 99.6338C58.0242 99.1538 57.7176 98.5804 57.5042 97.9138C57.2909 97.2338 57.1842 96.4804 57.1842 95.6538C57.1842 94.8271 57.2909 94.0804 57.5042 93.4138C57.7176 92.7338 58.0242 92.1604 58.4242 91.6938C58.8242 91.2138 59.3176 90.8471 59.9042 90.5938C60.4909 90.3404 61.1576 90.2138 61.9042 90.2138C62.9442 90.2138 63.7976 90.4471 64.4642 90.9138C65.1309 91.3804 65.6176 92.0004 65.9242 92.7738L64.1242 93.6138C63.9776 93.1338 63.7176 92.7538 63.3442 92.4738C62.9842 92.1804 62.5042 92.0338 61.9042 92.0338C61.1042 92.0338 60.4976 92.2871 60.0842 92.7938C59.6842 93.2871 59.4842 93.9338 59.4842 94.7338V96.5938C59.4842 97.3938 59.6842 98.0471 60.0842 98.5538C60.4976 99.0471 61.1042 99.2938 61.9042 99.2938C62.5442 99.2938 63.0509 99.1404 63.4242 98.8338C63.8109 98.5138 64.1176 98.0938 64.3442 97.5738L66.0042 98.4538C65.6576 99.3071 65.1376 99.9604 64.4442 100.414C63.7509 100.867 62.9042 101.094 61.9042 101.094ZM72.0423 101.094C71.3223 101.094 70.6623 100.967 70.0623 100.714C69.4757 100.46 68.9757 100.1 68.5623 99.6338C68.149 99.1538 67.829 98.5804 67.6023 97.9138C67.3757 97.2338 67.2623 96.4804 67.2623 95.6538C67.2623 94.8271 67.3757 94.0804 67.6023 93.4138C67.829 92.7338 68.149 92.1604 68.5623 91.6938C68.9757 91.2138 69.4757 90.8471 70.0623 90.5938C70.6623 90.3404 71.3223 90.2138 72.0423 90.2138C72.7623 90.2138 73.4157 90.3404 74.0023 90.5938C74.6023 90.8471 75.109 91.2138 75.5223 91.6938C75.9357 92.1604 76.2557 92.7338 76.4823 93.4138C76.709 94.0804 76.8223 94.8271 76.8223 95.6538C76.8223 96.4804 76.709 97.2338 76.4823 97.9138C76.2557 98.5804 75.9357 99.1538 75.5223 99.6338C75.109 100.1 74.6023 100.46 74.0023 100.714C73.4157 100.967 72.7623 101.094 72.0423 101.094ZM72.0423 99.2938C72.789 99.2938 73.389 99.0671 73.8423 98.6138C74.2957 98.1471 74.5223 97.4538 74.5223 96.5338V94.7738C74.5223 93.8538 74.2957 93.1671 73.8423 92.7138C73.389 92.2471 72.789 92.0138 72.0423 92.0138C71.2957 92.0138 70.6957 92.2471 70.2423 92.7138C69.789 93.1671 69.5623 93.8538 69.5623 94.7738V96.5338C69.5623 97.4538 69.789 98.1471 70.2423 98.6138C70.6957 99.0671 71.2957 99.2938 72.0423 99.2938ZM79.2514 100.854V90.4538H81.4314V92.1738H81.5314C81.7581 91.6138 82.0981 91.1471 82.5514 90.7738C83.0181 90.4004 83.6514 90.2138 84.4514 90.2138C85.5181 90.2138 86.3447 90.5671 86.9314 91.2738C87.5314 91.9671 87.8314 92.9604 87.8314 94.2538V100.854H85.6514V94.5338C85.6514 92.9071 84.9981 92.0938 83.6914 92.0938C83.4114 92.0938 83.1314 92.1338 82.8514 92.2138C82.5847 92.2804 82.3447 92.3871 82.1314 92.5338C81.9181 92.6804 81.7447 92.8671 81.6114 93.0938C81.4914 93.3204 81.4314 93.5871 81.4314 93.8938V100.854H79.2514ZM94.933 101.094C94.1863 101.094 93.5196 100.967 92.933 100.714C92.3463 100.46 91.8463 100.1 91.433 99.6338C91.0196 99.1538 90.6996 98.5804 90.473 97.9138C90.2596 97.2338 90.153 96.4804 90.153 95.6538C90.153 94.8271 90.2596 94.0804 90.473 93.4138C90.6996 92.7338 91.0196 92.1604 91.433 91.6938C91.8463 91.2138 92.3463 90.8471 92.933 90.5938C93.5196 90.3404 94.1863 90.2138 94.933 90.2138C95.693 90.2138 96.3596 90.3471 96.933 90.6138C97.5196 90.8804 98.0063 91.2538 98.393 91.7338C98.7796 92.2004 99.0663 92.7471 99.253 93.3738C99.453 94.0004 99.553 94.6738 99.553 95.3938V96.2138H92.413V96.5538C92.413 97.3538 92.6463 98.0138 93.113 98.5338C93.593 99.0404 94.273 99.2938 95.153 99.2938C95.793 99.2938 96.333 99.1538 96.773 98.8738C97.213 98.5938 97.5863 98.2138 97.893 97.7338L99.173 98.9938C98.7863 99.6338 98.2263 100.147 97.493 100.534C96.7596 100.907 95.9063 101.094 94.933 101.094ZM94.933 91.9138C94.5596 91.9138 94.213 91.9804 93.893 92.1138C93.5863 92.2471 93.3196 92.4338 93.093 92.6738C92.8796 92.9138 92.713 93.2004 92.593 93.5338C92.473 93.8671 92.413 94.2338 92.413 94.6338V94.7738H97.253V94.5738C97.253 93.7738 97.0463 93.1338 96.633 92.6538C96.2196 92.1604 95.653 91.9138 94.933 91.9138Z" fill="#1D2433"/>
<rect width="115.315" height="115.271" transform="translate(230.684 230.109)" fill="#ECEBFF"/>
<mask id="mask0_4982_101588" style="mask-type:luminance" maskUnits="userSpaceOnUse" x="258" y="242" width="61" height="61">
<path d="M318.344 242.743H258.34V302.747H318.344V242.743Z" fill="white"/>
</mask>
<g mask="url(#mask0_4982_101588)">
<path fill-rule="evenodd" clip-rule="evenodd" d="M277.78 278.469C279.395 278.469 282.608 278.381 287.049 276.552C292.223 274.422 302.519 270.554 309.946 266.581C315.14 263.803 317.417 260.128 317.417 255.179C317.417 248.311 311.849 242.743 304.981 242.743H276.203C266.338 242.743 258.34 250.74 258.34 260.606C258.34 270.472 265.828 278.469 277.78 278.469Z" fill="#39594D"/>
<path fill-rule="evenodd" clip-rule="evenodd" d="M282.648 290.77C282.648 285.934 285.56 281.574 290.026 279.721L299.089 275.959C308.256 272.155 318.346 278.891 318.346 288.817C318.346 296.506 312.111 302.739 304.421 302.737L294.609 302.735C288.003 302.733 282.648 297.377 282.648 290.77Z" fill="#D18EE2"/>
<path d="M268.638 280.824C262.95 280.824 258.34 285.434 258.34 291.122V292.456C258.34 298.143 262.95 302.753 268.637 302.753C274.325 302.753 278.935 298.143 278.935 292.456V291.122C278.935 285.434 274.325 280.824 268.638 280.824Z" fill="#FF7759"/>
</g>
<path d="M262.42 330.987C261.673 330.987 261.007 330.86 260.42 330.607C259.833 330.353 259.34 329.993 258.94 329.527C258.54 329.047 258.233 328.473 258.02 327.807C257.807 327.127 257.7 326.373 257.7 325.547C257.7 324.72 257.807 323.973 258.02 323.307C258.233 322.627 258.54 322.053 258.94 321.587C259.34 321.107 259.833 320.74 260.42 320.487C261.007 320.233 261.673 320.107 262.42 320.107C263.46 320.107 264.313 320.34 264.98 320.807C265.647 321.273 266.133 321.893 266.44 322.667L264.64 323.507C264.493 323.027 264.233 322.647 263.86 322.367C263.5 322.073 263.02 321.927 262.42 321.927C261.62 321.927 261.013 322.18 260.6 322.687C260.2 323.18 260 323.827 260 324.627V326.487C260 327.287 260.2 327.94 260.6 328.447C261.013 328.94 261.62 329.187 262.42 329.187C263.06 329.187 263.567 329.033 263.94 328.727C264.327 328.407 264.633 327.987 264.86 327.467L266.52 328.347C266.173 329.2 265.653 329.853 264.96 330.307C264.267 330.76 263.42 330.987 262.42 330.987ZM272.558 330.987C271.838 330.987 271.178 330.86 270.578 330.607C269.991 330.353 269.491 329.993 269.078 329.527C268.665 329.047 268.345 328.473 268.118 327.807C267.891 327.127 267.778 326.373 267.778 325.547C267.778 324.72 267.891 323.973 268.118 323.307C268.345 322.627 268.665 322.053 269.078 321.587C269.491 321.107 269.991 320.74 270.578 320.487C271.178 320.233 271.838 320.107 272.558 320.107C273.278 320.107 273.931 320.233 274.518 320.487C275.118 320.74 275.625 321.107 276.038 321.587C276.451 322.053 276.771 322.627 276.998 323.307C277.225 323.973 277.338 324.72 277.338 325.547C277.338 326.373 277.225 327.127 276.998 327.807C276.771 328.473 276.451 329.047 276.038 329.527C275.625 329.993 275.118 330.353 274.518 330.607C273.931 330.86 273.278 330.987 272.558 330.987ZM272.558 329.187C273.305 329.187 273.905 328.96 274.358 328.507C274.811 328.04 275.038 327.347 275.038 326.427V324.667C275.038 323.747 274.811 323.06 274.358 322.607C273.905 322.14 273.305 321.907 272.558 321.907C271.811 321.907 271.211 322.14 270.758 322.607C270.305 323.06 270.078 323.747 270.078 324.667V326.427C270.078 327.347 270.305 328.04 270.758 328.507C271.211 328.96 271.811 329.187 272.558 329.187ZM279.767 315.947H281.947V322.067H282.047C282.274 321.507 282.614 321.04 283.067 320.667C283.534 320.293 284.167 320.107 284.967 320.107C286.034 320.107 286.86 320.46 287.447 321.167C288.047 321.86 288.347 322.853 288.347 324.147V330.747H286.167V324.407C286.167 322.793 285.514 321.987 284.207 321.987C283.927 321.987 283.647 322.027 283.367 322.107C283.1 322.173 282.86 322.28 282.647 322.427C282.434 322.573 282.26 322.76 282.127 322.987C282.007 323.213 281.947 323.473 281.947 323.767V330.747H279.767V315.947ZM295.449 330.987C294.702 330.987 294.035 330.86 293.449 330.607C292.862 330.353 292.362 329.993 291.949 329.527C291.535 329.047 291.215 328.473 290.989 327.807C290.775 327.127 290.669 326.373 290.669 325.547C290.669 324.72 290.775 323.973 290.989 323.307C291.215 322.627 291.535 322.053 291.949 321.587C292.362 321.107 292.862 320.74 293.449 320.487C294.035 320.233 294.702 320.107 295.449 320.107C296.209 320.107 296.875 320.24 297.449 320.507C298.035 320.773 298.522 321.147 298.909 321.627C299.295 322.093 299.582 322.64 299.769 323.267C299.969 323.893 300.069 324.567 300.069 325.287V326.107H292.929V326.447C292.929 327.247 293.162 327.907 293.629 328.427C294.109 328.933 294.789 329.187 295.669 329.187C296.309 329.187 296.849 329.047 297.289 328.767C297.729 328.487 298.102 328.107 298.409 327.627L299.689 328.887C299.302 329.527 298.742 330.04 298.009 330.427C297.275 330.8 296.422 330.987 295.449 330.987ZM295.449 321.807C295.075 321.807 294.729 321.873 294.409 322.007C294.102 322.14 293.835 322.327 293.609 322.567C293.395 322.807 293.229 323.093 293.109 323.427C292.989 323.76 292.929 324.127 292.929 324.527V324.667H297.769V324.467C297.769 323.667 297.562 323.027 297.149 322.547C296.735 322.053 296.169 321.807 295.449 321.807ZM302.482 330.747V320.347H304.662V322.347H304.762C304.909 321.813 305.215 321.347 305.682 320.947C306.149 320.547 306.795 320.347 307.622 320.347H308.202V322.447H307.342C306.475 322.447 305.809 322.587 305.342 322.867C304.889 323.147 304.662 323.56 304.662 324.107V330.747H302.482ZM314.12 330.987C313.374 330.987 312.707 330.86 312.12 330.607C311.534 330.353 311.034 329.993 310.62 329.527C310.207 329.047 309.887 328.473 309.66 327.807C309.447 327.127 309.34 326.373 309.34 325.547C309.34 324.72 309.447 323.973 309.66 323.307C309.887 322.627 310.207 322.053 310.62 321.587C311.034 321.107 311.534 320.74 312.12 320.487C312.707 320.233 313.374 320.107 314.12 320.107C314.88 320.107 315.547 320.24 316.12 320.507C316.707 320.773 317.194 321.147 317.58 321.627C317.967 322.093 318.254 322.64 318.44 323.267C318.64 323.893 318.74 324.567 318.74 325.287V326.107H311.6V326.447C311.6 327.247 311.834 327.907 312.3 328.427C312.78 328.933 313.46 329.187 314.34 329.187C314.98 329.187 315.52 329.047 315.96 328.767C316.4 328.487 316.774 328.107 317.08 327.627L318.36 328.887C317.974 329.527 317.414 330.04 316.68 330.427C315.947 330.8 315.094 330.987 314.12 330.987ZM314.12 321.807C313.747 321.807 313.4 321.873 313.08 322.007C312.774 322.14 312.507 322.327 312.28 322.567C312.067 322.807 311.9 323.093 311.78 323.427C311.66 323.76 311.6 324.127 311.6 324.527V324.667H316.44V324.467C316.44 323.667 316.234 323.027 315.82 322.547C315.407 322.053 314.84 321.807 314.12 321.807Z" fill="#1D2433"/>
<rect width="115.315" height="115.271" transform="translate(0.621094 230.109)" fill="#F7F7F7"/>
<path d="M55.1397 242.74C48.5755 242.74 42.7436 246.967 40.7109 253.206C38.6248 253.636 36.6542 254.505 34.9302 255.756C33.2063 257.007 31.7686 258.61 30.7127 260.46C27.4205 266.15 28.1723 273.303 32.5827 278.18C31.221 282.265 31.6884 286.736 33.863 290.435C37.135 296.145 43.7186 299.071 50.1611 297.71C51.5717 299.302 53.3054 300.574 55.2468 301.444C57.1881 302.313 59.2924 302.758 61.4194 302.749C67.9836 302.749 73.8155 298.523 75.8482 292.284C80.075 291.41 83.7128 288.768 85.8263 285.029C89.1386 279.339 88.3868 272.186 83.9771 267.309V267.289C84.6498 265.27 84.8835 263.13 84.6627 261.013C84.4419 258.896 83.7717 256.851 82.6968 255.014C79.4241 249.324 72.8398 246.397 66.4182 247.759C65.0011 246.171 63.2627 244.902 61.3183 244.037C59.3739 243.172 57.2679 242.73 55.1397 242.74ZM55.1397 246.642L55.1195 246.662C57.7615 246.662 60.3019 247.577 62.3339 249.264C62.2525 249.304 62.0898 249.406 61.9681 249.467L50.0192 256.356C49.4093 256.701 49.0435 257.352 49.0435 258.063V274.239L43.9022 271.272V257.9C43.9011 254.918 45.084 252.057 47.191 249.945C49.2981 247.834 52.157 246.647 55.1397 246.642ZM69.5339 251.351C71.514 251.348 73.4601 251.867 75.1753 252.856C76.8906 253.845 78.3142 255.27 79.3024 256.986C80.6029 259.262 81.0903 261.924 80.6432 264.505C80.5618 264.444 80.3998 264.363 80.2975 264.302L68.3487 257.392C68.0481 257.222 67.7086 257.133 67.3633 257.133C67.0179 257.133 66.6784 257.222 66.3778 257.392L52.376 265.48V259.546L63.939 252.86C65.6391 251.874 67.5688 251.354 69.5339 251.351ZM39.98 257.494V271.698C39.98 272.41 40.3458 273.04 40.9557 273.406L54.9366 281.473L49.7744 284.46L38.2317 277.795C35.6521 276.3 33.7711 273.842 33.0016 270.962C32.2321 268.081 32.6369 265.013 34.1273 262.431C35.4419 260.152 37.5125 258.406 39.98 257.494ZM66.7638 261.009L78.3267 267.675C83.7121 270.784 85.5404 277.653 82.4311 283.038L82.4513 283.058C81.1307 285.334 79.0576 287.082 76.5985 287.976V273.771C76.5985 273.059 76.2327 272.409 75.6228 272.064L61.6218 263.976L66.7638 261.009ZM58.2691 265.907L64.1629 269.321V276.128L58.2691 279.542L52.376 276.128V269.321L58.2691 265.907ZM67.5357 271.272L72.677 274.239V287.59C72.677 293.809 67.6372 298.849 61.4396 298.849V298.829C58.8178 298.829 56.2572 297.914 54.2453 296.228C54.3267 296.187 54.5096 296.085 54.6111 296.024L66.56 289.135C67.1699 288.789 67.5559 288.139 67.535 287.428L67.5357 271.272ZM64.1823 280.01V285.944L52.6194 292.609C47.234 295.698 40.3652 293.869 37.256 288.504H37.2761C35.9555 286.248 35.4875 283.566 35.9346 280.985C36.016 281.046 36.1787 281.127 36.2803 281.188L48.2291 288.098C48.5297 288.268 48.8692 288.357 49.2146 288.357C49.5599 288.357 49.8994 288.268 50.2 288.098L64.1823 280.01Z" fill="#1D2433"/>
<path d="M29.8973 330.989C28.9907 330.989 28.164 330.836 27.4173 330.529C26.684 330.209 26.0507 329.749 25.5173 329.149C24.9973 328.536 24.5907 327.783 24.2973 326.889C24.0173 325.983 23.8773 324.943 23.8773 323.769C23.8773 322.596 24.0173 321.563 24.2973 320.669C24.5907 319.763 24.9973 319.009 25.5173 318.409C26.0507 317.796 26.684 317.336 27.4173 317.029C28.164 316.709 28.9907 316.549 29.8973 316.549C30.804 316.549 31.624 316.709 32.3573 317.029C33.104 317.336 33.7373 317.796 34.2573 318.409C34.7907 319.009 35.1973 319.763 35.4773 320.669C35.7707 321.563 35.9173 322.596 35.9173 323.769C35.9173 324.943 35.7707 325.983 35.4773 326.889C35.1973 327.783 34.7907 328.536 34.2573 329.149C33.7373 329.749 33.104 330.209 32.3573 330.529C31.624 330.836 30.804 330.989 29.8973 330.989ZM29.8973 328.969C30.4307 328.969 30.9173 328.876 31.3573 328.689C31.8107 328.503 32.1907 328.236 32.4973 327.889C32.8173 327.529 33.064 327.096 33.2373 326.589C33.4107 326.083 33.4973 325.509 33.4973 324.869V322.669C33.4973 322.029 33.4107 321.456 33.2373 320.949C33.064 320.443 32.8173 320.016 32.4973 319.669C32.1907 319.309 31.8107 319.036 31.3573 318.849C30.9173 318.663 30.4307 318.569 29.8973 318.569C29.3507 318.569 28.8573 318.663 28.4173 318.849C27.9773 319.036 27.5973 319.309 27.2773 319.669C26.9707 320.016 26.7307 320.443 26.5573 320.949C26.384 321.456 26.2973 322.029 26.2973 322.669V324.869C26.2973 325.509 26.384 326.083 26.5573 326.589C26.7307 327.096 26.9707 327.529 27.2773 327.889C27.5973 328.236 27.9773 328.503 28.4173 328.689C28.8573 328.876 29.3507 328.969 29.8973 328.969ZM38.5756 320.349H40.7556V322.069H40.8556C41.0823 321.443 41.449 320.963 41.9556 320.629C42.4756 320.283 43.0823 320.109 43.7756 320.109C45.0956 320.109 46.1156 320.589 46.8356 321.549C47.5556 322.496 47.9156 323.829 47.9156 325.549C47.9156 327.269 47.5556 328.609 46.8356 329.569C46.1156 330.516 45.0956 330.989 43.7756 330.989C43.0823 330.989 42.4756 330.816 41.9556 330.469C41.449 330.123 41.0823 329.643 40.8556 329.029H40.7556V334.749H38.5756V320.349ZM43.1156 329.109C43.8756 329.109 44.4823 328.869 44.9356 328.389C45.389 327.896 45.6156 327.249 45.6156 326.449V324.649C45.6156 323.849 45.389 323.209 44.9356 322.729C44.4823 322.236 43.8756 321.989 43.1156 321.989C42.449 321.989 41.889 322.156 41.4356 322.489C40.9823 322.809 40.7556 323.236 40.7556 323.769V327.329C40.7556 327.863 40.9823 328.296 41.4356 328.629C41.889 328.949 42.449 329.109 43.1156 329.109ZM54.4916 330.989C53.7449 330.989 53.0782 330.863 52.4916 330.609C51.9049 330.356 51.4049 329.996 50.9916 329.529C50.5782 329.049 50.2582 328.476 50.0316 327.809C49.8182 327.129 49.7116 326.376 49.7116 325.549C49.7116 324.723 49.8182 323.976 50.0316 323.309C50.2582 322.629 50.5782 322.056 50.9916 321.589C51.4049 321.109 51.9049 320.743 52.4916 320.489C53.0782 320.236 53.7449 320.109 54.4916 320.109C55.2516 320.109 55.9182 320.243 56.4916 320.509C57.0782 320.776 57.5649 321.149 57.9516 321.629C58.3382 322.096 58.6249 322.643 58.8116 323.269C59.0116 323.896 59.1116 324.569 59.1116 325.289V326.109H51.9716V326.449C51.9716 327.249 52.2049 327.909 52.6716 328.429C53.1516 328.936 53.8316 329.189 54.7116 329.189C55.3516 329.189 55.8916 329.049 56.3316 328.769C56.7716 328.489 57.1449 328.109 57.4516 327.629L58.7316 328.889C58.3449 329.529 57.7849 330.043 57.0516 330.429C56.3182 330.803 55.4649 330.989 54.4916 330.989ZM54.4916 321.809C54.1182 321.809 53.7716 321.876 53.4516 322.009C53.1449 322.143 52.8782 322.329 52.6516 322.569C52.4382 322.809 52.2716 323.096 52.1516 323.429C52.0316 323.763 51.9716 324.129 51.9716 324.529V324.669H56.8116V324.469C56.8116 323.669 56.6049 323.029 56.1916 322.549C55.7782 322.056 55.2116 321.809 54.4916 321.809ZM61.5248 330.749V320.349H63.7048V322.069H63.8048C64.0315 321.509 64.3715 321.043 64.8248 320.669C65.2915 320.296 65.9248 320.109 66.7248 320.109C67.7915 320.109 68.6182 320.463 69.2048 321.169C69.8048 321.863 70.1048 322.856 70.1048 324.149V330.749H67.9248V324.429C67.9248 322.803 67.2715 321.989 65.9648 321.989C65.6848 321.989 65.4048 322.029 65.1248 322.109C64.8582 322.176 64.6182 322.283 64.4048 322.429C64.1915 322.576 64.0182 322.763 63.8848 322.989C63.7648 323.216 63.7048 323.483 63.7048 323.789V330.749H61.5248ZM82.0064 330.749L80.7464 326.969H75.5264L74.3064 330.749H72.0064L76.7664 316.789H79.6064L84.3664 330.749H82.0064ZM78.1864 318.869H78.0864L76.0664 325.029H80.1864L78.1864 318.869ZM85.9286 330.749V328.909H87.8286V318.629H85.9286V316.789H92.0086V318.629H90.0886V328.909H92.0086V330.749H85.9286Z" fill="#1D2433"/>
<rect width="115.315" height="115.271" transform="translate(230.684)" fill="#F4FBFF"/>
<path d="M269.089 69.868L255.132 45.6925C254.595 44.763 254.312 43.7087 254.312 42.6354C254.312 41.5622 254.595 40.5079 255.132 39.5784L269.089 15.4034C269.626 14.4738 270.398 13.7019 271.327 13.1652C272.257 12.6286 273.311 12.3461 274.385 12.3461H302.299C303.372 12.3462 304.427 12.6287 305.356 13.1654C306.286 13.702 307.058 14.4739 307.594 15.4034L321.552 39.5784C322.088 40.5079 322.371 41.5624 322.371 42.6357C322.371 43.709 322.088 44.7635 321.552 45.693L307.594 69.868C307.058 70.7974 306.286 71.5692 305.356 72.1057C304.427 72.6423 303.372 72.9248 302.299 72.9247H274.385C273.311 72.9249 272.257 72.6424 271.327 72.1057C270.397 71.569 269.626 70.7971 269.089 69.8675V69.868Z" fill="url(#paint0_linear_4982_101588)"/>
<path d="M317.11 52.3983L296.8 33.0627L288.136 30.744L280.353 33.6365L277.348 41.4671L279.764 50.1857L301.621 72.3129H303.834L305.627 71.3201L306.6 70.6533L307.706 68.9938L317.11 52.3983Z" fill="#417CE0"/>
<path d="M288.506 30.7225C281.83 30.7225 276.418 36.1348 276.418 42.8115C276.418 49.4877 281.83 54.9 288.506 54.9C295.183 54.9 300.594 49.4877 300.594 42.8115C300.594 36.1348 295.182 30.7225 288.506 30.7225ZM288.506 51.9835C283.441 51.9835 279.334 47.8767 279.334 42.811C279.334 37.7452 283.441 33.6389 288.506 33.6389C293.572 33.6389 297.679 37.7457 297.679 42.8115C297.679 47.8773 293.572 51.9841 288.506 51.9841" fill="white"/>
<path d="M282.766 42.3446V46.1022C283.322 47.0567 284.106 47.8581 285.048 48.4344V42.3446H282.766ZM287.292 39.1769V49.2933C287.68 49.3647 288.077 49.4079 288.485 49.4079C288.858 49.4079 289.22 49.3688 289.576 49.3094V39.1769H287.292ZM292.03 43.906V48.3682C292.987 47.7594 293.773 46.9163 294.314 45.9187V43.9065L292.03 43.906ZM297.203 50.2574L295.95 51.5108C295.844 51.6171 295.785 51.7612 295.785 51.9114C295.785 52.0615 295.844 52.2056 295.95 52.3119L300.701 57.0607C300.807 57.1668 300.951 57.2264 301.101 57.2264C301.251 57.2264 301.395 57.1668 301.502 57.0607L302.754 55.8089C302.859 55.7023 302.919 55.5585 302.919 55.4086C302.919 55.2588 302.859 55.1149 302.754 55.0084L298.003 50.2574C297.897 50.1518 297.753 50.0925 297.603 50.0925C297.453 50.0925 297.309 50.1518 297.203 50.2574Z" fill="white"/>
<path d="M247.56 86.9647H253.74C254.9 86.9647 255.807 87.2914 256.46 87.9447C257.127 88.5981 257.46 89.4714 257.46 90.5647C257.46 91.0847 257.387 91.5314 257.24 91.9047C257.093 92.2647 256.907 92.5647 256.68 92.8047C256.453 93.0314 256.193 93.2047 255.9 93.3247C255.607 93.4314 255.32 93.4981 255.04 93.5247V93.6447C255.32 93.6581 255.627 93.7247 255.96 93.8447C256.307 93.9647 256.627 94.1581 256.92 94.4247C257.213 94.6781 257.46 95.0114 257.66 95.4247C257.86 95.8247 257.96 96.3181 257.96 96.9047C257.96 97.4647 257.867 97.9914 257.68 98.4847C257.507 98.9781 257.26 99.4047 256.94 99.7647C256.62 100.125 256.24 100.411 255.8 100.625C255.36 100.825 254.88 100.925 254.36 100.925H247.56V86.9647ZM249.82 98.9847H253.7C254.287 98.9847 254.747 98.8314 255.08 98.5247C255.413 98.2181 255.58 97.7781 255.58 97.2047V96.5247C255.58 95.9514 255.413 95.5114 255.08 95.2047C254.747 94.8981 254.287 94.7447 253.7 94.7447H249.82V98.9847ZM249.82 92.8647H253.32C253.88 92.8647 254.313 92.7247 254.62 92.4447C254.927 92.1514 255.08 91.7381 255.08 91.2047V90.5647C255.08 90.0314 254.927 89.6247 254.62 89.3447C254.313 89.0514 253.88 88.9047 253.32 88.9047H249.82V92.8647ZM261.683 88.6647C261.23 88.6647 260.897 88.5581 260.683 88.3447C260.483 88.1314 260.383 87.8581 260.383 87.5247V87.1847C260.383 86.8514 260.483 86.5781 260.683 86.3647C260.897 86.1514 261.23 86.0447 261.683 86.0447C262.137 86.0447 262.463 86.1514 262.663 86.3647C262.863 86.5781 262.963 86.8514 262.963 87.1847V87.5247C262.963 87.8581 262.863 88.1314 262.663 88.3447C262.463 88.5581 262.137 88.6647 261.683 88.6647ZM260.583 90.5247H262.763V100.925H260.583V90.5247ZM274.996 101.905C274.996 102.985 274.583 103.798 273.756 104.345C272.93 104.891 271.583 105.165 269.716 105.165C268.863 105.165 268.136 105.105 267.536 104.985C266.95 104.878 266.463 104.718 266.076 104.505C265.703 104.291 265.43 104.031 265.256 103.725C265.083 103.418 264.996 103.065 264.996 102.665C264.996 102.091 265.15 101.645 265.456 101.325C265.776 101.005 266.216 100.785 266.776 100.665V100.445C265.99 100.191 265.596 99.6581 265.596 98.8447C265.596 98.3114 265.776 97.9047 266.136 97.6247C266.496 97.3314 266.93 97.1247 267.436 97.0047V96.9247C266.823 96.6314 266.35 96.2247 266.016 95.7047C265.696 95.1714 265.536 94.5514 265.536 93.8447C265.536 92.7781 265.89 91.9181 266.596 91.2647C267.316 90.6114 268.343 90.2847 269.676 90.2847C270.41 90.2847 271.036 90.3914 271.556 90.6047V90.3247C271.556 89.8581 271.663 89.4981 271.876 89.2447C272.103 88.9781 272.45 88.8447 272.916 88.8447H274.516V90.6047H272.396V91.0247C272.863 91.3314 273.223 91.7314 273.476 92.2247C273.73 92.7047 273.856 93.2447 273.856 93.8447C273.856 94.8981 273.496 95.7514 272.776 96.4047C272.056 97.0447 271.03 97.3647 269.696 97.3647C269.19 97.3647 268.736 97.3114 268.336 97.2047C268.07 97.2981 267.836 97.4314 267.636 97.6047C267.436 97.7647 267.336 97.9781 267.336 98.2447C267.336 98.5247 267.463 98.7247 267.716 98.8447C267.97 98.9647 268.33 99.0247 268.796 99.0247H271.356C272.636 99.0247 273.563 99.2847 274.136 99.8047C274.71 100.311 274.996 101.011 274.996 101.905ZM272.956 102.145C272.956 101.785 272.816 101.498 272.536 101.285C272.27 101.071 271.776 100.965 271.056 100.965H267.536C267.056 101.245 266.816 101.645 266.816 102.165C266.816 102.591 266.983 102.931 267.316 103.185C267.663 103.451 268.243 103.585 269.056 103.585H270.416C272.11 103.585 272.956 103.105 272.956 102.145ZM269.696 95.7847C270.336 95.7847 270.83 95.6447 271.176 95.3647C271.536 95.0714 271.716 94.6247 271.716 94.0247V93.6247C271.716 93.0247 271.536 92.5847 271.176 92.3047C270.83 92.0114 270.336 91.8647 269.696 91.8647C269.056 91.8647 268.556 92.0114 268.196 92.3047C267.85 92.5847 267.676 93.0247 267.676 93.6247V94.0247C267.676 94.6247 267.85 95.0714 268.196 95.3647C268.556 95.6447 269.056 95.7847 269.696 95.7847ZM285.577 104.385H283.597C282.811 104.385 282.231 104.185 281.857 103.785C281.497 103.385 281.317 102.845 281.317 102.165V101.105C280.531 101.011 279.824 100.785 279.197 100.425C278.571 100.065 278.037 99.5847 277.597 98.9847C277.157 98.3847 276.817 97.6647 276.577 96.8247C276.337 95.9714 276.217 95.0114 276.217 93.9447C276.217 92.7714 276.357 91.7381 276.637 90.8447C276.931 89.9381 277.337 89.1847 277.857 88.5847C278.391 87.9714 279.024 87.5114 279.757 87.2047C280.504 86.8847 281.331 86.7247 282.237 86.7247C283.144 86.7247 283.964 86.8847 284.697 87.2047C285.444 87.5114 286.077 87.9714 286.597 88.5847C287.131 89.1847 287.537 89.9381 287.817 90.8447C288.111 91.7381 288.257 92.7714 288.257 93.9447C288.257 96.0247 287.824 97.6714 286.957 98.8847C286.091 100.085 284.917 100.811 283.437 101.065V102.505H285.577V104.385ZM282.237 99.1447C282.771 99.1447 283.257 99.0514 283.697 98.8647C284.151 98.6781 284.531 98.4114 284.837 98.0647C285.157 97.7047 285.404 97.2714 285.577 96.7647C285.751 96.2581 285.837 95.6847 285.837 95.0447V92.8447C285.837 92.2047 285.751 91.6314 285.577 91.1247C285.404 90.6181 285.157 90.1914 284.837 89.8447C284.531 89.4847 284.151 89.2114 283.697 89.0247C283.257 88.8381 282.771 88.7447 282.237 88.7447C281.691 88.7447 281.197 88.8381 280.757 89.0247C280.317 89.2114 279.937 89.4847 279.617 89.8447C279.311 90.1914 279.071 90.6181 278.897 91.1247C278.724 91.6314 278.637 92.2047 278.637 92.8447V95.0447C278.637 95.6847 278.724 96.2581 278.897 96.7647C279.071 97.2714 279.311 97.7047 279.617 98.0647C279.937 98.4114 280.317 98.6781 280.757 98.8647C281.197 99.0514 281.691 99.1447 282.237 99.1447ZM297.215 99.2047H297.135C297.042 99.4581 296.915 99.7047 296.755 99.9447C296.609 100.185 296.415 100.398 296.175 100.585C295.949 100.758 295.669 100.898 295.335 101.005C295.015 101.111 294.642 101.165 294.215 101.165C293.135 101.165 292.295 100.818 291.695 100.125C291.109 99.4314 290.815 98.4381 290.815 97.1447V90.5247H292.995V96.8647C292.995 98.4781 293.662 99.2847 294.995 99.2847C295.275 99.2847 295.549 99.2514 295.815 99.1847C296.082 99.1047 296.315 98.9914 296.515 98.8447C296.729 98.6981 296.895 98.5114 297.015 98.2847C297.149 98.0581 297.215 97.7914 297.215 97.4847V90.5247H299.395V100.925H297.215V99.2047ZM306.597 101.165C305.85 101.165 305.184 101.038 304.597 100.785C304.01 100.531 303.51 100.171 303.097 99.7047C302.684 99.2247 302.364 98.6514 302.137 97.9847C301.924 97.3047 301.817 96.5514 301.817 95.7247C301.817 94.8981 301.924 94.1514 302.137 93.4847C302.364 92.8047 302.684 92.2314 303.097 91.7647C303.51 91.2847 304.01 90.9181 304.597 90.6647C305.184 90.4114 305.85 90.2847 306.597 90.2847C307.357 90.2847 308.024 90.4181 308.597 90.6847C309.184 90.9514 309.67 91.3247 310.057 91.8047C310.444 92.2714 310.73 92.8181 310.917 93.4447C311.117 94.0714 311.217 94.7447 311.217 95.4647V96.2847H304.077V96.6247C304.077 97.4247 304.31 98.0847 304.777 98.6047C305.257 99.1114 305.937 99.3647 306.817 99.3647C307.457 99.3647 307.997 99.2247 308.437 98.9447C308.877 98.6647 309.25 98.2847 309.557 97.8047L310.837 99.0647C310.45 99.7047 309.89 100.218 309.157 100.605C308.424 100.978 307.57 101.165 306.597 101.165ZM306.597 91.9847C306.224 91.9847 305.877 92.0514 305.557 92.1847C305.25 92.3181 304.984 92.5047 304.757 92.7447C304.544 92.9847 304.377 93.2714 304.257 93.6047C304.137 93.9381 304.077 94.3047 304.077 94.7047V94.8447H308.917V94.6447C308.917 93.8447 308.71 93.2047 308.297 92.7247C307.884 92.2314 307.317 91.9847 306.597 91.9847ZM313.63 100.925V90.5247H315.81V92.5247H315.91C316.057 91.9914 316.364 91.5247 316.83 91.1247C317.297 90.7247 317.944 90.5247 318.77 90.5247H319.35V92.6247H318.49C317.624 92.6247 316.957 92.7647 316.49 93.0447C316.037 93.3247 315.81 93.7381 315.81 94.2847V100.925H313.63ZM327.842 90.5247H329.942L325.562 102.985C325.442 103.331 325.302 103.625 325.142 103.865C324.996 104.118 324.816 104.318 324.602 104.465C324.402 104.625 324.156 104.738 323.862 104.805C323.569 104.885 323.222 104.925 322.822 104.925H321.562V103.145H323.322L323.922 101.385L320.142 90.5247H322.322L324.402 96.6447L325.002 98.9047H325.102L325.762 96.6447L327.842 90.5247Z" fill="#1D2433"/>
<path fill-rule="evenodd" clip-rule="evenodd" d="M129.992 129.468H159.106V173.138H188.219V129.468H217.333V187.695H202.776V202.252H188.219V216.809H159.106V202.252H144.549V187.695H129.992V129.468ZM151.825 136.746V180.417H137.268V136.746H151.825ZM166.381 180.417V194.974H151.824V180.417H166.381ZM180.938 209.53V194.974H195.495V180.417H180.938V194.973H166.381V209.53H180.938ZM210.052 180.417V136.746H195.495V180.417H210.052Z" fill="#2B2B2B"/>
<path d="M180.945 209.53V194.974H166.388V209.53H180.945Z" fill="#FFDF3A"/>
<path d="M166.383 194.973V180.417H151.826V194.973H166.383Z" fill="#28F77E"/>
<path d="M195.504 194.973V180.417H180.947V194.973H195.504Z" fill="#FFDF3A"/>
<path d="M151.832 180.417V136.746H137.275V180.417H151.832Z" fill="#F7F7F7"/>
<path d="M210.055 180.417V136.746H195.498V180.417H210.055Z" fill="#40A8F5"/>
<defs>
<linearGradient id="paint0_linear_4982_101588" x1="288.342" y1="12.3467" x2="288.342" y2="72.8306" gradientUnits="userSpaceOnUse">
<stop stop-color="#4387FD"/>
<stop offset="1" stop-color="#4683EA"/>
</linearGradient>
</defs>
</svg>
