<svg width="260" height="238" viewBox="0 0 260 238" fill="none" xmlns="http://www.w3.org/2000/svg">
<g clip-path="url(#clip0_1195_34807)">
<path d="M259.128 0.874023H0.872452V86.6376H259.128V0.874023Z" fill="#3399FF" stroke="black" stroke-width="2" stroke-miterlimit="10"/>
<path d="M115.295 54.6295L103.525 42.8383L115.417 30.916L117.275 32.769L107.225 42.8383L117.144 52.7765L115.295 54.6295Z" fill="black"/>
<path d="M144.574 54.6295L142.725 52.7765L152.775 42.7072L142.856 32.769L144.705 30.916L156.475 42.7072L144.574 54.6295Z" fill="black"/>
<path d="M135.518 29.8532L122.421 63.7505L124.855 64.6945L137.952 30.7972L135.518 29.8532Z" fill="black"/>
<path d="M35.4827 131.722H0.872452V237.135H106.082V131.722H71.4714" fill="#FFDF3A"/>
<path d="M35.4827 131.722H0.872452V237.135H106.082V131.722H71.4714" stroke="black" stroke-width="2" stroke-miterlimit="10"/>
<path d="M19.1765 148.906H15.8001V152.289H19.1765V148.906Z" fill="#F7F7F7"/>
<path d="M37.1753 148.906H33.7989V152.289H37.1753V148.906Z" fill="#F7F7F7"/>
<path d="M73.164 148.906H69.7876V152.289H73.164V148.906Z" fill="#F7F7F7"/>
<path d="M91.154 148.906H87.7776V152.289H91.154V148.906Z" fill="#F7F7F7"/>
<path d="M19.1765 162.428H15.8001V165.811H19.1765V162.428Z" fill="#F7F7F7"/>
<path d="M37.1753 162.428H33.7989V165.811H37.1753V162.428Z" fill="#F7F7F7"/>
<path d="M73.164 162.428H69.7876V165.811H73.164V162.428Z" fill="#F7F7F7"/>
<path d="M91.154 162.428H87.7776V165.811H91.154V162.428Z" fill="#F7F7F7"/>
<path d="M19.1765 175.95H15.8001V179.332H19.1765V175.95Z" fill="#F7F7F7"/>
<path d="M37.1753 175.95H33.7989V179.332H37.1753V175.95Z" fill="#F7F7F7"/>
<path d="M55.1653 175.95H51.7889V179.332H55.1653V175.95Z" fill="#F7F7F7"/>
<path d="M73.164 175.95H69.7876V179.332H73.164V175.95Z" fill="#F7F7F7"/>
<path d="M91.154 175.95H87.7776V179.332H91.154V175.95Z" fill="#F7F7F7"/>
<path d="M19.1765 189.463H15.8001V192.846H19.1765V189.463Z" fill="#F7F7F7"/>
<path d="M37.1753 189.463H33.7989V192.846H37.1753V189.463Z" fill="#F7F7F7"/>
<path d="M55.1653 189.463H51.7889V192.846H55.1653V189.463Z" fill="#F7F7F7"/>
<path d="M73.164 189.463H69.7876V192.846H73.164V189.463Z" fill="#F7F7F7"/>
<path d="M91.154 189.463H87.7776V192.846H91.154V189.463Z" fill="#F7F7F7"/>
<path d="M19.1765 202.985H15.8001V206.368H19.1765V202.985Z" fill="#F7F7F7"/>
<path d="M37.1753 202.985H33.7989V206.368H37.1753V202.985Z" fill="#F7F7F7"/>
<path d="M55.1653 202.985H51.7889V206.368H55.1653V202.985Z" fill="#F7F7F7"/>
<path d="M73.164 202.985H69.7876V206.368H73.164V202.985Z" fill="#F7F7F7"/>
<path d="M91.154 202.985H87.7776V206.368H91.154V202.985Z" fill="#F7F7F7"/>
<path d="M19.1765 216.507H15.8001V219.889H19.1765V216.507Z" fill="#F7F7F7"/>
<path d="M37.1753 216.507H33.7989V219.889H37.1753V216.507Z" fill="#F7F7F7"/>
<path d="M55.1653 216.507H51.7889V219.889H55.1653V216.507Z" fill="#F7F7F7"/>
<path d="M73.164 216.507H69.7876V219.889H73.164V216.507Z" fill="#F7F7F7"/>
<path d="M91.154 216.507H87.7776V219.889H91.154V216.507Z" fill="#F7F7F7"/>
<path d="M188.529 131.722H153.91V237.135H259.128V131.722H224.517" fill="#FF5353"/>
<path d="M188.529 131.722H153.91V237.135H259.128V131.722H224.517" stroke="black" stroke-width="2" stroke-miterlimit="10"/>
<path d="M172.222 148.906H168.846V152.289H172.222V148.906Z" fill="#F7F7F7"/>
<path d="M190.212 148.906H186.836V152.289H190.212V148.906Z" fill="#F7F7F7"/>
<path d="M226.201 148.906H222.825V152.289H226.201V148.906Z" fill="#F7F7F7"/>
<path d="M244.2 148.906H240.823V152.289H244.2V148.906Z" fill="#F7F7F7"/>
<path d="M172.222 162.428H168.846V165.811H172.222V162.428Z" fill="#F7F7F7"/>
<path d="M190.212 162.428H186.836V165.811H190.212V162.428Z" fill="#F7F7F7"/>
<path d="M226.201 162.428H222.825V165.811H226.201V162.428Z" fill="#F7F7F7"/>
<path d="M244.2 162.428H240.823V165.811H244.2V162.428Z" fill="#F7F7F7"/>
<path d="M172.222 175.95H168.846V179.332H172.222V175.95Z" fill="#F7F7F7"/>
<path d="M190.212 175.95H186.836V179.332H190.212V175.95Z" fill="#F7F7F7"/>
<path d="M208.211 175.95H204.835V179.332H208.211V175.95Z" fill="#F7F7F7"/>
<path d="M226.201 175.95H222.825V179.332H226.201V175.95Z" fill="#F7F7F7"/>
<path d="M244.2 175.95H240.823V179.332H244.2V175.95Z" fill="#F7F7F7"/>
<path d="M172.222 189.463H168.846V192.846H172.222V189.463Z" fill="#F7F7F7"/>
<path d="M190.212 189.463H186.836V192.846H190.212V189.463Z" fill="#F7F7F7"/>
<path d="M208.211 189.463H204.835V192.846H208.211V189.463Z" fill="#F7F7F7"/>
<path d="M226.201 189.463H222.825V192.846H226.201V189.463Z" fill="#F7F7F7"/>
<path d="M244.2 189.463H240.823V192.846H244.2V189.463Z" fill="#F7F7F7"/>
<path d="M172.222 202.985H168.846V206.368H172.222V202.985Z" fill="#F7F7F7"/>
<path d="M190.212 202.985H186.836V206.368H190.212V202.985Z" fill="#F7F7F7"/>
<path d="M208.211 202.985H204.835V206.368H208.211V202.985Z" fill="#F7F7F7"/>
<path d="M226.201 202.985H222.825V206.368H226.201V202.985Z" fill="#F7F7F7"/>
<path d="M244.2 202.985H240.823V206.368H244.2V202.985Z" fill="#F7F7F7"/>
<path d="M172.222 216.507H168.846V219.889H172.222V216.507Z" fill="#F7F7F7"/>
<path d="M190.212 216.507H186.836V219.889H190.212V216.507Z" fill="#F7F7F7"/>
<path d="M208.211 216.507H204.835V219.889H208.211V216.507Z" fill="#F7F7F7"/>
<path d="M226.201 216.507H222.825V219.889H226.201V216.507Z" fill="#F7F7F7"/>
<path d="M244.2 216.507H240.823V219.889H244.2V216.507Z" fill="#F7F7F7"/>
<path d="M62.267 152.481L54.7901 160.54V109.529H52.1727V160.549L44.6871 152.481L42.7764 154.273L53.4727 165.802L64.1777 154.273L62.267 152.481Z" fill="black"/>
<path d="M217.224 121.058L206.519 109.529L195.814 121.058L197.733 122.85L205.21 114.791V165.802H207.827V114.791L215.304 122.85L217.224 121.058Z" fill="black"/>
</g>
<defs>
<clipPath id="clip0_1195_34807">
<rect width="260" height="238" fill="white"/>
</clipPath>
</defs>
</svg>
