<svg width="263" height="233" viewBox="0 0 263 233" fill="none" xmlns="http://www.w3.org/2000/svg">
<g clip-path="url(#clip0_1195_34875)">
<path d="M144.007 93.7173H0.809265V192.719H144.007V93.7173Z" fill="#FFDF3A" stroke="black" stroke-width="2" stroke-miterlimit="10"/>
<path d="M262.199 0.810547H63.826V141.925H262.199V0.810547Z" fill="#3399FF" stroke="black" stroke-width="2" stroke-miterlimit="10"/>
<path d="M28.6396 166.613L26.924 164.894L36.2466 155.558L27.0453 146.35L28.761 144.624L39.6778 155.558L28.6396 166.613Z" fill="black"/>
<path d="M63.8179 167.334H43.6027V169.765H63.8179V167.334Z" fill="black"/>
<path d="M76.6042 15.8778C78.4947 15.8778 80.0273 14.3428 80.0273 12.4494C80.0273 10.5559 78.4947 9.021 76.6042 9.021C74.7136 9.021 73.181 10.5559 73.181 12.4494C73.181 14.3428 74.7136 15.8778 76.6042 15.8778Z" fill="black"/>
<path d="M89.6736 15.8778C91.5642 15.8778 93.0968 14.3428 93.0968 12.4494C93.0968 10.5559 91.5642 9.021 89.6736 9.021C87.7831 9.021 86.2505 10.5559 86.2505 12.4494C86.2505 14.3428 87.7831 15.8778 89.6736 15.8778Z" fill="black"/>
<path d="M102.743 15.8778C104.634 15.8778 106.166 14.3428 106.166 12.4494C106.166 10.5559 104.634 9.021 102.743 9.021C100.853 9.021 99.3199 10.5559 99.3199 12.4494C99.3199 14.3428 100.853 15.8778 102.743 15.8778Z" fill="black"/>
<path d="M158.808 37.7285H73.6666V71.8664H158.808V37.7285Z" stroke="black" stroke-width="2" stroke-miterlimit="10"/>
<path d="M252.358 37.7285H167.217V115.771H252.358V37.7285Z" stroke="black" stroke-width="2" stroke-miterlimit="10"/>
<path d="M158.808 81.6328H73.6666V115.771H158.808V81.6328Z" stroke="black" stroke-width="2" stroke-miterlimit="10"/>
<path d="M199.028 158.856H165.218V192.719H199.028V158.856Z" fill="#F2F2F2" stroke="black" stroke-width="2" stroke-miterlimit="10"/>
<path d="M238.14 198.327H204.329V232.189H238.14V198.327Z" fill="#F2F2F2" stroke="black" stroke-width="2" stroke-miterlimit="10"/>
<path d="M199.028 198.327H165.218V232.189H199.028V198.327Z" fill="#F2F2F2" stroke="black" stroke-width="2" stroke-miterlimit="10"/>
<path d="M233.47 175.795C233.47 175.366 233.47 174.944 233.406 174.531L238.107 170.276L237.047 167.723L230.719 168.047C230.19 167.389 229.593 166.789 228.938 166.256L229.262 159.918L226.713 158.864L222.464 163.573C222.045 163.527 221.624 163.505 221.202 163.508C220.78 163.506 220.359 163.527 219.94 163.573L215.699 158.864L213.142 159.918L213.465 166.256C212.813 166.791 212.216 167.391 211.685 168.047L205.357 167.723L204.297 170.276L208.998 174.531C208.998 174.944 208.934 175.342 208.934 175.795C208.934 176.249 208.934 176.606 208.998 177.06L204.297 181.307L205.357 183.868L211.685 183.544C212.218 184.195 212.815 184.793 213.465 185.327L213.142 191.665L215.699 192.727L219.94 188.018C220.36 188.058 220.749 188.074 221.202 188.074C221.655 188.074 222.011 188.074 222.464 188.018L226.713 192.727L229.262 191.665L228.938 185.327C229.591 184.795 230.188 184.197 230.719 183.544L237.047 183.868L238.107 181.307L233.47 177.076C233.47 176.638 233.47 176.217 233.47 175.795ZM221.202 181.339C220.107 181.339 219.037 181.014 218.127 180.405C217.216 179.796 216.507 178.93 216.088 177.917C215.669 176.904 215.559 175.789 215.773 174.714C215.987 173.638 216.514 172.651 217.288 171.875C218.062 171.1 219.048 170.572 220.122 170.358C221.196 170.144 222.309 170.254 223.32 170.674C224.332 171.093 225.196 171.804 225.804 172.715C226.413 173.627 226.737 174.699 226.737 175.795C226.737 177.26 226.159 178.665 225.128 179.704C224.096 180.743 222.697 181.331 221.234 181.339H221.202Z" fill="#FF5353" stroke="black" stroke-width="2" stroke-miterlimit="10"/>
</g>
<defs>
<clipPath id="clip0_1195_34875">
<rect width="263" height="233" fill="white"/>
</clipPath>
</defs>
</svg>
