<svg width="289" height="183" viewBox="0 0 289 183" fill="none" xmlns="http://www.w3.org/2000/svg">
<g clip-path="url(#clip0_1195_34749)">
<path d="M0 26.4766H56.4921V144.174H0" fill="#3399FF"/>
<path d="M0 26.4766H56.4921V144.174H0" stroke="black" stroke-width="2" stroke-miterlimit="10"/>
<path d="M222.537 64.6128H104.663V182.31H222.537V64.6128Z" fill="#FFDF3A" stroke="black" stroke-width="2" stroke-miterlimit="10"/>
<path d="M212.987 55.0771H95.1134V172.775H212.987V55.0771Z" fill="#CCCE6B" stroke="black" stroke-width="2" stroke-miterlimit="10"/>
<path d="M203.437 45.5415H85.5634V163.239H203.437V45.5415Z" fill="#99BC9D" stroke="black" stroke-width="2" stroke-miterlimit="10"/>
<path d="M193.887 36.0127H76.0134V153.71H193.887V36.0127Z" fill="#66ABCE" stroke="black" stroke-width="2" stroke-miterlimit="10"/>
<path d="M184.337 26.4766H66.4634V144.174H184.337V26.4766Z" fill="#3399FF" stroke="black" stroke-width="2" stroke-miterlimit="10"/>
<path d="M108.91 0.689453H85.3355V24.229H108.91V0.689453Z" fill="#F2F2F2" stroke="black" stroke-width="2" stroke-miterlimit="10"/>
<path d="M132.485 0.689453H108.91V24.229H132.485V0.689453Z" fill="#F2F2F2" stroke="black" stroke-width="2" stroke-miterlimit="10"/>
<path d="M156.059 0.689453H132.485V24.229H156.059V0.689453Z" fill="#F2F2F2" stroke="black" stroke-width="2" stroke-miterlimit="10"/>
<path d="M61.7609 0.689453H38.1862V24.229H61.7609V0.689453Z" fill="#FF5353" stroke="black" stroke-width="2" stroke-miterlimit="10"/>
<path d="M85.3355 24.229H61.7609V47.7685H85.3355V24.229Z" fill="#FF5353" stroke="black" stroke-width="2" stroke-miterlimit="10"/>
<path d="M108.91 24.229H85.3355V47.7685H108.91V24.229Z" fill="#F2F2F2" stroke="black" stroke-width="2" stroke-miterlimit="10"/>
<path d="M132.485 24.229H108.91V47.7685H132.485V24.229Z" fill="#F2F2F2" stroke="black" stroke-width="2" stroke-miterlimit="10"/>
<path d="M156.059 24.229H132.485V47.7685H156.059V24.229Z" fill="#F2F2F2" stroke="black" stroke-width="2" stroke-miterlimit="10"/>
<path d="M61.7609 24.229H38.1862V47.7685H61.7609V24.229Z" fill="#FF5353" stroke="black" stroke-width="2" stroke-miterlimit="10"/>
<path d="M85.3355 47.7686H61.7609V71.3081H85.3355V47.7686Z" fill="#F2F2F2" stroke="black" stroke-width="2" stroke-miterlimit="10"/>
<path d="M108.91 47.7686H85.3355V71.3081H108.91V47.7686Z" fill="#F2F2F2" stroke="black" stroke-width="2" stroke-miterlimit="10"/>
<path d="M132.485 47.7686H108.91V71.3081H132.485V47.7686Z" fill="#F2F2F2" stroke="black" stroke-width="2" stroke-miterlimit="10"/>
<path d="M156.059 47.7686H132.485V71.3081H156.059V47.7686Z" fill="#F2F2F2" stroke="black" stroke-width="2" stroke-miterlimit="10"/>
<path d="M61.7609 47.7686H38.1862V71.3081H61.7609V47.7686Z" fill="#F2F2F2" stroke="black" stroke-width="2" stroke-miterlimit="10"/>
<path d="M85.3355 71.3081H61.7609V94.8476H85.3355V71.3081Z" fill="#F2F2F2" stroke="black" stroke-width="2" stroke-miterlimit="10"/>
<path d="M108.91 71.3081H85.3355V94.8476H108.91V71.3081Z" fill="#F2F2F2" stroke="black" stroke-width="2" stroke-miterlimit="10"/>
<path d="M132.485 71.3081H108.91V94.8476H132.485V71.3081Z" fill="#F2F2F2" stroke="black" stroke-width="2" stroke-miterlimit="10"/>
<path d="M156.059 71.3081H132.485V94.8476H156.059V71.3081Z" fill="#F2F2F2" stroke="black" stroke-width="2" stroke-miterlimit="10"/>
<path d="M61.7609 71.3081H38.1862V94.8476H61.7609V71.3081Z" fill="#F2F2F2" stroke="black" stroke-width="2" stroke-miterlimit="10"/>
<path d="M85.3355 94.8477H61.7609V118.387H85.3355V94.8477Z" fill="#F2F2F2" stroke="black" stroke-width="2" stroke-miterlimit="10"/>
<path d="M108.91 94.8477H85.3355V118.387H108.91V94.8477Z" fill="#F2F2F2" stroke="black" stroke-width="2" stroke-miterlimit="10"/>
<path d="M132.485 94.8477H108.91V118.387H132.485V94.8477Z" fill="#F2F2F2" stroke="black" stroke-width="2" stroke-miterlimit="10"/>
<path d="M156.059 94.8477H132.485V118.387H156.059V94.8477Z" fill="#F2F2F2" stroke="black" stroke-width="2" stroke-miterlimit="10"/>
<path d="M61.7609 94.8477H38.1862V118.387H61.7609V94.8477Z" fill="#F2F2F2" stroke="black" stroke-width="2" stroke-miterlimit="10"/>
<path d="M85.3355 0.689453H61.7609V24.229H85.3355V0.689453Z" fill="#FF5353" stroke="black" stroke-width="2" stroke-miterlimit="10"/>
<path d="M289 182.31H232.508V64.6128H289" fill="#FFDF3A"/>
<path d="M289 182.31H232.508V64.6128H289" stroke="black" stroke-width="2" stroke-miterlimit="10"/>
</g>
<defs>
<clipPath id="clip0_1195_34749">
<rect width="289" height="183" fill="white"/>
</clipPath>
</defs>
</svg>
