<svg width="1200" height="630" viewBox="0 0 1200 630" fill="none" xmlns="http://www.w3.org/2000/svg">
<rect width="1200" height="630" fill="#F7F7F7"/>
<g clip-path="url(#clip0_387_935)">
<path d="M662.338 439.535H657.876V443.999H662.338V439.535Z" fill="#1A1A1A"/>
<path d="M680.052 421.708V421.693H671.256V426.157H675.711V435.078H666.793V430.614H671.256V426.157H666.793V430.614H662.338V439.535H664.313H666.793H675.711V444H680.173V421.708H680.052Z" fill="#1A1A1A"/>
<path d="M698.009 426.157V421.693H684.636V426.157H689.091V439.535H684.636V444H698.009V439.535H693.553V426.157H698.009Z" fill="#1A1A1A"/>
<path d="M550.857 430.614V426.157H564.237V421.693H550.857H546.395V435.078H550.857H564.237V439.535H568.692V430.614H564.237H550.857Z" fill="#1A1A1A"/>
<path d="M564.123 439.535H546.395V443.999H564.123V439.535Z" fill="#1A1A1A"/>
<path d="M501.807 426.157H506.262V439.535H501.807V444H515.187V439.535H510.724V426.157H515.187V421.693H501.807V426.157Z" fill="#1A1A1A"/>
<path d="M568.692 426.157H577.61V444H582.072V426.157H591.097V421.693H568.692V426.157Z" fill="#1A1A1A"/>
<path d="M595.502 426.157H599.936V439.535H595.502V444H608.825V439.535H604.391V426.157H608.825V421.693H595.502V426.157Z" fill="#1A1A1A"/>
<path d="M617.743 421.693H613.288V439.535V443.893V444H626.66V439.535H617.743V421.693Z" fill="#1A1A1A"/>
<path d="M635.585 421.693H631.123V439.535V443.893V444H644.503V439.535H635.585V421.693Z" fill="#1A1A1A"/>
<path d="M524.104 426.157V421.693H519.642V426.157V430.614V444H524.104V430.614H528.56V426.157H524.104Z" fill="#1A1A1A"/>
<path d="M533.022 430.615H528.56V435.079H533.022V430.615Z" fill="#1A1A1A"/>
<path d="M537.477 435.078H533.022V439.535H537.477V444H541.94V439.535V435.078V421.693H537.477V435.078Z" fill="#1A1A1A"/>
<path d="M701.007 372.532V388.078H499V186H701.007V372.532ZM685.467 372.532V325.73H669.92V372.532H685.467ZM685.467 310.184V263.723H638.662V310.184H685.467ZM685.467 248.177V232.631H638.662V248.177H685.467ZM685.467 217.092V201.546H638.662V217.092H685.467ZM654.387 372.532V325.73H638.662V372.532H654.387ZM623.122 356.986V325.709H607.767V341.347H592.411V356.986H623.122ZM623.122 310.184V263.723H607.767V310.184H623.122ZM623.122 232.532V201.546H592.233V216.929L592.141 217.199H576.693V248.177H607.767V232.539L623.122 232.532ZM592.233 341.099V325.73H576.693V341.099H592.233ZM592.233 310.184V263.723H576.693V310.184H592.233ZM561.153 372.532V325.73H514.54V372.532H561.153ZM561.153 310.184V263.723H545.613V310.184H561.153ZM561.153 248.177V217.199H561.025V201.56H545.613V248.192L561.153 248.177ZM530.08 310.184V263.723H514.54V310.184H530.08ZM530.08 248.177V201.546H514.54V248.177H530.08Z" fill="#1A1A1A"/>
<path d="M685.46 325.73H669.92V372.532H685.46V325.73Z" fill="#40A8F5"/>
<path d="M685.46 263.723H638.662V310.183H685.46V263.723Z" fill="#40A8F5"/>
<path d="M685.46 232.631H638.662V248.177H685.46V232.631Z" fill="#FF5353"/>
<path d="M685.46 201.547H638.662V217.093H685.46V201.547Z" fill="#FFDF3A"/>
<path d="M654.38 325.73H638.662V372.532H654.38V325.73Z" fill="#FFDF3A"/>
<path d="M623.129 325.73V356.986H592.411V341.355H607.767V325.73H623.129Z" fill="#FF5353"/>
<path d="M623.122 263.723H607.767V310.183H623.122V263.723Z" fill="#FFDF3A"/>
<path d="M623.129 201.547V232.532H607.767H607.674V216.929H592.226V201.547H623.129Z" fill="#40A8F5"/>
<path d="M607.767 232.532V248.178H576.693V217.199H592.134V232.532H607.674H607.767Z" fill="#FFDF3A"/>
<path d="M607.674 216.93V232.533H592.134V217.2L592.226 216.93H607.674Z" fill="#1A1A1A"/>
<path d="M592.234 325.73H576.693V341.099H592.234V325.73Z" fill="#28F77E"/>
<path d="M592.234 263.723H576.693V310.183H592.234V263.723Z" fill="#FF5353"/>
<path d="M561.153 325.73V372.532H514.54V325.73H530.073H545.613H561.153Z" fill="#40A8F5"/>
<path d="M561.153 263.723H545.613V310.183H561.153V263.723Z" fill="#40A8F5"/>
<path d="M561.153 217.2V248.178H545.613V201.547H561.047V217.2H561.153Z" fill="#FFDF3A"/>
<path d="M530.08 263.723H514.54V310.183H530.08V263.723Z" fill="#FFDF3A"/>
<path d="M530.08 201.547H514.54V248.178H530.08V201.547Z" fill="#FF5353"/>
</g>
<defs>
<clipPath id="clip0_387_935">
<rect width="202" height="258" fill="white" transform="translate(499 186)"/>
</clipPath>
</defs>
</svg>
