<?xml version="1.0" encoding="UTF-8"?>
<svg id="Layer_1" data-name="Layer 1" xmlns="http://www.w3.org/2000/svg" xmlns:xlink="http://www.w3.org/1999/xlink" viewBox="0 0 1068.53 224.09">
  <defs>
    <style>
      .cls-1 {
        fill: none;
      }

      .cls-2 {
        clip-path: url(#clippath);
      }

      .cls-3 {
        fill: #f7f7f7;
      }

      .cls-4 {
        fill: #ffdf3a;
      }

      .cls-5 {
        fill: #ff5353;
      }

      .cls-6 {
        fill: #40a8f5;
      }

      .cls-7 {
        fill: #1a1a1a;
      }

      .cls-8 {
        fill: #28f77e;
      }
    </style>
    <clipPath id="clippath">
      <rect class="cls-1" width="224" height="224"/>
    </clipPath>
  </defs>
  <path class="cls-3" d="m930.65,137.88h-17.23v17.23h17.23v-17.23Z"/>
  <path class="cls-3" d="m999.12,68.99v-.05h-33.99v17.23h17.23v34.47h-34.47v-17.23h17.24v-17.24h-17.24v17.24h-17.23v34.47h51.7v17.23h17.24v-86.12h-.48Z"/>
  <path class="cls-3" d="m1068.53,86.17v-17.23h-51.7v17.23h17.23v51.71h-17.23v17.23h51.7v-17.23h-17.23v-51.71h17.23Z"/>
  <path class="cls-3" d="m499.8,103.41v-17.24h51.7v-17.23h-68.93v51.7h68.93v17.24h17.24v-34.47h-68.94Z"/>
  <path class="cls-3" d="m551.08,137.88h-68.51v17.23h68.51v-17.23Z"/>
  <path class="cls-3" d="m310.22,86.17h17.24v51.71h-17.24v17.23h51.71v-17.23h-17.24v-51.71h17.24v-17.23h-51.71v17.23Z"/>
  <path class="cls-3" d="m568.74,86.17h34.47v68.94h17.23v-68.94h34.87v-17.23h-86.57v17.23Z"/>
  <path class="cls-3" d="m672.35,86.17h17.13v51.71h-17.13v17.23h51.5v-17.23h-17.14v-51.71h17.14v-17.23h-51.5v17.23Z"/>
  <path class="cls-3" d="m758.32,68.94h-17.24v86.17h51.7v-17.23h-34.46v-68.94Z"/>
  <path class="cls-3" d="m827.25,68.94h-17.23v86.17h51.7v-17.23h-34.47v-68.94Z"/>
  <path class="cls-3" d="m396.4,86.17v-17.23h-17.24v86.17h17.24v-51.7h17.23v-17.24h-17.23Z"/>
  <path class="cls-3" d="m430.86,103.41h-17.23v17.23h17.23v-17.23Z"/>
  <path class="cls-3" d="m448.1,120.64h-17.24v17.24h17.24v17.23h17.23v-86.17h-17.23v51.7Z"/>
  <g class="cls-2">
    <g>
      <path class="cls-7" d="m224.01,206.85v17.24H0V0h224.01v206.85Zm-17.23,0v-51.9h-17.24v51.9h17.24Zm0-69.14v-51.52h-51.9v51.52h51.9Zm0-68.76v-17.24h-51.9v17.24h51.9Zm0-34.47v-17.24h-51.9v17.24h51.9Zm-34.46,172.37v-51.9h-17.44v51.9h17.44Zm-34.67-17.24v-34.68h-17.03v17.34h-17.03v17.34h34.06Zm0-51.9v-51.52h-17.03v51.52h17.03Zm0-86.11V17.24h-34.25v17.06l-.1.3h-17.13v34.35h34.46v-17.34h17.03Zm-34.25,120.39v-17.04h-17.23v17.04h17.23Zm0-34.28v-51.52h-17.23v51.52h17.23Zm-34.47,69.14v-51.9H17.23v51.9h51.69Zm0-69.14v-51.52h-17.23v51.52h17.23Zm0-68.76v-34.35h-.14v-17.34h-17.09v51.71l17.23-.02Zm-34.46,68.76v-51.52h-17.23v51.52h17.23Zm0-68.76V17.24h-17.23v51.71h17.23Z"/>
      <path class="cls-6" d="m206.77,154.95h-17.23v51.9h17.23v-51.9Z"/>
      <path class="cls-6" d="m206.77,86.19h-51.9v51.52h51.9v-51.52Z"/>
      <path class="cls-5" d="m206.77,51.71h-51.9v17.24h51.9v-17.24Z"/>
      <path class="cls-4" d="m206.77,17.24h-51.9v17.24h51.9v-17.24Z"/>
      <path class="cls-4" d="m172.3,154.95h-17.43v51.9h17.43v-51.9Z"/>
      <path class="cls-5" d="m137.65,154.95v34.66h-34.06v-17.33h17.03v-17.33h17.04Z"/>
      <path class="cls-4" d="m137.64,86.19h-17.03v51.52h17.03v-51.52Z"/>
      <path class="cls-6" d="m137.65,17.24v34.36h-17.14v-17.3h-17.13v-17.06h34.27Z"/>
      <path class="cls-4" d="m120.61,51.6v17.35h-34.46v-34.35h17.12v17h17.33Z"/>
      <path class="cls-7" d="m120.51,34.3v17.3h-17.23v-17l.1-.3h17.13Z"/>
      <path class="cls-8" d="m103.39,154.95h-17.23v17.04h17.23v-17.04Z"/>
      <path class="cls-5" d="m103.39,86.19h-17.23v51.52h17.23v-51.52Z"/>
      <path class="cls-6" d="m68.92,154.95v51.9H17.23v-51.9h51.69Z"/>
      <path class="cls-6" d="m68.92,86.19h-17.23v51.52h17.23v-51.52Z"/>
      <path class="cls-4" d="m68.92,34.6v34.35h-17.23V17.24h17.11v17.36h.12Z"/>
      <path class="cls-4" d="m34.46,86.19h-17.23v51.52h17.23v-51.52Z"/>
      <path class="cls-5" d="m34.46,17.24h-17.23v51.71h17.23V17.24Z"/>
    </g>
  </g>
</svg>