<svg width="364" height="348" viewBox="0 0 364 348" fill="none" xmlns="http://www.w3.org/2000/svg">
<g style="mix-blend-mode:darken" clip-path="url(#clip0_4756_126094)">
<rect width="363" height="347" transform="translate(0.140625 0.255859)" fill="white"/>
<g clip-path="url(#clip1_4756_126094)">
<path d="M347.839 105.056H165.523V287.069H347.839V105.056Z" fill="#FFDF3A" stroke="black" stroke-width="2" stroke-miterlimit="10"/>
<path d="M333.07 90.3097H150.754V272.323H333.07V90.3097Z" fill="#CCCE6B" stroke="black" stroke-width="2" stroke-miterlimit="10"/>
<path d="M318.3 75.5631H135.984V257.576H318.3V75.5631Z" fill="#99BC9D" stroke="black" stroke-width="2" stroke-miterlimit="10"/>
<path d="M303.527 60.8272H121.211V242.84H303.527V60.8272Z" fill="#66ABCE" stroke="black" stroke-width="2" stroke-miterlimit="10"/>
<path d="M288.754 46.0806H106.438V228.094H288.754V46.0806Z" fill="#3399FF" stroke="black" stroke-width="2" stroke-miterlimit="10"/>
<path d="M172.096 6.20193H135.633V42.6046H172.096V6.20193Z" fill="#F2F2F2" stroke="black" stroke-width="2" stroke-miterlimit="10"/>
<path d="M208.557 6.20193H172.094V42.6046H208.557V6.20193Z" fill="#F2F2F2" stroke="black" stroke-width="2" stroke-miterlimit="10"/>
<path d="M245.018 6.20193H208.555V42.6046H245.018V6.20193Z" fill="#F2F2F2" stroke="black" stroke-width="2" stroke-miterlimit="10"/>
<path d="M99.1663 6.20193H62.7031V42.6046H99.1663V6.20193Z" fill="#FF5353" stroke="black" stroke-width="2" stroke-miterlimit="10"/>
<path d="M135.627 42.6046H99.1641V79.0072H135.627V42.6046Z" fill="#FF5353" stroke="black" stroke-width="2" stroke-miterlimit="10"/>
<path d="M172.096 42.6046H135.633V79.0072H172.096V42.6046Z" fill="#F2F2F2" stroke="black" stroke-width="2" stroke-miterlimit="10"/>
<path d="M208.557 42.6046H172.094V79.0072H208.557V42.6046Z" fill="#F2F2F2" stroke="black" stroke-width="2" stroke-miterlimit="10"/>
<path d="M245.018 42.6046H208.555V79.0072H245.018V42.6046Z" fill="#F2F2F2" stroke="black" stroke-width="2" stroke-miterlimit="10"/>
<path d="M99.1663 42.6046H62.7031V79.0072H99.1663V42.6046Z" fill="#FF5353" stroke="black" stroke-width="2" stroke-miterlimit="10"/>
<path d="M135.627 79.0072H99.1641V115.41H135.627V79.0072Z" fill="#F2F2F2" stroke="black" stroke-width="2" stroke-miterlimit="10"/>
<path d="M172.096 79.0072H135.633V115.41H172.096V79.0072Z" fill="#F2F2F2" stroke="black" stroke-width="2" stroke-miterlimit="10"/>
<path d="M208.557 79.0072H172.094V115.41H208.557V79.0072Z" fill="#F2F2F2" stroke="black" stroke-width="2" stroke-miterlimit="10"/>
<path d="M245.018 79.0072H208.555V115.41H245.018V79.0072Z" fill="#F2F2F2" stroke="black" stroke-width="2" stroke-miterlimit="10"/>
<path d="M99.1663 79.0072H62.7031V115.41H99.1663V79.0072Z" fill="#F2F2F2" stroke="black" stroke-width="2" stroke-miterlimit="10"/>
<path d="M135.627 115.41H99.1641V151.812H135.627V115.41Z" fill="#F2F2F2" stroke="black" stroke-width="2" stroke-miterlimit="10"/>
<path d="M172.096 115.41H135.633V151.812H172.096V115.41Z" fill="#F2F2F2" stroke="black" stroke-width="2" stroke-miterlimit="10"/>
<path d="M208.557 115.41H172.094V151.812H208.557V115.41Z" fill="#F2F2F2" stroke="black" stroke-width="2" stroke-miterlimit="10"/>
<path d="M245.018 115.41H208.555V151.812H245.018V115.41Z" fill="#F2F2F2" stroke="black" stroke-width="2" stroke-miterlimit="10"/>
<path d="M99.1663 115.41H62.7031V151.812H99.1663V115.41Z" fill="#F2F2F2" stroke="black" stroke-width="2" stroke-miterlimit="10"/>
<path d="M135.627 151.812H99.1641V188.215H135.627V151.812Z" fill="#F2F2F2" stroke="black" stroke-width="2" stroke-miterlimit="10"/>
<path d="M172.096 151.812H135.633V188.215H172.096V151.812Z" fill="#F2F2F2" stroke="black" stroke-width="2" stroke-miterlimit="10"/>
<path d="M208.557 151.812H172.094V188.215H208.557V151.812Z" fill="#F2F2F2" stroke="black" stroke-width="2" stroke-miterlimit="10"/>
<path d="M245.018 151.812H208.555V188.215H245.018V151.812Z" fill="#F2F2F2" stroke="black" stroke-width="2" stroke-miterlimit="10"/>
<path d="M99.1663 151.812H62.7031V188.215H99.1663V151.812Z" fill="#F2F2F2" stroke="black" stroke-width="2" stroke-miterlimit="10"/>
<path d="M135.627 6.20193H99.1641V42.6046H135.627V6.20193Z" fill="#FF5353" stroke="black" stroke-width="2" stroke-miterlimit="10"/>
</g>
</g>
<defs>
<clipPath id="clip0_4756_126094">
<rect width="363" height="347" fill="white" transform="translate(0.140625 0.255859)"/>
</clipPath>
<clipPath id="clip1_4756_126094">
<rect width="447" height="283" fill="white" transform="translate(3.64062 5.13565)"/>
</clipPath>
</defs>
</svg>
