<svg width="291" height="330" viewBox="0 0 291 330" fill="none" xmlns="http://www.w3.org/2000/svg">
<g clip-path="url(#clip0_866_5383)">
<path opacity="0.49" d="M68.3281 135.422V223.652L131.728 263.242V321.912" stroke="#3399FF" stroke-width="7" stroke-miterlimit="10"/>
<path opacity="0.49" d="M222.175 135.371V223.651L159.055 263.241V321.911" stroke="#3399FF" stroke-width="7" stroke-miterlimit="10"/>
<path opacity="0.49" d="M145.109 314.001V76.6914" stroke="#3399FF" stroke-width="7" stroke-miterlimit="10"/>
<path opacity="0.49" d="M145.109 329.76V187.32" stroke="#3399FF" stroke-width="7" stroke-miterlimit="10"/>
<path d="M145.113 39.0625L76.7734 78.3025L145.113 117.543L213.443 77.9625L145.113 39.0625Z" fill="#F6F6F6" stroke="black" stroke-width="0.5" stroke-miterlimit="10"/>
<path d="M213.447 77.9609V98.4409L145.117 138.031V117.541L213.447 77.9609Z" fill="#B3B3B3" stroke="black" stroke-width="0.5" stroke-miterlimit="10"/>
<path d="M76.7734 78.3008V98.7908L145.113 138.031V117.541L76.7734 78.3008Z" fill="#999999" stroke="black" stroke-width="0.5" stroke-miterlimit="10"/>
<path d="M145.113 19.6211L76.7734 58.8611L145.113 98.1011L213.443 58.5111L145.113 19.6211Z" fill="#F6F6F6" stroke="black" stroke-width="0.5" stroke-miterlimit="10"/>
<path d="M213.447 58.5117V79.0017L145.117 118.582V98.1017L213.447 58.5117Z" fill="#CCCCCC" stroke="black" stroke-width="0.5" stroke-miterlimit="10"/>
<path d="M76.7734 58.8594V79.3394L145.113 118.579V98.0994L76.7734 58.8594Z" fill="#B3B3B3" stroke="black" stroke-width="0.5" stroke-miterlimit="10"/>
<path d="M145.113 0L76.7734 39.24L145.113 78.48L213.443 38.89L145.113 0Z" fill="#F6F6F6" stroke="black" stroke-width="0.5" stroke-miterlimit="10"/>
<path d="M213.447 38.8906V59.3806L145.117 98.9606V78.4806L213.447 38.8906Z" fill="#E6E6E6" stroke="black" stroke-width="0.5" stroke-miterlimit="10"/>
<path d="M76.7734 39.2422V59.7222L145.113 98.9622V78.4822L76.7734 39.2422Z" fill="#CCCCCC" stroke="black" stroke-width="0.5" stroke-miterlimit="10"/>
<path d="M68.33 85.1914L0 124.431L68.33 163.661L136.66 124.081L68.33 85.1914Z" fill="#F6F6F6" stroke="black" stroke-width="0.5" stroke-miterlimit="10"/>
<path d="M136.658 124.078V144.558L68.3281 184.148V163.658L136.658 124.078Z" fill="#B3B3B3" stroke="black" stroke-width="0.5" stroke-miterlimit="10"/>
<path d="M0 124.43V144.91L68.33 184.15V163.66L0 124.43Z" fill="#999999" stroke="black" stroke-width="0.5" stroke-miterlimit="10"/>
<path d="M68.33 65.7422L0 104.982L68.33 144.222L136.66 104.632L68.33 65.7422Z" fill="#F6F6F6" stroke="black" stroke-width="0.5" stroke-miterlimit="10"/>
<path d="M136.658 104.633V125.123L68.3281 164.703V144.223L136.658 104.633Z" fill="#CCCCCC" stroke="black" stroke-width="0.5" stroke-miterlimit="10"/>
<path d="M0 104.98V125.46L68.33 164.7V144.22L0 104.98Z" fill="#B3B3B3" stroke="black" stroke-width="0.5" stroke-miterlimit="10"/>
<path d="M222.174 85.1914L153.844 124.431L222.174 163.661L290.514 124.081L222.174 85.1914Z" fill="#F6F6F6" stroke="black" stroke-width="0.5" stroke-miterlimit="10"/>
<path d="M290.52 124.078V144.558L222.18 184.148V163.658L290.52 124.078Z" fill="#B3B3B3" stroke="black" stroke-width="0.5" stroke-miterlimit="10"/>
<path d="M153.844 124.43V144.91L222.174 184.15V163.66L153.844 124.43Z" fill="#999999" stroke="black" stroke-width="0.5" stroke-miterlimit="10"/>
<path d="M222.174 65.7422L153.844 104.982L222.174 144.222L290.514 104.632L222.174 65.7422Z" fill="#F6F6F6" stroke="black" stroke-width="0.5" stroke-miterlimit="10"/>
<path d="M290.52 104.633V125.123L222.18 164.703V144.223L290.52 104.633Z" fill="#CCCCCC" stroke="black" stroke-width="0.5" stroke-miterlimit="10"/>
<path d="M153.844 104.98V125.46L222.174 164.7V144.22L153.844 104.98Z" fill="#B3B3B3" stroke="black" stroke-width="0.5" stroke-miterlimit="10"/>
<path d="M145.113 134.898L76.7734 174.138L145.113 213.378L213.443 173.798L145.113 134.898Z" fill="#F6F6F6" stroke="black" stroke-width="0.5" stroke-miterlimit="10"/>
<path d="M213.447 173.801V194.281L145.117 233.871V213.381L213.447 173.801Z" fill="#B3B3B3" stroke="black" stroke-width="0.5" stroke-miterlimit="10"/>
<path d="M76.7734 174.141V194.631L145.113 233.871V213.381L76.7734 174.141Z" fill="#999999" stroke="black" stroke-width="0.5" stroke-miterlimit="10"/>
<path fill-rule="evenodd" clip-rule="evenodd" d="M147.621 38.3179V29.3402C148.091 29.1111 148.469 28.7297 148.694 28.2582C148.918 27.7867 148.977 27.2529 148.859 26.744C148.742 26.235 148.455 25.781 148.046 25.4558C147.637 25.1307 147.13 24.9537 146.608 24.9537C146.086 24.9537 145.579 25.1307 145.17 25.4558C144.761 25.781 144.475 26.235 144.357 26.744C144.24 27.2529 144.298 27.7867 144.523 28.2582C144.748 28.7297 145.125 29.1111 145.595 29.3402V38.2976H136.941V32.5827C137.399 32.343 137.764 31.9565 137.976 31.4852C138.189 31.0138 138.237 30.4849 138.113 29.9829C137.989 29.4809 137.701 29.035 137.294 28.7164C136.887 28.3978 136.384 28.225 135.867 28.2256C135.352 28.2295 134.853 28.4055 134.449 28.7257C134.045 29.0459 133.76 29.4919 133.639 29.9927C133.518 30.4935 133.568 31.0205 133.781 31.4898C133.993 31.9591 134.357 32.3438 134.813 32.5827V38.3179H134.368C133.231 38.3135 132.11 38.059 131.083 37.5724C130.056 37.0858 129.149 36.3791 128.426 35.5025C127.703 34.6259 127.181 33.6009 126.899 32.5001C126.617 31.3994 126.58 30.25 126.792 29.1336C127.004 28.0172 127.459 26.961 128.125 26.0402C128.79 25.1194 129.651 24.3564 130.645 23.8055C131.639 23.2546 132.742 22.9293 133.875 22.8526C135.009 22.7759 136.146 22.9497 137.205 23.3618C138.051 21.5444 139.397 20.005 141.085 18.9229C142.773 17.8409 144.733 17.2608 146.738 17.2501C148.743 17.2395 150.71 17.7989 152.409 18.863C154.108 19.9271 155.47 21.4521 156.336 23.2605C157.14 22.996 157.981 22.8592 158.828 22.8551C160.887 22.8551 162.861 23.6729 164.317 25.1285C165.772 26.5841 166.59 28.5584 166.59 30.6169C166.59 32.6755 165.772 34.6497 164.317 36.1053C162.861 37.561 160.887 38.3787 158.828 38.3787H158.322V32.5827C158.779 32.3426 159.143 31.9561 159.355 31.4851C159.566 31.0141 159.614 30.4856 159.491 29.9841C159.367 29.4827 159.079 29.0371 158.672 28.7186C158.266 28.4001 157.764 28.227 157.248 28.227C156.731 28.227 156.23 28.4001 155.823 28.7186C155.416 29.0371 155.128 29.4827 155.005 29.9841C154.881 30.4856 154.929 31.0141 155.141 31.4851C155.353 31.9561 155.716 32.3426 156.174 32.5827V38.3179H147.621Z" fill="#4285F4"/>
<path fill-rule="evenodd" clip-rule="evenodd" d="M136.941 44.3151C137.848 44.529 138.653 45.0489 139.222 45.7871C139.79 46.5253 140.087 47.4368 140.062 48.3682C140.063 49.1529 139.845 49.9223 139.431 50.5889C139.017 51.2555 138.424 51.7926 137.72 52.1392C137.016 52.4858 136.229 52.628 135.448 52.5496C134.667 52.4712 133.924 52.1754 133.303 51.6959C132.682 51.2163 132.208 50.5721 131.934 49.8365C131.661 49.1009 131.6 48.3035 131.757 47.5347C131.914 46.7659 132.284 46.0567 132.824 45.4875C133.365 44.9184 134.054 44.5122 134.813 44.3151V38.3164H136.84L136.941 44.3151ZM135.867 50.3948C136.404 50.3948 136.92 50.1813 137.3 49.8012C137.68 49.4212 137.893 48.9057 137.893 48.3682C137.893 47.8307 137.68 47.3153 137.3 46.9352C136.92 46.5552 136.404 46.3416 135.867 46.3416C135.329 46.3416 134.814 46.5552 134.434 46.9352C134.054 47.3153 133.84 47.8307 133.84 48.3682C133.84 48.9057 134.054 49.4212 134.434 49.8012C134.814 50.1813 135.329 50.3948 135.867 50.3948ZM158.321 44.3151C159.306 44.5759 160.162 45.1862 160.73 46.0321C161.298 46.878 161.539 47.9016 161.407 48.9118C161.276 49.9221 160.781 50.8499 160.015 51.5222C159.25 52.1945 158.266 52.5653 157.247 52.5653C156.228 52.5653 155.244 52.1945 154.479 51.5222C153.714 50.8499 153.219 49.9221 153.087 48.9118C152.956 47.9016 153.196 46.878 153.764 46.0321C154.332 45.1862 155.188 44.5759 156.173 44.3151V38.3367H158.321V44.3151ZM157.247 50.3948C157.733 50.4204 158.212 50.2704 158.596 49.9722C158.981 49.674 159.245 49.2474 159.341 48.7704C159.437 48.2935 159.358 47.7979 159.119 47.3743C158.879 46.9507 158.496 46.6274 158.038 46.4632C157.764 46.3651 157.472 46.3271 157.182 46.3518C156.892 46.3765 156.611 46.4634 156.357 46.6065C156.104 46.7496 155.884 46.9456 155.714 47.1812C155.543 47.4167 155.425 47.6863 155.367 47.9716C155.31 48.2569 155.315 48.5512 155.381 48.8345C155.448 49.1178 155.574 49.3834 155.753 49.6133C155.931 49.8432 156.157 50.032 156.415 50.1669C156.673 50.3017 156.957 50.3795 157.247 50.3948ZM147.621 49.5234C148.609 49.7706 149.473 50.3708 150.05 51.2108C150.626 52.0508 150.876 53.0726 150.751 54.0837C150.627 55.0949 150.137 56.0256 149.373 56.7005C148.61 57.3755 147.627 57.748 146.608 57.748C145.589 57.748 144.605 57.3755 143.842 56.7005C143.079 56.0256 142.589 55.0949 142.464 54.0837C142.34 53.0726 142.589 52.0508 143.166 51.2108C143.742 50.3708 144.606 49.7706 145.594 49.5234V38.3772H147.743L147.621 49.5234ZM146.527 55.6031C146.961 55.6009 147.383 55.4594 147.73 55.1994C148.078 54.9395 148.333 54.5747 148.458 54.159C148.582 53.7432 148.57 53.2983 148.423 52.8899C148.276 52.4815 148.002 52.1311 147.641 51.8903C147.279 51.6495 146.851 51.5311 146.417 51.5524C145.983 51.5737 145.568 51.7337 145.232 52.0088C144.897 52.2838 144.658 52.6595 144.552 53.0803C144.445 53.5012 144.477 53.9451 144.642 54.3466C144.802 54.7123 145.065 55.0228 145.401 55.2391C145.736 55.4554 146.128 55.5679 146.527 55.5626V55.6031Z" fill="#669DF6"/>
<path d="M55.2014 122.385L45.9492 106.359C45.5935 105.743 45.4062 105.044 45.4062 104.333C45.4062 103.621 45.5935 102.922 45.9492 102.306L55.2014 86.2806C55.5572 85.6644 56.0689 85.1526 56.6852 84.7969C57.3014 84.4411 58.0004 84.2539 58.712 84.2539H77.2164C77.9279 84.2539 78.6268 84.4412 79.243 84.797C79.8591 85.1527 80.3708 85.6644 80.7266 86.2806L89.9787 102.306C90.3345 102.922 90.5218 103.621 90.5218 104.333C90.5218 105.044 90.3345 105.743 89.9787 106.359L80.7266 122.385C80.3708 123.001 79.8591 123.512 79.243 123.868C78.6268 124.224 77.9279 124.411 77.2164 124.411H58.712C58.0004 124.411 57.3014 124.224 56.6851 123.868C56.0689 123.513 55.5572 123.001 55.2014 122.385V122.385Z" fill="url(#paint0_linear_866_5383)"/>
<path d="M62.7833 100.766L60.3125 103.229L62.4121 105.329L60.3333 109.022L76.1517 124.38H78.0266L79.5266 123.63L80.2766 122.88L87.0265 111.255L75.534 99.5938L62.7833 100.766Z" fill="#417CE0"/>
<path d="M75.2585 99.4925H60.6538C60.4187 99.4925 60.2266 99.685 60.2266 99.9204V102.94C60.2266 103.174 60.419 103.367 60.6538 103.367H75.2585C75.4936 103.367 75.686 103.174 75.686 102.94V99.9197C75.686 99.685 75.4939 99.4922 75.2588 99.4922L75.2585 99.4925ZM72.9974 102.303C72.7659 102.303 72.544 102.21 72.3804 102.047C72.2168 101.883 72.1247 101.661 72.1244 101.429C72.1243 101.315 72.1468 101.201 72.1906 101.095C72.2345 100.989 72.2988 100.893 72.3799 100.812C72.461 100.731 72.5572 100.666 72.6632 100.623C72.7692 100.579 72.8827 100.556 72.9974 100.556C73.4803 100.556 73.8715 100.945 73.8715 101.429C73.8715 101.544 73.8489 101.658 73.805 101.764C73.7611 101.87 73.6967 101.966 73.6155 102.047C73.5343 102.129 73.438 102.193 73.3319 102.237C73.2259 102.281 73.1122 102.303 72.9974 102.303ZM75.2585 105.296L60.6538 105.297C60.4187 105.297 60.2266 105.489 60.2266 105.725V108.744C60.2266 108.978 60.419 109.171 60.6538 109.171H75.2585C75.4936 109.171 75.686 108.978 75.686 108.744V105.724C75.686 105.489 75.4939 105.296 75.2588 105.296H75.2585ZM72.9974 108.107C72.7659 108.107 72.544 108.015 72.3803 107.851C72.2167 107.687 72.1246 107.465 72.1244 107.233C72.1243 107.119 72.1468 107.005 72.1906 106.899C72.2345 106.793 72.2988 106.697 72.3799 106.616C72.461 106.535 72.5572 106.47 72.6632 106.427C72.7692 106.383 72.8827 106.36 72.9974 106.36C73.1151 106.356 73.2325 106.375 73.3425 106.416C73.4526 106.458 73.5532 106.522 73.6381 106.603C73.723 106.685 73.7905 106.783 73.8367 106.891C73.8828 106.999 73.9066 107.116 73.9066 107.234C73.9066 107.351 73.8828 107.468 73.8367 107.576C73.7905 107.685 73.723 107.783 73.6381 107.864C73.5532 107.946 73.4526 108.009 73.3425 108.051C73.2325 108.093 73.1151 108.112 72.9974 108.107" fill="white"/>
<g clip-path="url(#clip1_866_5383)">
<path d="M133.101 161.266L130.406 162.613V186.262L133.101 187.602L133.117 187.582V161.284L133.101 161.266Z" fill="#8C3123"/>
<path d="M147.521 184.169L133.102 187.602V161.266L147.521 164.623V184.169Z" fill="#E05243"/>
<path d="M141.016 178.793L147.132 179.571L147.171 179.483L147.205 169.453L147.132 169.375L141.016 170.142V178.793Z" fill="#8C3123"/>
<path d="M147.133 184.208L161.16 187.609L161.182 187.574L161.182 161.289L161.16 161.266L147.133 164.662V184.208Z" fill="#8C3123"/>
<path d="M153.251 178.793L147.133 179.571V169.375L153.251 170.142V178.793Z" fill="#E05243"/>
<path d="M153.25 165.961L147.132 167.076L141.016 165.961L147.124 164.359L153.25 165.961Z" fill="#5E1F18"/>
<path d="M153.25 182.966L147.132 181.844L141.016 182.966L147.125 184.671L153.25 182.966Z" fill="#F2B0A9"/>
<path d="M141.016 165.96L147.132 164.446L147.182 164.431V154.291L147.132 154.25L141.016 157.309V165.96Z" fill="#8C3123"/>
<path d="M153.251 165.96L147.133 164.446V154.25L153.251 157.309V165.96Z" fill="#E05243"/>
<path d="M147.133 194.677L141.016 191.62V182.969L147.133 184.482L147.223 184.584L147.198 194.501L147.133 194.677Z" fill="#8C3123"/>
<path d="M147.133 194.677L153.25 191.619V182.968L147.133 184.481V194.677ZM161.16 161.266L163.856 162.613V186.262L161.16 187.609V161.266Z" fill="#E05243"/>
</g>
<path fill-rule="evenodd" clip-rule="evenodd" d="M230.745 98.9078C228.374 88.4496 223.433 85.6655 222.173 83.6974C221.653 82.8304 221.193 81.9292 220.795 81C220.728 81.9291 220.606 82.5144 219.816 83.2189C218.23 84.6327 211.496 90.1204 210.929 102.003C210.401 113.082 219.074 119.914 220.22 120.62C221.101 121.054 222.174 120.629 222.698 120.232C226.878 117.362 232.591 109.713 230.75 98.9078" fill="#10AA50"/>
<path fill-rule="evenodd" clip-rule="evenodd" d="M221.156 114.719C220.937 117.461 220.781 119.054 220.227 120.621C220.227 120.621 220.59 123.232 220.846 125.998H221.75C221.966 124.05 222.295 122.117 222.737 120.208C221.566 119.632 221.201 117.125 221.156 114.719Z" fill="#B8C4C2"/>
<path fill-rule="evenodd" clip-rule="evenodd" d="M222.73 120.21C221.547 119.664 221.205 117.104 221.152 114.72C221.445 110.786 221.53 106.84 221.408 102.897C221.346 100.828 221.437 83.7367 220.898 81.2344C221.267 82.0819 221.692 82.9039 222.17 83.6949C223.43 85.6645 228.373 88.4486 230.742 98.9068C232.588 109.693 226.906 117.323 222.73 120.21Z" fill="#12924F"/>
<path d="M230.781 125.246C236.787 125.246 241.656 120.377 241.656 114.371C241.656 108.365 236.787 103.496 230.781 103.496C224.775 103.496 219.906 108.365 219.906 114.371C219.906 120.377 224.775 125.246 230.781 125.246Z" fill="white"/>
<path d="M230.601 123.433C235.606 123.433 239.664 119.376 239.664 114.371C239.664 109.366 235.606 105.309 230.601 105.309C225.596 105.309 221.539 109.366 221.539 114.371C221.539 119.376 225.596 123.433 230.601 123.433Z" fill="#12924F"/>
<path d="M228.069 118.121H226.718L229.754 109.685H231.225L234.26 118.121H232.909L230.524 111.217H230.458L228.069 118.121ZM228.296 114.817H232.679V115.888H228.296V114.817Z" fill="white"/>
</g>
<defs>
<linearGradient id="paint0_linear_866_5383" x1="67.9642" y1="84.2543" x2="67.9642" y2="124.349" gradientUnits="userSpaceOnUse">
<stop stop-color="#4387FD"/>
<stop offset="1" stop-color="#4683EA"/>
</linearGradient>
<clipPath id="clip0_866_5383">
<rect width="291" height="330" fill="white"/>
</clipPath>
<clipPath id="clip1_866_5383">
<rect width="33.4526" height="40.4995" fill="white" transform="translate(130.406 154.25)"/>
</clipPath>
</defs>
</svg>
