<svg width="442" height="334" viewBox="0 0 442 334" fill="none" xmlns="http://www.w3.org/2000/svg">
<g clip-path="url(#clip0_866_5926)">
<path d="M442.174 273.523V294.013L373.844 333.593V313.113L442.174 273.523Z" fill="#B3B3B3" stroke="black" stroke-width="0.5" stroke-miterlimit="10"/>
<path d="M219.707 137.883L151.367 177.123L219.707 216.363L288.037 176.783L219.707 137.883Z" fill="#F6F6F6" stroke="black" stroke-width="0.5" stroke-miterlimit="10"/>
<path d="M288.041 176.781V197.261L219.711 236.851V216.361L288.041 176.781Z" fill="#B3B3B3" stroke="black" stroke-width="0.5" stroke-miterlimit="10"/>
<path d="M151.367 177.125V197.615L219.707 236.855V216.365L151.367 177.125Z" fill="#999999" stroke="black" stroke-width="0.5" stroke-miterlimit="10"/>
<path d="M219.707 118.445L151.367 157.685L219.707 196.915L288.037 157.335L219.707 118.445Z" fill="#F6F6F6" stroke="black" stroke-width="0.5" stroke-miterlimit="10"/>
<path d="M288.041 157.332V177.812L219.711 217.402V196.912L288.041 157.332Z" fill="#CCCCCC" stroke="black" stroke-width="0.5" stroke-miterlimit="10"/>
<path d="M151.367 157.684V178.164L219.707 217.404V196.914L151.367 157.684Z" fill="#B3B3B3" stroke="black" stroke-width="0.5" stroke-miterlimit="10"/>
<path d="M219.707 98.8203L151.367 138.06L219.707 177.3L288.037 137.71L219.707 98.8203Z" fill="#F6F6F6" stroke="black" stroke-width="0.5" stroke-miterlimit="10"/>
<path d="M288.041 137.711V158.201L219.711 197.781V177.301L288.041 137.711Z" fill="#E6E6E6" stroke="black" stroke-width="0.5" stroke-miterlimit="10"/>
<path d="M151.367 138.062V158.542L219.707 197.783V177.302L151.367 138.062Z" fill="#CCCCCC" stroke="black" stroke-width="0.5" stroke-miterlimit="10"/>
<path d="M296.767 188.516L228.438 227.756L296.767 266.996L365.107 227.406L296.767 188.516Z" fill="#F6F6F6" stroke="black" stroke-width="0.5" stroke-miterlimit="10"/>
<path d="M365.113 227.402V247.882L296.773 287.472V266.992L365.113 227.402Z" fill="#B3B3B3" stroke="black" stroke-width="0.5" stroke-miterlimit="10"/>
<path d="M228.438 227.75V248.23L296.767 287.47V266.99L228.438 227.75Z" fill="#999999" stroke="black" stroke-width="0.5" stroke-miterlimit="10"/>
<path d="M296.767 169.062L228.438 208.302L296.767 247.542L365.107 207.953L296.767 169.062Z" fill="#F6F6F6" stroke="black" stroke-width="0.5" stroke-miterlimit="10"/>
<path d="M365.113 207.953V228.443L296.773 268.023V247.543L365.113 207.953Z" fill="#CCCCCC" stroke="black" stroke-width="0.5" stroke-miterlimit="10"/>
<path d="M373.838 234.633L305.508 273.873L373.838 313.113L442.168 273.523L373.838 234.633Z" fill="#F6F6F6" stroke="black" stroke-width="0.5" stroke-miterlimit="10"/>
<path d="M228.438 208.305V228.785L296.767 268.025V247.545L228.438 208.305Z" fill="#B3B3B3" stroke="black" stroke-width="0.5" stroke-miterlimit="10"/>
<path d="M144.838 188.516L76.5078 227.756L144.838 266.996L213.168 227.406L144.838 188.516Z" fill="#F6F6F6" stroke="black" stroke-width="0.5" stroke-miterlimit="10"/>
<path d="M213.174 227.402V247.882L144.844 287.472V266.992L213.174 227.402Z" fill="#B3B3B3" stroke="black" stroke-width="0.5" stroke-miterlimit="10"/>
<path d="M76.5078 227.75V248.23L144.838 287.47V266.99L76.5078 227.75Z" fill="#999999" stroke="black" stroke-width="0.5" stroke-miterlimit="10"/>
<path d="M144.838 169.062L76.5078 208.302L144.838 247.542L213.168 207.953L144.838 169.062Z" fill="#F6F6F6" stroke="black" stroke-width="0.5" stroke-miterlimit="10"/>
<path d="M213.174 207.953V228.443L144.844 268.023V247.543L213.174 207.953Z" fill="#CCCCCC" stroke="black" stroke-width="0.5" stroke-miterlimit="10"/>
<path d="M76.5078 208.305V228.785L144.838 268.025V247.545L76.5078 208.305Z" fill="#B3B3B3" stroke="black" stroke-width="0.5" stroke-miterlimit="10"/>
<path d="M219.986 234.633L151.656 273.873L219.986 313.113L288.316 273.523L219.986 234.633Z" fill="#F6F6F6" stroke="black" stroke-width="0.5" stroke-miterlimit="10"/>
<path d="M288.322 273.523V294.013L219.992 333.593V313.113L288.322 273.523Z" fill="#B3B3B3" stroke="black" stroke-width="0.5" stroke-miterlimit="10"/>
<path d="M151.656 273.875V294.355L219.986 333.595V313.115L151.656 273.875Z" fill="#999999" stroke="black" stroke-width="0.5" stroke-miterlimit="10"/>
<path d="M359.818 290.393L350.544 274.329C350.188 273.711 350 273.011 350 272.298C350 271.585 350.188 270.884 350.544 270.267L359.818 254.203C360.175 253.586 360.688 253.073 361.305 252.716C361.923 252.36 362.624 252.172 363.337 252.172H381.885C382.598 252.172 383.299 252.36 383.916 252.716C384.534 253.073 385.047 253.586 385.403 254.203L394.677 270.267C395.034 270.884 395.222 271.585 395.222 272.298C395.222 273.011 395.034 273.712 394.677 274.329L385.403 290.393C385.047 291.01 384.534 291.523 383.916 291.88C383.299 292.236 382.598 292.424 381.885 292.424H363.337C362.624 292.424 361.923 292.236 361.305 291.88C360.688 291.523 360.175 291.01 359.818 290.392V290.393Z" fill="url(#paint0_linear_866_5926)"/>
<path d="M392.002 278.796L378.234 265.689L372.36 264.117L367.084 266.078L365.047 271.386L366.685 277.296L381.502 292.296H383.002L384.217 291.623L384.877 291.171L385.627 290.046L392.002 278.796Z" fill="#417CE0"/>
<path d="M372.609 264.105C368.083 264.105 364.414 267.774 364.414 272.3C364.414 276.826 368.083 280.495 372.609 280.495C377.134 280.495 380.803 276.826 380.803 272.3C380.803 267.774 377.134 264.105 372.609 264.105ZM372.609 278.518C369.175 278.518 366.391 275.734 366.391 272.3C366.391 268.866 369.175 266.083 372.609 266.083C376.043 266.083 378.827 268.866 378.827 272.3C378.827 275.734 376.043 278.518 372.609 278.518" fill="white"/>
<path d="M368.719 271.983V274.53C369.096 275.178 369.627 275.721 370.266 276.111V271.983H368.719ZM371.787 269.836V276.694C372.05 276.742 372.32 276.771 372.596 276.771C372.848 276.771 373.094 276.745 373.336 276.705V269.836H371.787ZM374.999 273.042V276.067C375.648 275.654 376.181 275.082 376.547 274.406V273.042L374.999 273.042ZM378.505 277.347L377.656 278.197C377.585 278.269 377.544 278.367 377.544 278.468C377.544 278.57 377.585 278.668 377.656 278.74L380.877 281.959C380.949 282.031 381.046 282.071 381.148 282.071C381.25 282.071 381.348 282.031 381.42 281.959L382.269 281.111C382.34 281.038 382.38 280.941 382.38 280.839C382.38 280.738 382.34 280.64 382.269 280.568L379.048 277.347C378.976 277.276 378.878 277.235 378.777 277.235C378.675 277.235 378.578 277.276 378.505 277.347Z" fill="white"/>
<path d="M305.508 273.875V294.355L373.838 333.595V313.115L305.508 273.875Z" fill="#999999" stroke="black" stroke-width="0.5" stroke-miterlimit="10"/>
<path d="M68.33 234.633L0 273.873L68.33 313.113L136.66 273.523L68.33 234.633Z" fill="#F6F6F6" stroke="black" stroke-width="0.5" stroke-miterlimit="10"/>
<path d="M221.125 147.121L236.544 150.852V121.906L221.125 125.637V147.121Z" fill="#205B98"/>
<path d="M236.539 121.906L239.504 123.389V149.376L236.539 150.858V121.906Z" fill="#5294CF"/>
<path d="M221.132 147.121L205.719 150.852V121.906L221.132 125.637V147.121Z" fill="#5294CF"/>
<path d="M205.715 121.906L202.75 123.389V149.376L205.715 150.858V121.906Z" fill="#205B98"/>
<path d="M225.072 156.671L230.929 153.749V119.1L225.072 116.172L223.234 135.432L225.072 156.671Z" fill="#5294CF"/>
<path d="M217.185 156.671L211.328 153.749V119.1L217.185 116.172L219.023 135.365L217.185 156.671Z" fill="#205B98"/>
<path d="M225.076 116.172H217.18V156.671H225.076V116.172Z" fill="#2D72B8"/>
<path fill-rule="evenodd" clip-rule="evenodd" d="M64.4242 264.528C64.4242 265.3 64.1664 265.901 63.6518 266.415C62.8795 267.188 61.5925 267.359 60.7346 266.758L52.1542 261.782C52.111 261.782 52.0895 261.76 52.068 261.739C52.0465 261.718 52.025 261.696 51.9822 261.696C50.781 261.01 50.438 259.465 51.2103 258.264C51.8963 257.063 53.441 256.72 54.6422 257.492L59.4472 260.324V254.66C59.4472 253.287 60.5626 252.172 61.9356 252.172C63.3085 252.172 64.4242 253.287 64.4242 254.66V264.528ZM58.6748 270.19C59.5329 270.62 59.9622 271.478 59.9622 272.422C59.9622 273.365 59.5329 274.224 58.761 274.653L50.18 279.629H50.0085C48.7217 280.315 47.2632 279.887 46.5766 278.6C45.89 277.313 46.4049 275.854 47.6061 275.167L52.4969 272.336L47.6061 269.504C47.5633 269.504 47.5419 269.483 47.5205 269.461C47.499 269.44 47.4776 269.418 47.4347 269.418C46.2335 268.732 45.89 267.188 46.6624 265.986C47.3488 264.785 48.8932 264.442 50.0947 265.214L58.6748 270.19ZM64.4242 290.183V280.23C64.5095 279.887 64.338 279.457 64.1665 279.2C63.4803 277.913 61.85 277.484 60.6488 278.171L52.0678 283.147C52.0249 283.147 52.0034 283.169 51.982 283.19C51.9606 283.212 51.9392 283.233 51.8963 283.233C50.6951 283.919 50.352 285.464 51.1244 286.665C51.8105 287.867 53.3552 288.21 54.5564 287.438L59.4472 284.606V290.183C59.4472 291.556 60.5626 292.671 61.9356 292.671C63.3085 292.671 64.4242 291.556 64.4242 290.183ZM68.8857 290.183V280.487C68.7999 280.058 68.9715 279.457 69.1428 279.029C69.8293 277.827 71.3739 277.398 72.5751 278.085L81.1557 283.061C81.1985 283.061 81.22 283.083 81.2414 283.104C81.2628 283.126 81.2843 283.147 81.3272 283.147C82.5284 283.834 82.8719 285.378 82.0995 286.579C81.413 287.781 79.8684 288.124 78.6672 287.352L73.8622 284.606V290.183C73.8622 291.556 72.7468 292.671 71.3741 292.671C70.0011 292.671 68.8857 291.556 68.8857 290.183ZM74.6346 270.19C73.7765 270.62 73.3477 271.478 73.3477 272.422C73.2619 273.365 73.7765 274.224 74.5489 274.566L83.1294 279.543C83.1723 279.543 83.1938 279.564 83.2152 279.586C83.2366 279.607 83.258 279.629 83.3008 279.629C84.5877 280.315 86.0467 279.801 86.7332 278.6C87.4194 277.312 86.9048 275.853 85.7036 275.167L80.8124 272.336L85.7036 269.504C85.7465 269.504 85.768 269.483 85.7894 269.461C85.8109 269.44 85.8323 269.418 85.8751 269.418C87.0765 268.732 87.4194 267.188 86.6475 265.986C85.9611 264.785 84.4164 264.442 83.2152 265.214L74.6346 270.19ZM68.8857 254.66V264.356C68.7999 264.871 68.9715 265.386 69.1428 265.815C69.8293 267.016 71.3739 267.445 72.5751 266.758L81.1557 261.782C81.1985 261.782 81.22 261.76 81.2414 261.739C81.2628 261.717 81.2843 261.696 81.3272 261.696C82.5284 261.01 82.8719 259.465 82.0995 258.264C81.413 257.063 79.8684 256.72 78.6672 257.491L73.8622 260.237V254.66C73.8622 253.287 72.7468 252.172 71.3741 252.172C70.0011 252.172 68.8857 253.287 68.8857 254.66ZM67.0837 267.702C67.341 267.702 67.513 267.788 67.6845 267.96L71.0306 271.392C71.2023 271.563 71.2883 271.735 71.2883 271.992V272.851C71.2883 273.022 71.2023 273.279 71.1165 273.451L67.6845 276.883C67.513 277.055 67.341 277.141 67.0837 277.141H66.2257C65.9684 277.141 65.7967 277.055 65.6252 276.883L62.1929 273.451C62.0214 273.28 61.9356 273.108 61.9356 272.851V271.992C61.9356 271.735 62.0214 271.563 62.1929 271.392L65.6252 267.96C65.7967 267.788 65.9684 267.702 66.2257 267.702H67.0837ZM66.7406 270.791C66.9123 270.791 67.0837 270.877 67.1696 270.963L68.1991 271.992C68.2848 272.078 68.3709 272.25 68.3709 272.422C68.3709 272.593 68.2848 272.765 68.1991 272.851L67.1696 273.88C67.0837 273.966 66.9121 274.052 66.7406 274.052C66.5686 274.052 66.397 273.966 66.3117 273.88L65.2818 272.851C65.1959 272.765 65.1101 272.593 65.1101 272.422C65.1101 272.25 65.1959 272.078 65.2818 271.992L66.3117 270.963C66.3971 270.877 66.5686 270.791 66.7406 270.791Z" fill="#31BEF0"/>
<path d="M307.102 218.455C307.382 216.121 307.298 215.779 309.037 216.157L309.478 216.196C310.815 216.256 312.564 215.981 313.592 215.503C315.804 214.477 317.115 212.763 314.934 213.214C309.959 214.24 309.617 212.555 309.617 212.555C314.87 204.761 317.067 194.866 315.171 192.444C310.001 185.837 301.051 188.962 300.901 189.043L300.854 189.052C299.871 188.848 298.771 188.726 297.535 188.706C295.283 188.669 293.575 189.296 292.279 190.279C292.279 190.279 276.314 183.701 277.056 198.551C277.214 201.71 281.584 222.454 286.796 216.188C288.701 213.897 290.542 211.96 290.542 211.96C291.457 212.567 292.551 212.877 293.699 212.766L293.788 212.69C293.76 212.974 293.772 213.253 293.823 213.582C292.481 215.082 292.875 215.346 290.191 215.898C287.475 216.458 289.07 217.455 290.112 217.715C291.375 218.031 294.297 218.478 296.271 215.715L296.193 216.03C296.719 216.451 296.684 219.059 296.758 220.921C296.833 222.784 296.958 224.523 297.338 225.548C297.717 226.572 298.165 229.212 301.693 228.456C304.642 227.825 306.896 226.915 307.102 218.455Z" fill="black"/>
<path d="M307.102 218.455C307.382 216.121 307.298 215.779 309.037 216.157L309.478 216.196C310.815 216.256 312.564 215.981 313.592 215.503C315.804 214.477 317.115 212.763 314.934 213.214C309.959 214.24 309.617 212.555 309.617 212.555C314.87 204.761 317.067 194.866 315.171 192.444C310.001 185.837 301.051 188.962 300.901 189.043L300.854 189.052C299.871 188.848 298.771 188.726 297.535 188.706C295.283 188.669 293.575 189.296 292.279 190.279C292.279 190.279 276.314 183.701 277.056 198.551C277.214 201.71 281.584 222.454 286.796 216.188C288.701 213.897 290.542 211.96 290.542 211.96C291.457 212.567 292.551 212.877 293.699 212.766L293.788 212.69C293.76 212.974 293.772 213.253 293.823 213.582C292.481 215.082 292.875 215.346 290.191 215.898C287.475 216.458 289.07 217.455 290.112 217.715C291.375 218.031 294.297 218.478 296.271 215.715L296.193 216.03C296.719 216.451 296.684 219.059 296.758 220.921C296.833 222.784 296.958 224.523 297.338 225.548C297.717 226.572 298.165 229.212 301.693 228.456C304.642 227.825 306.896 226.915 307.102 218.455" stroke="black" stroke-width="3.69943"/>
<path d="M314.935 213.214C309.96 214.24 309.618 212.555 309.618 212.555C314.871 204.76 317.067 194.865 315.172 192.443C310.002 185.837 301.052 188.962 300.902 189.043L300.854 189.051C299.871 188.847 298.771 188.726 297.535 188.706C295.283 188.669 293.576 189.296 292.28 190.279C292.28 190.279 276.314 183.701 277.056 198.551C277.214 201.71 281.584 222.454 286.797 216.188C288.702 213.897 290.542 211.96 290.542 211.96C291.457 212.567 292.551 212.877 293.698 212.766L293.788 212.69C293.76 212.975 293.773 213.253 293.823 213.582C292.481 215.082 292.875 215.346 290.191 215.898C287.475 216.458 289.07 217.455 290.112 217.715C291.375 218.031 294.297 218.478 296.271 215.715L296.192 216.03C296.719 216.451 297.088 218.771 297.026 220.874C296.964 222.977 296.923 224.42 297.337 225.548C297.752 226.675 298.165 229.213 301.694 228.456C304.642 227.825 306.17 226.187 306.383 223.456C306.534 221.514 306.875 221.801 306.896 220.065L307.17 219.243C307.486 216.611 307.22 215.762 309.037 216.157L309.478 216.196C310.815 216.256 312.565 215.981 313.592 215.503C315.804 214.477 317.115 212.763 314.935 213.214H314.935Z" fill="#336791"/>
<path d="M300.889 188.976C300.336 189.15 309.776 185.525 315.141 192.38C317.036 194.802 314.84 204.697 309.587 212.493M296.489 214.721C296.352 219.619 296.523 224.551 297.002 225.75C297.482 226.948 298.508 229.28 302.037 228.524C304.985 227.892 306.058 226.668 306.524 223.969C306.867 221.982 307.527 216.466 307.612 215.335L296.489 214.721ZM292.259 190.168C292.259 190.168 276.282 183.638 277.025 198.488C277.183 201.647 281.553 222.391 286.765 216.125C288.67 213.834 290.393 212.037 290.393 212.037L292.259 190.168Z" stroke="white" stroke-width="1.23314" stroke-linecap="round" stroke-linejoin="round"/>
<path d="M309.589 212.492C309.589 212.492 309.931 214.177 314.907 213.15C317.087 212.7 315.775 214.414 313.564 215.441C311.749 216.283 307.681 216.499 307.614 215.335C307.443 212.332 309.756 213.245 309.589 212.492C309.438 211.815 308.404 211.15 307.72 209.491C307.123 208.044 299.53 196.944 309.825 198.593C310.203 198.515 307.14 188.8 297.505 188.642C287.873 188.484 288.189 200.488 288.189 200.488" stroke="white" stroke-width="1.23314" stroke-linecap="round" stroke-linejoin="bevel"/>
<path d="M293.79 213.52C292.447 215.02 292.842 215.283 290.158 215.836C287.442 216.396 289.038 217.392 290.079 217.653C291.342 217.969 294.264 218.416 296.238 215.652C296.839 214.81 296.235 213.467 295.409 213.125C295.01 212.959 294.476 212.752 293.79 213.52V213.52Z" stroke="white" stroke-width="1.23314" stroke-linecap="round" stroke-linejoin="round"/>
<path d="M293.707 213.495C293.571 212.613 293.996 211.563 294.452 210.335C295.137 208.493 296.716 206.65 295.453 200.806C294.511 196.451 288.193 199.9 288.189 200.49C288.185 201.081 288.475 203.484 288.083 206.282C287.573 209.933 290.407 213.021 293.67 212.705" stroke="white" stroke-width="1.23314" stroke-linecap="round" stroke-linejoin="round"/>
<path d="M292.197 200.401C292.168 200.603 292.566 201.141 293.085 201.213C293.603 201.286 294.046 200.865 294.074 200.663C294.102 200.462 293.705 200.24 293.186 200.167C292.668 200.095 292.224 200.2 292.197 200.401H292.197Z" fill="white" stroke="white" stroke-width="0.411047"/>
<path d="M307.973 199.991C308.001 200.193 307.604 200.731 307.085 200.803C306.567 200.875 306.123 200.455 306.095 200.253C306.068 200.052 306.465 199.829 306.983 199.757C307.502 199.685 307.945 199.79 307.973 199.991V199.991Z" fill="white" stroke="white" stroke-width="0.205573"/>
<path d="M309.825 198.594C309.91 200.176 309.484 201.253 309.43 202.937C309.351 205.385 310.597 208.187 308.719 210.993" stroke="white" stroke-width="1.23314" stroke-linecap="round" stroke-linejoin="round"/>
<path fill-rule="evenodd" clip-rule="evenodd" d="M211.213 254.74C215.528 252.321 223.773 252.321 228.087 254.74C228.288 254.921 228.591 255.001 228.83 255.145C229.304 255.368 229.694 255.676 230.18 255.887C230.371 256.123 230.685 256.237 230.922 256.427C231.722 256.955 232.392 257.613 233.15 258.182C233.632 258.668 234.043 259.224 234.567 259.667C234.857 260.165 235.27 260.539 235.58 261.017C235.859 261.39 236.065 261.837 236.39 262.165C236.516 262.556 236.762 262.827 236.93 263.177C237.118 263.507 237.244 263.898 237.47 264.19C238.324 266.193 239.023 268.351 239.225 271.007C239.267 271.212 239.138 271.589 239.292 271.682C239.292 272.2 239.292 272.717 239.292 273.235C239.138 273.328 239.267 273.704 239.225 273.91C239.023 276.566 238.324 278.724 237.47 280.727C237.244 281.019 237.118 281.41 236.93 281.74C236.762 282.09 236.516 282.36 236.39 282.752C236.065 283.08 235.859 283.527 235.58 283.9C235.27 284.377 234.857 284.751 234.567 285.25C234.043 285.693 233.632 286.249 233.15 286.734C232.392 287.304 231.722 287.962 230.922 288.489C230.685 288.68 230.371 288.794 230.18 289.029C229.694 289.241 229.304 289.548 228.83 289.772C228.591 289.915 228.288 289.996 228.087 290.177C223.773 292.595 215.528 292.595 211.213 290.177C211.012 289.996 210.709 289.915 210.47 289.772C209.996 289.548 209.606 289.241 209.12 289.029C208.929 288.794 208.615 288.68 208.378 288.489C207.578 287.962 206.908 287.304 206.15 286.734C205.668 286.249 205.257 285.693 204.733 285.25C204.443 284.751 204.03 284.377 203.72 283.9C203.441 283.527 203.235 283.08 202.91 282.752C202.784 282.36 202.538 282.09 202.37 281.74C202.182 281.41 202.056 281.019 201.83 280.727C200.976 278.724 200.277 276.566 200.075 273.91C200.033 273.704 200.162 273.328 200.008 273.234C200.008 272.717 200.008 272.2 200.008 271.682C200.162 271.588 200.033 271.212 200.075 271.007C200.277 268.351 200.976 266.192 201.83 264.19C202.056 263.898 202.182 263.506 202.37 263.177C202.538 262.827 202.784 262.556 202.91 262.165C203.235 261.837 203.441 261.39 203.72 261.017C204.03 260.539 204.444 260.165 204.733 259.667C205.257 259.224 205.668 258.668 206.15 258.182C206.909 257.613 207.578 256.955 208.378 256.427C208.615 256.237 208.929 256.123 209.12 255.887C209.606 255.676 209.996 255.368 210.47 255.145C210.709 255.001 211.012 254.921 211.213 254.74ZM218.503 253.457C214.696 253.678 211.881 254.891 209.39 256.427C209.127 256.591 208.822 256.714 208.648 256.967C208.188 257.16 207.882 257.506 207.5 257.777C207.151 258.08 206.761 258.343 206.488 258.722C205.599 259.431 204.897 260.326 204.26 261.287C203.915 261.595 203.706 262.038 203.45 262.435C203.262 262.764 203.021 263.04 202.91 263.447C202.65 263.705 202.518 264.09 202.37 264.46C201.467 266.415 200.761 268.565 200.615 271.277C200.461 271.371 200.59 271.747 200.548 271.952C200.548 272.29 200.548 272.627 200.548 272.965C200.59 273.17 200.461 273.546 200.615 273.64C200.76 276.352 201.467 278.502 202.37 280.457C202.518 280.827 202.65 281.212 202.91 281.47C203.021 281.876 203.262 282.153 203.45 282.482C203.706 282.879 203.915 283.322 204.26 283.63C204.897 284.591 205.599 285.485 206.488 286.194C206.761 286.574 207.151 286.836 207.5 287.139C207.881 287.411 208.188 287.756 208.648 287.949C208.822 288.203 209.127 288.325 209.39 288.489C211.881 290.026 214.696 291.238 218.503 291.459C219.111 291.572 220.189 291.572 220.798 291.459C224.604 291.238 227.419 290.026 229.91 288.489C230.173 288.325 230.478 288.203 230.652 287.949C231.112 287.756 231.419 287.411 231.8 287.139C232.149 286.836 232.539 286.574 232.812 286.194C233.701 285.485 234.403 284.591 235.04 283.63C235.385 283.322 235.594 282.879 235.85 282.482C236.038 282.153 236.279 281.876 236.39 281.47C236.65 281.212 236.782 280.827 236.93 280.457C237.833 278.502 238.539 276.352 238.685 273.64C238.839 273.546 238.71 273.17 238.752 272.965C238.752 272.627 238.752 272.29 238.752 271.952C238.71 271.747 238.839 271.371 238.685 271.277C238.539 268.565 237.833 266.415 236.93 264.46C236.782 264.09 236.65 263.705 236.39 263.447C236.279 263.04 236.038 262.764 235.85 262.435C235.594 262.038 235.385 261.595 235.04 261.287C234.403 260.326 233.701 259.431 232.812 258.722C232.539 258.343 232.149 258.08 231.8 257.777C231.419 257.506 231.112 257.16 230.652 256.967C230.478 256.714 230.173 256.591 229.91 256.427C227.419 254.891 224.604 253.678 220.798 253.457C220.189 253.345 219.111 253.345 218.503 253.457Z" fill="#577FA2"/>
<path fill-rule="evenodd" clip-rule="evenodd" d="M215.403 268.577C214.451 267.146 213.452 265.89 213.445 263.582C213.432 259.092 215.515 254.558 219.858 253.93C219.951 254.084 220.328 253.955 220.533 253.997C224.279 254.278 227.097 255.488 229.645 256.967C229.837 257.203 230.15 257.317 230.388 257.507C230.579 257.609 230.675 257.805 230.928 257.845C231.805 258.61 232.684 259.373 233.493 260.207C233.782 260.706 234.196 261.079 234.505 261.557C234.785 261.93 234.99 262.377 235.315 262.705C235.441 263.096 235.688 263.367 235.855 263.717C236.043 264.047 236.169 264.438 236.395 264.73C238.655 268.808 238.655 276.108 236.395 280.187C236.169 280.479 236.043 280.87 235.855 281.199C235.688 281.549 235.441 281.82 235.315 282.212C234.99 282.54 234.785 282.986 234.505 283.359C234.196 283.837 233.782 284.211 233.493 284.709C232.684 285.543 231.805 286.306 230.928 287.072C230.675 287.112 230.579 287.308 230.388 287.409C230.15 287.6 229.837 287.714 229.645 287.949C227.286 289.325 224.678 290.452 221.343 290.852C224.496 289.46 226.181 286.601 226.81 282.684C226.965 282.547 226.835 282.124 226.878 281.874C226.963 278.909 226.236 276.756 224.853 275.259C224.588 274.939 224.296 274.646 223.975 274.382C221.678 272.427 218.634 271.218 216.213 269.387C215.971 269.089 215.701 268.819 215.403 268.577ZM226.81 261.49C225.489 260.426 224.294 259.236 221.95 259.195C221.278 258.376 218.564 257.306 218.44 258.992C218.366 259.999 219.49 260.645 219.858 261.422C220.485 262.749 220.599 264.195 221.41 264.797C220.518 266.139 220.824 270.639 222.558 270.467C223.367 270.387 223.09 269.31 223.435 268.645C223.804 269.716 224.483 270.476 225.325 271.075C225.563 271.355 225.955 271.838 226.27 271.817C225.982 271.632 225.816 271.327 225.528 271.142C224.635 269.965 223.962 268.568 223.3 267.16C222.678 267.73 222.558 268.802 222.355 269.792C221.769 269.411 221.591 268.621 221.478 267.767C221.478 267.407 221.478 267.047 221.478 266.687C221.385 265.92 222.111 265.362 221.95 264.595C221.893 264.32 221.483 264.011 221.343 263.785C220.898 263.068 220.756 262.077 220.33 261.22C219.888 260.329 219.06 259.758 219.048 258.857C220.049 258.541 220.984 259.372 221.613 259.87C223.555 259.834 224.644 260.623 225.663 261.422C227.395 262.78 228.122 264.238 229.105 266.35C229.504 267.205 229.935 268.655 230.59 269.117C231.221 269.562 232.036 269.606 232.683 269.994C233.315 270.375 233.916 270.647 234.438 271.277C233.275 271.217 232.364 271.408 231.67 271.817C231.96 272.729 232.736 273.262 233.56 273.707C234.38 274.149 235.209 274.626 235.855 275.057C235.193 273.694 233.663 273.199 232.75 272.087C233.591 271.937 234.434 271.79 235.248 271.614C234.361 270.093 232.809 269.238 231.063 268.577C229.814 266.495 229.186 263.794 227.485 262.164C227.289 261.911 227.063 261.686 226.81 261.49ZM221.95 261.017C222.096 261.434 222.468 261.624 222.558 262.097C223.235 261.863 222.772 260.767 221.95 261.017Z" fill="#FFA230"/>
<path fill-rule="evenodd" clip-rule="evenodd" d="M219.852 253.932C220.057 253.975 220.433 253.846 220.527 254C220.321 253.958 219.945 254.086 219.852 253.932Z" fill="#FFCE92"/>
<path fill-rule="evenodd" clip-rule="evenodd" d="M211.759 255.819C213.389 255.132 215.072 254.497 217.091 254.199C217.147 254.395 216.663 254.522 216.349 254.739C214.292 256.157 212.879 258.776 212.569 262.029C212.412 262.278 212.545 262.816 212.501 263.177C212.541 270.449 218.869 271.434 222.964 274.652C223.205 274.95 223.475 275.22 223.774 275.462C224.695 276.738 225.781 278.25 225.866 280.524C225.969 283.257 225.166 286.449 223.774 287.949C223.52 288.146 223.295 288.371 223.099 288.624C222.051 289.731 220.827 290.637 219.049 290.851C216.522 291.157 213.696 289.764 211.759 289.096C211.558 288.915 211.255 288.835 211.016 288.691C210.542 288.468 210.152 288.16 209.666 287.949C209.475 287.713 209.161 287.599 208.924 287.409C208.124 286.881 207.455 286.223 206.696 285.654C206.426 285.316 206.172 284.963 205.819 284.709C205.53 284.211 205.116 283.837 204.806 283.359C204.527 282.986 204.321 282.539 203.996 282.212C203.87 281.82 203.624 281.549 203.456 281.199C203.268 280.87 203.142 280.478 202.916 280.187C202.062 278.184 201.363 276.025 201.161 273.369C201.119 273.164 201.248 272.788 201.094 272.694C201.094 272.537 201.094 272.379 201.094 272.222C201.248 272.128 201.119 271.752 201.161 271.547C201.363 268.891 202.062 266.732 202.916 264.729C203.142 264.438 203.268 264.046 203.456 263.717C203.624 263.367 203.87 263.096 203.996 262.704C204.321 262.377 204.527 261.93 204.806 261.557C205.116 261.079 205.53 260.705 205.819 260.207C206.172 259.953 206.426 259.599 206.696 259.262C207.455 258.693 208.124 258.034 208.924 257.507C209.161 257.316 209.475 257.203 209.666 256.967C210.152 256.755 210.542 256.448 211.016 256.224C211.255 256.081 211.558 256.001 211.759 255.819ZM218.104 278.094C218.196 278.861 217.471 279.419 217.631 280.186C217.689 280.464 218.098 280.769 218.239 280.996C218.683 281.713 218.825 282.704 219.251 283.561C219.693 284.452 220.529 285.02 220.534 285.924C219.533 286.24 218.597 285.409 217.969 284.911C216.026 284.952 214.929 284.151 213.919 283.359C212.19 282.003 211.433 280.533 210.476 278.431C210.085 277.573 209.638 276.12 208.991 275.664C208.344 275.208 207.468 275.247 206.831 274.854C206.178 274.451 205.708 274.062 205.144 273.504C206.31 273.568 207.204 273.359 207.911 272.964C207.537 271.545 205.986 271.212 204.874 270.534C204.433 270.266 204.182 269.806 203.726 269.724C204.396 271.079 205.92 271.58 206.831 272.694C206.004 272.856 205.14 272.983 204.334 273.167C205.224 274.683 206.777 275.538 208.519 276.204C209.77 278.283 210.395 280.988 212.096 282.616C212.293 282.87 212.518 283.095 212.771 283.291C214.093 284.355 215.288 285.545 217.631 285.586C218.31 286.405 221.013 287.47 221.141 285.789C221.217 284.793 220.088 284.13 219.724 283.359C219.097 282.033 218.978 280.587 218.171 279.984C219.06 278.655 218.752 274.127 217.024 274.314C216.218 274.401 216.499 275.476 216.146 276.137C215.785 275.103 215.151 274.342 214.324 273.774C214.059 273.476 213.657 272.956 213.311 272.964C213.621 273.171 213.811 273.499 214.121 273.707C214.88 274.905 215.702 276.041 216.146 277.554C217.016 277.209 216.954 275.932 217.226 274.989C217.82 275.34 217.96 276.145 218.104 276.947C218.104 277.329 218.104 277.711 218.104 278.094ZM217.631 283.764C217.495 283.337 217.099 283.171 217.024 282.684C216.363 282.935 216.801 284.005 217.631 283.764Z" fill="#577FA2"/>
<path fill-rule="evenodd" clip-rule="evenodd" d="M212.563 262.027C212.519 262.388 212.652 262.926 212.495 263.175C212.539 262.814 212.407 262.276 212.563 262.027Z" fill="#ADC0D1"/>
<path fill-rule="evenodd" clip-rule="evenodd" d="M221.475 266.684C221.475 267.044 221.475 267.404 221.475 267.764C221.363 267.559 221.363 266.888 221.475 266.684Z" fill="#FFCE92"/>
<path fill-rule="evenodd" clip-rule="evenodd" d="M200.011 271.683C200.053 271.478 199.924 271.101 200.078 271.008C200.036 271.213 200.164 271.589 200.011 271.683Z" fill="#ADC0D1"/>
<path fill-rule="evenodd" clip-rule="evenodd" d="M239.229 271.008C239.383 271.101 239.255 271.478 239.297 271.683C239.143 271.589 239.272 271.213 239.229 271.008Z" fill="#ADC0D1"/>
<path fill-rule="evenodd" clip-rule="evenodd" d="M200.617 271.277C200.617 271.502 200.617 271.727 200.617 271.952C200.595 271.952 200.572 271.952 200.55 271.952C200.592 271.747 200.463 271.371 200.617 271.277Z" fill="#ADC0D1"/>
<path fill-rule="evenodd" clip-rule="evenodd" d="M238.688 271.277C238.841 271.371 238.713 271.747 238.755 271.952C238.733 271.952 238.71 271.952 238.688 271.952C238.688 271.727 238.688 271.502 238.688 271.277Z" fill="#ADC0D1"/>
<path fill-rule="evenodd" clip-rule="evenodd" d="M201.089 272.222C201.131 272.017 201.002 271.64 201.156 271.547C201.114 271.752 201.243 272.128 201.089 272.222Z" fill="#ADC0D1"/>
<path fill-rule="evenodd" clip-rule="evenodd" d="M200.547 271.953C200.569 271.953 200.592 271.953 200.614 271.953C200.614 272.291 200.614 272.628 200.614 272.966C200.592 272.966 200.569 272.966 200.547 272.966C200.547 272.628 200.547 272.291 200.547 271.953Z" fill="#FEFEFE"/>
<path fill-rule="evenodd" clip-rule="evenodd" d="M238.688 271.953C238.71 271.953 238.733 271.953 238.755 271.953C238.755 272.291 238.755 272.628 238.755 272.966C238.733 272.966 238.71 272.966 238.688 272.966C238.688 272.628 238.688 272.291 238.688 271.953Z" fill="#FEFEFE"/>
<path fill-rule="evenodd" clip-rule="evenodd" d="M201.089 272.695C201.243 272.789 201.114 273.165 201.156 273.37C201.002 273.277 201.131 272.9 201.089 272.695Z" fill="#ADC0D1"/>
<path fill-rule="evenodd" clip-rule="evenodd" d="M200.55 272.965C200.572 272.965 200.595 272.965 200.617 272.965C200.617 273.19 200.617 273.415 200.617 273.64C200.463 273.546 200.592 273.17 200.55 272.965Z" fill="#ADC0D1"/>
<path fill-rule="evenodd" clip-rule="evenodd" d="M238.688 272.965C238.71 272.965 238.733 272.965 238.755 272.965C238.713 273.17 238.841 273.546 238.688 273.64C238.688 273.415 238.688 273.19 238.688 272.965Z" fill="#ADC0D1"/>
<path fill-rule="evenodd" clip-rule="evenodd" d="M200.011 273.234C200.164 273.328 200.036 273.704 200.078 273.909C199.924 273.816 200.053 273.44 200.011 273.234Z" fill="#ADC0D1"/>
<path fill-rule="evenodd" clip-rule="evenodd" d="M239.297 273.234C239.255 273.44 239.383 273.816 239.229 273.909C239.272 273.704 239.143 273.328 239.297 273.234Z" fill="#ADC0D1"/>
<path fill-rule="evenodd" clip-rule="evenodd" d="M218.102 276.945C218.214 277.172 218.214 277.866 218.102 278.093C218.102 277.71 218.102 277.328 218.102 276.945Z" fill="#ADC0D1"/>
<path fill-rule="evenodd" clip-rule="evenodd" d="M226.808 282.685C226.851 282.436 226.72 282.013 226.875 281.875C226.832 282.124 226.963 282.547 226.808 282.685Z" fill="#FFCE92"/>
<path fill-rule="evenodd" clip-rule="evenodd" d="M210.477 255.143C210.646 254.93 210.938 254.84 211.219 254.738C211.018 254.92 210.716 255 210.477 255.143Z" fill="#ADC0D1"/>
<path fill-rule="evenodd" clip-rule="evenodd" d="M208.383 256.427C208.557 256.174 208.862 256.051 209.125 255.887C208.934 256.123 208.62 256.237 208.383 256.427Z" fill="#ADC0D1"/>
<path fill-rule="evenodd" clip-rule="evenodd" d="M204.734 259.669C205.198 259.165 205.614 258.614 206.152 258.184C205.67 258.669 205.259 259.226 204.734 259.669Z" fill="#ADC0D1"/>
<path fill-rule="evenodd" clip-rule="evenodd" d="M202.914 262.167C203.17 261.77 203.379 261.327 203.724 261.02C203.444 261.392 203.239 261.839 202.914 262.167Z" fill="#ADC0D1"/>
<path fill-rule="evenodd" clip-rule="evenodd" d="M201.836 264.188C201.984 263.819 202.116 263.433 202.376 263.176C202.188 263.505 202.062 263.897 201.836 264.188Z" fill="#ADC0D1"/>
<path fill-rule="evenodd" clip-rule="evenodd" d="M201.836 280.727C202.062 281.018 202.188 281.41 202.376 281.739C202.116 281.482 201.984 281.096 201.836 280.727Z" fill="#ADC0D1"/>
<path fill-rule="evenodd" clip-rule="evenodd" d="M203.724 283.898C203.379 283.59 203.17 283.147 202.914 282.75C203.239 283.078 203.444 283.525 203.724 283.898Z" fill="#ADC0D1"/>
<path fill-rule="evenodd" clip-rule="evenodd" d="M206.152 286.735C205.614 286.305 205.198 285.754 204.734 285.25C205.259 285.693 205.67 286.249 206.152 286.735Z" fill="#ADC0D1"/>
<path fill-rule="evenodd" clip-rule="evenodd" d="M209.125 289.028C208.862 288.864 208.557 288.741 208.383 288.488C208.62 288.679 208.934 288.792 209.125 289.028Z" fill="#ADC0D1"/>
<path fill-rule="evenodd" clip-rule="evenodd" d="M211.219 290.175C210.938 290.073 210.646 289.983 210.477 289.77C210.716 289.913 211.018 289.993 211.219 290.175Z" fill="#ADC0D1"/>
<path fill-rule="evenodd" clip-rule="evenodd" d="M228.086 290.175C228.287 289.993 228.589 289.913 228.828 289.77C228.659 289.983 228.367 290.073 228.086 290.175Z" fill="#ADC0D1"/>
<path fill-rule="evenodd" clip-rule="evenodd" d="M230.18 289.028C230.371 288.792 230.685 288.679 230.922 288.488C230.748 288.741 230.443 288.864 230.18 289.028Z" fill="#ADC0D1"/>
<path fill-rule="evenodd" clip-rule="evenodd" d="M233.156 286.735C233.638 286.249 234.049 285.693 234.574 285.25C234.11 285.754 233.694 286.305 233.156 286.735Z" fill="#ADC0D1"/>
<path fill-rule="evenodd" clip-rule="evenodd" d="M236.396 282.75C236.14 283.147 235.931 283.59 235.586 283.898C235.866 283.525 236.071 283.078 236.396 282.75Z" fill="#ADC0D1"/>
<path fill-rule="evenodd" clip-rule="evenodd" d="M237.47 280.727C237.322 281.096 237.19 281.482 236.93 281.739C237.118 281.41 237.244 281.018 237.47 280.727Z" fill="#ADC0D1"/>
<path fill-rule="evenodd" clip-rule="evenodd" d="M236.93 263.176C237.19 263.433 237.322 263.819 237.47 264.188C237.244 263.897 237.118 263.505 236.93 263.176Z" fill="#ADC0D1"/>
<path fill-rule="evenodd" clip-rule="evenodd" d="M235.586 261.02C235.931 261.327 236.14 261.77 236.396 262.167C236.071 261.839 235.866 261.392 235.586 261.02Z" fill="#ADC0D1"/>
<path fill-rule="evenodd" clip-rule="evenodd" d="M233.156 258.184C233.694 258.614 234.11 259.165 234.574 259.669C234.049 259.226 233.638 258.669 233.156 258.184Z" fill="#ADC0D1"/>
<path fill-rule="evenodd" clip-rule="evenodd" d="M230.18 255.887C230.443 256.051 230.748 256.174 230.922 256.427C230.685 256.236 230.371 256.123 230.18 255.887Z" fill="#ADC0D1"/>
<path fill-rule="evenodd" clip-rule="evenodd" d="M228.086 254.738C228.367 254.84 228.659 254.93 228.828 255.143C228.589 255 228.287 254.92 228.086 254.738Z" fill="#ADC0D1"/>
<path fill-rule="evenodd" clip-rule="evenodd" d="M208.648 256.966C208.823 256.713 209.128 256.59 209.391 256.426C209.199 256.662 208.886 256.776 208.648 256.966Z" fill="#ADC0D1"/>
<path fill-rule="evenodd" clip-rule="evenodd" d="M206.492 258.722C206.765 258.343 207.155 258.081 207.505 257.777C207.219 258.144 206.82 258.398 206.492 258.722Z" fill="#ADC0D1"/>
<path fill-rule="evenodd" clip-rule="evenodd" d="M203.453 262.433C203.709 262.036 203.918 261.593 204.263 261.285C203.984 261.658 203.778 262.105 203.453 262.433Z" fill="#ADC0D1"/>
<path fill-rule="evenodd" clip-rule="evenodd" d="M202.375 264.462C202.523 264.092 202.655 263.706 202.915 263.449C202.727 263.779 202.601 264.17 202.375 264.462Z" fill="#ADC0D1"/>
<path fill-rule="evenodd" clip-rule="evenodd" d="M202.375 280.457C202.601 280.749 202.727 281.14 202.915 281.47C202.655 281.212 202.523 280.827 202.375 280.457Z" fill="#ADC0D1"/>
<path fill-rule="evenodd" clip-rule="evenodd" d="M203.453 282.48C203.778 282.808 203.984 283.255 204.263 283.628C203.918 283.321 203.709 282.877 203.453 282.48Z" fill="#ADC0D1"/>
<path fill-rule="evenodd" clip-rule="evenodd" d="M206.492 286.195C206.82 286.52 207.219 286.774 207.505 287.14C207.155 286.837 206.765 286.575 206.492 286.195Z" fill="#ADC0D1"/>
<path fill-rule="evenodd" clip-rule="evenodd" d="M208.648 287.949C208.886 288.139 209.199 288.253 209.391 288.489C209.128 288.325 208.823 288.202 208.648 287.949Z" fill="#ADC0D1"/>
<path fill-rule="evenodd" clip-rule="evenodd" d="M229.914 288.489C230.106 288.253 230.419 288.139 230.657 287.949C230.482 288.202 230.177 288.325 229.914 288.489Z" fill="#ADC0D1"/>
<path fill-rule="evenodd" clip-rule="evenodd" d="M231.805 287.14C232.091 286.774 232.489 286.52 232.817 286.195C232.544 286.575 232.154 286.837 231.805 287.14Z" fill="#ADC0D1"/>
<path fill-rule="evenodd" clip-rule="evenodd" d="M235.039 283.628C235.319 283.255 235.524 282.808 235.849 282.48C235.594 282.877 235.384 283.321 235.039 283.628Z" fill="#ADC0D1"/>
<path fill-rule="evenodd" clip-rule="evenodd" d="M236.391 281.47C236.579 281.14 236.705 280.749 236.931 280.457C236.783 280.827 236.651 281.212 236.391 281.47Z" fill="#ADC0D1"/>
<path fill-rule="evenodd" clip-rule="evenodd" d="M236.931 264.462C236.705 264.17 236.579 263.779 236.391 263.449C236.651 263.706 236.783 264.092 236.931 264.462Z" fill="#ADC0D1"/>
<path fill-rule="evenodd" clip-rule="evenodd" d="M235.849 262.433C235.524 262.105 235.319 261.658 235.039 261.285C235.384 261.593 235.594 262.036 235.849 262.433Z" fill="#ADC0D1"/>
<path fill-rule="evenodd" clip-rule="evenodd" d="M231.805 257.777C232.154 258.08 232.544 258.343 232.817 258.722C232.489 258.398 232.091 258.144 231.805 257.777Z" fill="#ADC0D1"/>
<path fill-rule="evenodd" clip-rule="evenodd" d="M230.657 256.966C230.419 256.776 230.106 256.662 229.914 256.426C230.177 256.59 230.482 256.713 230.657 256.966Z" fill="#ADC0D1"/>
<path fill-rule="evenodd" clip-rule="evenodd" d="M215.398 268.578C215.697 268.82 215.967 269.09 216.208 269.388C215.91 269.146 215.64 268.876 215.398 268.578Z" fill="#FFCE92"/>
<path fill-rule="evenodd" clip-rule="evenodd" d="M223.969 274.383C224.29 274.647 224.582 274.94 224.846 275.26C224.526 274.996 224.233 274.703 223.969 274.383Z" fill="#FFCE92"/>
<path fill-rule="evenodd" clip-rule="evenodd" d="M229.641 287.95C229.832 287.714 230.146 287.6 230.383 287.41C230.209 287.663 229.904 287.786 229.641 287.95Z" fill="#FFCE92"/>
<path fill-rule="evenodd" clip-rule="evenodd" d="M230.922 287.073C231.799 286.308 232.678 285.545 233.487 284.711C232.736 285.603 231.862 286.371 230.922 287.073Z" fill="#FFCE92"/>
<path fill-rule="evenodd" clip-rule="evenodd" d="M235.31 282.211C235.055 282.608 234.845 283.051 234.5 283.358C234.78 282.985 234.985 282.538 235.31 282.211Z" fill="#FFCE92"/>
<path fill-rule="evenodd" clip-rule="evenodd" d="M236.392 280.188C236.244 280.557 236.112 280.943 235.852 281.2C236.04 280.871 236.166 280.479 236.392 280.188Z" fill="#FFCE92"/>
<path fill-rule="evenodd" clip-rule="evenodd" d="M235.852 263.715C236.112 263.972 236.244 264.358 236.392 264.727C236.166 264.436 236.04 264.044 235.852 263.715Z" fill="#FFCE92"/>
<path fill-rule="evenodd" clip-rule="evenodd" d="M234.5 261.559C234.845 261.866 235.055 262.309 235.31 262.706C234.985 262.378 234.78 261.931 234.5 261.559Z" fill="#FFCE92"/>
<path fill-rule="evenodd" clip-rule="evenodd" d="M230.922 257.844C231.862 258.546 232.736 259.314 233.487 260.206C232.678 259.372 231.799 258.609 230.922 257.844Z" fill="#FFCE92"/>
<path fill-rule="evenodd" clip-rule="evenodd" d="M229.641 256.969C229.904 257.133 230.209 257.256 230.383 257.509C230.146 257.319 229.832 257.205 229.641 256.969Z" fill="#FFCE92"/>
<path fill-rule="evenodd" clip-rule="evenodd" d="M211.016 256.225C211.185 256.012 211.477 255.922 211.758 255.82C211.557 256.002 211.255 256.082 211.016 256.225Z" fill="#ADC0D1"/>
<path fill-rule="evenodd" clip-rule="evenodd" d="M208.922 257.509C209.096 257.256 209.401 257.133 209.664 256.969C209.473 257.205 209.159 257.319 208.922 257.509Z" fill="#ADC0D1"/>
<path fill-rule="evenodd" clip-rule="evenodd" d="M205.812 260.207C206.113 259.899 206.355 259.534 206.69 259.262C206.42 259.599 206.166 259.953 205.812 260.207Z" fill="#ADC0D1"/>
<path fill-rule="evenodd" clip-rule="evenodd" d="M203.992 262.706C204.248 262.309 204.457 261.866 204.802 261.559C204.522 261.932 204.317 262.379 203.992 262.706Z" fill="#ADC0D1"/>
<path fill-rule="evenodd" clip-rule="evenodd" d="M202.914 264.727C203.062 264.358 203.194 263.972 203.454 263.715C203.266 264.044 203.14 264.436 202.914 264.727Z" fill="#ADC0D1"/>
<path fill-rule="evenodd" clip-rule="evenodd" d="M202.914 280.188C203.14 280.479 203.266 280.871 203.454 281.2C203.194 280.943 203.062 280.557 202.914 280.188Z" fill="#ADC0D1"/>
<path fill-rule="evenodd" clip-rule="evenodd" d="M204.802 283.358C204.457 283.051 204.248 282.608 203.992 282.211C204.317 282.538 204.522 282.985 204.802 283.358Z" fill="#ADC0D1"/>
<path fill-rule="evenodd" clip-rule="evenodd" d="M206.69 285.656C206.355 285.384 206.113 285.018 205.812 284.711C206.166 284.965 206.42 285.318 206.69 285.656Z" fill="#ADC0D1"/>
<path fill-rule="evenodd" clip-rule="evenodd" d="M209.664 287.95C209.401 287.786 209.096 287.663 208.922 287.41C209.159 287.6 209.473 287.714 209.664 287.95Z" fill="#ADC0D1"/>
<path fill-rule="evenodd" clip-rule="evenodd" d="M211.758 289.096C211.477 288.995 211.185 288.905 211.016 288.691C211.255 288.835 211.557 288.915 211.758 289.096Z" fill="#ADC0D1"/>
<path fill-rule="evenodd" clip-rule="evenodd" d="M223.094 288.624C223.29 288.371 223.516 288.146 223.769 287.949C223.572 288.203 223.347 288.427 223.094 288.624Z" fill="#ADC0D1"/>
<path fill-rule="evenodd" clip-rule="evenodd" d="M222.961 274.652C223.259 274.894 223.529 275.164 223.771 275.462C223.473 275.221 223.203 274.951 222.961 274.652Z" fill="#ADC0D1"/>
<path fill-rule="evenodd" clip-rule="evenodd" d="M225.523 271.145C225.811 271.33 225.978 271.635 226.265 271.82C225.95 271.841 225.559 271.357 225.32 271.077C225.418 271.041 225.485 271.34 225.523 271.145Z" fill="#FFCE92"/>
<path fill-rule="evenodd" clip-rule="evenodd" d="M227.486 262.164C229.187 263.793 229.815 266.494 231.063 268.576C232.809 269.238 234.362 270.092 235.248 271.613C234.434 271.789 233.591 271.937 232.751 272.086C233.664 273.198 235.194 273.693 235.856 275.056C235.209 274.626 234.381 274.149 233.561 273.706C232.736 273.261 231.961 272.729 231.671 271.816C232.364 271.407 233.275 271.216 234.438 271.276C233.917 270.646 233.316 270.374 232.683 269.994C232.036 269.605 231.222 269.561 230.591 269.116C229.935 268.654 229.504 267.204 229.106 266.349C228.122 264.237 227.395 262.779 225.663 261.421C224.645 260.622 223.556 259.833 221.613 259.869C220.985 259.371 220.049 258.54 219.048 258.856C219.061 259.757 219.889 260.329 220.331 261.219C220.757 262.076 220.899 263.067 221.343 263.784C221.483 264.01 221.894 264.319 221.951 264.594C222.111 265.361 221.386 265.919 221.478 266.686C221.366 266.891 221.366 267.561 221.478 267.766C221.592 268.62 221.769 269.41 222.356 269.791C222.559 268.801 222.679 267.729 223.301 267.159C223.962 268.567 224.635 269.964 225.528 271.141C225.491 271.337 225.423 271.038 225.326 271.074C224.484 270.476 223.805 269.715 223.436 268.644C223.091 269.309 223.368 270.386 222.558 270.466C220.825 270.638 220.519 266.138 221.411 264.796C220.599 264.194 220.486 262.749 219.858 261.421C219.491 260.644 218.367 259.998 218.441 258.991C218.565 257.305 221.279 258.375 221.951 259.194C224.294 259.235 225.489 260.425 226.811 261.489C227.008 261.742 227.233 261.967 227.486 262.164Z" fill="#FEFEFE"/>
<path fill-rule="evenodd" clip-rule="evenodd" d="M226.805 261.488C227.058 261.685 227.283 261.91 227.48 262.163C227.226 261.967 227.001 261.742 226.805 261.488Z" fill="#FFCE92"/>
<path fill-rule="evenodd" clip-rule="evenodd" d="M222.553 262.097C222.463 261.624 222.091 261.434 221.945 261.017C222.767 260.767 223.23 261.863 222.553 262.097Z" fill="#FEFEFE"/>
<path fill-rule="evenodd" clip-rule="evenodd" d="M212.094 282.617C212.347 282.814 212.572 283.039 212.769 283.292C212.515 283.095 212.29 282.87 212.094 282.617Z" fill="#ADC0D1"/>
<path fill-rule="evenodd" clip-rule="evenodd" d="M214.115 273.707C213.805 273.5 213.615 273.172 213.305 272.965C213.651 272.957 214.052 273.477 214.317 273.775C214.22 273.811 214.152 273.512 214.115 273.707Z" fill="#ADC0D1"/>
<path fill-rule="evenodd" clip-rule="evenodd" d="M212.097 282.615C210.395 280.986 209.77 278.282 208.519 276.203C206.777 275.537 205.225 274.682 204.334 273.165C205.14 272.981 206.004 272.855 206.831 272.693C205.92 271.579 204.397 271.078 203.727 269.723C204.182 269.804 204.434 270.264 204.874 270.533C205.986 271.21 207.537 271.544 207.912 272.963C207.204 273.357 206.311 273.567 205.144 273.503C205.708 274.061 206.178 274.45 206.831 274.853C207.469 275.245 208.344 275.206 208.991 275.663C209.639 276.119 210.085 277.571 210.476 278.43C211.433 280.531 212.19 282.002 213.919 283.357C214.929 284.149 216.027 284.95 217.969 284.91C218.597 285.408 219.533 286.239 220.534 285.922C220.529 285.018 219.694 284.45 219.251 283.56C218.825 282.702 218.683 281.712 218.239 280.995C218.098 280.767 217.689 280.463 217.631 280.185C217.471 279.418 218.196 278.859 218.104 278.093C218.216 277.865 218.216 277.172 218.104 276.945C217.961 276.143 217.82 275.339 217.226 274.988C216.954 275.93 217.016 277.208 216.146 277.553C215.702 276.039 214.88 274.904 214.121 273.705C214.159 273.51 214.227 273.809 214.324 273.773C215.151 274.34 215.785 275.102 216.146 276.135C216.499 275.475 216.218 274.4 217.024 274.313C218.752 274.126 219.06 278.654 218.171 279.983C218.978 280.585 219.097 282.031 219.724 283.357C220.088 284.128 221.218 284.791 221.141 285.787C221.013 287.468 218.31 286.403 217.632 285.585C215.288 285.543 214.093 284.353 212.772 283.29C212.575 283.037 212.35 282.812 212.097 282.615Z" fill="#FEFEFE"/>
<path fill-rule="evenodd" clip-rule="evenodd" d="M217.016 282.684C217.092 283.17 217.488 283.337 217.624 283.764C216.793 284.005 216.355 282.934 217.016 282.684Z" fill="#FEFEFE"/>
<path fill-rule="evenodd" clip-rule="evenodd" d="M218.508 253.455C219.116 253.343 220.195 253.343 220.803 253.455C220.038 253.455 219.273 253.455 218.508 253.455Z" fill="#ADC0D1"/>
<path fill-rule="evenodd" clip-rule="evenodd" d="M218.508 291.461C219.273 291.461 220.038 291.461 220.803 291.461C220.195 291.573 219.116 291.573 218.508 291.461Z" fill="#ADC0D1"/>
<path d="M146.203 189.11C144.111 186.69 142.308 184.215 141.942 183.707C141.935 183.696 141.925 183.687 141.913 183.681C141.901 183.675 141.888 183.672 141.875 183.672C141.861 183.672 141.848 183.675 141.836 183.681C141.825 183.687 141.814 183.696 141.807 183.707C141.441 184.215 139.639 186.69 137.547 189.11C119.615 211.502 140.377 226.61 140.377 226.61L140.545 226.725C140.703 229.062 141.094 232.421 141.094 232.421H142.656C142.656 232.421 143.046 229.077 143.204 226.74L143.373 226.61C143.373 226.61 164.135 211.502 146.203 189.11ZM141.875 226.282C141.875 226.282 140.944 225.503 140.693 225.114L140.691 225.072L141.816 200.693C141.817 200.678 141.823 200.664 141.834 200.654C141.845 200.643 141.86 200.638 141.875 200.638C141.89 200.638 141.904 200.643 141.915 200.654C141.926 200.664 141.933 200.678 141.933 200.693L143.059 225.072L143.057 225.113C142.806 225.503 141.875 226.282 141.875 226.282Z" fill="#00684A"/>
<path d="M136.658 273.523V294.013L68.3281 333.593V313.113L136.658 273.523Z" fill="#B3B3B3" stroke="black" stroke-width="0.5" stroke-miterlimit="10"/>
<path d="M0 273.875V294.355L68.33 333.595V313.115L0 273.875Z" fill="#999999" stroke="black" stroke-width="0.5" stroke-miterlimit="10"/>
<path opacity="0.49" d="M142.922 208.512V98.2716L206.322 58.6815V7.85156" stroke="#3399FF" stroke-width="7" stroke-miterlimit="10"/>
<path opacity="0.49" d="M296.768 208.514V98.2738L233.648 60.1738V9.34375" stroke="#3399FF" stroke-width="7" stroke-miterlimit="10"/>
<path opacity="0.49" d="M219.703 0V138.44" stroke="#3399FF" stroke-width="7" stroke-miterlimit="10"/>
<path opacity="0.49" d="M219.703 15.7031V274.073" stroke="#3399FF" stroke-width="7" stroke-miterlimit="10"/>
<path opacity="0.49" d="M68.3281 271.36V144.59L206.318 58.68V0" stroke="#3399FF" stroke-width="7" stroke-miterlimit="10"/>
<path opacity="0.49" d="M371.638 271.36V144.59L233.648 58.68V0" stroke="#3399FF" stroke-width="7" stroke-miterlimit="10"/>
</g>
<defs>
<linearGradient id="paint0_linear_866_5926" x1="372.611" y1="252.172" x2="372.611" y2="292.361" gradientUnits="userSpaceOnUse">
<stop stop-color="#4387FD"/>
<stop offset="1" stop-color="#4683EA"/>
</linearGradient>
<clipPath id="clip0_866_5926">
<rect width="442" height="334" fill="white"/>
</clipPath>
</defs>
</svg>
