<svg width="360" height="361" viewBox="0 0 360 361" fill="none" xmlns="http://www.w3.org/2000/svg">
<g clip-path="url(#clip0_4419_113598)">
<rect width="360" height="361" fill="white"/>
<g clip-path="url(#clip1_4419_113598)">
<path d="M197.12 145.201H1.10773V298.59H197.12V145.201Z" fill="#ECEBFF" stroke="white" stroke-width="2" stroke-miterlimit="10"/>
<path d="M358.903 1.25574H87.3664V219.893H358.903V1.25574Z" fill="#F4FBFF" stroke="white" stroke-width="2" stroke-miterlimit="10"/>
<path d="M39.2024 258.142L36.8541 255.48L49.6151 241.014L37.0202 226.749L39.3686 224.074L54.3118 241.014L39.2024 258.142Z" fill="black"/>
<path d="M87.3553 259.26H59.6843V263.027H87.3553V259.26Z" fill="black"/>
<path d="M104.857 24.6C107.445 24.6 109.543 22.2218 109.543 19.2882C109.543 16.3546 107.445 13.9764 104.857 13.9764C102.27 13.9764 100.172 16.3546 100.172 19.2882C100.172 22.2218 102.27 24.6 104.857 24.6Z" fill="black"/>
<path d="M122.747 24.6C125.335 24.6 127.433 22.2218 127.433 19.2882C127.433 16.3546 125.335 13.9764 122.747 13.9764C120.159 13.9764 118.061 16.3546 118.061 19.2882C118.061 22.2218 120.159 24.6 122.747 24.6Z" fill="black"/>
<path d="M140.637 24.6C143.225 24.6 145.323 22.2218 145.323 19.2882C145.323 16.3546 143.225 13.9764 140.637 13.9764C138.049 13.9764 135.951 16.3546 135.951 19.2882C135.951 22.2218 138.049 24.6 140.637 24.6Z" fill="black"/>
<path d="M217.38 58.4547H100.836V111.346H217.38V58.4547Z" stroke="black" stroke-width="2" stroke-miterlimit="10"/>
<path d="M345.433 58.4547H228.89V179.37H345.433V58.4547Z" stroke="black" stroke-width="2" stroke-miterlimit="10"/>
<path d="M217.38 126.478H100.836V179.37H217.38V126.478Z" stroke="black" stroke-width="2" stroke-miterlimit="10"/>
<path d="M272.434 246.125H226.153V298.59H272.434V246.125Z" fill="#F2F2F2" stroke="black" stroke-width="2" stroke-miterlimit="10"/>
<path d="M325.971 307.279H279.69V359.744H325.971V307.279Z" fill="#F2F2F2" stroke="black" stroke-width="2" stroke-miterlimit="10"/>
<path d="M272.434 307.279H226.153V359.744H272.434V307.279Z" fill="#F2F2F2" stroke="black" stroke-width="2" stroke-miterlimit="10"/>
<path d="M319.579 272.37C319.579 271.704 319.579 271.051 319.491 270.411L325.926 263.818L324.475 259.863L315.813 260.365C315.089 259.345 314.272 258.415 313.376 257.59L313.819 247.77L310.33 246.137L304.514 253.433C303.94 253.362 303.363 253.328 302.786 253.333C302.209 253.329 301.632 253.362 301.058 253.433L295.253 246.137L291.753 247.77L292.196 257.59C291.303 258.418 290.486 259.348 289.759 260.365L281.097 259.863L279.645 263.818L286.081 270.411C286.081 271.051 285.993 271.667 285.993 272.37C285.993 273.073 285.993 273.626 286.081 274.329L279.645 280.909L281.097 284.877L289.759 284.375C290.489 285.384 291.305 286.31 292.196 287.137L291.753 296.957L295.253 298.602L301.058 291.306C301.634 291.369 302.166 291.394 302.786 291.394C303.406 291.394 303.894 291.394 304.514 291.306L310.33 298.602L313.819 296.957L313.376 287.137C314.269 286.313 315.086 285.387 315.813 284.375L324.475 284.877L325.926 280.909L319.579 274.354C319.579 273.676 319.579 273.023 319.579 272.37ZM302.786 280.959C301.287 280.959 299.823 280.455 298.577 279.512C297.33 278.568 296.359 277.226 295.786 275.657C295.212 274.087 295.062 272.36 295.355 270.694C295.647 269.028 296.369 267.498 297.428 266.296C298.488 265.095 299.838 264.277 301.308 263.946C302.778 263.614 304.301 263.784 305.685 264.434C307.07 265.085 308.253 266.185 309.086 267.598C309.918 269.01 310.363 270.671 310.363 272.37C310.363 274.639 309.571 276.816 308.159 278.426C306.748 280.035 304.832 280.946 302.83 280.959H302.786Z" fill="#FF5353" stroke="black" stroke-width="2" stroke-miterlimit="10"/>
</g>
</g>
<defs>
<clipPath id="clip0_4419_113598">
<rect width="360" height="361" fill="white"/>
</clipPath>
<clipPath id="clip1_4419_113598">
<rect width="360" height="361" fill="white"/>
</clipPath>
</defs>
</svg>
