<svg width="318" height="223" viewBox="0 0 318 223" fill="none" xmlns="http://www.w3.org/2000/svg">
<path d="M257.48 0H66.8722C58.0998 0 50.9883 7.11149 50.9883 15.884V206.492C50.9883 215.264 58.0998 222.375 66.8722 222.375H257.48C266.252 222.375 273.364 215.264 273.364 206.492V15.884C273.364 7.11149 266.252 0 257.48 0Z" fill="url(#paint0_linear_6164_17830)"/>
<g filter="url(#filter0_d_6164_17830)">
<path d="M232.067 15.884H17.6334C13.2472 15.884 9.69141 19.4398 9.69141 23.826V63.5359C9.69141 67.9222 13.2472 71.4779 17.6334 71.4779H232.067C236.453 71.4779 240.009 67.9222 240.009 63.5359V23.826C240.009 19.4398 236.453 15.884 232.067 15.884Z" fill="white"/>
</g>
<path d="M119.29 28.5911H77.9918C75.36 28.5911 73.2266 30.7245 73.2266 33.3563C73.2266 35.988 75.36 38.1214 77.9918 38.1214H119.29C121.922 38.1214 124.055 35.988 124.055 33.3563C124.055 30.7245 121.922 28.5911 119.29 28.5911Z" fill="#BED3FE"/>
<path d="M147.881 49.2405H77.9918C75.36 49.2405 73.2266 51.3739 73.2266 54.0057C73.2266 56.6374 75.36 58.7709 77.9918 58.7709H147.881C150.513 58.7709 152.646 56.6374 152.646 54.0057C152.646 51.3739 150.513 49.2405 147.881 49.2405Z" fill="#DCE7FE"/>
<path d="M52.5766 20.6492H22.3971C18.0108 20.6492 14.4551 24.2049 14.4551 28.5912V58.7707C14.4551 63.1569 18.0108 66.7127 22.3971 66.7127H52.5766C56.9628 66.7127 60.5186 63.1569 60.5186 58.7707V28.5912C60.5186 24.2049 56.9628 20.6492 52.5766 20.6492Z" fill="#3B7AF7"/>
<path d="M33.8672 48.8906H37.044L37.079 47.6675C37.079 46.0601 38.0924 45.6407 39.5251 45.1865C40.9623 44.7776 42.2273 43.912 43.1289 42.7204C44.0304 41.5288 44.5195 40.0761 44.5222 38.5819C44.5537 37.6696 44.3954 36.7607 44.0574 35.9128C43.7194 35.0648 43.2091 34.2962 42.5587 33.6557C41.9084 33.0152 41.1321 32.5166 40.2791 32.1916C39.426 31.8667 38.5148 31.7223 37.6031 31.7677C36.6396 31.7467 35.6819 31.9216 34.788 32.2819C33.8942 32.6421 33.0828 33.1802 32.4031 33.8634C31.7234 34.5466 31.1896 35.3608 30.8341 36.2566C30.4785 37.1523 30.3086 38.1109 30.3346 39.0743H33.6194C33.607 38.5424 33.7008 38.0133 33.8954 37.5181C34.09 37.0229 34.3816 36.5716 34.7529 36.1905C35.1242 35.8094 35.5678 35.5063 36.0578 35.2989C36.5478 35.0915 37.0742 34.9839 37.6063 34.9826C38.0861 34.9548 38.5663 35.0306 39.0142 35.2049C39.4621 35.3791 39.8673 35.6478 40.2021 35.9926C40.537 36.3374 40.7937 36.7502 40.9548 37.203C41.1158 37.6559 41.1776 38.138 41.1357 38.6168C41.1146 39.3918 40.8451 40.1395 40.3669 40.7497C39.8888 41.36 39.2273 41.8005 38.4799 42.0065L37.3268 42.4639C36.1977 42.736 35.212 43.4221 34.5649 44.3864C33.9177 45.3506 33.6562 46.5228 33.8323 47.6707L33.8672 48.8906ZM35.4397 56.4418C35.7508 56.4529 36.0609 56.4014 36.3518 56.2906C36.6427 56.1797 36.9083 56.0116 37.1331 55.7963C37.3579 55.581 37.5373 55.3228 37.6605 55.037C37.7838 54.7512 37.8486 54.4436 37.8509 54.1323C37.8481 53.8213 37.7831 53.514 37.6596 53.2286C37.5362 52.9431 37.3567 52.6853 37.132 52.4703C36.9073 52.2554 36.6417 52.0876 36.3511 51.9769C36.0604 51.8662 35.7505 51.8149 35.4397 51.8259C35.1289 51.8149 34.8191 51.8662 34.5284 51.9769C34.2378 52.0876 33.9722 52.2554 33.7475 52.4703C33.5227 52.6853 33.3433 52.9431 33.2198 53.2286C33.0964 53.514 33.0313 53.8213 33.0285 54.1323C33.0309 54.4436 33.0956 54.7512 33.2189 55.037C33.3422 55.3228 33.5216 55.581 33.7463 55.7963C33.9711 56.0116 34.2368 56.1797 34.5277 56.2906C34.8185 56.4014 35.1287 56.4529 35.4397 56.4418Z" fill="white"/>
<g filter="url(#filter1_d_6164_17830)">
<path d="M85.9342 84.1851H300.368C302.474 84.1851 304.494 85.0218 305.984 86.5112C307.473 88.0006 308.31 90.0207 308.31 92.127V131.837C308.31 133.943 307.473 135.963 305.984 137.453C304.494 138.942 302.474 139.779 300.368 139.779H85.9342C83.8278 139.779 81.8078 138.942 80.3183 137.453C78.8289 135.963 77.9922 133.943 77.9922 131.837V92.127C77.9922 90.0207 78.8289 88.0006 80.3183 86.5112C81.8078 85.0218 83.8278 84.1851 85.9342 84.1851V84.1851Z" fill="white"/>
</g>
<path d="M187.591 96.8926H146.293C143.661 96.8926 141.527 99.026 141.527 101.658C141.527 104.29 143.661 106.423 146.293 106.423H187.591C190.223 106.423 192.356 104.29 192.356 101.658C192.356 99.026 190.223 96.8926 187.591 96.8926Z" fill="#BED3FE"/>
<path d="M216.182 117.542H146.293C143.661 117.542 141.527 119.675 141.527 122.307C141.527 124.939 143.661 127.072 146.293 127.072H216.182C218.814 127.072 220.947 124.939 220.947 122.307C220.947 119.675 218.814 117.542 216.182 117.542Z" fill="#DCE7FE"/>
<path d="M120.879 88.9509H90.6998C86.3136 88.9509 82.7578 92.5067 82.7578 96.8929V127.072C82.7578 131.459 86.3136 135.014 90.6998 135.014H120.879C125.266 135.014 128.821 131.459 128.821 127.072V96.8929C128.821 92.5067 125.266 88.9509 120.879 88.9509Z" fill="#3B7AF7"/>
<path d="M102.17 117.192H105.347L105.382 115.969C105.382 114.362 106.395 113.942 107.828 113.488C109.265 113.079 110.53 112.214 111.432 111.022C112.333 109.831 112.822 108.378 112.825 106.884C112.856 105.971 112.698 105.062 112.36 104.215C112.022 103.367 111.512 102.598 110.861 101.957C110.211 101.317 109.435 100.818 108.582 100.493C107.729 100.168 106.818 100.024 105.906 100.069C104.942 100.048 103.985 100.223 103.091 100.584C102.197 100.944 101.386 101.482 100.706 102.165C100.026 102.848 99.4924 103.663 99.1368 104.558C98.7812 105.454 98.6113 106.413 98.6374 107.376H101.922C101.91 106.844 102.004 106.315 102.198 105.82C102.393 105.325 102.684 104.873 103.056 104.492C103.427 104.111 103.871 103.808 104.361 103.601C104.851 103.393 105.377 103.286 105.909 103.284C106.389 103.257 106.869 103.332 107.317 103.507C107.765 103.681 108.17 103.95 108.505 104.294C108.84 104.639 109.096 105.052 109.257 105.505C109.419 105.958 109.48 106.44 109.438 106.919C109.417 107.694 109.148 108.441 108.67 109.051C108.192 109.662 107.53 110.102 106.783 110.308L105.629 110.766C104.5 111.038 103.515 111.724 102.868 112.688C102.22 113.652 101.959 114.825 102.135 115.972L102.17 117.192ZM103.742 124.744C104.054 124.755 104.364 124.703 104.655 124.592C104.945 124.481 105.211 124.313 105.436 124.098C105.661 123.883 105.84 123.625 105.963 123.339C106.087 123.053 106.151 122.745 106.154 122.434C106.151 122.123 106.086 121.816 105.962 121.53C105.839 121.245 105.659 120.987 105.435 120.772C105.21 120.557 104.944 120.389 104.654 120.279C104.363 120.168 104.053 120.117 103.742 120.128C103.432 120.117 103.122 120.168 102.831 120.279C102.54 120.389 102.275 120.557 102.05 120.772C101.825 120.987 101.646 121.245 101.523 121.53C101.399 121.816 101.334 122.123 101.331 122.434C101.334 122.745 101.398 123.053 101.522 123.339C101.645 123.625 101.824 123.883 102.049 124.098C102.274 124.313 102.54 124.481 102.83 124.592C103.121 124.703 103.431 124.755 103.742 124.744Z" fill="white"/>
<g filter="url(#filter2_d_6164_17830)">
<path d="M17.6334 152.486H232.067C234.173 152.486 236.193 153.323 237.683 154.812C239.172 156.302 240.009 158.322 240.009 160.428V200.138C240.009 202.244 239.172 204.264 237.683 205.754C236.193 207.243 234.173 208.08 232.067 208.08H17.6334C15.527 208.08 13.507 207.243 12.0176 205.754C10.5281 204.264 9.69141 202.244 9.69141 200.138V160.428C9.69141 158.322 10.5281 156.302 12.0176 154.812C13.507 153.323 15.527 152.486 17.6334 152.486V152.486Z" fill="white"/>
</g>
<path d="M119.29 165.194H77.9918C75.36 165.194 73.2266 167.328 73.2266 169.959C73.2266 172.591 75.36 174.724 77.9918 174.724H119.29C121.922 174.724 124.055 172.591 124.055 169.959C124.055 167.328 121.922 165.194 119.29 165.194Z" fill="#BED3FE"/>
<path d="M147.881 185.844H77.9918C75.36 185.844 73.2266 187.977 73.2266 190.609C73.2266 193.24 75.36 195.374 77.9918 195.374H147.881C150.513 195.374 152.646 193.24 152.646 190.609C152.646 187.977 150.513 185.844 147.881 185.844Z" fill="#DCE7FE"/>
<path d="M52.5766 157.252H22.3971C18.0108 157.252 14.4551 160.808 14.4551 165.194V195.373C14.4551 199.76 18.0108 203.315 22.3971 203.315H52.5766C56.9628 203.315 60.5186 199.76 60.5186 195.373V165.194C60.5186 160.808 56.9628 157.252 52.5766 157.252Z" fill="#3B7AF7"/>
<path d="M33.8672 185.493H37.044L37.079 184.27C37.079 182.663 38.0924 182.244 39.5251 181.789C40.9623 181.38 42.2273 180.515 43.1289 179.323C44.0304 178.132 44.5195 176.679 44.5222 175.185C44.5537 174.272 44.3954 173.364 44.0574 172.516C43.7194 171.668 43.2091 170.899 42.5587 170.258C41.9084 169.618 41.1321 169.119 40.2791 168.794C39.426 168.469 38.5148 168.325 37.6031 168.37C36.6396 168.349 35.6819 168.524 34.788 168.885C33.8942 169.245 33.0828 169.783 32.4031 170.466C31.7234 171.149 31.1896 171.964 30.8341 172.859C30.4785 173.755 30.3086 174.714 30.3346 175.677H33.6194C33.607 175.145 33.7008 174.616 33.8954 174.121C34.09 173.626 34.3816 173.174 34.7529 172.793C35.1242 172.412 35.5678 172.109 36.0578 171.902C36.5478 171.694 37.0742 171.587 37.6063 171.585C38.0861 171.558 38.5663 171.633 39.0142 171.808C39.4621 171.982 39.8673 172.251 40.2021 172.595C40.537 172.94 40.7937 173.353 40.9548 173.806C41.1158 174.259 41.1776 174.741 41.1357 175.22C41.1146 175.995 40.8451 176.742 40.3669 177.353C39.8888 177.963 39.2273 178.403 38.4799 178.609L37.3268 179.067C36.1977 179.339 35.212 180.025 34.5649 180.989C33.9177 181.953 33.6562 183.126 33.8323 184.273L33.8672 185.493ZM35.4397 193.045C35.7508 193.056 36.0609 193.004 36.3518 192.893C36.6427 192.782 36.9083 192.614 37.1331 192.399C37.3579 192.184 37.5373 191.926 37.6605 191.64C37.7838 191.354 37.8486 191.046 37.8509 190.735C37.8481 190.424 37.7831 190.117 37.6596 189.831C37.5362 189.546 37.3567 189.288 37.132 189.073C36.9073 188.858 36.6417 188.69 36.3511 188.58C36.0604 188.469 35.7505 188.418 35.4397 188.429C35.1289 188.418 34.8191 188.469 34.5284 188.58C34.2378 188.69 33.9722 188.858 33.7475 189.073C33.5227 189.288 33.3433 189.546 33.2198 189.831C33.0964 190.117 33.0313 190.424 33.0285 190.735C33.0309 191.046 33.0956 191.354 33.2189 191.64C33.3422 191.926 33.5216 192.184 33.7463 192.399C33.9711 192.614 34.2368 192.782 34.5277 192.893C34.8185 193.004 35.1287 193.056 35.4397 193.045Z" fill="white"/>
<defs>
<filter id="filter0_d_6164_17830" x="0.161028" y="11.1188" width="249.379" height="74.6548" filterUnits="userSpaceOnUse" color-interpolation-filters="sRGB">
<feFlood flood-opacity="0" result="BackgroundImageFix"/>
<feColorMatrix in="SourceAlpha" type="matrix" values="0 0 0 0 0 0 0 0 0 0 0 0 0 0 0 0 0 0 127 0" result="hardAlpha"/>
<feOffset dy="4.76519"/>
<feGaussianBlur stdDeviation="4.76519"/>
<feColorMatrix type="matrix" values="0 0 0 0 0 0 0 0 0 0 0 0 0 0 0 0 0 0 0.161 0"/>
<feBlend mode="normal" in2="BackgroundImageFix" result="effect1_dropShadow_6164_17830"/>
<feBlend mode="normal" in="SourceGraphic" in2="effect1_dropShadow_6164_17830" result="shape"/>
</filter>
<filter id="filter1_d_6164_17830" x="68.4618" y="79.4199" width="249.379" height="74.6545" filterUnits="userSpaceOnUse" color-interpolation-filters="sRGB">
<feFlood flood-opacity="0" result="BackgroundImageFix"/>
<feColorMatrix in="SourceAlpha" type="matrix" values="0 0 0 0 0 0 0 0 0 0 0 0 0 0 0 0 0 0 127 0" result="hardAlpha"/>
<feOffset dy="4.76519"/>
<feGaussianBlur stdDeviation="4.76519"/>
<feColorMatrix type="matrix" values="0 0 0 0 0 0 0 0 0 0 0 0 0 0 0 0 0 0 0.161 0"/>
<feBlend mode="normal" in2="BackgroundImageFix" result="effect1_dropShadow_6164_17830"/>
<feBlend mode="normal" in="SourceGraphic" in2="effect1_dropShadow_6164_17830" result="shape"/>
</filter>
<filter id="filter2_d_6164_17830" x="0.161028" y="147.721" width="249.379" height="74.6548" filterUnits="userSpaceOnUse" color-interpolation-filters="sRGB">
<feFlood flood-opacity="0" result="BackgroundImageFix"/>
<feColorMatrix in="SourceAlpha" type="matrix" values="0 0 0 0 0 0 0 0 0 0 0 0 0 0 0 0 0 0 127 0" result="hardAlpha"/>
<feOffset dy="4.76519"/>
<feGaussianBlur stdDeviation="4.76519"/>
<feColorMatrix type="matrix" values="0 0 0 0 0 0 0 0 0 0 0 0 0 0 0 0 0 0 0.161 0"/>
<feBlend mode="normal" in2="BackgroundImageFix" result="effect1_dropShadow_6164_17830"/>
<feBlend mode="normal" in="SourceGraphic" in2="effect1_dropShadow_6164_17830" result="shape"/>
</filter>
<linearGradient id="paint0_linear_6164_17830" x1="162.176" y1="0" x2="162.176" y2="222.375" gradientUnits="userSpaceOnUse">
<stop stop-color="#DCE7FE"/>
<stop offset="1" stop-color="#BED3FE"/>
</linearGradient>
</defs>
</svg>
