<svg width="591" height="453" viewBox="0 0 591 453" fill="none" xmlns="http://www.w3.org/2000/svg">
<g filter="url(#filter0_d_4739_43551)">
<g clip-path="url(#clip0_4739_43551)">
<rect x="0.140625" y="216.256" width="570" height="216" fill="white"/>
<path d="M31.5006 248.996V260.256H28.4606V248.996H24.6806V246.296H35.2806V248.996H31.5006ZM43.0148 249.756H45.7748L41.7348 261.876C41.4682 262.689 41.0882 263.289 40.5948 263.676C40.1148 264.063 39.4215 264.256 38.5148 264.256H36.6748V261.956H38.6548L39.0148 260.796L35.3348 249.756H38.2748L39.8148 254.656L40.5748 257.696H40.6948L41.4748 254.656L43.0148 249.756ZM47.2784 249.756H50.2384V251.516H50.3384C50.4851 250.929 50.8184 250.449 51.3384 250.076C51.8718 249.703 52.4784 249.516 53.1584 249.516C54.4918 249.516 55.4984 249.983 56.1784 250.916C56.8584 251.849 57.1984 253.209 57.1984 254.996C57.1984 256.783 56.8584 258.149 56.1784 259.096C55.4984 260.029 54.4918 260.496 53.1584 260.496C52.8118 260.496 52.4851 260.443 52.1784 260.336C51.8718 260.243 51.5918 260.109 51.3384 259.936C51.0984 259.749 50.8918 259.536 50.7184 259.296C50.5451 259.043 50.4184 258.776 50.3384 258.496H50.2384V264.256H47.2784V249.756ZM52.1784 258.096C52.7384 258.096 53.1984 257.903 53.5584 257.516C53.9318 257.116 54.1184 256.583 54.1184 255.916V254.096C54.1184 253.429 53.9318 252.903 53.5584 252.516C53.1984 252.116 52.7384 251.916 52.1784 251.916C51.6184 251.916 51.1518 252.056 50.7784 252.336C50.4184 252.603 50.2384 252.976 50.2384 253.456V256.556C50.2384 257.036 50.4184 257.416 50.7784 257.696C51.1518 257.963 51.6184 258.096 52.1784 258.096ZM63.8264 260.496C63.0264 260.496 62.3131 260.369 61.6864 260.116C61.0597 259.849 60.5264 259.483 60.0864 259.016C59.6597 258.536 59.3331 257.956 59.1064 257.276C58.8931 256.596 58.7864 255.836 58.7864 254.996C58.7864 254.169 58.8931 253.423 59.1064 252.756C59.3197 252.076 59.6331 251.496 60.0464 251.016C60.4731 250.536 60.9931 250.169 61.6064 249.916C62.2197 249.649 62.9197 249.516 63.7064 249.516C64.5731 249.516 65.3131 249.663 65.9264 249.956C66.5531 250.249 67.0597 250.643 67.4464 251.136C67.8464 251.629 68.1331 252.203 68.3064 252.856C68.4931 253.496 68.5864 254.169 68.5864 254.876V255.756H61.8464V255.916C61.8464 256.609 62.0331 257.163 62.4064 257.576C62.7797 257.976 63.3664 258.176 64.1664 258.176C64.7797 258.176 65.2797 258.056 65.6664 257.816C66.0531 257.563 66.4131 257.263 66.7464 256.916L68.2264 258.756C67.7597 259.303 67.1464 259.729 66.3864 260.036C65.6397 260.343 64.7864 260.496 63.8264 260.496ZM63.7664 251.696C63.1664 251.696 62.6931 251.896 62.3464 252.296C62.0131 252.683 61.8464 253.203 61.8464 253.856V254.016H65.5264V253.836C65.5264 253.196 65.3797 252.683 65.0864 252.296C64.8064 251.896 64.3664 251.696 63.7664 251.696ZM74.2369 260.496C73.2235 260.496 72.3702 260.336 71.6769 260.016C70.9835 259.683 70.3635 259.216 69.8169 258.616L71.5569 256.856C71.9302 257.269 72.3435 257.596 72.7969 257.836C73.2502 258.076 73.7635 258.196 74.3369 258.196C74.9235 258.196 75.3302 258.109 75.5569 257.936C75.7835 257.749 75.8969 257.503 75.8969 257.196C75.8969 256.703 75.5435 256.409 74.8369 256.316L73.6969 256.176C71.3369 255.883 70.1569 254.803 70.1569 252.936C70.1569 252.429 70.2502 251.969 70.4369 251.556C70.6369 251.129 70.9102 250.769 71.2569 250.476C71.6169 250.169 72.0435 249.936 72.5369 249.776C73.0435 249.603 73.6102 249.516 74.2369 249.516C74.7835 249.516 75.2635 249.556 75.6769 249.636C76.1035 249.703 76.4769 249.809 76.7969 249.956C77.1302 250.089 77.4302 250.263 77.6969 250.476C77.9769 250.676 78.2502 250.903 78.5169 251.156L76.8169 252.896C76.4835 252.563 76.1035 252.303 75.6769 252.116C75.2635 251.916 74.8369 251.816 74.3969 251.816C73.8902 251.816 73.5302 251.896 73.3169 252.056C73.1035 252.216 72.9969 252.429 72.9969 252.696C72.9969 252.976 73.0702 253.196 73.2169 253.356C73.3769 253.503 73.6702 253.609 74.0969 253.676L75.2769 253.836C77.5835 254.143 78.7369 255.196 78.7369 256.996C78.7369 257.503 78.6302 257.969 78.4169 258.396C78.2035 258.823 77.8969 259.196 77.4969 259.516C77.1102 259.823 76.6369 260.063 76.0769 260.236C75.5302 260.409 74.9169 260.496 74.2369 260.496ZM84.995 260.496C84.2083 260.496 83.5083 260.369 82.895 260.116C82.2817 259.849 81.7683 259.483 81.355 259.016C80.9417 258.536 80.6283 257.956 80.415 257.276C80.2017 256.596 80.095 255.836 80.095 254.996C80.095 254.156 80.2017 253.403 80.415 252.736C80.6283 252.056 80.9417 251.476 81.355 250.996C81.7683 250.516 82.2817 250.149 82.895 249.896C83.5083 249.643 84.2083 249.516 84.995 249.516C86.0617 249.516 86.9483 249.756 87.655 250.236C88.375 250.716 88.8883 251.389 89.195 252.256L86.795 253.296C86.7017 252.896 86.5083 252.556 86.215 252.276C85.9217 251.996 85.515 251.856 84.995 251.856C84.395 251.856 83.9417 252.056 83.635 252.456C83.3283 252.843 83.175 253.369 83.175 254.036V255.996C83.175 256.663 83.3283 257.189 83.635 257.576C83.9417 257.963 84.395 258.156 84.995 258.156C85.5283 258.156 85.9483 258.016 86.255 257.736C86.575 257.443 86.8083 257.063 86.955 256.596L89.255 257.596C88.9083 258.596 88.3683 259.329 87.635 259.796C86.915 260.263 86.035 260.496 84.995 260.496ZM91.087 260.256V249.756H94.047V252.036H94.147C94.2004 251.743 94.2937 251.463 94.427 251.196C94.5604 250.916 94.7337 250.669 94.947 250.456C95.1737 250.243 95.4404 250.076 95.747 249.956C96.0537 249.823 96.4137 249.756 96.827 249.756H97.347V252.516H96.607C95.7404 252.516 95.0937 252.629 94.667 252.856C94.2537 253.083 94.047 253.503 94.047 254.116V260.256H91.087ZM100.653 248.636C100.053 248.636 99.613 248.503 99.333 248.236C99.0663 247.956 98.933 247.603 98.933 247.176V246.736C98.933 246.309 99.0663 245.963 99.333 245.696C99.613 245.416 100.053 245.276 100.653 245.276C101.253 245.276 101.686 245.416 101.953 245.696C102.233 245.963 102.373 246.309 102.373 246.736V247.176C102.373 247.603 102.233 247.956 101.953 248.236C101.686 248.503 101.253 248.636 100.653 248.636ZM99.173 249.756H102.133V260.256H99.173V249.756ZM104.896 249.756H107.856V251.516H107.956C108.102 250.929 108.436 250.449 108.956 250.076C109.489 249.703 110.096 249.516 110.776 249.516C112.109 249.516 113.116 249.983 113.796 250.916C114.476 251.849 114.816 253.209 114.816 254.996C114.816 256.783 114.476 258.149 113.796 259.096C113.116 260.029 112.109 260.496 110.776 260.496C110.429 260.496 110.102 260.443 109.796 260.336C109.489 260.243 109.209 260.109 108.956 259.936C108.716 259.749 108.509 259.536 108.336 259.296C108.162 259.043 108.036 258.776 107.956 258.496H107.856V264.256H104.896V249.756ZM109.796 258.096C110.356 258.096 110.816 257.903 111.176 257.516C111.549 257.116 111.736 256.583 111.736 255.916V254.096C111.736 253.429 111.549 252.903 111.176 252.516C110.816 252.116 110.356 251.916 109.796 251.916C109.236 251.916 108.769 252.056 108.396 252.336C108.036 252.603 107.856 252.976 107.856 253.456V256.556C107.856 257.036 108.036 257.416 108.396 257.696C108.769 257.963 109.236 258.096 109.796 258.096ZM120.626 260.256C119.6 260.256 118.82 259.996 118.286 259.476C117.766 258.956 117.506 258.196 117.506 257.196V252.056H116.026V249.756H116.766C117.166 249.756 117.44 249.663 117.586 249.476C117.733 249.276 117.806 248.996 117.806 248.636V246.916H120.466V249.756H122.546V252.056H120.466V257.956H122.386V260.256H120.626Z" fill="#1D2433"/>
<path fill-rule="evenodd" clip-rule="evenodd" d="M570.141 285.256H0.140625V284.256H570.141V285.256Z" fill="#EAECF0"/>
<path d="M26.9486 342.256V323.536H30.8726V326.632H31.0526C31.4606 325.624 32.0726 324.784 32.8886 324.112C33.7286 323.44 34.8686 323.104 36.3086 323.104C38.2286 323.104 39.7166 323.74 40.7726 325.012C41.8526 326.26 42.3926 328.048 42.3926 330.376V342.256H38.4686V330.88C38.4686 327.952 37.2926 326.488 34.9406 326.488C34.4366 326.488 33.9326 326.56 33.4286 326.704C32.9486 326.824 32.5166 327.016 32.1326 327.28C31.7486 327.544 31.4366 327.88 31.1966 328.288C30.9806 328.696 30.8726 329.176 30.8726 329.728V342.256H26.9486ZM47.8314 323.536H51.7554V326.632H51.9354C52.3434 325.504 53.0034 324.64 53.9154 324.04C54.8514 323.416 55.9434 323.104 57.1914 323.104C59.5674 323.104 61.4034 323.968 62.6994 325.696C63.9954 327.4 64.6434 329.8 64.6434 332.896C64.6434 335.992 63.9954 338.404 62.6994 340.132C61.4034 341.836 59.5674 342.688 57.1914 342.688C55.9434 342.688 54.8514 342.376 53.9154 341.752C53.0034 341.128 52.3434 340.264 51.9354 339.16H51.7554V349.456H47.8314V323.536ZM56.0034 339.304C57.3714 339.304 58.4634 338.872 59.2794 338.008C60.0954 337.12 60.5034 335.956 60.5034 334.516V331.276C60.5034 329.836 60.0954 328.684 59.2794 327.82C58.4634 326.932 57.3714 326.488 56.0034 326.488C54.8034 326.488 53.7954 326.788 52.9794 327.388C52.1634 327.964 51.7554 328.732 51.7554 329.692V336.1C51.7554 337.06 52.1634 337.84 52.9794 338.44C53.7954 339.016 54.8034 339.304 56.0034 339.304ZM69.1361 342.256V323.536H73.0601V326.632H73.2401C73.4321 326.152 73.6601 325.696 73.9241 325.264C74.2121 324.832 74.5481 324.46 74.9321 324.148C75.3401 323.812 75.8081 323.56 76.3361 323.392C76.8881 323.2 77.5241 323.104 78.2441 323.104C79.5161 323.104 80.6441 323.416 81.6281 324.04C82.6121 324.664 83.3321 325.624 83.7881 326.92H83.8961C84.2321 325.864 84.8801 324.964 85.8401 324.22C86.8001 323.476 88.0361 323.104 89.5481 323.104C91.4201 323.104 92.8721 323.74 93.9041 325.012C94.9361 326.26 95.4521 328.048 95.4521 330.376V342.256H91.5281V330.844C91.5281 329.404 91.2521 328.324 90.7001 327.604C90.1481 326.86 89.2721 326.488 88.0721 326.488C87.5681 326.488 87.0881 326.56 86.6321 326.704C86.1761 326.824 85.7681 327.016 85.4081 327.28C85.0721 327.544 84.7961 327.88 84.5801 328.288C84.3641 328.696 84.2561 329.164 84.2561 329.692V342.256H80.3321V330.844C80.3321 327.94 79.1921 326.488 76.9121 326.488C76.4321 326.488 75.9521 326.56 75.4721 326.704C75.0161 326.824 74.6081 327.016 74.2481 327.28C73.8881 327.544 73.6001 327.88 73.3841 328.288C73.1681 328.696 73.0601 329.164 73.0601 329.692V342.256H69.1361ZM111.37 320.188C110.554 320.188 109.954 319.996 109.57 319.612C109.21 319.228 109.03 318.736 109.03 318.136V317.524C109.03 316.924 109.21 316.432 109.57 316.048C109.954 315.664 110.554 315.472 111.37 315.472C112.186 315.472 112.774 315.664 113.134 316.048C113.494 316.432 113.674 316.924 113.674 317.524V318.136C113.674 318.736 113.494 319.228 113.134 319.612C112.774 319.996 112.186 320.188 111.37 320.188ZM109.39 323.536H113.314V342.256H109.39V323.536ZM148.953 346.612H140.925C138.765 346.612 136.821 346.252 135.093 345.532C133.365 344.836 131.889 343.84 130.665 342.544C129.465 341.248 128.529 339.7 127.857 337.9C127.209 336.076 126.885 334.06 126.885 331.852C126.885 329.644 127.221 327.616 127.893 325.768C128.565 323.92 129.513 322.336 130.737 321.016C131.985 319.672 133.485 318.628 135.237 317.884C137.013 317.14 138.981 316.768 141.141 316.768C142.989 316.768 144.729 317.056 146.361 317.632C148.017 318.184 149.457 319.036 150.681 320.188C151.905 321.316 152.877 322.732 153.597 324.436C154.317 326.14 154.677 328.144 154.677 330.448C154.677 331.768 154.545 332.992 154.281 334.12C154.017 335.224 153.609 336.184 153.057 337C152.529 337.816 151.857 338.452 151.041 338.908C150.225 339.364 149.277 339.592 148.197 339.592C146.973 339.592 146.025 339.304 145.353 338.728C144.681 338.128 144.297 337.348 144.201 336.388H144.021C143.661 337.372 143.121 338.152 142.401 338.728C141.705 339.304 140.805 339.592 139.701 339.592C138.885 339.592 138.117 339.436 137.397 339.124C136.677 338.788 136.041 338.308 135.489 337.684C134.961 337.036 134.541 336.232 134.229 335.272C133.917 334.288 133.761 333.148 133.761 331.852C133.761 330.556 133.917 329.428 134.229 328.468C134.541 327.484 134.961 326.68 135.489 326.056C136.041 325.408 136.677 324.928 137.397 324.616C138.117 324.28 138.885 324.112 139.701 324.112C140.805 324.112 141.669 324.388 142.293 324.94C142.917 325.468 143.361 326.116 143.625 326.884H143.805V324.436H146.937V334.876C146.937 335.668 147.081 336.22 147.369 336.532C147.681 336.844 148.137 337 148.737 337C149.745 337 150.513 336.484 151.041 335.452C151.593 334.396 151.869 332.896 151.869 330.952V329.548C151.869 327.988 151.593 326.584 151.041 325.336C150.513 324.064 149.769 322.996 148.809 322.132C147.849 321.244 146.709 320.56 145.389 320.08C144.069 319.6 142.641 319.36 141.105 319.36C139.401 319.36 137.841 319.66 136.425 320.26C135.033 320.836 133.833 321.64 132.825 322.672C131.841 323.68 131.073 324.892 130.521 326.308C129.969 327.7 129.693 329.224 129.693 330.88V332.68C129.693 334.36 129.957 335.896 130.485 337.288C131.037 338.656 131.805 339.844 132.789 340.852C133.773 341.836 134.949 342.604 136.317 343.156C137.709 343.708 139.257 343.984 140.961 343.984H148.953V346.612ZM140.637 336.82C141.645 336.82 142.425 336.544 142.977 335.992C143.529 335.44 143.805 334.732 143.805 333.868V329.548C143.805 328.78 143.529 328.144 142.977 327.64C142.425 327.112 141.645 326.848 140.637 326.848C139.533 326.848 138.693 327.184 138.117 327.856C137.541 328.504 137.253 329.368 137.253 330.448V333.22C137.253 334.3 137.541 335.176 138.117 335.848C138.693 336.496 139.533 336.82 140.637 336.82ZM161.679 320.188C160.863 320.188 160.263 319.996 159.879 319.612C159.519 319.228 159.339 318.736 159.339 318.136V317.524C159.339 316.924 159.519 316.432 159.879 316.048C160.263 315.664 160.863 315.472 161.679 315.472C162.495 315.472 163.083 315.664 163.443 316.048C163.803 316.432 163.983 316.924 163.983 317.524V318.136C163.983 318.736 163.803 319.228 163.443 319.612C163.083 319.996 162.495 320.188 161.679 320.188ZM159.699 323.536H163.623V342.256H159.699V323.536ZM169.226 342.256V323.536H173.15V326.632H173.33C173.738 325.624 174.35 324.784 175.166 324.112C176.006 323.44 177.146 323.104 178.586 323.104C180.506 323.104 181.994 323.74 183.05 325.012C184.13 326.26 184.67 328.048 184.67 330.376V342.256H180.746V330.88C180.746 327.952 179.57 326.488 177.218 326.488C176.714 326.488 176.21 326.56 175.706 326.704C175.226 326.824 174.794 327.016 174.41 327.28C174.026 327.544 173.714 327.88 173.474 328.288C173.258 328.696 173.15 329.176 173.15 329.728V342.256H169.226ZM196.049 342.688C194.273 342.688 192.785 342.376 191.585 341.752C190.385 341.128 189.341 340.264 188.453 339.16L190.973 336.856C191.669 337.696 192.437 338.356 193.277 338.836C194.141 339.292 195.137 339.52 196.265 339.52C197.417 339.52 198.269 339.304 198.821 338.872C199.397 338.416 199.685 337.792 199.685 337C199.685 336.4 199.481 335.896 199.073 335.488C198.689 335.056 198.005 334.78 197.021 334.66L195.293 334.444C193.373 334.204 191.861 333.652 190.757 332.788C189.677 331.9 189.137 330.592 189.137 328.864C189.137 327.952 189.305 327.148 189.641 326.452C189.977 325.732 190.445 325.132 191.045 324.652C191.669 324.148 192.401 323.764 193.241 323.5C194.105 323.236 195.053 323.104 196.085 323.104C197.765 323.104 199.133 323.368 200.189 323.896C201.269 324.424 202.229 325.156 203.069 326.092L200.657 328.396C200.177 327.82 199.541 327.328 198.749 326.92C197.981 326.488 197.093 326.272 196.085 326.272C195.005 326.272 194.201 326.488 193.673 326.92C193.169 327.352 192.917 327.916 192.917 328.612C192.917 329.332 193.145 329.872 193.601 330.232C194.057 330.592 194.789 330.856 195.797 331.024L197.525 331.24C199.589 331.552 201.089 332.164 202.025 333.076C202.985 333.964 203.465 335.164 203.465 336.676C203.465 337.588 203.285 338.416 202.925 339.16C202.589 339.88 202.097 340.504 201.449 341.032C200.801 341.56 200.021 341.968 199.109 342.256C198.197 342.544 197.177 342.688 196.049 342.688ZM212.836 342.256C211.468 342.256 210.436 341.908 209.74 341.212C209.044 340.492 208.696 339.484 208.696 338.188V326.74H205.78V323.536H207.364C208.012 323.536 208.456 323.392 208.696 323.104C208.96 322.816 209.092 322.348 209.092 321.7V318.424H212.62V323.536H216.544V326.74H212.62V339.052H216.256V342.256H212.836ZM222.78 320.188C221.964 320.188 221.364 319.996 220.98 319.612C220.62 319.228 220.44 318.736 220.44 318.136V317.524C220.44 316.924 220.62 316.432 220.98 316.048C221.364 315.664 221.964 315.472 222.78 315.472C223.596 315.472 224.184 315.664 224.544 316.048C224.904 316.432 225.084 316.924 225.084 317.524V318.136C225.084 318.736 224.904 319.228 224.544 319.612C224.184 319.996 223.596 320.188 222.78 320.188ZM220.8 323.536H224.724V342.256H220.8V323.536ZM234.324 342.256C232.98 342.256 231.972 341.92 231.3 341.248C230.652 340.552 230.328 339.592 230.328 338.368V315.616H234.252V339.052H236.844V342.256H234.324ZM244.378 342.256C243.034 342.256 242.026 341.92 241.354 341.248C240.706 340.552 240.382 339.592 240.382 338.368V315.616H244.306V339.052H246.898V342.256H244.378ZM249.72 333.292V329.296H259.692V333.292H249.72ZM278.462 342.256C277.43 342.256 276.638 341.968 276.086 341.392C275.534 340.792 275.198 340.036 275.078 339.124H274.898C274.538 340.3 273.878 341.188 272.918 341.788C271.958 342.388 270.794 342.688 269.426 342.688C267.482 342.688 265.982 342.184 264.926 341.176C263.894 340.168 263.378 338.812 263.378 337.108C263.378 335.236 264.05 333.832 265.394 332.896C266.762 331.96 268.754 331.492 271.37 331.492H274.754V329.908C274.754 328.756 274.442 327.868 273.818 327.244C273.194 326.62 272.222 326.308 270.902 326.308C269.798 326.308 268.898 326.548 268.202 327.028C267.506 327.508 266.918 328.12 266.438 328.864L264.098 326.74C264.722 325.684 265.598 324.82 266.726 324.148C267.854 323.452 269.33 323.104 271.154 323.104C273.578 323.104 275.438 323.668 276.734 324.796C278.03 325.924 278.678 327.544 278.678 329.656V339.052H280.658V342.256H278.462ZM270.542 339.7C271.766 339.7 272.774 339.436 273.566 338.908C274.358 338.356 274.754 337.624 274.754 336.712V334.012H271.441C268.73 334.012 267.374 334.852 267.374 336.532V337.18C267.374 338.02 267.65 338.656 268.202 339.088C268.778 339.496 269.558 339.7 270.542 339.7ZM286.483 320.188C285.667 320.188 285.067 319.996 284.683 319.612C284.323 319.228 284.143 318.736 284.143 318.136V317.524C284.143 316.924 284.323 316.432 284.683 316.048C285.067 315.664 285.667 315.472 286.483 315.472C287.299 315.472 287.887 315.664 288.247 316.048C288.607 316.432 288.787 316.924 288.787 317.524V318.136C288.787 318.736 288.607 319.228 288.247 319.612C287.887 319.996 287.299 320.188 286.483 320.188ZM284.503 323.536H288.427V342.256H284.503V323.536ZM291.475 347.692L301.447 315.616H304.831L294.859 347.692H291.475ZM314.226 342.256C312.858 342.256 311.826 341.908 311.13 341.212C310.434 340.492 310.086 339.484 310.086 338.188V326.74H307.17V323.536H308.754C309.402 323.536 309.846 323.392 310.086 323.104C310.35 322.816 310.482 322.348 310.482 321.7V318.424H314.01V323.536H317.934V326.74H314.01V339.052H317.646V342.256H314.226ZM333.675 323.536H337.455L329.571 345.964C329.355 346.588 329.103 347.116 328.815 347.548C328.551 348.004 328.227 348.364 327.843 348.628C327.483 348.916 327.039 349.12 326.511 349.24C325.983 349.384 325.359 349.456 324.639 349.456H322.371V346.252H325.539L326.619 343.084L319.815 323.536H323.739L327.483 334.552L328.563 338.62H328.743L329.931 334.552L333.675 323.536ZM340.683 323.536H344.607V326.632H344.787C345.195 325.504 345.855 324.64 346.767 324.04C347.703 323.416 348.795 323.104 350.043 323.104C352.419 323.104 354.255 323.968 355.551 325.696C356.847 327.4 357.495 329.8 357.495 332.896C357.495 335.992 356.847 338.404 355.551 340.132C354.255 341.836 352.419 342.688 350.043 342.688C348.795 342.688 347.703 342.376 346.767 341.752C345.855 341.128 345.195 340.264 344.787 339.16H344.607V349.456H340.683V323.536ZM348.855 339.304C350.223 339.304 351.315 338.872 352.131 338.008C352.947 337.12 353.355 335.956 353.355 334.516V331.276C353.355 329.836 352.947 328.684 352.131 327.82C351.315 326.932 350.223 326.488 348.855 326.488C347.655 326.488 346.647 326.788 345.831 327.388C345.015 327.964 344.607 328.732 344.607 329.692V336.1C344.607 337.06 345.015 337.84 345.831 338.44C346.647 339.016 347.655 339.304 348.855 339.304ZM369.332 342.688C367.988 342.688 366.788 342.46 365.732 342.004C364.676 341.548 363.776 340.9 363.032 340.06C362.288 339.196 361.712 338.164 361.304 336.964C360.92 335.74 360.728 334.384 360.728 332.896C360.728 331.408 360.92 330.064 361.304 328.864C361.712 327.64 362.288 326.608 363.032 325.768C363.776 324.904 364.676 324.244 365.732 323.788C366.788 323.332 367.988 323.104 369.332 323.104C370.7 323.104 371.9 323.344 372.932 323.824C373.988 324.304 374.864 324.976 375.56 325.84C376.256 326.68 376.772 327.664 377.108 328.792C377.468 329.92 377.648 331.132 377.648 332.428V333.904H364.796V334.516C364.796 335.956 365.216 337.144 366.056 338.08C366.92 338.992 368.144 339.448 369.728 339.448C370.88 339.448 371.852 339.196 372.644 338.692C373.436 338.188 374.108 337.504 374.66 336.64L376.964 338.908C376.268 340.06 375.26 340.984 373.94 341.68C372.62 342.352 371.084 342.688 369.332 342.688ZM369.332 326.164C368.66 326.164 368.036 326.284 367.46 326.524C366.908 326.764 366.428 327.1 366.02 327.532C365.636 327.964 365.336 328.48 365.12 329.08C364.904 329.68 364.796 330.34 364.796 331.06V331.312H373.508V330.952C373.508 329.512 373.136 328.36 372.392 327.496C371.648 326.608 370.628 326.164 369.332 326.164ZM387.932 342.688C386.156 342.688 384.668 342.376 383.468 341.752C382.268 341.128 381.224 340.264 380.336 339.16L382.856 336.856C383.552 337.696 384.32 338.356 385.16 338.836C386.024 339.292 387.02 339.52 388.148 339.52C389.3 339.52 390.152 339.304 390.704 338.872C391.28 338.416 391.568 337.792 391.568 337C391.568 336.4 391.364 335.896 390.956 335.488C390.572 335.056 389.888 334.78 388.904 334.66L387.176 334.444C385.256 334.204 383.744 333.652 382.64 332.788C381.56 331.9 381.02 330.592 381.02 328.864C381.02 327.952 381.188 327.148 381.524 326.452C381.86 325.732 382.328 325.132 382.928 324.652C383.552 324.148 384.284 323.764 385.124 323.5C385.988 323.236 386.936 323.104 387.968 323.104C389.648 323.104 391.016 323.368 392.072 323.896C393.152 324.424 394.112 325.156 394.952 326.092L392.54 328.396C392.06 327.82 391.424 327.328 390.632 326.92C389.864 326.488 388.976 326.272 387.968 326.272C386.888 326.272 386.084 326.488 385.556 326.92C385.052 327.352 384.8 327.916 384.8 328.612C384.8 329.332 385.028 329.872 385.484 330.232C385.94 330.592 386.672 330.856 387.68 331.024L389.408 331.24C391.472 331.552 392.972 332.164 393.908 333.076C394.868 333.964 395.348 335.164 395.348 336.676C395.348 337.588 395.168 338.416 394.808 339.16C394.472 339.88 393.98 340.504 393.332 341.032C392.684 341.56 391.904 341.968 390.992 342.256C390.08 342.544 389.06 342.688 387.932 342.688ZM407.017 342.688C405.673 342.688 404.473 342.46 403.417 342.004C402.361 341.548 401.473 340.9 400.753 340.06C400.033 339.196 399.481 338.164 399.097 336.964C398.713 335.74 398.521 334.384 398.521 332.896C398.521 331.408 398.713 330.064 399.097 328.864C399.481 327.64 400.033 326.608 400.753 325.768C401.473 324.904 402.361 324.244 403.417 323.788C404.473 323.332 405.673 323.104 407.017 323.104C408.889 323.104 410.425 323.524 411.625 324.364C412.825 325.204 413.701 326.32 414.253 327.712L411.013 329.224C410.749 328.36 410.281 327.676 409.609 327.172C408.961 326.644 408.097 326.38 407.017 326.38C405.577 326.38 404.485 326.836 403.741 327.748C403.021 328.636 402.661 329.8 402.661 331.24V334.588C402.661 336.028 403.021 337.204 403.741 338.116C404.485 339.004 405.577 339.448 407.017 339.448C408.169 339.448 409.081 339.172 409.753 338.62C410.449 338.044 411.001 337.288 411.409 336.352L414.397 337.936C413.773 339.472 412.837 340.648 411.589 341.464C410.341 342.28 408.817 342.688 407.017 342.688ZM418.132 342.256V323.536H422.056V327.136H422.236C422.5 326.176 423.052 325.336 423.892 324.616C424.732 323.896 425.896 323.536 427.384 323.536H428.428V327.316H426.88C425.32 327.316 424.12 327.568 423.28 328.072C422.464 328.576 422.056 329.32 422.056 330.304V342.256H418.132ZM433.893 320.188C433.077 320.188 432.477 319.996 432.093 319.612C431.733 319.228 431.553 318.736 431.553 318.136V317.524C431.553 316.924 431.733 316.432 432.093 316.048C432.477 315.664 433.077 315.472 433.893 315.472C434.709 315.472 435.297 315.664 435.657 316.048C436.017 316.432 436.197 316.924 436.197 317.524V318.136C436.197 318.736 436.017 319.228 435.657 319.612C435.297 319.996 434.709 320.188 433.893 320.188ZM431.913 323.536H435.837V342.256H431.913V323.536ZM441.441 323.536H445.365V326.632H445.545C445.953 325.504 446.613 324.64 447.525 324.04C448.461 323.416 449.553 323.104 450.801 323.104C453.177 323.104 455.013 323.968 456.309 325.696C457.605 327.4 458.253 329.8 458.253 332.896C458.253 335.992 457.605 338.404 456.309 340.132C455.013 341.836 453.177 342.688 450.801 342.688C449.553 342.688 448.461 342.376 447.525 341.752C446.613 341.128 445.953 340.264 445.545 339.16H445.365V349.456H441.441V323.536ZM449.613 339.304C450.981 339.304 452.073 338.872 452.889 338.008C453.705 337.12 454.113 335.956 454.113 334.516V331.276C454.113 329.836 453.705 328.684 452.889 327.82C452.073 326.932 450.981 326.488 449.613 326.488C448.413 326.488 447.405 326.788 446.589 327.388C445.773 327.964 445.365 328.732 445.365 329.692V336.1C445.365 337.06 445.773 337.84 446.589 338.44C447.405 339.016 448.413 339.304 449.613 339.304ZM467.719 342.256C466.351 342.256 465.319 341.908 464.623 341.212C463.927 340.492 463.579 339.484 463.579 338.188V326.74H460.663V323.536H462.247C462.895 323.536 463.339 323.392 463.579 323.104C463.843 322.816 463.975 322.348 463.975 321.7V318.424H467.503V323.536H471.427V326.74H467.503V339.052H471.139V342.256H467.719ZM474.545 333.292V329.296H484.517V333.292H474.545ZM495.58 342.688C493.804 342.688 492.316 342.376 491.116 341.752C489.916 341.128 488.872 340.264 487.984 339.16L490.504 336.856C491.2 337.696 491.968 338.356 492.808 338.836C493.672 339.292 494.668 339.52 495.796 339.52C496.948 339.52 497.8 339.304 498.352 338.872C498.928 338.416 499.216 337.792 499.216 337C499.216 336.4 499.012 335.896 498.604 335.488C498.22 335.056 497.536 334.78 496.552 334.66L494.824 334.444C492.904 334.204 491.392 333.652 490.288 332.788C489.208 331.9 488.668 330.592 488.668 328.864C488.668 327.952 488.836 327.148 489.172 326.452C489.508 325.732 489.976 325.132 490.576 324.652C491.2 324.148 491.932 323.764 492.772 323.5C493.636 323.236 494.584 323.104 495.616 323.104C497.296 323.104 498.664 323.368 499.72 323.896C500.8 324.424 501.76 325.156 502.6 326.092L500.188 328.396C499.708 327.82 499.072 327.328 498.28 326.92C497.512 326.488 496.624 326.272 495.616 326.272C494.536 326.272 493.732 326.488 493.204 326.92C492.7 327.352 492.448 327.916 492.448 328.612C492.448 329.332 492.676 329.872 493.132 330.232C493.588 330.592 494.32 330.856 495.328 331.024L497.056 331.24C499.12 331.552 500.62 332.164 501.556 333.076C502.516 333.964 502.996 335.164 502.996 336.676C502.996 337.588 502.816 338.416 502.456 339.16C502.12 339.88 501.628 340.504 500.98 341.032C500.332 341.56 499.552 341.968 498.64 342.256C497.728 342.544 496.708 342.688 495.58 342.688ZM519.201 339.16H519.021C518.613 340.264 517.941 341.128 517.005 341.752C516.093 342.376 515.013 342.688 513.765 342.688C511.389 342.688 509.553 341.836 508.257 340.132C506.961 338.404 506.313 335.992 506.313 332.896C506.313 329.8 506.961 327.4 508.257 325.696C509.553 323.968 511.389 323.104 513.765 323.104C515.013 323.104 516.093 323.416 517.005 324.04C517.941 324.64 518.613 325.504 519.021 326.632H519.201V315.616H523.125V342.256H519.201V339.16ZM514.953 339.304C516.153 339.304 517.161 339.016 517.977 338.44C518.793 337.84 519.201 337.06 519.201 336.1V329.692C519.201 328.732 518.793 327.964 517.977 327.388C517.161 326.788 516.153 326.488 514.953 326.488C513.585 326.488 512.493 326.932 511.677 327.82C510.861 328.684 510.453 329.836 510.453 331.276V334.516C510.453 335.956 510.861 337.12 511.677 338.008C512.493 338.872 513.585 339.304 514.953 339.304ZM528.734 315.616H532.658V331.96H532.838L535.43 328.612L539.93 323.536H544.502L537.95 330.772L545.294 342.256H540.614L535.25 333.328L532.658 336.136V342.256H528.734V315.616Z" fill="black"/>
<path d="M32.9417 396.528H32.8777C32.7817 397.072 32.4777 397.531 31.9657 397.904C31.4644 398.267 30.7924 398.448 29.9497 398.448C29.2884 398.448 28.675 398.325 28.1097 398.08C27.555 397.835 27.0697 397.472 26.6537 396.992C26.2484 396.501 25.9284 395.899 25.6937 395.184C25.459 394.469 25.3417 393.643 25.3417 392.704C25.3417 391.765 25.459 390.939 25.6937 390.224C25.939 389.499 26.2804 388.891 26.7177 388.4C27.155 387.909 27.6777 387.536 28.2857 387.28C28.8937 387.024 29.571 386.896 30.3177 386.896C31.3204 386.896 32.1737 387.115 32.8777 387.552C33.5817 387.989 34.1364 388.619 34.5417 389.44L32.8297 390.448C32.627 389.968 32.323 389.568 31.9177 389.248C31.523 388.928 30.9897 388.768 30.3177 388.768C29.4857 388.768 28.819 389.024 28.3177 389.536C27.827 390.037 27.5817 390.784 27.5817 391.776V393.568C27.5817 394.549 27.8324 395.296 28.3337 395.808C28.835 396.32 29.507 396.576 30.3497 396.576C30.6804 396.576 30.9897 396.539 31.2777 396.464C31.5657 396.379 31.8164 396.256 32.0297 396.096C32.243 395.936 32.4137 395.739 32.5417 395.504C32.6697 395.269 32.7337 394.992 32.7337 394.672V393.952H30.5417V392.176H34.7657V398.256H32.9417V396.528ZM40.7163 398.448C40.119 398.448 39.5803 398.347 39.1003 398.144C38.631 397.941 38.2256 397.648 37.8843 397.264C37.5536 396.88 37.2976 396.421 37.1163 395.888C36.935 395.344 36.8443 394.736 36.8443 394.064C36.8443 393.392 36.935 392.789 37.1163 392.256C37.2976 391.723 37.5536 391.269 37.8843 390.896C38.2256 390.512 38.631 390.219 39.1003 390.016C39.5803 389.813 40.119 389.712 40.7163 389.712C41.3136 389.712 41.8523 389.813 42.3323 390.016C42.8123 390.219 43.2176 390.512 43.5483 390.896C43.8896 391.269 44.151 391.723 44.3323 392.256C44.5136 392.789 44.6043 393.392 44.6043 394.064C44.6043 394.736 44.5136 395.344 44.3323 395.888C44.151 396.421 43.8896 396.88 43.5483 397.264C43.2176 397.648 42.8123 397.941 42.3323 398.144C41.8523 398.347 41.3136 398.448 40.7163 398.448ZM40.7163 396.8C41.2603 396.8 41.687 396.635 41.9963 396.304C42.3056 395.973 42.4603 395.488 42.4603 394.848V393.296C42.4603 392.667 42.3056 392.187 41.9963 391.856C41.687 391.525 41.2603 391.36 40.7163 391.36C40.183 391.36 39.7616 391.525 39.4523 391.856C39.143 392.187 38.9883 392.667 38.9883 393.296V394.848C38.9883 395.488 39.143 395.973 39.4523 396.304C39.7616 396.635 40.183 396.8 40.7163 396.8ZM55.3532 388.96V398.256H53.2412V388.96H50.0732V387.088H58.5212V388.96H55.3532ZM62.7076 398.448C62.1102 398.448 61.5716 398.347 61.0916 398.144C60.6222 397.941 60.2169 397.648 59.8756 397.264C59.5449 396.88 59.2889 396.421 59.1076 395.888C58.9262 395.344 58.8356 394.736 58.8356 394.064C58.8356 393.392 58.9262 392.789 59.1076 392.256C59.2889 391.723 59.5449 391.269 59.8756 390.896C60.2169 390.512 60.6222 390.219 61.0916 390.016C61.5716 389.813 62.1102 389.712 62.7076 389.712C63.3049 389.712 63.8436 389.813 64.3236 390.016C64.8036 390.219 65.2089 390.512 65.5396 390.896C65.8809 391.269 66.1422 391.723 66.3236 392.256C66.5049 392.789 66.5956 393.392 66.5956 394.064C66.5956 394.736 66.5049 395.344 66.3236 395.888C66.1422 396.421 65.8809 396.88 65.5396 397.264C65.2089 397.648 64.8036 397.941 64.3236 398.144C63.8436 398.347 63.3049 398.448 62.7076 398.448ZM62.7076 396.8C63.2516 396.8 63.6782 396.635 63.9876 396.304C64.2969 395.973 64.4516 395.488 64.4516 394.848V393.296C64.4516 392.667 64.2969 392.187 63.9876 391.856C63.6782 391.525 63.2516 391.36 62.7076 391.36C62.1742 391.36 61.7529 391.525 61.4436 391.856C61.1342 392.187 60.9796 392.667 60.9796 393.296V394.848C60.9796 395.488 61.1342 395.973 61.4436 396.304C61.7529 396.635 62.1742 396.8 62.7076 396.8ZM72.9604 398.256V387.088H75.0724V396.384H79.4724V398.256H72.9604ZM82.5202 388.688C82.0935 388.688 81.7842 388.592 81.5922 388.4C81.4109 388.208 81.3202 387.963 81.3202 387.664V387.344C81.3202 387.045 81.4109 386.8 81.5922 386.608C81.7842 386.416 82.0935 386.32 82.5202 386.32C82.9362 386.32 83.2402 386.416 83.4322 386.608C83.6242 386.8 83.7202 387.045 83.7202 387.344V387.664C83.7202 387.963 83.6242 388.208 83.4322 388.4C83.2402 388.592 82.9362 388.688 82.5202 388.688ZM81.4962 389.904H83.5442V398.256H81.4962V389.904ZM86.2381 386.416H88.2861V391.28H88.3501C88.4994 390.8 88.7821 390.421 89.1981 390.144C89.6141 389.856 90.0994 389.712 90.6541 389.712C91.7207 389.712 92.5314 390.091 93.0861 390.848C93.6514 391.595 93.9341 392.667 93.9341 394.064C93.9341 395.472 93.6514 396.555 93.0861 397.312C92.5314 398.069 91.7207 398.448 90.6541 398.448C90.0994 398.448 89.6141 398.304 89.1981 398.016C88.7927 397.728 88.5101 397.344 88.3501 396.864H88.2861V398.256H86.2381V386.416ZM89.9981 396.752C90.5314 396.752 90.9634 396.576 91.2941 396.224C91.6247 395.872 91.7901 395.397 91.7901 394.8V393.36C91.7901 392.763 91.6247 392.288 91.2941 391.936C90.9634 391.573 90.5314 391.392 89.9981 391.392C89.5074 391.392 89.0967 391.515 88.7661 391.76C88.4461 392.005 88.2861 392.331 88.2861 392.736V395.392C88.2861 395.829 88.4461 396.165 88.7661 396.4C89.0967 396.635 89.5074 396.752 89.9981 396.752ZM96.1518 398.256V389.904H98.1998V391.632H98.2798C98.3331 391.408 98.4131 391.195 98.5198 390.992C98.6371 390.779 98.7865 390.592 98.9678 390.432C99.1491 390.272 99.3625 390.144 99.6078 390.048C99.8638 389.952 100.157 389.904 100.488 389.904H100.936V391.84H100.296C99.6025 391.84 99.0798 391.941 98.7278 392.144C98.3758 392.347 98.1998 392.677 98.1998 393.136V398.256H96.1518ZM108.725 398.256C108.277 398.256 107.92 398.128 107.653 397.872C107.397 397.605 107.237 397.253 107.173 396.816H107.077C106.939 397.36 106.656 397.771 106.229 398.048C105.803 398.315 105.275 398.448 104.645 398.448C103.792 398.448 103.136 398.224 102.677 397.776C102.219 397.328 101.989 396.731 101.989 395.984C101.989 395.12 102.299 394.48 102.917 394.064C103.536 393.637 104.416 393.424 105.557 393.424H106.981V392.816C106.981 392.347 106.859 391.984 106.613 391.728C106.368 391.472 105.973 391.344 105.429 391.344C104.949 391.344 104.56 391.451 104.261 391.664C103.973 391.867 103.728 392.112 103.525 392.4L102.309 391.312C102.619 390.832 103.029 390.448 103.541 390.16C104.053 389.861 104.731 389.712 105.573 389.712C106.704 389.712 107.563 389.968 108.149 390.48C108.736 390.992 109.029 391.728 109.029 392.688V396.624H109.861V398.256H108.725ZM105.333 396.96C105.792 396.96 106.181 396.859 106.501 396.656C106.821 396.453 106.981 396.155 106.981 395.76V394.656H105.669C104.603 394.656 104.069 394.997 104.069 395.68V395.952C104.069 396.293 104.176 396.549 104.389 396.72C104.613 396.88 104.928 396.96 105.333 396.96ZM111.839 398.256V389.904H113.887V391.632H113.967C114.02 391.408 114.1 391.195 114.207 390.992C114.324 390.779 114.473 390.592 114.655 390.432C114.836 390.272 115.049 390.144 115.295 390.048C115.551 389.952 115.844 389.904 116.175 389.904H116.623V391.84H115.983C115.289 391.84 114.767 391.941 114.415 392.144C114.063 392.347 113.887 392.677 113.887 393.136V398.256H111.839ZM123.685 389.904H125.605L122.245 399.744C122.138 400.043 122.016 400.299 121.877 400.512C121.749 400.736 121.594 400.917 121.413 401.056C121.232 401.195 121.013 401.296 120.757 401.36C120.501 401.424 120.202 401.456 119.861 401.456H118.629V399.824H120.133L120.517 398.656L117.525 389.904H119.557L121.013 394.32L121.557 396.432H121.653L122.229 394.32L123.685 389.904Z" fill="#316FED"/>
<path d="M137.473 392.256H146.806M146.806 392.256L142.139 387.589M146.806 392.256L142.139 396.923" stroke="#316FED" stroke-width="2" stroke-linecap="round" stroke-linejoin="round"/>
</g>
<rect x="0.640625" y="216.756" width="569" height="215" stroke="#A5A5A5"/>
</g>
<g filter="url(#filter1_d_4739_43551)">
<g filter="url(#filter2_dd_4739_43551)">
<g clip-path="url(#clip1_4739_43551)">
<rect x="170.141" y="0.255859" width="400" height="216" fill="white"/>
<path d="M195.681 44.2559V30.2959H202.281C202.934 30.2959 203.521 30.4092 204.041 30.6359C204.561 30.8492 205.001 31.1492 205.361 31.5359C205.734 31.9225 206.021 32.3959 206.221 32.9559C206.421 33.5025 206.521 34.1025 206.521 34.7559C206.521 35.4225 206.421 36.0292 206.221 36.5759C206.021 37.1225 205.734 37.5892 205.361 37.9759C205.001 38.3625 204.561 38.6692 204.041 38.8959C203.521 39.1092 202.934 39.2159 202.281 39.2159H198.721V44.2559H195.681ZM198.721 36.5759H201.921C202.374 36.5759 202.727 36.4625 202.981 36.2359C203.247 35.9959 203.381 35.6492 203.381 35.1959V34.3159C203.381 33.8625 203.247 33.5225 202.981 33.2959C202.727 33.0559 202.374 32.9359 201.921 32.9359H198.721V36.5759ZM215.066 33.7559H217.826L213.786 45.8759C213.519 46.6892 213.139 47.2892 212.646 47.6759C212.166 48.0625 211.472 48.2559 210.566 48.2559H208.726V45.9559H210.706L211.066 44.7959L207.386 33.7559H210.326L211.866 38.6559L212.626 41.6959H212.746L213.526 38.6559L215.066 33.7559ZM223.009 44.2559C221.983 44.2559 221.203 43.9959 220.669 43.4759C220.149 42.9559 219.889 42.1959 219.889 41.1959V36.0559H218.409V33.7559H219.149C219.549 33.7559 219.823 33.6625 219.969 33.4759C220.116 33.2759 220.189 32.9959 220.189 32.6359V30.9159H222.849V33.7559H224.929V36.0559H222.849V41.9559H224.769V44.2559H223.009ZM226.985 29.4559H229.945V35.5359H230.065C230.252 34.9892 230.579 34.5159 231.045 34.1159C231.512 33.7159 232.159 33.5159 232.985 33.5159C234.065 33.5159 234.879 33.8759 235.425 34.5959C235.985 35.3159 236.265 36.3425 236.265 37.6759V44.2559H233.305V37.9159C233.305 37.2359 233.199 36.7359 232.985 36.4159C232.772 36.0825 232.392 35.9159 231.845 35.9159C231.605 35.9159 231.372 35.9492 231.145 36.0159C230.919 36.0692 230.712 36.1625 230.525 36.2959C230.352 36.4292 230.212 36.5959 230.105 36.7959C229.999 36.9825 229.945 37.2025 229.945 37.4559V44.2559H226.985V29.4559ZM243.16 44.4959C242.386 44.4959 241.693 44.3692 241.08 44.1159C240.48 43.8625 239.966 43.4959 239.54 43.0159C239.126 42.5359 238.806 41.9559 238.58 41.2759C238.353 40.5959 238.24 39.8359 238.24 38.9959C238.24 38.1559 238.353 37.3959 238.58 36.7159C238.806 36.0359 239.126 35.4625 239.54 34.9959C239.966 34.5159 240.48 34.1492 241.08 33.8959C241.693 33.6425 242.386 33.5159 243.16 33.5159C243.933 33.5159 244.62 33.6425 245.22 33.8959C245.833 34.1492 246.346 34.5159 246.76 34.9959C247.186 35.4625 247.513 36.0359 247.74 36.7159C247.966 37.3959 248.08 38.1559 248.08 38.9959C248.08 39.8359 247.966 40.5959 247.74 41.2759C247.513 41.9559 247.186 42.5359 246.76 43.0159C246.346 43.4959 245.833 43.8625 245.22 44.1159C244.62 44.3692 243.933 44.4959 243.16 44.4959ZM243.16 42.1559C243.746 42.1559 244.2 41.9759 244.52 41.6159C244.84 41.2559 245 40.7425 245 40.0759V37.9359C245 37.2692 244.84 36.7559 244.52 36.3959C244.2 36.0359 243.746 35.8559 243.16 35.8559C242.573 35.8559 242.12 36.0359 241.8 36.3959C241.48 36.7559 241.32 37.2692 241.32 37.9359V40.0759C241.32 40.7425 241.48 41.2559 241.8 41.6159C242.12 41.9759 242.573 42.1559 243.16 42.1559ZM250.189 44.2559V33.7559H253.149V35.5359H253.269C253.455 34.9892 253.782 34.5159 254.249 34.1159C254.715 33.7159 255.362 33.5159 256.189 33.5159C257.269 33.5159 258.082 33.8759 258.629 34.5959C259.189 35.3159 259.469 36.3425 259.469 37.6759V44.2559H256.509V37.9159C256.509 37.2359 256.402 36.7359 256.189 36.4159C255.975 36.0825 255.595 35.9159 255.049 35.9159C254.809 35.9159 254.575 35.9492 254.349 36.0159C254.122 36.0692 253.915 36.1625 253.729 36.2959C253.555 36.4292 253.415 36.5959 253.309 36.7959C253.202 36.9825 253.149 37.2025 253.149 37.4559V44.2559H250.189Z" fill="#1D2433"/>
<path fill-rule="evenodd" clip-rule="evenodd" d="M570.141 69.2559H170.141V68.2559H570.141V69.2559Z" fill="#EAECF0"/>
<path d="M196.949 107.536H200.873V110.632H201.053C201.461 109.504 202.121 108.64 203.033 108.04C203.969 107.416 205.061 107.104 206.309 107.104C208.685 107.104 210.521 107.968 211.817 109.696C213.113 111.4 213.761 113.8 213.761 116.896C213.761 119.992 213.113 122.404 211.817 124.132C210.521 125.836 208.685 126.688 206.309 126.688C205.061 126.688 203.969 126.376 203.033 125.752C202.121 125.128 201.461 124.264 201.053 123.16H200.873V133.456H196.949V107.536ZM205.121 123.304C206.489 123.304 207.581 122.872 208.397 122.008C209.213 121.12 209.621 119.956 209.621 118.516V115.276C209.621 113.836 209.213 112.684 208.397 111.82C207.581 110.932 206.489 110.488 205.121 110.488C203.921 110.488 202.913 110.788 202.097 111.388C201.281 111.964 200.873 112.732 200.873 113.692V120.1C200.873 121.06 201.281 121.84 202.097 122.44C202.913 123.016 203.921 123.304 205.121 123.304ZM220.233 104.188C219.417 104.188 218.817 103.996 218.433 103.612C218.073 103.228 217.893 102.736 217.893 102.136V101.524C217.893 100.924 218.073 100.432 218.433 100.048C218.817 99.6639 219.417 99.4719 220.233 99.4719C221.049 99.4719 221.637 99.6639 221.997 100.048C222.357 100.432 222.537 100.924 222.537 101.524V102.136C222.537 102.736 222.357 103.228 221.997 103.612C221.637 103.996 221.049 104.188 220.233 104.188ZM218.253 107.536H222.177V126.256H218.253V107.536ZM227.781 107.536H231.705V110.632H231.885C232.293 109.504 232.953 108.64 233.865 108.04C234.801 107.416 235.893 107.104 237.141 107.104C239.517 107.104 241.353 107.968 242.649 109.696C243.945 111.4 244.593 113.8 244.593 116.896C244.593 119.992 243.945 122.404 242.649 124.132C241.353 125.836 239.517 126.688 237.141 126.688C235.893 126.688 234.801 126.376 233.865 125.752C232.953 125.128 232.293 124.264 231.885 123.16H231.705V133.456H227.781V107.536ZM235.953 123.304C237.321 123.304 238.413 122.872 239.229 122.008C240.045 121.12 240.453 119.956 240.453 118.516V115.276C240.453 113.836 240.045 112.684 239.229 111.82C238.413 110.932 237.321 110.488 235.953 110.488C234.753 110.488 233.745 110.788 232.929 111.388C232.113 111.964 231.705 112.732 231.705 113.692V120.1C231.705 121.06 232.113 121.84 232.929 122.44C233.745 123.016 234.753 123.304 235.953 123.304ZM259.573 104.188C258.757 104.188 258.157 103.996 257.773 103.612C257.413 103.228 257.233 102.736 257.233 102.136V101.524C257.233 100.924 257.413 100.432 257.773 100.048C258.157 99.6639 258.757 99.4719 259.573 99.4719C260.389 99.4719 260.977 99.6639 261.337 100.048C261.697 100.432 261.877 100.924 261.877 101.524V102.136C261.877 102.736 261.697 103.228 261.337 103.612C260.977 103.996 260.389 104.188 259.573 104.188ZM257.593 107.536H261.517V126.256H257.593V107.536ZM267.121 126.256V107.536H271.045V110.632H271.225C271.633 109.624 272.245 108.784 273.061 108.112C273.901 107.44 275.041 107.104 276.481 107.104C278.401 107.104 279.889 107.74 280.945 109.012C282.025 110.26 282.565 112.048 282.565 114.376V126.256H278.641V114.88C278.641 111.952 277.465 110.488 275.113 110.488C274.609 110.488 274.105 110.56 273.601 110.704C273.121 110.824 272.689 111.016 272.305 111.28C271.921 111.544 271.609 111.88 271.369 112.288C271.153 112.696 271.045 113.176 271.045 113.728V126.256H267.121ZM293.943 126.688C292.167 126.688 290.679 126.376 289.479 125.752C288.279 125.128 287.235 124.264 286.347 123.16L288.867 120.856C289.563 121.696 290.331 122.356 291.171 122.836C292.035 123.292 293.031 123.52 294.159 123.52C295.311 123.52 296.163 123.304 296.715 122.872C297.291 122.416 297.579 121.792 297.579 121C297.579 120.4 297.375 119.896 296.967 119.488C296.583 119.056 295.899 118.78 294.915 118.66L293.187 118.444C291.267 118.204 289.755 117.652 288.651 116.788C287.571 115.9 287.031 114.592 287.031 112.864C287.031 111.952 287.199 111.148 287.535 110.452C287.871 109.732 288.339 109.132 288.939 108.652C289.563 108.148 290.295 107.764 291.135 107.5C291.999 107.236 292.947 107.104 293.979 107.104C295.659 107.104 297.027 107.368 298.083 107.896C299.163 108.424 300.123 109.156 300.963 110.092L298.551 112.396C298.071 111.82 297.435 111.328 296.643 110.92C295.875 110.488 294.987 110.272 293.979 110.272C292.899 110.272 292.095 110.488 291.567 110.92C291.063 111.352 290.811 111.916 290.811 112.612C290.811 113.332 291.039 113.872 291.495 114.232C291.951 114.592 292.683 114.856 293.691 115.024L295.419 115.24C297.483 115.552 298.983 116.164 299.919 117.076C300.879 117.964 301.359 119.164 301.359 120.676C301.359 121.588 301.179 122.416 300.819 123.16C300.483 123.88 299.991 124.504 299.343 125.032C298.695 125.56 297.915 125.968 297.003 126.256C296.091 126.544 295.071 126.688 293.943 126.688ZM310.73 126.256C309.362 126.256 308.33 125.908 307.634 125.212C306.938 124.492 306.59 123.484 306.59 122.188V110.74H303.674V107.536H305.258C305.906 107.536 306.35 107.392 306.59 107.104C306.854 106.816 306.986 106.348 306.986 105.7V102.424H310.514V107.536H314.438V110.74H310.514V123.052H314.15V126.256H310.73ZM332.411 126.256C331.379 126.256 330.587 125.968 330.035 125.392C329.483 124.792 329.147 124.036 329.027 123.124H328.847C328.487 124.3 327.827 125.188 326.867 125.788C325.907 126.388 324.743 126.688 323.375 126.688C321.431 126.688 319.931 126.184 318.875 125.176C317.843 124.168 317.327 122.812 317.327 121.108C317.327 119.236 317.999 117.832 319.343 116.896C320.711 115.96 322.703 115.492 325.319 115.492H328.703V113.908C328.703 112.756 328.391 111.868 327.767 111.244C327.143 110.62 326.171 110.308 324.851 110.308C323.747 110.308 322.847 110.548 322.151 111.028C321.455 111.508 320.867 112.12 320.387 112.864L318.047 110.74C318.671 109.684 319.547 108.82 320.675 108.148C321.803 107.452 323.279 107.104 325.103 107.104C327.527 107.104 329.387 107.668 330.683 108.796C331.979 109.924 332.627 111.544 332.627 113.656V123.052H334.607V126.256H332.411ZM324.491 123.7C325.715 123.7 326.723 123.436 327.515 122.908C328.307 122.356 328.703 121.624 328.703 120.712V118.012H325.391C322.679 118.012 321.323 118.852 321.323 120.532V121.18C321.323 122.02 321.599 122.656 322.151 123.088C322.727 123.496 323.507 123.7 324.491 123.7ZM342.449 126.256C341.105 126.256 340.097 125.92 339.425 125.248C338.777 124.552 338.453 123.592 338.453 122.368V99.6159H342.377V123.052H344.969V126.256H342.449ZM352.503 126.256C351.159 126.256 350.151 125.92 349.479 125.248C348.831 124.552 348.507 123.592 348.507 122.368V99.6159H352.431V123.052H355.023V126.256H352.503ZM369.261 104.188C368.445 104.188 367.845 103.996 367.461 103.612C367.101 103.228 366.921 102.736 366.921 102.136V101.524C366.921 100.924 367.101 100.432 367.461 100.048C367.845 99.6639 368.445 99.4719 369.261 99.4719C370.077 99.4719 370.665 99.6639 371.025 100.048C371.385 100.432 371.565 100.924 371.565 101.524V102.136C371.565 102.736 371.385 103.228 371.025 103.612C370.665 103.996 370.077 104.188 369.261 104.188ZM367.281 107.536H371.205V126.256H367.281V107.536ZM376.808 126.256V107.536H380.732V110.632H380.912C381.32 109.624 381.932 108.784 382.748 108.112C383.588 107.44 384.728 107.104 386.168 107.104C388.088 107.104 389.576 107.74 390.632 109.012C391.712 110.26 392.252 112.048 392.252 114.376V126.256H388.328V114.88C388.328 111.952 387.152 110.488 384.8 110.488C384.296 110.488 383.792 110.56 383.288 110.704C382.808 110.824 382.376 111.016 381.992 111.28C381.608 111.544 381.296 111.88 381.056 112.288C380.84 112.696 380.732 113.176 380.732 113.728V126.256H376.808ZM403.631 126.688C401.855 126.688 400.367 126.376 399.167 125.752C397.967 125.128 396.923 124.264 396.035 123.16L398.555 120.856C399.251 121.696 400.019 122.356 400.859 122.836C401.723 123.292 402.719 123.52 403.847 123.52C404.999 123.52 405.851 123.304 406.403 122.872C406.979 122.416 407.267 121.792 407.267 121C407.267 120.4 407.063 119.896 406.655 119.488C406.271 119.056 405.587 118.78 404.603 118.66L402.875 118.444C400.955 118.204 399.443 117.652 398.339 116.788C397.259 115.9 396.719 114.592 396.719 112.864C396.719 111.952 396.887 111.148 397.223 110.452C397.559 109.732 398.027 109.132 398.627 108.652C399.251 108.148 399.983 107.764 400.823 107.5C401.687 107.236 402.635 107.104 403.667 107.104C405.347 107.104 406.715 107.368 407.771 107.896C408.851 108.424 409.811 109.156 410.651 110.092L408.239 112.396C407.759 111.82 407.123 111.328 406.331 110.92C405.563 110.488 404.675 110.272 403.667 110.272C402.587 110.272 401.783 110.488 401.255 110.92C400.751 111.352 400.499 111.916 400.499 112.612C400.499 113.332 400.727 113.872 401.183 114.232C401.639 114.592 402.371 114.856 403.379 115.024L405.107 115.24C407.171 115.552 408.671 116.164 409.607 117.076C410.567 117.964 411.047 119.164 411.047 120.676C411.047 121.588 410.867 122.416 410.507 123.16C410.171 123.88 409.679 124.504 409.031 125.032C408.383 125.56 407.603 125.968 406.691 126.256C405.779 126.544 404.759 126.688 403.631 126.688ZM420.418 126.256C419.05 126.256 418.018 125.908 417.322 125.212C416.626 124.492 416.278 123.484 416.278 122.188V110.74H413.362V107.536H414.946C415.594 107.536 416.038 107.392 416.278 107.104C416.542 106.816 416.674 106.348 416.674 105.7V102.424H420.202V107.536H424.126V110.74H420.202V123.052H423.838V126.256H420.418ZM430.362 104.188C429.546 104.188 428.946 103.996 428.562 103.612C428.202 103.228 428.022 102.736 428.022 102.136V101.524C428.022 100.924 428.202 100.432 428.562 100.048C428.946 99.6639 429.546 99.4719 430.362 99.4719C431.178 99.4719 431.766 99.6639 432.126 100.048C432.486 100.432 432.666 100.924 432.666 101.524V102.136C432.666 102.736 432.486 103.228 432.126 103.612C431.766 103.996 431.178 104.188 430.362 104.188ZM428.382 107.536H432.306V126.256H428.382V107.536ZM441.906 126.256C440.562 126.256 439.554 125.92 438.882 125.248C438.234 124.552 437.91 123.592 437.91 122.368V99.6159H441.834V123.052H444.426V126.256H441.906ZM451.96 126.256C450.616 126.256 449.608 125.92 448.936 125.248C448.288 124.552 447.964 123.592 447.964 122.368V99.6159H451.888V123.052H454.48V126.256H451.96ZM457.302 117.292V113.296H467.274V117.292H457.302ZM478.338 126.688C476.562 126.688 475.074 126.376 473.874 125.752C472.674 125.128 471.63 124.264 470.742 123.16L473.262 120.856C473.958 121.696 474.726 122.356 475.566 122.836C476.43 123.292 477.426 123.52 478.554 123.52C479.706 123.52 480.558 123.304 481.11 122.872C481.686 122.416 481.974 121.792 481.974 121C481.974 120.4 481.77 119.896 481.362 119.488C480.978 119.056 480.294 118.78 479.31 118.66L477.582 118.444C475.662 118.204 474.15 117.652 473.046 116.788C471.966 115.9 471.426 114.592 471.426 112.864C471.426 111.952 471.594 111.148 471.93 110.452C472.266 109.732 472.734 109.132 473.334 108.652C473.958 108.148 474.69 107.764 475.53 107.5C476.394 107.236 477.342 107.104 478.374 107.104C480.054 107.104 481.422 107.368 482.478 107.896C483.558 108.424 484.518 109.156 485.358 110.092L482.946 112.396C482.466 111.82 481.83 111.328 481.038 110.92C480.27 110.488 479.382 110.272 478.374 110.272C477.294 110.272 476.49 110.488 475.962 110.92C475.458 111.352 475.206 111.916 475.206 112.612C475.206 113.332 475.434 113.872 475.89 114.232C476.346 114.592 477.078 114.856 478.086 115.024L479.814 115.24C481.878 115.552 483.378 116.164 484.314 117.076C485.274 117.964 485.754 119.164 485.754 120.676C485.754 121.588 485.574 122.416 485.214 123.16C484.878 123.88 484.386 124.504 483.738 125.032C483.09 125.56 482.31 125.968 481.398 126.256C480.486 126.544 479.466 126.688 478.338 126.688ZM501.959 123.16H501.779C501.371 124.264 500.699 125.128 499.763 125.752C498.851 126.376 497.771 126.688 496.523 126.688C494.147 126.688 492.311 125.836 491.015 124.132C489.719 122.404 489.071 119.992 489.071 116.896C489.071 113.8 489.719 111.4 491.015 109.696C492.311 107.968 494.147 107.104 496.523 107.104C497.771 107.104 498.851 107.416 499.763 108.04C500.699 108.64 501.371 109.504 501.779 110.632H501.959V99.6159H505.883V126.256H501.959V123.16ZM497.711 123.304C498.911 123.304 499.919 123.016 500.735 122.44C501.551 121.84 501.959 121.06 501.959 120.1V113.692C501.959 112.732 501.551 111.964 500.735 111.388C499.919 110.788 498.911 110.488 497.711 110.488C496.343 110.488 495.251 110.932 494.435 111.82C493.619 112.684 493.211 113.836 493.211 115.276V118.516C493.211 119.956 493.619 121.12 494.435 122.008C495.251 122.872 496.343 123.304 497.711 123.304ZM511.492 99.6159H515.416V115.96H515.596L518.188 112.612L522.688 107.536H527.26L520.708 114.772L528.052 126.256H523.372L518.008 117.328L515.416 120.136V126.256H511.492V99.6159Z" fill="black"/>
<path d="M202.942 180.528H202.878C202.782 181.072 202.478 181.531 201.966 181.904C201.464 182.267 200.792 182.448 199.95 182.448C199.288 182.448 198.675 182.325 198.11 182.08C197.555 181.835 197.07 181.472 196.654 180.992C196.248 180.501 195.928 179.899 195.694 179.184C195.459 178.469 195.342 177.643 195.342 176.704C195.342 175.765 195.459 174.939 195.694 174.224C195.939 173.499 196.28 172.891 196.718 172.4C197.155 171.909 197.678 171.536 198.286 171.28C198.894 171.024 199.571 170.896 200.318 170.896C201.32 170.896 202.174 171.115 202.878 171.552C203.582 171.989 204.136 172.619 204.542 173.44L202.83 174.448C202.627 173.968 202.323 173.568 201.918 173.248C201.523 172.928 200.99 172.768 200.318 172.768C199.486 172.768 198.819 173.024 198.318 173.536C197.827 174.037 197.582 174.784 197.582 175.776V177.568C197.582 178.549 197.832 179.296 198.334 179.808C198.835 180.32 199.507 180.576 200.35 180.576C200.68 180.576 200.99 180.539 201.278 180.464C201.566 180.379 201.816 180.256 202.03 180.096C202.243 179.936 202.414 179.739 202.542 179.504C202.67 179.269 202.734 178.992 202.734 178.672V177.952H200.542V176.176H204.766V182.256H202.942V180.528ZM210.716 182.448C210.119 182.448 209.58 182.347 209.1 182.144C208.631 181.941 208.226 181.648 207.884 181.264C207.554 180.88 207.298 180.421 207.116 179.888C206.935 179.344 206.844 178.736 206.844 178.064C206.844 177.392 206.935 176.789 207.116 176.256C207.298 175.723 207.554 175.269 207.884 174.896C208.226 174.512 208.631 174.219 209.1 174.016C209.58 173.813 210.119 173.712 210.716 173.712C211.314 173.712 211.852 173.813 212.332 174.016C212.812 174.219 213.218 174.512 213.548 174.896C213.89 175.269 214.151 175.723 214.332 176.256C214.514 176.789 214.604 177.392 214.604 178.064C214.604 178.736 214.514 179.344 214.332 179.888C214.151 180.421 213.89 180.88 213.548 181.264C213.218 181.648 212.812 181.941 212.332 182.144C211.852 182.347 211.314 182.448 210.716 182.448ZM210.716 180.8C211.26 180.8 211.687 180.635 211.996 180.304C212.306 179.973 212.46 179.488 212.46 178.848V177.296C212.46 176.667 212.306 176.187 211.996 175.856C211.687 175.525 211.26 175.36 210.716 175.36C210.183 175.36 209.762 175.525 209.452 175.856C209.143 176.187 208.988 176.667 208.988 177.296V178.848C208.988 179.488 209.143 179.973 209.452 180.304C209.762 180.635 210.183 180.8 210.716 180.8ZM225.353 172.96V182.256H223.241V172.96H220.073V171.088H228.521V172.96H225.353ZM232.708 182.448C232.11 182.448 231.572 182.347 231.092 182.144C230.622 181.941 230.217 181.648 229.876 181.264C229.545 180.88 229.289 180.421 229.108 179.888C228.926 179.344 228.836 178.736 228.836 178.064C228.836 177.392 228.926 176.789 229.108 176.256C229.289 175.723 229.545 175.269 229.876 174.896C230.217 174.512 230.622 174.219 231.092 174.016C231.572 173.813 232.11 173.712 232.708 173.712C233.305 173.712 233.844 173.813 234.324 174.016C234.804 174.219 235.209 174.512 235.54 174.896C235.881 175.269 236.142 175.723 236.324 176.256C236.505 176.789 236.596 177.392 236.596 178.064C236.596 178.736 236.505 179.344 236.324 179.888C236.142 180.421 235.881 180.88 235.54 181.264C235.209 181.648 234.804 181.941 234.324 182.144C233.844 182.347 233.305 182.448 232.708 182.448ZM232.708 180.8C233.252 180.8 233.678 180.635 233.988 180.304C234.297 179.973 234.452 179.488 234.452 178.848V177.296C234.452 176.667 234.297 176.187 233.988 175.856C233.678 175.525 233.252 175.36 232.708 175.36C232.174 175.36 231.753 175.525 231.444 175.856C231.134 176.187 230.98 176.667 230.98 177.296V178.848C230.98 179.488 231.134 179.973 231.444 180.304C231.753 180.635 232.174 180.8 232.708 180.8ZM242.96 182.256V171.088H245.072V180.384H249.472V182.256H242.96ZM252.52 172.688C252.094 172.688 251.784 172.592 251.592 172.4C251.411 172.208 251.32 171.963 251.32 171.664V171.344C251.32 171.045 251.411 170.8 251.592 170.608C251.784 170.416 252.094 170.32 252.52 170.32C252.936 170.32 253.24 170.416 253.432 170.608C253.624 170.8 253.72 171.045 253.72 171.344V171.664C253.72 171.963 253.624 172.208 253.432 172.4C253.24 172.592 252.936 172.688 252.52 172.688ZM251.496 173.904H253.544V182.256H251.496V173.904ZM256.238 170.416H258.286V175.28H258.35C258.499 174.8 258.782 174.421 259.198 174.144C259.614 173.856 260.099 173.712 260.654 173.712C261.721 173.712 262.531 174.091 263.086 174.848C263.651 175.595 263.934 176.667 263.934 178.064C263.934 179.472 263.651 180.555 263.086 181.312C262.531 182.069 261.721 182.448 260.654 182.448C260.099 182.448 259.614 182.304 259.198 182.016C258.793 181.728 258.51 181.344 258.35 180.864H258.286V182.256H256.238V170.416ZM259.998 180.752C260.531 180.752 260.963 180.576 261.294 180.224C261.625 179.872 261.79 179.397 261.79 178.8V177.36C261.79 176.763 261.625 176.288 261.294 175.936C260.963 175.573 260.531 175.392 259.998 175.392C259.507 175.392 259.097 175.515 258.766 175.76C258.446 176.005 258.286 176.331 258.286 176.736V179.392C258.286 179.829 258.446 180.165 258.766 180.4C259.097 180.635 259.507 180.752 259.998 180.752ZM266.152 182.256V173.904H268.2V175.632H268.28C268.333 175.408 268.413 175.195 268.52 174.992C268.637 174.779 268.786 174.592 268.968 174.432C269.149 174.272 269.362 174.144 269.608 174.048C269.864 173.952 270.157 173.904 270.488 173.904H270.936V175.84H270.296C269.602 175.84 269.08 175.941 268.728 176.144C268.376 176.347 268.2 176.677 268.2 177.136V182.256H266.152ZM278.725 182.256C278.277 182.256 277.92 182.128 277.653 181.872C277.397 181.605 277.237 181.253 277.173 180.816H277.077C276.939 181.36 276.656 181.771 276.229 182.048C275.803 182.315 275.275 182.448 274.645 182.448C273.792 182.448 273.136 182.224 272.677 181.776C272.219 181.328 271.989 180.731 271.989 179.984C271.989 179.12 272.299 178.48 272.917 178.064C273.536 177.637 274.416 177.424 275.557 177.424H276.981V176.816C276.981 176.347 276.859 175.984 276.613 175.728C276.368 175.472 275.973 175.344 275.429 175.344C274.949 175.344 274.56 175.451 274.261 175.664C273.973 175.867 273.728 176.112 273.525 176.4L272.309 175.312C272.619 174.832 273.029 174.448 273.541 174.16C274.053 173.861 274.731 173.712 275.573 173.712C276.704 173.712 277.563 173.968 278.149 174.48C278.736 174.992 279.029 175.728 279.029 176.688V180.624H279.861V182.256H278.725ZM275.333 180.96C275.792 180.96 276.181 180.859 276.501 180.656C276.821 180.453 276.981 180.155 276.981 179.76V178.656H275.669C274.603 178.656 274.069 178.997 274.069 179.68V179.952C274.069 180.293 274.176 180.549 274.389 180.72C274.613 180.88 274.928 180.96 275.333 180.96ZM281.839 182.256V173.904H283.887V175.632H283.967C284.02 175.408 284.1 175.195 284.207 174.992C284.324 174.779 284.473 174.592 284.655 174.432C284.836 174.272 285.049 174.144 285.295 174.048C285.551 173.952 285.844 173.904 286.175 173.904H286.623V175.84H285.983C285.289 175.84 284.767 175.941 284.415 176.144C284.063 176.347 283.887 176.677 283.887 177.136V182.256H281.839ZM293.685 173.904H295.605L292.245 183.744C292.138 184.043 292.016 184.299 291.877 184.512C291.749 184.736 291.594 184.917 291.413 185.056C291.232 185.195 291.013 185.296 290.757 185.36C290.501 185.424 290.202 185.456 289.861 185.456H288.629V183.824H290.133L290.517 182.656L287.525 173.904H289.557L291.013 178.32L291.557 180.432H291.653L292.229 178.32L293.685 173.904Z" fill="#316FED"/>
<path d="M307.473 176.256H316.806M316.806 176.256L312.139 171.589M316.806 176.256L312.139 180.923" stroke="#316FED" stroke-width="2" stroke-linecap="round" stroke-linejoin="round"/>
</g>
<rect x="170.641" y="0.755859" width="399" height="215" stroke="#A5A5A5"/>
</g>
</g>
<defs>
<filter id="filter0_d_4739_43551" x="0.140625" y="216.256" width="590" height="236" filterUnits="userSpaceOnUse" color-interpolation-filters="sRGB">
<feFlood flood-opacity="0" result="BackgroundImageFix"/>
<feColorMatrix in="SourceAlpha" type="matrix" values="0 0 0 0 0 0 0 0 0 0 0 0 0 0 0 0 0 0 127 0" result="hardAlpha"/>
<feOffset dx="20" dy="20"/>
<feComposite in2="hardAlpha" operator="out"/>
<feColorMatrix type="matrix" values="0 0 0 0 0.135625 0 0 0 0 0.770372 0 0 0 0 0.904167 0 0 0 0.5 0"/>
<feBlend mode="normal" in2="BackgroundImageFix" result="effect1_dropShadow_4739_43551"/>
<feBlend mode="normal" in="SourceGraphic" in2="effect1_dropShadow_4739_43551" result="shape"/>
</filter>
<filter id="filter1_d_4739_43551" x="170.141" y="0.255859" width="420" height="236" filterUnits="userSpaceOnUse" color-interpolation-filters="sRGB">
<feFlood flood-opacity="0" result="BackgroundImageFix"/>
<feColorMatrix in="SourceAlpha" type="matrix" values="0 0 0 0 0 0 0 0 0 0 0 0 0 0 0 0 0 0 127 0" result="hardAlpha"/>
<feOffset dx="20" dy="20"/>
<feComposite in2="hardAlpha" operator="out"/>
<feColorMatrix type="matrix" values="0 0 0 0 0.135625 0 0 0 0 0.770372 0 0 0 0 0.904167 0 0 0 0.5 0"/>
<feBlend mode="normal" in2="BackgroundImageFix" result="effect1_dropShadow_4739_43551"/>
<feBlend mode="normal" in="SourceGraphic" in2="effect1_dropShadow_4739_43551" result="shape"/>
</filter>
<filter id="filter2_dd_4739_43551" x="150.141" y="0.255859" width="440" height="256" filterUnits="userSpaceOnUse" color-interpolation-filters="sRGB">
<feFlood flood-opacity="0" result="BackgroundImageFix"/>
<feColorMatrix in="SourceAlpha" type="matrix" values="0 0 0 0 0 0 0 0 0 0 0 0 0 0 0 0 0 0 127 0" result="hardAlpha"/>
<feMorphology radius="4" operator="erode" in="SourceAlpha" result="effect1_dropShadow_4739_43551"/>
<feOffset dy="8"/>
<feGaussianBlur stdDeviation="4"/>
<feColorMatrix type="matrix" values="0 0 0 0 0.2 0 0 0 0 0.6 0 0 0 0 1 0 0 0 0.03 0"/>
<feBlend mode="normal" in2="BackgroundImageFix" result="effect1_dropShadow_4739_43551"/>
<feColorMatrix in="SourceAlpha" type="matrix" values="0 0 0 0 0 0 0 0 0 0 0 0 0 0 0 0 0 0 127 0" result="hardAlpha"/>
<feMorphology radius="4" operator="erode" in="SourceAlpha" result="effect2_dropShadow_4739_43551"/>
<feOffset dy="20"/>
<feGaussianBlur stdDeviation="12"/>
<feColorMatrix type="matrix" values="0 0 0 0 0.2 0 0 0 0 0.6 0 0 0 0 1 0 0 0 0.08 0"/>
<feBlend mode="normal" in2="effect1_dropShadow_4739_43551" result="effect2_dropShadow_4739_43551"/>
<feBlend mode="normal" in="SourceGraphic" in2="effect2_dropShadow_4739_43551" result="shape"/>
</filter>
<clipPath id="clip0_4739_43551">
<rect x="0.140625" y="216.256" width="570" height="216" fill="white"/>
</clipPath>
<clipPath id="clip1_4739_43551">
<rect x="170.141" y="0.255859" width="400" height="216" fill="white"/>
</clipPath>
</defs>
</svg>
