<svg width="61" height="64" viewBox="0 0 61 64" fill="none" xmlns="http://www.w3.org/2000/svg">
<g clip-path="url(#clip0_1195_34649)">
<path d="M55.4958 39.7231L55.4945 21.7231L50.2979 12.7231L39.9056 6.72314L39.9074 30.7231L55.4958 39.7231Z" fill="#0062AB" stroke="#1A1A1A"/>
<rect width="26" height="10" transform="matrix(0.866025 0.5 7.53359e-05 1 36.7048 13.876)" fill="#1A1A1A"/>
<g clip-path="url(#clip1_1195_34649)">
<path d="M41.9158 18.9848L41.9161 23.2308C41.9191 23.4662 41.877 23.6737 41.7921 23.8412C41.713 23.9945 41.5926 24.1035 41.4393 24.1603C41.2804 24.2169 41.0938 24.2224 40.8912 24.1763C40.6614 24.1238 40.4203 24.024 40.1779 23.881C39.6859 23.5969 39.2944 23.2435 39.0034 22.8207C38.7124 22.3979 38.5237 21.9371 38.4374 21.4383L39.287 21.7441C39.3276 21.9879 39.422 22.2483 39.5611 22.5005C39.6945 22.7386 39.9031 22.9395 40.1867 23.1032C40.4485 23.2544 40.6527 23.2903 40.7993 23.2111C40.9459 23.1319 41.0194 22.9238 41.0199 22.5869L41.0196 19.248L39.0709 18.123L39.0709 17.3415L41.9158 18.9848Z" fill="#0062AB"/>
<path d="M45.1305 26.7402C44.644 26.4594 44.2352 26.1357 43.904 25.7693C43.5849 25.4183 43.3065 25.0178 43.0899 24.5981L43.6668 24.3579C43.8528 24.7072 44.0849 25.0407 44.3486 25.3376C44.6032 25.6125 44.8832 25.8381 45.1661 25.9964C45.5183 26.1998 45.7894 26.2727 45.9794 26.2152C46.1694 26.1578 46.2642 25.9726 46.2637 25.6598C46.2637 25.4083 46.1951 25.1755 46.0581 24.9593C45.921 24.743 45.6812 24.5065 45.3448 24.2505L44.7356 23.7994C44.5007 23.6303 44.273 23.4243 44.0621 23.1903C43.8938 23.002 43.7442 22.7917 43.6214 22.5708C43.5099 22.3674 43.4267 22.1584 43.3768 21.9564C43.3236 21.7474 43.2962 21.546 43.2952 21.3588C43.2952 20.8108 43.4662 20.4933 43.8083 20.4062C44.1505 20.3191 44.6207 20.4485 45.2191 20.7945C45.6077 21.0081 45.9941 21.3055 46.3531 21.6673C46.6506 21.9736 46.91 22.3344 47.1069 22.7155L46.5458 22.9734C46.3938 22.6941 46.2076 22.4272 45.9976 22.1873C45.7556 21.9215 45.4871 21.7052 45.2164 21.558C44.8848 21.3665 44.6322 21.2946 44.4586 21.3421C44.2851 21.3897 44.1983 21.5558 44.1983 21.8404C44.1924 21.9413 44.2076 22.0546 44.243 22.1729C44.2784 22.2913 44.3332 22.412 44.4039 22.5274C44.541 22.7434 44.7828 22.982 45.1296 23.2433L45.7229 23.6938C46.2254 24.0787 46.5909 24.4791 46.8193 24.8951C47.0509 25.3218 47.1726 25.7619 47.162 26.1344C47.1656 26.3843 47.1221 26.6054 47.0339 26.785C46.9486 26.9549 46.814 27.072 46.6413 27.1266C46.4527 27.1808 46.2347 27.1776 46 27.1172C45.7183 27.0435 45.4249 26.9163 45.1305 26.7402Z" fill="#0062AB"/>
<path d="M49.9879 29.5447C49.6707 29.3698 49.356 29.1186 49.0697 28.8114C48.8111 28.5268 48.5903 28.1976 48.4283 27.8551C48.2477 27.4651 48.1212 27.0734 48.0555 26.7007C47.8955 25.7702 47.8955 24.9077 48.0553 24.1618C48.1205 23.8634 48.2469 23.6165 48.428 23.4343C48.5899 23.2788 48.8107 23.2045 49.0693 23.2185C49.3579 23.2507 49.6707 23.3618 49.9871 23.5445C50.3035 23.7272 50.6163 23.9773 50.9049 24.2783C51.1635 24.5629 51.3844 24.8922 51.5463 25.2347C51.7274 25.6259 51.8539 26.0189 51.9191 26.3926C52.0791 27.3231 52.0791 28.1856 51.9193 28.9315C51.8537 29.2283 51.7272 29.474 51.5466 29.6555C51.3847 29.811 51.1639 29.8853 50.9053 29.8712C50.6192 29.8478 50.3049 29.7359 49.9879 29.5447ZM49.9878 28.7803C50.388 29.0114 50.6712 29.0179 50.8374 28.7999C51.0037 28.5819 51.0863 28.2034 51.0854 27.6644L51.0853 26.6869C51.0853 26.1527 51.0026 25.6808 50.8372 25.2713C50.6718 24.8619 50.3886 24.5414 49.9875 24.3098C49.5869 24.0785 49.3037 24.072 49.1379 24.2903C48.9721 24.5085 48.8892 24.8848 48.8892 25.419L48.8893 26.4029C48.8894 26.9371 48.9723 27.4091 49.1381 27.8188C49.304 28.2285 49.5872 28.549 49.9878 28.7803Z" fill="#0062AB"/>
<path d="M53.8267 27.1992L53.7541 27.1572L53.7544 31.62L52.9692 31.1666L52.9687 25.3662L54.1212 26.0316L55.766 31.443L55.8387 31.485L55.8383 27.023L56.6236 27.4763L56.624 33.2767L55.4701 32.6105L53.8267 27.1992Z" fill="#0062AB"/>
</g>
</g>
<g clip-path="url(#clip2_1195_34649)">
<path d="M48.3864 43.856L48.3851 25.856L43.1885 16.856L32.7962 10.856L32.798 34.856L48.3864 43.856Z" fill="#007AD5" stroke="#1A1A1A"/>
<rect width="26" height="10" transform="matrix(0.866025 0.5 7.53359e-05 1 29.5955 18.0088)" fill="#1A1A1A"/>
<g clip-path="url(#clip3_1195_34649)">
<path d="M34.8064 23.1176L34.8067 27.3636C34.8098 27.599 34.7676 27.8065 34.6828 27.974C34.6037 28.1274 34.4832 28.2363 34.3299 28.2931C34.171 28.3497 33.9845 28.3552 33.7818 28.3091C33.5521 28.2567 33.3109 28.1568 33.0685 28.0138C32.5765 27.7297 32.1851 27.3763 31.8941 26.9535C31.6031 26.5307 31.4144 26.0699 31.328 25.5711L32.1776 25.8769C32.2182 26.1208 32.3126 26.3812 32.4518 26.6333C32.5852 26.8714 32.7937 27.0723 33.0774 27.2361C33.3391 27.3872 33.5433 27.4231 33.6899 27.3439C33.8365 27.2647 33.9101 27.0566 33.9105 26.7197L33.9102 23.3808L31.9615 22.2558L31.9615 21.4743L34.8064 23.1176Z" fill="#007AD5"/>
<path d="M38.0211 30.873C37.5346 30.5922 37.1258 30.2685 36.7946 29.9021C36.4755 29.5511 36.1971 29.1507 35.9805 28.7309L36.5574 28.4907C36.7434 28.84 36.9755 29.1735 37.2392 29.4704C37.4938 29.7453 37.7739 29.971 38.0567 30.1292C38.4089 30.3326 38.68 30.4055 38.87 30.348C39.06 30.2906 39.1548 30.1054 39.1543 29.7926C39.1543 29.5411 39.0858 29.3083 38.9487 29.0921C38.8117 28.8759 38.5718 28.6394 38.2354 28.3833L37.6262 27.9322C37.3914 27.7631 37.1636 27.5571 36.9527 27.3231C36.7845 27.1349 36.6349 26.9245 36.5121 26.7036C36.4006 26.5002 36.3173 26.2912 36.2674 26.0892C36.2143 25.8802 36.1868 25.6788 36.1858 25.4916C36.1858 24.9436 36.3568 24.6261 36.699 24.539C37.0411 24.4519 37.5113 24.5813 38.1098 24.9273C38.4983 25.141 38.8847 25.4384 39.2438 25.8001C39.5412 26.1064 39.8007 26.4672 39.9975 26.8483L39.4364 27.1062C39.2844 26.8269 39.0983 26.5601 38.8882 26.3201C38.6463 26.0543 38.3777 25.838 38.1071 25.6908C37.7754 25.4994 37.5228 25.4274 37.3493 25.4749C37.1757 25.5225 37.0889 25.6886 37.0889 25.9732C37.083 26.0741 37.0982 26.1874 37.1336 26.3057C37.1691 26.4241 37.2239 26.5448 37.2945 26.6602C37.4316 26.8762 37.6735 27.1148 38.0202 27.3761L38.6136 27.8266C39.1161 28.2115 39.4815 28.6119 39.7099 29.0279C39.9415 29.4546 40.0632 29.8947 40.0526 30.2672C40.0562 30.5171 40.0127 30.7382 39.9245 30.9178C39.8392 31.0877 39.7046 31.2048 39.532 31.2594C39.3433 31.3136 39.1253 31.3104 38.8906 31.25C38.609 31.1763 38.3155 31.0491 38.0211 30.873Z" fill="#007AD5"/>
<path d="M42.8785 33.6775C42.5613 33.5026 42.2467 33.2514 41.9603 32.9443C41.7017 32.6597 41.4809 32.3304 41.3189 31.9879C41.1383 31.5979 41.0118 31.2062 40.9461 30.8335C40.7862 29.903 40.7861 29.0405 40.9459 28.2946C41.0111 27.9962 41.1376 27.7493 41.3186 27.5671C41.4805 27.4116 41.7013 27.3373 41.9599 27.3513C42.2485 27.3835 42.5613 27.4946 42.8777 27.6773C43.1941 27.86 43.5069 28.1101 43.7955 28.4111C44.0542 28.6957 44.275 29.025 44.4369 29.3675C44.618 29.7587 44.7445 30.1518 44.8098 30.5254C44.9697 31.4559 44.9698 32.3184 44.8099 33.0643C44.7443 33.3611 44.6178 33.6068 44.4373 33.7883C44.2754 33.9438 44.0546 34.0181 43.796 34.0041C43.5099 33.9806 43.1955 33.8687 42.8785 33.6775ZM42.8784 32.9131C43.2786 33.1442 43.5618 33.1507 43.7281 32.9327C43.8943 32.7147 43.977 32.3362 43.976 31.7972L43.9759 30.8197C43.9759 30.2855 43.8932 29.8136 43.7278 29.4042C43.5624 28.9947 43.2792 28.6742 42.8781 28.4426C42.4775 28.2113 42.1943 28.2048 42.0285 28.4231C41.8627 28.6413 41.7798 29.0176 41.7799 29.5518L41.7799 30.5357C41.78 31.0699 41.8629 31.5419 42.0288 31.9516C42.1946 32.3613 42.4778 32.6818 42.8784 32.9131Z" fill="#007AD5"/>
<path d="M46.7173 31.332L46.6447 31.2901L46.645 35.7528L45.8598 35.2994L45.8594 29.499L47.0119 30.1644L48.6567 35.5759L48.7293 35.6178L48.729 31.1558L49.5142 31.6092L49.5146 37.4095L48.3608 36.7433L46.7173 31.332Z" fill="#007AD5"/>
</g>
</g>
<g clip-path="url(#clip4_1195_34649)">
<path d="M41.2771 47.9849L41.2757 29.9849L36.0791 20.9849L25.6868 14.9849L25.6886 38.9849L41.2771 47.9849Z" fill="#0084E7" stroke="#1A1A1A"/>
<rect width="26" height="10" transform="matrix(0.866025 0.5 7.53359e-05 1 22.4861 22.1377)" fill="#1A1A1A"/>
<g clip-path="url(#clip5_1195_34649)">
<path d="M27.697 27.2465L27.6974 31.4925C27.7004 31.7279 27.6582 31.9354 27.5734 32.1029C27.4943 32.2563 27.3738 32.3652 27.2206 32.422C27.0616 32.4787 26.8751 32.4841 26.6724 32.438C26.4427 32.3856 26.2015 32.2857 25.9591 32.1427C25.4672 31.8586 25.0757 31.5052 24.7847 31.0824C24.4937 30.6596 24.305 30.1988 24.2186 29.7L25.0683 30.0058C25.1089 30.2497 25.2032 30.5101 25.3424 30.7622C25.4758 31.0003 25.6843 31.2012 25.968 31.365C26.2297 31.5161 26.4339 31.552 26.5805 31.4728C26.7272 31.3936 26.8007 31.1856 26.8011 30.8486L26.8009 27.5098L24.8522 26.3847L24.8521 25.6032L27.697 27.2465Z" fill="#0084E7"/>
<path d="M30.9118 35.0019C30.4253 34.7211 30.0164 34.3974 29.6852 34.031C29.3661 33.68 29.0877 33.2796 28.8712 32.8598L29.4481 32.6197C29.634 32.9689 29.8661 33.3024 30.1299 33.5993C30.3845 33.8742 30.6645 34.0999 30.9473 34.2581C31.2995 34.4615 31.5706 34.5344 31.7606 34.4769C31.9507 34.4195 32.0454 34.2343 32.0449 33.9215C32.0449 33.67 31.9764 33.4372 31.8393 33.221C31.7023 33.0048 31.4625 32.7683 31.126 32.5122L30.5169 32.0611C30.282 31.892 30.0542 31.686 29.8433 31.452C29.6751 31.2638 29.5255 31.0534 29.4027 30.8325C29.2912 30.6291 29.208 30.4201 29.158 30.2181C29.1049 30.0091 29.0774 29.8077 29.0765 29.6205C29.0764 29.0725 29.2475 28.755 29.5896 28.6679C29.9317 28.5808 30.402 28.7103 31.0004 29.0562C31.389 29.2699 31.7754 29.5673 32.1344 29.929C32.4319 30.2353 32.6913 30.5961 32.8882 30.9773L32.327 31.2351C32.175 30.9558 31.9889 30.689 31.7788 30.449C31.5369 30.1832 31.2683 29.9669 30.9977 29.8197C30.6661 29.6283 30.4135 29.5563 30.2399 29.6038C30.0663 29.6514 29.9795 29.8175 29.9796 30.1021C29.9736 30.203 29.9889 30.3163 30.0243 30.4346C30.0597 30.553 30.1145 30.6737 30.1852 30.7891C30.3222 31.0051 30.5641 31.2437 30.9108 31.505L31.5042 31.9556C32.0067 32.3404 32.3721 32.7408 32.6006 33.1568C32.8322 33.5835 32.9539 34.0236 32.9432 34.3961C32.9468 34.646 32.9033 34.8671 32.8152 35.0467C32.7299 35.2166 32.5953 35.3338 32.4226 35.3883C32.2339 35.4425 32.0159 35.4393 31.7813 35.3789C31.4996 35.3052 31.2061 35.178 30.9118 35.0019Z" fill="#0084E7"/>
<path d="M35.7691 37.8064C35.4519 37.6315 35.1373 37.3803 34.8509 37.0732C34.5923 36.7886 34.3715 36.4593 34.2096 36.1168C34.029 35.7268 33.9024 35.3351 33.8367 34.9625C33.6768 34.0319 33.6767 33.1694 33.8365 32.4235C33.9017 32.1251 34.0282 31.8782 34.2092 31.696C34.3711 31.5405 34.5919 31.4662 34.8505 31.4802C35.1391 31.5124 35.4519 31.6235 35.7683 31.8062C36.0847 31.9889 36.3975 32.239 36.6862 32.54C36.9448 32.8246 37.1656 33.1539 37.3276 33.4964C37.5086 33.8876 37.6352 34.2807 37.7004 34.6543C37.8603 35.5848 37.8604 36.4473 37.7006 37.1932C37.6349 37.49 37.5084 37.7357 37.3279 37.9172C37.166 38.0727 36.9452 38.147 36.6866 38.133C36.4005 38.1095 36.0861 37.9976 35.7691 37.8064ZM35.7691 37.042C36.1692 37.2731 36.4524 37.2796 36.6187 37.0616C36.7849 36.8436 36.8676 36.4651 36.8666 35.9261L36.8666 34.9486C36.8665 34.4144 36.7838 33.9425 36.6184 33.5331C36.453 33.1236 36.1698 32.8031 35.7687 32.5715C35.3681 32.3402 35.0849 32.3337 34.9191 32.552C34.7533 32.7702 34.6705 33.1465 34.6705 33.6807L34.6706 34.6646C34.6706 35.1988 34.7535 35.6708 34.9194 36.0805C35.0852 36.4902 35.3685 36.8108 35.7691 37.042Z" fill="#0084E7"/>
<path d="M39.6079 35.4609L39.5353 35.419L39.5357 39.8817L38.7504 39.4283L38.75 33.6279L39.9025 34.2933L41.5473 39.7048L41.6199 39.7467L41.6196 35.2847L42.4048 35.7381L42.4053 41.5384L41.2514 40.8722L39.6079 35.4609Z" fill="#0084E7"/>
</g>
</g>
<g clip-path="url(#clip6_1195_34649)">
<path d="M34.1677 52.1177L34.1663 34.1177L28.9697 25.1177L18.5774 19.1177L18.5792 43.1177L34.1677 52.1177Z" fill="#0093FF" stroke="#1A1A1A"/>
<rect width="26" height="10" transform="matrix(0.866025 0.5 7.53359e-05 1 15.3767 26.2705)" fill="#1A1A1A"/>
<g clip-path="url(#clip7_1195_34649)">
<path d="M20.5877 31.3793L20.588 35.6253C20.591 35.8607 20.5489 36.0682 20.464 36.2357C20.3849 36.3891 20.2644 36.498 20.1112 36.5548C19.9523 36.6115 19.7657 36.6169 19.563 36.5708C19.3333 36.5184 19.0922 36.4185 18.8498 36.2755C18.3578 35.9914 17.9663 35.638 17.6753 35.2152C17.3843 34.7924 17.1956 34.3316 17.1093 33.8328L17.9589 34.1387C17.9995 34.3825 18.0939 34.6429 18.233 34.8951C18.3664 35.1331 18.5749 35.334 18.8586 35.4978C19.1204 35.6489 19.3245 35.6848 19.4712 35.6056C19.6178 35.5264 19.6913 35.3184 19.6917 34.9814L19.6915 31.6426L17.7428 30.5175L17.7427 29.736L20.5877 31.3793Z" fill="#0093FF"/>
<path d="M23.8024 39.1348C23.3159 38.8539 22.907 38.5302 22.5759 38.1638C22.2567 37.8128 21.9784 37.4124 21.7618 36.9927L22.3387 36.7525C22.5246 37.1017 22.7567 37.4353 23.0205 37.7322C23.2751 38.007 23.5551 38.2327 23.838 38.3909C24.1901 38.5943 24.4612 38.6672 24.6513 38.6098C24.8413 38.5523 24.936 38.3671 24.9356 38.0543C24.9355 37.8028 24.867 37.57 24.73 37.3538C24.5929 37.1376 24.3531 36.9011 24.0166 36.645L23.4075 36.1939C23.1726 36.0248 22.9449 35.8189 22.7339 35.5848C22.5657 35.3966 22.4161 35.1862 22.2933 34.9653C22.1818 34.7619 22.0986 34.553 22.0487 34.3509C21.9955 34.1419 21.968 33.9405 21.9671 33.7533C21.9671 33.2053 22.1381 32.8878 22.4802 32.8007C22.8223 32.7136 23.2926 32.8431 23.891 33.189C24.2796 33.4027 24.666 33.7001 25.025 34.0618C25.3225 34.3681 25.5819 34.7289 25.7788 35.1101L25.2177 35.3679C25.0656 35.0886 24.8795 34.8218 24.6695 34.5818C24.4275 34.316 24.159 34.0997 23.8883 33.9525C23.5567 33.7611 23.3041 33.6891 23.1305 33.7367C22.9569 33.7842 22.8702 33.9503 22.8702 34.2349C22.8642 34.3358 22.8795 34.4491 22.9149 34.5675C22.9503 34.6858 23.0051 34.8065 23.0758 34.9219C23.2128 35.1379 23.4547 35.3765 23.8014 35.6378L24.3948 36.0884C24.8973 36.4732 25.2628 36.8736 25.4912 37.2896C25.7228 37.7163 25.8445 38.1564 25.8339 38.5289C25.8374 38.7789 25.7939 38.9999 25.7058 39.1795C25.6205 39.3494 25.4859 39.4666 25.3132 39.5211C25.1246 39.5753 24.9066 39.5721 24.6719 39.5117C24.3902 39.438 24.0968 39.3108 23.8024 39.1348Z" fill="#0093FF"/>
<path d="M28.6597 41.9392C28.3425 41.7643 28.0279 41.5131 27.7416 41.206C27.483 40.9214 27.2621 40.5921 27.1002 40.2496C26.9196 39.8597 26.7931 39.4679 26.7274 39.0953C26.5674 38.1648 26.5673 37.3022 26.7272 36.5563C26.7923 36.258 26.9188 36.011 27.0998 35.8288C27.2618 35.6733 27.4826 35.599 27.7411 35.613C28.0298 35.6452 28.3426 35.7563 28.659 35.939C28.9754 36.1217 29.2882 36.3718 29.5768 36.6728C29.8354 36.9574 30.0562 37.2867 30.2182 37.6292C30.3992 38.0205 30.5258 38.4135 30.591 38.7871C30.751 39.7176 30.751 40.5802 30.5912 41.326C30.5255 41.6229 30.3991 41.8685 30.2185 42.05C30.0566 42.2055 29.8358 42.2798 29.5772 42.2658C29.2911 42.2423 28.9767 42.1304 28.6597 41.9392ZM28.6597 41.1749C29.0598 41.4059 29.3431 41.4124 29.5093 41.1944C29.6756 40.9764 29.7582 40.5979 29.7572 40.0589L29.7572 39.0814C29.7571 38.5472 29.6744 38.0753 29.509 37.6659C29.3437 37.2564 29.0604 36.9359 28.6594 36.7043C28.2587 36.473 27.9755 36.4665 27.8097 36.6848C27.644 36.9031 27.5611 37.2793 27.5611 37.8135L27.5612 38.7974C27.5612 39.3316 27.6442 39.8036 27.81 40.2133C27.9759 40.6231 28.2591 40.9436 28.6597 41.1749Z" fill="#0093FF"/>
<path d="M32.4986 39.5937L32.4259 39.5518L32.4263 44.0145L31.641 43.5611L31.6406 37.7607L32.7931 38.4261L34.4379 43.8376L34.5105 43.8795L34.5102 39.4175L35.2955 39.8709L35.2959 45.6713L34.142 45.0051L32.4986 39.5937Z" fill="#0093FF"/>
</g>
</g>
<g clip-path="url(#clip8_1195_34649)">
<path d="M27.0583 56.2466L27.057 38.2466L21.8604 29.2466L11.4681 23.2466L11.4699 47.2466L27.0583 56.2466Z" fill="#229FFC" stroke="#1A1A1A"/>
<rect width="26" height="10" transform="matrix(0.866025 0.5 7.53359e-05 1 8.26733 30.3994)" fill="#1A1A1A"/>
<g clip-path="url(#clip9_1195_34649)">
<path d="M13.4783 35.5082L13.4786 39.7542C13.4816 39.9896 13.4395 40.1971 13.3546 40.3646C13.2755 40.518 13.1551 40.6269 13.0018 40.6837C12.8429 40.7404 12.6563 40.7458 12.4537 40.6997C12.2239 40.6473 11.9828 40.5474 11.7404 40.4044C11.2484 40.1204 10.8569 39.7669 10.5659 39.3441C10.2749 38.9213 10.0862 38.4605 9.99988 37.9617L10.8495 38.2676C10.8901 38.5114 10.9845 38.7718 11.1236 39.024C11.257 39.262 11.4656 39.4629 11.7492 39.6267C12.011 39.7778 12.2152 39.8138 12.3618 39.7345C12.5084 39.6553 12.5819 39.4473 12.5824 39.1103L12.5821 35.7715L10.6334 34.6464L10.6334 33.865L13.4783 35.5082Z" fill="#229FFC"/>
<path d="M16.693 43.2637C16.2065 42.9828 15.7977 42.6591 15.4665 42.2927C15.1474 41.9418 14.869 41.5413 14.6524 41.1216L15.2293 40.8814C15.4153 41.2306 15.6474 41.5642 15.9111 41.8611C16.1657 42.1359 16.4457 42.3616 16.7286 42.5199C17.0808 42.7232 17.3519 42.7961 17.5419 42.7387C17.7319 42.6812 17.8267 42.496 17.8262 42.1832C17.8262 41.9317 17.7576 41.6989 17.6206 41.4827C17.4835 41.2665 17.2437 41.03 16.9073 40.7739L16.2981 40.3228C16.0632 40.1537 15.8355 39.9478 15.6246 39.7137C15.4563 39.5255 15.3067 39.3151 15.1839 39.0942C15.0724 38.8908 14.9892 38.6819 14.9393 38.4798C14.8861 38.2708 14.8587 38.0694 14.8577 37.8822C14.8577 37.3343 15.0287 37.0167 15.3708 36.9296C15.713 36.8425 16.1832 36.972 16.7816 37.3179C17.1702 37.5316 17.5566 37.829 17.9156 38.1907C18.2131 38.497 18.4725 38.8578 18.6694 39.239L18.1083 39.4968C17.9563 39.2175 17.7701 38.9507 17.5601 38.7107C17.3181 38.4449 17.0496 38.2286 16.7789 38.0814C16.4473 37.89 16.1947 37.818 16.0211 37.8656C15.8476 37.9131 15.7608 38.0792 15.7608 38.3638C15.7549 38.4648 15.7701 38.578 15.8055 38.6964C15.8409 38.8147 15.8957 38.9354 15.9664 39.0508C16.1035 39.2668 16.3453 39.5054 16.6921 39.7667L17.2854 40.2173C17.7879 40.6021 18.1534 41.0025 18.3818 41.4185C18.6134 41.8452 18.7351 42.2853 18.7245 42.6578C18.7281 42.9078 18.6846 43.1288 18.5964 43.3084C18.5111 43.4783 18.3765 43.5955 18.2038 43.6501C18.0152 43.7042 17.7972 43.701 17.5625 43.6407C17.2808 43.5669 16.9874 43.4397 16.693 43.2637Z" fill="#229FFC"/>
<path d="M21.5504 46.0682C21.2332 45.8933 20.9185 45.642 20.6322 45.3349C20.3736 45.0503 20.1528 44.721 19.9908 44.3785C19.8102 43.9886 19.6837 43.5968 19.618 43.2242C19.458 42.2937 19.458 41.4311 19.6178 40.6852C19.6829 40.3869 19.8094 40.1399 19.9905 39.9577C20.1524 39.8022 20.3732 39.7279 20.6318 39.7419C20.9204 39.7742 21.2332 39.8853 21.5496 40.0679C21.866 40.2506 22.1788 40.5007 22.4674 40.8017C22.726 41.0863 22.9469 41.4156 23.1088 41.7581C23.2899 42.1494 23.4164 42.5424 23.4816 42.916C23.6416 43.8465 23.6416 44.7091 23.4818 45.455C23.4162 45.7518 23.2897 45.9974 23.1091 46.1789C22.9472 46.3344 22.7264 46.4087 22.4678 46.3947C22.1817 46.3712 21.8674 46.2593 21.5504 46.0682ZM21.5503 45.3038C21.9505 45.5348 22.2337 45.5413 22.3999 45.3233C22.5662 45.1053 22.6488 44.7268 22.6479 44.1878L22.6478 43.2103C22.6478 42.6761 22.565 42.2042 22.3997 41.7948C22.2343 41.3853 21.951 41.0648 21.55 40.8332C21.1494 40.602 20.8662 40.5954 20.7004 40.8137C20.5346 41.032 20.4517 41.4082 20.4517 41.9424L20.4518 42.9263C20.4519 43.4605 20.5348 43.9325 20.7006 44.3422C20.8665 44.752 21.1497 45.0725 21.5503 45.3038Z" fill="#229FFC"/>
<path d="M25.3892 43.7226L25.3166 43.6807L25.3169 48.1434L24.5317 47.69L24.5312 41.8896L25.6837 42.555L27.3285 47.9665L27.4012 48.0084L27.4008 43.5464L28.1861 43.9998L28.1865 49.8002L27.0326 49.134L25.3892 43.7226Z" fill="#229FFC"/>
</g>
</g>
<g clip-path="url(#clip10_1195_34649)">
<path d="M19.9489 60.3755L19.9476 42.3755L14.751 33.3755L4.35868 27.3755L4.36049 51.3755L19.9489 60.3755Z" fill="#40A8F5" stroke="#1A1A1A"/>
<rect width="26" height="10" transform="matrix(0.866025 0.5 7.53359e-05 1 1.15796 34.5283)" fill="#1A1A1A"/>
<g clip-path="url(#clip11_1195_34649)">
<path d="M6.36892 39.6371L6.36924 43.8831C6.37227 44.1185 6.33012 44.326 6.24527 44.4935C6.16617 44.6469 6.04569 44.7559 5.89243 44.8126C5.7335 44.8693 5.54697 44.8747 5.3443 44.8286C5.11457 44.7762 4.87341 44.6764 4.63102 44.5333C4.13904 44.2493 3.74756 43.8958 3.45656 43.473C3.16556 43.0503 2.97687 42.5894 2.8905 42.0906L3.74014 42.3965C3.78074 42.6403 3.87511 42.9007 4.01426 43.1529C4.14766 43.3909 4.35619 43.5918 4.63986 43.7556C4.90161 43.9067 5.10579 43.9427 5.25241 43.8635C5.39903 43.7842 5.47256 43.5762 5.47299 43.2392L5.47274 39.9004L3.52403 38.7753L3.52398 37.9939L6.36892 39.6371Z" fill="#40A8F5"/>
<path d="M9.58363 47.3926C9.09714 47.1117 8.6883 46.788 8.3571 46.4216C8.03799 46.0707 7.75961 45.6702 7.54304 45.2505L8.11993 45.0103C8.30589 45.3595 8.538 45.6931 8.80175 45.99C9.05634 46.2648 9.33636 46.4905 9.6192 46.6488C9.97139 46.8521 10.2425 46.925 10.4325 46.8676C10.6225 46.8101 10.7173 46.6249 10.7168 46.3121C10.7168 46.0606 10.6483 45.8278 10.5112 45.6116C10.3742 45.3954 10.1343 45.1589 9.7979 44.9028L9.18875 44.4517C8.95385 44.2826 8.72611 44.0767 8.51518 43.8426C8.34697 43.6544 8.19735 43.444 8.07457 43.2231C7.96306 43.0197 7.87984 42.8108 7.82992 42.6087C7.77677 42.3997 7.74928 42.1983 7.74834 42.0111C7.7483 41.4632 7.91934 41.1456 8.26146 41.0585C8.60358 40.9714 9.07384 41.1009 9.67225 41.4468C10.0608 41.6605 10.4472 41.9579 10.8063 42.3196C11.1037 42.6259 11.3632 42.9867 11.56 43.3679L10.9989 43.6257C10.8469 43.3464 10.6608 43.0796 10.4507 42.8396C10.2088 42.5739 9.94022 42.3575 9.66957 42.2104C9.33793 42.0189 9.08533 41.9469 8.91176 41.9945C8.73818 42.042 8.65141 42.2081 8.65143 42.4927C8.64549 42.5937 8.66073 42.7069 8.69614 42.8253C8.73155 42.9436 8.78636 43.0643 8.85703 43.1797C8.99408 43.3957 9.23596 43.6343 9.58268 43.8956L10.1761 44.3462C10.6786 44.731 11.044 45.1314 11.2724 45.5475C11.504 45.9741 11.6257 46.4142 11.6151 46.7867C11.6187 47.0367 11.5752 47.2577 11.487 47.4373C11.4017 47.6072 11.2671 47.7244 11.0945 47.779C10.9058 47.8331 10.6878 47.8299 10.4531 47.7696C10.1715 47.6958 9.87801 47.5686 9.58363 47.3926Z" fill="#40A8F5"/>
<path d="M14.441 50.1971C14.1238 50.0222 13.8092 49.7709 13.5228 49.4638C13.2642 49.1792 13.0434 48.8499 12.8814 48.5074C12.7008 48.1175 12.5743 47.7257 12.5086 47.3531C12.3487 46.4226 12.3486 45.56 12.5084 44.8141C12.5736 44.5158 12.7001 44.2688 12.8811 44.0866C13.043 43.9311 13.2638 43.8568 13.5224 43.8708C13.811 43.9031 14.1238 44.0142 14.4402 44.1968C14.7566 44.3795 15.0694 44.6296 15.358 44.9306C15.6167 45.2152 15.8375 45.5445 15.9994 45.887C16.1805 46.2783 16.307 46.6713 16.3723 47.0449C16.5322 47.9754 16.5323 48.838 16.3724 49.5839C16.3068 49.8807 16.1803 50.1263 15.9998 50.3078C15.8379 50.4633 15.6171 50.5376 15.3585 50.5236C15.0724 50.5001 14.758 50.3882 14.441 50.1971ZM14.4409 49.4327C14.8411 49.6637 15.1243 49.6702 15.2906 49.4522C15.4568 49.2342 15.5395 48.8557 15.5385 48.3167L15.5384 47.3392C15.5384 46.805 15.4557 46.3332 15.2903 45.9237C15.1249 45.5142 14.8417 45.1937 14.4406 44.9622C14.04 44.7309 13.7568 44.7243 13.591 44.9426C13.4252 45.1609 13.3423 45.5371 13.3424 46.0713L13.3424 47.0552C13.3425 47.5894 13.4254 48.0614 13.5913 48.4711C13.7571 48.8809 14.0403 49.2014 14.4409 49.4327Z" fill="#40A8F5"/>
<path d="M18.2798 47.8515L18.2072 47.8096L18.2075 52.2723L17.4223 51.8189L17.4219 46.0186L18.5744 46.684L20.2192 52.0954L20.2918 52.1373L20.2915 47.6753L21.0767 48.1287L21.0771 53.9291L19.9233 53.2629L18.2798 47.8515Z" fill="#40A8F5"/>
</g>
</g>
<defs>
<clipPath id="clip0_1195_34649">
<rect width="28.2367" height="28.2367" fill="white" transform="matrix(0.866025 0.5 7.53359e-05 1 35.5469 0.631348)"/>
</clipPath>
<clipPath id="clip1_1195_34649">
<rect width="21" height="6" fill="white" transform="matrix(0.866025 0.5 7.53359e-05 1 38.437 16.876)"/>
</clipPath>
<clipPath id="clip2_1195_34649">
<rect width="28.2367" height="28.2367" fill="white" transform="matrix(0.866025 0.5 7.53359e-05 1 28.4375 4.76416)"/>
</clipPath>
<clipPath id="clip3_1195_34649">
<rect width="21" height="6" fill="white" transform="matrix(0.866025 0.5 7.53359e-05 1 31.3277 21.0088)"/>
</clipPath>
<clipPath id="clip4_1195_34649">
<rect width="28.2367" height="28.2367" fill="white" transform="matrix(0.866025 0.5 7.53359e-05 1 21.3281 8.89307)"/>
</clipPath>
<clipPath id="clip5_1195_34649">
<rect width="21" height="6" fill="white" transform="matrix(0.866025 0.5 7.53359e-05 1 24.2183 25.1377)"/>
</clipPath>
<clipPath id="clip6_1195_34649">
<rect width="28.2367" height="28.2367" fill="white" transform="matrix(0.866025 0.5 7.53359e-05 1 14.2188 13.0259)"/>
</clipPath>
<clipPath id="clip7_1195_34649">
<rect width="21" height="6" fill="white" transform="matrix(0.866025 0.5 7.53359e-05 1 17.1089 29.2705)"/>
</clipPath>
<clipPath id="clip8_1195_34649">
<rect width="28.2367" height="28.2367" fill="white" transform="matrix(0.866025 0.5 7.53359e-05 1 7.10938 17.1548)"/>
</clipPath>
<clipPath id="clip9_1195_34649">
<rect width="21" height="6" fill="white" transform="matrix(0.866025 0.5 7.53359e-05 1 9.99953 33.3994)"/>
</clipPath>
<clipPath id="clip10_1195_34649">
<rect width="28.2367" height="28.2367" fill="white" transform="matrix(0.866025 0.5 7.53359e-05 1 0 21.2837)"/>
</clipPath>
<clipPath id="clip11_1195_34649">
<rect width="21" height="6" fill="white" transform="matrix(0.866025 0.5 7.53359e-05 1 2.89016 37.5283)"/>
</clipPath>
</defs>
</svg>
