<svg width="61" height="63" viewBox="0 0 61 63" fill="none" xmlns="http://www.w3.org/2000/svg">
<g clip-path="url(#clip0_1195_34616)">
<path d="M20.5863 28.6513L20.587 10.6513L15.3912 7.65146L4.99913 13.6519L4.99822 37.6519L20.5863 28.6513Z" fill="#9D8400" stroke="#1A1A1A"/>
<path fill-rule="evenodd" clip-rule="evenodd" d="M13.6593 29.6516L18.8554 26.6514L14.5256 22.1516L11.8294 28.0668L10.1955 26.6517L6.73128 33.6519L10.1953 31.6517L13.6593 29.6516Z" fill="#1A1A1A"/>
<circle r="1.5" transform="matrix(0.866007 -0.500033 -3.76274e-05 1 8.89574 22.9018)" fill="#1A1A1A"/>
</g>
<g clip-path="url(#clip1_1195_34616)">
<path d="M27.8129 32.7528L27.8136 14.7528L22.6178 11.753L12.2257 17.7534L12.2248 41.7534L27.8129 32.7528Z" fill="#B79900" stroke="#1A1A1A"/>
<path fill-rule="evenodd" clip-rule="evenodd" d="M20.8859 33.7532L26.0819 30.753L21.7522 26.2531L19.0559 32.1683L17.4221 30.7533L13.9578 37.7534L17.4219 35.7533L20.8859 33.7532Z" fill="#1A1A1A"/>
<circle r="1.5" transform="matrix(0.866007 -0.500033 -3.76274e-05 1 16.1223 27.0034)" fill="#1A1A1A"/>
</g>
<g clip-path="url(#clip2_1195_34616)">
<path d="M35.5288 37.057L35.5295 19.057L30.3336 16.0572L19.9416 22.0576L19.9407 46.0576L35.5288 37.057Z" fill="#CFAE00" stroke="#1A1A1A"/>
<path fill-rule="evenodd" clip-rule="evenodd" d="M30.3339 28.0563L22.5398 32.5566L22.5396 39.5566L30.3336 35.0563L30.3337 32.1813L32.9317 32.5562L32.9319 27.5562L30.3338 30.9313L30.3339 28.0563Z" fill="#1A1A1A"/>
</g>
<g clip-path="url(#clip3_1195_34616)">
<path d="M42.2582 40.956L42.2589 22.956L37.0631 19.9562L26.671 25.9565L26.6701 49.9565L42.2582 40.956Z" fill="#F1CA00" stroke="#1A1A1A"/>
<path fill-rule="evenodd" clip-rule="evenodd" d="M35.3312 41.9563L40.5273 38.9561L36.1975 34.4562L33.5013 40.3714L31.8674 38.9564L28.4032 45.9565L31.8672 43.9564L35.3312 41.9563Z" fill="#1A1A1A"/>
<circle r="1.5" transform="matrix(0.866007 -0.500033 -3.76274e-05 1 30.5676 35.2065)" fill="#1A1A1A"/>
</g>
<g clip-path="url(#clip4_1195_34616)">
<path d="M49.4848 45.0536L49.4855 27.0536L44.2896 24.0538L33.8976 30.0542L33.8967 54.0542L49.4848 45.0536Z" fill="#F2CF1A" stroke="#1A1A1A"/>
<path fill-rule="evenodd" clip-rule="evenodd" d="M42.5578 46.0539L47.7538 43.0537L43.424 38.5539L40.7278 44.4691L39.0939 43.0541L35.6297 50.0542L39.0937 48.0541L42.5578 46.0539Z" fill="#1A1A1A"/>
<circle r="1.5" transform="matrix(0.866007 -0.500033 -3.76274e-05 1 37.7942 39.3042)" fill="#1A1A1A"/>
</g>
<g clip-path="url(#clip5_1195_34616)">
<path d="M56.2313 49.3589L56.2327 31.3589L51.037 28.3589L40.6447 34.3589L40.6429 58.3589L56.2313 49.3589Z" fill="#FFDF3A" stroke="#1A1A1A"/>
<path fill-rule="evenodd" clip-rule="evenodd" d="M51.0368 40.3574L43.2426 44.8574L43.242 51.8574L51.0363 47.3574L51.0365 44.4824L53.6344 44.8574L53.6348 39.8574L51.0366 43.2324L51.0368 40.3574Z" fill="#1A1A1A"/>
</g>
<defs>
<clipPath id="clip0_1195_34616">
<rect width="28.6963" height="28.6963" fill="white" transform="matrix(0.866007 -0.500033 -3.76274e-05 1 0.00107956 14.3491)"/>
</clipPath>
<clipPath id="clip1_1195_34616">
<rect width="28.6963" height="28.6963" fill="white" transform="matrix(0.866007 -0.500033 -3.76274e-05 1 7.22764 18.4507)"/>
</clipPath>
<clipPath id="clip2_1195_34616">
<rect width="28.6963" height="28.6963" fill="white" transform="matrix(0.866007 -0.500033 -3.76274e-05 1 14.4464 21.5757)"/>
</clipPath>
<clipPath id="clip3_1195_34616">
<rect width="28.6963" height="28.6963" fill="white" transform="matrix(0.866007 -0.500033 -3.76274e-05 1 21.673 26.6538)"/>
</clipPath>
<clipPath id="clip4_1195_34616">
<rect width="28.6963" height="28.6963" fill="white" transform="matrix(0.866007 -0.500033 -3.76274e-05 1 28.8995 30.7515)"/>
</clipPath>
<clipPath id="clip5_1195_34616">
<rect width="28.6963" height="28.6963" fill="white" transform="matrix(0.866025 -0.5 -7.53359e-05 1 35.1495 33.8765)"/>
</clipPath>
</defs>
</svg>
