<svg width="72" height="64" viewBox="0 0 72 64" fill="none" xmlns="http://www.w3.org/2000/svg">
<g clip-path="url(#clip0_2647_104108)">
<path d="M20.5182 29.1811L20.5189 11.1811L15.3231 8.18125L4.931 14.1816L4.93009 38.1816L20.5182 29.1811Z" fill="#0062AB" stroke="#2B2B2B"/>
<rect width="26" height="10" transform="matrix(0.866007 -0.500033 -3.76274e-05 1 1.72877 25.0293)" fill="#1A1A1A"/>
<g clip-path="url(#clip1_2647_104108)">
<path d="M6.93938 24.121L6.93922 28.3671C6.94222 28.599 6.90004 28.8552 6.81517 29.1206C6.73605 29.3654 6.61556 29.6135 6.46228 29.8472C6.30334 30.0874 6.1168 30.3083 5.91412 30.4962C5.68439 30.7091 5.44324 30.8877 5.20084 31.0246C4.70888 31.3086 4.31742 31.4073 4.02645 31.3205C3.73549 31.2337 3.54685 30.9907 3.46053 30.5916L4.31017 29.9163C4.35075 30.1133 4.44509 30.2647 4.58422 30.3562C4.71759 30.4402 4.92612 30.4004 5.20978 30.2366C5.47152 30.0854 5.67571 29.8856 5.82234 29.6371C5.96898 29.3885 6.04253 29.0956 6.043 28.7581L6.04313 25.4192L4.09447 26.5444L4.0945 25.763L6.93938 24.121Z" fill="#40A8F5"/>
<path d="M10.1533 28.1647C9.66687 28.4456 9.25805 28.5941 8.92688 28.61C8.60779 28.6276 8.32944 28.5485 8.11291 28.3789L8.68986 27.4725C8.87578 27.607 9.10787 27.6726 9.37159 27.6649C9.62616 27.6458 9.90617 27.5481 10.189 27.3798C10.5412 27.1764 10.8123 26.9363 11.0023 26.6594C11.1924 26.3825 11.2872 26.0879 11.2867 25.7756C11.2867 25.5241 11.2182 25.3704 11.0812 25.3124C10.9441 25.2545 10.7043 25.2949 10.3679 25.4273L9.75878 25.6796C9.5239 25.7818 9.29617 25.8388 9.08526 25.8483C8.91706 25.8543 8.76746 25.8167 8.6447 25.7375C8.5332 25.6629 8.45 25.55 8.40011 25.4056C8.34698 25.258 8.31951 25.0883 8.31859 24.9022C8.31861 24.3542 8.48969 23.8391 8.83184 23.357C9.17398 22.8748 9.64425 22.4612 10.2426 22.1161C10.6312 21.8811 11.0176 21.7323 11.3766 21.6795C11.6741 21.6423 11.9335 21.7035 12.1303 21.8573L11.5691 22.7632C11.4171 22.6595 11.231 22.6075 11.021 22.6101C10.7791 22.6237 10.5105 22.7174 10.2399 22.8828C9.90825 23.0743 9.65564 23.294 9.48206 23.542C9.30847 23.79 9.22167 24.0563 9.22166 24.3409C9.21572 24.4487 9.23093 24.5444 9.26634 24.6219C9.30174 24.6993 9.35654 24.7568 9.4272 24.7906C9.56423 24.8483 9.80609 24.8076 10.1528 24.6686L10.7462 24.4339C11.2486 24.2385 11.614 24.217 11.8424 24.3692C12.074 24.5285 12.1957 24.8281 12.185 25.2129C12.1885 25.4587 12.145 25.7301 12.0568 26.0114C11.9715 26.2799 11.8369 26.5525 11.6642 26.8065C11.4755 27.0785 11.2575 27.327 11.0229 27.5376C10.7412 27.7892 10.4477 28.0008 10.1533 28.1647Z" fill="#40A8F5"/>
<path d="M15.0106 25.36C14.6934 25.5515 14.3788 25.6635 14.0925 25.687C13.8339 25.701 13.6131 25.6267 13.4512 25.4712C13.2706 25.2898 13.1441 25.0441 13.0785 24.7473C12.9186 24.0014 12.9186 23.1389 13.0786 22.2084C13.1438 21.8347 13.2703 21.4417 13.4513 21.0504C13.6133 20.708 13.8341 20.3787 14.0927 20.0941C14.3813 19.793 14.6941 19.5429 15.0105 19.3602C15.3269 19.1775 15.6397 19.0664 15.9283 19.0342C16.1869 19.0202 16.4077 19.0945 16.5696 19.25C16.7506 19.4322 16.8771 19.6791 16.9423 19.9774C17.1022 20.7233 17.1021 21.5859 16.9422 22.5164C16.8765 22.889 16.75 23.2808 16.5694 23.6707C16.4075 24.0132 16.1867 24.3425 15.9281 24.6271C15.642 24.934 15.3276 25.1852 15.0106 25.36ZM15.0106 24.5957C15.4108 24.3646 15.694 24.0441 15.8603 23.6341C16.0266 23.2241 16.1093 22.7501 16.1084 22.2122L16.1084 21.2347C16.1084 20.7004 16.0258 20.3241 15.8604 20.1056C15.6951 19.887 15.4119 19.8936 15.0108 20.1251C14.6102 20.3565 14.327 20.677 14.1612 21.0867C13.9953 21.4964 13.9124 21.9684 13.9124 22.5026L13.9124 23.4865C13.9123 24.0208 13.9952 24.397 14.161 24.6152C14.3268 24.8335 14.61 24.827 15.0106 24.5957Z" fill="#40A8F5"/>
<path d="M18.8499 18.5816L18.7772 18.6235L18.7771 23.0863L17.9919 23.5396L17.9921 17.7393L19.1446 17.0738L20.7888 20.5863L20.8615 20.5444L20.8616 16.0824L21.6468 15.629L21.6466 21.4294L20.4928 22.0956L18.8499 18.5816Z" fill="#40A8F5"/>
</g>
</g>
<g clip-path="url(#clip2_2647_104108)">
<path d="M29.7447 33.2831L29.7453 15.2831L24.5495 12.2833L14.1575 18.2837L14.1566 42.2837L29.7447 33.2831Z" fill="#007AD5" stroke="#2B2B2B"/>
<rect width="26" height="10" transform="matrix(0.866007 -0.500033 -3.76274e-05 1 10.9552 29.1313)" fill="#1A1A1A"/>
<g clip-path="url(#clip3_2647_104108)">
<path d="M16.1658 28.2231L16.1657 32.4691C16.1687 32.701 16.1265 32.9572 16.0416 33.2227C15.9625 33.4674 15.842 33.7155 15.6887 33.9493C15.5298 34.1895 15.3433 34.4103 15.1406 34.5983C14.9109 34.8111 14.6697 34.9898 14.4273 35.1266C13.9353 35.4107 13.5439 35.5093 13.2529 35.4225C12.9619 35.3357 12.7733 35.0928 12.687 34.6937L13.5366 34.0184C13.5772 34.2153 13.6716 34.3668 13.8107 34.4583C13.9441 34.5423 14.1526 34.5024 14.4362 34.3386C14.698 34.1875 14.9022 33.9877 15.0488 33.7391C15.1954 33.4906 15.269 33.1976 15.2695 32.8601L15.2696 29.5213L13.3209 30.6464L13.321 29.865L16.1658 28.2231Z" fill="#40A8F5"/>
<path d="M19.3798 32.2668C18.8933 32.5477 18.4845 32.6961 18.1533 32.7121C17.8343 32.7296 17.5559 32.6506 17.3394 32.4809L17.9163 31.5745C18.1022 31.7091 18.3343 31.7746 18.5981 31.767C18.8526 31.7478 19.1326 31.6502 19.4155 31.4818C19.7677 31.2785 20.0388 31.0383 20.2288 30.7614C20.4188 30.4845 20.5136 30.1899 20.5132 29.8776C20.5132 29.6261 20.4447 29.4725 20.3076 29.4145C20.1706 29.3565 19.9308 29.3969 19.5944 29.5294L18.9852 29.7817C18.7504 29.8838 18.5226 29.9408 18.3117 29.9503C18.1435 29.9563 17.9939 29.9187 17.8712 29.8396C17.7597 29.765 17.6765 29.6521 17.6266 29.5077C17.5734 29.36 17.546 29.1904 17.5451 29.0042C17.5451 28.4563 17.7162 27.9412 18.0583 27.459C18.4004 26.9768 18.8707 26.5632 19.4691 26.2182C19.8577 25.9831 20.2441 25.8343 20.6031 25.7815C20.9005 25.7443 21.1599 25.8056 21.3568 25.9594L20.7956 26.8652C20.6436 26.7615 20.4575 26.7095 20.2474 26.7122C20.0055 26.7257 19.737 26.8195 19.4663 26.9849C19.1347 27.1763 18.8821 27.3961 18.7085 27.6441C18.5349 27.8921 18.4481 28.1584 18.4481 28.443C18.4422 28.5508 18.4574 28.6465 18.4928 28.7239C18.5282 28.8014 18.583 28.8588 18.6537 28.8926C18.7907 28.9504 19.0326 28.9097 19.3793 28.7706L19.9726 28.536C20.4751 28.3406 20.8405 28.319 21.0689 28.4713C21.3005 28.6305 21.4221 28.9301 21.4114 29.3149C21.415 29.5608 21.3715 29.8321 21.2833 30.1135C21.198 30.3819 21.0634 30.6545 20.8907 30.9085C20.702 31.1805 20.484 31.429 20.2493 31.6397C19.9676 31.8912 19.6742 32.1029 19.3798 32.2668Z" fill="#40A8F5"/>
<path d="M24.2371 29.4621C23.9199 29.6535 23.6053 29.7655 23.3189 29.7891C23.0604 29.8031 22.8395 29.7288 22.6776 29.5733C22.4971 29.3918 22.3706 29.1462 22.3049 28.8494C22.1451 28.1035 22.1451 27.2409 22.305 26.3104C22.3702 25.9368 22.4967 25.5438 22.6778 25.1525C22.8397 24.81 23.0606 24.4807 23.3192 24.1961C23.6078 23.8951 23.9206 23.645 24.237 23.4623C24.5534 23.2796 24.8662 23.1685 25.1548 23.1362C25.4133 23.1222 25.6341 23.1965 25.7961 23.352C25.9771 23.5342 26.1036 23.7811 26.1688 24.0795C26.3286 24.8254 26.3286 25.6879 26.1687 26.6184C26.103 26.9911 25.9765 27.3828 25.7959 27.7728C25.634 28.1153 25.4131 28.4446 25.1545 28.7292C24.8684 29.0361 24.5541 29.2872 24.2371 29.4621ZM24.2371 28.6977C24.6373 28.4667 24.9205 28.1461 25.0868 27.7361C25.253 27.3261 25.3357 26.8522 25.3348 26.3142L25.3349 25.3367C25.3349 24.8025 25.2522 24.4261 25.0869 24.2076C24.9215 23.9891 24.6383 23.9956 24.2373 24.2272C23.8367 24.4585 23.5535 24.779 23.3876 25.1888C23.2218 25.5985 23.1389 26.0705 23.1389 26.6047L23.1388 27.5886C23.1388 28.1228 23.2217 28.499 23.3875 28.7173C23.5533 28.9355 23.8365 28.929 24.2371 28.6977Z" fill="#40A8F5"/>
<path d="M28.0763 22.6837L28.0037 22.7256L28.0035 27.1883L27.2183 27.6417L27.2185 21.8413L28.371 21.1759L30.0153 24.6884L30.0879 24.6464L30.0881 20.1844L30.8733 19.731L30.8731 25.5314L29.7192 26.1977L28.0763 22.6837Z" fill="#40A8F5"/>
</g>
</g>
<g clip-path="url(#clip4_2647_104108)">
<path d="M38.9634 37.4081L38.9641 19.4081L33.7683 16.4083L23.3762 22.4087L23.3753 46.4087L38.9634 37.4081Z" fill="#0084E7" stroke="#2B2B2B"/>
<rect width="26" height="10" transform="matrix(0.866007 -0.500033 -3.76274e-05 1 20.174 33.2563)" fill="#1A1A1A"/>
<g clip-path="url(#clip5_2647_104108)">
<path d="M25.3846 32.3481L25.3844 36.5941C25.3874 36.826 25.3453 37.0822 25.2604 37.3477C25.1813 37.5924 25.0608 37.8405 24.9075 38.0743C24.7486 38.3145 24.562 38.5353 24.3593 38.7233C24.1296 38.9361 23.8885 39.1148 23.6461 39.2516C23.1541 39.5357 22.7626 39.6343 22.4717 39.5475C22.1807 39.4607 21.9921 39.2178 21.9058 38.8187L22.7554 38.1434C22.796 38.3403 22.8903 38.4918 23.0294 38.5833C23.1628 38.6673 23.3713 38.6274 23.655 38.4636C23.9167 38.3125 24.1209 38.1127 24.2676 37.8641C24.4142 37.6156 24.4878 37.3226 24.4882 36.9851L24.4883 33.6463L22.5397 34.7714L22.5397 33.99L25.3846 32.3481Z" fill="#40A8F5"/>
<path d="M28.5986 36.3918C28.1121 36.6727 27.7033 36.8211 27.3721 36.8371C27.053 36.8546 26.7747 36.7756 26.5581 36.6059L27.1351 35.6995C27.321 35.8341 27.5531 35.8996 27.8168 35.892C28.0714 35.8728 28.3514 35.7752 28.6342 35.6068C28.9864 35.4035 29.2575 35.1633 29.4476 34.8864C29.6376 34.6095 29.7324 34.3149 29.7319 34.0026C29.7319 33.7511 29.6634 33.5975 29.5264 33.5395C29.3894 33.4815 29.1496 33.5219 28.8131 33.6544L28.204 33.9067C27.9691 34.0088 27.7414 34.0658 27.5305 34.0753C27.3623 34.0813 27.2127 34.0437 27.0899 33.9646C26.9784 33.89 26.8952 33.7771 26.8453 33.6327C26.7922 33.485 26.7647 33.3154 26.7638 33.1292C26.7638 32.5813 26.9349 32.0662 27.2771 31.584C27.6192 31.1018 28.0895 30.6882 28.6879 30.3432C29.0764 30.1081 29.4628 29.9593 29.8218 29.9065C30.1193 29.8693 30.3787 29.9306 30.5755 30.0844L30.0143 30.9902C29.8623 30.8865 29.6762 30.8345 29.4662 30.8372C29.2243 30.8507 28.9557 30.9445 28.6851 31.1099C28.3535 31.3013 28.1009 31.5211 27.9273 31.7691C27.7537 32.0171 27.6669 32.2834 27.6669 32.568C27.6609 32.6758 27.6762 32.7715 27.7116 32.8489C27.747 32.9264 27.8018 32.9838 27.8724 33.0176C28.0094 33.0754 28.2513 33.0347 28.598 32.8956L29.1914 32.661C29.6938 32.4656 30.0593 32.444 30.2877 32.5963C30.5192 32.7555 30.6409 33.0551 30.6302 33.4399C30.6338 33.6858 30.5902 33.9571 30.502 34.2385C30.4167 34.5069 30.2821 34.7795 30.1094 35.0335C29.9208 35.3055 29.7028 35.554 29.4681 35.7647C29.1864 36.0162 28.8929 36.2279 28.5986 36.3918Z" fill="#40A8F5"/>
<path d="M33.4558 33.5871C33.1386 33.7785 32.824 33.8905 32.5377 33.9141C32.2791 33.9281 32.0583 33.8538 31.8964 33.6983C31.7158 33.5168 31.5893 33.2712 31.5237 32.9744C31.3638 32.2285 31.3639 31.3659 31.5238 30.4354C31.589 30.0618 31.7155 29.6688 31.8966 29.2775C32.0585 28.935 32.2793 28.6057 32.5379 28.3211C32.8265 28.0201 33.1393 27.77 33.4557 27.5873C33.7721 27.4046 34.0849 27.2935 34.3735 27.2612C34.6321 27.2472 34.8529 27.3215 35.0148 27.477C35.1959 27.6592 35.3224 27.9061 35.3875 28.2045C35.5474 28.9504 35.5473 29.8129 35.3874 30.7434C35.3217 31.1161 35.1952 31.5078 35.0147 31.8978C34.8527 32.2403 34.6319 32.5696 34.3733 32.8542C34.0872 33.1611 33.7728 33.4122 33.4558 33.5871ZM33.4559 32.8227C33.856 32.5917 34.1392 32.2711 34.3055 31.8611C34.4718 31.4511 34.5545 30.9772 34.5536 30.4392L34.5536 29.4617C34.5537 28.9275 34.471 28.5511 34.3056 28.3326C34.1403 28.1141 33.8571 28.1206 33.456 28.3522C33.0554 28.5835 32.7722 28.904 32.6064 29.3138C32.4406 29.7235 32.3576 30.1955 32.3576 30.7297L32.3576 31.7136C32.3576 32.2478 32.4405 32.624 32.6063 32.8423C32.7721 33.0605 33.0553 33.054 33.4559 32.8227Z" fill="#40A8F5"/>
<path d="M37.2951 26.8087L37.2225 26.8506L37.2223 31.3133L36.4371 31.7667L36.4373 25.9663L37.5898 25.3009L39.234 28.8134L39.3067 28.7714L39.3068 24.3094L40.0921 23.856L40.0918 29.6564L38.938 30.3227L37.2951 26.8087Z" fill="#40A8F5"/>
</g>
</g>
<g clip-path="url(#clip6_2647_104108)">
<path d="M48.19 41.4862L48.1907 23.4862L42.9948 20.4864L32.6028 26.4868L32.6019 50.4868L48.19 41.4862Z" fill="#0093FF" stroke="#2B2B2B"/>
<rect width="26" height="10" transform="matrix(0.866007 -0.500033 -3.76274e-05 1 29.4005 37.3345)" fill="#1A1A1A"/>
<g clip-path="url(#clip7_2647_104108)">
<path d="M34.6112 36.4262L34.611 40.6722C34.614 40.9041 34.5718 41.1604 34.487 41.4258C34.4078 41.6706 34.2873 41.9187 34.1341 42.1524C33.9751 42.3926 33.7886 42.6135 33.5859 42.8014C33.3562 43.0143 33.115 43.1929 32.8726 43.3297C32.3807 43.6138 31.9892 43.7124 31.6982 43.6256C31.4073 43.5389 31.2186 43.2959 31.1323 42.8968L31.982 42.2215C32.0225 42.4185 32.1169 42.5699 32.256 42.6614C32.3894 42.7454 32.5979 42.7055 32.8816 42.5417C33.1433 42.3906 33.3475 42.1908 33.4941 41.9423C33.6408 41.6937 33.7143 41.4007 33.7148 41.0633L33.7149 37.7244L31.7662 38.8496L31.7663 38.0681L34.6112 36.4262Z" fill="#40A8F5"/>
<path d="M37.8251 40.4699C37.3387 40.7508 36.9298 40.8992 36.5987 40.9152C36.2796 40.9328 36.0012 40.8537 35.7847 40.6841L36.3616 39.7777C36.5476 39.9122 36.7797 39.9777 37.0434 39.9701C37.2979 39.951 37.578 39.8533 37.8608 39.6849C38.213 39.4816 38.4841 39.2415 38.6741 38.9646C38.8641 38.6877 38.9589 38.3931 38.9585 38.0807C38.9585 37.8293 38.89 37.6756 38.753 37.6176C38.6159 37.5596 38.3761 37.6001 38.0397 37.7325L37.4306 37.9848C37.1957 38.0869 36.968 38.144 36.757 38.1535C36.5888 38.1595 36.4392 38.1218 36.3165 38.0427C36.205 37.9681 36.1218 37.8552 36.0719 37.7108C36.0188 37.5631 35.9913 37.3935 35.9904 37.2073C35.9904 36.6594 36.1615 36.1443 36.5036 35.6621C36.8458 35.18 37.316 34.7663 37.9144 34.4213C38.303 34.1862 38.6894 34.0375 39.0484 33.9846C39.3458 33.9475 39.6052 34.0087 39.8021 34.1625L39.2409 35.0684C39.0889 34.9646 38.9028 34.9127 38.6928 34.9153C38.4508 34.9289 38.1823 35.0226 37.9117 35.188C37.58 35.3795 37.3274 35.5992 37.1538 35.8472C36.9803 36.0952 36.8935 36.3615 36.8934 36.6461C36.8875 36.7539 36.9027 36.8496 36.9381 36.9271C36.9735 37.0045 37.0283 37.062 37.099 37.0958C37.236 37.1535 37.4779 37.1128 37.8246 36.9737L38.4179 36.7391C38.9204 36.5437 39.2858 36.5221 39.5142 36.6744C39.7458 36.8337 39.8674 37.1333 39.8568 37.518C39.8603 37.7639 39.8168 38.0352 39.7286 38.3166C39.6433 38.5851 39.5087 38.8576 39.336 39.1116C39.1473 39.3836 38.9293 39.6322 38.6946 39.8428C38.413 40.0944 38.1195 40.306 37.8251 40.4699Z" fill="#40A8F5"/>
<path d="M42.6824 37.6652C42.3652 37.8566 42.0506 37.9687 41.7643 37.9922C41.5057 38.0062 41.2849 37.9319 41.1229 37.7764C40.9424 37.595 40.8159 37.3493 40.7502 37.0525C40.5904 36.3066 40.5904 35.4441 40.7503 34.5135C40.8155 34.1399 40.9421 33.7469 41.1231 33.3556C41.2851 33.0131 41.5059 32.6838 41.7645 32.3992C42.0531 32.0982 42.3659 31.8481 42.6823 31.6654C42.9987 31.4827 43.3115 31.3716 43.6001 31.3394C43.8587 31.3253 44.0795 31.3996 44.2414 31.5551C44.4224 31.7373 44.5489 31.9843 44.6141 32.2826C44.7739 33.0285 44.7739 33.891 44.614 34.8216C44.5483 35.1942 44.4218 35.586 44.2412 35.9759C44.0793 36.3184 43.8585 36.6477 43.5999 36.9323C43.3138 37.2392 42.9994 37.4904 42.6824 37.6652ZM42.6824 36.9008C43.0826 36.6698 43.3658 36.3493 43.5321 35.9393C43.6984 35.5293 43.7811 35.0553 43.7802 34.5173L43.7802 33.5398C43.7802 33.0056 43.6976 32.6293 43.5322 32.4107C43.3669 32.1922 43.0837 32.1987 42.6826 32.4303C42.282 32.6616 41.9988 32.9821 41.833 33.3919C41.6671 33.8016 41.5842 34.2736 41.5842 34.8078L41.5841 35.7917C41.5841 36.3259 41.667 36.7022 41.8328 36.9204C41.9986 37.1387 42.2818 37.1321 42.6824 36.9008Z" fill="#40A8F5"/>
<path d="M46.5216 30.8868L46.449 30.9287L46.4489 35.3914L45.6636 35.8448L45.6638 30.0444L46.8163 29.379L48.4606 32.8915L48.5332 32.8495L48.5334 28.3876L49.3186 27.9342L49.3184 33.7345L48.1645 34.4008L46.5216 30.8868Z" fill="#40A8F5"/>
</g>
</g>
<g clip-path="url(#clip8_2647_104108)">
<path d="M57.4165 45.5839L57.4172 27.5839L52.2214 24.5841L41.8293 30.5845L41.8284 54.5845L57.4165 45.5839Z" fill="#229FFC" stroke="#2B2B2B"/>
<rect width="26" height="10" transform="matrix(0.866007 -0.500033 -3.76274e-05 1 38.6271 41.4321)" fill="#1A1A1A"/>
<g clip-path="url(#clip9_2647_104108)">
<path d="M43.8377 40.5239L43.8376 44.7699C43.8406 45.0018 43.7984 45.258 43.7135 45.5235C43.6344 45.7682 43.5139 46.0163 43.3606 46.2501C43.2017 46.4903 43.0151 46.7111 42.8125 46.899C42.5827 47.1119 42.3416 47.2905 42.0992 47.4274C41.6072 47.7115 41.2158 47.8101 40.9248 47.7233C40.6338 47.6365 40.4452 47.3936 40.3589 46.9944L41.2085 46.3192C41.2491 46.5161 41.3434 46.6676 41.4826 46.7591C41.6159 46.8431 41.8245 46.8032 42.1081 46.6394C42.3699 46.4883 42.5741 46.2884 42.7207 46.0399C42.8673 45.7914 42.9409 45.4984 42.9413 45.1609L42.9415 41.8221L40.9928 42.9472L40.9928 42.1658L43.8377 40.5239Z" fill="#40A8F5"/>
<path d="M47.0517 44.5676C46.5652 44.8485 46.1564 44.9969 45.8252 45.0129C45.5061 45.0304 45.2278 44.9514 45.0113 44.7817L45.5882 43.8753C45.7741 44.0099 46.0062 44.0754 46.2699 44.0677C46.5245 44.0486 46.8045 43.9509 47.0874 43.7826C47.4395 43.5792 47.7106 43.3391 47.9007 43.0622C48.0907 42.7853 48.1855 42.4907 48.1851 42.1784C48.1851 41.9269 48.1166 41.7733 47.9795 41.7153C47.8425 41.6573 47.6027 41.6977 47.2663 41.8302L46.6571 42.0824C46.4222 42.1846 46.1945 42.2416 45.9836 42.2511C45.8154 42.2571 45.6658 42.2195 45.543 42.1404C45.4315 42.0658 45.3483 41.9529 45.2985 41.8085C45.2453 41.6608 45.2179 41.4911 45.2169 41.305C45.217 40.757 45.388 40.242 45.7302 39.7598C46.0723 39.2776 46.5426 38.864 47.141 38.519C47.5296 38.2839 47.916 38.1351 48.275 38.0823C48.5724 38.0451 48.8318 38.1063 49.0286 38.2602L48.4675 39.166C48.3155 39.0623 48.1294 39.0103 47.9193 39.0129C47.6774 39.0265 47.4089 39.1203 47.1382 39.2856C46.8066 39.4771 46.554 39.6969 46.3804 39.9448C46.2068 40.1928 46.12 40.4591 46.12 40.7438C46.1141 40.8516 46.1293 40.9473 46.1647 41.0247C46.2001 41.1022 46.2549 41.1596 46.3255 41.1934C46.4626 41.2512 46.7044 41.2105 47.0511 41.0714L47.6445 40.8368C48.147 40.6413 48.5124 40.6198 48.7408 40.7721C48.9723 40.9313 49.094 41.2309 49.0833 41.6157C49.0869 41.8615 49.0433 42.1329 48.9552 42.4143C48.8699 42.6827 48.7352 42.9553 48.5625 43.2093C48.3739 43.4813 48.1559 43.7298 47.9212 43.9405C47.6395 44.192 47.3461 44.4037 47.0517 44.5676Z" fill="#40A8F5"/>
<path d="M51.909 41.7629C51.5917 41.9543 51.2771 42.0663 50.9908 42.0898C50.7322 42.1039 50.5114 42.0296 50.3495 41.8741C50.169 41.6926 50.0425 41.447 49.9768 41.1502C49.817 40.4043 49.817 39.5417 49.9769 38.6112C50.0421 38.2376 50.1686 37.8446 50.3497 37.4533C50.5116 37.1108 50.7324 36.7815 50.991 36.4969C51.2797 36.1958 51.5925 35.9457 51.9088 35.7631C52.2252 35.5804 52.538 35.4692 52.8266 35.437C53.0852 35.423 53.306 35.4973 53.4679 35.6528C53.649 35.835 53.7755 36.0819 53.8407 36.3803C54.0005 37.1262 54.0005 37.9887 53.8406 38.9192C53.7749 39.2919 53.6484 39.6836 53.4678 40.0736C53.3058 40.4161 53.085 40.7454 52.8264 41.03C52.5403 41.3369 52.2259 41.588 51.909 41.7629ZM51.909 40.9985C52.3091 40.7675 52.5924 40.4469 52.7586 40.0369C52.9249 39.6269 53.0076 39.153 53.0067 38.615L53.0068 37.6375C53.0068 37.1033 52.9241 36.7269 52.7588 36.5084C52.5934 36.2899 52.3102 36.2964 51.9092 36.528C51.5086 36.7593 51.2253 37.0798 51.0595 37.4895C50.8937 37.8993 50.8108 38.3713 50.8107 38.9055L50.8107 39.8894C50.8107 40.4236 50.8936 40.7998 51.0594 41.0181C51.2252 41.2363 51.5084 41.2298 51.909 40.9985Z" fill="#40A8F5"/>
<path d="M55.7482 34.9844L55.6756 35.0264L55.6754 39.4891L54.8902 39.9425L54.8904 34.1421L56.0429 33.4766L57.6872 36.9891L57.7598 36.9472L57.76 32.4852L58.5452 32.0318L58.545 37.8322L57.3911 38.4984L55.7482 34.9844Z" fill="#40A8F5"/>
</g>
</g>
<g clip-path="url(#clip10_2647_104108)">
<path d="M66.666 49.7095L66.6674 31.7095L61.4717 28.7095L51.0793 34.7095L51.0775 58.7095L66.666 49.7095Z" fill="#40A8F5" stroke="#2B2B2B"/>
<rect width="26" height="10" transform="matrix(0.866025 -0.5 -7.53359e-05 1 47.8767 45.5571)" fill="#1A1A1A"/>
<g clip-path="url(#clip11_2647_104108)">
<path d="M53.0874 44.649L53.087 48.895C53.09 49.1269 53.0478 49.3832 52.963 49.6486C52.8838 49.8933 52.7633 50.1414 52.61 50.3752C52.4511 50.6154 52.2645 50.8362 52.0619 51.0241C51.8321 51.237 51.591 51.4156 51.3486 51.5525C50.8566 51.8365 50.4651 51.9351 50.1742 51.8483C49.8832 51.7615 49.6946 51.5186 49.6083 51.1194L50.4579 50.4442C50.4985 50.6411 50.5928 50.7926 50.732 50.8841C50.8653 50.9681 51.0739 50.9282 51.3575 50.7645C51.6193 50.6133 51.8235 50.4135 51.9701 50.165C52.1168 49.9165 52.1903 49.6235 52.1908 49.286L52.1911 45.9472L50.2424 47.0722L50.2424 46.2908L53.0874 44.649Z" fill="#40A8F5"/>
<path d="M56.3012 48.6931C55.8147 48.974 55.4059 49.1224 55.0747 49.1384C54.7556 49.1559 54.4773 49.0769 54.2607 48.9072L54.8377 48.0008C55.0236 48.1354 55.2557 48.2009 55.5194 48.1933C55.774 48.1742 56.054 48.0765 56.3369 47.9082C56.6891 47.7048 56.9602 47.4647 57.1502 47.1878C57.3403 46.9109 57.4351 46.6163 57.4346 46.304C57.4346 46.0525 57.3661 45.8989 57.2291 45.8409C57.0921 45.7829 56.8523 45.8233 56.5158 45.9558L55.9067 46.208C55.6718 46.3101 55.4441 46.3671 55.2332 46.3766C55.065 46.3826 54.9154 46.345 54.7926 46.2659C54.6811 46.1913 54.5979 46.0784 54.548 45.934C54.4949 45.7863 54.4675 45.6166 54.4665 45.4305C54.4666 44.8825 54.6377 44.3675 54.9798 43.8853C55.322 43.4031 55.7923 42.9896 56.3907 42.6445C56.7793 42.4095 57.1657 42.2607 57.5247 42.2079C57.8221 42.1707 58.0815 42.232 58.2784 42.3858L57.7171 43.2916C57.5651 43.1879 57.3791 43.1359 57.169 43.1385C56.9271 43.1521 56.6586 43.2458 56.3879 43.4112C56.0563 43.6027 55.8037 43.8224 55.6301 44.0704C55.4565 44.3184 55.3697 44.5847 55.3696 44.8693C55.3637 44.9771 55.3789 45.0728 55.4143 45.1503C55.4497 45.2277 55.5045 45.2852 55.5752 45.3189C55.7122 45.3767 55.954 45.336 56.3008 45.1969L56.8941 44.9623C57.3966 44.767 57.762 44.7454 57.9904 44.8977C58.222 45.057 58.3436 45.3566 58.3329 45.7413C58.3365 45.9872 58.2929 46.2585 58.2047 46.5399C58.1194 46.8083 57.9848 47.0809 57.8121 47.3349C57.6234 47.6069 57.4054 47.8554 57.1707 48.0661C56.889 48.3176 56.5956 48.5292 56.3012 48.6931Z" fill="#40A8F5"/>
<path d="M61.1586 45.8884C60.8413 46.0798 60.5267 46.1919 60.2404 46.2154C59.9818 46.2294 59.761 46.1551 59.5991 45.9996C59.4185 45.8181 59.2921 45.5724 59.2264 45.2756C59.0666 44.5298 59.0667 43.6672 59.2266 42.7367C59.2918 42.3631 59.4184 41.9701 59.5994 41.5788C59.7614 41.2363 59.9822 40.907 60.2408 40.6224C60.5295 40.3214 60.8423 40.0713 61.1587 39.8886C61.4751 39.7059 61.7879 39.5948 62.0765 39.5626C62.3351 39.5486 62.5559 39.6229 62.7178 39.7784C62.8988 39.9606 63.0253 40.2076 63.0904 40.5059C63.2503 41.2518 63.2502 42.1143 63.0903 43.0449C63.0245 43.4175 62.898 43.8092 62.7174 44.1992C62.5555 44.5417 62.3347 44.871 62.076 45.1556C61.7899 45.4625 61.4755 45.7136 61.1586 45.8884ZM61.1586 45.1241C61.5588 44.893 61.842 44.5725 62.0083 44.1625C62.1746 43.7525 62.2573 43.2786 62.2564 42.7406L62.2565 41.7631C62.2565 41.2289 62.1739 40.8525 62.0086 40.634C61.8432 40.4155 61.56 40.422 61.1589 40.6535C60.7583 40.8848 60.4751 41.2053 60.3093 41.6151C60.1434 42.0248 60.0605 42.4968 60.0604 43.031L60.0604 44.0149C60.0603 44.5491 60.1432 44.9254 60.309 45.1436C60.4748 45.3619 60.758 45.3554 61.1586 45.1241Z" fill="#40A8F5"/>
<path d="M64.9981 39.11L64.9254 39.1519L64.9251 43.6146L64.1399 44.068L64.1403 38.2676L65.2928 37.6022L66.9369 41.1147L67.0096 41.0728L67.0099 36.6108L67.7951 36.1575L67.7947 41.9578L66.6408 42.624L64.9981 39.11Z" fill="#40A8F5"/>
</g>
</g>
<defs>
<clipPath id="clip0_2647_104108">
<rect width="28.6963" height="28.6963" fill="white" transform="matrix(0.866007 -0.500033 -3.76274e-05 1 0.00107956 14.5625)"/>
</clipPath>
<clipPath id="clip1_2647_104108">
<rect width="21" height="6" fill="white" transform="matrix(0.866007 -0.500033 -3.76274e-05 1 3.4607 26.0293)"/>
</clipPath>
<clipPath id="clip2_2647_104108">
<rect width="28.6963" height="28.6963" fill="white" transform="matrix(0.866007 -0.500033 -3.76274e-05 1 9.22754 18.6646)"/>
</clipPath>
<clipPath id="clip3_2647_104108">
<rect width="21" height="6" fill="white" transform="matrix(0.866007 -0.500033 -3.76274e-05 1 12.6872 30.1313)"/>
</clipPath>
<clipPath id="clip4_2647_104108">
<rect width="28.6963" height="28.6963" fill="white" transform="matrix(0.866007 -0.500033 -3.76274e-05 1 18.4463 22.7896)"/>
</clipPath>
<clipPath id="clip5_2647_104108">
<rect width="21" height="6" fill="white" transform="matrix(0.866007 -0.500033 -3.76274e-05 1 21.9059 34.2563)"/>
</clipPath>
<clipPath id="clip6_2647_104108">
<rect width="28.6963" height="28.6963" fill="white" transform="matrix(0.866007 -0.500033 -3.76274e-05 1 27.6729 26.8677)"/>
</clipPath>
<clipPath id="clip7_2647_104108">
<rect width="21" height="6" fill="white" transform="matrix(0.866007 -0.500033 -3.76274e-05 1 31.1325 38.3345)"/>
</clipPath>
<clipPath id="clip8_2647_104108">
<rect width="28.6963" height="28.6963" fill="white" transform="matrix(0.866007 -0.500033 -3.76274e-05 1 36.8994 30.9653)"/>
</clipPath>
<clipPath id="clip9_2647_104108">
<rect width="21" height="6" fill="white" transform="matrix(0.866007 -0.500033 -3.76274e-05 1 40.359 42.4321)"/>
</clipPath>
<clipPath id="clip10_2647_104108">
<rect width="28.6963" height="28.6963" fill="white" transform="matrix(0.866025 -0.5 -7.53359e-05 1 46.1494 35.0903)"/>
</clipPath>
<clipPath id="clip11_2647_104108">
<rect width="21" height="6" fill="white" transform="matrix(0.866025 -0.5 -7.53359e-05 1 49.6086 46.5571)"/>
</clipPath>
</defs>
</svg>
