<svg width="67" height="44" viewBox="0 0 67 44" fill="none" xmlns="http://www.w3.org/2000/svg">
<path d="M33.6252 38.0396L65.988 19.3549C66.0984 19.2911 66.188 19.3428 66.188 19.4704L66.1877 23.8311L33.8249 42.5158C33.7144 42.5796 33.6248 42.5278 33.6248 42.4003L33.6252 38.0396Z" fill="#E8E8E8" stroke="#1A1A1A" stroke-width="0.976048" stroke-linejoin="round"/>
<path d="M33.6154 38.0317L1.20007 19.3167C1.08957 19.2529 1.00001 19.3047 1.00002 19.4322L1.00035 23.7943L33.4157 42.5093C33.5262 42.5731 33.6157 42.5214 33.6157 42.3938L33.6154 38.0317Z" fill="#E8E8E8" stroke="#1A1A1A" stroke-width="0.976048" stroke-linejoin="round"/>
<path d="M17.295 9.92529L9.15378 14.6019L17.295 19.2784L25.4402 14.5591L17.295 9.92529Z" fill="#28F77E" stroke="#1A1A1A" stroke-width="0.976048" stroke-miterlimit="10"/>
<path d="M33.5809 9.92529L25.4397 14.6019L33.5809 19.2784L41.7261 14.5591L33.5809 9.92529Z" fill="#F6F6F6" stroke="#1A1A1A" stroke-width="0.976048" stroke-miterlimit="10"/>
<path d="M49.8668 9.92529L41.7256 14.6019L49.8668 19.2784L58.0119 14.5591L49.8668 9.92529Z" fill="#F6F6F6" stroke="#1A1A1A" stroke-width="0.976048" stroke-miterlimit="10"/>
<path d="M25.439 14.6016L17.2939 19.2781L25.439 23.9547L33.5803 19.2354L25.439 14.6016Z" fill="#28F77E" stroke="#1A1A1A" stroke-width="0.976048" stroke-miterlimit="10"/>
<path d="M41.7268 14.6016L33.5817 19.2781L41.7268 23.9547L49.8681 19.2354L41.7268 14.6016Z" fill="#F6F6F6" stroke="#1A1A1A" stroke-width="0.976048" stroke-miterlimit="10"/>
<path d="M58.0127 14.6016L49.8676 19.2781L58.0127 23.9547L66.1539 19.2354L58.0127 14.6016Z" fill="#F6F6F6" stroke="#1A1A1A" stroke-width="0.976048" stroke-miterlimit="10" stroke-linejoin="round"/>
<path d="M33.5809 19.2798L25.4397 23.9563L33.5809 28.629L41.7261 23.9136L33.5809 19.2798Z" fill="#F6F6F6" stroke="#1A1A1A" stroke-width="0.976048" stroke-miterlimit="10"/>
<path d="M49.8668 19.2798L41.7256 23.9563L49.8668 28.629L58.0119 23.9136L49.8668 19.2798Z" fill="#F6F6F6" stroke="#1A1A1A" stroke-width="0.976048" stroke-miterlimit="10"/>
<path d="M41.7268 23.9561L33.5817 28.6287L41.7268 33.3053L49.8681 28.5899L41.7268 23.9561Z" fill="#F6F6F6" stroke="#1A1A1A" stroke-width="0.976048" stroke-miterlimit="10"/>
<path d="M9.15311 14.6016L1.00798 19.2781L9.15311 23.9547L17.2944 19.2354L9.15311 14.6016Z" fill="#28F77E" stroke="#1A1A1A" stroke-width="0.976048" stroke-miterlimit="10" stroke-linejoin="round"/>
<path d="M17.295 19.2798L9.15378 23.9563L17.295 28.629L25.4402 23.9136L17.295 19.2798Z" fill="#28F77E" stroke="#1A1A1A" stroke-width="0.976048" stroke-miterlimit="10"/>
<path d="M25.439 23.9561L17.2939 28.6287L25.439 33.3053L33.5803 28.5899L25.439 23.9561Z" fill="#F6F6F6" stroke="#1A1A1A" stroke-width="0.976048" stroke-miterlimit="10"/>
<path d="M33.5809 28.6284L25.4397 33.305L33.5809 37.9815L41.7261 33.2661L33.5809 28.6284Z" fill="#F6F6F6" stroke="#1A1A1A" stroke-width="0.976048" stroke-miterlimit="10" stroke-linejoin="round"/>
<path d="M41.7268 14.6021L49.8681 9.92558L41.7268 5.24902L33.5817 9.96442L41.7268 14.6021Z" fill="#F6F6F6" stroke="#1A1A1A" stroke-width="0.976048" stroke-miterlimit="10"/>
<path d="M25.439 14.6021L33.5803 9.92558L25.439 5.24902L17.2939 9.96442L25.439 14.6021Z" fill="#F6F6F6" stroke="#1A1A1A" stroke-width="0.976048" stroke-miterlimit="10"/>
<path d="M33.5809 9.92587L41.7261 5.24931L33.5809 0.572754L25.4397 5.28816L33.5809 9.92587Z" fill="#F6F6F6" stroke="#1A1A1A" stroke-width="0.976048" stroke-miterlimit="10" stroke-linejoin="round"/>
</svg>
