<svg width="152" height="54" viewBox="0 0 152 54" fill="none" xmlns="http://www.w3.org/2000/svg">
<g clip-path="url(#clip0_30_579)">
<path fill-rule="evenodd" clip-rule="evenodd" d="M13.4119 31.2942V4.4707H4.4707V31.2942H13.4119ZM22.3529 40.2355V31.2943H13.4117V40.2355H22.3529ZM31.2942 40.2355V49.1765H22.353V40.2353H31.294V31.2943H40.2352V40.2355H31.2942ZM49.1765 4.4707V31.2942H40.2353V4.4707H49.1765Z" fill="#F7F7F7"/>
<path fill-rule="evenodd" clip-rule="evenodd" d="M0 0H17.8824V26.8235H35.7647V0H53.6471V35.7647H44.7059V44.7059H35.7647V53.6471H17.8824V44.7059H8.94118V35.7647H0V0ZM13.4118 4.47059V31.2941H4.47059V4.47059H13.4118ZM22.3528 31.2942V40.2353H13.4116V31.2942H22.3528ZM31.2941 49.1764V40.2353H40.2351V31.2942H31.2939V40.2352H22.3529V49.1764H31.2941ZM49.1764 31.2941V4.47059H40.2352V31.2941H49.1764Z" fill="#2B2B2B"/>
<path fill-rule="evenodd" clip-rule="evenodd" d="M62.5881 4.4707V49.1766H53.647V4.4707H62.5881ZM89.4118 13.4118V4.4707H62.5882V13.4119H89.4117V40.2354H98.3529V13.4118H89.4118ZM89.4118 49.1766V40.2354H62.5882V49.1766H89.4118Z" fill="#F7F7F7"/>
<path fill-rule="evenodd" clip-rule="evenodd" d="M58.1178 49.1765L62.5883 49.1765V4.47059H53.6471V49.1765L58.1178 49.1765ZM49.1765 0V53.6471L93.8825 53.6471V44.7058H102.824V8.94112H93.8825V0H49.1765ZM62.5883 4.47059V13.4118H89.4118V40.2352H98.353V13.4117L89.4118 13.4118L89.4119 4.47059H62.5883ZM84.9412 35.7647V17.8824H67.0589V35.7647H84.9412ZM89.4118 40.2352L62.5883 40.2353V49.1765L89.4119 49.1765L89.4118 40.2352Z" fill="#2B2B2B"/>
<path fill-rule="evenodd" clip-rule="evenodd" d="M111.765 4.4707V49.1766H102.823V4.4707H111.765ZM138.588 13.4118V4.4707H111.765V13.4119H138.588V31.2942H147.529V13.4118H138.588ZM138.588 40.2355V31.2943H111.765V40.2355H138.588Z" fill="#F7F7F7"/>
<path fill-rule="evenodd" clip-rule="evenodd" d="M116.235 53.6471H98.353V0H143.059V8.94112H152V35.7647H143.059V44.706H116.235V53.6471ZM138.588 40.2354V31.2942H111.765V40.2354H138.588ZM111.765 4.47059H102.824V49.1765H111.765V4.47059ZM116.235 26.8236H134.118V17.8824H116.235V26.8236ZM138.588 13.4118L138.588 31.2942L147.53 31.2941V13.4117L138.588 13.4118L138.588 4.47059H111.765V13.4118H138.588Z" fill="#2B2B2B"/>
<path d="M13.4119 13.4119V4.4707L4.47069 4.4707V13.4119H13.4119Z" fill="#28F77E"/>
<path fill-rule="evenodd" clip-rule="evenodd" d="M17.8823 0V17.8824H-2.67029e-05V0L17.8823 0ZM13.4117 13.4118H4.47056V4.47059L13.4117 4.47059V13.4118Z" fill="#2B2B2B"/>
<path fill-rule="evenodd" clip-rule="evenodd" d="M62.5881 31.2939V49.1763H53.647V31.2939H62.5881ZM62.5881 40.2351H71.5293V49.1763H62.5881V40.2351Z" fill="#FFDF3A"/>
<path fill-rule="evenodd" clip-rule="evenodd" d="M49.1765 53.6473V26.8237H67.0589V35.7649H76V53.6473H49.1765ZM62.5883 40.2355L62.5883 31.2943H53.6471V49.1767H62.5883H71.5295V40.2355H62.5883Z" fill="#2B2B2B"/>
<path d="M111.765 49.1766V22.353H102.823V49.1766H111.765Z" fill="#40A8F5"/>
<path fill-rule="evenodd" clip-rule="evenodd" d="M116.235 17.8823V53.647H98.353V17.8823H116.235ZM111.765 49.1764H102.824V22.3529H111.765V49.1764Z" fill="#2B2B2B"/>
</g>
<defs>
<clipPath id="clip0_30_579">
<rect width="152" height="53.6471" fill="white"/>
</clipPath>
</defs>
</svg>
