<svg width="60" height="60" viewBox="0 0 60 60" fill="none" xmlns="http://www.w3.org/2000/svg">
<path d="M29.9876 45.05L32.3037 35.1993L27.167 13.3545C26.8562 12.034 25.9087 8 22.9117 8V14.95L28.7779 39.8957L29.9876 45.05Z" fill="#13294E"/>
<path d="M57.7212 43.6921L56.8397 39.9001L50.5878 13.3545C50.2772 12.034 49.3296 8 46.3304 8V14.95L52.1965 39.8957L53.3315 44.7133C53.3991 45.002 53.4089 45.3012 53.3605 45.5938C53.3121 45.8863 53.2064 46.1665 53.0494 46.4181C52.8924 46.6699 52.6871 46.8881 52.4456 47.0604C52.2039 47.2327 51.9305 47.3558 51.6413 47.4224C51.471 47.4634 51.2964 47.484 51.1212 47.484C50.6138 47.4802 50.1223 47.3066 49.7252 46.9911C49.3282 46.6754 49.0484 46.2361 48.9308 45.7432L48.8096 45.2305L47.5667 39.8957L43.9504 24.5278L41.6983 14.95L39.3823 24.8007L42.9346 39.8957L44.5499 46.7665C44.7524 47.6302 45.1234 48.4457 45.6416 49.1662C46.1596 49.8867 46.8147 50.4983 47.5696 50.966C48.3243 51.4337 49.1639 51.7483 50.0404 51.892C50.9169 52.0355 51.8132 52.0053 52.6781 51.803C53.5429 51.6008 54.3593 51.2302 55.0808 50.7129C55.8023 50.1954 56.4147 49.5411 56.883 48.7873C57.3512 48.0335 57.6663 47.1951 57.8101 46.3197C57.9539 45.4443 57.9237 44.5492 57.7212 43.6855V43.6921Z" fill="#13294E"/>
<path d="M24.1463 39.8952L18.3176 15.1102L16.0016 24.9586L19.5142 39.8952L21.1008 46.6405C21.2706 47.3603 21.6276 48.8766 22.3988 50.1112C24.2896 49.2133 25.0233 46.4491 25.3142 45.2255L25.3583 45.0451L24.1463 39.8952Z" fill="#13294E"/>
<path d="M57.7212 43.6921L56.8397 39.9001L50.5878 13.3545C50.2772 12.034 49.3296 8 46.3304 8V14.95L52.1965 39.8957L53.3315 44.7133C53.3991 45.002 53.4089 45.3012 53.3605 45.5938C53.3121 45.8863 53.2064 46.1665 53.0494 46.4181C52.8924 46.6699 52.6871 46.8881 52.4456 47.0604C52.2039 47.2327 51.9305 47.3558 51.6413 47.4224C51.471 47.4634 51.2964 47.484 51.1212 47.484C50.6138 47.4802 50.1223 47.3066 49.7252 46.9911C49.3282 46.6754 49.0484 46.2361 48.9308 45.7432L48.8096 45.2305L47.5667 39.8957L43.9504 24.5278L41.6983 14.95L39.3823 24.8007L42.9346 39.8957L44.5499 46.7665C44.7524 47.6302 45.1234 48.4457 45.6416 49.1662C46.1596 49.8867 46.8147 50.4983 47.5696 50.966C48.3243 51.4337 49.1639 51.7483 50.0404 51.892C50.9169 52.0355 51.8132 52.0053 52.6781 51.803C53.5429 51.6008 54.3593 51.2302 55.0808 50.7129C55.8023 50.1954 56.4147 49.5411 56.883 48.7873C57.3512 48.0335 57.6663 47.1951 57.8101 46.3197C57.9539 45.4443 57.9237 44.5492 57.7212 43.6855V43.6921Z" fill="url(#paint0_linear_1064_144)"/>
<path d="M27.167 13.3545C26.8562 12.034 25.9087 8 22.9117 8V14.95L28.7779 39.8957L29.9876 45.0456L32.3037 35.1949L27.167 13.3545Z" fill="url(#paint1_linear_1064_144)"/>
<path d="M18.3176 15.1102L16.0016 24.9586L19.5142 39.8952L21.1008 46.6405C21.2706 47.3603 21.6276 48.8766 22.3988 50.1112C24.2896 49.2133 25.0233 46.4491 25.3142 45.2255L25.3583 45.0451L24.1463 39.8952L18.3176 15.1102Z" fill="url(#paint2_linear_1064_144)"/>
<path d="M46.33 8C43.333 8 42.3855 12.0296 42.0749 13.3545L41.698 14.95L34.6199 45.05C34.6089 45.105 34.5935 45.1688 34.5779 45.2305C34.2849 46.454 33.5533 49.2183 31.6604 50.1161C32.3104 51.1571 33.2513 52 34.6221 52C37.619 52 38.5665 47.9704 38.8773 46.6455L39.2101 45.2305L46.33 14.95C46.5923 13.8386 47.3018 10.828 49.2918 9.88826C48.6416 8.84289 47.7007 8 46.33 8Z" fill="#EE3932"/>
<path d="M25.8977 9.88386C25.2477 8.8429 24.3066 8 22.936 8C19.9391 8 18.9914 12.0296 18.6808 13.3545L18.3061 14.95L11.1839 45.2305L11.0649 45.7432C10.9465 46.2358 10.6666 46.6746 10.2697 46.9901C9.8728 47.3056 9.3817 47.4794 8.8745 47.484C8.69931 47.4842 8.52472 47.4635 8.35444 47.4224C7.77268 47.2859 7.26892 46.9244 6.9537 46.4173C6.63849 45.9102 6.53756 45.2989 6.67305 44.7177L13.6741 14.95C13.9341 13.8386 14.6437 10.828 16.6335 9.88826C15.9835 8.84729 15.0448 8.0044 13.6741 8.0044C10.6749 8.0044 9.72732 12.034 9.4166 13.3589L9.04198 14.9544L2.27898 43.6921C1.86986 45.4365 2.17135 47.2716 3.11711 48.7939C4.06287 50.3163 5.57543 51.401 7.32203 51.8096C9.06864 52.2183 10.9062 51.9171 12.4306 50.9726C13.9549 50.0281 15.0411 48.5175 15.4501 46.7732L15.8116 45.2327L22.9316 14.9522C23.1982 13.8387 23.9079 10.828 25.8977 9.88386Z" fill="#EE3932"/>
<path d="M40.0281 9.88386C39.3781 8.84289 38.437 8 37.0664 8C34.0695 8 33.1218 12.0296 32.8112 13.3545L32.4365 14.95L25.3584 45.05L25.3143 45.2305C25.0234 46.454 24.2897 49.2183 22.3967 50.1161C23.0468 51.1571 23.9877 52 25.3584 52C28.3554 52 29.303 47.9704 29.6137 46.6455L29.9464 45.2305L37.0686 14.95C37.3286 13.8386 38.0382 10.828 40.0281 9.88386Z" fill="#EE3932"/>
<defs>
<linearGradient id="paint0_linear_1064_144" x1="41.1739" y1="27.8047" x2="48.4004" y2="29.9799" gradientUnits="userSpaceOnUse">
<stop stop-color="#070D19"/>
<stop offset="1" stop-color="#13294E" stop-opacity="0"/>
</linearGradient>
<linearGradient id="paint1_linear_1064_144" x1="3112.87" y1="10102.6" x2="3423.24" y2="10128.4" gradientUnits="userSpaceOnUse">
<stop stop-color="#070D19"/>
<stop offset="1" stop-color="#13294E" stop-opacity="0"/>
</linearGradient>
<linearGradient id="paint2_linear_1064_144" x1="2991.44" y1="10725.1" x2="3300.49" y2="10752.2" gradientUnits="userSpaceOnUse">
<stop stop-color="#070D19"/>
<stop offset="1" stop-color="#13294E" stop-opacity="0"/>
</linearGradient>
</defs>
</svg>
