<svg width="65" height="58" viewBox="0 0 65 58" fill="none" xmlns="http://www.w3.org/2000/svg">
<path d="M15.6323 52.1754L3.70027 31.5078C3.24152 30.7132 3 29.8118 3 28.8943C3 27.9768 3.24152 27.0755 3.70027 26.2809L15.6323 5.61368C16.0911 4.81898 16.7511 4.15905 17.5458 3.70025C18.3405 3.24145 19.242 2.99994 20.1597 3H44.0237C44.9413 3.00002 45.8427 3.24157 46.6373 3.70037C47.4319 4.15916 48.0918 4.81904 48.5506 5.61368L60.4826 26.2809C60.9415 27.0755 61.183 27.9769 61.183 28.8945C61.183 29.8121 60.9415 30.7136 60.4826 31.5082L48.5506 52.1754C48.0918 52.97 47.4319 53.6298 46.6372 54.0885C45.8426 54.5472 44.9412 54.7887 44.0237 54.7886H20.1597C19.242 54.7887 18.3405 54.5472 17.5458 54.0884C16.751 53.6296 16.0911 52.9697 15.6323 52.175V52.1754Z" fill="url(#paint0_linear_20_1152)"/>
<path d="M57.2033 36.3488L39.4386 21.1213L31.86 19.2953L25.0527 21.5732L22.4238 27.74L24.5376 34.6062L43.6553 52.0322H45.5907L47.1594 51.2503L48.01 50.7252L48.9777 49.4183L57.2033 36.3488Z" fill="#417CE0"/>
<path d="M32.1862 19.2785C26.3467 19.2785 21.6127 23.5409 21.6127 28.799C21.6127 34.0567 26.3467 38.3191 32.1862 38.3191C38.0257 38.3191 42.7593 34.0567 42.7593 28.799C42.7593 23.5409 38.0252 19.2785 32.1862 19.2785ZM32.1862 36.0223C27.7553 36.0223 24.1632 32.7881 24.1632 28.7986C24.1632 24.8092 27.7553 21.5753 32.1862 21.5753C36.6171 21.5753 40.2092 24.8096 40.2092 28.799C40.2092 32.7885 36.6171 36.0227 32.1862 36.0227" fill="white"/>
<path d="M27.1677 28.4313V31.3905C27.654 32.1422 28.3401 32.7733 29.1644 33.2272V28.4313H27.1677ZM31.1268 25.9366V33.9036C31.4664 33.9598 31.8138 33.9939 32.1707 33.9939C32.4962 33.9939 32.8135 33.9631 33.1248 33.9163V25.9366H31.1268ZM35.271 29.6609V33.1751C36.1084 32.6956 36.796 32.0317 37.2686 31.246V29.6613L35.271 29.6609ZM39.7954 34.6629L38.6999 35.65C38.6072 35.7337 38.5551 35.8471 38.5551 35.9654C38.5551 36.0837 38.6072 36.1971 38.6999 36.2808L42.8551 40.0207C42.948 40.1043 43.074 40.1512 43.2054 40.1512C43.3367 40.1512 43.4627 40.1043 43.5557 40.0207L44.6511 39.0349C44.7433 38.9509 44.795 38.8377 44.795 38.7196C44.795 38.6016 44.7433 38.4883 44.6511 38.4044L40.4956 34.6629C40.4025 34.5797 40.2766 34.533 40.1455 34.533C40.0143 34.533 39.8884 34.5797 39.7954 34.6629Z" fill="white"/>
<defs>
<linearGradient id="paint0_linear_20_1152" x1="32.0917" y1="3.00045" x2="32.0917" y2="54.7082" gradientUnits="userSpaceOnUse">
<stop stop-color="#4387FD"/>
<stop offset="1" stop-color="#4683EA"/>
</linearGradient>
</defs>
</svg>
