<svg width="54" height="48" viewBox="0 0 54 48" fill="none" xmlns="http://www.w3.org/2000/svg">
<g clip-path="url(#clip0_20_1144)">
<path d="M11.7027 45.5565L0.648738 26.4098C0.223742 25.6737 0 24.8387 0 23.9887C0 23.1387 0.223742 22.3037 0.648738 21.5676L11.7027 2.42133C12.1277 1.68511 12.7391 1.07376 13.4753 0.64872C14.2116 0.223685 15.0467 -5.23169e-05 15.8968 9.17614e-09H38.0047C38.8547 2.16037e-05 39.6898 0.223794 40.4259 0.648825C41.1621 1.07386 41.7734 1.68517 42.1984 2.42133L53.2523 21.5676C53.6774 22.3037 53.9012 23.1388 53.9012 23.9889C53.9012 24.839 53.6774 25.6741 53.2523 26.4102L42.1984 45.556C41.7734 46.2922 41.1621 46.9035 40.4259 47.3286C39.6898 47.7536 38.8547 47.9774 38.0047 47.9774H15.8968C15.0467 47.9775 14.2115 47.7538 13.4753 47.3287C12.739 46.9037 12.1277 46.2923 11.7027 45.556V45.5565Z" fill="url(#paint0_linear_20_1144)"/>
<path d="M21.7836 20.6832L19.2975 22.8898L21.4102 24.7706L19.3184 28.0776L35.2351 41.8329H37.1217L38.631 41.1612L39.3856 40.4895L46.1775 30.0779L34.6136 19.6335L21.7836 20.6832Z" fill="#417CE0"/>
<path d="M34.3339 19.5451H19.6385C19.4019 19.5451 19.2086 19.7175 19.2086 19.9284V22.6325C19.2086 22.8427 19.4023 23.0151 19.6385 23.0151H34.3339C34.5705 23.0151 34.7641 22.8427 34.7641 22.6325V19.9277C34.7641 19.7175 34.5708 19.5448 34.3343 19.5448L34.3339 19.5451ZM32.0588 22.0627C31.8258 22.0621 31.6026 21.9794 31.438 21.8327C31.2733 21.6859 31.1807 21.4871 31.1803 21.2798C31.1802 21.1771 31.2029 21.0754 31.247 20.9804C31.2911 20.8855 31.3558 20.7993 31.4374 20.7267C31.519 20.6541 31.6159 20.5965 31.7225 20.5572C31.8292 20.5179 31.9434 20.4978 32.0588 20.4978C32.5447 20.4978 32.9384 20.846 32.9384 21.2798C32.9384 21.3826 32.9156 21.4844 32.8714 21.5794C32.8272 21.6744 32.7624 21.7607 32.6807 21.8334C32.5991 21.9061 32.5021 21.9637 32.3954 22.0031C32.2887 22.0424 32.1743 22.0627 32.0588 22.0627V22.0627ZM34.3339 24.7431L19.6385 24.7437C19.4019 24.7437 19.2086 24.9161 19.2086 25.1269V27.8307C19.2086 28.041 19.4023 28.2136 19.6385 28.2136H34.3339C34.5705 28.2136 34.7641 28.041 34.7641 27.8307V25.1263C34.7641 24.9161 34.5708 24.7431 34.3343 24.7431H34.3339ZM32.0588 27.2609C31.8258 27.2604 31.6025 27.1778 31.4379 27.031C31.2732 26.8843 31.1806 26.6854 31.1803 26.478C31.1802 26.3753 31.2029 26.2736 31.247 26.1787C31.2911 26.0838 31.3558 25.9976 31.4374 25.925C31.519 25.8523 31.6159 25.7947 31.7225 25.7555C31.8292 25.7162 31.9434 25.696 32.0588 25.6961C32.1772 25.6919 32.2953 25.709 32.4061 25.7464C32.5169 25.7838 32.618 25.8407 32.7034 25.9138C32.7889 25.9868 32.8569 26.0745 32.9033 26.1715C32.9497 26.2685 32.9737 26.3729 32.9737 26.4784C32.9737 26.5838 32.9497 26.6882 32.9033 26.7852C32.8569 26.8822 32.7889 26.9699 32.7034 27.0429C32.618 27.116 32.5169 27.1729 32.4061 27.2103C32.2953 27.2478 32.1772 27.2648 32.0588 27.2606" fill="white"/>
</g>
<defs>
<linearGradient id="paint0_linear_20_1144" x1="26.9507" y1="0.000421111" x2="26.9507" y2="47.9028" gradientUnits="userSpaceOnUse">
<stop stop-color="#4387FD"/>
<stop offset="1" stop-color="#4683EA"/>
</linearGradient>
<clipPath id="clip0_20_1144">
<rect width="53.9012" height="47.9774" fill="white"/>
</clipPath>
</defs>
</svg>
