<svg width="52" height="52" viewBox="0 0 52 52" fill="none" xmlns="http://www.w3.org/2000/svg">
<path d="M15.4587 8.42558H8.44489V43.5744H15.4587V22.5855H22.4725V15.5558H15.4587V8.42558ZM36.5002 15.5558H29.4864V22.5855H36.5002V43.5744H43.514V8.42558H36.5002V15.5558ZM29.4864 29.6153V22.5855H22.4725V29.6153H29.4864Z" fill="#F6F6F6"/>
<path fill-rule="evenodd" clip-rule="evenodd" d="M18.8765 5V12.1302H25.8904V19.16H26.0685V12.1302H33.0824V5H46.9318V47H33.0824V26.0111H32.9042V33.0409H19.0547V26.0111H18.8765V47H5.02707V5H18.8765ZM15.4587 8.42558V15.5558H22.4725V22.5855H15.4587V43.5744H8.44489V8.42558H15.4587ZM22.4725 22.5855V29.6153H29.4864V22.5855H36.5002V43.5744H43.514V8.42558H36.5002V15.5558H29.4864V22.5855H22.4725Z" fill="#2B2B2B"/>
<path d="M8.41782 8.42558H15.6844V22.6395H8.41782V8.42558Z" fill="#FFDF3A"/>
<path fill-rule="evenodd" clip-rule="evenodd" d="M5 5H19.1023V26.065H5V5ZM8.41782 8.42558V22.6395H15.6844V8.42558H8.41782Z" fill="#2B2B2B"/>
<path d="M15.45 15.4738H22.4822V22.6395H15.45V15.4738Z" fill="#FFDF3A"/>
<path d="M43.5143 43.6393H36.5007L36.5007 22.5844H43.5143V43.6393Z" fill="#40A8F5"/>
<path fill-rule="evenodd" clip-rule="evenodd" d="M43.5143 26.01V22.5844H36.5007L36.5007 26.01H43.5143Z" fill="#2B2B2B"/>
<path d="M22.4641 22.5742H29.4873V29.6133H22.4641V22.5742Z" fill="#28F67E"/>
</svg>
