<svg width="1921" height="1440" viewBox="0 0 1921 1440" fill="none" xmlns="http://www.w3.org/2000/svg">
<mask id="mask0_5857_104137" style="mask-type:alpha" maskUnits="userSpaceOnUse" x="240" y="0" width="1441" height="1440">
<rect width="1440" height="1440" transform="translate(240.667)" fill="url(#paint0_radial_5857_104137)"/>
</mask>
<g mask="url(#mask0_5857_104137)">
<g clip-path="url(#clip0_5857_104137)">
<mask id="path-3-inside-1_5857_104137" fill="white">
<path d="M192.667 0H288.667V96H192.667V0Z"/>
</mask>
<path d="M288.667 96V97H289.667V96H288.667ZM287.667 0V96H289.667V0H287.667ZM288.667 95H192.667V97H288.667V95Z" fill="#D0D5DD" mask="url(#path-3-inside-1_5857_104137)"/>
<mask id="path-5-inside-2_5857_104137" fill="white">
<path d="M288.667 0H384.667V96H288.667V0Z"/>
</mask>
<path d="M384.667 96V97H385.667V96H384.667ZM383.667 0V96H385.667V0H383.667ZM384.667 95H288.667V97H384.667V95Z" fill="#D0D5DD" mask="url(#path-5-inside-2_5857_104137)"/>
<mask id="path-7-inside-3_5857_104137" fill="white">
<path d="M384.667 0H480.667V96H384.667V0Z"/>
</mask>
<path d="M480.667 96V97H481.667V96H480.667ZM479.667 0V96H481.667V0H479.667ZM480.667 95H384.667V97H480.667V95Z" fill="#D0D5DD" mask="url(#path-7-inside-3_5857_104137)"/>
<mask id="path-9-inside-4_5857_104137" fill="white">
<path d="M480.667 0H576.667V96H480.667V0Z"/>
</mask>
<path d="M576.667 96V97H577.667V96H576.667ZM575.667 0V96H577.667V0H575.667ZM576.667 95H480.667V97H576.667V95Z" fill="#D0D5DD" mask="url(#path-9-inside-4_5857_104137)"/>
<mask id="path-11-inside-5_5857_104137" fill="white">
<path d="M576.667 0H672.667V96H576.667V0Z"/>
</mask>
<path d="M672.667 96V97H673.667V96H672.667ZM671.667 0V96H673.667V0H671.667ZM672.667 95H576.667V97H672.667V95Z" fill="#D0D5DD" mask="url(#path-11-inside-5_5857_104137)"/>
<mask id="path-13-inside-6_5857_104137" fill="white">
<path d="M672.667 0H768.667V96H672.667V0Z"/>
</mask>
<path d="M768.667 96V97H769.667V96H768.667ZM767.667 0V96H769.667V0H767.667ZM768.667 95H672.667V97H768.667V95Z" fill="#D0D5DD" mask="url(#path-13-inside-6_5857_104137)"/>
<mask id="path-15-inside-7_5857_104137" fill="white">
<path d="M768.667 0H864.667V96H768.667V0Z"/>
</mask>
<path d="M864.667 96V97H865.667V96H864.667ZM863.667 0V96H865.667V0H863.667ZM864.667 95H768.667V97H864.667V95Z" fill="#D0D5DD" mask="url(#path-15-inside-7_5857_104137)"/>
<mask id="path-17-inside-8_5857_104137" fill="white">
<path d="M864.667 0H960.667V96H864.667V0Z"/>
</mask>
<path d="M960.667 96V97H961.667V96H960.667ZM959.667 0V96H961.667V0H959.667ZM960.667 95H864.667V97H960.667V95Z" fill="#D0D5DD" mask="url(#path-17-inside-8_5857_104137)"/>
<mask id="path-19-inside-9_5857_104137" fill="white">
<path d="M960.667 0H1056.67V96H960.667V0Z"/>
</mask>
<path d="M1056.67 96V97H1057.67V96H1056.67ZM1055.67 0V96H1057.67V0H1055.67ZM1056.67 95H960.667V97H1056.67V95Z" fill="#D0D5DD" mask="url(#path-19-inside-9_5857_104137)"/>
<mask id="path-21-inside-10_5857_104137" fill="white">
<path d="M1056.67 0H1152.67V96H1056.67V0Z"/>
</mask>
<path d="M1152.67 96V97H1153.67V96H1152.67ZM1151.67 0V96H1153.67V0H1151.67ZM1152.67 95H1056.67V97H1152.67V95Z" fill="#D0D5DD" mask="url(#path-21-inside-10_5857_104137)"/>
<mask id="path-23-inside-11_5857_104137" fill="white">
<path d="M1152.67 0H1248.67V96H1152.67V0Z"/>
</mask>
<path d="M1248.67 96V97H1249.67V96H1248.67ZM1247.67 0V96H1249.67V0H1247.67ZM1248.67 95H1152.67V97H1248.67V95Z" fill="#D0D5DD" mask="url(#path-23-inside-11_5857_104137)"/>
<mask id="path-25-inside-12_5857_104137" fill="white">
<path d="M1248.67 0H1344.67V96H1248.67V0Z"/>
</mask>
<path d="M1344.67 96V97H1345.67V96H1344.67ZM1343.67 0V96H1345.67V0H1343.67ZM1344.67 95H1248.67V97H1344.67V95Z" fill="#D0D5DD" mask="url(#path-25-inside-12_5857_104137)"/>
<mask id="path-27-inside-13_5857_104137" fill="white">
<path d="M1344.67 0H1440.67V96H1344.67V0Z"/>
</mask>
<path d="M1440.67 96V97H1441.67V96H1440.67ZM1439.67 0V96H1441.67V0H1439.67ZM1440.67 95H1344.67V97H1440.67V95Z" fill="#D0D5DD" mask="url(#path-27-inside-13_5857_104137)"/>
<mask id="path-29-inside-14_5857_104137" fill="white">
<path d="M1440.67 0H1536.67V96H1440.67V0Z"/>
</mask>
<path d="M1536.67 96V97H1537.67V96H1536.67ZM1535.67 0V96H1537.67V0H1535.67ZM1536.67 95H1440.67V97H1536.67V95Z" fill="#D0D5DD" mask="url(#path-29-inside-14_5857_104137)"/>
<mask id="path-31-inside-15_5857_104137" fill="white">
<path d="M1536.67 0H1632.67V96H1536.67V0Z"/>
</mask>
<path d="M1632.67 96V97H1633.67V96H1632.67ZM1631.67 0V96H1633.67V0H1631.67ZM1632.67 95H1536.67V97H1632.67V95Z" fill="#D0D5DD" mask="url(#path-31-inside-15_5857_104137)"/>
<mask id="path-33-inside-16_5857_104137" fill="white">
<path d="M1632.67 0H1728.67V96H1632.67V0Z"/>
</mask>
<path d="M1728.67 96V97H1729.67V96H1728.67ZM1727.67 0V96H1729.67V0H1727.67ZM1728.67 95H1632.67V97H1728.67V95Z" fill="#D0D5DD" mask="url(#path-33-inside-16_5857_104137)"/>
<mask id="path-35-inside-17_5857_104137" fill="white">
<path d="M192.667 96H288.667V192H192.667V96Z"/>
</mask>
<path d="M288.667 192V193H289.667V192H288.667ZM287.667 96V192H289.667V96H287.667ZM288.667 191H192.667V193H288.667V191Z" fill="#D0D5DD" mask="url(#path-35-inside-17_5857_104137)"/>
<mask id="path-37-inside-18_5857_104137" fill="white">
<path d="M288.667 96H384.667V192H288.667V96Z"/>
</mask>
<path d="M384.667 192V193H385.667V192H384.667ZM383.667 96V192H385.667V96H383.667ZM384.667 191H288.667V193H384.667V191Z" fill="#D0D5DD" mask="url(#path-37-inside-18_5857_104137)"/>
<mask id="path-39-inside-19_5857_104137" fill="white">
<path d="M384.667 96H480.667V192H384.667V96Z"/>
</mask>
<path d="M480.667 192V193H481.667V192H480.667ZM479.667 96V192H481.667V96H479.667ZM480.667 191H384.667V193H480.667V191Z" fill="#D0D5DD" mask="url(#path-39-inside-19_5857_104137)"/>
<mask id="path-41-inside-20_5857_104137" fill="white">
<path d="M480.667 96H576.667V192H480.667V96Z"/>
</mask>
<path d="M480.667 96H576.667V192H480.667V96Z" fill="#F2F4F7"/>
<path d="M576.667 192V193H577.667V192H576.667ZM575.667 96V192H577.667V96H575.667ZM576.667 191H480.667V193H576.667V191Z" fill="#D0D5DD" mask="url(#path-41-inside-20_5857_104137)"/>
<mask id="path-43-inside-21_5857_104137" fill="white">
<path d="M576.667 96H672.667V192H576.667V96Z"/>
</mask>
<path d="M672.667 192V193H673.667V192H672.667ZM671.667 96V192H673.667V96H671.667ZM672.667 191H576.667V193H672.667V191Z" fill="#D0D5DD" mask="url(#path-43-inside-21_5857_104137)"/>
<mask id="path-45-inside-22_5857_104137" fill="white">
<path d="M672.667 96H768.667V192H672.667V96Z"/>
</mask>
<path d="M768.667 192V193H769.667V192H768.667ZM767.667 96V192H769.667V96H767.667ZM768.667 191H672.667V193H768.667V191Z" fill="#D0D5DD" mask="url(#path-45-inside-22_5857_104137)"/>
<mask id="path-47-inside-23_5857_104137" fill="white">
<path d="M768.667 96H864.667V192H768.667V96Z"/>
</mask>
<path d="M864.667 192V193H865.667V192H864.667ZM863.667 96V192H865.667V96H863.667ZM864.667 191H768.667V193H864.667V191Z" fill="#D0D5DD" mask="url(#path-47-inside-23_5857_104137)"/>
<mask id="path-49-inside-24_5857_104137" fill="white">
<path d="M864.667 96H960.667V192H864.667V96Z"/>
</mask>
<path d="M960.667 192V193H961.667V192H960.667ZM959.667 96V192H961.667V96H959.667ZM960.667 191H864.667V193H960.667V191Z" fill="#D0D5DD" mask="url(#path-49-inside-24_5857_104137)"/>
<mask id="path-51-inside-25_5857_104137" fill="white">
<path d="M960.667 96H1056.67V192H960.667V96Z"/>
</mask>
<path d="M1056.67 192V193H1057.67V192H1056.67ZM1055.67 96V192H1057.67V96H1055.67ZM1056.67 191H960.667V193H1056.67V191Z" fill="#D0D5DD" mask="url(#path-51-inside-25_5857_104137)"/>
<mask id="path-53-inside-26_5857_104137" fill="white">
<path d="M1056.67 96H1152.67V192H1056.67V96Z"/>
</mask>
<path d="M1152.67 192V193H1153.67V192H1152.67ZM1151.67 96V192H1153.67V96H1151.67ZM1152.67 191H1056.67V193H1152.67V191Z" fill="#D0D5DD" mask="url(#path-53-inside-26_5857_104137)"/>
<mask id="path-55-inside-27_5857_104137" fill="white">
<path d="M1152.67 96H1248.67V192H1152.67V96Z"/>
</mask>
<path d="M1248.67 192V193H1249.67V192H1248.67ZM1247.67 96V192H1249.67V96H1247.67ZM1248.67 191H1152.67V193H1248.67V191Z" fill="#D0D5DD" mask="url(#path-55-inside-27_5857_104137)"/>
<mask id="path-57-inside-28_5857_104137" fill="white">
<path d="M1248.67 96H1344.67V192H1248.67V96Z"/>
</mask>
<path d="M1344.67 192V193H1345.67V192H1344.67ZM1343.67 96V192H1345.67V96H1343.67ZM1344.67 191H1248.67V193H1344.67V191Z" fill="#D0D5DD" mask="url(#path-57-inside-28_5857_104137)"/>
<mask id="path-59-inside-29_5857_104137" fill="white">
<path d="M1344.67 96H1440.67V192H1344.67V96Z"/>
</mask>
<path d="M1344.67 96H1440.67V192H1344.67V96Z" fill="#F2F4F7"/>
<path d="M1440.67 192V193H1441.67V192H1440.67ZM1439.67 96V192H1441.67V96H1439.67ZM1440.67 191H1344.67V193H1440.67V191Z" fill="#D0D5DD" mask="url(#path-59-inside-29_5857_104137)"/>
<mask id="path-61-inside-30_5857_104137" fill="white">
<path d="M1440.67 96H1536.67V192H1440.67V96Z"/>
</mask>
<path d="M1536.67 192V193H1537.67V192H1536.67ZM1535.67 96V192H1537.67V96H1535.67ZM1536.67 191H1440.67V193H1536.67V191Z" fill="#D0D5DD" mask="url(#path-61-inside-30_5857_104137)"/>
<mask id="path-63-inside-31_5857_104137" fill="white">
<path d="M1536.67 96H1632.67V192H1536.67V96Z"/>
</mask>
<path d="M1632.67 192V193H1633.67V192H1632.67ZM1631.67 96V192H1633.67V96H1631.67ZM1632.67 191H1536.67V193H1632.67V191Z" fill="#D0D5DD" mask="url(#path-63-inside-31_5857_104137)"/>
<mask id="path-65-inside-32_5857_104137" fill="white">
<path d="M1632.67 96H1728.67V192H1632.67V96Z"/>
</mask>
<path d="M1728.67 192V193H1729.67V192H1728.67ZM1727.67 96V192H1729.67V96H1727.67ZM1728.67 191H1632.67V193H1728.67V191Z" fill="#D0D5DD" mask="url(#path-65-inside-32_5857_104137)"/>
<mask id="path-67-inside-33_5857_104137" fill="white">
<path d="M192.667 192H288.667V288H192.667V192Z"/>
</mask>
<path d="M288.667 288V289H289.667V288H288.667ZM287.667 192V288H289.667V192H287.667ZM288.667 287H192.667V289H288.667V287Z" fill="#D0D5DD" mask="url(#path-67-inside-33_5857_104137)"/>
<mask id="path-69-inside-34_5857_104137" fill="white">
<path d="M288.667 192H384.667V288H288.667V192Z"/>
</mask>
<path d="M384.667 288V289H385.667V288H384.667ZM383.667 192V288H385.667V192H383.667ZM384.667 287H288.667V289H384.667V287Z" fill="#D0D5DD" mask="url(#path-69-inside-34_5857_104137)"/>
<mask id="path-71-inside-35_5857_104137" fill="white">
<path d="M384.667 192H480.667V288H384.667V192Z"/>
</mask>
<path d="M480.667 288V289H481.667V288H480.667ZM479.667 192V288H481.667V192H479.667ZM480.667 287H384.667V289H480.667V287Z" fill="#D0D5DD" mask="url(#path-71-inside-35_5857_104137)"/>
<mask id="path-73-inside-36_5857_104137" fill="white">
<path d="M480.667 192H576.667V288H480.667V192Z"/>
</mask>
<path d="M576.667 288V289H577.667V288H576.667ZM575.667 192V288H577.667V192H575.667ZM576.667 287H480.667V289H576.667V287Z" fill="#D0D5DD" mask="url(#path-73-inside-36_5857_104137)"/>
<mask id="path-75-inside-37_5857_104137" fill="white">
<path d="M576.667 192H672.667V288H576.667V192Z"/>
</mask>
<path d="M672.667 288V289H673.667V288H672.667ZM671.667 192V288H673.667V192H671.667ZM672.667 287H576.667V289H672.667V287Z" fill="#D0D5DD" mask="url(#path-75-inside-37_5857_104137)"/>
<mask id="path-77-inside-38_5857_104137" fill="white">
<path d="M672.667 192H768.667V288H672.667V192Z"/>
</mask>
<path d="M672.667 192H768.667V288H672.667V192Z" fill="#F2F4F7"/>
<path d="M768.667 288V289H769.667V288H768.667ZM767.667 192V288H769.667V192H767.667ZM768.667 287H672.667V289H768.667V287Z" fill="#D0D5DD" mask="url(#path-77-inside-38_5857_104137)"/>
<mask id="path-79-inside-39_5857_104137" fill="white">
<path d="M768.667 192H864.667V288H768.667V192Z"/>
</mask>
<path d="M864.667 288V289H865.667V288H864.667ZM863.667 192V288H865.667V192H863.667ZM864.667 287H768.667V289H864.667V287Z" fill="#D0D5DD" mask="url(#path-79-inside-39_5857_104137)"/>
<mask id="path-81-inside-40_5857_104137" fill="white">
<path d="M864.667 192H960.667V288H864.667V192Z"/>
</mask>
<path d="M960.667 288V289H961.667V288H960.667ZM959.667 192V288H961.667V192H959.667ZM960.667 287H864.667V289H960.667V287Z" fill="#D0D5DD" mask="url(#path-81-inside-40_5857_104137)"/>
<mask id="path-83-inside-41_5857_104137" fill="white">
<path d="M960.667 192H1056.67V288H960.667V192Z"/>
</mask>
<path d="M1056.67 288V289H1057.67V288H1056.67ZM1055.67 192V288H1057.67V192H1055.67ZM1056.67 287H960.667V289H1056.67V287Z" fill="#D0D5DD" mask="url(#path-83-inside-41_5857_104137)"/>
<mask id="path-85-inside-42_5857_104137" fill="white">
<path d="M1056.67 192H1152.67V288H1056.67V192Z"/>
</mask>
<path d="M1056.67 192H1152.67V288H1056.67V192Z" fill="#F2F4F7"/>
<path d="M1152.67 288V289H1153.67V288H1152.67ZM1151.67 192V288H1153.67V192H1151.67ZM1152.67 287H1056.67V289H1152.67V287Z" fill="#D0D5DD" mask="url(#path-85-inside-42_5857_104137)"/>
<mask id="path-87-inside-43_5857_104137" fill="white">
<path d="M1152.67 192H1248.67V288H1152.67V192Z"/>
</mask>
<path d="M1248.67 288V289H1249.67V288H1248.67ZM1247.67 192V288H1249.67V192H1247.67ZM1248.67 287H1152.67V289H1248.67V287Z" fill="#D0D5DD" mask="url(#path-87-inside-43_5857_104137)"/>
<mask id="path-89-inside-44_5857_104137" fill="white">
<path d="M1248.67 192H1344.67V288H1248.67V192Z"/>
</mask>
<path d="M1344.67 288V289H1345.67V288H1344.67ZM1343.67 192V288H1345.67V192H1343.67ZM1344.67 287H1248.67V289H1344.67V287Z" fill="#D0D5DD" mask="url(#path-89-inside-44_5857_104137)"/>
<mask id="path-91-inside-45_5857_104137" fill="white">
<path d="M1344.67 192H1440.67V288H1344.67V192Z"/>
</mask>
<path d="M1440.67 288V289H1441.67V288H1440.67ZM1439.67 192V288H1441.67V192H1439.67ZM1440.67 287H1344.67V289H1440.67V287Z" fill="#D0D5DD" mask="url(#path-91-inside-45_5857_104137)"/>
<mask id="path-93-inside-46_5857_104137" fill="white">
<path d="M1440.67 192H1536.67V288H1440.67V192Z"/>
</mask>
<path d="M1536.67 288V289H1537.67V288H1536.67ZM1535.67 192V288H1537.67V192H1535.67ZM1536.67 287H1440.67V289H1536.67V287Z" fill="#D0D5DD" mask="url(#path-93-inside-46_5857_104137)"/>
<mask id="path-95-inside-47_5857_104137" fill="white">
<path d="M1536.67 192H1632.67V288H1536.67V192Z"/>
</mask>
<path d="M1632.67 288V289H1633.67V288H1632.67ZM1631.67 192V288H1633.67V192H1631.67ZM1632.67 287H1536.67V289H1632.67V287Z" fill="#D0D5DD" mask="url(#path-95-inside-47_5857_104137)"/>
<mask id="path-97-inside-48_5857_104137" fill="white">
<path d="M1632.67 192H1728.67V288H1632.67V192Z"/>
</mask>
<path d="M1728.67 288V289H1729.67V288H1728.67ZM1727.67 192V288H1729.67V192H1727.67ZM1728.67 287H1632.67V289H1728.67V287Z" fill="#D0D5DD" mask="url(#path-97-inside-48_5857_104137)"/>
<mask id="path-99-inside-49_5857_104137" fill="white">
<path d="M192.667 288H288.667V384H192.667V288Z"/>
</mask>
<path d="M192.667 288H288.667V384H192.667V288Z" fill="#F2F4F7"/>
<path d="M288.667 384V385H289.667V384H288.667ZM287.667 288V384H289.667V288H287.667ZM288.667 383H192.667V385H288.667V383Z" fill="#D0D5DD" mask="url(#path-99-inside-49_5857_104137)"/>
<mask id="path-101-inside-50_5857_104137" fill="white">
<path d="M288.667 288H384.667V384H288.667V288Z"/>
</mask>
<path d="M384.667 384V385H385.667V384H384.667ZM383.667 288V384H385.667V288H383.667ZM384.667 383H288.667V385H384.667V383Z" fill="#D0D5DD" mask="url(#path-101-inside-50_5857_104137)"/>
<mask id="path-103-inside-51_5857_104137" fill="white">
<path d="M384.667 288H480.667V384H384.667V288Z"/>
</mask>
<path d="M480.667 384V385H481.667V384H480.667ZM479.667 288V384H481.667V288H479.667ZM480.667 383H384.667V385H480.667V383Z" fill="#D0D5DD" mask="url(#path-103-inside-51_5857_104137)"/>
<mask id="path-105-inside-52_5857_104137" fill="white">
<path d="M480.667 288H576.667V384H480.667V288Z"/>
</mask>
<path d="M576.667 384V385H577.667V384H576.667ZM575.667 288V384H577.667V288H575.667ZM576.667 383H480.667V385H576.667V383Z" fill="#D0D5DD" mask="url(#path-105-inside-52_5857_104137)"/>
<mask id="path-107-inside-53_5857_104137" fill="white">
<path d="M576.667 288H672.667V384H576.667V288Z"/>
</mask>
<path d="M672.667 384V385H673.667V384H672.667ZM671.667 288V384H673.667V288H671.667ZM672.667 383H576.667V385H672.667V383Z" fill="#D0D5DD" mask="url(#path-107-inside-53_5857_104137)"/>
<mask id="path-109-inside-54_5857_104137" fill="white">
<path d="M672.667 288H768.667V384H672.667V288Z"/>
</mask>
<path d="M768.667 384V385H769.667V384H768.667ZM767.667 288V384H769.667V288H767.667ZM768.667 383H672.667V385H768.667V383Z" fill="#D0D5DD" mask="url(#path-109-inside-54_5857_104137)"/>
<mask id="path-111-inside-55_5857_104137" fill="white">
<path d="M768.667 288H864.667V384H768.667V288Z"/>
</mask>
<path d="M864.667 384V385H865.667V384H864.667ZM863.667 288V384H865.667V288H863.667ZM864.667 383H768.667V385H864.667V383Z" fill="#D0D5DD" mask="url(#path-111-inside-55_5857_104137)"/>
<mask id="path-113-inside-56_5857_104137" fill="white">
<path d="M864.667 288H960.667V384H864.667V288Z"/>
</mask>
<path d="M960.667 384V385H961.667V384H960.667ZM959.667 288V384H961.667V288H959.667ZM960.667 383H864.667V385H960.667V383Z" fill="#D0D5DD" mask="url(#path-113-inside-56_5857_104137)"/>
<mask id="path-115-inside-57_5857_104137" fill="white">
<path d="M960.667 288H1056.67V384H960.667V288Z"/>
</mask>
<path d="M1056.67 384V385H1057.67V384H1056.67ZM1055.67 288V384H1057.67V288H1055.67ZM1056.67 383H960.667V385H1056.67V383Z" fill="#D0D5DD" mask="url(#path-115-inside-57_5857_104137)"/>
<mask id="path-117-inside-58_5857_104137" fill="white">
<path d="M1056.67 288H1152.67V384H1056.67V288Z"/>
</mask>
<path d="M1152.67 384V385H1153.67V384H1152.67ZM1151.67 288V384H1153.67V288H1151.67ZM1152.67 383H1056.67V385H1152.67V383Z" fill="#D0D5DD" mask="url(#path-117-inside-58_5857_104137)"/>
<mask id="path-119-inside-59_5857_104137" fill="white">
<path d="M1152.67 288H1248.67V384H1152.67V288Z"/>
</mask>
<path d="M1248.67 384V385H1249.67V384H1248.67ZM1247.67 288V384H1249.67V288H1247.67ZM1248.67 383H1152.67V385H1248.67V383Z" fill="#D0D5DD" mask="url(#path-119-inside-59_5857_104137)"/>
<mask id="path-121-inside-60_5857_104137" fill="white">
<path d="M1248.67 288H1344.67V384H1248.67V288Z"/>
</mask>
<path d="M1344.67 384V385H1345.67V384H1344.67ZM1343.67 288V384H1345.67V288H1343.67ZM1344.67 383H1248.67V385H1344.67V383Z" fill="#D0D5DD" mask="url(#path-121-inside-60_5857_104137)"/>
<mask id="path-123-inside-61_5857_104137" fill="white">
<path d="M1344.67 288H1440.67V384H1344.67V288Z"/>
</mask>
<path d="M1344.67 288H1440.67V384H1344.67V288Z" fill="#F2F4F7"/>
<path d="M1440.67 384V385H1441.67V384H1440.67ZM1439.67 288V384H1441.67V288H1439.67ZM1440.67 383H1344.67V385H1440.67V383Z" fill="#D0D5DD" mask="url(#path-123-inside-61_5857_104137)"/>
<mask id="path-125-inside-62_5857_104137" fill="white">
<path d="M1440.67 288H1536.67V384H1440.67V288Z"/>
</mask>
<path d="M1536.67 384V385H1537.67V384H1536.67ZM1535.67 288V384H1537.67V288H1535.67ZM1536.67 383H1440.67V385H1536.67V383Z" fill="#D0D5DD" mask="url(#path-125-inside-62_5857_104137)"/>
<mask id="path-127-inside-63_5857_104137" fill="white">
<path d="M1536.67 288H1632.67V384H1536.67V288Z"/>
</mask>
<path d="M1632.67 384V385H1633.67V384H1632.67ZM1631.67 288V384H1633.67V288H1631.67ZM1632.67 383H1536.67V385H1632.67V383Z" fill="#D0D5DD" mask="url(#path-127-inside-63_5857_104137)"/>
<mask id="path-129-inside-64_5857_104137" fill="white">
<path d="M1632.67 288H1728.67V384H1632.67V288Z"/>
</mask>
<path d="M1728.67 384V385H1729.67V384H1728.67ZM1727.67 288V384H1729.67V288H1727.67ZM1728.67 383H1632.67V385H1728.67V383Z" fill="#D0D5DD" mask="url(#path-129-inside-64_5857_104137)"/>
<mask id="path-131-inside-65_5857_104137" fill="white">
<path d="M192.667 384H288.667V480H192.667V384Z"/>
</mask>
<path d="M288.667 480V481H289.667V480H288.667ZM287.667 384V480H289.667V384H287.667ZM288.667 479H192.667V481H288.667V479Z" fill="#D0D5DD" mask="url(#path-131-inside-65_5857_104137)"/>
<mask id="path-133-inside-66_5857_104137" fill="white">
<path d="M288.667 384H384.667V480H288.667V384Z"/>
</mask>
<path d="M384.667 480V481H385.667V480H384.667ZM383.667 384V480H385.667V384H383.667ZM384.667 479H288.667V481H384.667V479Z" fill="#D0D5DD" mask="url(#path-133-inside-66_5857_104137)"/>
<mask id="path-135-inside-67_5857_104137" fill="white">
<path d="M384.667 384H480.667V480H384.667V384Z"/>
</mask>
<path d="M480.667 480V481H481.667V480H480.667ZM479.667 384V480H481.667V384H479.667ZM480.667 479H384.667V481H480.667V479Z" fill="#D0D5DD" mask="url(#path-135-inside-67_5857_104137)"/>
<mask id="path-137-inside-68_5857_104137" fill="white">
<path d="M480.667 384H576.667V480H480.667V384Z"/>
</mask>
<path d="M576.667 480V481H577.667V480H576.667ZM575.667 384V480H577.667V384H575.667ZM576.667 479H480.667V481H576.667V479Z" fill="#D0D5DD" mask="url(#path-137-inside-68_5857_104137)"/>
<mask id="path-139-inside-69_5857_104137" fill="white">
<path d="M576.667 384H672.667V480H576.667V384Z"/>
</mask>
<path d="M672.667 480V481H673.667V480H672.667ZM671.667 384V480H673.667V384H671.667ZM672.667 479H576.667V481H672.667V479Z" fill="#D0D5DD" mask="url(#path-139-inside-69_5857_104137)"/>
<mask id="path-141-inside-70_5857_104137" fill="white">
<path d="M672.667 384H768.667V480H672.667V384Z"/>
</mask>
<path d="M768.667 480V481H769.667V480H768.667ZM767.667 384V480H769.667V384H767.667ZM768.667 479H672.667V481H768.667V479Z" fill="#D0D5DD" mask="url(#path-141-inside-70_5857_104137)"/>
<mask id="path-143-inside-71_5857_104137" fill="white">
<path d="M768.667 384H864.667V480H768.667V384Z"/>
</mask>
<path d="M768.667 384H864.667V480H768.667V384Z" fill="#F2F4F7"/>
<path d="M864.667 480V481H865.667V480H864.667ZM863.667 384V480H865.667V384H863.667ZM864.667 479H768.667V481H864.667V479Z" fill="#D0D5DD" mask="url(#path-143-inside-71_5857_104137)"/>
<mask id="path-145-inside-72_5857_104137" fill="white">
<path d="M864.667 384H960.667V480H864.667V384Z"/>
</mask>
<path d="M960.667 480V481H961.667V480H960.667ZM959.667 384V480H961.667V384H959.667ZM960.667 479H864.667V481H960.667V479Z" fill="#D0D5DD" mask="url(#path-145-inside-72_5857_104137)"/>
<mask id="path-147-inside-73_5857_104137" fill="white">
<path d="M960.667 384H1056.67V480H960.667V384Z"/>
</mask>
<path d="M1056.67 480V481H1057.67V480H1056.67ZM1055.67 384V480H1057.67V384H1055.67ZM1056.67 479H960.667V481H1056.67V479Z" fill="#D0D5DD" mask="url(#path-147-inside-73_5857_104137)"/>
<mask id="path-149-inside-74_5857_104137" fill="white">
<path d="M1056.67 384H1152.67V480H1056.67V384Z"/>
</mask>
<path d="M1152.67 480V481H1153.67V480H1152.67ZM1151.67 384V480H1153.67V384H1151.67ZM1152.67 479H1056.67V481H1152.67V479Z" fill="#D0D5DD" mask="url(#path-149-inside-74_5857_104137)"/>
<mask id="path-151-inside-75_5857_104137" fill="white">
<path d="M1152.67 384H1248.67V480H1152.67V384Z"/>
</mask>
<path d="M1248.67 480V481H1249.67V480H1248.67ZM1247.67 384V480H1249.67V384H1247.67ZM1248.67 479H1152.67V481H1248.67V479Z" fill="#D0D5DD" mask="url(#path-151-inside-75_5857_104137)"/>
<mask id="path-153-inside-76_5857_104137" fill="white">
<path d="M1248.67 384H1344.67V480H1248.67V384Z"/>
</mask>
<path d="M1344.67 480V481H1345.67V480H1344.67ZM1343.67 384V480H1345.67V384H1343.67ZM1344.67 479H1248.67V481H1344.67V479Z" fill="#D0D5DD" mask="url(#path-153-inside-76_5857_104137)"/>
<mask id="path-155-inside-77_5857_104137" fill="white">
<path d="M1344.67 384H1440.67V480H1344.67V384Z"/>
</mask>
<path d="M1440.67 480V481H1441.67V480H1440.67ZM1439.67 384V480H1441.67V384H1439.67ZM1440.67 479H1344.67V481H1440.67V479Z" fill="#D0D5DD" mask="url(#path-155-inside-77_5857_104137)"/>
<mask id="path-157-inside-78_5857_104137" fill="white">
<path d="M1440.67 384H1536.67V480H1440.67V384Z"/>
</mask>
<path d="M1536.67 480V481H1537.67V480H1536.67ZM1535.67 384V480H1537.67V384H1535.67ZM1536.67 479H1440.67V481H1536.67V479Z" fill="#D0D5DD" mask="url(#path-157-inside-78_5857_104137)"/>
<mask id="path-159-inside-79_5857_104137" fill="white">
<path d="M1536.67 384H1632.67V480H1536.67V384Z"/>
</mask>
<path d="M1632.67 480V481H1633.67V480H1632.67ZM1631.67 384V480H1633.67V384H1631.67ZM1632.67 479H1536.67V481H1632.67V479Z" fill="#D0D5DD" mask="url(#path-159-inside-79_5857_104137)"/>
<mask id="path-161-inside-80_5857_104137" fill="white">
<path d="M1632.67 384H1728.67V480H1632.67V384Z"/>
</mask>
<path d="M1728.67 480V481H1729.67V480H1728.67ZM1727.67 384V480H1729.67V384H1727.67ZM1728.67 479H1632.67V481H1728.67V479Z" fill="#D0D5DD" mask="url(#path-161-inside-80_5857_104137)"/>
<mask id="path-163-inside-81_5857_104137" fill="white">
<path d="M192.667 480H288.667V576H192.667V480Z"/>
</mask>
<path d="M288.667 576V577H289.667V576H288.667ZM287.667 480V576H289.667V480H287.667ZM288.667 575H192.667V577H288.667V575Z" fill="#D0D5DD" mask="url(#path-163-inside-81_5857_104137)"/>
<mask id="path-165-inside-82_5857_104137" fill="white">
<path d="M288.667 480H384.667V576H288.667V480Z"/>
</mask>
<path d="M384.667 576V577H385.667V576H384.667ZM383.667 480V576H385.667V480H383.667ZM384.667 575H288.667V577H384.667V575Z" fill="#D0D5DD" mask="url(#path-165-inside-82_5857_104137)"/>
<mask id="path-167-inside-83_5857_104137" fill="white">
<path d="M384.667 480H480.667V576H384.667V480Z"/>
</mask>
<path d="M480.667 576V577H481.667V576H480.667ZM479.667 480V576H481.667V480H479.667ZM480.667 575H384.667V577H480.667V575Z" fill="#D0D5DD" mask="url(#path-167-inside-83_5857_104137)"/>
<mask id="path-169-inside-84_5857_104137" fill="white">
<path d="M480.667 480H576.667V576H480.667V480Z"/>
</mask>
<path d="M480.667 480H576.667V576H480.667V480Z" fill="#F2F4F7"/>
<path d="M576.667 576V577H577.667V576H576.667ZM575.667 480V576H577.667V480H575.667ZM576.667 575H480.667V577H576.667V575Z" fill="#D0D5DD" mask="url(#path-169-inside-84_5857_104137)"/>
<mask id="path-171-inside-85_5857_104137" fill="white">
<path d="M576.667 480H672.667V576H576.667V480Z"/>
</mask>
<path d="M672.667 576V577H673.667V576H672.667ZM671.667 480V576H673.667V480H671.667ZM672.667 575H576.667V577H672.667V575Z" fill="#D0D5DD" mask="url(#path-171-inside-85_5857_104137)"/>
<mask id="path-173-inside-86_5857_104137" fill="white">
<path d="M672.667 480H768.667V576H672.667V480Z"/>
</mask>
<path d="M768.667 576V577H769.667V576H768.667ZM767.667 480V576H769.667V480H767.667ZM768.667 575H672.667V577H768.667V575Z" fill="#D0D5DD" mask="url(#path-173-inside-86_5857_104137)"/>
<mask id="path-175-inside-87_5857_104137" fill="white">
<path d="M768.667 480H864.667V576H768.667V480Z"/>
</mask>
<path d="M864.667 576V577H865.667V576H864.667ZM863.667 480V576H865.667V480H863.667ZM864.667 575H768.667V577H864.667V575Z" fill="#D0D5DD" mask="url(#path-175-inside-87_5857_104137)"/>
<mask id="path-177-inside-88_5857_104137" fill="white">
<path d="M864.667 480H960.667V576H864.667V480Z"/>
</mask>
<path d="M960.667 576V577H961.667V576H960.667ZM959.667 480V576H961.667V480H959.667ZM960.667 575H864.667V577H960.667V575Z" fill="#D0D5DD" mask="url(#path-177-inside-88_5857_104137)"/>
<mask id="path-179-inside-89_5857_104137" fill="white">
<path d="M960.667 480H1056.67V576H960.667V480Z"/>
</mask>
<path d="M1056.67 576V577H1057.67V576H1056.67ZM1055.67 480V576H1057.67V480H1055.67ZM1056.67 575H960.667V577H1056.67V575Z" fill="#D0D5DD" mask="url(#path-179-inside-89_5857_104137)"/>
<mask id="path-181-inside-90_5857_104137" fill="white">
<path d="M1056.67 480H1152.67V576H1056.67V480Z"/>
</mask>
<path d="M1056.67 480H1152.67V576H1056.67V480Z" fill="#F2F4F7"/>
<path d="M1152.67 576V577H1153.67V576H1152.67ZM1151.67 480V576H1153.67V480H1151.67ZM1152.67 575H1056.67V577H1152.67V575Z" fill="#D0D5DD" mask="url(#path-181-inside-90_5857_104137)"/>
<mask id="path-183-inside-91_5857_104137" fill="white">
<path d="M1152.67 480H1248.67V576H1152.67V480Z"/>
</mask>
<path d="M1248.67 576V577H1249.67V576H1248.67ZM1247.67 480V576H1249.67V480H1247.67ZM1248.67 575H1152.67V577H1248.67V575Z" fill="#D0D5DD" mask="url(#path-183-inside-91_5857_104137)"/>
<mask id="path-185-inside-92_5857_104137" fill="white">
<path d="M1248.67 480H1344.67V576H1248.67V480Z"/>
</mask>
<path d="M1344.67 576V577H1345.67V576H1344.67ZM1343.67 480V576H1345.67V480H1343.67ZM1344.67 575H1248.67V577H1344.67V575Z" fill="#D0D5DD" mask="url(#path-185-inside-92_5857_104137)"/>
<mask id="path-187-inside-93_5857_104137" fill="white">
<path d="M1344.67 480H1440.67V576H1344.67V480Z"/>
</mask>
<path d="M1440.67 576V577H1441.67V576H1440.67ZM1439.67 480V576H1441.67V480H1439.67ZM1440.67 575H1344.67V577H1440.67V575Z" fill="#D0D5DD" mask="url(#path-187-inside-93_5857_104137)"/>
<mask id="path-189-inside-94_5857_104137" fill="white">
<path d="M1440.67 480H1536.67V576H1440.67V480Z"/>
</mask>
<path d="M1536.67 576V577H1537.67V576H1536.67ZM1535.67 480V576H1537.67V480H1535.67ZM1536.67 575H1440.67V577H1536.67V575Z" fill="#D0D5DD" mask="url(#path-189-inside-94_5857_104137)"/>
<mask id="path-191-inside-95_5857_104137" fill="white">
<path d="M1536.67 480H1632.67V576H1536.67V480Z"/>
</mask>
<path d="M1632.67 576V577H1633.67V576H1632.67ZM1631.67 480V576H1633.67V480H1631.67ZM1632.67 575H1536.67V577H1632.67V575Z" fill="#D0D5DD" mask="url(#path-191-inside-95_5857_104137)"/>
<mask id="path-193-inside-96_5857_104137" fill="white">
<path d="M1632.67 480H1728.67V576H1632.67V480Z"/>
</mask>
<path d="M1728.67 576V577H1729.67V576H1728.67ZM1727.67 480V576H1729.67V480H1727.67ZM1728.67 575H1632.67V577H1728.67V575Z" fill="#D0D5DD" mask="url(#path-193-inside-96_5857_104137)"/>
<mask id="path-195-inside-97_5857_104137" fill="white">
<path d="M192.667 576H288.667V672H192.667V576Z"/>
</mask>
<path d="M288.667 672V673H289.667V672H288.667ZM287.667 576V672H289.667V576H287.667ZM288.667 671H192.667V673H288.667V671Z" fill="#D0D5DD" mask="url(#path-195-inside-97_5857_104137)"/>
<mask id="path-197-inside-98_5857_104137" fill="white">
<path d="M288.667 576H384.667V672H288.667V576Z"/>
</mask>
<path d="M288.667 576H384.667V672H288.667V576Z" fill="#F2F4F7"/>
<path d="M384.667 672V673H385.667V672H384.667ZM383.667 576V672H385.667V576H383.667ZM384.667 671H288.667V673H384.667V671Z" fill="#D0D5DD" mask="url(#path-197-inside-98_5857_104137)"/>
<mask id="path-199-inside-99_5857_104137" fill="white">
<path d="M384.667 576H480.667V672H384.667V576Z"/>
</mask>
<path d="M480.667 672V673H481.667V672H480.667ZM479.667 576V672H481.667V576H479.667ZM480.667 671H384.667V673H480.667V671Z" fill="#D0D5DD" mask="url(#path-199-inside-99_5857_104137)"/>
<mask id="path-201-inside-100_5857_104137" fill="white">
<path d="M480.667 576H576.667V672H480.667V576Z"/>
</mask>
<path d="M576.667 672V673H577.667V672H576.667ZM575.667 576V672H577.667V576H575.667ZM576.667 671H480.667V673H576.667V671Z" fill="#D0D5DD" mask="url(#path-201-inside-100_5857_104137)"/>
<mask id="path-203-inside-101_5857_104137" fill="white">
<path d="M576.667 576H672.667V672H576.667V576Z"/>
</mask>
<path d="M672.667 672V673H673.667V672H672.667ZM671.667 576V672H673.667V576H671.667ZM672.667 671H576.667V673H672.667V671Z" fill="#D0D5DD" mask="url(#path-203-inside-101_5857_104137)"/>
<mask id="path-205-inside-102_5857_104137" fill="white">
<path d="M672.667 576H768.667V672H672.667V576Z"/>
</mask>
<path d="M768.667 672V673H769.667V672H768.667ZM767.667 576V672H769.667V576H767.667ZM768.667 671H672.667V673H768.667V671Z" fill="#D0D5DD" mask="url(#path-205-inside-102_5857_104137)"/>
<mask id="path-207-inside-103_5857_104137" fill="white">
<path d="M768.667 576H864.667V672H768.667V576Z"/>
</mask>
<path d="M864.667 672V673H865.667V672H864.667ZM863.667 576V672H865.667V576H863.667ZM864.667 671H768.667V673H864.667V671Z" fill="#D0D5DD" mask="url(#path-207-inside-103_5857_104137)"/>
<mask id="path-209-inside-104_5857_104137" fill="white">
<path d="M864.667 576H960.667V672H864.667V576Z"/>
</mask>
<path d="M960.667 672V673H961.667V672H960.667ZM959.667 576V672H961.667V576H959.667ZM960.667 671H864.667V673H960.667V671Z" fill="#D0D5DD" mask="url(#path-209-inside-104_5857_104137)"/>
<mask id="path-211-inside-105_5857_104137" fill="white">
<path d="M960.667 576H1056.67V672H960.667V576Z"/>
</mask>
<path d="M1056.67 672V673H1057.67V672H1056.67ZM1055.67 576V672H1057.67V576H1055.67ZM1056.67 671H960.667V673H1056.67V671Z" fill="#D0D5DD" mask="url(#path-211-inside-105_5857_104137)"/>
<mask id="path-213-inside-106_5857_104137" fill="white">
<path d="M1056.67 576H1152.67V672H1056.67V576Z"/>
</mask>
<path d="M1152.67 672V673H1153.67V672H1152.67ZM1151.67 576V672H1153.67V576H1151.67ZM1152.67 671H1056.67V673H1152.67V671Z" fill="#D0D5DD" mask="url(#path-213-inside-106_5857_104137)"/>
<mask id="path-215-inside-107_5857_104137" fill="white">
<path d="M1152.67 576H1248.67V672H1152.67V576Z"/>
</mask>
<path d="M1248.67 672V673H1249.67V672H1248.67ZM1247.67 576V672H1249.67V576H1247.67ZM1248.67 671H1152.67V673H1248.67V671Z" fill="#D0D5DD" mask="url(#path-215-inside-107_5857_104137)"/>
<mask id="path-217-inside-108_5857_104137" fill="white">
<path d="M1248.67 576H1344.67V672H1248.67V576Z"/>
</mask>
<path d="M1344.67 672V673H1345.67V672H1344.67ZM1343.67 576V672H1345.67V576H1343.67ZM1344.67 671H1248.67V673H1344.67V671Z" fill="#D0D5DD" mask="url(#path-217-inside-108_5857_104137)"/>
<mask id="path-219-inside-109_5857_104137" fill="white">
<path d="M1344.67 576H1440.67V672H1344.67V576Z"/>
</mask>
<path d="M1440.67 672V673H1441.67V672H1440.67ZM1439.67 576V672H1441.67V576H1439.67ZM1440.67 671H1344.67V673H1440.67V671Z" fill="#D0D5DD" mask="url(#path-219-inside-109_5857_104137)"/>
<mask id="path-221-inside-110_5857_104137" fill="white">
<path d="M1440.67 576H1536.67V672H1440.67V576Z"/>
</mask>
<path d="M1536.67 672V673H1537.67V672H1536.67ZM1535.67 576V672H1537.67V576H1535.67ZM1536.67 671H1440.67V673H1536.67V671Z" fill="#D0D5DD" mask="url(#path-221-inside-110_5857_104137)"/>
<mask id="path-223-inside-111_5857_104137" fill="white">
<path d="M1536.67 576H1632.67V672H1536.67V576Z"/>
</mask>
<path d="M1536.67 576H1632.67V672H1536.67V576Z" fill="#F2F4F7"/>
<path d="M1632.67 672V673H1633.67V672H1632.67ZM1631.67 576V672H1633.67V576H1631.67ZM1632.67 671H1536.67V673H1632.67V671Z" fill="#D0D5DD" mask="url(#path-223-inside-111_5857_104137)"/>
<mask id="path-225-inside-112_5857_104137" fill="white">
<path d="M1632.67 576H1728.67V672H1632.67V576Z"/>
</mask>
<path d="M1728.67 672V673H1729.67V672H1728.67ZM1727.67 576V672H1729.67V576H1727.67ZM1728.67 671H1632.67V673H1728.67V671Z" fill="#D0D5DD" mask="url(#path-225-inside-112_5857_104137)"/>
<mask id="path-227-inside-113_5857_104137" fill="white">
<path d="M192.667 672H288.667V768H192.667V672Z"/>
</mask>
<path d="M288.667 768V769H289.667V768H288.667ZM287.667 672V768H289.667V672H287.667ZM288.667 767H192.667V769H288.667V767Z" fill="#D0D5DD" mask="url(#path-227-inside-113_5857_104137)"/>
<mask id="path-229-inside-114_5857_104137" fill="white">
<path d="M288.667 672H384.667V768H288.667V672Z"/>
</mask>
<path d="M384.667 768V769H385.667V768H384.667ZM383.667 672V768H385.667V672H383.667ZM384.667 767H288.667V769H384.667V767Z" fill="#D0D5DD" mask="url(#path-229-inside-114_5857_104137)"/>
<mask id="path-231-inside-115_5857_104137" fill="white">
<path d="M384.667 672H480.667V768H384.667V672Z"/>
</mask>
<path d="M480.667 768V769H481.667V768H480.667ZM479.667 672V768H481.667V672H479.667ZM480.667 767H384.667V769H480.667V767Z" fill="#D0D5DD" mask="url(#path-231-inside-115_5857_104137)"/>
<mask id="path-233-inside-116_5857_104137" fill="white">
<path d="M480.667 672H576.667V768H480.667V672Z"/>
</mask>
<path d="M576.667 768V769H577.667V768H576.667ZM575.667 672V768H577.667V672H575.667ZM576.667 767H480.667V769H576.667V767Z" fill="#D0D5DD" mask="url(#path-233-inside-116_5857_104137)"/>
<mask id="path-235-inside-117_5857_104137" fill="white">
<path d="M576.667 672H672.667V768H576.667V672Z"/>
</mask>
<path d="M672.667 768V769H673.667V768H672.667ZM671.667 672V768H673.667V672H671.667ZM672.667 767H576.667V769H672.667V767Z" fill="#D0D5DD" mask="url(#path-235-inside-117_5857_104137)"/>
<mask id="path-237-inside-118_5857_104137" fill="white">
<path d="M672.667 672H768.667V768H672.667V672Z"/>
</mask>
<path d="M768.667 768V769H769.667V768H768.667ZM767.667 672V768H769.667V672H767.667ZM768.667 767H672.667V769H768.667V767Z" fill="#D0D5DD" mask="url(#path-237-inside-118_5857_104137)"/>
<mask id="path-239-inside-119_5857_104137" fill="white">
<path d="M768.667 672H864.667V768H768.667V672Z"/>
</mask>
<path d="M768.667 672H864.667V768H768.667V672Z" fill="#F2F4F7"/>
<path d="M864.667 768V769H865.667V768H864.667ZM863.667 672V768H865.667V672H863.667ZM864.667 767H768.667V769H864.667V767Z" fill="#D0D5DD" mask="url(#path-239-inside-119_5857_104137)"/>
<mask id="path-241-inside-120_5857_104137" fill="white">
<path d="M864.667 672H960.667V768H864.667V672Z"/>
</mask>
<path d="M960.667 768V769H961.667V768H960.667ZM959.667 672V768H961.667V672H959.667ZM960.667 767H864.667V769H960.667V767Z" fill="#D0D5DD" mask="url(#path-241-inside-120_5857_104137)"/>
<mask id="path-243-inside-121_5857_104137" fill="white">
<path d="M960.667 672H1056.67V768H960.667V672Z"/>
</mask>
<path d="M1056.67 768V769H1057.67V768H1056.67ZM1055.67 672V768H1057.67V672H1055.67ZM1056.67 767H960.667V769H1056.67V767Z" fill="#D0D5DD" mask="url(#path-243-inside-121_5857_104137)"/>
<mask id="path-245-inside-122_5857_104137" fill="white">
<path d="M1056.67 672H1152.67V768H1056.67V672Z"/>
</mask>
<path d="M1152.67 768V769H1153.67V768H1152.67ZM1151.67 672V768H1153.67V672H1151.67ZM1152.67 767H1056.67V769H1152.67V767Z" fill="#D0D5DD" mask="url(#path-245-inside-122_5857_104137)"/>
<mask id="path-247-inside-123_5857_104137" fill="white">
<path d="M1152.67 672H1248.67V768H1152.67V672Z"/>
</mask>
<path d="M1248.67 768V769H1249.67V768H1248.67ZM1247.67 672V768H1249.67V672H1247.67ZM1248.67 767H1152.67V769H1248.67V767Z" fill="#D0D5DD" mask="url(#path-247-inside-123_5857_104137)"/>
<mask id="path-249-inside-124_5857_104137" fill="white">
<path d="M1248.67 672H1344.67V768H1248.67V672Z"/>
</mask>
<path d="M1344.67 768V769H1345.67V768H1344.67ZM1343.67 672V768H1345.67V672H1343.67ZM1344.67 767H1248.67V769H1344.67V767Z" fill="#D0D5DD" mask="url(#path-249-inside-124_5857_104137)"/>
<mask id="path-251-inside-125_5857_104137" fill="white">
<path d="M1344.67 672H1440.67V768H1344.67V672Z"/>
</mask>
<path d="M1344.67 672H1440.67V768H1344.67V672Z" fill="#F2F4F7"/>
<path d="M1440.67 768V769H1441.67V768H1440.67ZM1439.67 672V768H1441.67V672H1439.67ZM1440.67 767H1344.67V769H1440.67V767Z" fill="#D0D5DD" mask="url(#path-251-inside-125_5857_104137)"/>
<mask id="path-253-inside-126_5857_104137" fill="white">
<path d="M1440.67 672H1536.67V768H1440.67V672Z"/>
</mask>
<path d="M1536.67 768V769H1537.67V768H1536.67ZM1535.67 672V768H1537.67V672H1535.67ZM1536.67 767H1440.67V769H1536.67V767Z" fill="#D0D5DD" mask="url(#path-253-inside-126_5857_104137)"/>
<mask id="path-255-inside-127_5857_104137" fill="white">
<path d="M1536.67 672H1632.67V768H1536.67V672Z"/>
</mask>
<path d="M1632.67 768V769H1633.67V768H1632.67ZM1631.67 672V768H1633.67V672H1631.67ZM1632.67 767H1536.67V769H1632.67V767Z" fill="#D0D5DD" mask="url(#path-255-inside-127_5857_104137)"/>
<mask id="path-257-inside-128_5857_104137" fill="white">
<path d="M1632.67 672H1728.67V768H1632.67V672Z"/>
</mask>
<path d="M1728.67 768V769H1729.67V768H1728.67ZM1727.67 672V768H1729.67V672H1727.67ZM1728.67 767H1632.67V769H1728.67V767Z" fill="#D0D5DD" mask="url(#path-257-inside-128_5857_104137)"/>
<mask id="path-259-inside-129_5857_104137" fill="white">
<path d="M192.667 768H288.667V864H192.667V768Z"/>
</mask>
<path d="M288.667 864V865H289.667V864H288.667ZM287.667 768V864H289.667V768H287.667ZM288.667 863H192.667V865H288.667V863Z" fill="#D0D5DD" mask="url(#path-259-inside-129_5857_104137)"/>
<mask id="path-261-inside-130_5857_104137" fill="white">
<path d="M288.667 768H384.667V864H288.667V768Z"/>
</mask>
<path d="M384.667 864V865H385.667V864H384.667ZM383.667 768V864H385.667V768H383.667ZM384.667 863H288.667V865H384.667V863Z" fill="#D0D5DD" mask="url(#path-261-inside-130_5857_104137)"/>
<mask id="path-263-inside-131_5857_104137" fill="white">
<path d="M384.667 768H480.667V864H384.667V768Z"/>
</mask>
<path d="M480.667 864V865H481.667V864H480.667ZM479.667 768V864H481.667V768H479.667ZM480.667 863H384.667V865H480.667V863Z" fill="#D0D5DD" mask="url(#path-263-inside-131_5857_104137)"/>
<mask id="path-265-inside-132_5857_104137" fill="white">
<path d="M480.667 768H576.667V864H480.667V768Z"/>
</mask>
<path d="M480.667 768H576.667V864H480.667V768Z" fill="#F2F4F7"/>
<path d="M576.667 864V865H577.667V864H576.667ZM575.667 768V864H577.667V768H575.667ZM576.667 863H480.667V865H576.667V863Z" fill="#D0D5DD" mask="url(#path-265-inside-132_5857_104137)"/>
<mask id="path-267-inside-133_5857_104137" fill="white">
<path d="M576.667 768H672.667V864H576.667V768Z"/>
</mask>
<path d="M672.667 864V865H673.667V864H672.667ZM671.667 768V864H673.667V768H671.667ZM672.667 863H576.667V865H672.667V863Z" fill="#D0D5DD" mask="url(#path-267-inside-133_5857_104137)"/>
<mask id="path-269-inside-134_5857_104137" fill="white">
<path d="M672.667 768H768.667V864H672.667V768Z"/>
</mask>
<path d="M768.667 864V865H769.667V864H768.667ZM767.667 768V864H769.667V768H767.667ZM768.667 863H672.667V865H768.667V863Z" fill="#D0D5DD" mask="url(#path-269-inside-134_5857_104137)"/>
<mask id="path-271-inside-135_5857_104137" fill="white">
<path d="M768.667 768H864.667V864H768.667V768Z"/>
</mask>
<path d="M864.667 864V865H865.667V864H864.667ZM863.667 768V864H865.667V768H863.667ZM864.667 863H768.667V865H864.667V863Z" fill="#D0D5DD" mask="url(#path-271-inside-135_5857_104137)"/>
<mask id="path-273-inside-136_5857_104137" fill="white">
<path d="M864.667 768H960.667V864H864.667V768Z"/>
</mask>
<path d="M960.667 864V865H961.667V864H960.667ZM959.667 768V864H961.667V768H959.667ZM960.667 863H864.667V865H960.667V863Z" fill="#D0D5DD" mask="url(#path-273-inside-136_5857_104137)"/>
<mask id="path-275-inside-137_5857_104137" fill="white">
<path d="M960.667 768H1056.67V864H960.667V768Z"/>
</mask>
<path d="M1056.67 864V865H1057.67V864H1056.67ZM1055.67 768V864H1057.67V768H1055.67ZM1056.67 863H960.667V865H1056.67V863Z" fill="#D0D5DD" mask="url(#path-275-inside-137_5857_104137)"/>
<mask id="path-277-inside-138_5857_104137" fill="white">
<path d="M1056.67 768H1152.67V864H1056.67V768Z"/>
</mask>
<path d="M1056.67 768H1152.67V864H1056.67V768Z" fill="#F2F4F7"/>
<path d="M1152.67 864V865H1153.67V864H1152.67ZM1151.67 768V864H1153.67V768H1151.67ZM1152.67 863H1056.67V865H1152.67V863Z" fill="#D0D5DD" mask="url(#path-277-inside-138_5857_104137)"/>
<mask id="path-279-inside-139_5857_104137" fill="white">
<path d="M1152.67 768H1248.67V864H1152.67V768Z"/>
</mask>
<path d="M1248.67 864V865H1249.67V864H1248.67ZM1247.67 768V864H1249.67V768H1247.67ZM1248.67 863H1152.67V865H1248.67V863Z" fill="#D0D5DD" mask="url(#path-279-inside-139_5857_104137)"/>
<mask id="path-281-inside-140_5857_104137" fill="white">
<path d="M1248.67 768H1344.67V864H1248.67V768Z"/>
</mask>
<path d="M1344.67 864V865H1345.67V864H1344.67ZM1343.67 768V864H1345.67V768H1343.67ZM1344.67 863H1248.67V865H1344.67V863Z" fill="#D0D5DD" mask="url(#path-281-inside-140_5857_104137)"/>
<mask id="path-283-inside-141_5857_104137" fill="white">
<path d="M1344.67 768H1440.67V864H1344.67V768Z"/>
</mask>
<path d="M1440.67 864V865H1441.67V864H1440.67ZM1439.67 768V864H1441.67V768H1439.67ZM1440.67 863H1344.67V865H1440.67V863Z" fill="#D0D5DD" mask="url(#path-283-inside-141_5857_104137)"/>
<mask id="path-285-inside-142_5857_104137" fill="white">
<path d="M1440.67 768H1536.67V864H1440.67V768Z"/>
</mask>
<path d="M1536.67 864V865H1537.67V864H1536.67ZM1535.67 768V864H1537.67V768H1535.67ZM1536.67 863H1440.67V865H1536.67V863Z" fill="#D0D5DD" mask="url(#path-285-inside-142_5857_104137)"/>
<mask id="path-287-inside-143_5857_104137" fill="white">
<path d="M1536.67 768H1632.67V864H1536.67V768Z"/>
</mask>
<path d="M1632.67 864V865H1633.67V864H1632.67ZM1631.67 768V864H1633.67V768H1631.67ZM1632.67 863H1536.67V865H1632.67V863Z" fill="#D0D5DD" mask="url(#path-287-inside-143_5857_104137)"/>
<mask id="path-289-inside-144_5857_104137" fill="white">
<path d="M1632.67 768H1728.67V864H1632.67V768Z"/>
</mask>
<path d="M1728.67 864V865H1729.67V864H1728.67ZM1727.67 768V864H1729.67V768H1727.67ZM1728.67 863H1632.67V865H1728.67V863Z" fill="#D0D5DD" mask="url(#path-289-inside-144_5857_104137)"/>
<mask id="path-291-inside-145_5857_104137" fill="white">
<path d="M192.667 864H288.667V960H192.667V864Z"/>
</mask>
<path d="M288.667 960V961H289.667V960H288.667ZM287.667 864V960H289.667V864H287.667ZM288.667 959H192.667V961H288.667V959Z" fill="#D0D5DD" mask="url(#path-291-inside-145_5857_104137)"/>
<mask id="path-293-inside-146_5857_104137" fill="white">
<path d="M288.667 864H384.667V960H288.667V864Z"/>
</mask>
<path d="M384.667 960V961H385.667V960H384.667ZM383.667 864V960H385.667V864H383.667ZM384.667 959H288.667V961H384.667V959Z" fill="#D0D5DD" mask="url(#path-293-inside-146_5857_104137)"/>
<mask id="path-295-inside-147_5857_104137" fill="white">
<path d="M384.667 864H480.667V960H384.667V864Z"/>
</mask>
<path d="M480.667 960V961H481.667V960H480.667ZM479.667 864V960H481.667V864H479.667ZM480.667 959H384.667V961H480.667V959Z" fill="#D0D5DD" mask="url(#path-295-inside-147_5857_104137)"/>
<mask id="path-297-inside-148_5857_104137" fill="white">
<path d="M480.667 864H576.667V960H480.667V864Z"/>
</mask>
<path d="M576.667 960V961H577.667V960H576.667ZM575.667 864V960H577.667V864H575.667ZM576.667 959H480.667V961H576.667V959Z" fill="#D0D5DD" mask="url(#path-297-inside-148_5857_104137)"/>
<mask id="path-299-inside-149_5857_104137" fill="white">
<path d="M576.667 864H672.667V960H576.667V864Z"/>
</mask>
<path d="M672.667 960V961H673.667V960H672.667ZM671.667 864V960H673.667V864H671.667ZM672.667 959H576.667V961H672.667V959Z" fill="#D0D5DD" mask="url(#path-299-inside-149_5857_104137)"/>
<mask id="path-301-inside-150_5857_104137" fill="white">
<path d="M672.667 864H768.667V960H672.667V864Z"/>
</mask>
<path d="M768.667 960V961H769.667V960H768.667ZM767.667 864V960H769.667V864H767.667ZM768.667 959H672.667V961H768.667V959Z" fill="#D0D5DD" mask="url(#path-301-inside-150_5857_104137)"/>
<mask id="path-303-inside-151_5857_104137" fill="white">
<path d="M768.667 864H864.667V960H768.667V864Z"/>
</mask>
<path d="M864.667 960V961H865.667V960H864.667ZM863.667 864V960H865.667V864H863.667ZM864.667 959H768.667V961H864.667V959Z" fill="#D0D5DD" mask="url(#path-303-inside-151_5857_104137)"/>
<mask id="path-305-inside-152_5857_104137" fill="white">
<path d="M864.667 864H960.667V960H864.667V864Z"/>
</mask>
<path d="M960.667 960V961H961.667V960H960.667ZM959.667 864V960H961.667V864H959.667ZM960.667 959H864.667V961H960.667V959Z" fill="#D0D5DD" mask="url(#path-305-inside-152_5857_104137)"/>
<mask id="path-307-inside-153_5857_104137" fill="white">
<path d="M960.667 864H1056.67V960H960.667V864Z"/>
</mask>
<path d="M1056.67 960V961H1057.67V960H1056.67ZM1055.67 864V960H1057.67V864H1055.67ZM1056.67 959H960.667V961H1056.67V959Z" fill="#D0D5DD" mask="url(#path-307-inside-153_5857_104137)"/>
<mask id="path-309-inside-154_5857_104137" fill="white">
<path d="M1056.67 864H1152.67V960H1056.67V864Z"/>
</mask>
<path d="M1152.67 960V961H1153.67V960H1152.67ZM1151.67 864V960H1153.67V864H1151.67ZM1152.67 959H1056.67V961H1152.67V959Z" fill="#D0D5DD" mask="url(#path-309-inside-154_5857_104137)"/>
<mask id="path-311-inside-155_5857_104137" fill="white">
<path d="M1152.67 864H1248.67V960H1152.67V864Z"/>
</mask>
<path d="M1248.67 960V961H1249.67V960H1248.67ZM1247.67 864V960H1249.67V864H1247.67ZM1248.67 959H1152.67V961H1248.67V959Z" fill="#D0D5DD" mask="url(#path-311-inside-155_5857_104137)"/>
<mask id="path-313-inside-156_5857_104137" fill="white">
<path d="M1248.67 864H1344.67V960H1248.67V864Z"/>
</mask>
<path d="M1344.67 960V961H1345.67V960H1344.67ZM1343.67 864V960H1345.67V864H1343.67ZM1344.67 959H1248.67V961H1344.67V959Z" fill="#D0D5DD" mask="url(#path-313-inside-156_5857_104137)"/>
<mask id="path-315-inside-157_5857_104137" fill="white">
<path d="M1344.67 864H1440.67V960H1344.67V864Z"/>
</mask>
<path d="M1440.67 960V961H1441.67V960H1440.67ZM1439.67 864V960H1441.67V864H1439.67ZM1440.67 959H1344.67V961H1440.67V959Z" fill="#D0D5DD" mask="url(#path-315-inside-157_5857_104137)"/>
<mask id="path-317-inside-158_5857_104137" fill="white">
<path d="M1440.67 864H1536.67V960H1440.67V864Z"/>
</mask>
<path d="M1536.67 960V961H1537.67V960H1536.67ZM1535.67 864V960H1537.67V864H1535.67ZM1536.67 959H1440.67V961H1536.67V959Z" fill="#D0D5DD" mask="url(#path-317-inside-158_5857_104137)"/>
<mask id="path-319-inside-159_5857_104137" fill="white">
<path d="M1536.67 864H1632.67V960H1536.67V864Z"/>
</mask>
<path d="M1632.67 960V961H1633.67V960H1632.67ZM1631.67 864V960H1633.67V864H1631.67ZM1632.67 959H1536.67V961H1632.67V959Z" fill="#D0D5DD" mask="url(#path-319-inside-159_5857_104137)"/>
<mask id="path-321-inside-160_5857_104137" fill="white">
<path d="M1632.67 864H1728.67V960H1632.67V864Z"/>
</mask>
<path d="M1632.67 864H1728.67V960H1632.67V864Z" fill="#F2F4F7"/>
<path d="M1728.67 960V961H1729.67V960H1728.67ZM1727.67 864V960H1729.67V864H1727.67ZM1728.67 959H1632.67V961H1728.67V959Z" fill="#D0D5DD" mask="url(#path-321-inside-160_5857_104137)"/>
<mask id="path-323-inside-161_5857_104137" fill="white">
<path d="M192.667 960H288.667V1056H192.667V960Z"/>
</mask>
<path d="M288.667 1056V1057H289.667V1056H288.667ZM287.667 960V1056H289.667V960H287.667ZM288.667 1055H192.667V1057H288.667V1055Z" fill="#D0D5DD" mask="url(#path-323-inside-161_5857_104137)"/>
<mask id="path-325-inside-162_5857_104137" fill="white">
<path d="M288.667 960H384.667V1056H288.667V960Z"/>
</mask>
<path d="M384.667 1056V1057H385.667V1056H384.667ZM383.667 960V1056H385.667V960H383.667ZM384.667 1055H288.667V1057H384.667V1055Z" fill="#D0D5DD" mask="url(#path-325-inside-162_5857_104137)"/>
<mask id="path-327-inside-163_5857_104137" fill="white">
<path d="M384.667 960H480.667V1056H384.667V960Z"/>
</mask>
<path d="M480.667 1056V1057H481.667V1056H480.667ZM479.667 960V1056H481.667V960H479.667ZM480.667 1055H384.667V1057H480.667V1055Z" fill="#D0D5DD" mask="url(#path-327-inside-163_5857_104137)"/>
<mask id="path-329-inside-164_5857_104137" fill="white">
<path d="M480.667 960H576.667V1056H480.667V960Z"/>
</mask>
<path d="M576.667 1056V1057H577.667V1056H576.667ZM575.667 960V1056H577.667V960H575.667ZM576.667 1055H480.667V1057H576.667V1055Z" fill="#D0D5DD" mask="url(#path-329-inside-164_5857_104137)"/>
<mask id="path-331-inside-165_5857_104137" fill="white">
<path d="M576.667 960H672.667V1056H576.667V960Z"/>
</mask>
<path d="M576.667 960H672.667V1056H576.667V960Z" fill="#F2F4F7"/>
<path d="M672.667 1056V1057H673.667V1056H672.667ZM671.667 960V1056H673.667V960H671.667ZM672.667 1055H576.667V1057H672.667V1055Z" fill="#D0D5DD" mask="url(#path-331-inside-165_5857_104137)"/>
<mask id="path-333-inside-166_5857_104137" fill="white">
<path d="M672.667 960H768.667V1056H672.667V960Z"/>
</mask>
<path d="M768.667 1056V1057H769.667V1056H768.667ZM767.667 960V1056H769.667V960H767.667ZM768.667 1055H672.667V1057H768.667V1055Z" fill="#D0D5DD" mask="url(#path-333-inside-166_5857_104137)"/>
<mask id="path-335-inside-167_5857_104137" fill="white">
<path d="M768.667 960H864.667V1056H768.667V960Z"/>
</mask>
<path d="M864.667 1056V1057H865.667V1056H864.667ZM863.667 960V1056H865.667V960H863.667ZM864.667 1055H768.667V1057H864.667V1055Z" fill="#D0D5DD" mask="url(#path-335-inside-167_5857_104137)"/>
<mask id="path-337-inside-168_5857_104137" fill="white">
<path d="M864.667 960H960.667V1056H864.667V960Z"/>
</mask>
<path d="M960.667 1056V1057H961.667V1056H960.667ZM959.667 960V1056H961.667V960H959.667ZM960.667 1055H864.667V1057H960.667V1055Z" fill="#D0D5DD" mask="url(#path-337-inside-168_5857_104137)"/>
<mask id="path-339-inside-169_5857_104137" fill="white">
<path d="M960.667 960H1056.67V1056H960.667V960Z"/>
</mask>
<path d="M960.667 960H1056.67V1056H960.667V960Z" fill="#F2F4F7"/>
<path d="M1056.67 1056V1057H1057.67V1056H1056.67ZM1055.67 960V1056H1057.67V960H1055.67ZM1056.67 1055H960.667V1057H1056.67V1055Z" fill="#D0D5DD" mask="url(#path-339-inside-169_5857_104137)"/>
<mask id="path-341-inside-170_5857_104137" fill="white">
<path d="M1056.67 960H1152.67V1056H1056.67V960Z"/>
</mask>
<path d="M1152.67 1056V1057H1153.67V1056H1152.67ZM1151.67 960V1056H1153.67V960H1151.67ZM1152.67 1055H1056.67V1057H1152.67V1055Z" fill="#D0D5DD" mask="url(#path-341-inside-170_5857_104137)"/>
<mask id="path-343-inside-171_5857_104137" fill="white">
<path d="M1152.67 960H1248.67V1056H1152.67V960Z"/>
</mask>
<path d="M1248.67 1056V1057H1249.67V1056H1248.67ZM1247.67 960V1056H1249.67V960H1247.67ZM1248.67 1055H1152.67V1057H1248.67V1055Z" fill="#D0D5DD" mask="url(#path-343-inside-171_5857_104137)"/>
<mask id="path-345-inside-172_5857_104137" fill="white">
<path d="M1248.67 960H1344.67V1056H1248.67V960Z"/>
</mask>
<path d="M1344.67 1056V1057H1345.67V1056H1344.67ZM1343.67 960V1056H1345.67V960H1343.67ZM1344.67 1055H1248.67V1057H1344.67V1055Z" fill="#D0D5DD" mask="url(#path-345-inside-172_5857_104137)"/>
<mask id="path-347-inside-173_5857_104137" fill="white">
<path d="M1344.67 960H1440.67V1056H1344.67V960Z"/>
</mask>
<path d="M1440.67 1056V1057H1441.67V1056H1440.67ZM1439.67 960V1056H1441.67V960H1439.67ZM1440.67 1055H1344.67V1057H1440.67V1055Z" fill="#D0D5DD" mask="url(#path-347-inside-173_5857_104137)"/>
<mask id="path-349-inside-174_5857_104137" fill="white">
<path d="M1440.67 960H1536.67V1056H1440.67V960Z"/>
</mask>
<path d="M1536.67 1056V1057H1537.67V1056H1536.67ZM1535.67 960V1056H1537.67V960H1535.67ZM1536.67 1055H1440.67V1057H1536.67V1055Z" fill="#D0D5DD" mask="url(#path-349-inside-174_5857_104137)"/>
<mask id="path-351-inside-175_5857_104137" fill="white">
<path d="M1536.67 960H1632.67V1056H1536.67V960Z"/>
</mask>
<path d="M1632.67 1056V1057H1633.67V1056H1632.67ZM1631.67 960V1056H1633.67V960H1631.67ZM1632.67 1055H1536.67V1057H1632.67V1055Z" fill="#D0D5DD" mask="url(#path-351-inside-175_5857_104137)"/>
<mask id="path-353-inside-176_5857_104137" fill="white">
<path d="M1632.67 960H1728.67V1056H1632.67V960Z"/>
</mask>
<path d="M1728.67 1056V1057H1729.67V1056H1728.67ZM1727.67 960V1056H1729.67V960H1727.67ZM1728.67 1055H1632.67V1057H1728.67V1055Z" fill="#D0D5DD" mask="url(#path-353-inside-176_5857_104137)"/>
<mask id="path-355-inside-177_5857_104137" fill="white">
<path d="M192.667 1056H288.667V1152H192.667V1056Z"/>
</mask>
<path d="M192.667 1056H288.667V1152H192.667V1056Z" fill="#F2F4F7"/>
<path d="M288.667 1152V1153H289.667V1152H288.667ZM287.667 1056V1152H289.667V1056H287.667ZM288.667 1151H192.667V1153H288.667V1151Z" fill="#D0D5DD" mask="url(#path-355-inside-177_5857_104137)"/>
<mask id="path-357-inside-178_5857_104137" fill="white">
<path d="M288.667 1056H384.667V1152H288.667V1056Z"/>
</mask>
<path d="M384.667 1152V1153H385.667V1152H384.667ZM383.667 1056V1152H385.667V1056H383.667ZM384.667 1151H288.667V1153H384.667V1151Z" fill="#D0D5DD" mask="url(#path-357-inside-178_5857_104137)"/>
<mask id="path-359-inside-179_5857_104137" fill="white">
<path d="M384.667 1056H480.667V1152H384.667V1056Z"/>
</mask>
<path d="M480.667 1152V1153H481.667V1152H480.667ZM479.667 1056V1152H481.667V1056H479.667ZM480.667 1151H384.667V1153H480.667V1151Z" fill="#D0D5DD" mask="url(#path-359-inside-179_5857_104137)"/>
<mask id="path-361-inside-180_5857_104137" fill="white">
<path d="M480.667 1056H576.667V1152H480.667V1056Z"/>
</mask>
<path d="M576.667 1152V1153H577.667V1152H576.667ZM575.667 1056V1152H577.667V1056H575.667ZM576.667 1151H480.667V1153H576.667V1151Z" fill="#D0D5DD" mask="url(#path-361-inside-180_5857_104137)"/>
<mask id="path-363-inside-181_5857_104137" fill="white">
<path d="M576.667 1056H672.667V1152H576.667V1056Z"/>
</mask>
<path d="M672.667 1152V1153H673.667V1152H672.667ZM671.667 1056V1152H673.667V1056H671.667ZM672.667 1151H576.667V1153H672.667V1151Z" fill="#D0D5DD" mask="url(#path-363-inside-181_5857_104137)"/>
<mask id="path-365-inside-182_5857_104137" fill="white">
<path d="M672.667 1056H768.667V1152H672.667V1056Z"/>
</mask>
<path d="M768.667 1152V1153H769.667V1152H768.667ZM767.667 1056V1152H769.667V1056H767.667ZM768.667 1151H672.667V1153H768.667V1151Z" fill="#D0D5DD" mask="url(#path-365-inside-182_5857_104137)"/>
<mask id="path-367-inside-183_5857_104137" fill="white">
<path d="M768.667 1056H864.667V1152H768.667V1056Z"/>
</mask>
<path d="M864.667 1152V1153H865.667V1152H864.667ZM863.667 1056V1152H865.667V1056H863.667ZM864.667 1151H768.667V1153H864.667V1151Z" fill="#D0D5DD" mask="url(#path-367-inside-183_5857_104137)"/>
<mask id="path-369-inside-184_5857_104137" fill="white">
<path d="M864.667 1056H960.667V1152H864.667V1056Z"/>
</mask>
<path d="M960.667 1152V1153H961.667V1152H960.667ZM959.667 1056V1152H961.667V1056H959.667ZM960.667 1151H864.667V1153H960.667V1151Z" fill="#D0D5DD" mask="url(#path-369-inside-184_5857_104137)"/>
<mask id="path-371-inside-185_5857_104137" fill="white">
<path d="M960.667 1056H1056.67V1152H960.667V1056Z"/>
</mask>
<path d="M1056.67 1152V1153H1057.67V1152H1056.67ZM1055.67 1056V1152H1057.67V1056H1055.67ZM1056.67 1151H960.667V1153H1056.67V1151Z" fill="#D0D5DD" mask="url(#path-371-inside-185_5857_104137)"/>
<mask id="path-373-inside-186_5857_104137" fill="white">
<path d="M1056.67 1056H1152.67V1152H1056.67V1056Z"/>
</mask>
<path d="M1152.67 1152V1153H1153.67V1152H1152.67ZM1151.67 1056V1152H1153.67V1056H1151.67ZM1152.67 1151H1056.67V1153H1152.67V1151Z" fill="#D0D5DD" mask="url(#path-373-inside-186_5857_104137)"/>
<mask id="path-375-inside-187_5857_104137" fill="white">
<path d="M1152.67 1056H1248.67V1152H1152.67V1056Z"/>
</mask>
<path d="M1248.67 1152V1153H1249.67V1152H1248.67ZM1247.67 1056V1152H1249.67V1056H1247.67ZM1248.67 1151H1152.67V1153H1248.67V1151Z" fill="#D0D5DD" mask="url(#path-375-inside-187_5857_104137)"/>
<mask id="path-377-inside-188_5857_104137" fill="white">
<path d="M1248.67 1056H1344.67V1152H1248.67V1056Z"/>
</mask>
<path d="M1344.67 1152V1153H1345.67V1152H1344.67ZM1343.67 1056V1152H1345.67V1056H1343.67ZM1344.67 1151H1248.67V1153H1344.67V1151Z" fill="#D0D5DD" mask="url(#path-377-inside-188_5857_104137)"/>
<mask id="path-379-inside-189_5857_104137" fill="white">
<path d="M1344.67 1056H1440.67V1152H1344.67V1056Z"/>
</mask>
<path d="M1344.67 1056H1440.67V1152H1344.67V1056Z" fill="#F2F4F7"/>
<path d="M1440.67 1152V1153H1441.67V1152H1440.67ZM1439.67 1056V1152H1441.67V1056H1439.67ZM1440.67 1151H1344.67V1153H1440.67V1151Z" fill="#D0D5DD" mask="url(#path-379-inside-189_5857_104137)"/>
<mask id="path-381-inside-190_5857_104137" fill="white">
<path d="M1440.67 1056H1536.67V1152H1440.67V1056Z"/>
</mask>
<path d="M1536.67 1152V1153H1537.67V1152H1536.67ZM1535.67 1056V1152H1537.67V1056H1535.67ZM1536.67 1151H1440.67V1153H1536.67V1151Z" fill="#D0D5DD" mask="url(#path-381-inside-190_5857_104137)"/>
<mask id="path-383-inside-191_5857_104137" fill="white">
<path d="M1536.67 1056H1632.67V1152H1536.67V1056Z"/>
</mask>
<path d="M1632.67 1152V1153H1633.67V1152H1632.67ZM1631.67 1056V1152H1633.67V1056H1631.67ZM1632.67 1151H1536.67V1153H1632.67V1151Z" fill="#D0D5DD" mask="url(#path-383-inside-191_5857_104137)"/>
<mask id="path-385-inside-192_5857_104137" fill="white">
<path d="M1632.67 1056H1728.67V1152H1632.67V1056Z"/>
</mask>
<path d="M1728.67 1152V1153H1729.67V1152H1728.67ZM1727.67 1056V1152H1729.67V1056H1727.67ZM1728.67 1151H1632.67V1153H1728.67V1151Z" fill="#D0D5DD" mask="url(#path-385-inside-192_5857_104137)"/>
<mask id="path-387-inside-193_5857_104137" fill="white">
<path d="M192.667 1152H288.667V1248H192.667V1152Z"/>
</mask>
<path d="M288.667 1248V1249H289.667V1248H288.667ZM287.667 1152V1248H289.667V1152H287.667ZM288.667 1247H192.667V1249H288.667V1247Z" fill="#D0D5DD" mask="url(#path-387-inside-193_5857_104137)"/>
<mask id="path-389-inside-194_5857_104137" fill="white">
<path d="M288.667 1152H384.667V1248H288.667V1152Z"/>
</mask>
<path d="M384.667 1248V1249H385.667V1248H384.667ZM383.667 1152V1248H385.667V1152H383.667ZM384.667 1247H288.667V1249H384.667V1247Z" fill="#D0D5DD" mask="url(#path-389-inside-194_5857_104137)"/>
<mask id="path-391-inside-195_5857_104137" fill="white">
<path d="M384.667 1152H480.667V1248H384.667V1152Z"/>
</mask>
<path d="M480.667 1248V1249H481.667V1248H480.667ZM479.667 1152V1248H481.667V1152H479.667ZM480.667 1247H384.667V1249H480.667V1247Z" fill="#D0D5DD" mask="url(#path-391-inside-195_5857_104137)"/>
<mask id="path-393-inside-196_5857_104137" fill="white">
<path d="M480.667 1152H576.667V1248H480.667V1152Z"/>
</mask>
<path d="M576.667 1248V1249H577.667V1248H576.667ZM575.667 1152V1248H577.667V1152H575.667ZM576.667 1247H480.667V1249H576.667V1247Z" fill="#D0D5DD" mask="url(#path-393-inside-196_5857_104137)"/>
<mask id="path-395-inside-197_5857_104137" fill="white">
<path d="M576.667 1152H672.667V1248H576.667V1152Z"/>
</mask>
<path d="M672.667 1248V1249H673.667V1248H672.667ZM671.667 1152V1248H673.667V1152H671.667ZM672.667 1247H576.667V1249H672.667V1247Z" fill="#D0D5DD" mask="url(#path-395-inside-197_5857_104137)"/>
<mask id="path-397-inside-198_5857_104137" fill="white">
<path d="M672.667 1152H768.667V1248H672.667V1152Z"/>
</mask>
<path d="M768.667 1248V1249H769.667V1248H768.667ZM767.667 1152V1248H769.667V1152H767.667ZM768.667 1247H672.667V1249H768.667V1247Z" fill="#D0D5DD" mask="url(#path-397-inside-198_5857_104137)"/>
<mask id="path-399-inside-199_5857_104137" fill="white">
<path d="M768.667 1152H864.667V1248H768.667V1152Z"/>
</mask>
<path d="M768.667 1152H864.667V1248H768.667V1152Z" fill="#F2F4F7"/>
<path d="M864.667 1248V1249H865.667V1248H864.667ZM863.667 1152V1248H865.667V1152H863.667ZM864.667 1247H768.667V1249H864.667V1247Z" fill="#D0D5DD" mask="url(#path-399-inside-199_5857_104137)"/>
<mask id="path-401-inside-200_5857_104137" fill="white">
<path d="M864.667 1152H960.667V1248H864.667V1152Z"/>
</mask>
<path d="M960.667 1248V1249H961.667V1248H960.667ZM959.667 1152V1248H961.667V1152H959.667ZM960.667 1247H864.667V1249H960.667V1247Z" fill="#D0D5DD" mask="url(#path-401-inside-200_5857_104137)"/>
<mask id="path-403-inside-201_5857_104137" fill="white">
<path d="M960.667 1152H1056.67V1248H960.667V1152Z"/>
</mask>
<path d="M1056.67 1248V1249H1057.67V1248H1056.67ZM1055.67 1152V1248H1057.67V1152H1055.67ZM1056.67 1247H960.667V1249H1056.67V1247Z" fill="#D0D5DD" mask="url(#path-403-inside-201_5857_104137)"/>
<mask id="path-405-inside-202_5857_104137" fill="white">
<path d="M1056.67 1152H1152.67V1248H1056.67V1152Z"/>
</mask>
<path d="M1152.67 1248V1249H1153.67V1248H1152.67ZM1151.67 1152V1248H1153.67V1152H1151.67ZM1152.67 1247H1056.67V1249H1152.67V1247Z" fill="#D0D5DD" mask="url(#path-405-inside-202_5857_104137)"/>
<mask id="path-407-inside-203_5857_104137" fill="white">
<path d="M1152.67 1152H1248.67V1248H1152.67V1152Z"/>
</mask>
<path d="M1248.67 1248V1249H1249.67V1248H1248.67ZM1247.67 1152V1248H1249.67V1152H1247.67ZM1248.67 1247H1152.67V1249H1248.67V1247Z" fill="#D0D5DD" mask="url(#path-407-inside-203_5857_104137)"/>
<mask id="path-409-inside-204_5857_104137" fill="white">
<path d="M1248.67 1152H1344.67V1248H1248.67V1152Z"/>
</mask>
<path d="M1344.67 1248V1249H1345.67V1248H1344.67ZM1343.67 1152V1248H1345.67V1152H1343.67ZM1344.67 1247H1248.67V1249H1344.67V1247Z" fill="#D0D5DD" mask="url(#path-409-inside-204_5857_104137)"/>
<mask id="path-411-inside-205_5857_104137" fill="white">
<path d="M1344.67 1152H1440.67V1248H1344.67V1152Z"/>
</mask>
<path d="M1440.67 1248V1249H1441.67V1248H1440.67ZM1439.67 1152V1248H1441.67V1152H1439.67ZM1440.67 1247H1344.67V1249H1440.67V1247Z" fill="#D0D5DD" mask="url(#path-411-inside-205_5857_104137)"/>
<mask id="path-413-inside-206_5857_104137" fill="white">
<path d="M1440.67 1152H1536.67V1248H1440.67V1152Z"/>
</mask>
<path d="M1536.67 1248V1249H1537.67V1248H1536.67ZM1535.67 1152V1248H1537.67V1152H1535.67ZM1536.67 1247H1440.67V1249H1536.67V1247Z" fill="#D0D5DD" mask="url(#path-413-inside-206_5857_104137)"/>
<mask id="path-415-inside-207_5857_104137" fill="white">
<path d="M1536.67 1152H1632.67V1248H1536.67V1152Z"/>
</mask>
<path d="M1632.67 1248V1249H1633.67V1248H1632.67ZM1631.67 1152V1248H1633.67V1152H1631.67ZM1632.67 1247H1536.67V1249H1632.67V1247Z" fill="#D0D5DD" mask="url(#path-415-inside-207_5857_104137)"/>
<mask id="path-417-inside-208_5857_104137" fill="white">
<path d="M1632.67 1152H1728.67V1248H1632.67V1152Z"/>
</mask>
<path d="M1728.67 1248V1249H1729.67V1248H1728.67ZM1727.67 1152V1248H1729.67V1152H1727.67ZM1728.67 1247H1632.67V1249H1728.67V1247Z" fill="#D0D5DD" mask="url(#path-417-inside-208_5857_104137)"/>
<mask id="path-419-inside-209_5857_104137" fill="white">
<path d="M192.667 1248H288.667V1344H192.667V1248Z"/>
</mask>
<path d="M288.667 1344V1345H289.667V1344H288.667ZM287.667 1248V1344H289.667V1248H287.667ZM288.667 1343H192.667V1345H288.667V1343Z" fill="#D0D5DD" mask="url(#path-419-inside-209_5857_104137)"/>
<mask id="path-421-inside-210_5857_104137" fill="white">
<path d="M288.667 1248H384.667V1344H288.667V1248Z"/>
</mask>
<path d="M384.667 1344V1345H385.667V1344H384.667ZM383.667 1248V1344H385.667V1248H383.667ZM384.667 1343H288.667V1345H384.667V1343Z" fill="#D0D5DD" mask="url(#path-421-inside-210_5857_104137)"/>
<mask id="path-423-inside-211_5857_104137" fill="white">
<path d="M384.667 1248H480.667V1344H384.667V1248Z"/>
</mask>
<path d="M480.667 1344V1345H481.667V1344H480.667ZM479.667 1248V1344H481.667V1248H479.667ZM480.667 1343H384.667V1345H480.667V1343Z" fill="#D0D5DD" mask="url(#path-423-inside-211_5857_104137)"/>
<mask id="path-425-inside-212_5857_104137" fill="white">
<path d="M480.667 1248H576.667V1344H480.667V1248Z"/>
</mask>
<path d="M480.667 1248H576.667V1344H480.667V1248Z" fill="#F2F4F7"/>
<path d="M576.667 1344V1345H577.667V1344H576.667ZM575.667 1248V1344H577.667V1248H575.667ZM576.667 1343H480.667V1345H576.667V1343Z" fill="#D0D5DD" mask="url(#path-425-inside-212_5857_104137)"/>
<mask id="path-427-inside-213_5857_104137" fill="white">
<path d="M576.667 1248H672.667V1344H576.667V1248Z"/>
</mask>
<path d="M672.667 1344V1345H673.667V1344H672.667ZM671.667 1248V1344H673.667V1248H671.667ZM672.667 1343H576.667V1345H672.667V1343Z" fill="#D0D5DD" mask="url(#path-427-inside-213_5857_104137)"/>
<mask id="path-429-inside-214_5857_104137" fill="white">
<path d="M672.667 1248H768.667V1344H672.667V1248Z"/>
</mask>
<path d="M768.667 1344V1345H769.667V1344H768.667ZM767.667 1248V1344H769.667V1248H767.667ZM768.667 1343H672.667V1345H768.667V1343Z" fill="#D0D5DD" mask="url(#path-429-inside-214_5857_104137)"/>
<mask id="path-431-inside-215_5857_104137" fill="white">
<path d="M768.667 1248H864.667V1344H768.667V1248Z"/>
</mask>
<path d="M864.667 1344V1345H865.667V1344H864.667ZM863.667 1248V1344H865.667V1248H863.667ZM864.667 1343H768.667V1345H864.667V1343Z" fill="#D0D5DD" mask="url(#path-431-inside-215_5857_104137)"/>
<mask id="path-433-inside-216_5857_104137" fill="white">
<path d="M864.667 1248H960.667V1344H864.667V1248Z"/>
</mask>
<path d="M960.667 1344V1345H961.667V1344H960.667ZM959.667 1248V1344H961.667V1248H959.667ZM960.667 1343H864.667V1345H960.667V1343Z" fill="#D0D5DD" mask="url(#path-433-inside-216_5857_104137)"/>
<mask id="path-435-inside-217_5857_104137" fill="white">
<path d="M960.667 1248H1056.67V1344H960.667V1248Z"/>
</mask>
<path d="M1056.67 1344V1345H1057.67V1344H1056.67ZM1055.67 1248V1344H1057.67V1248H1055.67ZM1056.67 1343H960.667V1345H1056.67V1343Z" fill="#D0D5DD" mask="url(#path-435-inside-217_5857_104137)"/>
<mask id="path-437-inside-218_5857_104137" fill="white">
<path d="M1056.67 1248H1152.67V1344H1056.67V1248Z"/>
</mask>
<path d="M1056.67 1248H1152.67V1344H1056.67V1248Z" fill="#F2F4F7"/>
<path d="M1152.67 1344V1345H1153.67V1344H1152.67ZM1151.67 1248V1344H1153.67V1248H1151.67ZM1152.67 1343H1056.67V1345H1152.67V1343Z" fill="#D0D5DD" mask="url(#path-437-inside-218_5857_104137)"/>
<mask id="path-439-inside-219_5857_104137" fill="white">
<path d="M1152.67 1248H1248.67V1344H1152.67V1248Z"/>
</mask>
<path d="M1248.67 1344V1345H1249.67V1344H1248.67ZM1247.67 1248V1344H1249.67V1248H1247.67ZM1248.67 1343H1152.67V1345H1248.67V1343Z" fill="#D0D5DD" mask="url(#path-439-inside-219_5857_104137)"/>
<mask id="path-441-inside-220_5857_104137" fill="white">
<path d="M1248.67 1248H1344.67V1344H1248.67V1248Z"/>
</mask>
<path d="M1344.67 1344V1345H1345.67V1344H1344.67ZM1343.67 1248V1344H1345.67V1248H1343.67ZM1344.67 1343H1248.67V1345H1344.67V1343Z" fill="#D0D5DD" mask="url(#path-441-inside-220_5857_104137)"/>
<mask id="path-443-inside-221_5857_104137" fill="white">
<path d="M1344.67 1248H1440.67V1344H1344.67V1248Z"/>
</mask>
<path d="M1440.67 1344V1345H1441.67V1344H1440.67ZM1439.67 1248V1344H1441.67V1248H1439.67ZM1440.67 1343H1344.67V1345H1440.67V1343Z" fill="#D0D5DD" mask="url(#path-443-inside-221_5857_104137)"/>
<mask id="path-445-inside-222_5857_104137" fill="white">
<path d="M1440.67 1248H1536.67V1344H1440.67V1248Z"/>
</mask>
<path d="M1536.67 1344V1345H1537.67V1344H1536.67ZM1535.67 1248V1344H1537.67V1248H1535.67ZM1536.67 1343H1440.67V1345H1536.67V1343Z" fill="#D0D5DD" mask="url(#path-445-inside-222_5857_104137)"/>
<mask id="path-447-inside-223_5857_104137" fill="white">
<path d="M1536.67 1248H1632.67V1344H1536.67V1248Z"/>
</mask>
<path d="M1632.67 1344V1345H1633.67V1344H1632.67ZM1631.67 1248V1344H1633.67V1248H1631.67ZM1632.67 1343H1536.67V1345H1632.67V1343Z" fill="#D0D5DD" mask="url(#path-447-inside-223_5857_104137)"/>
<mask id="path-449-inside-224_5857_104137" fill="white">
<path d="M1632.67 1248H1728.67V1344H1632.67V1248Z"/>
</mask>
<path d="M1728.67 1344V1345H1729.67V1344H1728.67ZM1727.67 1248V1344H1729.67V1248H1727.67ZM1728.67 1343H1632.67V1345H1728.67V1343Z" fill="#D0D5DD" mask="url(#path-449-inside-224_5857_104137)"/>
<mask id="path-451-inside-225_5857_104137" fill="white">
<path d="M192.667 1344H288.667V1440H192.667V1344Z"/>
</mask>
<path d="M288.667 1440V1441H289.667V1440H288.667ZM287.667 1344V1440H289.667V1344H287.667ZM288.667 1439H192.667V1441H288.667V1439Z" fill="#D0D5DD" mask="url(#path-451-inside-225_5857_104137)"/>
<mask id="path-453-inside-226_5857_104137" fill="white">
<path d="M288.667 1344H384.667V1440H288.667V1344Z"/>
</mask>
<path d="M288.667 1344H384.667V1440H288.667V1344Z" fill="#F2F4F7"/>
<path d="M384.667 1440V1441H385.667V1440H384.667ZM383.667 1344V1440H385.667V1344H383.667ZM384.667 1439H288.667V1441H384.667V1439Z" fill="#D0D5DD" mask="url(#path-453-inside-226_5857_104137)"/>
<mask id="path-455-inside-227_5857_104137" fill="white">
<path d="M384.667 1344H480.667V1440H384.667V1344Z"/>
</mask>
<path d="M480.667 1440V1441H481.667V1440H480.667ZM479.667 1344V1440H481.667V1344H479.667ZM480.667 1439H384.667V1441H480.667V1439Z" fill="#D0D5DD" mask="url(#path-455-inside-227_5857_104137)"/>
<mask id="path-457-inside-228_5857_104137" fill="white">
<path d="M480.667 1344H576.667V1440H480.667V1344Z"/>
</mask>
<path d="M576.667 1440V1441H577.667V1440H576.667ZM575.667 1344V1440H577.667V1344H575.667ZM576.667 1439H480.667V1441H576.667V1439Z" fill="#D0D5DD" mask="url(#path-457-inside-228_5857_104137)"/>
<mask id="path-459-inside-229_5857_104137" fill="white">
<path d="M576.667 1344H672.667V1440H576.667V1344Z"/>
</mask>
<path d="M672.667 1440V1441H673.667V1440H672.667ZM671.667 1344V1440H673.667V1344H671.667ZM672.667 1439H576.667V1441H672.667V1439Z" fill="#D0D5DD" mask="url(#path-459-inside-229_5857_104137)"/>
<mask id="path-461-inside-230_5857_104137" fill="white">
<path d="M672.667 1344H768.667V1440H672.667V1344Z"/>
</mask>
<path d="M768.667 1440V1441H769.667V1440H768.667ZM767.667 1344V1440H769.667V1344H767.667ZM768.667 1439H672.667V1441H768.667V1439Z" fill="#D0D5DD" mask="url(#path-461-inside-230_5857_104137)"/>
<mask id="path-463-inside-231_5857_104137" fill="white">
<path d="M768.667 1344H864.667V1440H768.667V1344Z"/>
</mask>
<path d="M864.667 1440V1441H865.667V1440H864.667ZM863.667 1344V1440H865.667V1344H863.667ZM864.667 1439H768.667V1441H864.667V1439Z" fill="#D0D5DD" mask="url(#path-463-inside-231_5857_104137)"/>
<mask id="path-465-inside-232_5857_104137" fill="white">
<path d="M864.667 1344H960.667V1440H864.667V1344Z"/>
</mask>
<path d="M960.667 1440V1441H961.667V1440H960.667ZM959.667 1344V1440H961.667V1344H959.667ZM960.667 1439H864.667V1441H960.667V1439Z" fill="#D0D5DD" mask="url(#path-465-inside-232_5857_104137)"/>
<mask id="path-467-inside-233_5857_104137" fill="white">
<path d="M960.667 1344H1056.67V1440H960.667V1344Z"/>
</mask>
<path d="M1056.67 1440V1441H1057.67V1440H1056.67ZM1055.67 1344V1440H1057.67V1344H1055.67ZM1056.67 1439H960.667V1441H1056.67V1439Z" fill="#D0D5DD" mask="url(#path-467-inside-233_5857_104137)"/>
<mask id="path-469-inside-234_5857_104137" fill="white">
<path d="M1056.67 1344H1152.67V1440H1056.67V1344Z"/>
</mask>
<path d="M1152.67 1440V1441H1153.67V1440H1152.67ZM1151.67 1344V1440H1153.67V1344H1151.67ZM1152.67 1439H1056.67V1441H1152.67V1439Z" fill="#D0D5DD" mask="url(#path-469-inside-234_5857_104137)"/>
<mask id="path-471-inside-235_5857_104137" fill="white">
<path d="M1152.67 1344H1248.67V1440H1152.67V1344Z"/>
</mask>
<path d="M1248.67 1440V1441H1249.67V1440H1248.67ZM1247.67 1344V1440H1249.67V1344H1247.67ZM1248.67 1439H1152.67V1441H1248.67V1439Z" fill="#D0D5DD" mask="url(#path-471-inside-235_5857_104137)"/>
<mask id="path-473-inside-236_5857_104137" fill="white">
<path d="M1248.67 1344H1344.67V1440H1248.67V1344Z"/>
</mask>
<path d="M1344.67 1440V1441H1345.67V1440H1344.67ZM1343.67 1344V1440H1345.67V1344H1343.67ZM1344.67 1439H1248.67V1441H1344.67V1439Z" fill="#D0D5DD" mask="url(#path-473-inside-236_5857_104137)"/>
<mask id="path-475-inside-237_5857_104137" fill="white">
<path d="M1344.67 1344H1440.67V1440H1344.67V1344Z"/>
</mask>
<path d="M1440.67 1440V1441H1441.67V1440H1440.67ZM1439.67 1344V1440H1441.67V1344H1439.67ZM1440.67 1439H1344.67V1441H1440.67V1439Z" fill="#D0D5DD" mask="url(#path-475-inside-237_5857_104137)"/>
<mask id="path-477-inside-238_5857_104137" fill="white">
<path d="M1440.67 1344H1536.67V1440H1440.67V1344Z"/>
</mask>
<path d="M1536.67 1440V1441H1537.67V1440H1536.67ZM1535.67 1344V1440H1537.67V1344H1535.67ZM1536.67 1439H1440.67V1441H1536.67V1439Z" fill="#D0D5DD" mask="url(#path-477-inside-238_5857_104137)"/>
<mask id="path-479-inside-239_5857_104137" fill="white">
<path d="M1536.67 1344H1632.67V1440H1536.67V1344Z"/>
</mask>
<path d="M1536.67 1344H1632.67V1440H1536.67V1344Z" fill="#F2F4F7"/>
<path d="M1632.67 1440V1441H1633.67V1440H1632.67ZM1631.67 1344V1440H1633.67V1344H1631.67ZM1632.67 1439H1536.67V1441H1632.67V1439Z" fill="#D0D5DD" mask="url(#path-479-inside-239_5857_104137)"/>
<mask id="path-481-inside-240_5857_104137" fill="white">
<path d="M1632.67 1344H1728.67V1440H1632.67V1344Z"/>
</mask>
<path d="M1728.67 1440V1441H1729.67V1440H1728.67ZM1727.67 1344V1440H1729.67V1344H1727.67ZM1728.67 1439H1632.67V1441H1728.67V1439Z" fill="#D0D5DD" mask="url(#path-481-inside-240_5857_104137)"/>
</g>
<rect x="1.16699" y="0.5" width="1919" height="1439" stroke="#D0D5DD"/>
</g>
<defs>
<radialGradient id="paint0_radial_5857_104137" cx="0" cy="0" r="1" gradientUnits="userSpaceOnUse" gradientTransform="translate(720 -0.000171661) rotate(90) scale(1440 751.588)">
<stop/>
<stop offset="0.953125" stop-opacity="0"/>
</radialGradient>
<clipPath id="clip0_5857_104137">
<rect x="0.666992" width="1920" height="1440" fill="white"/>
</clipPath>
</defs>
</svg>
