<svg width="150" height="150" viewBox="0 0 150 150" fill="none" xmlns="http://www.w3.org/2000/svg">
<path fill-rule="evenodd" clip-rule="evenodd" d="M95.3904 70.3495C91.7136 76.2939 93.555 84.0978 99.5014 87.7745C101.571 89.0515 103.871 89.67 106.142 89.67C106.172 89.67 106.196 89.6559 106.222 89.6559C106.244 89.6559 106.269 89.67 106.295 89.67C108.564 89.67 110.864 89.0515 112.936 87.7745C118.886 84.0978 120.727 76.2939 117.047 70.3495L106.222 52.8403L95.3904 70.3495Z" fill="url(#paint0_linear)"/>
<path fill-rule="evenodd" clip-rule="evenodd" d="M94.7169 99.4423C94.7169 99.4423 92.4712 98.4836 91.7727 98.0712C84.4913 93.768 79.5235 85.1816 79.5055 75.8146C79.4935 70.8789 81.2068 66.0973 83.7987 61.9141L93.7942 46.0803C96.6584 41.3587 95.6116 36.1148 93.5461 32.7503C90.6679 28.0627 88.4282 24.468 87.0712 22.2984L87.1232 22.4065C86.0264 20.1708 84.3111 18.2073 82.1055 16.8503C81.9434 16.7503 81.7732 16.6802 81.6091 16.5881C68.7815 26.1873 41.8553 61.3357 40.5923 88.7683C40.152 98.3194 47.8017 112.516 56.5363 117.742C69.6341 125.576 88.9446 126.052 95.4535 120.656C104.282 113.335 102.519 102.669 94.7169 99.4423Z" fill="#193F66"/>
<path fill-rule="evenodd" clip-rule="evenodd" d="M64.911 20.9785C64.911 20.9785 37.1001 64.301 36.3355 65.9942C35.8932 66.973 33.8096 70.6657 33.2352 72.5672C28.922 83.033 29.03 94.6617 32.913 105.384C37.0401 116.742 45.5785 125.641 56.5107 130.755C62.4031 133.511 68.6638 134.94 75.1126 135H75.645H76.1534C82.6082 134.94 88.8609 133.511 94.7613 130.755C105.686 125.641 114.386 116.714 118.507 105.342C118.927 104.189 119.274 103.02 119.592 101.837C120.01 100.3 119.526 99.5734 118.951 99.063C118.329 98.5046 117.538 98.6607 116.588 99.1831C113.531 100.87 109.456 101.823 105.583 101.823C104.495 101.823 100.466 101.899 94.8514 99.4894C94.1869 99.2032 93.3743 99.4994 93.0561 100.22C92.978 100.414 92.5177 100.994 92.4696 101.063C90.4601 103.919 87.648 106.214 84.2895 107.774C81.7116 108.986 78.8814 109.653 76.0753 109.689C73.4374 109.725 69.7086 109.041 67.1306 107.836C62.259 105.552 58.5082 101.679 56.6668 96.6132C54.8814 91.6975 53.5604 85.1466 58.7123 77.2026C66.1499 65.7481 86.7914 34.3445 86.7914 34.3445C90.4121 28.4421 88.0003 20.4761 82.1059 16.8494C80.0723 15.5944 77.8106 15 75.581 15C71.3798 15 67.2687 17.1196 64.911 20.9785Z" fill="url(#paint1_linear)"/>
<defs>
<linearGradient id="paint0_linear" x1="106.22" y1="52.8403" x2="106.22" y2="89.67" gradientUnits="userSpaceOnUse">
<stop stop-color="#4182A0"/>
<stop offset="1" stop-color="#35729A"/>
</linearGradient>
<linearGradient id="paint1_linear" x1="74.8747" y1="15" x2="74.8747" y2="135" gradientUnits="userSpaceOnUse">
<stop stop-color="#4B91A6"/>
<stop offset="1" stop-color="#275C91"/>
</linearGradient>
</defs>
</svg>
