<svg width="33" height="33" viewBox="0 0 33 33" fill="none" xmlns="http://www.w3.org/2000/svg">
<g clip-path="url(#clip0_1623_6971)">
<path d="M32.6874 30.973V33.5128H-0.5V0.5H32.6874V30.973ZM30.1344 30.973V23.3272H27.5801V30.973H30.1344ZM30.1344 20.7875V13.1974H22.4448V20.7875H30.1344ZM30.1344 10.6577V8.11797H22.4448V10.6577H30.1344ZM30.1344 5.57943V3.03972H22.4448V5.57943H30.1344ZM25.0283 30.973V23.3272H22.4448V30.973H25.0283ZM19.8918 28.4333V23.3237H17.3691V25.8785H14.8464V28.4333H19.8918ZM19.8918 20.7875V13.1974H17.3691V20.7875H19.8918ZM19.8918 8.10172V3.03972H14.8172V5.55271L14.802 5.59684H12.2641V10.6577H17.3691V8.10288L19.8918 8.10172ZM14.8172 25.8379V23.3272H12.2641V25.8379H14.8172ZM14.8172 20.7875V13.1974H12.2641V20.7875H14.8172ZM9.71106 30.973V23.3272H2.05306V30.973H9.71106ZM9.71106 20.7875V13.1974H7.15801V20.7875H9.71106ZM9.71106 10.6577V5.59684H9.69005V3.04203H7.15801V10.66L9.71106 10.6577ZM4.60612 20.7875V13.1974H2.05306V20.7875H4.60612ZM4.60612 10.6577V3.03972H2.05306V10.6577H4.60612Z" fill="#1A1A1A"/>
<path d="M30.1332 23.3271H27.5801V30.973H30.1332V23.3271Z" fill="#40A8F5"/>
<path d="M30.1332 13.1973H22.4448V20.7874H30.1332V13.1973Z" fill="#40A8F5"/>
<path d="M30.1332 8.11816H22.4448V10.6579H30.1332V8.11816Z" fill="#FF5353"/>
<path d="M30.1332 3.03955H22.4448V5.57926H30.1332V3.03955Z" fill="#FFDF3A"/>
<path d="M25.0271 23.3271H22.4448V30.973H25.0271V23.3271Z" fill="#FFDF3A"/>
<path d="M19.893 23.3271V28.4333H14.8464V25.8796H17.3691V23.3271H19.893Z" fill="#FF5353"/>
<path d="M19.8918 13.1973H17.3691V20.7874H19.8918V13.1973Z" fill="#FFDF3A"/>
<path d="M19.893 3.03955V8.10155H17.3691H17.3539V5.55255H14.816V3.03955H19.893Z" fill="#40A8F5"/>
<path d="M17.369 8.10155V10.6575H12.2641V5.59668H14.8008V8.10155H17.3539H17.369Z" fill="#FFDF3A"/>
<path d="M17.3539 5.55273V8.10174H14.8008V5.59686L14.816 5.55273H17.3539Z" fill="#1A1A1A"/>
<path d="M14.8172 23.3271H12.2641V25.8378H14.8172V23.3271Z" fill="#28F77E"/>
<path d="M14.8172 13.1973H12.2641V20.7874H14.8172V13.1973Z" fill="#FF5353"/>
<path d="M9.71105 23.3271V30.973H2.05304V23.3271H4.60493H7.15799H9.71105Z" fill="#40A8F5"/>
<path d="M9.71108 13.1973H7.15802V20.7874H9.71108V13.1973Z" fill="#40A8F5"/>
<path d="M9.71108 5.59668V10.6575H7.15802V3.03955H9.69357V5.59668H9.71108Z" fill="#FFDF3A"/>
<path d="M4.6061 13.1973H2.05304V20.7874H4.6061V13.1973Z" fill="#FFDF3A"/>
<path d="M4.6061 3.03955H2.05304V10.6575H4.6061V3.03955Z" fill="#FF5353"/>
</g>
<defs>
<clipPath id="clip0_1623_6971">
<rect width="33.1863" height="33" fill="white" transform="translate(-0.5 0.5)"/>
</clipPath>
</defs>
</svg>
