<?xml version="1.0" encoding="UTF-8"?>
<svg width="651px" height="823px" viewBox="0 0 651 823" version="1.1"
   xmlns="http://www.w3.org/2000/svg"
   xmlns:xlink="http://www.w3.org/1999/xlink">
   <title>animation_fish_drip</title>
   <defs>
      <radialGradient cx="50.8197508%" cy="35.5772844%" fx="50.8197508%" fy="35.5772844%" r="95.3340194%" gradientTransform="translate(0.508198,0.355773),scale(1.000000,0.626839),translate(-0.508198,-0.355773)" id="radialGradient-1">
         <stop stop-color="#FFFFFF" offset="0%"></stop>
         <stop stop-color="#FFFFFF" stop-opacity="0.99" offset="11%"></stop>
         <stop stop-color="#FEFEFE" stop-opacity="0.95" offset="20%"></stop>
         <stop stop-color="#FEFEFE" stop-opacity="0.88" offset="29%"></stop>
         <stop stop-color="#FCFCFC" stop-opacity="0.78" offset="37%"></stop>
         <stop stop-color="#FBFBFB" stop-opacity="0.65" offset="46%"></stop>
         <stop stop-color="#F9F9F9" stop-opacity="0.5" offset="54%"></stop>
         <stop stop-color="#F8F8F8" stop-opacity="0.4" offset="58%"></stop>
      </radialGradient>
      <radialGradient cx="50.8838381%" cy="35.4972765%" fx="50.8838381%" fy="35.4972765%" r="95.4545449%" gradientTransform="translate(0.508838,0.354973),scale(1.000000,0.626056),translate(-0.508838,-0.354973)" id="radialGradient-2">
         <stop stop-color="#FFFFFF" offset="0%"></stop>
         <stop stop-color="#FFFFFF" stop-opacity="0.99" offset="11%"></stop>
         <stop stop-color="#FEFEFE" stop-opacity="0.95" offset="20%"></stop>
         <stop stop-color="#FEFEFE" stop-opacity="0.88" offset="29%"></stop>
         <stop stop-color="#FCFCFC" stop-opacity="0.78" offset="37%"></stop>
         <stop stop-color="#FBFBFB" stop-opacity="0.65" offset="46%"></stop>
         <stop stop-color="#F9F9F9" stop-opacity="0.5" offset="54%"></stop>
         <stop stop-color="#F8F8F8" stop-opacity="0.4" offset="58%"></stop>
      </radialGradient>
      <radialGradient cx="51.1362705%" cy="35.2601135%" fx="51.1362705%" fy="35.2601135%" r="95.4543716%" gradientTransform="translate(0.511363,0.352601),scale(1.000000,0.626058),translate(-0.511363,-0.352601)" id="radialGradient-3">
         <stop stop-color="#FFFFFF" offset="0%"></stop>
         <stop stop-color="#FFFFFF" stop-opacity="0.99" offset="11%"></stop>
         <stop stop-color="#FEFEFE" stop-opacity="0.95" offset="20%"></stop>
         <stop stop-color="#FEFEFE" stop-opacity="0.88" offset="29%"></stop>
         <stop stop-color="#FCFCFC" stop-opacity="0.78" offset="37%"></stop>
         <stop stop-color="#FBFBFB" stop-opacity="0.65" offset="46%"></stop>
         <stop stop-color="#F9F9F9" stop-opacity="0.5" offset="54%"></stop>
         <stop stop-color="#F8F8F8" stop-opacity="0.4" offset="58%"></stop>
      </radialGradient>
      <radialGradient cx="50.8837457%" cy="35.5763071%" fx="50.8837457%" fy="35.5763071%" r="95.4543716%" gradientTransform="translate(0.508837,0.355763),scale(1.000000,0.626058),translate(-0.508837,-0.355763)" id="radialGradient-4">
         <stop stop-color="#FFFFFF" offset="0%"></stop>
         <stop stop-color="#FFFFFF" stop-opacity="0.99" offset="11%"></stop>
         <stop stop-color="#FEFEFE" stop-opacity="0.95" offset="20%"></stop>
         <stop stop-color="#FEFEFE" stop-opacity="0.88" offset="29%"></stop>
         <stop stop-color="#FCFCFC" stop-opacity="0.78" offset="37%"></stop>
         <stop stop-color="#FBFBFB" stop-opacity="0.65" offset="46%"></stop>
         <stop stop-color="#F9F9F9" stop-opacity="0.5" offset="54%"></stop>
         <stop stop-color="#F8F8F8" stop-opacity="0.4" offset="58%"></stop>
      </radialGradient>
      <radialGradient cx="50.5495412%" cy="57.8294865%" fx="50.5495412%" fy="57.8294865%" r="96.9245887%" gradientTransform="translate(0.505495,0.578295),scale(1.000000,0.637701),rotate(161.549989),translate(-0.505495,-0.578295)" id="radialGradient-5">
         <stop stop-color="#FFFFFF" offset="0%"></stop>
         <stop stop-color="#FFFFFF" stop-opacity="0.99" offset="11%"></stop>
         <stop stop-color="#FEFEFE" stop-opacity="0.95" offset="20%"></stop>
         <stop stop-color="#FEFEFE" stop-opacity="0.88" offset="29%"></stop>
         <stop stop-color="#FCFCFC" stop-opacity="0.78" offset="37%"></stop>
         <stop stop-color="#FBFBFB" stop-opacity="0.65" offset="46%"></stop>
         <stop stop-color="#F9F9F9" stop-opacity="0.5" offset="54%"></stop>
         <stop stop-color="#F8F8F8" stop-opacity="0.4" offset="58%"></stop>
      </radialGradient>
      <radialGradient cx="158.378771%" cy="50.9259859%" fx="158.378771%" fy="50.9259859%" r="96.6410504%" gradientTransform="translate(1.583788,0.509260),scale(1.000000,0.631005),rotate(12.652557),translate(-1.583788,-0.509260)" id="radialGradient-6">
         <stop stop-color="#FFFFFF" offset="0%"></stop>
         <stop stop-color="#FFFFFF" stop-opacity="0.99" offset="11%"></stop>
         <stop stop-color="#FEFEFE" stop-opacity="0.95" offset="20%"></stop>
         <stop stop-color="#FEFEFE" stop-opacity="0.88" offset="29%"></stop>
         <stop stop-color="#FCFCFC" stop-opacity="0.78" offset="37%"></stop>
         <stop stop-color="#FBFBFB" stop-opacity="0.65" offset="46%"></stop>
         <stop stop-color="#F9F9F9" stop-opacity="0.5" offset="54%"></stop>
         <stop stop-color="#F8F8F8" stop-opacity="0.4" offset="58%"></stop>
      </radialGradient>
      <radialGradient cx="50.2525225%" cy="35.5034311%" fx="50.2525225%" fy="35.5034311%" r="95.4545403%" gradientTransform="translate(0.502525,0.355034),scale(1.000000,0.625996),translate(-0.502525,-0.355034)" id="radialGradient-7">
         <stop stop-color="#FFFFFF" offset="0%"></stop>
         <stop stop-color="#FFFFFF" stop-opacity="0.99" offset="11%"></stop>
         <stop stop-color="#FEFEFE" stop-opacity="0.95" offset="20%"></stop>
         <stop stop-color="#FEFEFE" stop-opacity="0.88" offset="29%"></stop>
         <stop stop-color="#FCFCFC" stop-opacity="0.78" offset="37%"></stop>
         <stop stop-color="#FBFBFB" stop-opacity="0.65" offset="46%"></stop>
         <stop stop-color="#F9F9F9" stop-opacity="0.5" offset="54%"></stop>
         <stop stop-color="#F8F8F8" stop-opacity="0.4" offset="58%"></stop>
      </radialGradient>
      <radialGradient cx="-353.765322%" cy="69.7255745%" fx="-353.765322%" fy="69.7255745%" r="88.4212278%" gradientTransform="translate(-3.537653,0.697256),scale(1.000000,0.749275),rotate(148.543186),translate(3.537653,-0.697256)" id="radialGradient-8">
         <stop stop-color="#FFFFFF" offset="0%"></stop>
         <stop stop-color="#FFFFFF" stop-opacity="0.99" offset="11%"></stop>
         <stop stop-color="#FEFEFE" stop-opacity="0.95" offset="20%"></stop>
         <stop stop-color="#FEFEFE" stop-opacity="0.88" offset="29%"></stop>
         <stop stop-color="#FCFCFC" stop-opacity="0.78" offset="37%"></stop>
         <stop stop-color="#FBFBFB" stop-opacity="0.65" offset="46%"></stop>
         <stop stop-color="#F9F9F9" stop-opacity="0.5" offset="54%"></stop>
         <stop stop-color="#F8F8F8" stop-opacity="0.4" offset="58%"></stop>
      </radialGradient>
      <radialGradient cx="49.1162382%" cy="64.424474%" fx="49.1162382%" fy="64.424474%" r="95.4545451%" gradientTransform="translate(0.491162,0.644245),scale(1.000000,0.626064),rotate(180.000000),translate(-0.491162,-0.644245)" id="radialGradient-9">
         <stop stop-color="#FFFFFF" offset="0%"></stop>
         <stop stop-color="#FFFFFF" stop-opacity="0.99" offset="11%"></stop>
         <stop stop-color="#FEFEFE" stop-opacity="0.95" offset="20%"></stop>
         <stop stop-color="#FEFEFE" stop-opacity="0.88" offset="29%"></stop>
         <stop stop-color="#FCFCFC" stop-opacity="0.78" offset="37%"></stop>
         <stop stop-color="#FBFBFB" stop-opacity="0.65" offset="46%"></stop>
         <stop stop-color="#F9F9F9" stop-opacity="0.5" offset="54%"></stop>
         <stop stop-color="#F8F8F8" stop-opacity="0.4" offset="58%"></stop>
      </radialGradient>
      <linearGradient x1="108.961191%" y1="42.5483118%" x2="0%" y2="57.5735387%" id="linearGradient-10">
         <stop stop-color="#063477" offset="0%"></stop>
         <stop stop-color="#000000" stop-opacity="0.5" offset="100%"></stop>
      </linearGradient>
      <linearGradient x1="110.632908%" y1="43.1082672%" x2="0%" y2="57.8629917%" id="linearGradient-11">
         <stop stop-color="#063477" offset="0%"></stop>
         <stop stop-color="#000000" stop-opacity="0.5" offset="100%"></stop>
      </linearGradient>
      <linearGradient x1="-5.7372377%" y1="24.3977541%" x2="100%" y2="77.6356052%" id="linearGradient-12">
         <stop stop-color="#063477" offset="0%"></stop>
         <stop stop-color="#000000" stop-opacity="0.5" offset="100%"></stop>
      </linearGradient>
      <linearGradient x1="61.4537059%" y1="-10.7530634%" x2="39.0780961%" y2="100%" id="linearGradient-13">
         <stop stop-color="#063477" offset="0%"></stop>
         <stop stop-color="#000000" stop-opacity="0.5" offset="100%"></stop>
      </linearGradient>
      <linearGradient x1="105.780048%" y1="24.3138818%" x2="3.11023946%" y2="75.6861182%" id="linearGradient-14">
         <stop stop-color="#063477" offset="0%"></stop>
         <stop stop-color="#000000" stop-opacity="0.5" offset="100%"></stop>
      </linearGradient>
      <linearGradient x1="100%" y1="16.6273268%" x2="1.88784789%" y2="82.0907094%" id="linearGradient-15">
         <stop stop-color="#063477" offset="0%"></stop>
         <stop stop-color="#000000" stop-opacity="0.5" offset="100%"></stop>
      </linearGradient>
      <linearGradient x1="114.499142%" y1="39.1523753%" x2="0%" y2="61.2145663%" id="linearGradient-16">
         <stop stop-color="#063477" stop-opacity="0.5" offset="0%"></stop>
         <stop stop-color="#000000" stop-opacity="0.5" offset="100%"></stop>
      </linearGradient>
      <linearGradient x1="118.613856%" y1="41.1977833%" x2="0%" y2="57.5889506%" id="linearGradient-17">
         <stop stop-color="#063477" offset="0%"></stop>
         <stop stop-color="#000000" stop-opacity="0.5" offset="100%"></stop>
      </linearGradient>
   </defs>
   <g id="animation_fish_drip" stroke="none" stroke-width="1" fill="none" fill-rule="evenodd">
      <path d="M181.37,416.72 C180.328616,416.719997 179.330031,417.134368 178.5946,417.871675 C177.859169,418.608982 177.447343,419.60862 177.449974,420.65 C177.449974,422.5 179.58,423.43 180.45,425 C180.97,426 181.09,429.37 181.45,429.37 C181.81,429.37 182.27,425.69 182.69,424.93 C183.56,423.39 185.38,422.5 185.38,420.65 C185.380219,419.593689 184.955203,418.581761 184.200791,417.842399 C183.446379,417.103038 182.426092,416.698497 181.37,416.72 Z" class="drip3-1" id="drip3-1" fill="url(#radialGradient-1)" fill-rule="nonzero"></path>
      <path d="M203.88,490.6 C201.71342,490.599993 199.955513,492.353427 199.95,494.52 C199.95,496.37 202.09,497.31 202.95,498.88 C203.48,499.88 203.6,503.25 203.95,503.25 C204.3,503.25 204.76,499.56 205.19,498.81 C206.06,497.26 207.87,496.37 207.87,494.52 C207.870168,493.468109 207.447574,492.460284 206.697221,491.723096 C205.946869,490.985908 204.931724,490.581216 203.88,490.6 Z" class="drip4-1" id="drip4-1" fill="url(#radialGradient-2)" fill-rule="nonzero"></path>
      <path d="M243,378 C240.829521,378 239.07,379.759521 239.07,381.93 C239.07,383.78 241.21,384.71 242.07,386.28 C242.6,387.28 242.72,390.65 243.07,390.65 C243.42,390.65 243.88,386.97 244.31,386.21 C245.18,384.67 246.990028,383.78 246.990028,381.93 C246.992856,380.876376 246.571445,379.86596 245.820795,379.126597 C245.070145,378.387235 244.05346,377.981181 243,378 Z" class="drip7-1" id="drip7-1" fill="url(#radialGradient-3)" fill-rule="nonzero"></path>
      <path d="M142.17,356.12 C139.999521,356.12 138.24,357.879521 138.24,360.05 C138.24,361.9 140.38,362.83 141.24,364.4 C141.77,365.4 141.89,368.77 142.24,368.77 C142.59,368.77 143.05,365.08 143.48,364.33 C144.35,362.79 146.160028,361.9 146.160028,360.05 C146.162856,358.996376 145.741445,357.98596 144.990795,357.246597 C144.240145,356.507235 143.22346,356.101181 142.17,356.12 Z" class="drip1-1" id="drip1-1" fill="url(#radialGradient-4)" fill-rule="nonzero"></path>
      <path d="M457.88,181.35 C458.87624,181.021888 459.699433,180.308213 460.165498,179.368567 C460.631562,178.428921 460.701618,177.341689 460.36,176.35 C459.78,174.6 457.45,174.35 456.18,173.16 C455.36,172.38 454.18,169.22 453.88,169.32 C453.58,169.42 454.27,173.07 454.11,173.92 C453.77,175.66 452.33,177.08 452.91,178.84 C453.23461,179.833044 453.941267,180.655965 454.873838,181.126942 C455.806409,181.597918 456.888131,181.678182 457.88,181.35 L457.88,181.35 Z" class="drip5-3" id="drip5-3" fill="url(#radialGradient-5)" fill-rule="nonzero"></path>
      <path d="M185.58,171.91 C184.56155,171.686996 183.496226,171.877816 182.6185,172.440461 C181.740775,173.003105 181.122588,173.89146 180.9,174.91 C180.5,176.72 182.38,178.09 182.9,179.8 C183.19,180.89 182.59,184.21 182.9,184.27 C183.21,184.33 184.49,180.85 185.07,180.21 C186.25,178.89 188.21,178.41 188.61,176.6 C188.835208,175.575836 188.641771,174.504141 188.072723,173.623337 C187.503675,172.742533 186.606214,172.125676 185.58,171.91 L185.58,171.91 Z" class="drip3-2" id="drip3-2" fill="url(#radialGradient-6)" fill-rule="nonzero"></path>
      <path d="M203.88,229.36 C201.732961,229.387312 200.00529,231.132794 200,233.28 C200,235.14 202.14,236.07 203,237.64 C203.53,238.64 203.65,242.01 204,242.01 C204.35,242.01 204.81,238.32 205.24,237.57 C206.11,236.02 207.92,235.14 207.92,233.28 C207.920497,232.219222 207.491067,231.203529 206.729762,230.464837 C205.968457,229.726145 204.940281,229.327527 203.88,229.36 Z" class="drip4-2" id="drip4-2" fill="url(#radialGradient-7)" fill-rule="nonzero"></path>
      <path d="M163.35,313.6 C162.308616,313.599997 161.310031,314.014368 160.5746,314.751675 C159.839169,315.488982 159.427343,316.48862 159.429974,317.53 C159.429974,319.38 161.56,320.31 162.43,321.88 C162.95,322.88 163.08,326.25 163.43,326.25 C163.78,326.25 164.25,322.56 164.67,321.81 C165.54,320.27 167.36,319.38 167.36,317.53 C167.360219,316.473689 166.935203,315.461761 166.180791,314.722399 C165.426379,313.983038 164.406092,313.578497 163.35,313.6 L163.35,313.6 Z" class="drip2-1" id="drip2-1" fill="url(#radialGradient-1)" fill-rule="nonzero"></path>
      <path d="M224.45,288.29 C222.279521,288.29 220.52,290.049521 220.52,292.22 C220.52,294.07 222.66,295 223.52,296.57 C224.05,297.57 224.17,300.94 224.52,300.94 C224.87,300.94 225.33,297.26 225.76,296.5 C226.63,294.96 228.440028,294.07 228.440028,292.22 C228.442856,291.166376 228.021445,290.15596 227.270795,289.416597 C226.520145,288.677235 225.50346,288.271181 224.45,288.29 Z" class="drip5-2" id="drip5-2" fill="url(#radialGradient-4)" fill-rule="nonzero"></path>
      <path d="M405.3,169.88 C404.3,168.3 402.02,168.63 400.5,167.72 C399.5,167.14 397.66,164.33 397.39,164.5 C397.12,164.67 398.62,168.06 398.66,168.93 C398.72,170.7 397.66,172.41 398.6,173.99 C399.143949,174.878363 400.019113,175.513694 401.032271,175.755727 C402.045429,175.997759 403.113257,175.826586 404,175.28 C405.848931,174.146927 406.43069,171.730389 405.3,169.88 Z" class="drip2-2" id="drip2-2" fill="url(#radialGradient-8)" fill-rule="nonzero"></path>
      <path d="M427.45,242.42 C429.620479,242.42 431.38,240.660479 431.38,238.49 C431.38,236.64 429.24,235.71 428.38,234.14 C427.86,233.14 427.73,229.77 427.38,229.77 C427.03,229.77 426.57,233.45 426.14,234.21 C425.27,235.75 423.46,236.64 423.46,238.49 C423.459877,239.54278 423.882156,240.551593 424.632202,241.29036 C425.382248,242.029127 426.397342,242.436073 427.45,242.42 L427.45,242.42 Z" class="drip3-3" id="drip3-3" fill="url(#radialGradient-9)" fill-rule="nonzero"></path>
      <path d="M224.45,526.73 C222.279521,526.73 220.52,528.489521 220.52,530.66 C220.52,532.51 222.66,533.44 223.52,535.01 C224.05,536.01 224.17,539.38 224.52,539.38 C224.87,539.38 225.33,535.69 225.76,534.94 C226.63,533.4 228.440028,532.51 228.440028,530.66 C228.442856,529.606376 228.021445,528.59596 227.270795,527.856597 C226.520145,527.117235 225.50346,526.711181 224.45,526.73 L224.45,526.73 Z" class="drip5-1" id="drip5-1" fill="url(#radialGradient-4)" fill-rule="nonzero"></path>
      <path d="M372.16,558.51 C371.573449,557.359995 370.583748,556.466416 369.38,556 C367.044912,556.634429 364.821977,557.626147 362.79,558.94 C359.34,561.19 359.46,562.46 357.22,563.5 C354.22,564.88 352.03,563.58 349.22,562.99 C349.004512,562.785746 348.89093,562.496296 348.91,562.2 C348.91,561.91 350.01,561.27 350.5,560.99 C349.5,561.48 344.75,561.7 343.33,563.44 C339.42,564.93 336.41,568.44 336.98,570.08 C337.7,572.17 344.09,571.68 345.14,571.6 L345.89,571.53 C347.89,572.58 352.03,571.77 353.1,571.98 C352.55,571.83 351.36,571.46 351.26,571.2 C351.14288,570.752518 351.272355,570.276506 351.6,569.95 C352.121847,569.705792 352.629338,569.432014 353.12,569.13 C355.65,567.58 357.02,566.13 358.35,565.51 C359.35,565.05 360.82,565.87 362.63,565.18 C363.993216,564.595144 365.401041,564.120296 366.84,563.76 C367.95,563.49 369.67,563.49 372.13,564.97 C372.29,564.7 373.24,560.69 372.16,558.51 Z" class="fish8" id="fish8" fill="url(#linearGradient-10)" fill-rule="nonzero"></path>
      <path d="M393.54,498.88 C392.956508,497.727654 391.965766,496.833135 390.76,496.37 C388.424911,497.004429 386.201977,497.996147 384.17,499.31 C380.72,501.56 380.84,502.83 378.6,503.87 C375.6,505.25 373.41,503.95 370.6,503.36 C370.384875,503.150669 370.268586,502.859946 370.28,502.56 C370.28,502.28 371.39,501.63 371.88,501.36 C370.88,501.85 366.12,502.07 364.71,503.81 C360.8,505.3 357.78,508.81 358.36,510.45 C359.08,512.54 365.46,512.05 366.52,511.97 L367.26,511.9 C369.26,512.95 373.41,512.14 374.47,512.34 C373.93,512.2 372.74,511.83 372.63,511.57 C372.515409,511.120732 372.648772,510.644439 372.98,510.32 C373.500784,510.073686 374.008161,509.79997 374.5,509.5 C377.02,507.95 378.4,506.5 379.72,505.88 C380.72,505.42 382.2,506.24 384.01,505.55 C385.373216,504.965144 386.781041,504.490296 388.22,504.13 C389.33,503.86 391.04,503.86 393.51,505.34 C393.66,505.07 394.61,501.06 393.54,498.88 Z" class="fish7" id="fish7" fill="url(#linearGradient-11)" fill-rule="nonzero"></path>
      <path d="M513.7,504.63 C516.07,505.28 521.35,507.07 523.7,507.29 C525.65,509.72 527.49,510.89 530.7,514.87 C531.18,515.47 529.7,515.42 530.13,515.93 C529.27,515.93 528.75,516.18 528.84,516.88 C529.28,520.16 524.95,519.05 527.36,519.94 C529.44,520.7 535.65,522.94 539.08,521.79 C541.08,522.33 546.26,525.54 548.02,525.55 C553.69,525.55 551.4,521.36 544.39,514.13 C544.21,513.94 544.02,513.76 543.83,513.59 C541.5,510.71 535.31,506.01 534.48,504.24 C533.48,502.24 534.25,504.32 533.65,505.89 C533.323217,506.677444 532.486412,507.125135 531.65,506.96 C528.18,505.76 525.03,505.02 523.29,504.6 C521.81,503.24 519.48,501.36 518.18,499.89 C516.18,497.65 512.01,496.12 512.73,497.27 C513.45,498.42 516.22,499.5 516.21,502.34 C516.2,505.18 510.65,503.78 513.7,504.63 Z" class="fish6" id="fish6" fill="url(#linearGradient-12)" fill-rule="nonzero"></path>
      <path d="M610,556 C608.728529,555.784316 607.422151,556.044168 606.33,556.73 C605.436905,558.965736 604.900372,561.327831 604.74,563.73 C604.47,567.85 605.57,568.51 605.05,570.93 C604.38,574.14 602.05,575.13 599.88,577 C599.584327,577.055225 599.2795,576.974428 599.05,576.78 C598.85,576.59 598.96,575.34 599.05,574.78 C598.82,575.9 596.17,579.78 596.72,581.98 C595.57,585.98 596.54,590.5 598.23,591.04 C600.34,591.72 603.77,586.31 604.34,585.42 C604.45,585.24 604.59,585.02 604.73,584.78 C606.73,583.83 608.6,580 609.4,579.27 C608.96,579.62 607.95,580.36 607.68,580.27 C607.261349,580.095851 606.962523,579.717591 606.89,579.27 C606.99,578.72 607.09,578.16 607.14,577.56 C607.41,574.61 607.05,572.63 607.37,571.21 C607.61,570.11 609.13,569.44 609.67,567.58 C610.017064,566.135626 610.478521,564.721161 611.05,563.35 C611.5,562.35 612.53,560.93 615.18,559.84 C615,559.6 612.37,556.44 610,556 Z" class="fish5" id="fish5" fill="url(#linearGradient-13)" fill-rule="nonzero"></path>
      <path d="M567.43,629 C566.959971,628.496529 566.317005,628.189334 565.63,628.14 C564.530945,628.814177 563.542626,629.65408 562.7,630.63 C561.27,632.3 561.53,632.94 560.54,633.8 C559.22,634.96 557.9,634.62 556.38,634.74 C556.240634,634.664195 556.139167,634.533737 556.1,634.38 C556.1,634.23 556.53,633.74 556.74,633.52 C556.28,633.93 553.9,634.75 553.44,635.85 C551.66,637.21 550.64,639.43 551.18,640.21 C551.86,641.21 555.06,639.96 555.59,639.76 L555.96,639.61 C557.12,639.85 559.14,638.81 559.72,638.76 C559.41,638.76 558.72,638.76 558.66,638.64 C558.534957,638.423419 558.534957,638.156581 558.66,637.94 C558.891365,637.742128 559.108565,637.528269 559.31,637.3 C560.37,636.13 560.85,635.16 561.44,634.66 C562.03,634.16 562.76,634.47 563.59,633.85 C564.196548,633.343605 564.841858,632.885536 565.52,632.48 C566.420262,632.033172 567.46356,631.971802 568.410092,632.31 C568.414634,631.134488 568.073861,629.98351 567.43,629 Z" class="fish4" id="fish4" fill="url(#linearGradient-14)" fill-rule="nonzero"></path>
      <path d="M535.32,618.53 C534.56,617.53 534.9,617.01 534.9,617.01 C534.04,618.6 530.9,620.78 529.75,623.24 C529.320497,623.918781 528.798853,624.534657 528.2,625.07 C525.138557,625.915505 522.13274,626.950842 519.2,628.17 C518.959418,627.354031 518.959418,626.485969 519.2,625.67 C518.565882,626.03561 518.00068,626.509432 517.53,627.07 C516.38,628.26 513.07,631.7 512.85,632.48 C512.78226,632.717954 512.741997,632.962883 512.73,633.21 C510.29,635.88 508.49,638.93 509.48,640.75 C510.47,642.57 514.79,640.27 517.48,638.67 C517.973165,638.652045 518.461321,638.564513 518.93,638.41 C520.88,637.78 522.7,637.48 524.52,634.78 C526.34,632.08 524.67,633.97 524.3,633.72 C524.11628,633.548125 523.996397,633.318937 523.96,633.07 C526.09,630.58 527.9,627.93 529.08,626.36 C530.66,625.77 532.79,624.74 533.72,624.28 C535.766784,623.526706 537.604318,622.29597 539.08,620.69 C539.08,620.69 536.08,619.55 535.32,618.53 Z" class="fish3" id="fish3" fill="url(#linearGradient-15)" fill-rule="nonzero" opacity="0.99"></path>
      <path d="M510.7,661.08 C510.017409,659.970008 508.949147,659.151006 507.7,658.78 C505.422687,659.594588 503.28432,660.754838 501.36,662.22 C498.09,664.73 498.31,665.98 496.15,667.22 C493.29,668.82 490.99,667.7 488.15,667.32 C487.913977,667.133545 487.774418,666.850754 487.77,666.55 C487.77,666.27 488.77,665.55 489.27,665.23 C488.27,665.79 483.58,666.38 482.27,668.23 C478.48,670.02 475.74,673.71 476.44,675.34 C477.32,677.34 483.65,676.4 484.69,676.23 L485.43,676.11 C487.43,677 491.58,675.88 492.65,676 C492.1,675.9 490.88,675.62 490.76,675.37 C490.609551,674.932466 490.704944,674.447868 491.01,674.1 C491.49,673.82 492.01,673.52 492.46,673.17 C494.86,671.43 496.12,669.85 497.39,669.17 C498.39,668.63 499.89,669.33 501.65,668.51 C502.962698,667.824816 504.326834,667.243052 505.73,666.77 C506.82,666.42 508.53,666.29 511.1,667.57 C511.29,667.24 511.93,663.16 510.7,661.08 Z" class="fish2" id="fish2" fill="url(#linearGradient-16)" fill-rule="nonzero"></path>
      <path d="M393.12,723.92 C392.529703,722.772872 391.541268,721.880435 390.34,721.41 C388.00426,722.0426 385.781052,723.034442 383.75,724.35 C380.3,726.61 380.42,727.88 378.17,728.92 C375.17,730.29 372.99,729 370.17,728.4 C369.950829,728.197586 369.833481,727.907884 369.85,727.61 C369.85,727.33 370.95,726.68 371.45,726.41 C370.45,726.89 365.69,727.12 364.28,728.85 C360.37,730.35 357.35,733.85 357.93,735.49 C358.64,737.59 365.03,737.1 366.09,737.02 L366.83,736.95 C368.83,737.95 372.98,737.18 374.04,737.39 C373.5,737.24 372.31,736.88 372.2,736.61 C372.087516,736.160759 372.220586,735.68551 372.55,735.36 C373.070705,735.117212 373.578092,734.846828 374.07,734.55 C376.59,733 377.97,731.55 379.29,730.93 C380.29,730.47 381.77,731.28 383.58,730.6 C384.944867,730.016811 386.352296,729.538753 387.79,729.17 C388.89,728.91 390.61,728.91 393.08,730.38 C393.24,730.12 394.19,726.1 393.12,723.92 Z" class="fish1" id="fish1" fill="url(#linearGradient-17)" fill-rule="nonzero"></path>
   </g>
</svg>