<svg width="1920" height="1080" viewBox="0 0 1920 1080" fill="none" xmlns="http://www.w3.org/2000/svg">
<path fill-rule="evenodd" clip-rule="evenodd" d="M801 381L801 63L165 63L165 381L165 699L483 699L483 381L801 381Z" fill="#FFDF3A"/>
<path d="M801 63L808.5 63L808.5 55.5L801 55.5L801 63ZM801 381L801 388.5L808.5 388.5L808.5 381L801 381ZM165 63L165 55.5L157.5 55.5L157.5 63L165 63ZM165 699L157.5 699L157.5 706.5L165 706.5L165 699ZM483 699L483 706.5L490.5 706.5L490.5 699L483 699ZM483 381L483 373.5L475.5 373.5L475.5 381L483 381ZM793.5 63L793.5 381L808.5 381L808.5 63L793.5 63ZM165 70.5L801 70.5L801 55.5L165 55.5L165 70.5ZM172.5 381L172.5 63L157.5 63L157.5 381L172.5 381ZM172.5 699L172.5 381L157.5 381L157.5 699L172.5 699ZM483 691.5L165 691.5L165 706.5L483 706.5L483 691.5ZM475.5 381L475.5 699L490.5 699L490.5 381L475.5 381ZM801 373.5L483 373.5L483 388.5L801 388.5L801 373.5Z" fill="#2B2B2B"/>
<mask id="path-3-outside-1_488_8761" maskUnits="userSpaceOnUse" x="660.889" y="433.223" width="212" height="212" fill="black">
<rect fill="white" x="660.889" y="433.223" width="212" height="212"/>
<path fill-rule="evenodd" clip-rule="evenodd" d="M714 556.556V451.223H678.889V556.556H714ZM749.112 556.556V591.667H784.222V556.556H819.333V591.667H784.223V626.778H749.112V591.667H714.001V556.556H749.112ZM854.444 451.223V556.556H819.333V451.223H854.444Z"/>
</mask>
<path fill-rule="evenodd" clip-rule="evenodd" d="M714 556.556V451.223H678.889V556.556H714ZM749.112 556.556V591.667H784.222V556.556H819.333V591.667H784.223V626.778H749.112V591.667H714.001V556.556H749.112ZM854.444 451.223V556.556H819.333V451.223H854.444Z" fill="#F7F7F7"/>
<path d="M714 451.223H731.555V433.667H714V451.223ZM714 556.556V574.112H731.555V556.556H714ZM678.889 451.223V433.667H661.333V451.223H678.889ZM678.889 556.556H661.333V574.112H678.889V556.556ZM749.112 591.667H731.556V609.222H749.112V591.667ZM749.112 556.556H766.667V539.001H749.112V556.556ZM784.222 591.667V609.222H801.778V591.667H784.222ZM784.222 556.556V539.001H766.667V556.556H784.222ZM819.333 556.556H836.889V539.001H819.333V556.556ZM819.333 591.667V609.223H836.889V591.667H819.333ZM784.223 591.667V574.112H766.667V591.667H784.223ZM784.223 626.778V644.333H801.778V626.778H784.223ZM749.112 626.778H731.556V644.333H749.112V626.778ZM749.112 591.667H766.667V574.112H749.112V591.667ZM714.001 591.667H696.445V609.223H714.001V591.667ZM714.001 556.556V539.001H696.445V556.556H714.001ZM854.444 556.556V574.112H872V556.556H854.444ZM854.444 451.223H872V433.667H854.444V451.223ZM819.333 556.556H801.778V574.112H819.333V556.556ZM819.333 451.223V433.667H801.778V451.223H819.333ZM696.444 451.223V556.556H731.555V451.223H696.444ZM678.889 468.778H714V433.667H678.889V468.778ZM696.444 556.556V451.223H661.333V556.556H696.444ZM714 539H678.889V574.112H714V539ZM766.667 591.667V556.556H731.556V591.667H766.667ZM784.222 574.111H749.112V609.222H784.222V574.111ZM766.667 556.556V591.667H801.778V556.556H766.667ZM819.333 539.001H784.222V574.112H819.333V539.001ZM836.889 591.667V556.556H801.778V591.667H836.889ZM784.223 609.223H819.333V574.112H784.223V609.223ZM801.778 626.778V591.667H766.667V626.778H801.778ZM749.112 644.333H784.223V609.222H749.112V644.333ZM731.556 591.667V626.778H766.667V591.667H731.556ZM714.001 609.223H749.112V574.112H714.001V609.223ZM696.445 556.556V591.667H731.556V556.556H696.445ZM749.112 539.001H714.001V574.112H749.112V539.001ZM872 556.556V451.223H836.889V556.556H872ZM819.333 574.112H854.444V539H819.333V574.112ZM801.778 451.223V556.556H836.889V451.223H801.778ZM854.444 433.667H819.333V468.778H854.444V433.667Z" fill="#2B2B2B" mask="url(#path-3-outside-1_488_8761)"/>
<mask id="path-5-outside-2_488_8761" maskUnits="userSpaceOnUse" x="854.002" y="433.223" width="212" height="212" fill="black">
<rect fill="white" x="854.002" y="433.223" width="212" height="212"/>
<path fill-rule="evenodd" clip-rule="evenodd" d="M907.113 451.223V626.778H872.002V451.223H907.113ZM1012.45 486.334V451.223H907.113V486.334H1012.45V591.667H1047.56V486.334H1012.45ZM1012.45 626.778V591.667H907.113V626.778H1012.45Z"/>
</mask>
<path fill-rule="evenodd" clip-rule="evenodd" d="M907.113 451.223V626.778H872.002V451.223H907.113ZM1012.45 486.334V451.223H907.113V486.334H1012.45V591.667H1047.56V486.334H1012.45ZM1012.45 626.778V591.667H907.113V626.778H1012.45Z" fill="#F7F7F7"/>
<path d="M907.113 626.778V644.334H924.669V626.778H907.113ZM907.113 451.223H924.669V433.667H907.113V451.223ZM872.002 626.778H854.446V644.334H872.002V626.778ZM872.002 451.223V433.667H854.446V451.223H872.002ZM1012.45 451.223H1030V433.667H1012.45V451.223ZM1012.45 486.334H994.891V503.889H1012.45V486.334ZM907.113 451.223V433.667H889.558V451.223H907.113ZM907.113 486.334H889.558V503.889H907.113V486.334ZM1012.45 486.334H1030V468.778H1012.45V486.334ZM1012.45 591.667H994.891V609.222H1012.45V591.667ZM1047.56 591.667V609.222H1065.11V591.667H1047.56ZM1047.56 486.334H1065.11V468.778H1047.56V486.334ZM1012.45 591.667H1030V574.112H1012.45V591.667ZM1012.45 626.778V644.334H1030V626.778H1012.45ZM907.113 591.667V574.112H889.558V591.667H907.113ZM907.113 626.778H889.558V644.334H907.113V626.778ZM924.669 626.778V451.223H889.558V626.778H924.669ZM872.002 644.334H907.113V609.223H872.002V644.334ZM854.446 451.223V626.778H889.558V451.223H854.446ZM907.113 433.667H872.002V468.778H907.113V433.667ZM994.891 451.223V486.334H1030V451.223H994.891ZM907.113 468.778H1012.45V433.667H907.113V468.778ZM924.669 486.334V451.223H889.558V486.334H924.669ZM1012.45 468.778H907.113V503.889H1012.45V468.778ZM1030 591.667V486.334H994.891V591.667H1030ZM1047.56 574.111H1012.45V609.222H1047.56V574.111ZM1030 486.334V591.667H1065.11V486.334H1030ZM1012.45 503.889H1047.56V468.778H1012.45V503.889ZM994.891 591.667V626.778H1030V591.667H994.891ZM907.113 609.223H1012.45V574.112H907.113V609.223ZM924.669 626.778V591.667H889.558V626.778H924.669ZM1012.45 609.223H907.113V644.334H1012.45V609.223Z" fill="#2B2B2B" mask="url(#path-5-outside-2_488_8761)"/>
<mask id="path-7-outside-3_488_8761" maskUnits="userSpaceOnUse" x="1047.11" y="433.223" width="212" height="212" fill="black">
<rect fill="white" x="1047.11" y="433.223" width="212" height="212"/>
<path fill-rule="evenodd" clip-rule="evenodd" d="M1100.22 451.223V626.778H1065.11V451.223H1100.22ZM1205.55 486.334V451.223H1100.22V486.334H1205.55V556.556H1240.67V486.334H1205.55ZM1205.55 591.667V556.556H1100.22V591.667H1205.55Z"/>
</mask>
<path fill-rule="evenodd" clip-rule="evenodd" d="M1100.22 451.223V626.778H1065.11V451.223H1100.22ZM1205.55 486.334V451.223H1100.22V486.334H1205.55V556.556H1240.67V486.334H1205.55ZM1205.55 591.667V556.556H1100.22V591.667H1205.55Z" fill="#F7F7F7"/>
<path d="M1100.22 626.778V644.334H1117.78V626.778H1100.22ZM1100.22 451.223H1117.78V433.667H1100.22V451.223ZM1065.11 626.778H1047.55V644.334H1065.11V626.778ZM1065.11 451.223V433.667H1047.55V451.223H1065.11ZM1205.55 486.334H1188V503.889H1205.55V486.334ZM1205.55 451.223H1223.11V433.667H1205.55V451.223ZM1100.22 451.223V433.667H1082.67V451.223H1100.22ZM1100.22 486.334H1082.67V503.889H1100.22V486.334ZM1205.55 486.334H1223.11V468.778H1205.55V486.334ZM1205.55 556.556H1188V574.111H1205.55V556.556ZM1240.67 556.556V574.111H1258.22V556.556H1240.67ZM1240.67 486.334H1258.22V468.778H1240.67V486.334ZM1205.55 556.556H1223.11V539.001H1205.55V556.556ZM1205.55 591.667V609.223H1223.11V591.667H1205.55ZM1100.22 556.556V539.001H1082.67V556.556H1100.22ZM1100.22 591.667H1082.67V609.223H1100.22V591.667ZM1117.78 626.778V451.223H1082.66V626.778H1117.78ZM1065.11 644.334H1100.22V609.223H1065.11V644.334ZM1047.55 451.223V626.778H1082.66V451.223H1047.55ZM1100.22 433.667H1065.11V468.778H1100.22V433.667ZM1223.11 486.334V451.223H1188V486.334H1223.11ZM1205.55 433.667H1100.22V468.778H1205.55V433.667ZM1082.67 451.223V486.334H1117.78V451.223H1082.67ZM1100.22 503.889H1205.55V468.778H1100.22V503.889ZM1188 486.334V556.556H1223.11V486.334H1188ZM1205.55 574.111H1240.67V539H1205.55V574.111ZM1258.22 556.556V486.334H1223.11V556.556H1258.22ZM1240.67 468.778H1205.55V503.889H1240.67V468.778ZM1188 556.556V591.667H1223.11V556.556H1188ZM1100.22 574.112H1205.55V539.001H1100.22V574.112ZM1117.78 591.667V556.556H1082.67V591.667H1117.78ZM1205.55 574.112H1100.22V609.223H1205.55V574.112Z" fill="#2B2B2B" mask="url(#path-7-outside-3_488_8761)"/>
<path d="M714 495.112H722.778V486.334V451.223V442.445H714H678.889H670.111V451.223V486.334V495.112H678.889H714Z" fill="#28F77E" stroke="#2B2B2B" stroke-width="17.5556"/>
<mask id="path-10-outside-4_488_8761" maskUnits="userSpaceOnUse" x="854.002" y="538.555" width="106" height="106" fill="black">
<rect fill="white" x="854.002" y="538.555" width="106" height="106"/>
<path fill-rule="evenodd" clip-rule="evenodd" d="M907.113 556.555V591.666H942.224V626.777H907.113H907.113H872.002V556.555H907.113Z"/>
</mask>
<path fill-rule="evenodd" clip-rule="evenodd" d="M907.113 556.555V591.666H942.224V626.777H907.113H907.113H872.002V556.555H907.113Z" fill="#FFDF3A"/>
<path d="M907.113 591.666H889.558V609.221H907.113V591.666ZM907.113 556.555H924.669V538.999H907.113V556.555ZM942.224 591.666H959.779V574.11H942.224V591.666ZM942.224 626.777V644.332H959.779V626.777H942.224ZM872.002 626.777H854.446V644.332H872.002V626.777ZM872.002 556.555V538.999H854.446V556.555H872.002ZM924.669 591.666V556.555H889.558V591.666H924.669ZM942.224 574.11H907.113V609.221H942.224V574.11ZM959.779 626.777V591.666H924.668V626.777H959.779ZM907.113 644.332H942.224V609.221H907.113V644.332ZM907.113 644.332H907.113V609.221H907.113V644.332ZM872.002 644.332H907.113V609.221H872.002V644.332ZM854.446 556.555V626.777H889.558V556.555H854.446ZM907.113 538.999H872.002V574.11H907.113V538.999Z" fill="#2B2B2B" mask="url(#path-10-outside-4_488_8761)"/>
<path d="M1100.22 635.556H1109V626.779V521.445V512.668H1100.22H1065.11H1056.33V521.445V626.779V635.556H1065.11H1100.22Z" fill="#40A8F5" stroke="#2B2B2B" stroke-width="17.5556"/>
<path fill-rule="evenodd" clip-rule="evenodd" d="M889.707 214.877L936.573 168.012L951.115 182.555L920.037 213.633H999.968L968.89 182.555L983.433 168.012L1030.3 214.877V229.42L983.433 276.286L968.89 261.743L999.958 230.675H920.048L951.115 261.743L936.573 276.286L889.707 229.42V214.877Z" fill="#2B2B2B"/>
<rect x="801" y="63" width="318" height="318" stroke="#2B2B2B" stroke-width="15"/>
<path fill-rule="evenodd" clip-rule="evenodd" d="M1283.85 162.383H1300.84L1262.61 281.319H1245.62L1283.85 162.383ZM1237.14 187.877H1220.15V204.868H1237.14V187.877ZM1237.14 238.845H1220.15V255.836H1237.14V238.845ZM1334.82 162.383H1317.83L1279.6 281.319H1296.59L1334.82 162.383Z" fill="#2B2B2B"/>
<rect x="1119" y="63" width="318" height="318" stroke="#2B2B2B" stroke-width="15"/>
<path fill-rule="evenodd" clip-rule="evenodd" d="M299.712 804.228C314.866 787.161 339.961 782.154 360.592 792.006C388.003 805.096 398.003 838.443 383.079 864.166L349.507 921.967C347.631 925.197 344.543 927.554 340.923 928.52C337.303 929.486 333.445 928.982 330.198 927.119L370.843 857.127C381.671 838.458 374.429 814.259 354.556 804.731C339.644 797.582 321.416 801.153 310.4 813.447C304.324 820.196 300.913 828.91 300.799 837.972C300.685 847.034 303.877 855.83 309.782 862.728C310.843 863.966 311.985 865.133 313.2 866.221L289.472 907.156C288.544 908.756 287.308 910.159 285.836 911.283C284.363 912.408 282.683 913.234 280.89 913.712C279.097 914.19 277.227 914.312 275.387 914.071C273.546 913.83 271.772 913.231 270.164 912.307L295.924 867.867C292.224 862.557 289.567 856.597 288.093 850.304L272.307 877.59C270.431 880.82 267.344 883.177 263.723 884.143C260.103 885.109 256.246 884.605 252.998 882.742L293.819 812.356C295.518 809.466 297.492 806.744 299.712 804.228ZM346.828 826.632C356.659 832.284 360.054 844.854 354.365 854.636L315.221 921.959C313.344 925.189 310.257 927.546 306.637 928.512C303.017 929.478 299.159 928.974 295.911 927.111L332.258 864.433C329.342 863.822 326.594 862.588 324.203 860.816C321.812 859.045 319.836 856.778 318.412 854.173C316.987 851.567 316.147 848.684 315.95 845.724C315.753 842.764 316.204 839.796 317.272 837.027C318.34 834.257 319.998 831.75 322.134 829.681C324.269 827.611 326.83 826.028 329.64 825.04C332.45 824.051 335.442 823.682 338.41 823.957C341.377 824.232 344.249 825.145 346.828 826.632ZM332.589 839.285C331.916 839.799 331.352 840.44 330.928 841.171H330.926C330.287 842.272 329.992 843.538 330.075 844.807C330.159 846.075 330.618 847.291 331.396 848.3C332.174 849.308 333.235 850.065 334.444 850.474C335.654 850.883 336.958 850.925 338.192 850.596C339.426 850.266 340.534 849.581 341.376 848.624C342.219 847.668 342.757 846.485 342.924 845.224C343.091 843.964 342.878 842.682 342.313 841.541C341.748 840.401 340.856 839.453 339.75 838.817C339.015 838.395 338.205 838.121 337.364 838.01C336.523 837.901 335.668 837.956 334.849 838.175C334.03 838.393 333.262 838.77 332.589 839.285Z" fill="#605EFF"/>
<rect x="165" y="699" width="318" height="318" stroke="#2B2B2B" stroke-width="15"/>
<rect x="1438" y="381" width="318" height="318" stroke="#2B2B2B" stroke-width="15"/>
<g clip-path="url(#clip0_488_8761)">
<path d="M1542.66 261.129L1548.1 270.451C1549.24 272.413 1550.86 273.955 1552.77 275.077L1572.23 241.715H1533.32C1533.32 243.888 1533.89 246.06 1535.02 248.023L1542.66 261.129Z" fill="#0066DA"/>
<path d="M1595.08 202.463L1575.62 169.102C1573.71 170.223 1572.09 171.765 1570.95 173.727L1535.02 235.405C1533.91 237.325 1533.32 239.499 1533.32 241.713H1572.23L1595.08 202.463Z" fill="#00AC47"/>
<path d="M1637.38 275.077C1639.29 273.955 1640.91 272.413 1642.04 270.451L1644.31 266.596L1655.13 248.023C1656.26 246.06 1656.83 243.888 1656.83 241.715H1617.92L1626.2 257.835L1637.38 275.077Z" fill="#EA4335"/>
<path d="M1595.08 202.462L1614.53 169.1C1612.62 167.979 1610.43 167.418 1608.16 167.418H1581.99C1579.73 167.418 1577.53 168.049 1575.62 169.1L1595.08 202.462Z" fill="#00832D"/>
<path d="M1617.92 241.715H1572.23L1552.77 275.077C1554.68 276.198 1556.88 276.759 1559.14 276.759H1631.01C1633.27 276.759 1635.47 276.128 1637.38 275.077L1617.92 241.715Z" fill="#2684FC"/>
<path d="M1637.16 204.566L1619.2 173.727C1618.06 171.765 1616.44 170.223 1614.53 169.102L1595.07 202.463L1617.92 241.713H1656.76C1656.76 239.54 1656.19 237.367 1655.06 235.405L1637.16 204.566Z" fill="#FFBA00"/>
</g>
<rect x="1437" y="63" width="319" height="318" stroke="#2B2B2B" stroke-width="15"/>
<rect x="1438" y="699" width="318" height="318" fill="#40A8F5"/>
<rect x="1438" y="699" width="318" height="318" stroke="#2B2B2B" stroke-width="15"/>
<rect x="801" y="699" width="318" height="318" fill="#28F77E"/>
<rect x="801" y="699" width="318" height="318" stroke="#2B2B2B" stroke-width="15"/>
<path d="M1243.79 906.361L1218.81 863.096C1217.85 861.432 1217.35 859.545 1217.35 857.625C1217.35 855.704 1217.85 853.817 1218.81 852.154L1243.79 808.889C1244.75 807.226 1246.13 805.844 1247.8 804.884C1249.46 803.923 1251.35 803.418 1253.27 803.418H1303.22C1305.14 803.418 1307.03 803.924 1308.7 804.884C1310.36 805.845 1311.74 807.226 1312.7 808.889L1337.68 852.154C1338.64 853.817 1339.14 855.704 1339.14 857.625C1339.14 859.546 1338.64 861.433 1337.68 863.097L1312.7 906.36C1311.74 908.023 1310.36 909.405 1308.7 910.365C1307.03 911.326 1305.14 911.831 1303.22 911.831H1253.27C1251.35 911.832 1249.46 911.326 1247.8 910.366C1246.13 909.405 1244.75 908.024 1243.79 906.36V906.361Z" fill="url(#paint0_linear_488_8761)"/>
<path d="M1264.27 847.996L1257.6 854.647L1263.27 860.317L1257.65 870.285L1300.36 911.748H1305.42L1309.47 909.723L1311.5 907.699L1329.72 876.315L1298.69 844.832L1264.27 847.996Z" fill="#417CE0"/>
<path d="M1297.94 844.56H1258.51C1257.88 844.56 1257.36 845.079 1257.36 845.715V853.866C1257.36 854.499 1257.88 855.019 1258.51 855.019H1297.94C1298.58 855.019 1299.1 854.499 1299.1 853.866V845.713C1299.1 845.079 1298.58 844.559 1297.94 844.559L1297.94 844.56ZM1291.84 852.148C1291.21 852.146 1290.62 851.897 1290.17 851.455C1289.73 851.013 1289.48 850.413 1289.48 849.788C1289.48 849.479 1289.54 849.172 1289.66 848.886C1289.78 848.6 1289.95 848.34 1290.17 848.121C1290.39 847.902 1290.65 847.729 1290.94 847.61C1291.22 847.492 1291.53 847.431 1291.84 847.431C1293.14 847.431 1294.2 848.481 1294.2 849.788C1294.2 850.098 1294.14 850.405 1294.02 850.691C1293.9 850.978 1293.73 851.238 1293.51 851.457C1293.29 851.676 1293.03 851.85 1292.74 851.969C1292.46 852.087 1292.15 852.148 1291.84 852.148ZM1297.94 860.228L1258.51 860.23C1257.88 860.23 1257.36 860.749 1257.36 861.385V869.535C1257.36 870.169 1257.88 870.689 1258.51 870.689H1297.94C1298.58 870.689 1299.1 870.169 1299.1 869.535V861.383C1299.1 860.749 1298.58 860.228 1297.94 860.228H1297.94ZM1291.84 867.817C1291.21 867.816 1290.61 867.567 1290.17 867.124C1289.73 866.682 1289.48 866.083 1289.48 865.458C1289.48 865.148 1289.54 864.841 1289.66 864.555C1289.78 864.269 1289.95 864.009 1290.17 863.79C1290.39 863.571 1290.65 863.398 1290.94 863.28C1291.22 863.161 1291.53 863.1 1291.84 863.101C1292.16 863.088 1292.47 863.139 1292.77 863.252C1293.07 863.365 1293.34 863.536 1293.57 863.757C1293.8 863.977 1293.98 864.241 1294.1 864.534C1294.23 864.826 1294.29 865.141 1294.29 865.459C1294.29 865.776 1294.23 866.091 1294.1 866.383C1293.98 866.676 1293.8 866.94 1293.57 867.16C1293.34 867.381 1293.07 867.552 1292.77 867.665C1292.47 867.778 1292.16 867.829 1291.84 867.817" fill="white"/>
<rect x="1119" y="699" width="318" height="318" stroke="#2B2B2B" stroke-width="15"/>
<path d="M250.132 186.008C242.964 186.008 237.616 183.404 234.088 178.196C230.616 172.988 228.88 165.484 228.88 155.684C228.88 145.884 230.616 138.38 234.088 133.172C237.616 127.964 242.964 125.36 250.132 125.36C252.82 125.36 255.144 125.724 257.104 126.452C259.064 127.18 260.744 128.16 262.144 129.392C263.544 130.624 264.72 132.024 265.672 133.592C266.624 135.104 267.464 136.644 268.192 138.212L262.144 140.984C261.64 139.696 261.052 138.492 260.38 137.372C259.708 136.196 258.896 135.188 257.944 134.348C257.048 133.452 255.956 132.752 254.668 132.248C253.436 131.744 251.924 131.492 250.132 131.492C245.484 131.492 242.012 133.256 239.716 136.784C237.476 140.312 236.356 145.016 236.356 150.896V160.472C236.356 166.352 237.476 171.056 239.716 174.584C242.012 178.112 245.484 179.876 250.132 179.876C251.924 179.876 253.436 179.624 254.668 179.12C255.956 178.616 257.048 177.944 257.944 177.104C258.896 176.208 259.708 175.2 260.38 174.08C261.052 172.904 261.64 171.672 262.144 170.384L268.192 173.156C267.464 174.78 266.624 176.348 265.672 177.86C264.72 179.372 263.544 180.744 262.144 181.976C260.744 183.208 259.064 184.188 257.104 184.916C255.144 185.644 252.82 186.008 250.132 186.008ZM298.567 186.008C295.543 186.008 292.799 185.476 290.335 184.412C287.927 183.348 285.855 181.836 284.119 179.876C282.439 177.86 281.151 175.48 280.255 172.736C279.359 169.936 278.911 166.8 278.911 163.328C278.911 159.912 279.359 156.804 280.255 154.004C281.151 151.204 282.439 148.824 284.119 146.864C285.855 144.848 287.927 143.308 290.335 142.244C292.799 141.18 295.543 140.648 298.567 140.648C301.591 140.648 304.307 141.18 306.715 142.244C309.179 143.308 311.251 144.848 312.931 146.864C314.667 148.824 315.983 151.204 316.879 154.004C317.775 156.804 318.223 159.912 318.223 163.328C318.223 166.8 317.775 169.936 316.879 172.736C315.983 175.48 314.667 177.86 312.931 179.876C311.251 181.836 309.179 183.348 306.715 184.412C304.307 185.476 301.591 186.008 298.567 186.008ZM298.567 180.212C302.319 180.212 305.343 179.092 307.639 176.852C309.935 174.612 311.083 171.14 311.083 166.436V160.22C311.083 155.516 309.935 152.044 307.639 149.804C305.343 147.564 302.319 146.444 298.567 146.444C294.815 146.444 291.791 147.564 289.495 149.804C287.199 152.044 286.051 155.516 286.051 160.22V166.436C286.051 171.14 287.199 174.612 289.495 176.852C291.791 179.092 294.815 180.212 298.567 180.212ZM331.966 185V141.656H338.686V148.712H339.022C339.47 147.648 340.03 146.64 340.702 145.688C341.374 144.68 342.186 143.812 343.138 143.084C344.146 142.356 345.322 141.768 346.666 141.32C348.01 140.872 349.578 140.648 351.37 140.648C355.906 140.648 359.546 142.104 362.29 145.016C365.034 147.872 366.406 151.932 366.406 157.196V185H359.686V158.372C359.686 154.396 358.818 151.456 357.082 149.552C355.346 147.592 352.798 146.612 349.438 146.612C348.094 146.612 346.778 146.78 345.49 147.116C344.202 147.452 343.054 147.956 342.046 148.628C341.038 149.3 340.226 150.168 339.61 151.232C338.994 152.296 338.686 153.528 338.686 154.928V185H331.966ZM382.334 185V141.656H389.054V148.712H389.39C389.838 147.648 390.398 146.64 391.07 145.688C391.742 144.68 392.554 143.812 393.506 143.084C394.514 142.356 395.69 141.768 397.034 141.32C398.378 140.872 399.946 140.648 401.738 140.648C406.274 140.648 409.914 142.104 412.658 145.016C415.402 147.872 416.774 151.932 416.774 157.196V185H410.054V158.372C410.054 154.396 409.186 151.456 407.45 149.552C405.714 147.592 403.166 146.612 399.806 146.612C398.462 146.612 397.146 146.78 395.858 147.116C394.57 147.452 393.422 147.956 392.414 148.628C391.406 149.3 390.594 150.168 389.978 151.232C389.362 152.296 389.054 153.528 389.054 154.928V185H382.334ZM450.425 186.008C447.289 186.008 444.461 185.476 441.941 184.412C439.477 183.348 437.349 181.836 435.557 179.876C433.821 177.86 432.477 175.48 431.525 172.736C430.573 169.936 430.097 166.828 430.097 163.412C430.097 159.94 430.573 156.804 431.525 154.004C432.533 151.204 433.905 148.824 435.641 146.864C437.377 144.848 439.449 143.308 441.857 142.244C444.321 141.18 447.037 140.648 450.005 140.648C452.917 140.648 455.549 141.18 457.901 142.244C460.309 143.308 462.353 144.792 464.033 146.696C465.713 148.544 467.001 150.756 467.897 153.332C468.793 155.908 469.241 158.736 469.241 161.816V165.008H437.153V167.024C437.153 168.928 437.461 170.692 438.077 172.316C438.693 173.94 439.561 175.34 440.681 176.516C441.857 177.692 443.257 178.616 444.881 179.288C446.561 179.904 448.409 180.212 450.425 180.212C453.337 180.212 455.857 179.54 457.985 178.196C460.113 176.852 461.737 175.004 462.857 172.652L467.813 176.012C466.525 178.924 464.369 181.332 461.345 183.236C458.377 185.084 454.737 186.008 450.425 186.008ZM450.005 146.192C448.157 146.192 446.449 146.528 444.881 147.2C443.313 147.872 441.941 148.796 440.765 149.972C439.645 151.148 438.749 152.548 438.077 154.172C437.461 155.74 437.153 157.476 437.153 159.38V159.968H462.017V159.044C462.017 157.14 461.709 155.404 461.093 153.836C460.533 152.268 459.721 150.924 458.657 149.804C457.649 148.628 456.389 147.732 454.877 147.116C453.421 146.5 451.797 146.192 450.005 146.192ZM501.548 186.008C498.412 186.008 495.612 185.476 493.148 184.412C490.74 183.292 488.696 181.752 487.016 179.792C485.336 177.832 484.048 175.452 483.152 172.652C482.312 169.852 481.892 166.744 481.892 163.328C481.892 159.912 482.34 156.804 483.236 154.004C484.132 151.204 485.42 148.824 487.1 146.864C488.78 144.848 490.824 143.308 493.232 142.244C495.64 141.18 498.384 140.648 501.464 140.648C505.664 140.648 509.08 141.572 511.712 143.42C514.344 145.268 516.276 147.676 517.508 150.644L512.132 153.5C511.348 151.26 510.032 149.524 508.184 148.292C506.392 147.06 504.152 146.444 501.464 146.444C499.504 146.444 497.74 146.78 496.172 147.452C494.66 148.068 493.372 148.964 492.308 150.14C491.244 151.316 490.432 152.716 489.872 154.34C489.368 155.964 489.116 157.728 489.116 159.632V167.024C489.116 168.928 489.368 170.692 489.872 172.316C490.432 173.94 491.244 175.34 492.308 176.516C493.372 177.692 494.688 178.616 496.256 179.288C497.824 179.904 499.616 180.212 501.632 180.212C504.544 180.212 506.952 179.54 508.856 178.196C510.76 176.852 512.272 175.004 513.392 172.652L518.18 175.928C516.892 178.84 514.876 181.248 512.132 183.152C509.444 185.056 505.916 186.008 501.548 186.008ZM552.503 185C549.199 185 546.763 184.076 545.195 182.228C543.683 180.38 542.927 178 542.927 175.088V147.368H528.479V141.656H539.231C540.687 141.656 541.695 141.376 542.255 140.816C542.871 140.2 543.179 139.164 543.179 137.708V126.368H549.647V141.656H569.387V147.368H549.647V179.288H569.387V185H552.503ZM225.52 225.656H231.484L236.44 263.12H237.196L244.588 225.656H251.98L259.372 263.12H260.128L265.084 225.656H270.88L264.244 269H255.508L248.62 232.712H247.948L240.892 269H232.156L225.52 225.656ZM301.255 216.08C299.295 216.08 297.923 215.688 297.139 214.904C296.355 214.064 295.963 213.028 295.963 211.796V210.452C295.963 209.22 296.355 208.212 297.139 207.428C297.923 206.588 299.295 206.168 301.255 206.168C303.215 206.168 304.587 206.588 305.371 207.428C306.155 208.212 306.547 209.22 306.547 210.452V211.796C306.547 213.028 306.155 214.064 305.371 214.904C304.587 215.688 303.215 216.08 301.255 216.08ZM282.271 263.288H297.895V231.368H282.271V225.656H304.615V263.288H319.231V269H282.271V263.288ZM351.034 269C347.73 269 345.294 268.076 343.726 266.228C342.214 264.38 341.458 262 341.458 259.088V231.368H327.01V225.656H337.762C339.218 225.656 340.226 225.376 340.786 224.816C341.402 224.2 341.71 223.164 341.71 221.708V210.368H348.178V225.656H367.918V231.368H348.178V263.288H367.918V269H351.034ZM382.334 206.84H389.054V232.712H389.39C389.838 231.648 390.398 230.64 391.07 229.688C391.742 228.68 392.554 227.812 393.506 227.084C394.514 226.356 395.69 225.768 397.034 225.32C398.378 224.872 399.946 224.648 401.738 224.648C406.274 224.648 409.914 226.104 412.658 229.016C415.402 231.872 416.774 235.932 416.774 241.196V269H410.054V242.372C410.054 238.396 409.186 235.456 407.45 233.552C405.714 231.592 403.166 230.612 399.806 230.612C398.462 230.612 397.146 230.78 395.858 231.116C394.57 231.452 393.422 231.956 392.414 232.628C391.406 233.3 390.594 234.168 389.978 235.232C389.362 236.296 389.054 237.528 389.054 238.928V269H382.334V206.84ZM449.669 269.756C447.373 269.756 445.749 269.28 444.797 268.328C443.901 267.376 443.453 266.172 443.453 264.716V263.204C443.453 261.748 443.901 260.544 444.797 259.592C445.749 258.64 447.373 258.164 449.669 258.164C451.965 258.164 453.561 258.64 454.457 259.592C455.409 260.544 455.885 261.748 455.885 263.204V264.716C455.885 266.172 455.409 267.376 454.457 268.328C453.561 269.28 451.965 269.756 449.669 269.756ZM500.036 269.756C497.74 269.756 496.116 269.28 495.164 268.328C494.268 267.376 493.82 266.172 493.82 264.716V263.204C493.82 261.748 494.268 260.544 495.164 259.592C496.116 258.64 497.74 258.164 500.036 258.164C502.332 258.164 503.928 258.64 504.824 259.592C505.776 260.544 506.252 261.748 506.252 263.204V264.716C506.252 266.172 505.776 267.376 504.824 268.328C503.928 269.28 502.332 269.756 500.036 269.756ZM550.403 269.756C548.107 269.756 546.483 269.28 545.531 268.328C544.635 267.376 544.187 266.172 544.187 264.716V263.204C544.187 261.748 544.635 260.544 545.531 259.592C546.483 258.64 548.107 258.164 550.403 258.164C552.699 258.164 554.295 258.64 555.191 259.592C556.143 260.544 556.619 261.748 556.619 263.204V264.716C556.619 266.172 556.143 267.376 555.191 268.328C554.295 269.28 552.699 269.756 550.403 269.756Z" fill="black"/>
<g clip-path="url(#clip1_488_8761)">
<path d="M604.829 822.355L597.555 825.993V889.839L604.829 893.455L604.873 893.403V822.406L604.829 822.355Z" fill="#8C3123"/>
<path d="M643.758 884.189L604.828 893.455V822.355L643.758 831.42V884.189Z" fill="#E05243"/>
<path d="M626.186 869.679L642.698 871.781L642.802 871.542L642.895 844.466L642.698 844.254L626.186 846.326V869.679Z" fill="#8C3123"/>
<path d="M642.699 884.293L680.569 893.475L680.629 893.38L680.627 822.419L680.568 822.355L642.699 831.524V884.293Z" fill="#8C3123"/>
<path d="M659.217 869.679L642.699 871.781V844.254L659.217 846.326V869.679Z" fill="#E05243"/>
<path d="M659.215 835.034L642.698 838.044L626.186 835.034L642.677 830.711L659.215 835.034Z" fill="#5E1F18"/>
<path d="M659.215 880.944L642.698 877.914L626.186 880.944L642.678 885.548L659.215 880.944Z" fill="#F2B0A9"/>
<path d="M626.186 835.031L642.698 830.945L642.832 830.903V803.528L642.698 803.418L626.186 811.676V835.031Z" fill="#8C3123"/>
<path d="M659.217 835.031L642.699 830.945V803.418L659.217 811.676V835.031Z" fill="#E05243"/>
<path d="M642.696 912.555L626.182 904.3V880.945L642.696 885.03L642.939 885.306L642.873 912.079L642.696 912.555Z" fill="#8C3123"/>
<path d="M642.699 912.556L659.215 904.301V880.946L642.699 885.031V912.556ZM680.569 822.355L687.846 825.993V889.839L680.569 893.475V822.355Z" fill="#E05243"/>
</g>
<rect x="483" y="699" width="318" height="318" stroke="#2B2B2B" stroke-width="15"/>
<path fill-rule="evenodd" clip-rule="evenodd" d="M1586.17 534.368L1520.18 534.368V551.92L1586.17 551.92L1586.17 620.312H1603.72L1603.72 551.92L1672.51 551.92V534.368H1603.72L1603.72 467.978L1586.17 467.978L1586.17 534.368Z" fill="#2B2B2B"/>
<defs>
<linearGradient id="paint0_linear_488_8761" x1="1278.25" y1="803.419" x2="1278.25" y2="911.663" gradientUnits="userSpaceOnUse">
<stop stop-color="#4387FD"/>
<stop offset="1" stop-color="#4683EA"/>
</linearGradient>
<clipPath id="clip0_488_8761">
<rect width="123.511" height="109.337" fill="white" transform="translate(1533.32 167.418)"/>
</clipPath>
<clipPath id="clip1_488_8761">
<rect width="90.3125" height="109.337" fill="white" transform="translate(597.543 803.418)"/>
</clipPath>
</defs>
</svg>
