<svg width="1920" height="1080" viewBox="0 0 1920 1080" fill="none" xmlns="http://www.w3.org/2000/svg">
<path fill-rule="evenodd" clip-rule="evenodd" d="M803 381L803 63L483 63L165 63L165 381L165 701L483 701L483 381L803 381Z" fill="#FFDF3A"/>
<path d="M803 63L810.5 63L810.5 55.5L803 55.5L803 63ZM803 381L803 388.5L810.5 388.5L810.5 381L803 381ZM483 63L483 55.5L483 63ZM165 63L165 55.5L157.5 55.5L157.5 63L165 63ZM165 701L157.5 701L157.5 708.5L165 708.5L165 701ZM483 701L483 708.5L490.5 708.5L490.5 701L483 701ZM483 381L483 373.5L475.5 373.5L475.5 381L483 381ZM795.5 63L795.5 381L810.5 381L810.5 63L795.5 63ZM483 70.5L803 70.5L803 55.5L483 55.5L483 70.5ZM165 70.5L483 70.5L483 55.5L165 55.5L165 70.5ZM172.5 381L172.5 63L157.5 63L157.5 381L172.5 381ZM172.5 701L172.5 381L157.5 381L157.5 701L172.5 701ZM483 693.5L165 693.5L165 708.5L483 708.5L483 693.5ZM475.5 381L475.5 701L490.5 701L490.5 381L475.5 381ZM803 373.5L483 373.5L483 388.5L803 388.5L803 373.5Z" fill="#2B2B2B"/>
<mask id="path-3-outside-1_488_8689" maskUnits="userSpaceOnUse" x="660.889" y="433.223" width="212" height="212" fill="black">
<rect fill="white" x="660.889" y="433.223" width="212" height="212"/>
<path fill-rule="evenodd" clip-rule="evenodd" d="M714 556.556V451.223H678.889V556.556H714ZM749.112 556.556V591.667H784.222V556.556H819.333V591.667H784.223V626.778H749.112V591.667H714.001V556.556H749.112ZM854.444 451.223V556.556H819.333V451.223H854.444Z"/>
</mask>
<path fill-rule="evenodd" clip-rule="evenodd" d="M714 556.556V451.223H678.889V556.556H714ZM749.112 556.556V591.667H784.222V556.556H819.333V591.667H784.223V626.778H749.112V591.667H714.001V556.556H749.112ZM854.444 451.223V556.556H819.333V451.223H854.444Z" fill="#F7F7F7"/>
<path d="M714 451.223H731.555V433.667H714V451.223ZM714 556.556V574.112H731.555V556.556H714ZM678.889 451.223V433.667H661.333V451.223H678.889ZM678.889 556.556H661.333V574.112H678.889V556.556ZM749.112 591.667H731.556V609.222H749.112V591.667ZM749.112 556.556H766.667V539.001H749.112V556.556ZM784.222 591.667V609.222H801.778V591.667H784.222ZM784.222 556.556V539.001H766.667V556.556H784.222ZM819.333 556.556H836.889V539.001H819.333V556.556ZM819.333 591.667V609.223H836.889V591.667H819.333ZM784.223 591.667V574.112H766.667V591.667H784.223ZM784.223 626.778V644.333H801.778V626.778H784.223ZM749.112 626.778H731.556V644.333H749.112V626.778ZM749.112 591.667H766.667V574.112H749.112V591.667ZM714.001 591.667H696.445V609.223H714.001V591.667ZM714.001 556.556V539.001H696.445V556.556H714.001ZM854.444 556.556V574.112H872V556.556H854.444ZM854.444 451.223H872V433.667H854.444V451.223ZM819.333 556.556H801.778V574.112H819.333V556.556ZM819.333 451.223V433.667H801.778V451.223H819.333ZM696.444 451.223V556.556H731.555V451.223H696.444ZM678.889 468.778H714V433.667H678.889V468.778ZM696.444 556.556V451.223H661.333V556.556H696.444ZM714 539H678.889V574.112H714V539ZM766.667 591.667V556.556H731.556V591.667H766.667ZM784.222 574.111H749.112V609.222H784.222V574.111ZM766.667 556.556V591.667H801.778V556.556H766.667ZM819.333 539.001H784.222V574.112H819.333V539.001ZM836.889 591.667V556.556H801.778V591.667H836.889ZM784.223 609.223H819.333V574.112H784.223V609.223ZM801.778 626.778V591.667H766.667V626.778H801.778ZM749.112 644.333H784.223V609.222H749.112V644.333ZM731.556 591.667V626.778H766.667V591.667H731.556ZM714.001 609.223H749.112V574.112H714.001V609.223ZM696.445 556.556V591.667H731.556V556.556H696.445ZM749.112 539.001H714.001V574.112H749.112V539.001ZM872 556.556V451.223H836.889V556.556H872ZM819.333 574.112H854.444V539H819.333V574.112ZM801.778 451.223V556.556H836.889V451.223H801.778ZM854.444 433.667H819.333V468.778H854.444V433.667Z" fill="#2B2B2B" mask="url(#path-3-outside-1_488_8689)"/>
<mask id="path-5-outside-2_488_8689" maskUnits="userSpaceOnUse" x="854.002" y="433.223" width="212" height="212" fill="black">
<rect fill="white" x="854.002" y="433.223" width="212" height="212"/>
<path fill-rule="evenodd" clip-rule="evenodd" d="M907.113 451.223V626.778H872.002V451.223H907.113ZM1012.45 486.334V451.223H907.113V486.334H1012.45V591.667H1047.56V486.334H1012.45ZM1012.45 626.778V591.667H907.113V626.778H1012.45Z"/>
</mask>
<path fill-rule="evenodd" clip-rule="evenodd" d="M907.113 451.223V626.778H872.002V451.223H907.113ZM1012.45 486.334V451.223H907.113V486.334H1012.45V591.667H1047.56V486.334H1012.45ZM1012.45 626.778V591.667H907.113V626.778H1012.45Z" fill="#F7F7F7"/>
<path d="M907.113 626.778V644.334H924.669V626.778H907.113ZM907.113 451.223H924.669V433.667H907.113V451.223ZM872.002 626.778H854.446V644.334H872.002V626.778ZM872.002 451.223V433.667H854.446V451.223H872.002ZM1012.45 451.223H1030V433.667H1012.45V451.223ZM1012.45 486.334H994.891V503.889H1012.45V486.334ZM907.113 451.223V433.667H889.558V451.223H907.113ZM907.113 486.334H889.558V503.889H907.113V486.334ZM1012.45 486.334H1030V468.778H1012.45V486.334ZM1012.45 591.667H994.891V609.222H1012.45V591.667ZM1047.56 591.667V609.222H1065.11V591.667H1047.56ZM1047.56 486.334H1065.11V468.778H1047.56V486.334ZM1012.45 591.667H1030V574.112H1012.45V591.667ZM1012.45 626.778V644.334H1030V626.778H1012.45ZM907.113 591.667V574.112H889.558V591.667H907.113ZM907.113 626.778H889.558V644.334H907.113V626.778ZM924.669 626.778V451.223H889.558V626.778H924.669ZM872.002 644.334H907.113V609.223H872.002V644.334ZM854.446 451.223V626.778H889.558V451.223H854.446ZM907.113 433.667H872.002V468.778H907.113V433.667ZM994.891 451.223V486.334H1030V451.223H994.891ZM907.113 468.778H1012.45V433.667H907.113V468.778ZM924.669 486.334V451.223H889.558V486.334H924.669ZM1012.45 468.778H907.113V503.889H1012.45V468.778ZM1030 591.667V486.334H994.891V591.667H1030ZM1047.56 574.111H1012.45V609.222H1047.56V574.111ZM1030 486.334V591.667H1065.11V486.334H1030ZM1012.45 503.889H1047.56V468.778H1012.45V503.889ZM994.891 591.667V626.778H1030V591.667H994.891ZM907.113 609.223H1012.45V574.112H907.113V609.223ZM924.669 626.778V591.667H889.558V626.778H924.669ZM1012.45 609.223H907.113V644.334H1012.45V609.223Z" fill="#2B2B2B" mask="url(#path-5-outside-2_488_8689)"/>
<mask id="path-7-outside-3_488_8689" maskUnits="userSpaceOnUse" x="1047.11" y="433.223" width="212" height="212" fill="black">
<rect fill="white" x="1047.11" y="433.223" width="212" height="212"/>
<path fill-rule="evenodd" clip-rule="evenodd" d="M1100.22 451.223V626.778H1065.11V451.223H1100.22ZM1205.55 486.334V451.223H1100.22V486.334H1205.55V556.556H1240.67V486.334H1205.55ZM1205.55 591.667V556.556H1100.22V591.667H1205.55Z"/>
</mask>
<path fill-rule="evenodd" clip-rule="evenodd" d="M1100.22 451.223V626.778H1065.11V451.223H1100.22ZM1205.55 486.334V451.223H1100.22V486.334H1205.55V556.556H1240.67V486.334H1205.55ZM1205.55 591.667V556.556H1100.22V591.667H1205.55Z" fill="#F7F7F7"/>
<path d="M1100.22 626.778V644.334H1117.78V626.778H1100.22ZM1100.22 451.223H1117.78V433.667H1100.22V451.223ZM1065.11 626.778H1047.55V644.334H1065.11V626.778ZM1065.11 451.223V433.667H1047.55V451.223H1065.11ZM1205.55 486.334H1188V503.889H1205.55V486.334ZM1205.55 451.223H1223.11V433.667H1205.55V451.223ZM1100.22 451.223V433.667H1082.67V451.223H1100.22ZM1100.22 486.334H1082.67V503.889H1100.22V486.334ZM1205.55 486.334H1223.11V468.778H1205.55V486.334ZM1205.55 556.556H1188V574.111H1205.55V556.556ZM1240.67 556.556V574.111H1258.22V556.556H1240.67ZM1240.67 486.334H1258.22V468.778H1240.67V486.334ZM1205.55 556.556H1223.11V539.001H1205.55V556.556ZM1205.55 591.667V609.223H1223.11V591.667H1205.55ZM1100.22 556.556V539.001H1082.67V556.556H1100.22ZM1100.22 591.667H1082.67V609.223H1100.22V591.667ZM1117.78 626.778V451.223H1082.66V626.778H1117.78ZM1065.11 644.334H1100.22V609.223H1065.11V644.334ZM1047.55 451.223V626.778H1082.66V451.223H1047.55ZM1100.22 433.667H1065.11V468.778H1100.22V433.667ZM1223.11 486.334V451.223H1188V486.334H1223.11ZM1205.55 433.667H1100.22V468.778H1205.55V433.667ZM1082.67 451.223V486.334H1117.78V451.223H1082.67ZM1100.22 503.889H1205.55V468.778H1100.22V503.889ZM1188 486.334V556.556H1223.11V486.334H1188ZM1205.55 574.111H1240.67V539H1205.55V574.111ZM1258.22 556.556V486.334H1223.11V556.556H1258.22ZM1240.67 468.778H1205.55V503.889H1240.67V468.778ZM1188 556.556V591.667H1223.11V556.556H1188ZM1100.22 574.112H1205.55V539.001H1100.22V574.112ZM1117.78 591.667V556.556H1082.67V591.667H1117.78ZM1205.55 574.112H1100.22V609.223H1205.55V574.112Z" fill="#2B2B2B" mask="url(#path-7-outside-3_488_8689)"/>
<path d="M714 495.112H722.778V486.334V451.223V442.445H714H678.889H670.111V451.223V486.334V495.112H678.889H714Z" fill="#28F77E" stroke="#2B2B2B" stroke-width="17.5556"/>
<mask id="path-10-outside-4_488_8689" maskUnits="userSpaceOnUse" x="854.002" y="538.555" width="106" height="106" fill="black">
<rect fill="white" x="854.002" y="538.555" width="106" height="106"/>
<path fill-rule="evenodd" clip-rule="evenodd" d="M907.113 556.555V591.666H942.224V626.777H907.113H907.113H872.002V556.555H907.113Z"/>
</mask>
<path fill-rule="evenodd" clip-rule="evenodd" d="M907.113 556.555V591.666H942.224V626.777H907.113H907.113H872.002V556.555H907.113Z" fill="#FFDF3A"/>
<path d="M907.113 591.666H889.558V609.221H907.113V591.666ZM907.113 556.555H924.669V538.999H907.113V556.555ZM942.224 591.666H959.779V574.11H942.224V591.666ZM942.224 626.777V644.332H959.779V626.777H942.224ZM872.002 626.777H854.446V644.332H872.002V626.777ZM872.002 556.555V538.999H854.446V556.555H872.002ZM924.669 591.666V556.555H889.558V591.666H924.669ZM942.224 574.11H907.113V609.221H942.224V574.11ZM959.779 626.777V591.666H924.668V626.777H959.779ZM907.113 644.332H942.224V609.221H907.113V644.332ZM907.113 644.332H907.113V609.221H907.113V644.332ZM872.002 644.332H907.113V609.221H872.002V644.332ZM854.446 556.555V626.777H889.558V556.555H854.446ZM907.113 538.999H872.002V574.11H907.113V538.999Z" fill="#2B2B2B" mask="url(#path-10-outside-4_488_8689)"/>
<path d="M1100.22 635.556H1109V626.779V521.445V512.668H1100.22H1065.11H1056.33V521.445V626.779V635.556H1065.11H1100.22Z" fill="#40A8F5" stroke="#2B2B2B" stroke-width="17.5556"/>
<path fill-rule="evenodd" clip-rule="evenodd" d="M960.088 177.109C939.022 177.109 920.092 188.216 906.549 199.13C899.754 204.606 894.26 210.077 890.463 214.181C888.564 216.233 887.087 217.946 886.082 219.149C885.579 219.751 885.195 220.226 884.934 220.552C884.804 220.715 884.705 220.841 884.637 220.927L884.56 221.026L884.539 221.053L884.532 221.063L883.742 222.091L884.533 223.122L884.539 223.13L884.56 223.156L884.637 223.256C884.705 223.342 884.804 223.468 884.934 223.631C885.195 223.957 885.579 224.431 886.082 225.033C887.087 226.236 888.564 227.949 890.463 230.002C894.26 234.105 899.754 239.577 906.549 245.052C920.092 255.967 939.022 267.073 960.088 267.073C981.155 267.073 1000.08 255.967 1013.63 245.052C1020.42 239.577 1025.92 234.105 1029.71 230.002C1031.61 227.949 1033.09 226.236 1034.09 225.033C1034.6 224.431 1034.98 223.957 1035.24 223.631C1035.37 223.468 1035.47 223.342 1035.54 223.256L1035.62 223.156L1035.64 223.13L1035.65 223.12L1036.43 222.091L1035.64 221.06L1035.64 221.053L1035.62 221.026L1035.54 220.927C1035.47 220.841 1035.37 220.715 1035.24 220.552C1034.98 220.226 1034.6 219.751 1034.09 219.149C1033.09 217.946 1031.61 216.233 1029.71 214.181C1025.92 210.077 1020.42 204.606 1013.63 199.13C1000.08 188.216 981.155 177.109 960.088 177.109ZM1034.31 222.091C1035.65 223.119 1035.65 223.119 1035.65 223.12L1034.31 222.091ZM1035.64 221.06C1035.64 221.061 1035.65 221.064 1034.31 222.091L1035.64 221.06ZM885.869 222.091C884.531 221.064 884.531 221.063 884.532 221.063L885.869 222.091ZM884.533 223.122C884.533 223.121 884.531 223.119 885.869 222.091L884.533 223.122ZM913.142 207.311C918.975 202.61 925.598 198.105 932.739 194.592C925.67 201.619 921.293 211.351 921.293 222.107C921.293 232.831 925.644 242.537 932.674 249.559C925.559 246.051 918.958 241.558 913.142 236.871C906.838 231.791 901.716 226.693 898.175 222.866C897.93 222.601 897.693 222.343 897.464 222.091C897.693 221.84 897.93 221.581 898.175 221.317C901.716 217.49 906.838 212.391 913.142 207.311ZM998.887 222.107C998.887 211.352 994.511 201.621 987.444 194.595C994.582 198.107 1001.2 202.611 1007.04 207.311C1013.34 212.391 1018.46 217.49 1022 221.317C1022.25 221.581 1022.48 221.84 1022.71 222.091C1022.48 222.343 1022.25 222.601 1022 222.866C1018.46 226.693 1013.34 231.791 1007.04 236.871C1001.22 241.557 994.622 246.049 987.508 249.556C994.537 242.535 998.887 232.83 998.887 222.107ZM931.8 222.107C931.8 206.483 944.466 193.818 960.09 193.818C975.714 193.818 988.38 206.483 988.38 222.107C988.38 237.731 975.714 250.397 960.09 250.397C944.466 250.397 931.8 237.731 931.8 222.107Z" fill="#2B2B2B"/>
<rect x="801" y="63" width="318" height="318" stroke="#2B2B2B" stroke-width="15"/>
<path fill-rule="evenodd" clip-rule="evenodd" d="M1269.33 817.72L1248.76 788.641L1187.93 893.101L1237.34 884.883L1234.81 907.837L1327.6 918.059L1330.15 894.955C1344.99 886.555 1355.02 870.619 1355.02 852.338C1355.02 825.314 1333.11 803.407 1306.09 803.407C1292.47 803.407 1280.16 808.967 1271.29 817.936L1269.33 817.72ZM1245.52 815.096L1249.62 808.049L1255.37 816.182L1245.52 815.096ZM1208.26 879.068L1244.91 816.136L1238.53 874.033L1208.26 879.068ZM1331.69 880.994L1337.31 829.938C1341.84 836.245 1344.51 843.98 1344.51 852.338C1344.51 863.725 1339.56 873.956 1331.69 880.994ZM1306.09 813.914C1316.46 813.914 1325.88 818.026 1332.79 824.71L1286.03 819.559C1291.86 815.978 1298.73 813.914 1306.09 813.914ZM1249.3 872.242L1254.32 826.637L1263.48 827.646L1263.67 827.92C1259.53 835.107 1257.15 843.448 1257.15 852.338C1257.15 858.702 1258.37 864.785 1260.58 870.366L1249.3 872.242ZM1308.46 873.053L1277.44 829.183L1326.23 834.558L1320.34 888.033C1315.93 889.794 1311.13 890.763 1306.09 890.763C1294.82 890.763 1284.68 885.912 1277.65 878.179L1308.46 873.053ZM1267.66 852.338C1267.66 847.138 1268.69 842.182 1270.56 837.661L1290.21 865.438L1271.26 868.59C1268.95 863.656 1267.66 858.15 1267.66 852.338ZM1246.4 898.544L1248.11 883.092L1265.82 880.146C1274.65 892.906 1289.39 901.27 1306.09 901.27C1310.58 901.27 1314.94 900.664 1319.07 899.527L1318.31 906.465L1246.4 898.544Z" fill="#2B2B2B"/>
<rect x="1120" y="700" width="318" height="318" stroke="#2B2B2B" stroke-width="15"/>
<path fill-rule="evenodd" clip-rule="evenodd" d="M282.342 787.922L273.816 790.503L272.02 799.483L264.961 794.189L258.774 794.285L237.99 810.913L244.302 818.802L262.03 804.62L272.371 812.376L280.356 809.325L281.872 801.741L285.505 805.375L292.65 798.23L282.342 787.922ZM274.167 827.978L268.286 829.689L261.661 838.657L263.206 846.038L270.799 850.405L310.534 906.598L318.022 907.451L319.391 906.231L319.596 906.779L372.255 887.032L377.117 924.209L379.924 928.101L398.991 937.334L403.395 928.241L386.781 920.195L383.332 893.818L396.932 904.28L402.815 904.479L417.122 894.941L411.517 886.534L400.223 894.064L381.479 879.645L381.448 879.412L380.204 878.664L359.31 862.592L352.867 862.827L315.518 896.146L291.654 862.398L308.48 872.074L312.987 872.338L335.921 862.516L331.943 853.229L311.329 862.057L273.154 840.104L274.125 838.79L293.792 846.373L297.168 846.464L323.393 837.956L341.16 837.657L340.99 827.555L322.467 827.867L320.993 828.113L295.754 836.301L274.167 827.978ZM364.34 879.209L339.05 888.693L356.468 873.154L364.34 879.209Z" fill="black"/>
<rect x="165" y="700" width="318" height="318" stroke="#2B2B2B" stroke-width="15"/>
<rect x="1119" y="63" width="318" height="318" fill="#28F77E"/>
<rect x="1119" y="63" width="318" height="318" stroke="#2B2B2B" stroke-width="15"/>
<rect x="1438" y="63" width="318" height="318" stroke="#2B2B2B" stroke-width="15"/>
<rect x="1437" y="381" width="319" height="637" fill="#40A8F5"/>
<rect x="1437" y="381" width="319" height="637" stroke="#2B2B2B" stroke-width="15"/>
<rect x="802" y="700" width="318" height="318" fill="#FFDF3A"/>
<rect x="802" y="700" width="318" height="318" stroke="#2B2B2B" stroke-width="15"/>
<path d="M227.436 187.984C222.297 187.984 218.088 187.055 214.808 185.196C211.528 183.283 208.822 180.85 206.69 177.898L211.692 173.798C213.933 176.586 216.284 178.663 218.744 180.03C221.259 181.397 224.238 182.08 227.682 182.08C231.837 182.08 235.007 181.123 237.194 179.21C239.381 177.297 240.474 174.618 240.474 171.174C240.474 168.386 239.681 166.227 238.096 164.696C236.511 163.111 233.75 161.99 229.814 161.334L223.418 160.268C220.63 159.776 218.279 159.038 216.366 158.054C214.507 157.07 213.004 155.895 211.856 154.528C210.708 153.107 209.888 151.576 209.396 149.936C208.904 148.241 208.658 146.492 208.658 144.688C208.658 139.44 210.38 135.477 213.824 132.798C217.268 130.119 221.915 128.78 227.764 128.78C232.356 128.78 236.21 129.545 239.326 131.076C242.497 132.607 245.039 134.766 246.952 137.554L242.114 141.736C240.529 139.659 238.615 137.964 236.374 136.652C234.133 135.34 231.235 134.684 227.682 134.684C223.801 134.684 220.821 135.504 218.744 137.144C216.667 138.784 215.628 141.244 215.628 144.524C215.628 147.093 216.393 149.198 217.924 150.838C219.509 152.423 222.325 153.571 226.37 154.282L232.52 155.348C235.308 155.84 237.659 156.578 239.572 157.562C241.485 158.546 243.016 159.721 244.164 161.088C245.367 162.455 246.214 163.985 246.706 165.68C247.198 167.375 247.444 169.151 247.444 171.01C247.444 176.313 245.695 180.467 242.196 183.474C238.752 186.481 233.832 187.984 227.436 187.984ZM274.768 187.984C271.816 187.984 269.137 187.465 266.732 186.426C264.381 185.387 262.359 183.911 260.664 181.998C259.024 180.03 257.767 177.707 256.892 175.028C256.017 172.295 255.58 169.233 255.58 165.844C255.58 162.509 256.017 159.475 256.892 156.742C257.767 154.009 259.024 151.685 260.664 149.772C262.359 147.804 264.381 146.301 266.732 145.262C269.137 144.223 271.816 143.704 274.768 143.704C277.72 143.704 280.371 144.223 282.722 145.262C285.127 146.301 287.15 147.804 288.79 149.772C290.485 151.685 291.769 154.009 292.644 156.742C293.519 159.475 293.956 162.509 293.956 165.844C293.956 169.233 293.519 172.295 292.644 175.028C291.769 177.707 290.485 180.03 288.79 181.998C287.15 183.911 285.127 185.387 282.722 186.426C280.371 187.465 277.72 187.984 274.768 187.984ZM274.768 182.326C278.431 182.326 281.383 181.233 283.624 179.046C285.865 176.859 286.986 173.47 286.986 168.878V162.81C286.986 158.218 285.865 154.829 283.624 152.642C281.383 150.455 278.431 149.362 274.768 149.362C271.105 149.362 268.153 150.455 265.912 152.642C263.671 154.829 262.55 158.218 262.55 162.81V168.878C262.55 173.47 263.671 176.859 265.912 179.046C268.153 181.233 271.105 182.326 274.768 182.326ZM303.896 181.424H318.656V131.896H303.896V126.32H325.216V181.424H339.976V187H303.896V181.424ZM364.922 187L349.752 144.688H356.394L362.462 162.4L369.022 181.506H369.35L375.91 162.4L381.978 144.688H388.456L373.286 187H364.922ZM417.01 187.984C413.949 187.984 411.188 187.465 408.728 186.426C406.323 185.387 404.245 183.911 402.496 181.998C400.801 180.03 399.489 177.707 398.56 175.028C397.631 172.295 397.166 169.261 397.166 165.926C397.166 162.537 397.631 159.475 398.56 156.742C399.544 154.009 400.883 151.685 402.578 149.772C404.273 147.804 406.295 146.301 408.646 145.262C411.051 144.223 413.703 143.704 416.6 143.704C419.443 143.704 422.012 144.223 424.308 145.262C426.659 146.301 428.654 147.749 430.294 149.608C431.934 151.412 433.191 153.571 434.066 156.086C434.941 158.601 435.378 161.361 435.378 164.368V167.484H404.054V169.452C404.054 171.311 404.355 173.033 404.956 174.618C405.557 176.203 406.405 177.57 407.498 178.718C408.646 179.866 410.013 180.768 411.598 181.424C413.238 182.025 415.042 182.326 417.01 182.326C419.853 182.326 422.313 181.67 424.39 180.358C426.467 179.046 428.053 177.242 429.146 174.946L433.984 178.226C432.727 181.069 430.622 183.419 427.67 185.278C424.773 187.082 421.219 187.984 417.01 187.984ZM416.6 149.116C414.796 149.116 413.129 149.444 411.598 150.1C410.067 150.756 408.728 151.658 407.58 152.806C406.487 153.954 405.612 155.321 404.956 156.906C404.355 158.437 404.054 160.131 404.054 161.99V162.564H428.326V161.662C428.326 159.803 428.025 158.109 427.424 156.578C426.877 155.047 426.085 153.735 425.046 152.642C424.062 151.494 422.832 150.619 421.356 150.018C419.935 149.417 418.349 149.116 416.6 149.116ZM506.426 187L491.256 144.688H497.898L503.966 162.4L510.526 181.506H510.854L517.414 162.4L523.482 144.688H529.96L514.79 187H506.426ZM560.4 135.34C558.486 135.34 557.147 134.957 556.382 134.192C555.616 133.372 555.234 132.361 555.234 131.158V129.846C555.234 128.643 555.616 127.659 556.382 126.894C557.147 126.074 558.486 125.664 560.4 125.664C562.313 125.664 563.652 126.074 564.418 126.894C565.183 127.659 565.566 128.643 565.566 129.846V131.158C565.566 132.361 565.183 133.372 564.418 134.192C563.652 134.957 562.313 135.34 560.4 135.34ZM541.868 181.424H557.12V150.264H541.868V144.688H563.68V181.424H577.948V187H541.868V181.424ZM605.436 187.984C601.008 187.984 597.181 187.246 593.956 185.77C590.785 184.239 588.079 182.217 585.838 179.702L590.266 175.848C592.288 177.98 594.502 179.62 596.908 180.768C599.313 181.916 602.21 182.49 605.6 182.49C608.88 182.49 611.558 181.916 613.636 180.768C615.768 179.565 616.834 177.707 616.834 175.192C616.834 174.099 616.615 173.197 616.178 172.486C615.795 171.721 615.248 171.119 614.538 170.682C613.827 170.245 613.034 169.917 612.16 169.698C611.285 169.425 610.356 169.206 609.372 169.042L602.73 168.058C601.254 167.839 599.641 167.539 597.892 167.156C596.197 166.773 594.639 166.172 593.218 165.352C591.796 164.477 590.594 163.329 589.61 161.908C588.68 160.487 588.216 158.628 588.216 156.332C588.216 154.2 588.626 152.369 589.446 150.838C590.32 149.253 591.523 147.941 593.054 146.902C594.584 145.809 596.388 145.016 598.466 144.524C600.543 143.977 602.812 143.704 605.272 143.704C609.098 143.704 612.406 144.305 615.194 145.508C618.036 146.711 620.469 148.378 622.492 150.51L618.228 154.528C617.736 153.927 617.107 153.325 616.342 152.724C615.631 152.068 614.729 151.494 613.636 151.002C612.597 150.455 611.367 150.018 609.946 149.69C608.524 149.362 606.884 149.198 605.026 149.198C601.691 149.198 599.122 149.772 597.318 150.92C595.568 152.068 594.694 153.735 594.694 155.922C594.694 157.015 594.885 157.945 595.268 158.71C595.705 159.421 596.279 159.995 596.99 160.432C597.7 160.869 598.493 161.225 599.368 161.498C600.297 161.717 601.226 161.908 602.156 162.072L608.798 163.056C610.328 163.275 611.941 163.575 613.636 163.958C615.33 164.341 616.888 164.969 618.31 165.844C619.731 166.664 620.906 167.785 621.836 169.206C622.82 170.627 623.312 172.486 623.312 174.782C623.312 178.991 621.672 182.244 618.392 184.54C615.166 186.836 610.848 187.984 605.436 187.984ZM654.736 135.34C652.822 135.34 651.483 134.957 650.718 134.192C649.952 133.372 649.57 132.361 649.57 131.158V129.846C649.57 128.643 649.952 127.659 650.718 126.894C651.483 126.074 652.822 125.664 654.736 125.664C656.649 125.664 657.988 126.074 658.754 126.894C659.519 127.659 659.902 128.643 659.902 129.846V131.158C659.902 132.361 659.519 133.372 658.754 134.192C657.988 134.957 656.649 135.34 654.736 135.34ZM636.204 181.424H651.456V150.264H636.204V144.688H658.016V181.424H672.284V187H636.204V181.424ZM699.28 187.984C696.328 187.984 693.649 187.465 691.244 186.426C688.893 185.387 686.87 183.911 685.176 181.998C683.536 180.03 682.278 177.707 681.404 175.028C680.529 172.295 680.092 169.233 680.092 165.844C680.092 162.509 680.529 159.475 681.404 156.742C682.278 154.009 683.536 151.685 685.176 149.772C686.87 147.804 688.893 146.301 691.244 145.262C693.649 144.223 696.328 143.704 699.28 143.704C702.232 143.704 704.883 144.223 707.234 145.262C709.639 146.301 711.662 147.804 713.302 149.772C714.996 151.685 716.281 154.009 717.156 156.742C718.03 159.475 718.468 162.509 718.468 165.844C718.468 169.233 718.03 172.295 717.156 175.028C716.281 177.707 714.996 180.03 713.302 181.998C711.662 183.911 709.639 185.387 707.234 186.426C704.883 187.465 702.232 187.984 699.28 187.984ZM699.28 182.326C702.942 182.326 705.894 181.233 708.136 179.046C710.377 176.859 711.498 173.47 711.498 168.878V162.81C711.498 158.218 710.377 154.829 708.136 152.642C705.894 150.455 702.942 149.362 699.28 149.362C695.617 149.362 692.665 150.455 690.424 152.642C688.182 154.829 687.062 158.218 687.062 162.81V168.878C687.062 173.47 688.182 176.859 690.424 179.046C692.665 181.233 695.617 182.326 699.28 182.326ZM729.884 187V144.688H736.444V151.576H736.772C737.209 150.537 737.756 149.553 738.412 148.624C739.068 147.64 739.86 146.793 740.79 146.082C741.774 145.371 742.922 144.797 744.234 144.36C745.546 143.923 747.076 143.704 748.826 143.704C753.254 143.704 756.807 145.125 759.486 147.968C762.164 150.756 763.504 154.719 763.504 159.858V187H756.944V161.006C756.944 157.125 756.096 154.255 754.402 152.396C752.707 150.483 750.22 149.526 746.94 149.526C745.628 149.526 744.343 149.69 743.086 150.018C741.828 150.346 740.708 150.838 739.724 151.494C738.74 152.15 737.947 152.997 737.346 154.036C736.744 155.075 736.444 156.277 736.444 157.644V187H729.884ZM229.65 277C226.425 277 224.047 276.098 222.516 274.294C221.04 272.49 220.302 270.167 220.302 267.324V240.264H206.198V234.688H216.694C218.115 234.688 219.099 234.415 219.646 233.868C220.247 233.267 220.548 232.255 220.548 230.834V219.764H226.862V234.688H246.132V240.264H226.862V271.424H246.132V277H229.65ZM290.758 277C288.189 277 286.357 276.344 285.264 275.032C284.171 273.72 283.487 272.08 283.214 270.112H282.804C281.875 272.572 280.371 274.513 278.294 275.934C276.271 277.301 273.538 277.984 270.094 277.984C265.666 277.984 262.14 276.836 259.516 274.54C256.892 272.244 255.58 269.101 255.58 265.11C255.58 261.174 257.001 258.14 259.844 256.008C262.741 253.876 267.388 252.81 273.784 252.81H282.804V248.628C282.804 245.512 281.929 243.189 280.18 241.658C278.431 240.073 275.943 239.28 272.718 239.28C269.875 239.28 267.552 239.854 265.748 241.002C263.944 242.095 262.495 243.599 261.402 245.512L256.974 242.232C257.521 241.139 258.259 240.073 259.188 239.034C260.117 237.995 261.265 237.093 262.632 236.328C263.999 235.508 265.557 234.879 267.306 234.442C269.055 233.95 270.996 233.704 273.128 233.704C278.103 233.704 282.039 234.961 284.936 237.476C287.888 239.991 289.364 243.489 289.364 247.972V271.26H295.268V277H290.758ZM271.242 272.49C272.937 272.49 274.467 272.299 275.834 271.916C277.255 271.479 278.485 270.932 279.524 270.276C280.563 269.565 281.355 268.745 281.902 267.816C282.503 266.832 282.804 265.793 282.804 264.7V257.73H273.784C269.848 257.73 266.978 258.277 265.174 259.37C263.37 260.463 262.468 262.049 262.468 264.126V265.848C262.468 268.035 263.233 269.702 264.764 270.85C266.349 271.943 268.509 272.49 271.242 272.49ZM322.428 277.984C318 277.984 314.173 277.246 310.948 275.77C307.777 274.239 305.071 272.217 302.83 269.702L307.258 265.848C309.281 267.98 311.495 269.62 313.9 270.768C316.305 271.916 319.203 272.49 322.592 272.49C325.872 272.49 328.551 271.916 330.628 270.768C332.76 269.565 333.826 267.707 333.826 265.192C333.826 264.099 333.607 263.197 333.17 262.486C332.787 261.721 332.241 261.119 331.53 260.682C330.819 260.245 330.027 259.917 329.152 259.698C328.277 259.425 327.348 259.206 326.364 259.042L319.722 258.058C318.246 257.839 316.633 257.539 314.884 257.156C313.189 256.773 311.631 256.172 310.21 255.352C308.789 254.477 307.586 253.329 306.602 251.908C305.673 250.487 305.208 248.628 305.208 246.332C305.208 244.2 305.618 242.369 306.438 240.838C307.313 239.253 308.515 237.941 310.046 236.902C311.577 235.809 313.381 235.016 315.458 234.524C317.535 233.977 319.804 233.704 322.264 233.704C326.091 233.704 329.398 234.305 332.186 235.508C335.029 236.711 337.461 238.378 339.484 240.51L335.22 244.528C334.728 243.927 334.099 243.325 333.334 242.724C332.623 242.068 331.721 241.494 330.628 241.002C329.589 240.455 328.359 240.018 326.938 239.69C325.517 239.362 323.877 239.198 322.018 239.198C318.683 239.198 316.114 239.772 314.31 240.92C312.561 242.068 311.686 243.735 311.686 245.922C311.686 247.015 311.877 247.945 312.26 248.71C312.697 249.421 313.271 249.995 313.982 250.432C314.693 250.869 315.485 251.225 316.36 251.498C317.289 251.717 318.219 251.908 319.148 252.072L325.79 253.056C327.321 253.275 328.933 253.575 330.628 253.958C332.323 254.341 333.881 254.969 335.302 255.844C336.723 256.664 337.899 257.785 338.828 259.206C339.812 260.627 340.304 262.486 340.304 264.782C340.304 268.991 338.664 272.244 335.384 274.54C332.159 276.836 327.84 277.984 322.428 277.984ZM353.114 216.32H359.674V254.614H360.002L367.382 247.644L381.486 234.688H389.522L371.974 251.252L391.572 277H383.454L366.972 255.024L359.674 261.666V277H353.114V216.32ZM416.764 277.984C412.336 277.984 408.509 277.246 405.284 275.77C402.113 274.239 399.407 272.217 397.166 269.702L401.594 265.848C403.617 267.98 405.831 269.62 408.236 270.768C410.641 271.916 413.539 272.49 416.928 272.49C420.208 272.49 422.887 271.916 424.964 270.768C427.096 269.565 428.162 267.707 428.162 265.192C428.162 264.099 427.943 263.197 427.506 262.486C427.123 261.721 426.577 261.119 425.866 260.682C425.155 260.245 424.363 259.917 423.488 259.698C422.613 259.425 421.684 259.206 420.7 259.042L414.058 258.058C412.582 257.839 410.969 257.539 409.22 257.156C407.525 256.773 405.967 256.172 404.546 255.352C403.125 254.477 401.922 253.329 400.938 251.908C400.009 250.487 399.544 248.628 399.544 246.332C399.544 244.2 399.954 242.369 400.774 240.838C401.649 239.253 402.851 237.941 404.382 236.902C405.913 235.809 407.717 235.016 409.794 234.524C411.871 233.977 414.14 233.704 416.6 233.704C420.427 233.704 423.734 234.305 426.522 235.508C429.365 236.711 431.797 238.378 433.82 240.51L429.556 244.528C429.064 243.927 428.435 243.325 427.67 242.724C426.959 242.068 426.057 241.494 424.964 241.002C423.925 240.455 422.695 240.018 421.274 239.69C419.853 239.362 418.213 239.198 416.354 239.198C413.019 239.198 410.45 239.772 408.646 240.92C406.897 242.068 406.022 243.735 406.022 245.922C406.022 247.015 406.213 247.945 406.596 248.71C407.033 249.421 407.607 249.995 408.318 250.432C409.029 250.869 409.821 251.225 410.696 251.498C411.625 251.717 412.555 251.908 413.484 252.072L420.126 253.056C421.657 253.275 423.269 253.575 424.964 253.958C426.659 254.341 428.217 254.969 429.638 255.844C431.059 256.664 432.235 257.785 433.164 259.206C434.148 260.627 434.64 262.486 434.64 264.782C434.64 268.991 433 272.244 429.72 274.54C426.495 276.836 422.176 277.984 416.764 277.984ZM463.44 277.738C461.199 277.738 459.613 277.273 458.684 276.344C457.809 275.415 457.372 274.239 457.372 272.818V271.342C457.372 269.921 457.809 268.745 458.684 267.816C459.613 266.887 461.199 266.422 463.44 266.422C465.681 266.422 467.239 266.887 468.114 267.816C469.043 268.745 469.508 269.921 469.508 271.342V272.818C469.508 274.239 469.043 275.415 468.114 276.344C467.239 277.273 465.681 277.738 463.44 277.738ZM510.608 277.738C508.366 277.738 506.781 277.273 505.852 276.344C504.977 275.415 504.54 274.239 504.54 272.818V271.342C504.54 269.921 504.977 268.745 505.852 267.816C506.781 266.887 508.366 266.422 510.608 266.422C512.849 266.422 514.407 266.887 515.282 267.816C516.211 268.745 516.676 269.921 516.676 271.342V272.818C516.676 274.239 516.211 275.415 515.282 276.344C514.407 277.273 512.849 277.738 510.608 277.738ZM557.776 277.738C555.534 277.738 553.949 277.273 553.02 276.344C552.145 275.415 551.708 274.239 551.708 272.818V271.342C551.708 269.921 552.145 268.745 553.02 267.816C553.949 266.887 555.534 266.422 557.776 266.422C560.017 266.422 561.575 266.887 562.45 267.816C563.379 268.745 563.844 269.921 563.844 271.342V272.818C563.844 274.239 563.379 275.415 562.45 276.344C561.575 277.273 560.017 277.738 557.776 277.738Z" fill="black"/>
<rect x="484" y="700" width="318" height="318" fill="#40A8F5"/>
<rect x="484" y="700" width="318" height="318" stroke="#2B2B2B" stroke-width="15"/>
<path fill-rule="evenodd" clip-rule="evenodd" d="M1587.17 210.368L1521.18 210.368V227.92L1587.17 227.92L1587.17 296.312H1604.72L1604.72 227.92L1673.51 227.92V210.368H1604.72L1604.72 143.978L1587.17 143.978L1587.17 210.368Z" fill="#2B2B2B"/>
<path d="M410.139 642.625H406.393V646.371H410.139V642.625Z" fill="#1A1A1A"/>
<path d="M425.026 627.648V627.637H417.637V631.383H421.383V638.877H413.889V635.131H417.637V631.383H413.889V635.131H410.143V642.625H411.801H413.889H421.383V646.371H425.131V627.648H425.026Z" fill="#1A1A1A"/>
<path d="M440.113 631.383V627.637H428.873V631.383H432.619V642.625H428.873V646.371H440.113V642.625H436.367V631.383H440.113Z" fill="#1A1A1A"/>
<path d="M316.471 635.131V631.383H327.711V627.637H316.471H312.725V638.877H316.471H327.711V642.625H331.459V635.131H327.711H316.471Z" fill="#1A1A1A"/>
<path d="M327.619 642.625H312.725V646.371H327.619V642.625Z" fill="#1A1A1A"/>
<path d="M275.254 631.383H279.002V642.625H275.254V646.371H286.496V642.625H282.748V631.383H286.496V627.637H275.254V631.383Z" fill="#1A1A1A"/>
<path d="M331.455 631.383H338.949V646.371H342.695V631.383H350.276V627.637H331.455V631.383Z" fill="#1A1A1A"/>
<path d="M353.984 631.383H357.709V642.625H353.984V646.371H365.181V642.625H361.455V631.383H365.181V627.637H353.984V631.383Z" fill="#1A1A1A"/>
<path d="M372.674 627.637H368.926V642.625V646.279V646.371H380.166V642.625H372.674V627.637Z" fill="#1A1A1A"/>
<path d="M387.66 627.637H383.914V642.625V646.279V646.371H395.154V642.625H387.66V627.637Z" fill="#1A1A1A"/>
<path d="M293.99 631.383V627.637H290.242V631.383V635.131V646.371H293.99V635.131H297.736V631.383H293.99Z" fill="#1A1A1A"/>
<path d="M301.48 635.129H297.734V638.875H301.48V635.129Z" fill="#1A1A1A"/>
<path d="M305.229 638.877H301.48V642.625H305.229V646.371H308.975V642.625V638.877V627.637H305.229V638.877Z" fill="#1A1A1A"/>
<g clip-path="url(#clip0_488_8689)">
<path d="M256.512 657.619V661.367H207.811V612.648H256.512V657.619ZM252.765 657.619V646.335H249.017V657.619H252.765ZM252.765 642.588V631.386H241.481V642.588H252.765ZM252.765 627.639V623.891H241.481V627.639H252.765ZM252.765 620.144V616.396H241.481V620.144H252.765ZM245.272 657.619V646.335H241.481V657.619H245.272ZM237.735 653.871V646.33H234.033V650.101H230.331V653.871H237.735ZM237.735 642.588V631.386H234.033V642.588H237.735ZM237.735 623.867V616.396H230.288V620.105L230.266 620.17H226.541V627.639H234.033V623.868L237.735 623.867ZM230.288 650.041V646.335H226.541V650.041H230.288ZM230.288 642.588V631.386H226.541V642.588H230.288ZM222.795 657.619V646.335H211.557V657.619H222.795ZM222.795 642.588V631.386H219.048V642.588H222.795ZM222.795 627.639V620.17H222.764V616.4H219.048V627.642L222.795 627.639ZM215.304 642.588V631.386H211.557V642.588H215.304ZM215.304 627.639V616.396H211.557V627.639H215.304Z" fill="#1A1A1A"/>
<path d="M252.764 646.336H249.018V657.619H252.764V646.336Z" fill="#40A8F5"/>
<path d="M252.761 631.387H241.479V642.588H252.761V631.387Z" fill="#40A8F5"/>
<path d="M252.761 623.891H241.479V627.639H252.761V623.891Z" fill="#FF5353"/>
<path d="M252.761 616.398H241.479V620.146H252.761V616.398Z" fill="#FFDF3A"/>
<path d="M245.268 646.336H241.479V657.619H245.268V646.336Z" fill="#FFDF3A"/>
<path d="M237.736 646.336V653.871H230.33V650.103H234.032V646.336H237.736Z" fill="#FF5353"/>
<path d="M237.735 631.387H234.033V642.588H237.735V631.387Z" fill="#FFDF3A"/>
<path d="M237.733 616.398V623.869H234.03H234.007V620.107H230.283V616.398H237.733Z" fill="#40A8F5"/>
<path d="M234.032 623.868V627.64H226.541V620.172H230.264V623.868H234.01H234.032Z" fill="#FFDF3A"/>
<path d="M234.01 620.105V623.867H230.264V620.171L230.286 620.105H234.01Z" fill="#1A1A1A"/>
<path d="M230.288 646.336H226.541V650.041H230.288V646.336Z" fill="#28F77E"/>
<path d="M230.288 631.387H226.541V642.588H230.288V631.387Z" fill="#FF5353"/>
<path d="M222.794 646.336V657.619H211.557V646.336H215.301H219.048H222.794Z" fill="#40A8F5"/>
<path d="M222.795 631.387H219.049V642.588H222.795V631.387Z" fill="#40A8F5"/>
<path d="M222.795 620.172V627.641H219.049V616.398H222.77V620.172H222.795Z" fill="#FFDF3A"/>
<path d="M215.303 631.387H211.557V642.588H215.303V631.387Z" fill="#FFDF3A"/>
<path d="M215.303 616.398H211.557V627.641H215.303V616.398Z" fill="#FF5353"/>
</g>
<defs>
<clipPath id="clip0_488_8689">
<rect width="48.6994" height="48.6994" fill="white" transform="translate(207.809 612.648)"/>
</clipPath>
</defs>
</svg>
