<svg width="1920" height="1080" viewBox="0 0 1920 1080" fill="none" xmlns="http://www.w3.org/2000/svg">
<path fill-rule="evenodd" clip-rule="evenodd" d="M803 381L803 63L483 63L165 63L165 381L165 701L483 701L483 381L803 381Z" fill="#FFDF3A"/>
<path d="M803 63L810.5 63L810.5 55.5L803 55.5L803 63ZM803 381L803 388.5L810.5 388.5L810.5 381L803 381ZM483 63L483 55.5H483V63ZM165 63V55.5L157.5 55.5L157.5 63L165 63ZM165 701L157.5 701L157.5 708.5L165 708.5L165 701ZM483 701L483 708.5L490.5 708.5L490.5 701L483 701ZM483 381L483 373.5L475.5 373.5L475.5 381L483 381ZM795.5 63L795.5 381L810.5 381L810.5 63L795.5 63ZM483 70.5L803 70.5L803 55.5L483 55.5L483 70.5ZM165 70.5L483 70.5L483 55.5L165 55.5L165 70.5ZM172.5 381L172.5 63L157.5 63L157.5 381L172.5 381ZM172.5 701L172.5 381L157.5 381L157.5 701L172.5 701ZM483 693.5L165 693.5L165 708.5L483 708.5L483 693.5ZM475.5 381L475.5 701L490.5 701L490.5 381L475.5 381ZM803 373.5L483 373.5L483 388.5L803 388.5L803 373.5Z" fill="#2B2B2B"/>
<mask id="path-3-outside-1_485_8630" maskUnits="userSpaceOnUse" x="660.889" y="433.223" width="212" height="212" fill="black">
<rect fill="white" x="660.889" y="433.223" width="212" height="212"/>
<path fill-rule="evenodd" clip-rule="evenodd" d="M714 556.556V451.223H678.889V556.556H714ZM749.112 556.556V591.667H784.222V556.556H819.333V591.667H784.223V626.778H749.112V591.667H714.001V556.556H749.112ZM854.444 451.223V556.556H819.333V451.223H854.444Z"/>
</mask>
<path fill-rule="evenodd" clip-rule="evenodd" d="M714 556.556V451.223H678.889V556.556H714ZM749.112 556.556V591.667H784.222V556.556H819.333V591.667H784.223V626.778H749.112V591.667H714.001V556.556H749.112ZM854.444 451.223V556.556H819.333V451.223H854.444Z" fill="#F7F7F7"/>
<path d="M714 451.223H731.555V433.667H714V451.223ZM714 556.556V574.112H731.555V556.556H714ZM678.889 451.223V433.667H661.333V451.223H678.889ZM678.889 556.556H661.333V574.112H678.889V556.556ZM749.112 591.667H731.556V609.222H749.112V591.667ZM749.112 556.556H766.667V539.001H749.112V556.556ZM784.222 591.667V609.222H801.778V591.667H784.222ZM784.222 556.556V539.001H766.667V556.556H784.222ZM819.333 556.556H836.889V539.001H819.333V556.556ZM819.333 591.667V609.223H836.889V591.667H819.333ZM784.223 591.667V574.112H766.667V591.667H784.223ZM784.223 626.778V644.333H801.778V626.778H784.223ZM749.112 626.778H731.556V644.333H749.112V626.778ZM749.112 591.667H766.667V574.112H749.112V591.667ZM714.001 591.667H696.445V609.223H714.001V591.667ZM714.001 556.556V539.001H696.445V556.556H714.001ZM854.444 556.556V574.112H872V556.556H854.444ZM854.444 451.223H872V433.667H854.444V451.223ZM819.333 556.556H801.778V574.112H819.333V556.556ZM819.333 451.223V433.667H801.778V451.223H819.333ZM696.444 451.223V556.556H731.555V451.223H696.444ZM678.889 468.778H714V433.667H678.889V468.778ZM696.444 556.556V451.223H661.333V556.556H696.444ZM714 539H678.889V574.112H714V539ZM766.667 591.667V556.556H731.556V591.667H766.667ZM784.222 574.111H749.112V609.222H784.222V574.111ZM766.667 556.556V591.667H801.778V556.556H766.667ZM819.333 539.001H784.222V574.112H819.333V539.001ZM836.889 591.667V556.556H801.778V591.667H836.889ZM784.223 609.223H819.333V574.112H784.223V609.223ZM801.778 626.778V591.667H766.667V626.778H801.778ZM749.112 644.333H784.223V609.222H749.112V644.333ZM731.556 591.667V626.778H766.667V591.667H731.556ZM714.001 609.223H749.112V574.112H714.001V609.223ZM696.445 556.556V591.667H731.556V556.556H696.445ZM749.112 539.001H714.001V574.112H749.112V539.001ZM872 556.556V451.223H836.889V556.556H872ZM819.333 574.112H854.444V539H819.333V574.112ZM801.778 451.223V556.556H836.889V451.223H801.778ZM854.444 433.667H819.333V468.778H854.444V433.667Z" fill="#2B2B2B" mask="url(#path-3-outside-1_485_8630)"/>
<mask id="path-5-outside-2_485_8630" maskUnits="userSpaceOnUse" x="854.002" y="433.223" width="212" height="212" fill="black">
<rect fill="white" x="854.002" y="433.223" width="212" height="212"/>
<path fill-rule="evenodd" clip-rule="evenodd" d="M907.113 451.223V626.778H872.002V451.223H907.113ZM1012.45 486.334V451.223H907.113V486.334H1012.45V591.667H1047.56V486.334H1012.45ZM1012.45 626.778V591.667H907.113V626.778H1012.45Z"/>
</mask>
<path fill-rule="evenodd" clip-rule="evenodd" d="M907.113 451.223V626.778H872.002V451.223H907.113ZM1012.45 486.334V451.223H907.113V486.334H1012.45V591.667H1047.56V486.334H1012.45ZM1012.45 626.778V591.667H907.113V626.778H1012.45Z" fill="#F7F7F7"/>
<path d="M907.113 626.778V644.334H924.669V626.778H907.113ZM907.113 451.223H924.669V433.667H907.113V451.223ZM872.002 626.778H854.446V644.334H872.002V626.778ZM872.002 451.223V433.667H854.446V451.223H872.002ZM1012.45 451.223H1030V433.667H1012.45V451.223ZM1012.45 486.334H994.891V503.889H1012.45V486.334ZM907.113 451.223V433.667H889.558V451.223H907.113ZM907.113 486.334H889.558V503.889H907.113V486.334ZM1012.45 486.334H1030V468.778H1012.45V486.334ZM1012.45 591.667H994.891V609.222H1012.45V591.667ZM1047.56 591.667V609.222H1065.11V591.667H1047.56ZM1047.56 486.334H1065.11V468.778H1047.56V486.334ZM1012.45 591.667H1030V574.112H1012.45V591.667ZM1012.45 626.778V644.334H1030V626.778H1012.45ZM907.113 591.667V574.112H889.558V591.667H907.113ZM907.113 626.778H889.558V644.334H907.113V626.778ZM924.669 626.778V451.223H889.558V626.778H924.669ZM872.002 644.334H907.113V609.223H872.002V644.334ZM854.446 451.223V626.778H889.558V451.223H854.446ZM907.113 433.667H872.002V468.778H907.113V433.667ZM994.891 451.223V486.334H1030V451.223H994.891ZM907.113 468.778H1012.45V433.667H907.113V468.778ZM924.669 486.334V451.223H889.558V486.334H924.669ZM1012.45 468.778H907.113V503.889H1012.45V468.778ZM1030 591.667V486.334H994.891V591.667H1030ZM1047.56 574.111H1012.45V609.222H1047.56V574.111ZM1030 486.334V591.667H1065.11V486.334H1030ZM1012.45 503.889H1047.56V468.778H1012.45V503.889ZM994.891 591.667V626.778H1030V591.667H994.891ZM907.113 609.223H1012.45V574.112H907.113V609.223ZM924.669 626.778V591.667H889.558V626.778H924.669ZM1012.45 609.223H907.113V644.334H1012.45V609.223Z" fill="#2B2B2B" mask="url(#path-5-outside-2_485_8630)"/>
<mask id="path-7-outside-3_485_8630" maskUnits="userSpaceOnUse" x="1047.11" y="433.223" width="212" height="212" fill="black">
<rect fill="white" x="1047.11" y="433.223" width="212" height="212"/>
<path fill-rule="evenodd" clip-rule="evenodd" d="M1100.22 451.223V626.778H1065.11V451.223H1100.22ZM1205.55 486.334V451.223H1100.22V486.334H1205.55V556.556H1240.67V486.334H1205.55ZM1205.55 591.667V556.556H1100.22V591.667H1205.55Z"/>
</mask>
<path fill-rule="evenodd" clip-rule="evenodd" d="M1100.22 451.223V626.778H1065.11V451.223H1100.22ZM1205.55 486.334V451.223H1100.22V486.334H1205.55V556.556H1240.67V486.334H1205.55ZM1205.55 591.667V556.556H1100.22V591.667H1205.55Z" fill="#F7F7F7"/>
<path d="M1100.22 626.778V644.334H1117.78V626.778H1100.22ZM1100.22 451.223H1117.78V433.667H1100.22V451.223ZM1065.11 626.778H1047.55V644.334H1065.11V626.778ZM1065.11 451.223V433.667H1047.55V451.223H1065.11ZM1205.55 486.334H1188V503.889H1205.55V486.334ZM1205.55 451.223H1223.11V433.667H1205.55V451.223ZM1100.22 451.223V433.667H1082.67V451.223H1100.22ZM1100.22 486.334H1082.67V503.889H1100.22V486.334ZM1205.55 486.334H1223.11V468.778H1205.55V486.334ZM1205.55 556.556H1188V574.111H1205.55V556.556ZM1240.67 556.556V574.111H1258.22V556.556H1240.67ZM1240.67 486.334H1258.22V468.778H1240.67V486.334ZM1205.55 556.556H1223.11V539.001H1205.55V556.556ZM1205.55 591.667V609.223H1223.11V591.667H1205.55ZM1100.22 556.556V539.001H1082.67V556.556H1100.22ZM1100.22 591.667H1082.67V609.223H1100.22V591.667ZM1117.78 626.778V451.223H1082.66V626.778H1117.78ZM1065.11 644.334H1100.22V609.223H1065.11V644.334ZM1047.55 451.223V626.778H1082.66V451.223H1047.55ZM1100.22 433.667H1065.11V468.778H1100.22V433.667ZM1223.11 486.334V451.223H1188V486.334H1223.11ZM1205.55 433.667H1100.22V468.778H1205.55V433.667ZM1082.67 451.223V486.334H1117.78V451.223H1082.67ZM1100.22 503.889H1205.55V468.778H1100.22V503.889ZM1188 486.334V556.556H1223.11V486.334H1188ZM1205.55 574.111H1240.67V539H1205.55V574.111ZM1258.22 556.556V486.334H1223.11V556.556H1258.22ZM1240.67 468.778H1205.55V503.889H1240.67V468.778ZM1188 556.556V591.667H1223.11V556.556H1188ZM1100.22 574.112H1205.55V539.001H1100.22V574.112ZM1117.78 591.667V556.556H1082.67V591.667H1117.78ZM1205.55 574.112H1100.22V609.223H1205.55V574.112Z" fill="#2B2B2B" mask="url(#path-7-outside-3_485_8630)"/>
<path d="M722.778 451.223V442.445H714H678.889H670.111V451.223V486.334V495.112H678.889H714H722.778V486.334V451.223Z" fill="#28F77E" stroke="#2B2B2B" stroke-width="17.5556"/>
<mask id="path-10-outside-4_485_8630" maskUnits="userSpaceOnUse" x="854.002" y="538.555" width="106" height="106" fill="black">
<rect fill="white" x="854.002" y="538.555" width="106" height="106"/>
<path fill-rule="evenodd" clip-rule="evenodd" d="M907.113 556.555V591.666H942.224V626.777H907.113H907.113H872.002V556.555H907.113Z"/>
</mask>
<path fill-rule="evenodd" clip-rule="evenodd" d="M907.113 556.555V591.666H942.224V626.777H907.113H907.113H872.002V556.555H907.113Z" fill="#FFDF3A"/>
<path d="M907.113 591.666H889.558V609.221H907.113V591.666ZM907.113 556.555H924.669V538.999H907.113V556.555ZM942.224 591.666H959.779V574.11H942.224V591.666ZM942.224 626.777V644.332H959.779V626.777H942.224ZM872.002 626.777H854.446V644.332H872.002V626.777ZM872.002 556.555V538.999H854.446V556.555H872.002ZM924.669 591.666V556.555H889.558V591.666H924.669ZM942.224 574.11H907.113V609.221H942.224V574.11ZM959.779 626.777V591.666H924.668V626.777H959.779ZM907.113 644.332H942.224V609.221H907.113V644.332ZM907.113 644.332H907.113V609.221H907.113V644.332ZM872.002 644.332H907.113V609.221H872.002V644.332ZM854.446 556.555V626.777H889.558V556.555H854.446ZM907.113 538.999H872.002V574.11H907.113V538.999Z" fill="#2B2B2B" mask="url(#path-10-outside-4_485_8630)"/>
<path d="M1109 521.445V512.668H1100.22H1065.11H1056.33V521.445V626.779V635.556H1065.11H1100.22H1109V626.779V521.445Z" fill="#40A8F5" stroke="#2B2B2B" stroke-width="17.5556"/>
<path d="M991.086 253.31C981.708 244.031 977.365 232.783 977.365 219.518C977.365 206.178 981.684 194.88 991.086 185.524C995.552 180.974 1000.9 177.376 1006.79 174.95C1012.65 172.539 1018.95 171.357 1025.29 171.477C1037.23 171.277 1048.8 175.69 1057.69 183.833C1059.05 185.095 1059.07 186.355 1057.84 187.566L1047.4 198.334C1046.24 199.393 1045.1 199.393 1044.04 198.334C1039.05 193.854 1032.6 191.437 1025.95 191.551C1018.45 191.551 1012.21 194.224 1007.2 199.62C1004.81 202.201 1002.94 205.23 1001.72 208.531C1000.49 211.85 999.923 215.376 1000.04 218.912C1000.04 226.377 1002.26 232.731 1007.3 238.003C1009.71 240.571 1012.64 242.604 1015.89 243.971C1019.12 245.329 1022.6 245.985 1026.1 245.896C1032.64 246.048 1039.01 243.783 1044.04 239.517C1045.28 238.457 1046.44 238.507 1047.5 239.643L1057.96 250.688C1059.12 251.848 1059.07 253.033 1057.84 254.268C1049.08 262.791 1037.38 267.424 1025.29 267.156C1018.96 267.28 1012.68 266.117 1006.82 263.738C1000.93 261.343 995.577 257.788 991.086 253.285V253.31V253.31Z" fill="url(#paint0_linear_485_8630)"/>
<path d="M861.383 264.384V174.101C861.372 173.758 861.433 173.418 861.561 173.1C861.687 172.782 861.88 172.496 862.124 172.261C862.329 172.021 862.584 171.829 862.87 171.698C863.155 171.567 863.465 171.5 863.778 171.504H896.03C909.256 172.513 919.127 176.295 928.208 185.627C937.339 194.957 940.968 205.549 942.126 219.166C943.237 232.279 937.882 243.627 928.8 252.958C924.598 257.461 919.507 261.044 913.849 263.479C908.224 265.898 902.153 267.108 896.031 267.03H863.776C863.464 267.028 863.156 266.96 862.872 266.83C862.586 266.699 862.331 266.509 862.122 266.273C861.878 266.029 861.686 265.738 861.558 265.417C861.431 265.096 861.371 264.752 861.382 264.407V264.382L861.383 264.384ZM882.013 196.042V246.806H894.697C902.1 246.806 908.269 244.132 913.155 238.812C918.041 233.5 920.676 226.43 920.485 219.142C920.485 211.399 918.017 204.867 913.155 199.547C910.827 196.957 907.968 194.898 904.773 193.511C901.597 192.133 898.158 191.465 894.697 191.553H882.013V196.042V196.042Z" fill="url(#paint1_linear_485_8630)"/>
<path d="M979.956 203.076L959.968 247.965H959.153L937.808 199.949C940.225 205.7 941.51 212.004 942.126 219.141C942.941 228.724 940.3 237.349 935.291 244.965L956.513 291.442C957.056 292.451 957.796 292.955 958.783 292.955H960.116C961.103 292.955 961.843 292.476 962.361 291.467L983.978 244.435C979.471 236.909 977.178 228.265 977.364 219.495C977.364 213.643 978.203 208.146 979.956 203.076V203.076Z" fill="url(#paint2_linear_485_8630)"/>
<path d="M801 63V55.5H793.5V63H801ZM1119 63H1126.5V55.5H1119V63ZM1119 381V388.5H1126.5V381H1119ZM801 381H793.5V388.5H801V381ZM801 70.5H1119V55.5H801V70.5ZM1111.5 63V381H1126.5V63H1111.5ZM1119 373.5H801V388.5H1119V373.5ZM808.5 381V63H793.5V381H808.5Z" fill="#2B2B2B"/>
<path fill-rule="evenodd" clip-rule="evenodd" d="M1597.09 147.848C1556.07 147.848 1522.85 180.363 1522.85 220.507C1522.85 252.659 1544.1 279.815 1573.61 289.442C1577.32 290.078 1578.71 287.898 1578.71 285.991C1578.71 284.265 1578.62 278.543 1578.62 272.458C1559.97 275.819 1555.14 268.008 1553.66 263.921C1552.82 261.832 1549.2 255.383 1546.05 253.658C1543.45 252.295 1539.74 248.935 1545.95 248.844C1551.8 248.753 1555.98 254.112 1557.37 256.292C1564.05 267.281 1574.72 264.193 1578.99 262.286C1579.64 257.563 1581.59 254.384 1583.72 252.568C1567.2 250.751 1549.94 244.484 1549.94 216.692C1549.94 208.791 1552.82 202.251 1557.55 197.165C1556.81 195.349 1554.21 187.901 1558.3 177.91C1558.3 177.91 1564.51 176.003 1578.71 185.358C1584.65 183.723 1590.96 182.906 1597.27 182.906C1603.58 182.906 1609.89 183.723 1615.83 185.358C1630.03 175.912 1636.25 177.91 1636.25 177.91C1640.33 187.901 1637.73 195.349 1636.99 197.165C1641.72 202.251 1644.6 208.7 1644.6 216.692C1644.6 244.575 1627.25 250.751 1610.73 252.568C1613.42 254.838 1615.74 259.198 1615.74 266.01C1615.74 275.728 1615.65 283.539 1615.65 285.991C1615.65 287.898 1617.04 290.169 1620.75 289.442C1650.08 279.815 1671.33 252.568 1671.33 220.507C1671.33 180.363 1638.11 147.848 1597.09 147.848Z" fill="#24292E"/>
<path d="M1438 63V55.5H1430.5V63H1438ZM1756 63H1763.5V55.5H1756V63ZM1756 381V388.5H1763.5V381H1756ZM1438 381H1430.5V388.5H1438V381ZM1438 70.5H1756V55.5H1438V70.5ZM1748.5 63V381H1763.5V63H1748.5ZM1756 373.5H1438V388.5H1756V373.5ZM1445.5 381V63H1430.5V381H1445.5Z" fill="#2B2B2B"/>
<path d="M323.154 919.496C358.384 919.496 386.944 890.791 386.944 855.381C386.944 819.971 358.384 791.266 323.154 791.266C287.923 791.266 259.363 819.971 259.363 855.381C259.363 890.791 287.923 919.496 323.154 919.496Z" fill="#FFD21E"/>
<path d="M386.941 855.386C386.941 819.976 358.381 791.271 323.151 791.271C287.92 791.271 259.36 819.976 259.36 855.386C259.36 890.796 287.92 919.501 323.151 919.501C358.381 919.501 386.941 890.796 386.941 855.386ZM252.018 855.386C252.018 815.9 283.865 783.891 323.151 783.891C362.436 783.891 394.284 815.9 394.284 855.386C394.284 894.872 362.436 926.881 323.151 926.881C283.865 926.881 252.018 894.872 252.018 855.386Z" fill="#FF9D0B"/>
<path d="M343.879 837.932C346.219 838.762 347.149 843.596 349.513 842.333C353.989 839.941 355.688 834.355 353.308 829.857C350.928 825.358 345.37 823.651 340.895 826.043C336.419 828.435 334.72 834.02 337.1 838.519C338.223 840.642 341.788 837.19 343.879 837.932Z" fill="#3A3B45"/>
<path d="M300.634 837.932C298.294 838.762 297.363 843.596 295 842.333C290.524 839.941 288.825 834.355 291.205 829.857C293.585 825.358 299.142 823.651 303.618 826.043C308.094 828.435 309.793 834.02 307.413 838.519C306.29 840.642 302.725 837.19 300.634 837.932Z" fill="#3A3B45"/>
<path d="M322.694 882.212C340.736 882.212 346.558 866.044 346.558 857.742C346.558 853.427 343.672 854.785 339.05 857.085C334.778 859.21 329.024 862.14 322.694 862.14C309.514 862.14 298.83 849.439 298.83 857.742C298.83 866.044 304.652 882.212 322.694 882.212Z" fill="#3A3B45"/>
<path d="M366.29 846.618C369.585 846.618 372.256 843.933 372.256 840.621C372.256 837.31 369.585 834.625 366.29 834.625C362.995 834.625 360.324 837.31 360.324 840.621C360.324 843.933 362.995 846.618 366.29 846.618Z" fill="#FF9D0B"/>
<path d="M280.929 846.618C284.224 846.618 286.895 843.933 286.895 840.621C286.895 837.31 284.224 834.625 280.929 834.625C277.634 834.625 274.963 837.31 274.963 840.621C274.963 843.933 277.634 846.618 280.929 846.618Z" fill="#FF9D0B"/>
<path d="M268.655 866.918C265.683 866.918 263.027 868.145 261.175 870.37C260.029 871.748 258.832 873.97 258.735 877.296C257.489 876.937 256.29 876.735 255.17 876.735C252.325 876.735 249.755 877.831 247.938 879.822C245.603 882.378 244.565 885.518 245.017 888.66C245.232 890.156 245.729 891.498 246.473 892.739C244.905 894.014 243.75 895.789 243.192 897.924C242.755 899.597 242.308 903.083 244.646 906.673C244.497 906.907 244.358 907.151 244.228 907.4C242.822 910.083 242.732 913.114 243.972 915.937C245.854 920.216 250.53 923.587 259.609 927.205C265.257 929.456 270.425 930.895 270.471 930.908C277.938 932.854 284.692 933.843 290.538 933.843C301.285 933.843 308.978 930.535 313.406 924.011C320.532 913.505 319.513 903.896 310.292 894.634C305.189 889.509 301.797 881.951 301.09 880.293C299.666 875.381 295.899 869.922 289.637 869.922H289.635C289.108 869.922 288.576 869.964 288.051 870.047C285.309 870.481 282.911 872.067 281.198 874.455C279.35 872.145 277.555 870.307 275.93 869.27C273.481 867.709 271.034 866.918 268.655 866.918ZM268.655 874.298C269.591 874.298 270.735 874.699 271.996 875.503C275.912 877.999 283.467 891.053 286.234 896.131C287.161 897.832 288.745 898.551 290.171 898.551C293.002 898.551 295.212 895.723 290.43 892.129C283.24 886.721 285.762 877.881 289.195 877.337C289.345 877.313 289.494 877.302 289.637 877.302C292.758 877.302 294.135 882.708 294.135 882.708C294.135 882.708 298.169 892.892 305.101 899.854C312.033 906.817 312.391 912.406 307.339 919.852C303.893 924.93 297.297 926.463 290.538 926.463C283.528 926.463 276.341 924.814 272.314 923.764C272.115 923.712 247.622 916.758 250.724 910.839C251.245 909.845 252.105 909.446 253.186 909.446C257.555 909.446 265.501 915.981 268.918 915.981C269.681 915.981 270.219 915.655 270.439 914.858C271.895 909.609 248.307 907.402 250.295 899.798C250.645 898.453 251.596 897.907 252.932 897.909C258.706 897.909 271.658 908.114 274.373 908.114C274.581 908.114 274.73 908.053 274.81 907.924C276.171 905.717 275.425 904.177 265.837 898.345C256.25 892.511 249.52 889.001 253.347 884.813C253.788 884.33 254.412 884.116 255.17 884.116C260.991 884.117 274.744 896.697 274.744 896.697C274.744 896.697 278.456 900.577 280.701 900.577C281.217 900.577 281.656 900.372 281.953 899.867C283.544 897.169 267.17 884.697 266.247 879.551C265.621 876.064 266.685 874.298 268.655 874.298Z" fill="#FF9D0B"/>
<path d="M307.337 919.851C312.389 912.404 312.031 906.816 305.099 899.853C298.168 892.891 294.133 882.707 294.133 882.707C294.133 882.707 292.626 876.791 289.193 877.336C285.76 877.88 283.24 886.72 290.43 892.127C297.621 897.533 288.998 901.207 286.232 896.129C283.466 891.052 275.912 877.998 271.994 875.502C268.079 873.005 265.322 874.404 266.245 879.55C267.168 884.696 283.544 897.168 281.951 899.867C280.358 902.565 274.742 896.696 274.742 896.696C274.742 896.696 257.171 880.624 253.345 884.812C249.52 889 256.248 892.509 265.836 898.343C275.425 904.176 276.169 905.716 274.808 907.923C273.446 910.13 252.281 892.194 250.293 899.797C248.306 907.401 271.893 909.607 270.438 914.857C268.982 920.108 253.823 904.921 250.722 910.838C247.62 916.757 272.114 923.711 272.312 923.763C280.224 925.825 300.317 930.196 307.337 919.851Z" fill="#FFD21E"/>
<path d="M378.566 866.918C381.538 866.918 384.195 868.145 386.047 870.37C387.192 871.748 388.389 873.97 388.486 877.296C389.733 876.937 390.932 876.735 392.051 876.735C394.897 876.735 397.467 877.831 399.284 879.822C401.619 882.378 402.656 885.518 402.205 888.66C401.99 890.156 401.492 891.498 400.749 892.739C402.317 894.014 403.471 895.789 404.029 897.924C404.466 899.597 404.914 903.083 402.575 906.673C402.724 906.907 402.864 907.151 402.994 907.4C404.4 910.083 404.49 913.114 403.249 915.937C401.368 920.216 396.692 923.587 387.613 927.205C381.964 929.456 376.797 930.895 376.751 930.908C369.283 932.854 362.53 933.843 356.683 933.843C345.937 933.843 338.244 930.535 333.816 924.011C326.69 913.505 327.709 903.896 336.929 894.634C342.032 889.509 345.425 881.951 346.132 880.293C347.556 875.381 351.323 869.922 357.584 869.922H357.586C358.113 869.922 358.645 869.964 359.17 870.047C361.913 870.481 364.31 872.067 366.023 874.455C367.872 872.145 369.667 870.307 371.292 869.27C373.74 867.709 376.187 866.918 378.566 866.918ZM378.566 874.298C377.63 874.298 376.487 874.699 375.225 875.503C371.31 877.999 363.754 891.053 360.988 896.131C360.061 897.832 358.477 898.551 357.05 898.551C354.22 898.551 352.009 895.723 356.791 892.129C363.982 886.721 361.46 877.881 358.027 877.337C357.876 877.313 357.728 877.302 357.584 877.302C354.464 877.302 353.087 882.708 353.087 882.708C353.087 882.708 349.052 892.892 342.121 899.854C335.189 906.817 334.831 912.406 339.883 919.852C343.328 924.93 349.924 926.463 356.683 926.463C363.694 926.463 370.88 924.814 374.908 923.764C375.106 923.712 399.6 916.758 396.497 910.839C395.976 909.845 395.117 909.446 394.036 909.446C389.667 909.446 381.72 915.981 378.304 915.981C377.54 915.981 377.002 915.655 376.782 914.858C375.326 909.609 398.915 907.402 396.927 899.798C396.576 898.453 395.625 897.907 394.289 897.909C388.516 897.909 375.563 908.114 372.848 908.114C372.641 908.114 372.492 908.053 372.411 907.924C371.051 905.717 371.796 904.177 381.384 898.345C390.972 892.511 397.702 889.001 393.874 884.813C393.434 884.33 392.81 884.116 392.051 884.116C386.23 884.117 372.477 896.697 372.477 896.697C372.477 896.697 368.766 900.577 366.521 900.577C366.005 900.577 365.566 900.372 365.269 899.867C363.677 897.169 380.051 884.697 380.975 879.551C381.601 876.064 380.536 874.298 378.566 874.298Z" fill="#FF9D0B"/>
<path d="M339.887 919.851C334.835 912.404 335.193 906.816 342.125 899.853C349.056 892.891 353.091 882.707 353.091 882.707C353.091 882.707 354.598 876.791 358.031 877.336C361.464 877.88 363.984 886.72 356.794 892.127C349.603 897.533 358.225 901.207 360.992 896.129C363.758 891.052 371.312 877.998 375.229 875.502C379.145 873.005 381.902 874.404 380.979 879.55C380.055 884.696 363.679 897.168 365.273 899.867C366.866 902.565 372.481 896.696 372.481 896.696C372.481 896.696 390.053 880.624 393.878 884.812C397.704 889 390.976 892.509 381.388 898.343C371.798 904.176 371.055 905.716 372.415 907.923C373.777 910.13 394.943 892.194 396.931 899.797C398.917 907.401 375.33 909.607 376.786 914.857C378.242 920.108 393.401 904.921 396.501 910.838C399.604 916.757 375.11 923.711 374.912 923.763C367 925.825 346.906 930.196 339.887 919.851Z" fill="#FFD21E"/>
<mask id="mask0_485_8630" style="mask-type:alpha" maskUnits="userSpaceOnUse" x="298" y="854" width="49" height="29">
<path d="M322.694 882.212C340.736 882.212 346.558 866.044 346.558 857.742C346.558 853.427 343.672 854.785 339.05 857.085C334.778 859.21 329.024 862.14 322.694 862.14C309.514 862.14 298.83 849.439 298.83 857.742C298.83 866.044 304.652 882.212 322.694 882.212Z" fill="white"/>
</mask>
<g mask="url(#mask0_485_8630)">
<path d="M323.151 901.053C331.944 901.053 339.072 893.889 339.072 885.051C339.072 878.168 334.748 872.299 328.681 870.041C328.457 869.958 328.232 869.879 328.004 869.806C326.474 869.315 324.844 874.6 323.151 874.6C321.57 874.6 320.043 869.281 318.601 869.712C312.025 871.68 307.23 877.803 307.23 885.051C307.23 893.889 314.358 901.053 323.151 901.053Z" fill="#F94040"/>
</g>
<path d="M165 700V692.5H157.5V700H165ZM483 700H490.5V692.5H483V700ZM483 1018V1025.5H490.5V1018H483ZM165 1018H157.5V1025.5H165V1018ZM165 707.5H483V692.5H165V707.5ZM475.5 700V1018H490.5V700H475.5ZM483 1010.5H165V1025.5H483V1010.5ZM172.5 1018V700H157.5V1018H172.5Z" fill="#2B2B2B"/>
<path d="M1119 63V55.5H1111.5V63H1119ZM1437 63H1444.5V55.5H1437V63ZM1437 381V388.5H1444.5V381H1437ZM1119 381H1111.5V388.5H1119V381ZM1119 70.5H1437V55.5H1119V70.5ZM1429.5 63V381H1444.5V63H1429.5ZM1437 373.5H1119V388.5H1437V373.5ZM1126.5 381V63H1111.5V381H1126.5Z" fill="#2B2B2B"/>
<g clip-path="url(#clip0_485_8630)">
<path fill-rule="evenodd" clip-rule="evenodd" d="M1231.18 834.112C1231.18 834.222 1231.18 834.332 1231.17 834.441V881.357C1231.18 881.466 1231.18 881.576 1231.18 881.686C1231.18 890.431 1219.24 897.521 1204.52 897.521C1189.83 897.521 1177.91 890.461 1177.86 881.741H1177.85V834.243H1177.86C1177.86 834.199 1177.86 834.156 1177.86 834.112C1177.86 825.367 1189.8 818.277 1204.52 818.277C1219.24 818.277 1231.18 825.367 1231.18 834.112ZM1196.96 871.406L1194.92 877.574C1194.14 879.845 1192.79 880.982 1190.87 880.986C1189.74 880.995 1188.65 880.572 1187.82 879.801C1187.41 879.459 1187.08 879.029 1186.85 878.542C1186.62 878.054 1186.51 877.521 1186.5 876.981C1186.51 876.64 1186.54 876.299 1186.6 875.963C1186.66 875.57 1186.75 875.184 1186.89 874.812L1198.51 839.138C1199.58 835.993 1201.54 834.418 1204.41 834.414C1207.28 834.41 1209.23 835.979 1210.26 839.121L1221.87 874.795C1221.96 875.146 1222.04 875.525 1222.13 875.945C1222.21 876.301 1222.25 876.663 1222.26 877.027C1222.25 877.557 1222.13 878.079 1221.9 878.556C1221.68 879.033 1221.35 879.452 1220.95 879.783C1220.11 880.554 1219.02 880.977 1217.89 880.969C1215.97 880.969 1214.62 879.831 1213.85 877.557L1211.89 871.406H1196.96ZM1208.84 862.286L1204.41 847.326L1199.91 862.286H1208.84ZM1241.19 849.427C1240.42 850.354 1240.03 851.554 1240.11 852.77V876.332C1240.03 877.554 1240.41 878.76 1241.17 879.71C1241.95 880.488 1242.99 880.923 1244.08 880.923C1245.18 880.923 1246.22 880.488 1247 879.71C1247.76 878.761 1248.14 877.555 1248.07 876.332V860.797C1248.06 860.261 1248.16 859.73 1248.36 859.234C1248.56 858.738 1248.85 858.287 1249.22 857.908C1249.59 857.529 1250.03 857.23 1250.52 857.027C1251 856.825 1251.52 856.723 1252.05 856.729C1252.67 856.737 1253.29 856.895 1253.84 857.189C1254.61 857.673 1255.48 857.954 1256.38 858.006C1256.92 858.013 1257.45 857.909 1257.95 857.7C1258.44 857.492 1258.89 857.183 1259.27 856.792C1259.66 856.42 1259.97 855.968 1260.18 855.466C1260.39 854.963 1260.5 854.421 1260.49 853.875C1260.5 853.145 1260.31 852.429 1259.93 851.809C1259.52 851.149 1258.99 850.58 1258.36 850.135C1257.64 849.628 1256.85 849.24 1256.02 848.984C1255.1 848.7 1254.16 848.556 1253.2 848.558C1251.32 848.514 1249.48 849.198 1248.07 850.474C1247.38 848.986 1246.12 848.242 1244.28 848.242C1243.71 848.207 1243.14 848.295 1242.61 848.499C1242.08 848.703 1241.6 849.019 1241.19 849.427ZM1274.19 839.058C1274.11 837.845 1274.49 836.647 1275.25 835.709C1276.04 834.951 1277.09 834.529 1278.17 834.529C1279.26 834.529 1280.3 834.951 1281.09 835.709C1281.85 836.648 1282.23 837.845 1282.15 839.058V848.558H1285.23C1286.43 848.484 1287.61 848.87 1288.54 849.64C1288.94 850.018 1289.25 850.481 1289.46 850.997C1289.66 851.513 1289.76 852.069 1289.73 852.626C1289.76 853.183 1289.67 853.739 1289.46 854.255C1289.25 854.772 1288.94 855.235 1288.54 855.612C1287.61 856.384 1286.43 856.77 1285.23 856.694H1282.15V867.793C1282.15 870.593 1283.37 872.128 1285.81 872.396C1288.44 872.653 1289.75 874.009 1289.75 876.464C1289.77 877.006 1289.67 877.545 1289.47 878.048C1289.27 878.55 1288.97 879.004 1288.59 879.381C1288.2 879.765 1287.74 880.064 1287.23 880.262C1286.72 880.46 1286.18 880.551 1285.64 880.532C1284.13 880.54 1282.64 880.204 1281.27 879.548C1279.92 878.899 1278.69 877.998 1277.65 876.89C1276.59 875.756 1275.74 874.432 1275.14 872.983C1274.53 871.512 1274.21 869.928 1274.22 868.328V856.705H1273.31C1272.14 856.774 1270.98 856.387 1270.07 855.624C1269.67 855.246 1269.36 854.783 1269.15 854.266C1268.95 853.75 1268.85 853.194 1268.88 852.637C1268.86 852.081 1268.95 851.525 1269.15 851.009C1269.36 850.493 1269.67 850.029 1270.07 849.651C1270.98 848.891 1272.12 848.501 1273.29 848.558H1274.19V839.058ZM1305.54 834.865C1305.03 834.639 1304.47 834.525 1303.92 834.53C1303.33 834.516 1302.76 834.621 1302.22 834.839C1301.68 835.058 1301.18 835.385 1300.77 835.802C1300.35 836.202 1300.03 836.686 1299.81 837.223C1299.58 837.76 1299.48 838.338 1299.49 838.92C1299.48 839.504 1299.58 840.083 1299.8 840.624C1300.01 841.165 1300.33 841.656 1300.74 842.068C1301.13 842.491 1301.6 842.827 1302.13 843.053C1302.65 843.278 1303.22 843.39 1303.79 843.38C1304.36 843.392 1304.93 843.286 1305.47 843.066C1306 842.847 1306.49 842.52 1306.9 842.104C1307.3 841.688 1307.62 841.192 1307.84 840.646C1308.06 840.1 1308.16 839.515 1308.15 838.926C1308.15 838.353 1308.04 837.784 1307.83 837.254C1307.62 836.725 1307.3 836.244 1306.9 835.842C1306.52 835.424 1306.06 835.091 1305.54 834.865ZM1300.93 849.392C1300.18 850.321 1299.8 851.504 1299.87 852.707V876.326C1299.79 877.549 1300.17 878.755 1300.93 879.704C1301.71 880.482 1302.76 880.917 1303.85 880.917C1304.94 880.917 1305.99 880.482 1306.77 879.704C1307.52 878.752 1307.9 877.548 1307.83 876.326V852.707C1307.89 851.506 1307.52 850.323 1306.77 849.392C1305.99 848.615 1304.94 848.179 1303.85 848.179C1302.76 848.179 1301.71 848.615 1300.93 849.392ZM1337.81 838.273C1338.32 835.692 1339.74 834.401 1342.04 834.401C1342.62 834.384 1343.19 834.482 1343.72 834.69C1344.26 834.899 1344.75 835.213 1345.16 835.615C1345.56 835.982 1345.88 836.432 1346.1 836.935C1346.32 837.438 1346.43 837.982 1346.43 838.532C1346.43 838.883 1346.43 839.188 1346.39 839.453C1346.37 839.741 1346.32 840.026 1346.24 840.304L1337.98 876.329C1337.71 877.653 1337.02 878.851 1336.03 879.741C1335.05 880.578 1333.8 881.021 1332.53 880.99C1331.26 881.026 1330.03 880.581 1329.06 879.741C1328.08 878.842 1327.41 877.647 1327.14 876.329L1318.87 840.304C1318.75 839.722 1318.68 839.128 1318.68 838.532C1318.68 837.98 1318.79 837.433 1319.01 836.93C1319.24 836.426 1319.56 835.978 1319.97 835.615C1320.82 834.807 1321.95 834.371 1323.12 834.401C1325.37 834.401 1326.76 835.692 1327.29 838.273L1332.56 863.665L1337.81 838.273ZM1360.11 868.123C1359.79 867.38 1359.63 866.576 1359.63 865.764L1359.65 849.647C1359.64 848.833 1359.8 848.027 1360.12 847.282C1360.74 845.824 1361.88 844.663 1363.3 844.037C1364.03 843.708 1364.82 843.539 1365.61 843.542C1368.48 843.542 1370.45 845.182 1371.52 848.462C1372.29 850.783 1373.73 851.943 1375.82 851.943C1376.41 851.953 1377 851.842 1377.54 851.617C1378.09 851.392 1378.58 851.056 1379 850.631C1379.42 850.228 1379.76 849.739 1379.98 849.196C1380.21 848.654 1380.32 848.068 1380.32 847.478C1380.28 846.593 1380.11 845.719 1379.8 844.889C1379.48 843.885 1379.05 842.92 1378.51 842.012C1377.22 839.69 1375.34 837.764 1373.08 836.431C1370.81 835.098 1368.24 834.407 1365.62 834.428C1363.64 834.404 1361.68 834.796 1359.85 835.579C1358.09 836.342 1356.48 837.446 1355.13 838.83C1353.77 840.226 1352.68 841.874 1351.92 843.686C1351.13 845.56 1350.72 847.582 1350.73 849.624V865.81C1350.72 867.841 1351.12 869.853 1351.92 871.713C1353.46 875.344 1356.3 878.241 1359.85 879.821C1361.67 880.633 1363.64 881.046 1365.62 881.035C1368.24 881.055 1370.82 880.361 1373.09 879.022C1375.36 877.684 1377.23 875.751 1378.53 873.422C1379.06 872.514 1379.49 871.549 1379.82 870.545C1380.12 869.713 1380.29 868.837 1380.33 867.95C1380.33 867.361 1380.22 866.776 1379.99 866.234C1379.77 865.693 1379.43 865.205 1379.01 864.803C1378.59 864.378 1378.1 864.042 1377.55 863.817C1377.01 863.592 1376.42 863.481 1375.84 863.491C1373.74 863.491 1372.3 864.642 1371.53 866.943C1370.46 870.223 1368.49 871.863 1365.62 871.863C1364.83 871.868 1364.04 871.702 1363.32 871.374C1361.88 870.754 1360.73 869.589 1360.11 868.123Z" fill="#25A476"/>
</g>
<path d="M1120 700V692.5H1112.5V700H1120ZM1438 700H1445.5V692.5H1438V700ZM1438 1018V1025.5H1445.5V1018H1438ZM1120 1018H1112.5V1025.5H1120V1018ZM1120 707.5H1438V692.5H1120V707.5ZM1430.5 700V1018H1445.5V700H1430.5ZM1438 1010.5H1120V1025.5H1438V1010.5ZM1127.5 1018V700H1112.5V1018H1127.5Z" fill="#2B2B2B"/>
<path d="M1437 381H1756V1018H1437V381Z" fill="#40A8F5"/>
<path d="M1437 381V373.5H1429.5V381H1437ZM1756 381H1763.5V373.5H1756V381ZM1756 1018V1025.5H1763.5V1018H1756ZM1437 1018H1429.5V1025.5H1437V1018ZM1437 388.5H1756V373.5H1437V388.5ZM1748.5 381V1018H1763.5V381H1748.5ZM1756 1010.5H1437V1025.5H1756V1010.5ZM1444.5 1018V381H1429.5V1018H1444.5Z" fill="#2B2B2B"/>
<path fill-rule="evenodd" clip-rule="evenodd" d="M936.887 864.13L954.341 846.676L954.341 906.334H920.594V919.833H1001.58V906.334H967.839L967.839 846.145L985.824 864.13L995.369 854.585L966.128 825.344H956.583L927.342 854.585L936.887 864.13Z" fill="#2B2B2B"/>
<path fill-rule="evenodd" clip-rule="evenodd" d="M907.096 811.846H1015.08V872.589H1001.58V886.087H1028.58V798.348H893.598V886.087H920.594V872.589H907.096V811.846Z" fill="#2B2B2B"/>
<path d="M802 700V692.5H794.5V700H802ZM1120 700H1127.5V692.5H1120V700ZM1120 1018V1025.5H1127.5V1018H1120ZM802 1018H794.5V1025.5H802V1018ZM802 707.5H1120V692.5H802V707.5ZM1112.5 700V1018H1127.5V700H1112.5ZM1120 1010.5H802V1025.5H1120V1010.5ZM809.5 1018V700H794.5V1018H809.5Z" fill="#2B2B2B"/>
<path d="M227.888 166V160.506H242.156V114.258H227.888V108.764H263.312V114.258H249.044V160.506H263.312V166H227.888ZM274.596 166V123.688H280.664V128.608H280.992C281.648 126.968 282.577 125.574 283.78 124.426C284.983 123.278 286.759 122.704 289.11 122.704C291.57 122.704 293.401 123.333 294.604 124.59C295.807 125.793 296.545 127.378 296.818 129.346H297.064C297.829 127.433 298.923 125.847 300.344 124.59C301.765 123.333 303.733 122.704 306.248 122.704C309.692 122.704 311.988 123.907 313.136 126.312C314.339 128.717 314.94 132.161 314.94 136.644V166H308.872V137.71C308.872 134.102 308.489 131.615 307.724 130.248C307.013 128.827 305.674 128.116 303.706 128.116C301.957 128.116 300.535 128.69 299.442 129.838C298.349 130.931 297.802 132.626 297.802 134.922V166H291.734V137.71C291.734 134.102 291.351 131.615 290.586 130.248C289.875 128.827 288.563 128.116 286.65 128.116C284.901 128.116 283.452 128.69 282.304 129.838C281.211 130.931 280.664 132.626 280.664 134.922V166H274.596ZM327.126 123.688H333.686V130.576H334.014C336.747 125.328 341.093 122.704 347.052 122.704C352.245 122.704 356.291 124.645 359.188 128.526C362.14 132.407 363.616 137.847 363.616 144.844C363.616 151.841 362.14 157.281 359.188 161.162C356.291 165.043 352.245 166.984 347.052 166.984C341.093 166.984 336.747 164.36 334.014 159.112H333.686V182.4H327.126V123.688ZM344.51 161.162C348.337 161.162 351.289 160.014 353.366 157.718C355.498 155.367 356.564 152.279 356.564 148.452V141.236C356.564 137.409 355.498 134.348 353.366 132.052C351.289 129.701 348.337 128.526 344.51 128.526C343.034 128.526 341.64 128.717 340.328 129.1C339.016 129.483 337.868 130.057 336.884 130.822C335.9 131.533 335.107 132.435 334.506 133.528C333.959 134.567 333.686 135.797 333.686 137.218V152.47C333.686 153.891 333.959 155.149 334.506 156.242C335.107 157.281 335.9 158.183 336.884 158.948C337.868 159.659 339.016 160.205 340.328 160.588C341.64 160.971 343.034 161.162 344.51 161.162ZM393.104 166.984C390.152 166.984 387.473 166.465 385.068 165.426C382.717 164.387 380.695 162.911 379 160.998C377.36 159.03 376.103 156.707 375.228 154.028C374.353 151.295 373.916 148.233 373.916 144.844C373.916 141.509 374.353 138.475 375.228 135.742C376.103 133.009 377.36 130.685 379 128.772C380.695 126.804 382.717 125.301 385.068 124.262C387.473 123.223 390.152 122.704 393.104 122.704C396.056 122.704 398.707 123.223 401.058 124.262C403.463 125.301 405.486 126.804 407.126 128.772C408.821 130.685 410.105 133.009 410.98 135.742C411.855 138.475 412.292 141.509 412.292 144.844C412.292 148.233 411.855 151.295 410.98 154.028C410.105 156.707 408.821 159.03 407.126 160.998C405.486 162.911 403.463 164.387 401.058 165.426C398.707 166.465 396.056 166.984 393.104 166.984ZM393.104 161.326C396.767 161.326 399.719 160.233 401.96 158.046C404.201 155.859 405.322 152.47 405.322 147.878V141.81C405.322 137.218 404.201 133.829 401.96 131.642C399.719 129.455 396.767 128.362 393.104 128.362C389.441 128.362 386.489 129.455 384.248 131.642C382.007 133.829 380.886 137.218 380.886 141.81V147.878C380.886 152.47 382.007 155.859 384.248 158.046C386.489 160.233 389.441 161.326 393.104 161.326ZM423.986 160.424H436.368V129.264H423.986V123.688H442.928V134.348H443.338C444.213 131.013 445.853 128.417 448.258 126.558C450.718 124.645 453.834 123.688 457.606 123.688H463.51V130.248H455.556C451.784 130.248 448.723 131.341 446.372 133.528C444.076 135.715 442.928 138.585 442.928 142.138V160.424H459.328V166H423.986V160.424ZM493.49 166C490.265 166 487.887 165.098 486.356 163.294C484.88 161.49 484.142 159.167 484.142 156.324V129.264H470.038V123.688H480.534C481.955 123.688 482.939 123.415 483.486 122.868C484.087 122.267 484.388 121.255 484.388 119.834V108.764H490.702V123.688H509.972V129.264H490.702V160.424H509.972V166H493.49ZM225.428 256V213.688H231.496V218.608H231.824C232.48 216.968 233.409 215.574 234.612 214.426C235.815 213.278 237.591 212.704 239.942 212.704C242.402 212.704 244.233 213.333 245.436 214.59C246.639 215.793 247.377 217.378 247.65 219.346H247.896C248.661 217.433 249.755 215.847 251.176 214.59C252.597 213.333 254.565 212.704 257.08 212.704C260.524 212.704 262.82 213.907 263.968 216.312C265.171 218.717 265.772 222.161 265.772 226.644V256H259.704V227.71C259.704 224.102 259.321 221.615 258.556 220.248C257.845 218.827 256.506 218.116 254.538 218.116C252.789 218.116 251.367 218.69 250.274 219.838C249.181 220.931 248.634 222.626 248.634 224.922V256H242.566V227.71C242.566 224.102 242.183 221.615 241.418 220.248C240.707 218.827 239.395 218.116 237.482 218.116C235.733 218.116 234.284 218.69 233.136 219.838C232.043 220.931 231.496 222.626 231.496 224.922V256H225.428ZM294.768 256.984C291.816 256.984 289.137 256.465 286.732 255.426C284.381 254.387 282.359 252.911 280.664 250.998C279.024 249.03 277.767 246.707 276.892 244.028C276.017 241.295 275.58 238.233 275.58 234.844C275.58 231.509 276.017 228.475 276.892 225.742C277.767 223.009 279.024 220.685 280.664 218.772C282.359 216.804 284.381 215.301 286.732 214.262C289.137 213.223 291.816 212.704 294.768 212.704C297.72 212.704 300.371 213.223 302.722 214.262C305.127 215.301 307.15 216.804 308.79 218.772C310.485 220.685 311.769 223.009 312.644 225.742C313.519 228.475 313.956 231.509 313.956 234.844C313.956 238.233 313.519 241.295 312.644 244.028C311.769 246.707 310.485 249.03 308.79 250.998C307.15 252.911 305.127 254.387 302.722 255.426C300.371 256.465 297.72 256.984 294.768 256.984ZM294.768 251.326C298.431 251.326 301.383 250.233 303.624 248.046C305.865 245.859 306.986 242.47 306.986 237.878V231.81C306.986 227.218 305.865 223.829 303.624 221.642C301.383 219.455 298.431 218.362 294.768 218.362C291.105 218.362 288.153 219.455 285.912 221.642C283.671 223.829 282.55 227.218 282.55 231.81V237.878C282.55 242.47 283.671 245.859 285.912 248.046C288.153 250.233 291.105 251.326 294.768 251.326ZM354.186 249.112H353.858C351.125 254.36 346.779 256.984 340.82 256.984C335.627 256.984 331.554 255.043 328.602 251.162C325.705 247.281 324.256 241.841 324.256 234.844C324.256 227.847 325.705 222.407 328.602 218.526C331.554 214.645 335.627 212.704 340.82 212.704C346.779 212.704 351.125 215.328 353.858 220.576H354.186V195.32H360.746V256H354.186V249.112ZM343.362 251.162C344.838 251.162 346.232 250.971 347.544 250.588C348.856 250.205 350.004 249.659 350.988 248.948C351.972 248.183 352.737 247.281 353.284 246.242C353.885 245.149 354.186 243.891 354.186 242.47V227.218C354.186 225.797 353.885 224.567 353.284 223.528C352.737 222.435 351.972 221.533 350.988 220.822C350.004 220.057 348.856 219.483 347.544 219.1C346.232 218.717 344.838 218.526 343.362 218.526C339.535 218.526 336.556 219.701 334.424 222.052C332.347 224.348 331.308 227.409 331.308 231.236V238.452C331.308 242.279 332.347 245.367 334.424 247.718C336.556 250.014 339.535 251.162 343.362 251.162ZM393.842 256.984C390.781 256.984 388.02 256.465 385.56 255.426C383.155 254.387 381.077 252.911 379.328 250.998C377.633 249.03 376.321 246.707 375.392 244.028C374.463 241.295 373.998 238.261 373.998 234.926C373.998 231.537 374.463 228.475 375.392 225.742C376.376 223.009 377.715 220.685 379.41 218.772C381.105 216.804 383.127 215.301 385.478 214.262C387.883 213.223 390.535 212.704 393.432 212.704C396.275 212.704 398.844 213.223 401.14 214.262C403.491 215.301 405.486 216.749 407.126 218.608C408.766 220.412 410.023 222.571 410.898 225.086C411.773 227.601 412.21 230.361 412.21 233.368V236.484H380.886V238.452C380.886 240.311 381.187 242.033 381.788 243.618C382.389 245.203 383.237 246.57 384.33 247.718C385.478 248.866 386.845 249.768 388.43 250.424C390.07 251.025 391.874 251.326 393.842 251.326C396.685 251.326 399.145 250.67 401.222 249.358C403.299 248.046 404.885 246.242 405.978 243.946L410.816 247.226C409.559 250.069 407.454 252.419 404.502 254.278C401.605 256.082 398.051 256.984 393.842 256.984ZM393.432 218.116C391.628 218.116 389.961 218.444 388.43 219.1C386.899 219.756 385.56 220.658 384.412 221.806C383.319 222.954 382.444 224.321 381.788 225.906C381.187 227.437 380.886 229.131 380.886 230.99V231.564H405.158V230.662C405.158 228.803 404.857 227.109 404.256 225.578C403.709 224.047 402.917 222.735 401.878 221.642C400.894 220.494 399.664 219.619 398.188 219.018C396.767 218.417 395.181 218.116 393.432 218.116ZM424.232 250.424H438.992V200.896H424.232V195.32H445.552V250.424H460.312V256H424.232V250.424ZM491.932 256.984C487.504 256.984 483.677 256.246 480.452 254.77C477.281 253.239 474.575 251.217 472.334 248.702L476.762 244.848C478.785 246.98 480.999 248.62 483.404 249.768C485.809 250.916 488.707 251.49 492.096 251.49C495.376 251.49 498.055 250.916 500.132 249.768C502.264 248.565 503.33 246.707 503.33 244.192C503.33 243.099 503.111 242.197 502.674 241.486C502.291 240.721 501.745 240.119 501.034 239.682C500.323 239.245 499.531 238.917 498.656 238.698C497.781 238.425 496.852 238.206 495.868 238.042L489.226 237.058C487.75 236.839 486.137 236.539 484.388 236.156C482.693 235.773 481.135 235.172 479.714 234.352C478.293 233.477 477.09 232.329 476.106 230.908C475.177 229.487 474.712 227.628 474.712 225.332C474.712 223.2 475.122 221.369 475.942 219.838C476.817 218.253 478.019 216.941 479.55 215.902C481.081 214.809 482.885 214.016 484.962 213.524C487.039 212.977 489.308 212.704 491.768 212.704C495.595 212.704 498.902 213.305 501.69 214.508C504.533 215.711 506.965 217.378 508.988 219.51L504.724 223.528C504.232 222.927 503.603 222.325 502.838 221.724C502.127 221.068 501.225 220.494 500.132 220.002C499.093 219.455 497.863 219.018 496.442 218.69C495.021 218.362 493.381 218.198 491.522 218.198C488.187 218.198 485.618 218.772 483.814 219.92C482.065 221.068 481.19 222.735 481.19 224.922C481.19 226.015 481.381 226.945 481.764 227.71C482.201 228.421 482.775 228.995 483.486 229.432C484.197 229.869 484.989 230.225 485.864 230.498C486.793 230.717 487.723 230.908 488.652 231.072L495.294 232.056C496.825 232.275 498.437 232.575 500.132 232.958C501.827 233.341 503.385 233.969 504.806 234.844C506.227 235.664 507.403 236.785 508.332 238.206C509.316 239.627 509.808 241.486 509.808 243.782C509.808 247.991 508.168 251.244 504.888 253.54C501.663 255.836 497.344 256.984 491.932 256.984ZM227.806 340.424H242.074V309.264H226.986V303.688H242.074V294.996C242.074 292.153 242.812 289.83 244.288 288.026C245.819 286.222 248.197 285.32 251.422 285.32H265.608V290.896H248.634V303.688H265.608V309.264H248.634V340.424H263.722V346H227.806V340.424ZM276.482 340.424H288.864V309.264H276.482V303.688H295.424V314.348H295.834C296.709 311.013 298.349 308.417 300.754 306.558C303.214 304.645 306.33 303.688 310.102 303.688H316.006V310.248H308.052C304.28 310.248 301.219 311.341 298.868 313.528C296.572 315.715 295.424 318.585 295.424 322.138V340.424H311.824V346H276.482V340.424ZM343.936 346.984C340.984 346.984 338.305 346.465 335.9 345.426C333.549 344.387 331.527 342.911 329.832 340.998C328.192 339.03 326.935 336.707 326.06 334.028C325.185 331.295 324.748 328.233 324.748 324.844C324.748 321.509 325.185 318.475 326.06 315.742C326.935 313.009 328.192 310.685 329.832 308.772C331.527 306.804 333.549 305.301 335.9 304.262C338.305 303.223 340.984 302.704 343.936 302.704C346.888 302.704 349.539 303.223 351.89 304.262C354.295 305.301 356.318 306.804 357.958 308.772C359.653 310.685 360.937 313.009 361.812 315.742C362.687 318.475 363.124 321.509 363.124 324.844C363.124 328.233 362.687 331.295 361.812 334.028C360.937 336.707 359.653 339.03 357.958 340.998C356.318 342.911 354.295 344.387 351.89 345.426C349.539 346.465 346.888 346.984 343.936 346.984ZM343.936 341.326C347.599 341.326 350.551 340.233 352.792 338.046C355.033 335.859 356.154 332.47 356.154 327.878V321.81C356.154 317.218 355.033 313.829 352.792 311.642C350.551 309.455 347.599 308.362 343.936 308.362C340.273 308.362 337.321 309.455 335.08 311.642C332.839 313.829 331.718 317.218 331.718 321.81V327.878C331.718 332.47 332.839 335.859 335.08 338.046C337.321 340.233 340.273 341.326 343.936 341.326ZM372.932 346V303.688H379V308.608H379.328C379.984 306.968 380.913 305.574 382.116 304.426C383.319 303.278 385.095 302.704 387.446 302.704C389.906 302.704 391.737 303.333 392.94 304.59C394.143 305.793 394.881 307.378 395.154 309.346H395.4C396.165 307.433 397.259 305.847 398.68 304.59C400.101 303.333 402.069 302.704 404.584 302.704C408.028 302.704 410.324 303.907 411.472 306.312C412.675 308.717 413.276 312.161 413.276 316.644V346H407.208V317.71C407.208 314.102 406.825 311.615 406.06 310.248C405.349 308.827 404.01 308.116 402.042 308.116C400.293 308.116 398.871 308.69 397.778 309.838C396.685 310.931 396.138 312.626 396.138 314.922V346H390.07V317.71C390.07 314.102 389.687 311.615 388.922 310.248C388.211 308.827 386.899 308.116 384.986 308.116C383.237 308.116 381.788 308.69 380.64 309.838C379.547 310.931 379 312.626 379 314.922V346H372.932ZM442.272 346.738C440.031 346.738 438.445 346.273 437.516 345.344C436.641 344.415 436.204 343.239 436.204 341.818V340.342C436.204 338.921 436.641 337.745 437.516 336.816C438.445 335.887 440.031 335.422 442.272 335.422C444.513 335.422 446.071 335.887 446.946 336.816C447.875 337.745 448.34 338.921 448.34 340.342V341.818C448.34 343.239 447.875 344.415 446.946 345.344C446.071 346.273 444.513 346.738 442.272 346.738ZM491.44 346.738C489.199 346.738 487.613 346.273 486.684 345.344C485.809 344.415 485.372 343.239 485.372 341.818V340.342C485.372 338.921 485.809 337.745 486.684 336.816C487.613 335.887 489.199 335.422 491.44 335.422C493.681 335.422 495.239 335.887 496.114 336.816C497.043 337.745 497.508 338.921 497.508 340.342V341.818C497.508 343.239 497.043 344.415 496.114 345.344C495.239 346.273 493.681 346.738 491.44 346.738ZM540.608 346.738C538.366 346.738 536.781 346.273 535.852 345.344C534.977 344.415 534.54 343.239 534.54 341.818V340.342C534.54 338.921 534.977 337.745 535.852 336.816C536.781 335.887 538.366 335.422 540.608 335.422C542.849 335.422 544.407 335.887 545.282 336.816C546.211 337.745 546.676 338.921 546.676 340.342V341.818C546.676 343.239 546.211 344.415 545.282 345.344C544.407 346.273 542.849 346.738 540.608 346.738Z" fill="black"/>
<path d="M484 700H802V1018H484V700Z" fill="#28F77E"/>
<path d="M484 700V692.5H476.5V700H484ZM802 700H809.5V692.5H802V700ZM802 1018V1025.5H809.5V1018H802ZM484 1018H476.5V1025.5H484V1018ZM484 707.5H802V692.5H484V707.5ZM794.5 700V1018H809.5V700H794.5ZM802 1010.5H484V1025.5H802V1010.5ZM491.5 1018V700H476.5V1018H491.5Z" fill="#2B2B2B"/>
<path fill-rule="evenodd" clip-rule="evenodd" d="M1269.17 210.368L1203.18 210.368V227.92L1269.17 227.92L1269.17 296.312H1286.72L1286.72 227.92L1355.51 227.92V210.368H1286.72L1286.72 143.978L1269.17 143.978L1269.17 210.368Z" fill="#2B2B2B"/>
<path d="M410.139 642.625H406.393V646.371H410.139V642.625Z" fill="#1A1A1A"/>
<path d="M425.026 627.648V627.637H417.637V631.383H421.383V638.877H413.889V635.131H417.637V631.383H413.889V635.131H410.143V642.625H411.801H413.889H421.383V646.371H425.131V627.648H425.026Z" fill="#1A1A1A"/>
<path d="M440.113 631.383V627.637H428.873V631.383H432.619V642.625H428.873V646.371H440.113V642.625H436.367V631.383H440.113Z" fill="#1A1A1A"/>
<path d="M316.471 635.131V631.383H327.711V627.637H316.471H312.725V638.877H316.471H327.711V642.625H331.459V635.131H327.711H316.471Z" fill="#1A1A1A"/>
<path d="M327.619 642.625H312.725V646.371H327.619V642.625Z" fill="#1A1A1A"/>
<path d="M275.254 631.383H279.002V642.625H275.254V646.371H286.496V642.625H282.748V631.383H286.496V627.637H275.254V631.383Z" fill="#1A1A1A"/>
<path d="M331.455 631.383H338.949V646.371H342.695V631.383H350.276V627.637H331.455V631.383Z" fill="#1A1A1A"/>
<path d="M353.984 631.383H357.709V642.625H353.984V646.371H365.181V642.625H361.455V631.383H365.181V627.637H353.984V631.383Z" fill="#1A1A1A"/>
<path d="M372.674 627.637H368.926V642.625V646.279V646.371H380.166V642.625H372.674V627.637Z" fill="#1A1A1A"/>
<path d="M387.66 627.637H383.914V642.625V646.279V646.371H395.154V642.625H387.66V627.637Z" fill="#1A1A1A"/>
<path d="M293.99 631.383V627.637H290.242V631.383V635.131V646.371H293.99V635.131H297.736V631.383H293.99Z" fill="#1A1A1A"/>
<path d="M301.48 635.129H297.734V638.875H301.48V635.129Z" fill="#1A1A1A"/>
<path d="M305.229 638.877H301.48V642.625H305.229V646.371H308.975V642.625V638.877V627.637H305.229V638.877Z" fill="#1A1A1A"/>
<g clip-path="url(#clip1_485_8630)">
<path d="M256.512 657.619V661.367H207.811V612.648H256.512V657.619ZM252.765 657.619V646.335H249.017V657.619H252.765ZM252.765 642.588V631.386H241.481V642.588H252.765ZM252.765 627.639V623.891H241.481V627.639H252.765ZM252.765 620.144V616.396H241.481V620.144H252.765ZM245.272 657.619V646.335H241.481V657.619H245.272ZM237.735 653.871V646.33H234.033V650.101H230.331V653.871H237.735ZM237.735 642.588V631.386H234.033V642.588H237.735ZM237.735 623.867V616.396H230.288V620.105L230.266 620.17H226.541V627.639H234.033V623.868L237.735 623.867ZM230.288 650.041V646.335H226.541V650.041H230.288ZM230.288 642.588V631.386H226.541V642.588H230.288ZM222.795 657.619V646.335H211.557V657.619H222.795ZM222.795 642.588V631.386H219.048V642.588H222.795ZM222.795 627.639V620.17H222.764V616.4H219.048V627.642L222.795 627.639ZM215.304 642.588V631.386H211.557V642.588H215.304ZM215.304 627.639V616.396H211.557V627.639H215.304Z" fill="#1A1A1A"/>
<path d="M252.764 646.336H249.018V657.619H252.764V646.336Z" fill="#40A8F5"/>
<path d="M252.761 631.387H241.479V642.588H252.761V631.387Z" fill="#40A8F5"/>
<path d="M252.761 623.891H241.479V627.639H252.761V623.891Z" fill="#FF5353"/>
<path d="M252.761 616.398H241.479V620.146H252.761V616.398Z" fill="#FFDF3A"/>
<path d="M245.268 646.336H241.479V657.619H245.268V646.336Z" fill="#FFDF3A"/>
<path d="M237.736 646.336V653.871H230.33V650.103H234.032V646.336H237.736Z" fill="#FF5353"/>
<path d="M237.735 631.387H234.033V642.588H237.735V631.387Z" fill="#FFDF3A"/>
<path d="M237.733 616.398V623.869H234.03H234.007V620.107H230.283V616.398H237.733Z" fill="#40A8F5"/>
<path d="M234.032 623.868V627.64H226.541V620.172H230.264V623.868H234.01H234.032Z" fill="#FFDF3A"/>
<path d="M234.01 620.105V623.867H230.264V620.171L230.286 620.105H234.01Z" fill="#1A1A1A"/>
<path d="M230.288 646.336H226.541V650.041H230.288V646.336Z" fill="#28F77E"/>
<path d="M230.288 631.387H226.541V642.588H230.288V631.387Z" fill="#FF5353"/>
<path d="M222.794 646.336V657.619H211.557V646.336H215.301H219.048H222.794Z" fill="#40A8F5"/>
<path d="M222.795 631.387H219.049V642.588H222.795V631.387Z" fill="#40A8F5"/>
<path d="M222.795 620.172V627.641H219.049V616.398H222.77V620.172H222.795Z" fill="#FFDF3A"/>
<path d="M215.303 631.387H211.557V642.588H215.303V631.387Z" fill="#FFDF3A"/>
<path d="M215.303 616.398H211.557V627.641H215.303V616.398Z" fill="#FF5353"/>
</g>
<defs>
<linearGradient id="paint0_linear_485_8630" x1="1018.08" y1="219.383" x2="1018.08" y2="267.166" gradientUnits="userSpaceOnUse">
<stop stop-color="#F46837"/>
<stop offset="1" stop-color="#DD5236"/>
</linearGradient>
<linearGradient id="paint1_linear_485_8630" x1="901.827" y1="219.385" x2="901.827" y2="267.035" gradientUnits="userSpaceOnUse">
<stop stop-color="#13ADC7"/>
<stop offset="1" stop-color="#1497B8"/>
</linearGradient>
<linearGradient id="paint2_linear_485_8630" x1="941.582" y1="247.125" x2="941.582" y2="292.518" gradientUnits="userSpaceOnUse">
<stop stop-color="#7E51C2"/>
<stop offset="1" stop-color="#945DD6"/>
</linearGradient>
<clipPath id="clip0_485_8630">
<rect width="202.476" height="202.476" fill="white" transform="translate(1177.85 757.852)"/>
</clipPath>
<clipPath id="clip1_485_8630">
<rect width="48.6994" height="48.6994" fill="white" transform="translate(207.809 612.648)"/>
</clipPath>
</defs>
</svg>
