<svg width="403" height="235" viewBox="0 0 403 235" fill="none" xmlns="http://www.w3.org/2000/svg">
<rect width="403" height="235" fill="white"/>
<g clip-path="url(#clip0_1038_8375)">
<rect width="383" height="215" transform="translate(10 10)" fill="white"/>
<path d="M187.521 18.388H187.431L186.441 20.422L183.687 25.444L180.933 20.422L179.943 18.388H179.853V28H177.909V15.436H180.321L183.687 21.826H183.795L187.161 15.436H189.465V28H187.521V18.388ZM199.283 28C198.767 28 198.371 27.856 198.095 27.568C197.819 27.268 197.651 26.89 197.591 26.434H197.501C197.321 27.022 196.991 27.466 196.511 27.766C196.031 28.066 195.449 28.216 194.765 28.216C193.793 28.216 193.043 27.964 192.515 27.46C191.999 26.956 191.741 26.278 191.741 25.426C191.741 24.49 192.077 23.788 192.749 23.32C193.433 22.852 194.429 22.618 195.737 22.618H197.429V21.826C197.429 21.25 197.273 20.806 196.961 20.494C196.649 20.182 196.163 20.026 195.503 20.026C194.951 20.026 194.501 20.146 194.153 20.386C193.805 20.626 193.511 20.932 193.271 21.304L192.101 20.242C192.413 19.714 192.851 19.282 193.415 18.946C193.979 18.598 194.717 18.424 195.629 18.424C196.841 18.424 197.771 18.706 198.419 19.27C199.067 19.834 199.391 20.644 199.391 21.7V26.398H200.381V28H199.283ZM195.323 26.722C195.935 26.722 196.439 26.59 196.835 26.326C197.231 26.05 197.429 25.684 197.429 25.228V23.878H195.773C194.417 23.878 193.739 24.298 193.739 25.138V25.462C193.739 25.882 193.877 26.2 194.153 26.416C194.441 26.62 194.831 26.722 195.323 26.722ZM205.274 28.216C204.386 28.216 203.642 28.06 203.042 27.748C202.442 27.436 201.92 27.004 201.476 26.452L202.736 25.3C203.084 25.72 203.468 26.05 203.888 26.29C204.32 26.518 204.818 26.632 205.382 26.632C205.958 26.632 206.384 26.524 206.66 26.308C206.948 26.08 207.092 25.768 207.092 25.372C207.092 25.072 206.99 24.82 206.786 24.616C206.594 24.4 206.252 24.262 205.76 24.202L204.896 24.094C203.936 23.974 203.18 23.698 202.628 23.266C202.088 22.822 201.818 22.168 201.818 21.304C201.818 20.848 201.902 20.446 202.07 20.098C202.238 19.738 202.472 19.438 202.772 19.198C203.084 18.946 203.45 18.754 203.87 18.622C204.302 18.49 204.776 18.424 205.292 18.424C206.132 18.424 206.816 18.556 207.344 18.82C207.884 19.084 208.364 19.45 208.784 19.918L207.578 21.07C207.338 20.782 207.02 20.536 206.624 20.332C206.24 20.116 205.796 20.008 205.292 20.008C204.752 20.008 204.35 20.116 204.086 20.332C203.834 20.548 203.708 20.83 203.708 21.178C203.708 21.538 203.822 21.808 204.05 21.988C204.278 22.168 204.644 22.3 205.148 22.384L206.012 22.492C207.044 22.648 207.794 22.954 208.262 23.41C208.742 23.854 208.982 24.454 208.982 25.21C208.982 25.666 208.892 26.08 208.712 26.452C208.544 26.812 208.298 27.124 207.974 27.388C207.65 27.652 207.26 27.856 206.804 28C206.348 28.144 205.838 28.216 205.274 28.216ZM211.199 14.68H213.161V22.852H213.251L214.547 21.178L216.797 18.64H219.083L215.807 22.258L219.479 28H217.139L214.457 23.536L213.161 24.94V28H211.199V14.68Z" fill="#1A1A1A"/>
<rect x="10" y="109" width="30" height="30" fill="#F7F7F7"/>
<path d="M19.4167 133V131.224H24.0967V117.736H23.9287L19.7047 121.672L18.5287 120.4L22.9687 116.248H26.1127V131.224H30.4327V133H19.4167Z" fill="#1A1A1A"/>
<rect x="40" y="109" width="30" height="30" fill="#F7F7F7"/>
<path d="M49.4167 133V131.224H54.0967V117.736H53.9287L49.7047 121.672L48.5287 120.4L52.9687 116.248H56.1127V131.224H60.4327V133H49.4167Z" fill="#1A1A1A"/>
<rect x="70" y="109" width="30" height="30" fill="#F7F7F7"/>
<path d="M79.4167 133V131.224H84.0967V117.736H83.9287L79.7047 121.672L78.5287 120.4L82.9687 116.248H86.1127V131.224H90.4327V133H79.4167Z" fill="#1A1A1A"/>
<rect x="100" y="109" width="30" height="30" fill="#F7F7F7"/>
<path d="M109.417 133V131.224H114.097V117.736H113.929L109.705 121.672L108.529 120.4L112.969 116.248H116.113V131.224H120.433V133H109.417Z" fill="#1A1A1A"/>
<rect x="130" y="109" width="30" height="30" fill="#F7F7F7"/>
<path d="M139.417 133V131.224H144.097V117.736H143.929L139.705 121.672L138.529 120.4L142.969 116.248H146.113V131.224H150.433V133H139.417Z" fill="#1A1A1A"/>
<rect x="160" y="109" width="30" height="30" fill="#F7F7F7"/>
<path d="M169.417 133V131.224H174.097V117.736H173.929L169.705 121.672L168.529 120.4L172.969 116.248H176.113V131.224H180.433V133H169.417Z" fill="#1A1A1A"/>
<rect x="190" y="109" width="30" height="30" fill="#1A1A1A"/>
<path d="M204.505 133.288C202.505 133.288 201.041 132.528 200.113 131.008C199.201 129.488 198.745 127.36 198.745 124.624C198.745 121.888 199.201 119.76 200.113 118.24C201.041 116.72 202.505 115.96 204.505 115.96C206.505 115.96 207.961 116.72 208.873 118.24C209.801 119.76 210.265 121.888 210.265 124.624C210.265 127.36 209.801 129.488 208.873 131.008C207.961 132.528 206.505 133.288 204.505 133.288ZM204.505 131.536C205.161 131.536 205.721 131.4 206.185 131.128C206.649 130.856 207.025 130.472 207.313 129.976C207.601 129.48 207.809 128.896 207.937 128.224C208.081 127.552 208.153 126.808 208.153 125.992V123.256C208.153 122.44 208.081 121.696 207.937 121.024C207.809 120.352 207.601 119.768 207.313 119.272C207.025 118.776 206.649 118.392 206.185 118.12C205.721 117.848 205.161 117.712 204.505 117.712C203.849 117.712 203.289 117.848 202.825 118.12C202.361 118.392 201.985 118.776 201.697 119.272C201.409 119.768 201.193 120.352 201.049 121.024C200.921 121.696 200.857 122.44 200.857 123.256V125.992C200.857 126.808 200.921 127.552 201.049 128.224C201.193 128.896 201.409 129.48 201.697 129.976C201.985 130.472 202.361 130.856 202.825 131.128C203.289 131.4 203.849 131.536 204.505 131.536Z" fill="white"/>
<rect x="10.5" y="109.5" width="209" height="29" stroke="#1A1A1A"/>
<rect x="160" y="165" width="30" height="30" fill="#F7F7F7"/>
<path d="M169.417 189V187.224H174.097V173.736H173.929L169.705 177.672L168.529 176.4L172.969 172.248H176.113V187.224H180.433V189H169.417Z" fill="#1A1A1A"/>
<rect x="160" y="195" width="30" height="30" fill="#F7F7F7"/>
<path d="M169.417 219V217.224H174.097V203.736H173.929L169.705 207.672L168.529 206.4L172.969 202.248H176.113V217.224H180.433V219H169.417Z" fill="#1A1A1A"/>
<rect x="190" y="165" width="30" height="30" fill="#F7F7F7"/>
<path d="M199.417 189V187.224H204.097V173.736H203.929L199.705 177.672L198.529 176.4L202.969 172.248H206.113V187.224H210.433V189H199.417Z" fill="#1A1A1A"/>
<rect x="130" y="165" width="30" height="30" fill="#1A1A1A"/>
<path d="M144.505 189.288C142.505 189.288 141.041 188.528 140.113 187.008C139.201 185.488 138.745 183.36 138.745 180.624C138.745 177.888 139.201 175.76 140.113 174.24C141.041 172.72 142.505 171.96 144.505 171.96C146.505 171.96 147.961 172.72 148.873 174.24C149.801 175.76 150.265 177.888 150.265 180.624C150.265 183.36 149.801 185.488 148.873 187.008C147.961 188.528 146.505 189.288 144.505 189.288ZM144.505 187.536C145.161 187.536 145.721 187.4 146.185 187.128C146.649 186.856 147.025 186.472 147.313 185.976C147.601 185.48 147.809 184.896 147.937 184.224C148.081 183.552 148.153 182.808 148.153 181.992V179.256C148.153 178.44 148.081 177.696 147.937 177.024C147.809 176.352 147.601 175.768 147.313 175.272C147.025 174.776 146.649 174.392 146.185 174.12C145.721 173.848 145.161 173.712 144.505 173.712C143.849 173.712 143.289 173.848 142.825 174.12C142.361 174.392 141.985 174.776 141.697 175.272C141.409 175.768 141.193 176.352 141.049 177.024C140.921 177.696 140.857 178.44 140.857 179.256V181.992C140.857 182.808 140.921 183.552 141.049 184.224C141.193 184.896 141.409 185.48 141.697 185.976C141.985 186.472 142.361 186.856 142.825 187.128C143.289 187.4 143.849 187.536 144.505 187.536Z" fill="white"/>
<rect x="190" y="195" width="30" height="30" fill="#1A1A1A"/>
<path d="M204.505 219.288C202.505 219.288 201.041 218.528 200.113 217.008C199.201 215.488 198.745 213.36 198.745 210.624C198.745 207.888 199.201 205.76 200.113 204.24C201.041 202.72 202.505 201.96 204.505 201.96C206.505 201.96 207.961 202.72 208.873 204.24C209.801 205.76 210.265 207.888 210.265 210.624C210.265 213.36 209.801 215.488 208.873 217.008C207.961 218.528 206.505 219.288 204.505 219.288ZM204.505 217.536C205.161 217.536 205.721 217.4 206.185 217.128C206.649 216.856 207.025 216.472 207.313 215.976C207.601 215.48 207.809 214.896 207.937 214.224C208.081 213.552 208.153 212.808 208.153 211.992V209.256C208.153 208.44 208.081 207.696 207.937 207.024C207.809 206.352 207.601 205.768 207.313 205.272C207.025 204.776 206.649 204.392 206.185 204.12C205.721 203.848 205.161 203.712 204.505 203.712C203.849 203.712 203.289 203.848 202.825 204.12C202.361 204.392 201.985 204.776 201.697 205.272C201.409 205.768 201.193 206.352 201.049 207.024C200.921 207.696 200.857 208.44 200.857 209.256V211.992C200.857 212.808 200.921 213.552 201.049 214.224C201.193 214.896 201.409 215.48 201.697 215.976C201.985 216.472 202.361 216.856 202.825 217.128C203.289 217.4 203.849 217.536 204.505 217.536Z" fill="white"/>
<rect x="130" y="194" width="30" height="31" fill="#1A1A1A"/>
<path d="M144.505 219.288C142.505 219.288 141.041 218.528 140.113 217.008C139.201 215.488 138.745 213.36 138.745 210.624C138.745 207.888 139.201 205.76 140.113 204.24C141.041 202.72 142.505 201.96 144.505 201.96C146.505 201.96 147.961 202.72 148.873 204.24C149.801 205.76 150.265 207.888 150.265 210.624C150.265 213.36 149.801 215.488 148.873 217.008C147.961 218.528 146.505 219.288 144.505 219.288ZM144.505 217.536C145.161 217.536 145.721 217.4 146.185 217.128C146.649 216.856 147.025 216.472 147.313 215.976C147.601 215.48 147.809 214.896 147.937 214.224C148.081 213.552 148.153 212.808 148.153 211.992V209.256C148.153 208.44 148.081 207.696 147.937 207.024C147.809 206.352 147.601 205.768 147.313 205.272C147.025 204.776 146.649 204.392 146.185 204.12C145.721 203.848 145.161 203.712 144.505 203.712C143.849 203.712 143.289 203.848 142.825 204.12C142.361 204.392 141.985 204.776 141.697 205.272C141.409 205.768 141.193 206.352 141.049 207.024C140.921 207.696 140.857 208.44 140.857 209.256V211.992C140.857 212.808 140.921 213.552 141.049 214.224C141.193 214.896 141.409 215.48 141.697 215.976C141.985 216.472 142.361 216.856 142.825 217.128C143.289 217.4 143.849 217.536 144.505 217.536Z" fill="white"/>
<rect x="130.5" y="165.5" width="89" height="59" stroke="#1A1A1A"/>
<rect x="303" y="53" width="30" height="30" fill="#F7F7F7"/>
<path d="M316.569 67.352C317.705 67.352 318.553 67.096 319.113 66.584C319.689 66.056 319.977 65.384 319.977 64.568V64.4C319.977 63.52 319.697 62.864 319.137 62.432C318.593 61.984 317.873 61.76 316.977 61.76C316.113 61.76 315.409 61.952 314.865 62.336C314.321 62.704 313.873 63.208 313.521 63.848L312.033 62.696C312.241 62.36 312.489 62.032 312.777 61.712C313.081 61.376 313.433 61.08 313.833 60.824C314.233 60.568 314.697 60.36 315.225 60.2C315.753 60.04 316.353 59.96 317.025 59.96C317.729 59.96 318.393 60.056 319.017 60.248C319.641 60.424 320.177 60.696 320.625 61.064C321.089 61.416 321.449 61.856 321.705 62.384C321.977 62.912 322.113 63.512 322.113 64.184C322.113 64.728 322.025 65.216 321.849 65.648C321.689 66.08 321.465 66.456 321.177 66.776C320.889 67.096 320.545 67.368 320.145 67.592C319.761 67.816 319.345 67.984 318.897 68.096V68.192C319.345 68.288 319.777 68.448 320.193 68.672C320.625 68.88 321.001 69.16 321.321 69.512C321.657 69.848 321.921 70.264 322.113 70.76C322.321 71.24 322.425 71.792 322.425 72.416C322.425 73.136 322.289 73.8 322.017 74.408C321.745 75 321.361 75.512 320.865 75.944C320.369 76.36 319.769 76.688 319.065 76.928C318.361 77.168 317.585 77.288 316.737 77.288C316.017 77.288 315.377 77.208 314.817 77.048C314.257 76.888 313.761 76.672 313.329 76.4C312.897 76.128 312.513 75.824 312.177 75.488C311.857 75.152 311.569 74.8 311.313 74.432L312.825 73.28C313.033 73.616 313.257 73.92 313.497 74.192C313.753 74.464 314.033 74.696 314.337 74.888C314.641 75.08 314.985 75.232 315.369 75.344C315.753 75.44 316.201 75.488 316.713 75.488C317.897 75.488 318.793 75.224 319.401 74.696C320.009 74.152 320.313 73.384 320.313 72.392V72.2C320.313 71.208 320.009 70.448 319.401 69.92C318.793 69.376 317.897 69.104 316.713 69.104H314.745V67.352H316.569Z" fill="#1A1A1A"/>
<rect x="363" y="53" width="30" height="30" fill="#F7F7F7"/>
<path d="M372.417 77V75.224H377.097V61.736H376.929L372.705 65.672L371.529 64.4L375.969 60.248H379.113V75.224H383.433V77H372.417Z" fill="#1A1A1A"/>
<rect x="273" y="53" width="30" height="30" fill="#1A1A1A"/>
<path d="M293.097 77H282.105V74.936L287.577 69.896C288.361 69.176 289.017 68.416 289.545 67.616C290.073 66.8 290.337 65.984 290.337 65.168V64.88C290.337 63.952 290.081 63.2 289.569 62.624C289.057 62.048 288.281 61.76 287.241 61.76C286.729 61.76 286.281 61.832 285.897 61.976C285.513 62.12 285.177 62.32 284.889 62.576C284.617 62.832 284.385 63.136 284.193 63.488C284.017 63.824 283.873 64.192 283.761 64.592L281.961 63.896C282.121 63.4 282.337 62.92 282.609 62.456C282.897 61.976 283.249 61.552 283.665 61.184C284.097 60.816 284.609 60.52 285.201 60.296C285.809 60.072 286.521 59.96 287.337 59.96C288.153 59.96 288.881 60.08 289.521 60.32C290.161 60.56 290.697 60.896 291.129 61.328C291.561 61.76 291.889 62.272 292.113 62.864C292.353 63.456 292.473 64.112 292.473 64.832C292.473 65.488 292.377 66.096 292.185 66.656C292.009 67.216 291.761 67.752 291.441 68.264C291.121 68.76 290.729 69.248 290.265 69.728C289.817 70.208 289.329 70.688 288.801 71.168L284.289 75.224H293.097V77Z" fill="white"/>
<rect x="333" y="53" width="30" height="30" fill="#1A1A1A"/>
<path d="M342.417 77V75.224H347.097V61.736H346.929L342.705 65.672L341.529 64.4L345.969 60.248H349.113V75.224H353.433V77H342.417Z" fill="white"/>
<rect x="272.5" y="53.5" width="120" height="29" stroke="#1A1A1A"/>
<rect x="302" y="109" width="30" height="30" fill="#F7F7F7"/>
<path d="M316.529 133.288C315.665 133.288 314.881 133.144 314.177 132.856C313.489 132.552 312.897 132.128 312.401 131.584C311.921 131.024 311.553 130.344 311.297 129.544C311.041 128.744 310.913 127.848 310.913 126.856C310.913 125.608 311.097 124.44 311.465 123.352C311.833 122.248 312.305 121.248 312.881 120.352C313.473 119.44 314.121 118.64 314.825 117.952C315.529 117.248 316.217 116.68 316.889 116.248H319.481C318.585 116.904 317.785 117.544 317.081 118.168C316.377 118.792 315.761 119.448 315.233 120.136C314.705 120.808 314.257 121.536 313.889 122.32C313.521 123.088 313.225 123.96 313.001 124.936L313.121 124.984C313.521 124.296 314.033 123.728 314.657 123.28C315.297 122.816 316.129 122.584 317.153 122.584C317.873 122.584 318.537 122.704 319.145 122.944C319.753 123.184 320.273 123.528 320.705 123.976C321.137 124.424 321.473 124.968 321.713 125.608C321.969 126.248 322.097 126.96 322.097 127.744C322.097 128.56 321.961 129.312 321.689 130C321.433 130.672 321.057 131.256 320.561 131.752C320.081 132.232 319.497 132.608 318.809 132.88C318.121 133.152 317.361 133.288 316.529 133.288ZM316.505 131.536C317.609 131.536 318.465 131.232 319.073 130.624C319.697 130.016 320.009 129.144 320.009 128.008V127.816C320.009 126.68 319.697 125.808 319.073 125.2C318.465 124.592 317.609 124.288 316.505 124.288C315.401 124.288 314.537 124.592 313.913 125.2C313.305 125.808 313.001 126.68 313.001 127.816V128.008C313.001 129.144 313.305 130.016 313.913 130.624C314.537 131.232 315.401 131.536 316.505 131.536Z" fill="#1A1A1A"/>
<rect x="272" y="109" width="30" height="30" fill="#1A1A1A"/>
<path d="M286.505 133.288C284.505 133.288 283.041 132.528 282.113 131.008C281.201 129.488 280.745 127.36 280.745 124.624C280.745 121.888 281.201 119.76 282.113 118.24C283.041 116.72 284.505 115.96 286.505 115.96C288.505 115.96 289.961 116.72 290.873 118.24C291.801 119.76 292.265 121.888 292.265 124.624C292.265 127.36 291.801 129.488 290.873 131.008C289.961 132.528 288.505 133.288 286.505 133.288ZM286.505 131.536C287.161 131.536 287.721 131.4 288.185 131.128C288.649 130.856 289.025 130.472 289.313 129.976C289.601 129.48 289.809 128.896 289.937 128.224C290.081 127.552 290.153 126.808 290.153 125.992V123.256C290.153 122.44 290.081 121.696 289.937 121.024C289.809 120.352 289.601 119.768 289.313 119.272C289.025 118.776 288.649 118.392 288.185 118.12C287.721 117.848 287.161 117.712 286.505 117.712C285.849 117.712 285.289 117.848 284.825 118.12C284.361 118.392 283.985 118.776 283.697 119.272C283.409 119.768 283.193 120.352 283.049 121.024C282.921 121.696 282.857 122.44 282.857 123.256V125.992C282.857 126.808 282.921 127.552 283.049 128.224C283.193 128.896 283.409 129.48 283.697 129.976C283.985 130.472 284.361 130.856 284.825 131.128C285.289 131.4 285.849 131.536 286.505 131.536Z" fill="white"/>
<rect x="332" y="109" width="30" height="30" fill="#1A1A1A"/>
<path d="M341.417 133V131.224H346.097V117.736H345.929L341.705 121.672L340.529 120.4L344.969 116.248H348.113V131.224H352.433V133H341.417Z" fill="white"/>
<rect x="272.5" y="109.5" width="89" height="29" stroke="#1A1A1A"/>
<rect x="302" y="180" width="30" height="30" fill="#F7F7F7"/>
<path d="M315.569 194.352C316.705 194.352 317.553 194.096 318.113 193.584C318.689 193.056 318.977 192.384 318.977 191.568V191.4C318.977 190.52 318.697 189.864 318.137 189.432C317.593 188.984 316.873 188.76 315.977 188.76C315.113 188.76 314.409 188.952 313.865 189.336C313.321 189.704 312.873 190.208 312.521 190.848L311.033 189.696C311.241 189.36 311.489 189.032 311.777 188.712C312.081 188.376 312.433 188.08 312.833 187.824C313.233 187.568 313.697 187.36 314.225 187.2C314.753 187.04 315.353 186.96 316.025 186.96C316.729 186.96 317.393 187.056 318.017 187.248C318.641 187.424 319.177 187.696 319.625 188.064C320.089 188.416 320.449 188.856 320.705 189.384C320.977 189.912 321.113 190.512 321.113 191.184C321.113 191.728 321.025 192.216 320.849 192.648C320.689 193.08 320.465 193.456 320.177 193.776C319.889 194.096 319.545 194.368 319.145 194.592C318.761 194.816 318.345 194.984 317.897 195.096V195.192C318.345 195.288 318.777 195.448 319.193 195.672C319.625 195.88 320.001 196.16 320.321 196.512C320.657 196.848 320.921 197.264 321.113 197.76C321.321 198.24 321.425 198.792 321.425 199.416C321.425 200.136 321.289 200.8 321.017 201.408C320.745 202 320.361 202.512 319.865 202.944C319.369 203.36 318.769 203.688 318.065 203.928C317.361 204.168 316.585 204.288 315.737 204.288C315.017 204.288 314.377 204.208 313.817 204.048C313.257 203.888 312.761 203.672 312.329 203.4C311.897 203.128 311.513 202.824 311.177 202.488C310.857 202.152 310.569 201.8 310.313 201.432L311.825 200.28C312.033 200.616 312.257 200.92 312.497 201.192C312.753 201.464 313.033 201.696 313.337 201.888C313.641 202.08 313.985 202.232 314.369 202.344C314.753 202.44 315.201 202.488 315.713 202.488C316.897 202.488 317.793 202.224 318.401 201.696C319.009 201.152 319.313 200.384 319.313 199.392V199.2C319.313 198.208 319.009 197.448 318.401 196.92C317.793 196.376 316.897 196.104 315.713 196.104H313.745V194.352H315.569Z" fill="#1A1A1A"/>
<rect x="272" y="180" width="30" height="30" fill="#1A1A1A"/>
<path d="M292.097 204H281.105V201.936L286.577 196.896C287.361 196.176 288.017 195.416 288.545 194.616C289.073 193.8 289.337 192.984 289.337 192.168V191.88C289.337 190.952 289.081 190.2 288.569 189.624C288.057 189.048 287.281 188.76 286.241 188.76C285.729 188.76 285.281 188.832 284.897 188.976C284.513 189.12 284.177 189.32 283.889 189.576C283.617 189.832 283.385 190.136 283.193 190.488C283.017 190.824 282.873 191.192 282.761 191.592L280.961 190.896C281.121 190.4 281.337 189.92 281.609 189.456C281.897 188.976 282.249 188.552 282.665 188.184C283.097 187.816 283.609 187.52 284.201 187.296C284.809 187.072 285.521 186.96 286.337 186.96C287.153 186.96 287.881 187.08 288.521 187.32C289.161 187.56 289.697 187.896 290.129 188.328C290.561 188.76 290.889 189.272 291.113 189.864C291.353 190.456 291.473 191.112 291.473 191.832C291.473 192.488 291.377 193.096 291.185 193.656C291.009 194.216 290.761 194.752 290.441 195.264C290.121 195.76 289.729 196.248 289.265 196.728C288.817 197.208 288.329 197.688 287.801 198.168L283.289 202.224H292.097V204Z" fill="white"/>
<rect x="332" y="180" width="30" height="30" fill="#1A1A1A"/>
<path d="M341.417 204V202.224H346.097V188.736H345.929L341.705 192.672L340.529 191.4L344.969 187.248H348.113V202.224H352.433V204H341.417Z" fill="white"/>
<rect x="272.5" y="180.5" width="89" height="29" stroke="#1A1A1A"/>
<rect x="70" y="53" width="30" height="30" fill="#F7F7F7"/>
<path d="M79.4167 77V75.224H84.0967V61.736H83.9287L79.7047 65.672L78.5287 64.4L82.9687 60.248H86.1127V75.224H90.4327V77H79.4167Z" fill="#1A1A1A"/>
<rect x="100" y="53" width="30" height="30" fill="#F7F7F7"/>
<path d="M109.417 77V75.224H114.097V61.736H113.929L109.705 65.672L108.529 64.4L112.969 60.248H116.113V75.224H120.433V77H109.417Z" fill="#1A1A1A"/>
<rect x="130" y="53" width="30" height="30" fill="#F7F7F7"/>
<path d="M139.417 77V75.224H144.097V61.736H143.929L139.705 65.672L138.529 64.4L142.969 60.248H146.113V75.224H150.433V77H139.417Z" fill="#1A1A1A"/>
<rect x="190" y="53" width="30" height="30" fill="#F7F7F7"/>
<path d="M199.417 77V75.224H204.097V61.736H203.929L199.705 65.672L198.529 64.4L202.969 60.248H206.113V75.224H210.433V77H199.417Z" fill="#1A1A1A"/>
<rect x="10" y="53" width="31" height="30" fill="#1A1A1A"/>
<path d="M24.988 77.288C22.988 77.288 21.524 76.528 20.596 75.008C19.684 73.488 19.228 71.36 19.228 68.624C19.228 65.888 19.684 63.76 20.596 62.24C21.524 60.72 22.988 59.96 24.988 59.96C26.988 59.96 28.444 60.72 29.356 62.24C30.284 63.76 30.748 65.888 30.748 68.624C30.748 71.36 30.284 73.488 29.356 75.008C28.444 76.528 26.988 77.288 24.988 77.288ZM24.988 75.536C25.644 75.536 26.204 75.4 26.668 75.128C27.132 74.856 27.508 74.472 27.796 73.976C28.084 73.48 28.292 72.896 28.42 72.224C28.564 71.552 28.636 70.808 28.636 69.992V67.256C28.636 66.44 28.564 65.696 28.42 65.024C28.292 64.352 28.084 63.768 27.796 63.272C27.508 62.776 27.132 62.392 26.668 62.12C26.204 61.848 25.644 61.712 24.988 61.712C24.332 61.712 23.772 61.848 23.308 62.12C22.844 62.392 22.468 62.776 22.18 63.272C21.892 63.768 21.676 64.352 21.532 65.024C21.404 65.696 21.34 66.44 21.34 67.256V69.992C21.34 70.808 21.404 71.552 21.532 72.224C21.676 72.896 21.892 73.48 22.18 73.976C22.468 74.472 22.844 74.856 23.308 75.128C23.772 75.4 24.332 75.536 24.988 75.536Z" fill="white"/>
<rect x="40" y="53" width="30" height="30" fill="#1A1A1A"/>
<path d="M54.5047 77.288C52.5047 77.288 51.0407 76.528 50.1127 75.008C49.2007 73.488 48.7447 71.36 48.7447 68.624C48.7447 65.888 49.2007 63.76 50.1127 62.24C51.0407 60.72 52.5047 59.96 54.5047 59.96C56.5047 59.96 57.9607 60.72 58.8727 62.24C59.8007 63.76 60.2647 65.888 60.2647 68.624C60.2647 71.36 59.8007 73.488 58.8727 75.008C57.9607 76.528 56.5047 77.288 54.5047 77.288ZM54.5047 75.536C55.1607 75.536 55.7207 75.4 56.1847 75.128C56.6487 74.856 57.0247 74.472 57.3127 73.976C57.6007 73.48 57.8087 72.896 57.9367 72.224C58.0807 71.552 58.1527 70.808 58.1527 69.992V67.256C58.1527 66.44 58.0807 65.696 57.9367 65.024C57.8087 64.352 57.6007 63.768 57.3127 63.272C57.0247 62.776 56.6487 62.392 56.1847 62.12C55.7207 61.848 55.1607 61.712 54.5047 61.712C53.8487 61.712 53.2887 61.848 52.8247 62.12C52.3607 62.392 51.9847 62.776 51.6967 63.272C51.4087 63.768 51.1927 64.352 51.0487 65.024C50.9207 65.696 50.8567 66.44 50.8567 67.256V69.992C50.8567 70.808 50.9207 71.552 51.0487 72.224C51.1927 72.896 51.4087 73.48 51.6967 73.976C51.9847 74.472 52.3607 74.856 52.8247 75.128C53.2887 75.4 53.8487 75.536 54.5047 75.536Z" fill="white"/>
<rect x="160" y="53" width="30" height="30" fill="#1A1A1A"/>
<path d="M174.505 77.288C172.505 77.288 171.041 76.528 170.113 75.008C169.201 73.488 168.745 71.36 168.745 68.624C168.745 65.888 169.201 63.76 170.113 62.24C171.041 60.72 172.505 59.96 174.505 59.96C176.505 59.96 177.961 60.72 178.873 62.24C179.801 63.76 180.265 65.888 180.265 68.624C180.265 71.36 179.801 73.488 178.873 75.008C177.961 76.528 176.505 77.288 174.505 77.288ZM174.505 75.536C175.161 75.536 175.721 75.4 176.185 75.128C176.649 74.856 177.025 74.472 177.313 73.976C177.601 73.48 177.809 72.896 177.937 72.224C178.081 71.552 178.153 70.808 178.153 69.992V67.256C178.153 66.44 178.081 65.696 177.937 65.024C177.809 64.352 177.601 63.768 177.313 63.272C177.025 62.776 176.649 62.392 176.185 62.12C175.721 61.848 175.161 61.712 174.505 61.712C173.849 61.712 173.289 61.848 172.825 62.12C172.361 62.392 171.985 62.776 171.697 63.272C171.409 63.768 171.193 64.352 171.049 65.024C170.921 65.696 170.857 66.44 170.857 67.256V69.992C170.857 70.808 170.921 71.552 171.049 72.224C171.193 72.896 171.409 73.48 171.697 73.976C171.985 74.472 172.361 74.856 172.825 75.128C173.289 75.4 173.849 75.536 174.505 75.536Z" fill="white"/>
<rect x="10.5" y="53.5" width="209" height="29" stroke="#1A1A1A"/>
<path d="M275.735 28H273.701V15.436H279.119C280.247 15.436 281.135 15.778 281.783 16.462C282.431 17.134 282.755 18.052 282.755 19.216C282.755 20.116 282.545 20.866 282.125 21.466C281.717 22.054 281.111 22.468 280.307 22.708L283.025 28H280.757L278.237 22.924H275.735V28ZM278.975 21.214C279.491 21.214 279.893 21.082 280.181 20.818C280.469 20.542 280.613 20.152 280.613 19.648V18.784C280.613 18.28 280.469 17.896 280.181 17.632C279.893 17.356 279.491 17.218 278.975 17.218H275.735V21.214H278.975ZM285.496 28V15.436H287.53V26.2H292.642V28H285.496ZM294.725 28V15.436H302.771V17.236H296.759V20.728H302.213V22.528H296.759V26.2H302.771V28H294.725Z" fill="#1A1A1A"/>
<path d="M242.716 17.992L243.598 18.856L242.032 20.404L241.132 21.16L241.15 21.214L242.896 21.106H247.864L249.61 21.214L249.628 21.16L248.728 20.404L247.162 18.856L248.044 17.992L251.77 21.718L248.044 25.444L247.162 24.58L248.728 23.032L249.628 22.276L249.61 22.222L247.864 22.33H242.896L241.15 22.222L241.132 22.276L242.032 23.032L243.598 24.58L242.716 25.444L238.99 21.718L242.716 17.992Z" fill="#1A1A1A"/>
</g>
<defs>
<clipPath id="clip0_1038_8375">
<rect width="383" height="215" fill="white" transform="translate(10 10)"/>
</clipPath>
</defs>
</svg>
