<svg version="1.1" xmlns="http://www.w3.org/2000/svg" viewBox="0 0 1073.9083393811393 982.720604336595" width="2147.8166787622786" height="1965.44120867319">
  <!-- svg-source:excalidraw -->
  
  <defs>
    <style class="style-fonts">
      @font-face {
        font-family: "Virgil";
        src: url("https://excalidraw.com/Virgil.woff2");
      }
      @font-face {
        font-family: "Cascadia";
        src: url("https://excalidraw.com/Cascadia.woff2");
      }
    </style>
  </defs>
  <rect x="0" y="0" width="1073.9083393811393" height="982.720604336595" fill="#ffffff"></rect><g stroke-linecap="round" transform="translate(10 353.22608188348477) rotate(0 140.29075141648025 137.63664202785685)"><path d="M176.25 34.5 M176.25 34.5 C193.38 47.95, 208.16 64.89, 245.33 103.5 M176.25 34.5 C200.01 58.09, 225 83.5, 245.33 103.5 M245.33 103.5 C280.49 136.59, 280.35 136.8, 245.33 172.5 M245.33 103.5 C278.9 137.23, 280.13 136.16, 245.33 172.5 M245.33 172.5 C223.36 196.48, 199.54 220.47, 176.25 240.77 M245.33 172.5 C223.21 194.01, 203.25 216.01, 176.25 240.77 M176.25 240.77 C142.52 273.39, 139.58 275.66, 105.75 240.77 M176.25 240.77 C142.84 275.55, 139.34 273.69, 105.75 240.77 M105.75 240.77 C76.03 213.57, 48.54 188.25, 35.25 172.5 M105.75 240.77 C88.26 224.34, 69.76 206.4, 35.25 172.5 M35.25 172.5 C1.29 139.03, -0.02 138.06, 35.25 103.5 M35.25 172.5 C-1.77 138.33, 0.69 136.87, 35.25 103.5 M35.25 103.5 C49.16 89.4, 68.74 70.55, 105.75 34.5 M35.25 103.5 C48.8 90.28, 64.73 75.82, 105.75 34.5 M105.75 34.5 C140.04 -0.68, 139.48 -1.81, 176.25 34.5 M105.75 34.5 C141.87 0.84, 139.75 0.4, 176.25 34.5" stroke="#000000" stroke-width="1" fill="none"></path></g><g transform="translate(90.18320842577145 476.9024369696335) rotate(0 60.2490234375 13.714508518055027)"><text x="60.2490234375" y="0" font-family="Cascadia, Segoe UI Emoji" font-size="22.85751419675806px" fill="#000000" text-anchor="middle" style="white-space: pre;" direction="ltr" dominant-baseline="text-before-edge">Connector</text></g><g stroke-linecap="round" transform="translate(435.75331623456145 366.9487397137882) rotate(0 120.74580243624433 123.91398419755296)"><path d="M158.23 5.46 C171.24 7.6, 184.01 17.41, 194.91 26.23 C205.81 35.05, 216.26 46.33, 223.6 58.38 C230.94 70.43, 236.29 84.61, 238.94 98.51 C241.58 112.42, 241.48 127.86, 239.45 141.8 C237.41 155.74, 233.07 169.55, 226.71 182.16 C220.34 194.77, 211.49 207.86, 201.25 217.46 C191.02 227.06, 178.13 234.61, 165.29 239.75 C152.45 244.89, 137.93 248, 124.22 248.3 C110.51 248.6, 96.13 245.96, 83.03 241.53 C69.92 237.11, 56.6 230.57, 45.6 221.76 C34.6 212.95, 24.14 200.69, 17.03 188.67 C9.92 176.64, 5.44 163.6, 2.94 149.61 C0.45 135.63, 0.25 118.84, 2.07 104.75 C3.9 90.66, 7.31 77.31, 13.88 65.06 C20.44 52.82, 31.16 40.81, 41.46 31.29 C51.77 21.78, 62.86 13.1, 75.68 7.97 C88.5 2.84, 102.22 -0.03, 118.4 0.5 C134.58 1.04, 161.8 7.81, 172.79 11.19 C183.77 14.57, 185.1 18.83, 184.31 20.76" stroke="#e67700" stroke-width="1.5" fill="none" stroke-dasharray="8 9"></path></g><g transform="translate(482.9812476558262 477.0277968833543) rotate(0 73.6376953125 13.714508518055027)"><text x="73.6376953125" y="0" font-family="Cascadia, Segoe UI Emoji" font-size="22.85751419675806px" fill="#e67700" text-anchor="middle" style="white-space: pre;" direction="ltr" dominant-baseline="text-before-edge">UNSPECIFIED</text></g><g stroke-linecap="round" transform="translate(435.75331623456145 10) rotate(0 120.74580243624433 123.91398419755296)"><path d="M38.98 31.24 C38.98 31.24, 38.98 31.24, 38.98 31.24 M38.98 31.24 C38.98 31.24, 38.98 31.24, 38.98 31.24 M13.51 67.39 C27.84 50.71, 40.35 34.22, 51.11 26.7 M13.65 66.73 C24.78 54.68, 36.27 40.59, 48.97 24.69 M10.52 76.39 C20.36 65.21, 30.46 52.38, 61.05 19.21 M11.85 74.95 C23.47 60.74, 36.07 46.63, 60.6 18.39 M8.27 84.72 C20.7 68.16, 35.3 50.39, 70.02 12.24 M8.51 84.19 C23.61 66.98, 39.67 48.15, 70.66 11.89 M5.06 94.03 C29.3 67.44, 51.66 39.39, 78.37 11.29 M5.35 94.84 C26.38 69.53, 49.75 42.62, 76.78 12.2 M1.11 105.37 C34.92 66.73, 65.49 30.56, 85.25 9.78 M1.31 103.68 C31.21 71.84, 58.89 37.76, 83.54 9.87 M4.08 108.04 C31.39 77.78, 56.55 48.86, 91.22 7.96 M3.13 109.08 C35.08 71.07, 65.92 35.43, 91.11 7.29 M4.25 113.69 C31.05 83.86, 58.89 50.72, 97.71 7.48 M4.62 114.55 C22.88 93.2, 41.13 69.66, 97.87 5.68 M3.82 119.05 C29.64 92.37, 57.66 62.73, 105.33 4.13 M3.09 119.87 C27.39 93.17, 52.34 64.81, 104.74 3.27 M2.71 125.03 C41.8 84.5, 76.68 42.43, 110.76 1.97 M3.2 125.58 C33.97 90.38, 62.08 56.39, 111.22 1.76 M6.08 131.3 C36.82 98, 67.01 63.25, 117.08 2.11 M3.59 131.96 C25.99 104.12, 49.45 78.08, 117.81 0.58 M1.99 138.33 C46.99 88.14, 90.16 40.29, 123.35 0.04 M4.62 138.51 C46.4 87.87, 89.11 39.63, 122.63 0.58 M3.59 143.45 C49.61 93.22, 92 42.28, 128.84 4.16 M3.71 144.38 C50.39 94.99, 93.72 42.76, 127.81 2 M2.18 151.69 C43.25 102.69, 85.23 55.64, 133.33 2.62 M4.41 150.65 C36.23 111.79, 71.97 73.23, 132.86 3.66 M5.28 155.32 C45.48 108.75, 87.59 64.65, 136.79 3.21 M5.61 156.13 C32 124.63, 57.7 93.75, 136.46 4.23 M7.19 160.06 C45.55 114.43, 83.7 71.73, 140.84 5.71 M6.38 159.57 C52.31 109.37, 97.97 57.5, 140.85 5.49 M7.26 164.91 C60.83 100.01, 118.02 37.7, 145.75 5.35 M8.44 164.67 C49.68 114.34, 91.25 67.82, 147.13 5.91 M9.3 169.11 C36.02 135.62, 66.97 102.39, 149.54 7.42 M9.63 167.93 C59.12 109.76, 109.14 53.92, 149.88 5.7 M11.85 170.37 C55.92 118.62, 98.88 68.28, 155.08 7.83 M12.72 171.62 C41.99 136.99, 71.75 102.68, 155.04 6.14 M14.39 175.38 C54.97 125.6, 98.28 76, 158.01 8.79 M14.05 176.18 C44.69 139.67, 76.25 103.14, 159.86 8.05 M14.71 180.68 C47.7 137.95, 85.58 98.4, 162.8 11.28 M15.74 180.68 C67.78 117.93, 122.68 55.11, 162.27 10.81 M18.22 183.25 C64.1 130.44, 113.24 73.43, 165.18 11.74 M17.91 184.12 C57.41 140.11, 96.86 93.18, 166.61 12.78 M18.2 189.04 C69.07 128.17, 123.05 68.5, 169.68 14.36 M18.71 189.24 C76.47 123.3, 133.05 56.43, 170.33 14.59 M19.55 191.79 C67.87 140.29, 111.07 90.18, 173.35 15.77 M21.01 192.73 C78.22 125.25, 134.19 61.94, 174.35 16.02 M23.84 194.08 C69.14 141.54, 113.87 91.99, 178.44 18.68 M23.61 194.8 C76.88 135.43, 128.58 75.2, 177.09 17.31 M27.78 197.53 C85.17 133.35, 139.06 65.98, 179.75 20.11 M26.49 197.29 C59.55 161.84, 91.85 123.55, 181.26 19.52 M27.5 201.6 C85.95 137.22, 143.57 71.28, 183.85 21.56 M29.19 201.16 C80.15 143.26, 130.7 84.93, 184.61 22.41 M32.24 205.1 C83.71 142.59, 137.02 83.33, 189.72 23.96 M31.25 204.07 C65.39 164.62, 100.64 126.09, 188.41 23.15 M33.12 207.23 C82.93 152.56, 129.7 98.78, 191.28 24.46 M33.71 206.89 C78.13 159.17, 121.05 107.56, 193.21 25.97 M37.57 211.64 C94.28 145.36, 151.68 80.31, 195.5 27.34 M36.81 210.48 C76.18 164.93, 115.05 120.05, 196.24 26.68 M38.23 214.16 C82.63 166.74, 124.15 117.58, 197.54 28.66 M39.82 213.83 C91.13 152.99, 143.91 92.37, 198.34 30.17 M43.85 216.78 C72.18 178.32, 104.68 142.7, 202.75 32.16 M42.14 215.88 C86.77 165.16, 131.95 112.87, 201.81 33.34 M45.02 218.82 C93.52 162.49, 139.74 108.42, 203.28 36.19 M44.73 218.64 C92.56 164.32, 140.46 108.99, 203.76 36.53 M47.69 221.61 C82.43 181.45, 117.52 142.66, 208.03 39.49 M47.21 223.12 C100.62 161.37, 154.97 99.89, 207.09 39.62 M52.72 225.12 C94.13 176.37, 134.37 129.06, 209.94 42.6 M51.64 224.56 C109.63 157.24, 169.27 90.47, 209.33 41.29 M55.08 225.11 C114.69 156.37, 174.85 87.69, 211.29 45.65 M55.04 225.78 C109.42 164, 165.27 100.2, 212.36 45.47 M58.51 226.93 C101.5 176.8, 145.09 128.11, 214.19 49.78 M58.35 228 C92.06 188.67, 124.6 150.31, 214.56 48.97 M63.34 230.51 C96.37 190.46, 130.09 153.83, 216.08 51.1 M62.69 230.3 C106.58 178.56, 150.7 126.93, 217.22 50.75 M67.28 231.97 C113.12 180.9, 158.72 125, 220.14 53.06 M66.02 231.62 C109.67 180.43, 154.6 129.45, 220.05 55.46 M67.16 234.51 C116.37 182.01, 162.88 128.65, 224.03 56.21 M68.34 234.46 C110.89 186.51, 153.67 138.72, 222.52 56.8 M72.51 237.09 C123.84 177.17, 177.74 116.89, 223.06 61.66 M72.71 237.19 C120.1 182.49, 167.11 129, 225.44 60.67 M77.17 238.97 C126.06 180.56, 177.52 122.51, 227.73 65.25 M75.41 238.15 C109.08 200.42, 141.41 164.18, 225.83 66.26 M79.41 241.85 C117.23 199.37, 152.77 154.48, 227.81 69.67 M80.48 239.78 C139.81 174.26, 197.03 107.39, 228.41 69.12 M84 243.81 C129.04 189.95, 172.28 138.72, 228.3 74.54 M82.85 242.17 C138.46 178.36, 195.56 112.72, 229.92 73.66 M86.46 243.79 C135.62 188.81, 182.85 135.71, 231.62 76.36 M87.91 242.61 C136.38 187.37, 183.28 134.59, 231.99 77.39 M91.48 243.14 C135.27 197.6, 176.21 146.83, 234.93 80.74 M92.15 243.63 C134 198.94, 173.1 153.9, 232.52 81.54 M95.87 244.77 C137.62 196.59, 176.56 151.06, 235.97 85.1 M96.34 245.46 C135.66 199.72, 175.38 155.78, 235.3 85.5 M101.89 245.1 C139.01 201.78, 174.84 162.13, 237.5 90.91 M101.71 244.44 C142.59 197.45, 185.39 149.16, 236.05 90.65 M106.43 244.54 C155.13 189.65, 202.28 133.43, 239.49 92.94 M107.1 245.95 C149.51 201.4, 189.33 153.79, 239.23 94.66 M113.23 245.8 C154.3 199.37, 197.08 150.87, 239.21 99.93 M111.89 247.25 C156.05 198.04, 197.32 149.03, 239.89 98.9 M116.13 245.56 C163.78 196.99, 206.97 144.95, 241.41 105.32 M115.93 246.4 C144.52 216.42, 173.72 183.46, 240.28 104.22 M121.44 247.78 C145.39 219.29, 168.9 192.41, 238.18 109.1 M120.09 247.51 C160.57 201.93, 199.17 158.69, 239.6 111.31 M126.06 247.84 C167.93 199.15, 209.78 153.6, 238.7 115.44 M125.54 249.1 C166.26 201.98, 206.46 156.08, 239.66 115.76 M133.12 248.25 C172.54 200.63, 217.44 150.6, 238.86 122.52 M131.47 247.35 C163.09 209.26, 195.65 172.15, 239.58 122.31 M140.31 245.55 C169.85 211.95, 196.03 178.14, 241.45 128.55 M138.48 245.29 C176.14 204.05, 213.55 162.81, 240.12 128.25 M144.12 244.82 C166.76 219.38, 187.83 198.82, 239.89 135.89 M146.91 242.8 C183.27 199.7, 221.06 158.25, 240.44 133.92 M152.75 241.8 C180.89 210.15, 206.62 176.71, 242.35 141.06 M152.88 243.05 C171.02 219.38, 191.69 196.1, 240.39 140.19 M159.01 240.58 C186.42 207.93, 217.92 171.79, 236.89 149.86 M159.29 239.72 C189.45 205.99, 218.56 172.3, 238.66 149.95 M165.38 240.33 C184.33 218.59, 199.54 199, 234.14 159.85 M165.92 237.99 C186.56 215.59, 207.19 190.37, 233.61 159.97 M169.58 240.75 C192.97 215.49, 215.66 191.23, 232.4 167.47 M169.13 241.52 C190.4 214.75, 212.52 191.4, 231.45 168.49 M181.85 232.8 C197.36 214.46, 215.37 195.77, 227.92 180.85 M182.24 233.51 C191.84 221.98, 201.75 210.34, 228.61 179.39" stroke="#40c057" stroke-width="0.5" fill="none"></path><path d="M117.05 -0.86 C129.84 -3.41, 144.01 1.66, 157.12 6.18 C170.22 10.7, 184.83 17.71, 195.69 26.24 C206.55 34.76, 214.95 45.33, 222.29 57.35 C229.63 69.37, 236.71 84.59, 239.71 98.36 C242.72 112.14, 242.41 126.22, 240.32 139.99 C238.24 153.76, 233.59 168.42, 227.23 180.98 C220.87 193.54, 212.33 205.75, 202.16 215.35 C192 224.94, 179.02 233.01, 166.24 238.55 C153.46 244.09, 139.33 248.03, 125.48 248.6 C111.64 249.16, 96.22 246.33, 83.18 241.94 C70.14 237.54, 58.03 230.92, 47.24 222.23 C36.46 213.54, 26.02 201.85, 18.47 189.82 C10.91 177.8, 4.76 163.96, 1.92 150.06 C-0.92 136.17, -0.46 120.35, 1.44 106.43 C3.34 92.5, 7.03 79.08, 13.3 66.53 C19.58 53.97, 28.68 40.52, 39.11 31.09 C49.54 21.66, 62.56 15.29, 75.89 9.95 C89.22 4.61, 111.04 0.43, 119.1 -0.95 C127.16 -2.32, 124.17 -0.59, 124.24 1.69 M173.79 11.71 C186.11 16.14, 197.05 28.64, 206.73 38.91 C216.41 49.19, 226.08 60.47, 231.88 73.35 C237.67 86.23, 240.83 102.18, 241.51 116.19 C242.18 130.2, 239.75 143.64, 235.92 157.41 C232.09 171.17, 226.33 187.13, 218.53 198.79 C210.73 210.46, 200.45 219.79, 189.12 227.41 C177.79 235.03, 164.13 241.1, 150.55 244.51 C136.96 247.91, 121.46 249.21, 107.61 247.83 C93.75 246.45, 79.99 242.61, 67.42 236.24 C54.85 229.86, 41.51 220.13, 32.2 209.56 C22.89 198.99, 16.86 185.63, 11.56 172.83 C6.25 160.03, 1.74 146.64, 0.39 132.75 C-0.97 118.87, -0.25 103.13, 3.44 89.52 C7.14 75.92, 14.03 62.37, 22.57 51.12 C31.11 39.87, 43.2 30.12, 54.66 22.01 C66.12 13.89, 77.9 5.88, 91.33 2.44 C104.76 -0.99, 121.62 -0.22, 135.23 1.42 C148.84 3.05, 166.89 10.04, 173.01 12.24 C179.13 14.44, 172.81 12.85, 171.95 14.61" stroke="#2b8a3e" stroke-width="1" fill="none"></path></g><g transform="translate(496.01415991375006 120.00904897216606) rotate(0 60.2490234375 13.714508518055027)"><text x="60.2490234375" y="0" font-family="Cascadia, Segoe UI Emoji" font-size="22.85751419675806px" fill="#2b8a3e" text-anchor="middle" style="white-space: pre;" direction="ltr" dominant-baseline="text-before-edge">CONNECTED</text></g><g stroke-linecap="round" transform="translate(822.4167345086505 366.9487397137882) rotate(0 120.74580243624433 123.91398419755296)"><path d="M16.22 60.47 C16.22 60.47, 16.22 60.47, 16.22 60.47 M16.22 60.47 C16.22 60.47, 16.22 60.47, 16.22 60.47 M12.1 68.7 C23.12 58.33, 32.6 47, 47.98 33.36 M13.56 70.23 C26.07 56.46, 37.62 40.18, 47.36 31.01 M9.78 81.63 C27.42 59.61, 48.66 38.91, 58.9 23.54 M9.67 81.69 C19.29 68.6, 30.45 56.42, 57.98 25.92 M4.25 90.42 C18.99 75.13, 36.47 56.56, 68.5 18.41 M4.79 90.38 C23.95 70.55, 41.42 50.57, 69.25 16.83 M1.23 99.76 C26.28 75.79, 46.79 48.72, 80.78 8.27 M2.29 101.09 C26.67 70.47, 52.68 41.55, 82.63 8.44 M4.45 103.8 C28.32 77.28, 53.25 48.16, 89.77 6.31 M4.02 105.3 C23.12 84.74, 40.52 63.65, 89.97 7.23 M2.9 108.82 C37.4 73.37, 65.21 40.3, 94.72 8.49 M5.69 109.29 C39.48 71.18, 73.03 32.7, 93.73 7.73 M2.72 116.91 C31.63 86.41, 55.33 57.89, 102.04 5.71 M3.84 116.22 C41.01 76.33, 76.05 33.4, 101.1 6.16 M4.31 121.36 C38.43 82.14, 75.77 42.29, 105.54 6.16 M5.02 122.87 C32.33 90.71, 61.1 55.41, 107.23 5.13 M3.26 128.69 C41.96 84.34, 79.43 40.96, 111.96 4.32 M3.87 130.17 C40.9 86.71, 79.91 41.5, 112.95 4.05 M2.62 133.25 C47.68 86.47, 86.86 41.17, 121.26 3.77 M3.42 135.1 C37.11 95.62, 70.34 57.43, 120.1 2.4 M0.54 145.25 C31.19 109.23, 59.72 74.53, 124.25 2.81 M1.89 145.24 C24.9 115.88, 50.61 87.27, 125.29 2.68 M1.68 148.04 C46.84 99.22, 87.05 51.63, 131.47 3.94 M4.1 149.33 C36.48 109.18, 70.51 70.78, 129.81 2.35 M5.15 152.78 C34.86 119.9, 66.09 82.8, 135.54 3.26 M4.62 152.46 C55.83 93.99, 107.4 34.31, 134.14 4.61 M7.05 156.08 C46.07 113.82, 86.76 66.93, 139.27 4.75 M6.38 156.96 C32.22 127.05, 59.22 95.51, 139.13 5.07 M9.26 162.83 C46.17 113.83, 87.49 67.37, 141.91 5.63 M8.37 162.22 C40.97 124.59, 73.11 87.05, 144.05 4.8 M8.23 166.48 C43.71 127.21, 74.63 90.39, 148.24 5.38 M8.57 166.94 C55.08 113, 101.4 59.96, 148.19 6.66 M8.93 169.77 C41.42 133.42, 76.81 94.86, 150.76 7.83 M9.62 170.24 C47.25 130.26, 82.34 88.4, 152.15 7.21 M12.8 174.98 C64.15 117.18, 113.47 57.21, 156.72 7.65 M12.14 175.72 C44.64 137.87, 78.18 102.3, 157.63 8.1 M13.64 180.16 C57.68 128.97, 98.56 79.37, 160.62 10.24 M13.29 179.2 C44.31 143.58, 75.64 107.73, 161.16 9.11 M16.08 183.9 C47.7 146.97, 75.56 111.85, 166.99 10.82 M14.88 183.35 C52.12 139.58, 88.58 97.46, 165.65 10.22 M15.8 187.35 C69.94 125.05, 127.17 59.37, 169.87 11.73 M16.63 187.99 C60.9 138.03, 104.84 88.26, 170.15 11.14 M19.72 190.11 C78.85 121.63, 140.02 51.47, 173.14 13.82 M19.37 190.73 C70.89 133.04, 120.72 75.93, 172.47 13.33 M21.68 193.11 C82.56 125.3, 145.04 54.66, 177.43 15.44 M22.02 193.52 C71.77 137.18, 120.15 81.56, 176.51 15.09 M25.28 195.72 C66.87 144.74, 111.94 95.34, 181.04 17.94 M24.2 195.86 C57.85 157.94, 91.12 118.27, 180.54 19.1 M29.04 198.89 C84.84 135.98, 138.55 72.14, 184.32 19.72 M27.51 199.97 C79.68 140.95, 130.41 82.35, 183.38 20.89 M30.38 201.19 C71.27 156.64, 112.57 109.8, 185.15 23.96 M31.1 202.98 C90.89 134, 152.25 63.46, 185.86 23.65 M34.3 205.31 C82.13 150.95, 128.18 92.8, 190.07 25.96 M33.01 205.5 C67.94 163.12, 105.37 120.16, 190.23 25.07 M37.17 210.31 C78.77 157.61, 121.71 106.93, 193.66 26.84 M35.71 208.3 C91.6 144.95, 146.3 82.62, 193.89 26.36 M38.91 212.31 C88.65 157.1, 136.28 101.1, 196.41 27.97 M37.47 211.74 C89.21 154.99, 137.79 97.74, 197.31 29.49 M39.98 215.93 C89.62 160.1, 136.56 102.85, 200.73 30.42 M41.17 214.95 C94.67 152.58, 149.02 89.25, 200.94 32.05 M43.63 218.69 C86.91 168.59, 131.76 116.26, 201.54 34.39 M44.05 217.37 C97.62 158.68, 148.45 99.35, 202.53 34.47 M46.91 221.7 C91.26 166.06, 136.88 115.62, 207.51 36.01 M47.21 220.48 C79.58 181.75, 114.59 141.65, 206.02 37.12 M50.86 222.59 C108.59 153.01, 167.33 85.05, 209.79 42.23 M49.96 222.82 C86.5 182.21, 121.3 142.07, 208.55 39.84 M52.92 225.5 C115.82 155.34, 176.98 82.37, 211.17 43.34 M54.05 224.49 C113.99 157.57, 174.14 86.92, 210.69 44.61 M58.38 228.38 C96.25 183.03, 134.99 139.48, 212.71 45.89 M57.63 226.37 C92.82 187.23, 125.54 148.12, 213.04 48.16 M61.48 228.21 C114.33 168, 169.68 104.7, 215.8 49.67 M59.85 228.28 C102.87 181.07, 144.19 133, 215.86 50.82 M64.93 230.54 C111.08 179.2, 158.26 124.33, 218.63 54.05 M62.85 232.13 C114.38 175.62, 163.46 118.11, 219.06 54.08 M67.55 233.92 C115.22 178.62, 166.03 120.8, 220.91 55.16 M67.95 234.17 C100.35 194.86, 133.31 157.88, 221.04 56.52 M71.23 236.08 C114.39 186.05, 156.63 135.98, 223.74 59.09 M71.66 234.92 C102.32 196.79, 135.44 159.57, 223.71 59.66 M75.26 238.5 C107.46 200.65, 141.94 162.68, 224.91 61.92 M73.58 238.23 C108.29 200.47, 140.16 163.14, 225.37 63.54 M79.09 239.1 C126.57 184.25, 172.49 126.97, 229 66.25 M78.43 239.2 C133.16 179.15, 186.21 116.75, 229.14 65.88 M81.46 239.48 C112.25 206.45, 142.95 168.25, 231.06 69.02 M81.79 241.09 C139.83 174.17, 196.18 107.65, 231.01 70.56 M86.05 241.83 C119.95 202.77, 149.12 166.62, 231.97 75.98 M86.68 240.6 C130.32 191.63, 172.62 142.54, 231.88 74.33 M92.41 243.54 C145.07 178.59, 203.85 112.6, 234.7 77.5 M91.26 242.61 C131.39 199.04, 168.61 153.73, 232.94 78.97 M96.46 242.02 C126.52 211.35, 152.69 178.91, 237.04 82.36 M95.51 243.01 C143.01 189.47, 190.99 132.34, 235.54 83.23 M100.9 244.94 C142.4 193.75, 188.97 144.24, 235.16 89.2 M99.48 245.17 C145.59 190.74, 191.85 136.38, 237.01 87.35 M103.32 245.95 C155.27 186.37, 202.86 131.3, 239.54 90.22 M104.7 244.84 C145.75 198.18, 188.94 149.87, 237.64 91.45 M110.56 245.14 C146.88 200.78, 183.91 159.23, 239.9 95.42 M108.86 246.85 C148.7 200.69, 187.77 155.93, 240.46 95.07 M114.3 246.99 C144.11 214.49, 174.06 176.61, 242.56 101.53 M113.54 246.36 C162.25 192.08, 210.3 134.55, 242.06 99.32 M117.62 247.46 C146.33 216.38, 172.71 186.34, 240.74 104.73 M119.23 247.94 C166.16 191.99, 213.33 137.31, 242.33 104.76 M121.75 251.29 C170.82 194.79, 217.43 140.91, 241.14 113.09 M122.22 250.04 C145.59 221.67, 171.13 193.7, 242.53 112.24 M127.92 247.36 C154.77 221.94, 177.8 189.75, 243.04 118.12 M128.74 249.53 C156.77 214.48, 186.99 180.85, 241.22 117.11 M133.97 249.57 C157.61 218.63, 183.93 190.42, 241.93 122.66 M134.57 247.12 C158.68 220.24, 182.11 192.64, 242.04 124.42 M141.02 247.38 C163.59 223.9, 184.89 199.17, 239.78 129.44 M139.87 247.17 C171.02 210.62, 202.24 174.75, 241.01 129.9 M147.2 243.62 C170.94 217.62, 197.79 186.18, 240.65 136.35 M146.01 245.98 C180.17 207.41, 215.55 167.14, 242.26 136.65 M153.88 243.29 C174.88 220.28, 200.29 191.44, 240.94 141.52 M151.82 245.99 C183.97 206.99, 216.54 170.25, 241.41 142.68 M159.21 242.38 C189.96 206.23, 219.94 175.67, 240.99 150.16 M160.34 240.99 C185.57 212.21, 211.25 182.3, 241.19 149.04 M169.84 236.18 C193.28 211.17, 213.76 187.57, 237.46 158.35 M172.55 235.86 C196.26 206.56, 221.34 178.57, 238.98 158.12 M182.56 228.63 C195.57 212.14, 213.4 195.97, 236.7 168.56 M182.09 228.3 C197.32 212.56, 211.02 196.16, 234.23 168.53 M195.02 219.34 C201.51 212.69, 209.34 203.36, 231.21 178.04 M196.15 219.25 C207.3 206.85, 216.98 193.78, 232.04 177.89" stroke="#fa5252" stroke-width="0.5" fill="none"></path><path d="M122.26 -0.03 C135.38 -1.76, 151.42 2.72, 164.34 7.8 C177.26 12.89, 189.5 21.22, 199.78 30.48 C210.07 39.75, 219.26 51.19, 226.04 63.37 C232.82 75.55, 238.2 89.79, 240.47 103.58 C242.74 117.36, 242.15 132.19, 239.66 146.07 C237.18 159.95, 232.78 174.67, 225.54 186.86 C218.3 199.04, 207.19 210.21, 196.24 219.19 C185.3 228.17, 172.75 236, 159.85 240.76 C146.94 245.52, 132.56 247.92, 118.84 247.75 C105.12 247.58, 90.28 244.8, 77.52 239.75 C64.76 234.71, 52.72 226.56, 42.3 217.46 C31.88 208.36, 21.84 197.39, 14.99 185.13 C8.14 172.86, 3.39 157.76, 1.2 143.87 C-0.99 129.97, -0.59 115.59, 1.87 101.75 C4.33 87.9, 8.87 72.92, 15.94 60.79 C23.01 48.66, 33.47 37.9, 44.29 28.96 C55.11 20.02, 66.58 12.04, 80.86 7.15 C95.14 2.25, 120.94 0.25, 129.99 -0.41 C139.04 -1.07, 135.47 1.09, 135.18 3.19 M71.5 9.75 C83.03 2.84, 99.58 2.29, 113.48 1.53 C127.38 0.77, 141.73 1.55, 154.89 5.17 C168.06 8.79, 181.25 15.02, 192.48 23.26 C203.71 31.49, 214.94 42.74, 222.29 54.58 C229.64 66.41, 233.61 80.26, 236.59 94.27 C239.58 108.28, 241.45 124.42, 240.21 138.64 C238.97 152.86, 235.26 167.26, 229.14 179.59 C223.02 191.91, 213.4 203, 203.49 212.59 C193.59 222.19, 182.11 231.48, 169.7 237.17 C157.3 242.86, 143.08 245.63, 129.06 246.74 C115.04 247.85, 98.87 247.69, 85.59 243.83 C72.31 239.97, 60.25 232.3, 49.36 223.59 C38.48 214.88, 27.94 203.37, 20.27 191.57 C12.6 179.77, 6.43 166.19, 3.36 152.8 C0.28 139.41, 0.44 125.44, 1.82 111.22 C3.2 96.99, 5.45 80.47, 11.62 67.43 C17.8 54.39, 28.99 42.54, 38.86 32.97 C48.73 23.41, 65.32 13.49, 70.84 10.03 C76.37 6.58, 71.03 10.53, 72.02 12.26" stroke="#c92a2a" stroke-width="1" fill="none"></path></g><g transform="translate(909.4549219378391 476.95778868595426) rotate(0 33.4716796875 13.714508518055027)"><text x="33.4716796875" y="0" font-family="Cascadia, Segoe UI Emoji" font-size="22.857514196758057px" fill="#c92a2a" text-anchor="middle" style="white-space: pre;" direction="ltr" dominant-baseline="text-before-edge">ERROR</text></g><g stroke-linecap="round" transform="translate(435.75331623456145 724.8926359414891) rotate(0 120.74580243624433 123.91398419755296)"><path d="M41.7 29.63 C41.7 29.63, 41.7 29.63, 41.7 29.63 M41.7 29.63 C41.7 29.63, 41.7 29.63, 41.7 29.63 M16.88 64.67 C30.91 48.76, 42.94 31.54, 50.68 22.98 M17.26 64.3 C28.82 51.4, 41.03 37.43, 52.41 24.09 M14.87 74.9 C30.77 54.66, 49.01 35.47, 64.51 14.5 M14.45 74.56 C32.64 53.63, 50.13 31.42, 64.25 15.35 M10.18 82.1 C31.7 59.99, 55.24 33.31, 76.5 9.05 M10.32 82.57 C35.36 54.6, 60.21 26.23, 74.97 8.76 M6.15 93.43 C33.21 63.15, 59.74 29.28, 78.34 10.23 M6.47 92.99 C26.82 70.98, 45.89 48.5, 80.36 9.7 M2.83 103.6 C27.51 78.67, 49.27 49.74, 86.7 10.13 M3.7 105.23 C21.45 84.2, 39 64.16, 85.51 8.9 M4.59 109.53 C21.12 89.19, 39.21 69.28, 91.21 7.49 M3.72 109.61 C32.75 75.36, 63.14 40.28, 91.92 7.08 M1.25 118.62 C31.91 85.51, 59.38 51.32, 99.89 7.73 M3.38 115.94 C34.66 79.42, 66.14 42.98, 98.97 6.33 M4.13 121.15 C36.13 86.18, 67.25 48.64, 104.13 5.54 M2.78 121.38 C40.42 78.67, 79.62 34.49, 106.06 5.14 M1.76 126.9 C36.7 89.65, 69.91 55.8, 113.58 4.39 M4.11 129.5 C25.6 102.69, 49.59 76.1, 111.52 3.31 M4.08 135.22 C28.44 105.2, 53.67 77.3, 120.41 -0.64 M3.94 133.64 C39.78 94.56, 75.05 53.99, 120.05 -0.85 M2.14 139.05 C37.21 101.57, 66.68 67.63, 125.76 -0.99 M3.97 141.48 C33.07 107.65, 62.13 73.58, 125.19 0.83 M4.26 147.02 C32.1 112.84, 57.53 81.06, 131.72 2.11 M3.35 146.45 C44.62 102.13, 83.51 55.02, 130.43 1.43 M5.72 149.28 C31.16 122.37, 59.99 92.17, 134.47 0.96 M5.43 149.98 C52.19 96.97, 97.75 43.71, 134.42 1.76 M6.44 154.96 C37.39 117.57, 69.14 81.59, 139.15 1.45 M7.41 154.46 C48.26 108.99, 87.48 65.35, 138.98 2.59 M10.6 158.76 C60.35 98.92, 112.56 41.41, 144.71 4.39 M9.72 157.99 C62.04 97.1, 115.4 36.02, 144.03 4.17 M9.51 162.88 C54.87 112.79, 101.75 60.28, 149.3 5.07 M9.4 163.78 C60.46 102.31, 114.12 42.2, 147.98 4.71 M10.2 168.01 C54.52 119.75, 92.84 72.94, 150.35 6.1 M11.61 168.37 C59.29 110.93, 107.58 55.58, 151.58 6.04 M12.58 171 C44.02 135.93, 76.6 99.25, 157.09 7.19 M14.23 171.12 C45.13 134.37, 77.34 96.95, 157.29 7.29 M15.86 178.37 C55.99 127.05, 102.98 75.63, 161.75 9.07 M15.19 177.52 C58.33 124.46, 103.03 74.07, 159.98 8.24 M16.25 179.85 C72.3 117.28, 124.33 56.13, 163.99 11.94 M15.34 180.83 C62.8 127.61, 109.79 71.33, 165.05 9.88 M17.55 185.72 C73.84 120.14, 131.71 55.87, 168.57 13.88 M17.92 184.36 C68.81 128.09, 119.98 68.36, 167.43 12.26 M18.42 190.23 C58.83 143.07, 98.51 97.11, 170.41 14.62 M19.38 190.05 C60.61 140.86, 103.89 92.06, 171.83 13.47 M23.3 193.55 C82.63 121.8, 145.78 50.95, 174.14 15.52 M21.36 193.45 C79.4 123.74, 138.68 54.94, 174.78 15.99 M22.91 194.65 C83.79 126.44, 145.99 58.79, 177.88 17.88 M24.59 196.5 C78.91 133.76, 133.86 70.81, 178.33 18.54 M27.77 199.33 C59.42 160.84, 95.02 123.91, 181.88 20.47 M28.03 199.03 C86.92 131.07, 145.52 63.85, 181.71 19.86 M30.44 200.9 C61.58 165.45, 95.06 127.03, 185.21 21.58 M29.92 202.49 C77.75 146.37, 126.83 88.97, 185.77 22.76 M31.79 206.12 C90.74 136.26, 149.31 67.42, 190.95 23.58 M33.01 204.28 C81.94 147.31, 130.36 89.41, 189.83 24.79 M34.77 207.75 C96.34 140.62, 155.31 68.84, 192.89 24.94 M35.2 208.41 C94.24 139.29, 152.73 70.96, 192.72 25.65 M37.13 210.36 C77.12 161.98, 118.63 118.11, 197.38 27.74 M38.1 209.81 C98.88 140.1, 160.5 70.3, 196.25 27.51 M42.56 212.3 C104.91 142.49, 165.27 68.7, 200.08 30.11 M41.7 212.48 C84.64 165.22, 127.11 116.42, 199.65 31.16 M43.54 215.12 C86.01 167.23, 131.47 113.91, 203.73 34.03 M42.97 216.03 C82.05 170.24, 122.13 125.05, 202.37 33.28 M44.98 218.8 C88.4 171.59, 131.17 124.77, 206.3 36.74 M46.38 220.32 C102.65 155.29, 159.9 88.04, 204.77 36.53 M51.1 220.91 C95.27 165.79, 142.82 112.04, 206.05 41.11 M49.97 221.65 C105.96 158.55, 160.14 95.11, 208.36 39.42 M54.57 223.75 C97.23 172.03, 144.47 120.59, 211 42.17 M52.89 224.39 C108.56 160.27, 164.52 97.42, 211.11 43.21 M57.24 225.63 C92.93 183.66, 131.1 139.79, 212.79 46.12 M55.37 225.94 C87.94 188.9, 119.87 150.83, 213.02 45.4 M60.54 229.42 C102.38 179.95, 143.97 132.04, 215.32 50.13 M59.27 228.14 C117.15 163.16, 173.73 97.94, 215.77 48.17 M62.35 228.76 C101.97 185.96, 140.53 138.07, 218.67 51.66 M64.13 230.49 C114.48 170.56, 167.62 111.37, 218.29 52.31 M68.14 232.61 C111.21 181.48, 156.78 127.47, 221.74 54.28 M66.67 232.44 C106.22 187.03, 144.12 143.91, 222.07 54.88 M70.22 234.56 C125.99 169.29, 180.43 107.41, 222.83 56.96 M69.44 234.9 C115.72 179.27, 164.03 124.92, 223.39 58.19 M73.12 237.57 C127.69 174.83, 185.1 110.24, 225.03 60.64 M74.49 235.9 C119.97 183.91, 166.5 130.69, 226.36 61.53 M76.87 239.17 C133.93 171.26, 190.43 105.73, 228.71 65.25 M77.53 238.09 C119.85 189.73, 161.92 139.41, 227.03 66.22 M81.53 239.79 C131.81 184.66, 181.66 125.58, 228.04 68.47 M80.98 241.35 C128.74 184.05, 176.39 129.24, 229.57 69.51 M83.09 242.33 C117.25 203.68, 151.22 164.12, 232.04 74.87 M84.18 244.29 C131.48 189.07, 179.26 135.99, 231.57 73.31 M89.7 245.37 C118.9 208.8, 151.79 171.51, 231.86 76.37 M89.3 243.82 C143.47 183.35, 196.46 122.7, 233.29 78.64 M92.52 244.76 C125.36 206.9, 158.42 170.13, 233.47 83.98 M92.05 245.77 C124.18 208.18, 156.37 172.55, 234.4 82.51 M96.83 245.34 C133.46 203.61, 172.06 163.83, 237.07 88.63 M97.4 246.76 C126.07 211.23, 154.99 178.77, 234.95 87.38 M102.29 245.84 C155.42 187.19, 207.21 125.18, 239.02 89.85 M102.39 247.03 C143.92 201.33, 184 153.4, 237.57 91.36 M106.89 248.05 C141.63 206.26, 175.49 166.82, 238.75 94.91 M107.3 247.02 C139.97 210.73, 172.36 172.99, 239.58 96.08 M111.9 246.8 C151.71 203.18, 189.95 154.76, 240.31 98.87 M110.76 248.55 C142.09 212.53, 172.64 179.1, 239.55 100.71 M114.76 247.47 C147.3 214.21, 179.5 178.08, 239.31 107.81 M115.94 249.62 C142.31 217.62, 168.49 185.51, 240.13 106.69 M120.26 251.07 C156.39 211.97, 188.97 171.04, 238.63 113.22 M119.41 250.21 C165.59 197.72, 210.65 143.98, 239.5 113.86 M123.32 249.51 C150.57 221.97, 173.84 195.56, 239.14 117.13 M123.67 251.63 C158.41 213.52, 190.31 175.29, 240.44 119.43 M129.26 248.43 C154.36 219.48, 177.75 193.12, 241.28 125.65 M130.61 249.64 C161.26 214.44, 194.12 176.38, 240.14 125.09 M136.16 248.53 C176.66 203.66, 214 159.82, 237.92 130.5 M137.99 249.25 C171.7 210.67, 205.34 170.65, 240.16 130.94 M143.06 247.89 C172.3 214.76, 203.95 178.42, 238.7 136.05 M144.7 247.4 C178.44 205.37, 212.91 165.12, 238.85 137.96 M150.9 247.77 C179.2 209.96, 213.38 176.73, 239.6 144.71 M149.8 246.14 C176.52 214.66, 202.28 185.47, 238.01 143.78 M156.81 245.67 C181.24 215.64, 206.05 185.02, 235.28 151.94 M155.9 244.16 C174.27 225.3, 193.19 203.7, 235.32 153.08 M163.67 240.37 C188.37 215.85, 206.09 194.12, 231.85 163.28 M164.82 241.2 C179.96 224.63, 194.71 207.37, 232.24 163.11 M178.41 233.04 C196.94 212.52, 212.84 189.78, 229.97 171.48 M177.01 233.55 C193.57 213.29, 211.66 191.41, 231.16 172.1 M187.08 227.81 C196.98 215.52, 205.74 205.86, 227.75 184.29 M188.65 228.07 C203 210.61, 218.6 193.1, 227.4 181.57" stroke="#ced4da" stroke-width="0.5" fill="none"></path><path d="M77.52 7.93 C89.23 1.32, 106.33 -0.73, 120.02 -0.88 C133.7 -1.04, 146.72 2.13, 159.65 7.01 C172.58 11.89, 186.81 19.65, 197.6 28.4 C208.39 37.15, 217.44 47.59, 224.4 59.51 C231.36 71.43, 236.94 85.9, 239.37 99.9 C241.79 113.91, 241.21 129.37, 238.95 143.55 C236.69 157.73, 232.51 172.48, 225.81 184.99 C219.11 197.49, 209.15 209.3, 198.76 218.57 C188.36 227.84, 176.26 235.63, 163.45 240.62 C150.64 245.62, 135.66 248.53, 121.91 248.55 C108.15 248.57, 93.68 245.62, 80.92 240.73 C68.15 235.84, 56.08 228.13, 45.31 219.23 C34.54 210.32, 23.37 199.22, 16.28 187.29 C9.2 175.36, 5.16 161.59, 2.78 147.65 C0.39 133.7, -0.06 117.7, 1.97 103.61 C4 89.52, 8.35 75.44, 14.97 63.1 C21.6 50.77, 29.29 39.44, 41.73 29.6 C54.17 19.76, 79.45 8.29, 89.63 4.06 C99.81 -0.16, 102.09 2.19, 102.8 4.25 M119.24 1.39 C132.5 -1, 149.32 1.48, 162.25 6.17 C175.17 10.87, 186.23 20.47, 196.81 29.55 C207.4 38.64, 218.59 48.9, 225.76 60.68 C232.93 72.47, 237.71 86.06, 239.83 100.26 C241.95 114.47, 240.95 131.77, 238.46 145.9 C235.97 160.02, 231.38 172.77, 224.9 185.01 C218.43 197.25, 209.78 210.2, 199.62 219.35 C189.46 228.51, 176.87 235.11, 163.95 239.95 C151.04 244.8, 136.36 248.31, 122.14 248.45 C107.93 248.58, 91.85 245.65, 78.68 240.75 C65.51 235.86, 53.67 228.01, 43.1 219.06 C32.54 210.11, 22.09 199.15, 15.29 187.06 C8.49 174.98, 4.7 160.35, 2.3 146.53 C-0.1 132.71, -1.17 118.27, 0.9 104.17 C2.97 90.06, 7.68 74.33, 14.73 61.9 C21.77 49.48, 32.62 38.87, 43.15 29.62 C53.69 20.38, 65.22 11.45, 77.92 6.43 C90.63 1.42, 112.36 0.43, 119.4 -0.47 C126.45 -1.36, 119.84 -0.99, 120.18 1.05" stroke="#343a40" stroke-width="1" fill="none"></path></g><g transform="translate(476.22312348919536 834.942100400277) rotate(0 80.33203125 13.714508518055027)"><text x="80.33203125" y="0" font-family="Cascadia, Segoe UI Emoji" font-size="22.85751419675806px" fill="#343a40" text-anchor="middle" style="white-space: pre;" direction="ltr" dominant-baseline="text-before-edge">DISCONNECTED</text></g><g stroke-linecap="round"><g transform="translate(290.6071318416946 490.5196406993018) rotate(0 64.64036501148371 0.29500568513321923)"><path d="M0.13 1.03 C21.69 1.12, 108.8 -0.1, 130.54 -0.44 M-1.26 0.52 C20.04 0.86, 107.74 0.91, 129.58 0.77" stroke="#000000" stroke-width="1" fill="none"></path></g><g transform="translate(290.6071318416946 490.5196406993018) rotate(0 64.64036501148371 0.29500568513321923)"><path d="M128.92 0.43 L116.72 5.64 L116.08 -5.92 L131.11 1.35" stroke="none" stroke-width="0" fill="#000000" fill-rule="evenodd"></path><path d="M130.87 0.75 C123.36 3.34, 117.25 5.67, 116.68 7.38 M129.07 0.54 C123.87 3.32, 119.05 5.37, 115.38 6.86 M115.16 7.73 C116.18 2.5, 116.06 -1.88, 115.06 -4.58 M116.06 7.19 C115.54 3.59, 116.03 0.03, 115.97 -5.33 M114.52 -4.93 C121.73 -4.03, 125.53 -1.21, 129.66 1.35 M115.81 -6.18 C120.29 -3.42, 124.13 -1.85, 130.05 0.15 M129.58 0.77 C129.58 0.77, 129.58 0.77, 129.58 0.77 M129.58 0.77 C129.58 0.77, 129.58 0.77, 129.58 0.77" stroke="#000000" stroke-width="1" fill="none"></path></g></g><mask></mask><g stroke-linecap="round"><g transform="translate(685.7062029301569 491.19982787869776) rotate(0 65.6699031202416 -0.25848406863769924)"><path d="M0.72 0.28 C22.54 0.03, 110.02 -0.66, 131.7 -0.8 M-0.36 -0.62 C21.22 -0.8, 108.41 0.07, 130.67 0.24" stroke="#c92a2a" stroke-width="1" fill="none"></path></g><g transform="translate(685.7062029301569 491.19982787869776) rotate(0 65.6699031202416 -0.25848406863769924)"><path d="M132.02 1.25 L118.01 5.02 L115.6 -5.68 L128.85 -1.03" stroke="none" stroke-width="0" fill="#c92a2a" fill-rule="evenodd"></path><path d="M131.02 0.04 C124.53 1.32, 119.89 4.29, 117.36 7.16 M131.33 -0.38 C125.78 2.98, 122.14 4.54, 117.24 6.44 M117.18 6.1 C115.91 1.72, 117.3 -2.11, 116.68 -5.94 M117.27 6.15 C117.19 2.08, 116.83 -1.47, 116.62 -6.68 M116.07 -7.54 C121.3 -4.44, 123.35 -4.02, 129.97 0.39 M116.72 -5.56 C120.05 -5.24, 124.19 -3.61, 130.79 -0.36 M130.67 0.24 C130.67 0.24, 130.67 0.24, 130.67 0.24 M130.67 0.24 C130.67 0.24, 130.67 0.24, 130.67 0.24" stroke="#c92a2a" stroke-width="1" fill="none"></path></g></g><mask></mask><g stroke-linecap="round"><g transform="translate(573.9874262990822 625.518913354641) rotate(0 -0.06926886735311655 44.389962865071084)"><path d="M0.44 -0.41 C0.44 14.58, 0.56 74.16, 0.73 89.35 M-0.8 -1.68 C-1.04 13.5, -0.65 75.39, -0.36 90.46" stroke="#343a40" stroke-width="1" fill="none"></path></g><g transform="translate(573.9874262990822 625.518913354641) rotate(0 -0.06926886735311655 44.389962865071084)"><path d="M-2.2 91.72 L-7.82 76.74 L4.07 75.87 L-1.96 88.96" stroke="none" stroke-width="0" fill="#343a40" fill-rule="evenodd"></path><path d="M-0.88 90.11 C-3.66 86.18, -4.23 82.07, -5.53 77.96 M-0.19 90.99 C-1.63 87.12, -3.58 82.27, -7.1 76.34 M-7.95 76.95 C-4.82 77.67, -2.26 77.78, 6.66 75.53 M-6.59 77.51 C-2.77 76.88, 1.23 77.34, 6.21 76.42 M5.35 77.09 C3.05 79.19, 4.38 82.57, -1.7 90.42 M5.85 76.06 C3.53 81.08, 0.77 86.49, -0.77 90.58 M-0.36 90.46 C-0.36 90.46, -0.36 90.46, -0.36 90.46 M-0.36 90.46 C-0.36 90.46, -0.36 90.46, -0.36 90.46" stroke="#343a40" stroke-width="1" fill="none"></path></g></g><mask></mask><g stroke-linecap="round"><g transform="translate(538.2123111763533 266.159976368338) rotate(0 -0.05701835484114781 45.94292318852058)"><path d="M-0.02 0.96 C0.27 16.11, 1.09 74.97, 1.38 90.01 M-1.49 0.42 C-1.29 15.84, 0.16 76.62, 0.62 91.46" stroke="#2b8a3e" stroke-width="1" fill="none"></path></g><g transform="translate(538.2123111763533 266.159976368338) rotate(0 -0.05701835484114781 45.94292318852058)"><path d="M0.93 -0.8 L4.99 15.6 L-6.44 16.06 L0.38 0.11" stroke="none" stroke-width="0" fill="#2b8a3e" fill-rule="evenodd"></path><path d="M1.18 1.42 C1.43 5.41, 4.72 7.45, 7.85 15.58 M0.51 1.14 C1.6 5.57, 3.9 8.36, 5.93 13.77 M7.75 14.12 C3.96 14.76, 0.78 14.68, -5.88 13.95 M6.51 14.73 C3.95 14.15, 1.51 14.39, -6.1 14.96 M-6.62 14.29 C-2.4 8.92, -1.17 4.15, -0.83 1.31 M-6.17 14.62 C-4.05 9.98, -1.84 5.36, -0.55 1.33 M-0.02 0.96 C-0.02 0.96, -0.02 0.96, -0.02 0.96 M-0.02 0.96 C-0.02 0.96, -0.02 0.96, -0.02 0.96" stroke="#2b8a3e" stroke-width="1" fill="none"></path></g></g><mask></mask><g transform="translate(422.192506263842 659.2528976808644) rotate(0 46.8603515625 13.714508518055027)"><text x="0" y="0" font-family="Cascadia, Segoe UI Emoji" font-size="22.85751419675806px" fill="#2b8a3e" text-anchor="start" style="white-space: pre;" direction="ltr" dominant-baseline="text-before-edge">connect</text></g><g stroke-linecap="round"><g transform="translate(538.5290467954624 627.0396768127048) rotate(0 0.49507362274147226 44.93364326831306)"><path d="M0.9 -0.13 C0.95 14.93, 1.06 75.96, 1.12 91.12 M-0.08 -1.25 C-0.26 13.43, 0.1 74.48, 0.23 89.49" stroke="#2b8a3e" stroke-width="1" fill="none"></path></g><g transform="translate(538.5290467954624 627.0396768127048) rotate(0 0.49507362274147226 44.93364326831306)"><path d="M1.78 0.39 L5.41 14.74 L-4.41 15.44 L-0.02 1.33" stroke="none" stroke-width="0" fill="#2b8a3e" fill-rule="evenodd"></path><path d="M0.74 0 C4.53 5.21, 6.5 10.79, 7.78 12.5 M0.66 -0.72 C2.07 3.22, 4 5.05, 6.55 12.77 M7.27 12.59 C5.94 13.87, 3.01 12.52, -5.78 12.34 M7.25 13.25 C3.9 13.41, 0.5 13.71, -5.05 13.7 M-6.69 14.4 C-3.14 10.62, -1.87 7.6, 1.81 -0.05 M-4.81 14.01 C-3.68 8.4, -0.88 4.78, 1.35 0.27 M0.9 -0.13 C0.9 -0.13, 0.9 -0.13, 0.9 -0.13 M0.9 -0.13 C0.9 -0.13, 0.9 -0.13, 0.9 -0.13" stroke="#2b8a3e" stroke-width="1" fill="none"></path></g></g><mask></mask><g transform="translate(600.9504977467583 300.2899281901173) rotate(0 66.943359375 13.714508518055027)"><text x="0" y="0" font-family="Cascadia, Segoe UI Emoji" font-size="22.857514196758057px" fill="#343a40" text-anchor="start" style="white-space: pre;" direction="ltr" dominant-baseline="text-before-edge">disconnect</text></g><g stroke-linecap="round"><g transform="translate(574.91354916461 267.6807398264009) rotate(0 0.14323273876811982 44.78786810712336)"><path d="M-0.13 0.11 C0.07 15.03, 1.65 75.33, 1.95 90.45 M-1.66 -0.88 C-1.6 13.59, 1.02 73.51, 1.49 88.48" stroke="#343a40" stroke-width="1" fill="none"></path></g><g transform="translate(574.91354916461 267.6807398264009) rotate(0 0.14323273876811982 44.78786810712336)"><path d="M2.02 86.61 L-4.06 76.12 L9.28 73.73 L2.96 90.08" stroke="none" stroke-width="0" fill="#343a40" fill-rule="evenodd"></path><path d="M1.63 89.65 C-0.74 84.42, -2.69 79.32, -6.3 73.73 M0.91 88.39 C0.32 85.58, -2.4 80.94, -6.04 74.41 M-6.22 76.38 C-1.49 75.88, 0.6 74.49, 6.18 74.26 M-5.56 75.18 C-0.74 75.03, 4.08 75.15, 7.53 74.16 M8.23 75.58 C5.46 80.16, 3.45 85.03, 1.58 88.84 M7.85 74.21 C5.27 77.85, 4.86 80.85, 1.89 89.21 M1.49 88.48 C1.49 88.48, 1.49 88.48, 1.49 88.48 M1.49 88.48 C1.49 88.48, 1.49 88.48, 1.49 88.48" stroke="#343a40" stroke-width="1" fill="none"></path></g></g><mask></mask><g transform="translate(309.2053871752935 438.515104194219) rotate(0 40.166015625 13.714508518055027)"><text x="0" y="0" font-family="Cascadia, Segoe UI Emoji" font-size="22.85751419675806px" fill="#000000" text-anchor="start" style="white-space: pre;" direction="ltr" dominant-baseline="text-before-edge">create</text></g></svg>