<svg width="383" height="217" viewBox="0 0 383 217" fill="none" xmlns="http://www.w3.org/2000/svg">
<rect width="383" height="217" fill="white"/>
<path d="M177.521 10.388H177.431L176.441 12.422L173.687 17.444L170.933 12.422L169.943 10.388H169.853V20H167.909V7.436H170.321L173.687 13.826H173.795L177.161 7.436H179.465V20H177.521V10.388ZM189.283 20C188.767 20 188.371 19.856 188.095 19.568C187.819 19.268 187.651 18.89 187.591 18.434H187.501C187.321 19.022 186.991 19.466 186.511 19.766C186.031 20.066 185.449 20.216 184.765 20.216C183.793 20.216 183.043 19.964 182.515 19.46C181.999 18.956 181.741 18.278 181.741 17.426C181.741 16.49 182.077 15.788 182.749 15.32C183.433 14.852 184.429 14.618 185.737 14.618H187.429V13.826C187.429 13.25 187.273 12.806 186.961 12.494C186.649 12.182 186.163 12.026 185.503 12.026C184.951 12.026 184.501 12.146 184.153 12.386C183.805 12.626 183.511 12.932 183.271 13.304L182.101 12.242C182.413 11.714 182.851 11.282 183.415 10.946C183.979 10.598 184.717 10.424 185.629 10.424C186.841 10.424 187.771 10.706 188.419 11.27C189.067 11.834 189.391 12.644 189.391 13.7V18.398H190.381V20H189.283ZM185.323 18.722C185.935 18.722 186.439 18.59 186.835 18.326C187.231 18.05 187.429 17.684 187.429 17.228V15.878H185.773C184.417 15.878 183.739 16.298 183.739 17.138V17.462C183.739 17.882 183.877 18.2 184.153 18.416C184.441 18.62 184.831 18.722 185.323 18.722ZM195.274 20.216C194.386 20.216 193.642 20.06 193.042 19.748C192.442 19.436 191.92 19.004 191.476 18.452L192.736 17.3C193.084 17.72 193.468 18.05 193.888 18.29C194.32 18.518 194.818 18.632 195.382 18.632C195.958 18.632 196.384 18.524 196.66 18.308C196.948 18.08 197.092 17.768 197.092 17.372C197.092 17.072 196.99 16.82 196.786 16.616C196.594 16.4 196.252 16.262 195.76 16.202L194.896 16.094C193.936 15.974 193.18 15.698 192.628 15.266C192.088 14.822 191.818 14.168 191.818 13.304C191.818 12.848 191.902 12.446 192.07 12.098C192.238 11.738 192.472 11.438 192.772 11.198C193.084 10.946 193.45 10.754 193.87 10.622C194.302 10.49 194.776 10.424 195.292 10.424C196.132 10.424 196.816 10.556 197.344 10.82C197.884 11.084 198.364 11.45 198.784 11.918L197.578 13.07C197.338 12.782 197.02 12.536 196.624 12.332C196.24 12.116 195.796 12.008 195.292 12.008C194.752 12.008 194.35 12.116 194.086 12.332C193.834 12.548 193.708 12.83 193.708 13.178C193.708 13.538 193.822 13.808 194.05 13.988C194.278 14.168 194.644 14.3 195.148 14.384L196.012 14.492C197.044 14.648 197.794 14.954 198.262 15.41C198.742 15.854 198.982 16.454 198.982 17.21C198.982 17.666 198.892 18.08 198.712 18.452C198.544 18.812 198.298 19.124 197.974 19.388C197.65 19.652 197.26 19.856 196.804 20C196.348 20.144 195.838 20.216 195.274 20.216ZM201.199 6.68H203.161V14.852H203.251L204.547 13.178L206.797 10.64H209.083L205.807 14.258L209.479 20H207.139L204.457 15.536L203.161 16.94V20H201.199V6.68Z" fill="#1A1A1A"/>
<rect y="101" width="30" height="30" fill="#F7F7F7"/>
<path d="M9.41669 125V123.224H14.0967V109.736H13.9287L9.70469 113.672L8.52869 112.4L12.9687 108.248H16.1127V123.224H20.4327V125H9.41669Z" fill="#1A1A1A"/>
<rect x="30" y="101" width="30" height="30" fill="#F7F7F7"/>
<path d="M39.4167 125V123.224H44.0967V109.736H43.9287L39.7047 113.672L38.5287 112.4L42.9687 108.248H46.1127V123.224H50.4327V125H39.4167Z" fill="#1A1A1A"/>
<rect x="60" y="101" width="30" height="30" fill="#F7F7F7"/>
<path d="M69.4167 125V123.224H74.0967V109.736H73.9287L69.7047 113.672L68.5287 112.4L72.9687 108.248H76.1127V123.224H80.4327V125H69.4167Z" fill="#1A1A1A"/>
<rect x="90" y="101" width="30" height="30" fill="#F7F7F7"/>
<path d="M99.4167 125V123.224H104.097V109.736H103.929L99.7047 113.672L98.5287 112.4L102.969 108.248H106.113V123.224H110.433V125H99.4167Z" fill="#1A1A1A"/>
<rect x="120" y="101" width="30" height="30" fill="#F7F7F7"/>
<path d="M129.417 125V123.224H134.097V109.736H133.929L129.705 113.672L128.529 112.4L132.969 108.248H136.113V123.224H140.433V125H129.417Z" fill="#1A1A1A"/>
<rect x="150" y="101" width="30" height="30" fill="#F7F7F7"/>
<path d="M159.417 125V123.224H164.097V109.736H163.929L159.705 113.672L158.529 112.4L162.969 108.248H166.113V123.224H170.433V125H159.417Z" fill="#1A1A1A"/>
<rect x="180" y="101" width="30" height="30" fill="#1A1A1A"/>
<path d="M194.505 125.288C192.505 125.288 191.041 124.528 190.113 123.008C189.201 121.488 188.745 119.36 188.745 116.624C188.745 113.888 189.201 111.76 190.113 110.24C191.041 108.72 192.505 107.96 194.505 107.96C196.505 107.96 197.961 108.72 198.873 110.24C199.801 111.76 200.265 113.888 200.265 116.624C200.265 119.36 199.801 121.488 198.873 123.008C197.961 124.528 196.505 125.288 194.505 125.288ZM194.505 123.536C195.161 123.536 195.721 123.4 196.185 123.128C196.649 122.856 197.025 122.472 197.313 121.976C197.601 121.48 197.809 120.896 197.937 120.224C198.081 119.552 198.153 118.808 198.153 117.992V115.256C198.153 114.44 198.081 113.696 197.937 113.024C197.809 112.352 197.601 111.768 197.313 111.272C197.025 110.776 196.649 110.392 196.185 110.12C195.721 109.848 195.161 109.712 194.505 109.712C193.849 109.712 193.289 109.848 192.825 110.12C192.361 110.392 191.985 110.776 191.697 111.272C191.409 111.768 191.193 112.352 191.049 113.024C190.921 113.696 190.857 114.44 190.857 115.256V117.992C190.857 118.808 190.921 119.552 191.049 120.224C191.193 120.896 191.409 121.48 191.697 121.976C191.985 122.472 192.361 122.856 192.825 123.128C193.289 123.4 193.849 123.536 194.505 123.536Z" fill="white"/>
<rect x="0.5" y="101.5" width="209" height="29" stroke="#1A1A1A"/>
<rect x="150" y="157" width="30" height="30" fill="#F7F7F7"/>
<path d="M159.417 181V179.224H164.097V165.736H163.929L159.705 169.672L158.529 168.4L162.969 164.248H166.113V179.224H170.433V181H159.417Z" fill="#1A1A1A"/>
<rect x="150" y="187" width="30" height="30" fill="#F7F7F7"/>
<path d="M159.417 211V209.224H164.097V195.736H163.929L159.705 199.672L158.529 198.4L162.969 194.248H166.113V209.224H170.433V211H159.417Z" fill="#1A1A1A"/>
<rect x="180" y="157" width="30" height="30" fill="#F7F7F7"/>
<path d="M189.417 181V179.224H194.097V165.736H193.929L189.705 169.672L188.529 168.4L192.969 164.248H196.113V179.224H200.433V181H189.417Z" fill="#1A1A1A"/>
<rect x="120" y="157" width="30" height="30" fill="#1A1A1A"/>
<path d="M134.505 181.288C132.505 181.288 131.041 180.528 130.113 179.008C129.201 177.488 128.745 175.36 128.745 172.624C128.745 169.888 129.201 167.76 130.113 166.24C131.041 164.72 132.505 163.96 134.505 163.96C136.505 163.96 137.961 164.72 138.873 166.24C139.801 167.76 140.265 169.888 140.265 172.624C140.265 175.36 139.801 177.488 138.873 179.008C137.961 180.528 136.505 181.288 134.505 181.288ZM134.505 179.536C135.161 179.536 135.721 179.4 136.185 179.128C136.649 178.856 137.025 178.472 137.313 177.976C137.601 177.48 137.809 176.896 137.937 176.224C138.081 175.552 138.153 174.808 138.153 173.992V171.256C138.153 170.44 138.081 169.696 137.937 169.024C137.809 168.352 137.601 167.768 137.313 167.272C137.025 166.776 136.649 166.392 136.185 166.12C135.721 165.848 135.161 165.712 134.505 165.712C133.849 165.712 133.289 165.848 132.825 166.12C132.361 166.392 131.985 166.776 131.697 167.272C131.409 167.768 131.193 168.352 131.049 169.024C130.921 169.696 130.857 170.44 130.857 171.256V173.992C130.857 174.808 130.921 175.552 131.049 176.224C131.193 176.896 131.409 177.48 131.697 177.976C131.985 178.472 132.361 178.856 132.825 179.128C133.289 179.4 133.849 179.536 134.505 179.536Z" fill="white"/>
<rect x="180" y="187" width="30" height="30" fill="#1A1A1A"/>
<path d="M194.505 211.288C192.505 211.288 191.041 210.528 190.113 209.008C189.201 207.488 188.745 205.36 188.745 202.624C188.745 199.888 189.201 197.76 190.113 196.24C191.041 194.72 192.505 193.96 194.505 193.96C196.505 193.96 197.961 194.72 198.873 196.24C199.801 197.76 200.265 199.888 200.265 202.624C200.265 205.36 199.801 207.488 198.873 209.008C197.961 210.528 196.505 211.288 194.505 211.288ZM194.505 209.536C195.161 209.536 195.721 209.4 196.185 209.128C196.649 208.856 197.025 208.472 197.313 207.976C197.601 207.48 197.809 206.896 197.937 206.224C198.081 205.552 198.153 204.808 198.153 203.992V201.256C198.153 200.44 198.081 199.696 197.937 199.024C197.809 198.352 197.601 197.768 197.313 197.272C197.025 196.776 196.649 196.392 196.185 196.12C195.721 195.848 195.161 195.712 194.505 195.712C193.849 195.712 193.289 195.848 192.825 196.12C192.361 196.392 191.985 196.776 191.697 197.272C191.409 197.768 191.193 198.352 191.049 199.024C190.921 199.696 190.857 200.44 190.857 201.256V203.992C190.857 204.808 190.921 205.552 191.049 206.224C191.193 206.896 191.409 207.48 191.697 207.976C191.985 208.472 192.361 208.856 192.825 209.128C193.289 209.4 193.849 209.536 194.505 209.536Z" fill="white"/>
<rect x="120" y="186" width="30" height="31" fill="#1A1A1A"/>
<path d="M134.505 211.288C132.505 211.288 131.041 210.528 130.113 209.008C129.201 207.488 128.745 205.36 128.745 202.624C128.745 199.888 129.201 197.76 130.113 196.24C131.041 194.72 132.505 193.96 134.505 193.96C136.505 193.96 137.961 194.72 138.873 196.24C139.801 197.76 140.265 199.888 140.265 202.624C140.265 205.36 139.801 207.488 138.873 209.008C137.961 210.528 136.505 211.288 134.505 211.288ZM134.505 209.536C135.161 209.536 135.721 209.4 136.185 209.128C136.649 208.856 137.025 208.472 137.313 207.976C137.601 207.48 137.809 206.896 137.937 206.224C138.081 205.552 138.153 204.808 138.153 203.992V201.256C138.153 200.44 138.081 199.696 137.937 199.024C137.809 198.352 137.601 197.768 137.313 197.272C137.025 196.776 136.649 196.392 136.185 196.12C135.721 195.848 135.161 195.712 134.505 195.712C133.849 195.712 133.289 195.848 132.825 196.12C132.361 196.392 131.985 196.776 131.697 197.272C131.409 197.768 131.193 198.352 131.049 199.024C130.921 199.696 130.857 200.44 130.857 201.256V203.992C130.857 204.808 130.921 205.552 131.049 206.224C131.193 206.896 131.409 207.48 131.697 207.976C131.985 208.472 132.361 208.856 132.825 209.128C133.289 209.4 133.849 209.536 134.505 209.536Z" fill="white"/>
<rect x="120.5" y="157.5" width="89" height="59" stroke="#1A1A1A"/>
<rect x="293" y="45" width="30" height="30" fill="#F7F7F7"/>
<path d="M306.569 59.352C307.705 59.352 308.553 59.096 309.113 58.584C309.689 58.056 309.977 57.384 309.977 56.568V56.4C309.977 55.52 309.697 54.864 309.137 54.432C308.593 53.984 307.873 53.76 306.977 53.76C306.113 53.76 305.409 53.952 304.865 54.336C304.321 54.704 303.873 55.208 303.521 55.848L302.033 54.696C302.241 54.36 302.489 54.032 302.777 53.712C303.081 53.376 303.433 53.08 303.833 52.824C304.233 52.568 304.697 52.36 305.225 52.2C305.753 52.04 306.353 51.96 307.025 51.96C307.729 51.96 308.393 52.056 309.017 52.248C309.641 52.424 310.177 52.696 310.625 53.064C311.089 53.416 311.449 53.856 311.705 54.384C311.977 54.912 312.113 55.512 312.113 56.184C312.113 56.728 312.025 57.216 311.849 57.648C311.689 58.08 311.465 58.456 311.177 58.776C310.889 59.096 310.545 59.368 310.145 59.592C309.761 59.816 309.345 59.984 308.897 60.096V60.192C309.345 60.288 309.777 60.448 310.193 60.672C310.625 60.88 311.001 61.16 311.321 61.512C311.657 61.848 311.921 62.264 312.113 62.76C312.321 63.24 312.425 63.792 312.425 64.416C312.425 65.136 312.289 65.8 312.017 66.408C311.745 67 311.361 67.512 310.865 67.944C310.369 68.36 309.769 68.688 309.065 68.928C308.361 69.168 307.585 69.288 306.737 69.288C306.017 69.288 305.377 69.208 304.817 69.048C304.257 68.888 303.761 68.672 303.329 68.4C302.897 68.128 302.513 67.824 302.177 67.488C301.857 67.152 301.569 66.8 301.313 66.432L302.825 65.28C303.033 65.616 303.257 65.92 303.497 66.192C303.753 66.464 304.033 66.696 304.337 66.888C304.641 67.08 304.985 67.232 305.369 67.344C305.753 67.44 306.201 67.488 306.713 67.488C307.897 67.488 308.793 67.224 309.401 66.696C310.009 66.152 310.313 65.384 310.313 64.392V64.2C310.313 63.208 310.009 62.448 309.401 61.92C308.793 61.376 307.897 61.104 306.713 61.104H304.745V59.352H306.569Z" fill="#1A1A1A"/>
<rect x="353" y="45" width="30" height="30" fill="#F7F7F7"/>
<path d="M362.417 69V67.224H367.097V53.736H366.929L362.705 57.672L361.529 56.4L365.969 52.248H369.113V67.224H373.433V69H362.417Z" fill="#1A1A1A"/>
<rect x="263" y="45" width="30" height="30" fill="#1A1A1A"/>
<path d="M283.097 69H272.105V66.936L277.577 61.896C278.361 61.176 279.017 60.416 279.545 59.616C280.073 58.8 280.337 57.984 280.337 57.168V56.88C280.337 55.952 280.081 55.2 279.569 54.624C279.057 54.048 278.281 53.76 277.241 53.76C276.729 53.76 276.281 53.832 275.897 53.976C275.513 54.12 275.177 54.32 274.889 54.576C274.617 54.832 274.385 55.136 274.193 55.488C274.017 55.824 273.873 56.192 273.761 56.592L271.961 55.896C272.121 55.4 272.337 54.92 272.609 54.456C272.897 53.976 273.249 53.552 273.665 53.184C274.097 52.816 274.609 52.52 275.201 52.296C275.809 52.072 276.521 51.96 277.337 51.96C278.153 51.96 278.881 52.08 279.521 52.32C280.161 52.56 280.697 52.896 281.129 53.328C281.561 53.76 281.889 54.272 282.113 54.864C282.353 55.456 282.473 56.112 282.473 56.832C282.473 57.488 282.377 58.096 282.185 58.656C282.009 59.216 281.761 59.752 281.441 60.264C281.121 60.76 280.729 61.248 280.265 61.728C279.817 62.208 279.329 62.688 278.801 63.168L274.289 67.224H283.097V69Z" fill="white"/>
<rect x="323" y="45" width="30" height="30" fill="#1A1A1A"/>
<path d="M332.417 69V67.224H337.097V53.736H336.929L332.705 57.672L331.529 56.4L335.969 52.248H339.113V67.224H343.433V69H332.417Z" fill="white"/>
<rect x="262.5" y="45.5" width="120" height="29" stroke="#1A1A1A"/>
<rect x="292" y="101" width="30" height="30" fill="#F7F7F7"/>
<path d="M306.529 125.288C305.665 125.288 304.881 125.144 304.177 124.856C303.489 124.552 302.897 124.128 302.401 123.584C301.921 123.024 301.553 122.344 301.297 121.544C301.041 120.744 300.913 119.848 300.913 118.856C300.913 117.608 301.097 116.44 301.465 115.352C301.833 114.248 302.305 113.248 302.881 112.352C303.473 111.44 304.121 110.64 304.825 109.952C305.529 109.248 306.217 108.68 306.889 108.248H309.481C308.585 108.904 307.785 109.544 307.081 110.168C306.377 110.792 305.761 111.448 305.233 112.136C304.705 112.808 304.257 113.536 303.889 114.32C303.521 115.088 303.225 115.96 303.001 116.936L303.121 116.984C303.521 116.296 304.033 115.728 304.657 115.28C305.297 114.816 306.129 114.584 307.153 114.584C307.873 114.584 308.537 114.704 309.145 114.944C309.753 115.184 310.273 115.528 310.705 115.976C311.137 116.424 311.473 116.968 311.713 117.608C311.969 118.248 312.097 118.96 312.097 119.744C312.097 120.56 311.961 121.312 311.689 122C311.433 122.672 311.057 123.256 310.561 123.752C310.081 124.232 309.497 124.608 308.809 124.88C308.121 125.152 307.361 125.288 306.529 125.288ZM306.505 123.536C307.609 123.536 308.465 123.232 309.073 122.624C309.697 122.016 310.009 121.144 310.009 120.008V119.816C310.009 118.68 309.697 117.808 309.073 117.2C308.465 116.592 307.609 116.288 306.505 116.288C305.401 116.288 304.537 116.592 303.913 117.2C303.305 117.808 303.001 118.68 303.001 119.816V120.008C303.001 121.144 303.305 122.016 303.913 122.624C304.537 123.232 305.401 123.536 306.505 123.536Z" fill="#1A1A1A"/>
<rect x="262" y="101" width="30" height="30" fill="#1A1A1A"/>
<path d="M276.505 125.288C274.505 125.288 273.041 124.528 272.113 123.008C271.201 121.488 270.745 119.36 270.745 116.624C270.745 113.888 271.201 111.76 272.113 110.24C273.041 108.72 274.505 107.96 276.505 107.96C278.505 107.96 279.961 108.72 280.873 110.24C281.801 111.76 282.265 113.888 282.265 116.624C282.265 119.36 281.801 121.488 280.873 123.008C279.961 124.528 278.505 125.288 276.505 125.288ZM276.505 123.536C277.161 123.536 277.721 123.4 278.185 123.128C278.649 122.856 279.025 122.472 279.313 121.976C279.601 121.48 279.809 120.896 279.937 120.224C280.081 119.552 280.153 118.808 280.153 117.992V115.256C280.153 114.44 280.081 113.696 279.937 113.024C279.809 112.352 279.601 111.768 279.313 111.272C279.025 110.776 278.649 110.392 278.185 110.12C277.721 109.848 277.161 109.712 276.505 109.712C275.849 109.712 275.289 109.848 274.825 110.12C274.361 110.392 273.985 110.776 273.697 111.272C273.409 111.768 273.193 112.352 273.049 113.024C272.921 113.696 272.857 114.44 272.857 115.256V117.992C272.857 118.808 272.921 119.552 273.049 120.224C273.193 120.896 273.409 121.48 273.697 121.976C273.985 122.472 274.361 122.856 274.825 123.128C275.289 123.4 275.849 123.536 276.505 123.536Z" fill="white"/>
<rect x="322" y="101" width="30" height="30" fill="#1A1A1A"/>
<path d="M331.417 125V123.224H336.097V109.736H335.929L331.705 113.672L330.529 112.4L334.969 108.248H338.113V123.224H342.433V125H331.417Z" fill="white"/>
<rect x="262.5" y="101.5" width="89" height="29" stroke="#1A1A1A"/>
<rect x="292" y="172" width="30" height="30" fill="#F7F7F7"/>
<path d="M305.569 186.352C306.705 186.352 307.553 186.096 308.113 185.584C308.689 185.056 308.977 184.384 308.977 183.568V183.4C308.977 182.52 308.697 181.864 308.137 181.432C307.593 180.984 306.873 180.76 305.977 180.76C305.113 180.76 304.409 180.952 303.865 181.336C303.321 181.704 302.873 182.208 302.521 182.848L301.033 181.696C301.241 181.36 301.489 181.032 301.777 180.712C302.081 180.376 302.433 180.08 302.833 179.824C303.233 179.568 303.697 179.36 304.225 179.2C304.753 179.04 305.353 178.96 306.025 178.96C306.729 178.96 307.393 179.056 308.017 179.248C308.641 179.424 309.177 179.696 309.625 180.064C310.089 180.416 310.449 180.856 310.705 181.384C310.977 181.912 311.113 182.512 311.113 183.184C311.113 183.728 311.025 184.216 310.849 184.648C310.689 185.08 310.465 185.456 310.177 185.776C309.889 186.096 309.545 186.368 309.145 186.592C308.761 186.816 308.345 186.984 307.897 187.096V187.192C308.345 187.288 308.777 187.448 309.193 187.672C309.625 187.88 310.001 188.16 310.321 188.512C310.657 188.848 310.921 189.264 311.113 189.76C311.321 190.24 311.425 190.792 311.425 191.416C311.425 192.136 311.289 192.8 311.017 193.408C310.745 194 310.361 194.512 309.865 194.944C309.369 195.36 308.769 195.688 308.065 195.928C307.361 196.168 306.585 196.288 305.737 196.288C305.017 196.288 304.377 196.208 303.817 196.048C303.257 195.888 302.761 195.672 302.329 195.4C301.897 195.128 301.513 194.824 301.177 194.488C300.857 194.152 300.569 193.8 300.313 193.432L301.825 192.28C302.033 192.616 302.257 192.92 302.497 193.192C302.753 193.464 303.033 193.696 303.337 193.888C303.641 194.08 303.985 194.232 304.369 194.344C304.753 194.44 305.201 194.488 305.713 194.488C306.897 194.488 307.793 194.224 308.401 193.696C309.009 193.152 309.313 192.384 309.313 191.392V191.2C309.313 190.208 309.009 189.448 308.401 188.92C307.793 188.376 306.897 188.104 305.713 188.104H303.745V186.352H305.569Z" fill="#1A1A1A"/>
<rect x="262" y="172" width="30" height="30" fill="#1A1A1A"/>
<path d="M282.097 196H271.105V193.936L276.577 188.896C277.361 188.176 278.017 187.416 278.545 186.616C279.073 185.8 279.337 184.984 279.337 184.168V183.88C279.337 182.952 279.081 182.2 278.569 181.624C278.057 181.048 277.281 180.76 276.241 180.76C275.729 180.76 275.281 180.832 274.897 180.976C274.513 181.12 274.177 181.32 273.889 181.576C273.617 181.832 273.385 182.136 273.193 182.488C273.017 182.824 272.873 183.192 272.761 183.592L270.961 182.896C271.121 182.4 271.337 181.92 271.609 181.456C271.897 180.976 272.249 180.552 272.665 180.184C273.097 179.816 273.609 179.52 274.201 179.296C274.809 179.072 275.521 178.96 276.337 178.96C277.153 178.96 277.881 179.08 278.521 179.32C279.161 179.56 279.697 179.896 280.129 180.328C280.561 180.76 280.889 181.272 281.113 181.864C281.353 182.456 281.473 183.112 281.473 183.832C281.473 184.488 281.377 185.096 281.185 185.656C281.009 186.216 280.761 186.752 280.441 187.264C280.121 187.76 279.729 188.248 279.265 188.728C278.817 189.208 278.329 189.688 277.801 190.168L273.289 194.224H282.097V196Z" fill="white"/>
<rect x="322" y="172" width="30" height="30" fill="#1A1A1A"/>
<path d="M331.417 196V194.224H336.097V180.736H335.929L331.705 184.672L330.529 183.4L334.969 179.248H338.113V194.224H342.433V196H331.417Z" fill="white"/>
<rect x="262.5" y="172.5" width="89" height="29" stroke="#1A1A1A"/>
<rect x="60" y="45" width="30" height="30" fill="#F7F7F7"/>
<path d="M69.4167 69V67.224H74.0967V53.736H73.9287L69.7047 57.672L68.5287 56.4L72.9687 52.248H76.1127V67.224H80.4327V69H69.4167Z" fill="#1A1A1A"/>
<rect x="90" y="45" width="30" height="30" fill="#F7F7F7"/>
<path d="M99.4167 69V67.224H104.097V53.736H103.929L99.7047 57.672L98.5287 56.4L102.969 52.248H106.113V67.224H110.433V69H99.4167Z" fill="#1A1A1A"/>
<rect x="120" y="45" width="30" height="30" fill="#F7F7F7"/>
<path d="M129.417 69V67.224H134.097V53.736H133.929L129.705 57.672L128.529 56.4L132.969 52.248H136.113V67.224H140.433V69H129.417Z" fill="#1A1A1A"/>
<rect x="180" y="45" width="30" height="30" fill="#F7F7F7"/>
<path d="M189.417 69V67.224H194.097V53.736H193.929L189.705 57.672L188.529 56.4L192.969 52.248H196.113V67.224H200.433V69H189.417Z" fill="#1A1A1A"/>
<rect y="45" width="31" height="30" fill="#1A1A1A"/>
<path d="M14.988 69.288C12.988 69.288 11.524 68.528 10.596 67.008C9.68396 65.488 9.22796 63.36 9.22796 60.624C9.22796 57.888 9.68396 55.76 10.596 54.24C11.524 52.72 12.988 51.96 14.988 51.96C16.988 51.96 18.444 52.72 19.356 54.24C20.284 55.76 20.748 57.888 20.748 60.624C20.748 63.36 20.284 65.488 19.356 67.008C18.444 68.528 16.988 69.288 14.988 69.288ZM14.988 67.536C15.644 67.536 16.204 67.4 16.668 67.128C17.132 66.856 17.508 66.472 17.796 65.976C18.084 65.48 18.292 64.896 18.42 64.224C18.564 63.552 18.636 62.808 18.636 61.992V59.256C18.636 58.44 18.564 57.696 18.42 57.024C18.292 56.352 18.084 55.768 17.796 55.272C17.508 54.776 17.132 54.392 16.668 54.12C16.204 53.848 15.644 53.712 14.988 53.712C14.332 53.712 13.772 53.848 13.308 54.12C12.844 54.392 12.468 54.776 12.18 55.272C11.892 55.768 11.676 56.352 11.532 57.024C11.404 57.696 11.34 58.44 11.34 59.256V61.992C11.34 62.808 11.404 63.552 11.532 64.224C11.676 64.896 11.892 65.48 12.18 65.976C12.468 66.472 12.844 66.856 13.308 67.128C13.772 67.4 14.332 67.536 14.988 67.536Z" fill="white"/>
<rect x="30" y="45" width="30" height="30" fill="#1A1A1A"/>
<path d="M44.5047 69.288C42.5047 69.288 41.0407 68.528 40.1127 67.008C39.2007 65.488 38.7447 63.36 38.7447 60.624C38.7447 57.888 39.2007 55.76 40.1127 54.24C41.0407 52.72 42.5047 51.96 44.5047 51.96C46.5047 51.96 47.9607 52.72 48.8727 54.24C49.8007 55.76 50.2647 57.888 50.2647 60.624C50.2647 63.36 49.8007 65.488 48.8727 67.008C47.9607 68.528 46.5047 69.288 44.5047 69.288ZM44.5047 67.536C45.1607 67.536 45.7207 67.4 46.1847 67.128C46.6487 66.856 47.0247 66.472 47.3127 65.976C47.6007 65.48 47.8087 64.896 47.9367 64.224C48.0807 63.552 48.1527 62.808 48.1527 61.992V59.256C48.1527 58.44 48.0807 57.696 47.9367 57.024C47.8087 56.352 47.6007 55.768 47.3127 55.272C47.0247 54.776 46.6487 54.392 46.1847 54.12C45.7207 53.848 45.1607 53.712 44.5047 53.712C43.8487 53.712 43.2887 53.848 42.8247 54.12C42.3607 54.392 41.9847 54.776 41.6967 55.272C41.4087 55.768 41.1927 56.352 41.0487 57.024C40.9207 57.696 40.8567 58.44 40.8567 59.256V61.992C40.8567 62.808 40.9207 63.552 41.0487 64.224C41.1927 64.896 41.4087 65.48 41.6967 65.976C41.9847 66.472 42.3607 66.856 42.8247 67.128C43.2887 67.4 43.8487 67.536 44.5047 67.536Z" fill="white"/>
<rect x="150" y="45" width="30" height="30" fill="#1A1A1A"/>
<path d="M164.505 69.288C162.505 69.288 161.041 68.528 160.113 67.008C159.201 65.488 158.745 63.36 158.745 60.624C158.745 57.888 159.201 55.76 160.113 54.24C161.041 52.72 162.505 51.96 164.505 51.96C166.505 51.96 167.961 52.72 168.873 54.24C169.801 55.76 170.265 57.888 170.265 60.624C170.265 63.36 169.801 65.488 168.873 67.008C167.961 68.528 166.505 69.288 164.505 69.288ZM164.505 67.536C165.161 67.536 165.721 67.4 166.185 67.128C166.649 66.856 167.025 66.472 167.313 65.976C167.601 65.48 167.809 64.896 167.937 64.224C168.081 63.552 168.153 62.808 168.153 61.992V59.256C168.153 58.44 168.081 57.696 167.937 57.024C167.809 56.352 167.601 55.768 167.313 55.272C167.025 54.776 166.649 54.392 166.185 54.12C165.721 53.848 165.161 53.712 164.505 53.712C163.849 53.712 163.289 53.848 162.825 54.12C162.361 54.392 161.985 54.776 161.697 55.272C161.409 55.768 161.193 56.352 161.049 57.024C160.921 57.696 160.857 58.44 160.857 59.256V61.992C160.857 62.808 160.921 63.552 161.049 64.224C161.193 64.896 161.409 65.48 161.697 65.976C161.985 66.472 162.361 66.856 162.825 67.128C163.289 67.4 163.849 67.536 164.505 67.536Z" fill="white"/>
<rect x="0.5" y="45.5" width="209" height="29" stroke="#1A1A1A"/>
<path d="M265.735 20H263.701V7.436H269.119C270.247 7.436 271.135 7.778 271.783 8.462C272.431 9.134 272.755 10.052 272.755 11.216C272.755 12.116 272.545 12.866 272.125 13.466C271.717 14.054 271.111 14.468 270.307 14.708L273.025 20H270.757L268.237 14.924H265.735V20ZM268.975 13.214C269.491 13.214 269.893 13.082 270.181 12.818C270.469 12.542 270.613 12.152 270.613 11.648V10.784C270.613 10.28 270.469 9.896 270.181 9.632C269.893 9.356 269.491 9.218 268.975 9.218H265.735V13.214H268.975ZM275.496 20V7.436H277.53V18.2H282.642V20H275.496ZM284.725 20V7.436H292.771V9.236H286.759V12.728H292.213V14.528H286.759V18.2H292.771V20H284.725Z" fill="#1A1A1A"/>
<path d="M232.716 9.992L233.598 10.856L232.032 12.404L231.132 13.16L231.15 13.214L232.896 13.106H237.864L239.61 13.214L239.628 13.16L238.728 12.404L237.162 10.856L238.044 9.992L241.77 13.718L238.044 17.444L237.162 16.58L238.728 15.032L239.628 14.276L239.61 14.222L237.864 14.33H232.896L231.15 14.222L231.132 14.276L232.032 15.032L233.598 16.58L232.716 17.444L228.99 13.718L232.716 9.992Z" fill="#1A1A1A"/>
</svg>
