<svg version="1.1" xmlns="http://www.w3.org/2000/svg" viewBox="0 0 1075.903497289256 984.5431343947375" width="2151.806994578512" height="1969.086268789475">
  <!-- svg-source:excalidraw -->
  
  <defs>
    <style class="style-fonts">
      @font-face {
        font-family: "Virgil";
        src: url("https://excalidraw.com/Virgil.woff2");
      }
      @font-face {
        font-family: "Cascadia";
        src: url("https://excalidraw.com/Cascadia.woff2");
      }
    </style>
  </defs>
  <rect x="0" y="0" width="1075.903497289256" height="984.5431343947375" fill="#ffffff"></rect><g stroke-linecap="round" transform="translate(10 353.87584449181804) rotate(0 140.55633637455026 137.89720248129242)"><path d="M176.25 34.5 M176.25 34.5 C202.4 58.58, 225.54 86.63, 245.86 103.5 M176.25 34.5 C203.11 60.35, 229 86.7, 245.86 103.5 M245.86 103.5 C280.77 139.37, 280.81 139.1, 245.86 172.5 M245.86 103.5 C280.6 139.47, 280.29 140.26, 245.86 172.5 M245.86 172.5 C221.61 195.63, 199.7 217.84, 176.25 241.29 M245.86 172.5 C220.12 199.73, 192.31 227.07, 176.25 241.29 M176.25 241.29 C140.89 276.71, 139.3 274.33, 105.75 241.29 M176.25 241.29 C140.78 277.12, 138.75 274.12, 105.75 241.29 M105.75 241.29 C92.09 228.56, 76.77 213.05, 35.25 172.5 M105.75 241.29 C80.16 214.18, 52.78 190.06, 35.25 172.5 M35.25 172.5 C0.29 139.49, -1.08 138.8, 35.25 103.5 M35.25 172.5 C1.95 139.14, -0.99 137.12, 35.25 103.5 M35.25 103.5 C60.19 78.88, 83.8 53.28, 105.75 34.5 M35.25 103.5 C54.45 84.4, 74.96 64.8, 105.75 34.5 M105.75 34.5 C142.16 -1.87, 142.53 -1.7, 176.25 34.5 M105.75 34.5 C140.21 -1.02, 140.09 0.95, 176.25 34.5" stroke="#000000" stroke-width="1" fill="none"></path></g><g transform="translate(114.64047287477524 477.01732073643734) rotate(0 36.1376953125 14.807124996026914)"><text x="36.1376953125" y="0" font-family="Cascadia, Segoe UI Emoji" font-size="24.67854166004468px" fill="#000000" text-anchor="middle" style="white-space: pre;" direction="ltr" dominant-baseline="text-before-edge">Model</text></g><g stroke-linecap="round" transform="translate(436.5593114658842 367.62448073814676) rotate(0 120.97438677664724 124.1485662349653)"><path d="M153.5 5.17 C166.5 6.93, 180.25 15.71, 191.6 23.86 C202.94 32.01, 213.69 42.48, 221.58 54.07 C229.46 65.66, 235.52 79.69, 238.9 93.4 C242.29 107.11, 243.28 122.27, 241.89 136.32 C240.51 150.37, 236.51 164.87, 230.59 177.69 C224.68 190.51, 216.41 203.34, 206.4 213.26 C196.38 223.18, 183.38 231.33, 170.5 237.2 C157.62 243.08, 142.93 247.33, 129.11 248.5 C115.28 249.68, 100.52 248.05, 87.54 244.25 C74.56 240.44, 62.2 233.87, 51.23 225.66 C40.26 217.44, 29.64 206.74, 21.7 194.96 C13.77 183.18, 7.09 168.87, 3.64 155 C0.19 141.12, -0.46 125.96, 1.01 111.7 C2.48 97.43, 6.66 82.16, 12.46 69.4 C18.25 56.64, 25.9 45.05, 35.8 35.15 C45.69 25.25, 59.25 15.96, 71.83 9.99 C84.4 4.03, 97.06 0.15, 111.24 -0.64 C125.42 -1.42, 149.12 3.7, 156.91 5.3 C164.7 6.89, 158.7 6.99, 157.97 8.93" stroke="#e67700" stroke-width="1.5" fill="none" stroke-dasharray="8 9"></path></g><g transform="translate(477.98895931537993 477.17962891775414) rotate(0 79.5029296875 14.807124996026914)"><text x="79.5029296875" y="0" font-family="Cascadia, Segoe UI Emoji" font-size="24.67854166004468px" fill="#e67700" text-anchor="middle" style="white-space: pre;" direction="ltr" dominant-baseline="text-before-edge">UNSPECIFIED</text></g><g stroke-linecap="round" transform="translate(436.5593114658842 10) rotate(0 120.97438677664724 124.1485662349653)"><path d="M39.67 31.84 C39.67 31.84, 39.67 31.84, 39.67 31.84 M39.67 31.84 C39.67 31.84, 39.67 31.84, 39.67 31.84 M12.29 66.57 C27.15 54.25, 38.9 41.92, 53.23 23.52 M14.63 68.35 C21.04 59.34, 30.04 49.7, 52.06 23.1 M13.42 76.85 C32.73 52.47, 51.3 29.42, 65.65 15.52 M11.43 76.32 C27.47 58.42, 43.11 41.44, 66.19 14.45 M9.37 85.72 C24 65.43, 42.83 48.93, 75.36 9.35 M8.72 86.08 C29.54 60.96, 49.95 35.98, 75.5 9.32 M6.74 95.74 C33.46 60.11, 64.69 28.64, 82.53 7.59 M7.35 94.17 C29.34 69.94, 48.72 45.83, 81.09 9.3 M3.47 103.64 C28.96 75.54, 52.34 48.69, 87.8 5.89 M4.18 104.72 C29.21 76.56, 52.69 47.39, 88.84 7.23 M4.82 108.21 C24.98 86.33, 46.43 61.07, 93.19 6.48 M3.4 110.39 C40.61 68.65, 75.98 27.14, 94.65 4.91 M4.96 115.59 C32.74 80.08, 63.81 47.86, 101.37 2.8 M4.54 115.79 C33.38 81.28, 63.76 47.25, 101.18 4.74 M5.49 120.1 C44.71 76.57, 80.2 31.57, 107.1 1.45 M4.41 121.38 C42.56 78.39, 78.81 36.14, 107.67 3.84 M6.3 126.99 C37.22 89.74, 70.71 53.28, 113.93 2.38 M4.32 126.34 C34.46 92.51, 62.36 59.49, 114.07 1.28 M4.89 134.1 C40.4 90.79, 79.82 48.26, 119.65 2.59 M4.87 133.29 C34.85 100.14, 63.41 66.73, 118.82 1.87 M5.13 139.82 C36.47 101.63, 70.81 61.94, 124.95 4.3 M5.07 138.35 C32.44 105.37, 61.43 73.26, 123.05 3.48 M5.31 144.5 C50.58 89.77, 97.68 37.36, 130.18 2.88 M5.84 143.67 C52.28 88.82, 101.64 33.41, 127.58 3 M4.96 152.67 C31.32 122.21, 60.94 92.92, 133.43 2.55 M3.16 151.73 C35.25 117.26, 63.8 83.33, 132.57 3.19 M5.38 156.17 C49.29 106.87, 94.07 57.24, 138.46 4.56 M6.02 155.61 C37.34 120.68, 68.79 83.26, 137.81 4.85 M7.77 159.29 C41.35 120.35, 79.14 77.03, 141.94 6.13 M7.32 159.88 C61.23 98.29, 114.8 37.43, 141.17 5.21 M9.62 165.41 C54.21 113.17, 95.7 60.17, 147.75 5.62 M8.8 163.51 C52.47 113.12, 95.75 61.69, 147.53 6.16 M11.02 169.46 C59.96 111.96, 110.34 51.98, 151.28 8.49 M10.54 168.07 C41.15 132.19, 72.21 97.09, 150.68 7.37 M11.01 172.92 C40.99 139.5, 72.32 106.87, 157.03 6.49 M12.35 172.42 C53.6 126.73, 92.56 81.73, 156.68 6.61 M12.83 175.73 C49.79 138.99, 82.07 99.7, 159.4 8.99 M14.18 177.2 C65.99 116.14, 119.72 55.05, 160.53 9.26 M17.03 180.61 C75.93 114.25, 132.83 49.26, 165.78 9.62 M15.7 181.34 C47.85 143.92, 79.72 105.34, 164.53 10.77 M15.82 185.99 C69.14 125.01, 124.66 61.29, 168.32 12.19 M17.72 185.44 C75.78 117.48, 134.06 51.28, 168.45 13.07 M19.68 190.71 C73.76 126.03, 132.99 59.5, 171.94 13.95 M19.24 190.47 C77.6 119.88, 136.83 51.77, 172.11 14.84 M21.66 193.48 C55.93 154.04, 88.86 112.06, 174.47 16 M21.43 193.89 C60.9 149.02, 101.04 104.51, 175.54 16 M22.67 195.49 C61.64 152.29, 100.41 109.56, 178.55 18.92 M25 196.71 C70.11 145.88, 115.05 93.32, 179.4 18.48 M24.99 197.71 C72.89 149.7, 115.88 97.33, 181.65 20.23 M26.01 199.06 C59.58 160.74, 92.97 121.59, 182.86 19.58 M29.54 200.46 C84.15 139.35, 140.4 76.38, 187.8 20.23 M29.37 202.44 C84.64 138.16, 139.65 75.23, 185.62 21.2 M32.48 205.21 C91.89 137.75, 149.07 67.52, 190.97 22.72 M32.3 204.86 C80.79 149.06, 130.31 91.31, 190.86 23.18 M33.77 209.37 C71.93 168.11, 108.27 123.49, 193.46 24.13 M35.8 208.25 C72.71 162.46, 113.34 116.22, 193.94 25.81 M36.98 211.43 C83.84 157.3, 130.56 101.97, 195.98 27.63 M38.12 211.95 C85.59 157.08, 133.75 101.57, 196.95 26.56 M41.29 212.34 C90.29 156.2, 137.25 100.56, 201.28 30.47 M39.62 213.43 C77.46 171.14, 114.03 128.62, 199.42 30.72 M41.29 217.35 C85.82 169.26, 128.62 118.47, 202.34 32.74 M42.81 216.79 C94.18 160.85, 144.97 102.22, 202.57 32.93 M45.51 220.76 C103.16 152.8, 164.34 84.93, 203.93 37.37 M45.58 220.13 C100.51 154.46, 156.88 89.11, 204.72 37.08 M49.73 224.42 C88.42 177.79, 129.39 133.14, 208.75 37.57 M47.99 224.11 C108.09 153.81, 168.95 82.42, 208.42 39.72 M52.85 225.01 C101.87 169.88, 148.78 116.83, 210.57 41.78 M51.03 225.16 C90.69 180.21, 130.09 133.66, 210.66 41.82 M55.31 227.38 C89.8 190.46, 119.45 155.61, 212.73 45.27 M55.47 227.22 C109.97 164.73, 163.15 103.77, 214.28 44.49 M60.53 230.06 C116.6 167.1, 171.27 102.38, 214.72 48.53 M59.36 228.18 C118.96 160.23, 177.01 92.41, 216.45 49.23 M61.89 229.24 C100.58 187.77, 134.97 144.52, 217.47 52.01 M62.08 230.54 C111.02 175.77, 159.37 119.82, 218.5 51.85 M65.53 233.6 C105.36 187.06, 144.78 138.52, 219.78 54.64 M66.61 233.92 C119.67 172.25, 173.5 110.9, 221.08 54.42 M67.95 233.72 C115.73 182.51, 164.8 126.85, 223 59.34 M69.14 236.14 C104.35 198.25, 136.95 159.29, 223.22 58.35 M72.23 237.52 C125.95 178.83, 177.18 116.77, 226.13 62.48 M73.15 237.88 C103.74 198.15, 137.02 161.63, 224.56 62.3 M75.55 239.47 C114.86 194.25, 150.59 149.56, 228.46 65.09 M77.3 238.74 C118.01 193.58, 158.96 147.12, 227.48 65.92 M82.18 242.35 C140.41 172.69, 196.28 106.25, 229.31 70.95 M81.04 241.53 C138 177.54, 192.19 113.87, 228.77 69.61 M84.73 242.78 C141.42 174.91, 200.19 110.17, 228.82 72.93 M85.02 242.86 C125.91 196.33, 166.52 148.35, 229.99 73.81 M87.48 246.5 C140.81 182.85, 198.29 117.27, 233.18 79.47 M86.6 245.89 C129.63 197.15, 170.43 149.55, 232.84 78.14 M91.57 245.71 C142.74 189.22, 193.13 132.24, 233.95 84.47 M92.74 246.42 C141.87 188.48, 192.06 130.99, 233.48 83.18 M97.51 246.17 C148.36 186.26, 200.14 126.35, 234 86.98 M97.92 245.35 C144.01 194.13, 189.66 141.43, 235.01 86.11 M102.44 245.66 C155.94 187.77, 207.86 125.94, 237.33 92.2 M100.7 248.14 C129.4 215.03, 157.48 182.91, 236.69 91.26 M107.78 248.04 C157.49 188.08, 211.15 126.1, 240.24 96.47 M105.88 248.17 C152.67 194.5, 198.26 142.23, 239.49 95.2 M109.24 250.08 C146.86 208.05, 181.4 164.85, 242.66 97.74 M111.52 248.89 C138.64 218.26, 164.31 186.3, 240.96 98.32 M117.49 249.73 C160.57 196.23, 205.52 144.14, 241.99 103.21 M114.92 248.85 C154.94 202.03, 193.27 156.53, 242.71 103.24 M120.58 247.92 C149.92 216.3, 178.9 184.94, 241.57 110.71 M120.41 249.99 C166.67 197.62, 211.1 146.18, 241.99 110.31 M126.66 249.23 C166.22 198.13, 210.64 151.32, 240.08 115.6 M126.34 249.71 C155.94 213.95, 187.76 179.12, 241.84 117.19 M132.2 247.16 C158 219.08, 184.03 190.48, 241.8 122.1 M133.52 248.24 C174.12 200.51, 215.56 152.83, 242.7 121.13 M138.1 245.08 C179.45 200.69, 219.78 154.45, 241.27 127.19 M138.69 246.65 C178.31 203.43, 217.01 159.76, 243.41 127.01 M145.67 244.86 C166.44 219.08, 189.69 194.81, 242.73 134.36 M146.95 245.61 C177.02 211.18, 205.31 177.03, 242.14 134.13 M153.43 243.63 C185.18 206.61, 218.98 167.61, 240.84 142 M151.94 243.21 C173.53 217.62, 195.44 192.86, 241.44 140.69 M159.78 243.4 C182.09 214.25, 206.3 186.88, 238.73 150.1 M158.93 242.73 C187.22 209.93, 213.79 179.09, 239.74 149.64 M166.46 241.31 C189.43 210.12, 213.98 184.67, 236.01 160.92 M165.66 239.89 C183.41 220.11, 201.06 198.53, 235.76 159.4 M177.13 230.73 C190.05 215.91, 202.74 201.39, 232.27 169.2 M179.36 232.15 C192.7 216.45, 206.32 200.51, 233.4 169.16 M190.43 224.08 C205.67 209.24, 217.9 191.81, 231.74 178.1 M191.2 222.55 C198.38 214.41, 207.27 204.07, 230.85 176.95" stroke="#40c057" stroke-width="0.5" fill="none"></path><path d="M157.5 6.29 C170.71 8.39, 184.35 17.07, 195.4 25.6 C206.44 34.13, 216.41 45.51, 223.79 57.45 C231.17 69.39, 236.71 83.45, 239.67 97.24 C242.63 111.03, 243.28 126.08, 241.53 140.18 C239.78 154.29, 235.7 169.27, 229.18 181.86 C222.65 194.44, 212.86 206.08, 202.37 215.68 C191.88 225.29, 179.05 233.95, 166.23 239.47 C153.4 244.99, 138.92 248.16, 125.43 248.79 C111.95 249.41, 98.25 247.45, 85.32 243.22 C72.4 239, 58.98 232.15, 47.89 223.43 C36.79 214.72, 26.2 203.05, 18.75 190.94 C11.31 178.83, 6.11 164.79, 3.24 150.78 C0.36 136.77, -0.11 120.94, 1.52 106.91 C3.15 92.87, 6.61 79.12, 13.02 66.56 C19.43 53.99, 29.77 41.21, 39.96 31.51 C50.14 21.82, 61.31 13.63, 74.12 8.4 C86.94 3.16, 100.37 -0.55, 116.86 0.11 C133.35 0.77, 161.67 8.79, 173.06 12.37 C184.45 15.95, 186.06 19.85, 185.22 21.61 M62.96 15.62 C73.52 7.96, 90.34 4.44, 104 2.38 C117.67 0.32, 131.3 0.4, 144.97 3.24 C158.64 6.08, 174.31 12.15, 186.05 19.42 C197.8 26.69, 206.99 35.7, 215.44 46.86 C223.89 58.02, 232.51 72.77, 236.73 86.37 C240.95 99.96, 241.42 114.55, 240.76 128.42 C240.09 142.29, 237.91 156.57, 232.73 169.61 C227.56 182.64, 218.78 195.76, 209.7 206.64 C200.62 217.51, 190.27 227.93, 178.25 234.85 C166.23 241.76, 151.15 246.24, 137.58 248.13 C124.02 250.03, 110.13 249.53, 96.87 246.21 C83.61 242.89, 69.68 235.99, 58.04 228.22 C46.39 220.45, 35.76 210.6, 27.01 199.59 C18.26 188.59, 10.1 175.32, 5.51 162.19 C0.92 149.06, -0.96 134.67, -0.53 120.79 C-0.1 106.92, 3.06 92.04, 8.07 78.95 C13.09 65.85, 20.45 53.05, 29.55 42.21 C38.65 31.38, 56.74 18.1, 62.67 13.95 C68.6 9.8, 63.89 15.13, 65.12 17.32" stroke="#2b8a3e" stroke-width="1" fill="none"></path></g><g transform="translate(514.1266546278799 119.55514817960739) rotate(0 43.365234375 14.807124996026687)"><text x="43.365234375" y="0" font-family="Cascadia, Segoe UI Emoji" font-size="24.678541660044676px" fill="#2b8a3e" text-anchor="middle" style="white-space: pre;" direction="ltr" dominant-baseline="text-before-edge">ONLINE</text></g><g stroke-linecap="round" transform="translate(823.9547237359616 367.62448073814676) rotate(0 120.97438677664724 124.1485662349653)"><path d="M34.66 35.43 C34.66 35.43, 34.66 35.43, 34.66 35.43 M34.66 35.43 C34.66 35.43, 34.66 35.43, 34.66 35.43 M20.45 59.26 C26.44 54, 32.23 45.93, 44.94 28.19 M18.79 59.99 C28.26 49.32, 35.83 39.13, 47.67 28.27 M14.32 72.53 C30.15 51.94, 49.33 31.44, 59.46 18.52 M13.5 71.73 C23.53 61.32, 33.48 50.01, 59.12 17.86 M9.62 79.46 C34.79 55.41, 55.96 29.25, 71.67 12.57 M10.92 80.98 C31.36 55.76, 53.89 31.81, 72.11 12.12 M6.78 89.13 C30.17 66.09, 51.05 41.05, 77.87 7.75 M8.96 89.64 C21.95 72.24, 37.95 56.11, 78.06 8.78 M6.29 97.79 C23.51 78.17, 40.94 57.76, 84.31 7.57 M6.48 99.45 C23.59 76.3, 43.11 56.35, 83.88 8.2 M2.27 109.63 C26.25 81.51, 49.64 54.48, 93.43 5.91 M3.19 108.87 C27.72 79.7, 52.69 50.87, 91.53 6.72 M1.07 114.18 C28.86 85.14, 55.03 53.35, 98.57 5.2 M1.7 115.53 C28.19 85.11, 53.85 56.17, 99.19 4.95 M4.8 120.75 C33.67 83.21, 67.05 45.2, 106.65 2.34 M3.4 120.85 C32.87 86.25, 63.84 51.95, 105.35 2.77 M3.37 127.39 C46.49 78.73, 87.95 28.97, 110.94 1.16 M3.99 126.01 C46.97 76.93, 90 28.08, 111.94 1.87 M2.47 133.07 C44.19 87.18, 83.15 41.68, 115.76 0.57 M3.77 132.27 C33.97 96.49, 64.86 61.28, 116.48 3.04 M4.34 138.33 C44.58 91.19, 84.21 48.34, 120.53 3.27 M3.9 136.7 C39.52 97.44, 74.86 57.22, 122.5 2.91 M3.88 142.53 C44.61 97.5, 88.03 49.25, 128.51 4.43 M4.86 141.51 C32.01 111.94, 56.58 82.79, 125.74 1.79 M4.62 148.22 C35.98 115.78, 64.11 79, 130.22 1.15 M5.86 147.57 C47.65 100.35, 89.55 52.45, 131.93 3.18 M6.85 154.38 C54.46 102.1, 99.39 47.84, 135.51 5.35 M7.37 153.66 C35.01 120.87, 64.09 87.94, 136.26 3.78 M6.51 158.73 C49.12 110.32, 88.43 65.98, 143.35 2.88 M7.28 158.02 C55.71 103.97, 103.16 47.66, 141.82 4.46 M10.92 162.19 C52.05 108.57, 98.75 58.78, 146.96 5.65 M9.72 162.42 C61.89 102.79, 115.3 43.09, 147.11 4.63 M10.74 167.64 C58.45 110.02, 106.07 57.61, 150.17 4.68 M10.71 165.35 C56.33 114.91, 100.5 64.33, 150.74 4.74 M12.38 170.47 C57.82 123.02, 98.65 72.85, 154.88 5.66 M13.27 169.99 C53.05 124.98, 94.22 77.22, 154.65 6.19 M16.05 174.07 C46.76 138.83, 76.06 104.93, 160.01 9.01 M13.91 174.29 C55.45 127, 95.53 81.63, 159.69 7.71 M17.77 178.32 C65.87 122.75, 115.76 64.29, 161.22 11.89 M17.04 178.96 C62.05 125.37, 107.15 74.74, 163.06 9.86 M16.35 183.95 C76.28 116.31, 132.25 52.67, 168.43 11.93 M18.83 182.25 C71.46 121.94, 124.97 60.31, 167.58 11.95 M19.18 187.44 C59.56 141.17, 98.16 95.23, 172.18 14.52 M20.46 185.24 C69.34 127.42, 120.57 70.35, 169.98 13.39 M22.47 191.71 C76.34 125.03, 132.98 60.96, 173.5 13.58 M21.48 189.75 C56.45 149.85, 90.37 110.47, 173.81 15.19 M22.6 195.31 C71.34 143.04, 115.75 90.93, 177.77 15.92 M22.89 196.19 C58.56 151.5, 94.93 110.7, 177.8 16.16 M26.84 198.91 C73.63 145.07, 117.89 94.31, 180.19 19.08 M25.54 199.09 C86.12 130.27, 145.46 62.03, 182.06 18.1 M26.42 201.05 C61.33 163.85, 96.14 124.73, 186.1 19.12 M27.18 201.57 C88.37 131.23, 147.75 62.3, 185.94 20.77 M31.83 205.58 C84.5 140.09, 141.67 76.81, 189.23 22.96 M30.4 205.07 C73.94 154.21, 119.8 102.79, 188.43 22.8 M34.58 208.2 C67.14 168.08, 98.56 131.29, 192.51 25.06 M33.16 207.76 C85.9 145.39, 139.41 84.18, 193.32 24.28 M35.94 211.66 C83.29 155.91, 131.83 99.56, 195.71 27.78 M36.96 210.67 C71.27 168.47, 106.05 126.32, 195.74 27.14 M40.55 212.66 C99.12 143.97, 162.68 73.02, 197.53 28.95 M39.27 212.9 C97.28 148.13, 153.41 83.88, 198.5 30.36 M42.68 217.07 C75.83 178.87, 109.39 138.99, 201.28 31.59 M42.37 216.22 C83.79 169.07, 123.65 122.24, 201.66 33.1 M43.07 220.21 C96.34 161.03, 145.77 101.71, 205.01 37.13 M44.14 218.65 C91.32 163.93, 138.86 110.72, 203.67 35.44 M47.72 221.97 C94.49 168.07, 141.22 110.51, 208.48 39.85 M47.85 222.2 C90.35 170.93, 133.56 122.66, 207.12 37.92 M51.7 224.57 C95.96 173.59, 141.4 118.21, 208.63 42.02 M49.68 225.72 C99.96 168.31, 149.79 111.33, 208.65 40.96 M54.41 227.28 C96.57 177.96, 140.63 125.95, 213.16 44.06 M53.5 227.19 C99.24 174.53, 146.7 119.8, 212.93 43.43 M57.37 230.09 C88.09 190.59, 119.57 153.47, 216.77 46.57 M57.32 229.12 C109.44 168.87, 163.73 108.44, 214.99 47.21 M61.56 230.38 C97.5 187.56, 135.6 146.21, 218.07 50.51 M60.18 231.14 C93.98 193.87, 126.92 156.98, 217.55 50.81 M63.87 233.89 C111.66 175.92, 160.52 120.82, 221.64 52.34 M63.84 232.73 C97.4 192.33, 131.98 152.38, 220.89 52.1 M66.4 236.21 C126.11 171.11, 179.41 110.13, 221.18 55.89 M68.36 235.59 C106.14 190.11, 143.56 147.26, 222.96 56.88 M72.27 237.86 C114.52 186.82, 158.77 138.49, 222.8 62.24 M71.48 235.47 C133.41 164.96, 192.87 95.57, 223.9 61.41 M76.28 237.96 C132.37 170.83, 192.62 105.12, 226.12 63.27 M75.56 238.59 C116.16 192.11, 156.8 144.62, 227.46 64.34 M80.61 239.08 C123.11 185.33, 171.41 132.69, 229.67 67.54 M80.24 239.44 C107.69 204.62, 138.25 169.66, 229.18 68.42 M82.2 240.79 C131.62 186.28, 178.66 127.96, 229.73 71.24 M82.59 242.49 C125.19 190.53, 169.83 139.15, 230.82 73.37 M85.32 244.85 C121.37 202.88, 157.18 163.68, 231.52 75.54 M86.79 243.56 C138.34 184.09, 190.39 125.3, 232.24 77.22 M91.48 245.66 C124.93 208.8, 156.11 172.48, 234.48 81.55 M89.97 245.23 C117.44 211.94, 146.59 179.03, 234.15 81.61 M95.44 245.07 C126.49 208.69, 156.76 173.35, 235.7 84.16 M95.96 245.96 C133.28 202.59, 170.33 158.11, 235.94 84.89 M102.21 247.48 C149.72 190.99, 196.66 137.07, 235.8 87.77 M100.46 246.32 C153.96 185.23, 203.82 127.18, 238.42 89.26 M104.84 247.22 C139.78 205.35, 175.44 167.41, 240.06 92.71 M105.92 247.11 C158.42 187.26, 210.05 127.24, 239.04 93.26 M111.46 248.67 C160.25 189.58, 210.75 132.77, 237.82 98.22 M111 247.43 C144.09 205.55, 180.05 164.83, 240.3 98.48 M114.58 246.74 C145.77 208.69, 180.82 169.62, 241 104.81 M116.05 247.12 C165.96 190.11, 217.35 132.04, 240.13 103.85 M121.21 247.54 C151.54 215.73, 181.26 179.02, 242.51 108.44 M121.24 247.34 C157.7 205.07, 193.74 163.64, 241.79 109.6 M123.58 247.13 C170.58 197.09, 213.87 143.33, 240.8 115.25 M124.74 247.28 C151.52 217.67, 176.28 189.85, 240.8 115.02 M131.09 248.57 C165.7 210.91, 196.96 172.33, 243.41 119.59 M130.21 248.33 C161.97 210.27, 194.69 172.67, 242.75 120.63 M135.08 250.34 C170.14 211.75, 201.27 172.62, 243.68 124.1 M134.01 250.54 C162.09 219.71, 189.61 187.37, 241.44 125.39 M140.1 246.95 C176.28 208.03, 207.98 172.39, 242.81 130.76 M141.86 248.4 C163.46 219.91, 187.25 193.06, 243.35 131.75 M148.83 247.04 C182.35 207.7, 213.2 170.96, 242.63 137 M148.18 244.94 C176.45 213.79, 204.14 182.35, 243.76 136.94 M154.73 244.43 C182.75 211.69, 211.26 178.55, 241.66 145.44 M156.11 243.96 C187.52 207.13, 219.88 169.89, 241.31 144.81 M160.7 240.36 C186.39 212.93, 213.01 184.54, 237.71 156.24 M162.59 242.31 C181.11 220.3, 198.8 200.31, 237.89 155.2 M170.52 237.14 C195.32 209.67, 218.44 183.91, 234.76 163.4 M171.23 238.67 C188.62 217.54, 206.44 197.15, 236.08 164.39 M187.53 228.38 C202.44 207.94, 218.58 191.13, 230.99 174.63 M185.4 227.83 C203.65 207.11, 221.04 186.44, 232.39 174.03 M202.3 218.22 C209.13 206.52, 220.25 194.8, 233.39 177.51 M201.25 217.06 C211.19 203.12, 225.21 188.56, 232.49 179.46" stroke="#fa5252" stroke-width="0.5" fill="none"></path><path d="M152.92 4.06 C166.18 5.56, 179.77 14.19, 191.05 22.3 C202.34 30.41, 212.72 41.16, 220.62 52.72 C228.52 64.28, 234.82 77.92, 238.47 91.66 C242.11 105.41, 243.81 121.05, 242.47 135.19 C241.13 149.32, 236.56 163.61, 230.42 176.49 C224.28 189.38, 215.47 202.36, 205.64 212.49 C195.82 222.61, 183.67 231.25, 171.46 237.26 C159.26 243.28, 145.93 247.27, 132.42 248.55 C118.9 249.84, 103.85 248.72, 90.37 244.97 C76.88 241.23, 62.84 234.37, 51.49 226.09 C40.14 217.81, 30.1 207.08, 22.28 195.3 C14.47 183.52, 8.34 169.11, 4.58 155.43 C0.82 141.75, -1.49 127.35, -0.27 113.23 C0.95 99.11, 6.08 83.68, 11.91 70.7 C17.74 57.73, 24.89 45.23, 34.71 35.38 C44.53 25.54, 58.1 17.35, 70.83 11.63 C83.55 5.91, 96.17 1.92, 111.06 1.05 C125.94 0.18, 150.74 4.63, 160.13 6.43 C169.53 8.22, 168.25 9.72, 167.43 11.81 M71.71 11.98 C82.9 4.65, 97.49 2.01, 111.42 0.93 C125.35 -0.16, 142 1.8, 155.3 5.47 C168.59 9.14, 180.09 14.64, 191.19 22.96 C202.29 31.28, 214.25 43.53, 221.91 55.39 C229.57 67.25, 234.01 80.66, 237.15 94.11 C240.3 107.56, 242.24 122.13, 240.78 136.1 C239.33 150.08, 234.32 164.91, 228.43 177.98 C222.53 191.04, 215.16 204.4, 205.4 214.49 C195.64 224.58, 182.38 232.86, 169.88 238.53 C157.38 244.2, 143.94 247.92, 130.42 248.53 C116.91 249.13, 101.98 246.35, 88.79 242.17 C75.6 238, 62.67 231.67, 51.26 223.5 C39.85 215.33, 28.37 204.56, 20.34 193.16 C12.3 181.76, 6.46 168.55, 3.08 155.1 C-0.31 141.65, -1.27 126.49, 0.03 112.45 C1.32 98.41, 4.91 83.9, 10.83 70.87 C16.74 57.85, 25.39 44.24, 35.52 34.31 C45.65 24.38, 65.37 14.58, 71.61 11.29 C77.84 8, 71.99 12.93, 72.96 14.59" stroke="#c92a2a" stroke-width="1" fill="none"></path></g><g transform="translate(908.7496059604573 477.17962891775414) rotate(0 36.1376953125 14.807124996026914)"><text x="36.1376953125" y="0" font-family="Cascadia, Segoe UI Emoji" font-size="24.67854166004468px" fill="#c92a2a" text-anchor="middle" style="white-space: pre;" direction="ltr" dominant-baseline="text-before-edge">ERROR</text></g><g stroke-linecap="round" transform="translate(436.5593114658842 726.2460019248069) rotate(0 120.97438677664724 124.1485662349653)"><path d="M35.39 37.39 C35.39 37.39, 35.39 37.39, 35.39 37.39 M35.39 37.39 C35.39 37.39, 35.39 37.39, 35.39 37.39 M11.09 74.02 C20.29 61.73, 27.33 50.93, 49.82 28.79 M10.78 72.7 C24.45 55.45, 40.21 39.6, 50.47 28.09 M7.91 81 C26.68 60.5, 44.33 38.24, 62.57 15.9 M9.2 80.49 C25.86 61.56, 41.12 41.46, 65.11 16.55 M8.06 89.21 C26.47 67.28, 45.68 46.32, 71.72 15.09 M5.62 88.37 C28.35 64.22, 50.09 40.28, 70.67 15.2 M6.13 97.13 C33.55 65.65, 58.88 33.49, 76.69 14.15 M4.04 96.28 C24.18 75.09, 44.51 49.87, 77.56 12.35 M3.14 104.25 C26.45 77.38, 50.5 49.53, 83.98 11.68 M2.95 104.15 C35.16 68.59, 65.84 30.73, 84.99 10.93 M1.2 113.07 C22.32 88.53, 47.24 61.73, 92.41 6.68 M1.35 112.95 C37.29 70.87, 73.01 30.18, 92.6 8.14 M4.16 116.94 C35.68 80.32, 66.49 46.21, 99.18 6.26 M3.92 116.69 C39.53 76.82, 75.39 35.66, 99.97 6.31 M2.59 121.91 C30.9 88.41, 60.4 57.02, 109.25 0.29 M3.26 123.26 C42.22 78.97, 79.96 33.99, 110.31 1.59 M5.57 129.73 C41.03 86.27, 76.09 43.46, 116.23 -0.32 M4.21 127.63 C36.54 90.51, 68.58 53.98, 114.88 1.38 M5.55 135.16 C48 85.98, 88.46 35.12, 118.8 1.67 M4.04 134.21 C44.52 87.61, 84.67 42.05, 119.7 1.66 M5.71 139.37 C50.97 89.52, 92.36 37.96, 124.36 1.64 M4.27 140.31 C40.68 100.48, 76.59 60.14, 124.69 1.91 M4.07 146.87 C47.96 99.16, 87.81 55.11, 127.66 2.75 M6.13 144.23 C37.24 109.34, 69.21 71.4, 128.66 2.88 M7.49 152.47 C50.23 99.67, 91.08 49.76, 134.9 0.89 M5.01 150.25 C40.62 109.87, 76.36 70.19, 134.86 2.57 M5.63 160.26 C45.7 110.91, 84.82 65.42, 137.93 3.56 M4.01 158.93 C36.28 120.38, 68.72 82.39, 139.34 3.3 M7.58 160.45 C41.26 123.08, 76.9 82.62, 145.34 3.1 M6.18 162.84 C41.95 120.6, 78.5 80.71, 144.52 3.73 M6.71 164.6 C58.28 107.67, 108.36 51.33, 150.72 3.03 M7.65 165.97 C36.62 133.27, 64.87 100.92, 149.63 3.94 M9.76 169.55 C60.81 112.5, 110.03 52.97, 153.29 4.96 M9.78 169.86 C45.5 130.92, 80.75 89.98, 152.92 4.95 M14.01 174.8 C59.1 120.07, 103.7 67.64, 157 6.27 M11.72 174.38 C51.59 127.75, 90.18 82.78, 156.55 6.12 M14.16 176.87 C46.6 138.18, 83.98 98.06, 160.63 8.38 M14.17 177.51 C66.17 119.84, 118.19 59.67, 161.3 9.24 M17.33 182.07 C58.37 132.51, 97.33 86.88, 164.78 9.88 M16.48 180.47 C67.03 121.43, 118.98 61.23, 165.33 9.97 M18.82 184.05 C66.47 130.62, 114.31 77.63, 169.37 13.69 M18.78 185.94 C55.63 142.41, 94.35 97.92, 167.99 12.93 M20.58 190.23 C73.67 127.73, 127.54 68.76, 172.59 15.19 M19.23 189.47 C75.09 128.06, 129.07 64.25, 172.58 14.6 M20.73 192.4 C68.37 137.08, 115.92 81.03, 174.42 16.71 M22.67 192.84 C79.68 128.7, 135.32 64.07, 175.65 15.46 M25.16 197.03 C65.87 149.41, 108.74 98.36, 178.94 18.92 M24.61 196.15 C84.38 126.93, 144.73 55.51, 179.96 16.56 M27.57 197.95 C56.52 163.02, 88.03 126.11, 185.03 18.09 M27.08 199.38 C68.92 150.1, 111.18 101.26, 182.95 19.2 M29.91 201.57 C65.77 163.31, 98.29 125, 188.72 20.65 M29.88 201.61 C86.75 137.32, 144.52 72.96, 187.77 21.35 M31.17 204.68 C78.78 150.47, 124.6 98.17, 190.71 23.65 M31.58 205.71 C72.64 159.76, 109.97 115.81, 190.21 22.36 M35.5 207.12 C95.53 135.78, 156.12 68.07, 194.63 27.22 M35.38 208.5 C90.07 146.31, 143.1 85.25, 194.08 25.41 M36.66 212.04 C85.68 154.48, 135.67 99, 195.82 29.78 M38.9 211.13 C95.96 141.45, 155.9 73.88, 197.78 28.68 M39.98 214.49 C73.27 177.31, 102.86 139.61, 201 29.36 M40.74 213.56 C77.97 171.27, 115.78 128.54, 199.33 30.12 M42.78 218.18 C90.57 160.41, 138.94 104.58, 201.75 34.38 M44.46 216.41 C80.47 172.95, 118.43 130.57, 202.62 34.1 M47.11 220.86 C102.22 155.75, 159.66 92.84, 205.4 36.53 M45.89 218.92 C98.15 162.01, 149.1 102.71, 205.44 37.66 M50.15 224.46 C107.83 154.01, 166.84 90.25, 207.96 39.24 M48.81 222.51 C111.69 150.4, 174.14 77.44, 208.4 40 M52.83 226.97 C96.51 172.25, 141.56 120.61, 211.64 40.6 M51.51 225.19 C99.8 169.65, 145.79 115.74, 211.32 42.02 M54.34 229.41 C103.48 170.45, 155.44 112.15, 213.73 45.5 M54.83 228.67 C105.4 170.19, 155.5 112.11, 213.09 46.16 M58.75 229.48 C114.99 162.78, 175.44 95.82, 217.5 48.55 M58.46 229.58 C91.07 193.51, 122.86 155.42, 216.4 47.64 M60.8 230.39 C92.29 196.24, 126.3 158.47, 218.38 49.27 M61.9 231.64 C104.5 184.51, 146.66 136.04, 220.01 50.57 M64.59 232.68 C112.89 177.97, 163.25 122.05, 220.3 56.42 M66.09 233.51 C121.77 170.65, 177.41 106.27, 222.11 54.08 M71.32 234.14 C101.89 199.85, 132.68 161.04, 222.38 58.27 M69.75 235.33 C129.48 164.88, 191.49 93.97, 223.15 58.51 M73.18 236.47 C123.03 180.31, 169.06 125.47, 226.72 63.08 M74.65 236.38 C132.03 171.79, 190.07 105.54, 225.7 62.47 M76.11 237.37 C127.31 181.69, 173.94 125.7, 226.88 67.41 M78.28 238.92 C117.94 192.27, 157.71 147.09, 227.49 67.32 M80.13 240.26 C137.58 176.62, 194.94 109.82, 227.39 71.66 M80.76 240.31 C134.84 177.55, 190.4 115.08, 229.38 70.89 M85.28 242.9 C127.86 191.36, 172.8 141.2, 230.83 76.42 M84.32 242.05 C130.35 189.15, 176.42 138.85, 230.29 74.89 M88.82 244.16 C143.15 184.26, 194.02 122.07, 233.41 77.66 M88.38 243.86 C140.46 185.29, 191.26 127.42, 231.88 78.58 M93.92 246.63 C133.86 199.24, 176.94 149.54, 233.15 83.35 M91.65 246.35 C146.14 185.74, 200.48 124.61, 234.23 82.43 M97.2 245.5 C137.89 198.81, 182 149.36, 236.13 87.86 M98.17 246.03 C125.47 211.83, 156.19 178.51, 237.05 86.86 M104.02 246.1 C129.66 214.31, 156.43 179.48, 239.61 88.9 M103.35 245.96 C156.08 184.58, 211.83 122.61, 237.94 91.17 M107.9 246.22 C151.67 199.15, 193.79 148.91, 240.22 94.93 M107.9 247.82 C154.74 191.88, 201.61 137.69, 239.39 95.46 M112.16 247.2 C159.52 192.09, 202.97 139.19, 238.58 103.19 M111.61 247.11 C151.29 200.62, 192.48 154.81, 238.73 102.66 M115.8 247.74 C158.78 200.63, 199.41 156.51, 241.43 105.66 M116.83 247.62 C151.17 208.45, 183.38 171.21, 238.99 107.35 M123.08 250.15 C148.2 218.25, 175.83 187.44, 239.86 112.3 M123.02 247.77 C163.31 200.61, 205.1 153.77, 240.76 113.21 M127.53 249.67 C161.61 208.4, 197.61 169.64, 238.64 118.52 M127.99 248.11 C169.47 202.97, 210.13 155, 240.25 118.48 M133.36 250.1 C159.43 216.89, 190.12 183.11, 240.48 125.93 M131.87 249.2 C168.72 207.24, 205.58 166.58, 240.8 123.92 M137.55 250.45 C156.73 224.36, 182.26 196.84, 240.08 129.32 M136.47 251.35 C167.23 215.12, 196.09 180.2, 241.35 129.87 M145.2 246.36 C173.61 215.83, 203.89 179.67, 241.51 136.06 M143.09 248.17 C178.98 206.32, 217.85 162.79, 243.26 134.74 M151.73 246.39 C175.84 216.71, 202.72 185, 240.4 142.11 M150.15 245.91 C172.93 221.39, 196.3 195.6, 240.84 143.1 M156.79 245.34 C188.11 209.18, 220.19 173.15, 239.75 150.83 M157.46 244.93 C189.26 207.69, 221.01 170.31, 238.65 151.62 M163.04 243.25 C191.43 214.26, 217.46 183.77, 234.86 159.04 M164.43 241.71 C185.3 217.77, 206.68 193.6, 236.77 159.19 M174.18 235.8 C190.18 218.8, 206.8 198.93, 233.34 169.39 M174.51 237.42 C198.15 210, 221.95 183.09, 234.24 168.4 M191.71 223.01 C205.62 208.12, 217.2 192.63, 233.82 176.57 M191.34 223.69 C200.9 212.09, 210.25 202.37, 232.19 175.83" stroke="#ced4da" stroke-width="0.5" fill="none"></path><path d="M151.13 3.59 C164.28 4.97, 177.93 13.22, 189.34 21.12 C200.75 29.02, 211.44 39.45, 219.6 50.99 C227.76 62.53, 234.66 76.69, 238.3 90.34 C241.94 104, 242.74 118.72, 241.44 132.89 C240.15 147.07, 236.24 162.35, 230.54 175.39 C224.83 188.43, 216.52 200.94, 207.22 211.14 C197.92 221.33, 186.91 230.32, 174.72 236.55 C162.54 242.79, 148 247.17, 134.12 248.55 C120.24 249.92, 104.84 248.42, 91.42 244.81 C77.99 241.2, 64.89 235.02, 53.56 226.9 C42.24 218.78, 31.72 207.57, 23.44 196.1 C15.17 184.63, 7.66 171.7, 3.9 158.07 C0.14 144.44, -0.1 128.57, 0.88 114.3 C1.87 100.04, 4.12 85.24, 9.82 72.48 C15.51 59.72, 25.25 47.66, 35.07 37.76 C44.89 27.85, 56.49 19.27, 68.75 13.05 C81.01 6.83, 93.3 1.52, 108.61 0.43 C123.93 -0.66, 150.88 4.41, 160.64 6.52 C170.41 8.64, 168.12 11.23, 167.21 13.11 M156.69 6.4 C169.93 8.54, 185.06 18.06, 196.01 26.5 C206.97 34.93, 215.12 45.03, 222.44 57.01 C229.76 68.98, 237.04 84.39, 239.93 98.36 C242.81 112.33, 241.81 127.06, 239.76 140.81 C237.72 154.57, 234.1 168.46, 227.67 180.9 C221.24 193.35, 211.24 205.6, 201.18 215.47 C191.11 225.35, 179.91 234.52, 167.3 240.16 C154.69 245.79, 139.21 248.8, 125.52 249.28 C111.83 249.76, 98.06 247.74, 85.15 243.06 C72.25 238.37, 58.93 230.08, 48.08 221.15 C37.22 212.21, 27.64 201.27, 20.01 189.45 C12.38 177.62, 5.58 163.7, 2.32 150.2 C-0.94 136.69, -1.34 122.16, 0.46 108.4 C2.27 94.65, 6.87 80.16, 13.14 67.65 C19.4 55.15, 27.99 43.21, 38.07 33.38 C48.16 23.54, 60.64 14.11, 73.63 8.64 C86.61 3.17, 101.91 0.77, 115.97 0.54 C130.02 0.31, 151.02 6.14, 157.98 7.26 C164.94 8.37, 158.22 5.33, 157.74 7.22" stroke="#343a40" stroke-width="1" fill="none"></path></g><g transform="translate(506.89911556537993 835.8011501044143) rotate(0 50.5927734375 14.807124996026914)"><text x="50.5927734375" y="0" font-family="Cascadia, Segoe UI Emoji" font-size="24.67854166004468px" fill="#343a40" text-anchor="middle" style="white-space: pre;" direction="ltr" dominant-baseline="text-before-edge">OFFLINE</text></g><g stroke-linecap="round"><g transform="translate(291.13835027620917 491.42931426893074) rotate(0 65.02018228964954 0.15206037089387792)"><path d="M0.59 0.76 C22.25 0.93, 108.93 0.98, 130.6 1 M-0.56 0.11 C20.87 -0.05, 107.82 -0.48, 129.54 -0.69" stroke="#000000" stroke-width="1" fill="none"></path></g><g transform="translate(291.13835027620917 491.42931426893074) rotate(0 65.02018228964954 0.15206037089387792)"><path d="M130.84 -1.95 L117.67 7.01 L115.21 -7.2 L128.96 -1.21" stroke="none" stroke-width="0" fill="#000000" fill-rule="evenodd"></path><path d="M130.49 -0.95 C125.8 1.42, 120.82 3.57, 116.95 5.21 M129.45 -1.35 C124.58 1.37, 119.22 5.08, 116.54 6.27 M116.51 5.67 C116.55 -0.29, 115.01 -4.29, 116.63 -8.18 M115.99 6.14 C116.46 2.91, 115.93 0.43, 115.85 -7.56 M116.82 -6.72 C121.83 -5.45, 126.16 -1.14, 130.29 -1.34 M115.34 -6.79 C119.24 -5.74, 122.38 -3.91, 129.63 -0.07 M129.54 -0.69 C129.54 -0.69, 129.54 -0.69, 129.54 -0.69 M129.54 -0.69 C129.54 -0.69, 129.54 -0.69, 129.54 -0.69" stroke="#000000" stroke-width="1" fill="none"></path></g></g><mask></mask><g stroke-linecap="round"><g transform="translate(686.985384927266 492.1107891132783) rotate(0 66.31866370161742 0.033832754372269846)"><path d="M0.76 -0.2 C22.92 -0.31, 110.94 -0.03, 132.94 -0.02 M-0.3 -1.36 C21.78 -1.32, 110.32 1.02, 132.43 1.42" stroke="#c92a2a" stroke-width="1" fill="none"></path></g><g transform="translate(686.985384927266 492.1107891132783) rotate(0 66.31866370161742 0.033832754372269846)"><path d="M131.17 3.11 L119.95 6.76 L118.72 -5.8 L131.9 0.28" stroke="none" stroke-width="0" fill="#c92a2a" fill-rule="evenodd"></path><path d="M132.17 2.46 C128.15 4.13, 123.95 6.06, 118.16 8.93 M131.77 1.84 C127.52 3.8, 124.26 5.83, 119.22 8.14 M118.62 8.04 C117.67 2.84, 118.7 0.82, 117.74 -6.14 M119.09 7.82 C118.68 4.75, 119.14 2.28, 118.35 -4.87 M119.19 -4.1 C121.03 -3.27, 126.01 -1.69, 131.78 0.85 M119.13 -5.49 C123.42 -3.47, 128.38 -0.33, 133.05 1.14 M132.43 1.42 C132.43 1.42, 132.43 1.42, 132.43 1.42 M132.43 1.42 C132.43 1.42, 132.43 1.42, 132.43 1.42" stroke="#c92a2a" stroke-width="1" fill="none"></path></g></g><mask></mask><g stroke-linecap="round"><g transform="translate(575.0551130528657 626.6841545636589) rotate(0 -0.47778360536972286 45.60980567118554)"><path d="M-0.2 0.82 C-0.16 15.87, 0.67 75.96, 0.83 91.01 M-1.77 0.21 C-1.96 14.84, -0.48 74.4, -0.21 89.23" stroke="#343a40" stroke-width="1" fill="none"></path></g><g transform="translate(575.0551130528657 626.6841545636589) rotate(0 -0.47778360536972286 45.60980567118554)"><path d="M1.47 90.49 L-7.54 75.51 L5.26 74.98 L-1.36 87.29" stroke="none" stroke-width="0" fill="#343a40" fill-rule="evenodd"></path><path d="M0.82 89.01 C-1.79 84.18, -3.97 79.29, -5.37 76.1 M0.2 88.75 C-1.6 86.08, -3.36 82.15, -6.16 75.7 M-6.26 74.7 C-3.65 75.57, 2.13 74.37, 4.92 74.26 M-6.47 75.83 C-1.95 76.04, 3.18 74.86, 6.19 74.97 M6.96 74.69 C5.08 80.07, 3.77 81.44, -0.78 90.04 M5.57 75.15 C2.84 80.32, 1.44 86.07, -0.5 89.78 M-0.21 89.23 C-0.21 89.23, -0.21 89.23, -0.21 89.23 M-0.21 89.23 C-0.21 89.23, -0.21 89.23, -0.21 89.23" stroke="#343a40" stroke-width="1" fill="none"></path></g></g><mask></mask><g stroke-linecap="round"><g transform="translate(539.2122719228705 266.6449137993236) rotate(0 0.7349178151165461 45.076569701781864)"><path d="M0.82 -0.18 C0.98 14.87, 1.51 75.06, 1.67 90.08 M-0.2 -1.32 C-0.22 13.93, 0.8 76.08, 1.07 91.47" stroke="#2b8a3e" stroke-width="1" fill="none"></path></g><g transform="translate(539.2122719228705 266.6449137993236) rotate(0 0.7349178151165461 45.076569701781864)"><path d="M2.09 -0.88 L7.03 12.77 L-5.91 12.33 L-1.11 -0.36" stroke="none" stroke-width="0" fill="#2b8a3e" fill-rule="evenodd"></path><path d="M0.6 0.64 C2.81 5.65, 4.96 11.08, 7.61 13.06 M0.35 0.27 C3.24 4.22, 4.95 8.25, 7.22 13.54 M6.21 12.42 C2.85 14.18, -2.59 12.57, -6.63 14.71 M7.34 13.21 C3.94 13.41, -0.94 13.85, -5.92 13.09 M-6.2 14.08 C-1.89 9.24, -1.56 2.99, 1.64 0.75 M-5.75 12.77 C-4.18 10.51, -2 7.07, 1.37 0.17 M0.82 -0.18 C0.82 -0.18, 0.82 -0.18, 0.82 -0.18 M0.82 -0.18 C0.82 -0.18, 0.82 -0.18, 0.82 -0.18" stroke="#2b8a3e" stroke-width="1" fill="none"></path></g></g><mask></mask><g transform="translate(432.97282947394365 660.4153473351885) rotate(0 43.365234375 14.807124996026914)"><text x="0" y="0" font-family="Cascadia, Segoe UI Emoji" font-size="24.678541660044676px" fill="#2b8a3e" text-anchor="start" style="white-space: pre;" direction="ltr" dominant-baseline="text-before-edge">deploy</text></g><g stroke-linecap="round"><g transform="translate(539.5296071553912 628.207796984841) rotate(0 0.6621293684854663 44.88781919961298)"><path d="M0.66 -0.27 C0.82 14.75, 1.52 74.77, 1.78 89.92 M-0.45 -1.46 C-0.46 13.74, 0.82 75.65, 1.23 91.23" stroke="#2b8a3e" stroke-width="1" fill="none"></path></g><g transform="translate(539.5296071553912 628.207796984841) rotate(0 0.6621293684854663 44.88781919961298)"><path d="M0.4 -0.85 L6.64 12.1 L-7.46 13.22 L1.19 1.45" stroke="none" stroke-width="0" fill="#2b8a3e" fill-rule="evenodd"></path><path d="M0.32 0.69 C2.5 6.15, 5.76 9.37, 6.97 11.94 M1.34 0.28 C3.41 5.17, 5.12 9.48, 7.47 13.21 M7.04 13.98 C1.53 12.29, -2.86 14.5, -5.52 14.19 M7.61 13.19 C2 13.63, -2.45 12.94, -5.13 13.49 M-4.25 14.14 C-3.78 7.68, 0 4.06, -0.47 0.03 M-5.68 13.49 C-3.2 9.56, -1.64 6.59, 0.94 0.17 M0.66 -0.27 C0.66 -0.27, 0.66 -0.27, 0.66 -0.27 M0.66 -0.27 C0.66 -0.27, 0.66 -0.27, 0.66 -0.27" stroke="#2b8a3e" stroke-width="1" fill="none"></path></g></g><mask></mask><g transform="translate(602.0692283942235 299.772823673989) rotate(0 57.8203125 14.807124996026914)"><text x="0" y="0" font-family="Cascadia, Segoe UI Emoji" font-size="24.67854166004468px" fill="#343a40" text-anchor="start" style="white-space: pre;" direction="ltr" dominant-baseline="text-before-edge">undeploy</text></g><g stroke-linecap="round"><g transform="translate(575.982989165132 268.16855622050525) rotate(0 0.9487981349777215 44.453707228111625)"><path d="M0.77 -0.43 C1.02 14.72, 2.19 75.5, 2.19 90.61 M-0.29 -1.7 C-0.15 13.09, 1.83 73.1, 1.86 88.62" stroke="#343a40" stroke-width="1" fill="none"></path></g><g transform="translate(575.982989165132 268.16855622050525) rotate(0 0.9487981349777215 44.453707228111625)"><path d="M1.34 87.47 L-6.68 74.97 L8.47 76.63 L2.45 87.58" stroke="none" stroke-width="0" fill="#343a40" fill-rule="evenodd"></path><path d="M1.32 90.09 C-0.13 83.58, -2.98 77.79, -3.91 74.19 M2.39 89.3 C-0.71 84.01, -2.71 78.93, -4.4 74.51 M-5.98 74.23 C-3.11 76.26, 1.01 75.76, 8.67 75.01 M-5.36 75.5 C-1.76 74.71, 2.67 75.11, 8.41 74.56 M7.29 74.33 C6.8 80.53, 2.79 84.57, 1.32 87.9 M8.56 74.62 C7.2 78.09, 5.68 81, 1.16 89.19 M1.86 88.62 C1.86 88.62, 1.86 88.62, 1.86 88.62 M1.86 88.62 C1.86 88.62, 1.86 88.62, 1.86 88.62" stroke="#343a40" stroke-width="1" fill="none"></path></g></g><mask></mask><g transform="translate(309.7718140381121 438.25967428744707) rotate(0 43.365234375 14.807124996026914)"><text x="0" y="0" font-family="Cascadia, Segoe UI Emoji" font-size="24.678541660044676px" fill="#000000" text-anchor="start" style="white-space: pre;" direction="ltr" dominant-baseline="text-before-edge">create</text></g></svg>