<svg version="1.1" xmlns="http://www.w3.org/2000/svg" viewBox="0 0 1073.9083393811393 982.7206043365968" width="2147.8166787622786" height="1965.4412086731936">
  <!-- svg-source:excalidraw -->
  
  <defs>
    <style class="style-fonts">
      @font-face {
        font-family: "Virgil";
        src: url("https://excalidraw.com/Virgil.woff2");
      }
      @font-face {
        font-family: "Cascadia";
        src: url("https://excalidraw.com/Cascadia.woff2");
      }
    </style>
  </defs>
  <rect x="0" y="0" width="1073.9083393811393" height="982.7206043365968" fill="#ffffff"></rect><g stroke-linecap="round" transform="translate(10 353.2260818834857) rotate(0 140.29075141648025 137.63664202785685)"><path d="M176.25 34.5 M176.25 34.5 C201.5 60.26, 226.09 82.9, 245.33 103.5 M176.25 34.5 C193.3 52.58, 209.86 68.91, 245.33 103.5 M245.33 103.5 C278.97 136.63, 279.22 138.16, 245.33 172.5 M245.33 103.5 C282.6 136.04, 280.35 138.32, 245.33 172.5 M245.33 172.5 C220.2 197.55, 196.98 223.74, 176.25 240.77 M245.33 172.5 C230.35 186.57, 215.93 201.16, 176.25 240.77 M176.25 240.77 C142 275.68, 140.94 276.07, 105.75 240.77 M176.25 240.77 C140.68 274.27, 141.92 273.49, 105.75 240.77 M105.75 240.77 C86.37 222.08, 71.22 205.63, 35.25 172.5 M105.75 240.77 C87.96 221.71, 67.2 202.81, 35.25 172.5 M35.25 172.5 C-1.2 137.93, 1.63 137.37, 35.25 103.5 M35.25 172.5 C-2.13 138.7, 1.05 140.11, 35.25 103.5 M35.25 103.5 C54.38 84.33, 70.17 69.7, 105.75 34.5 M35.25 103.5 C51.23 88.17, 67.86 72.42, 105.75 34.5 M105.75 34.5 C141.03 0.61, 141.48 -0.77, 176.25 34.5 M105.75 34.5 C142.07 0.53, 140.66 -1.23, 176.25 34.5" stroke="#000000" stroke-width="1" fill="none"></path></g><g transform="translate(96.59068820824018 477.32989437935976) rotate(0 53.5546875 13.714508518055027)"><text x="53.5546875" y="0" font-family="Cascadia, Segoe UI Emoji" font-size="22.85751419675806px" fill="#000000" text-anchor="middle" style="white-space: pre;" direction="ltr" dominant-baseline="text-before-edge">Pipeline</text></g><g stroke-linecap="round" transform="translate(435.7533162345617 366.9487397137891) rotate(0 120.74580243624433 123.91398419755296)"><path d="M83.19 5.57 C95.21 -0.52, 112.15 -1.27, 125.96 -0.78 C139.78 -0.29, 153.52 3.1, 166.1 8.51 C178.67 13.92, 191.13 21.87, 201.41 31.67 C211.7 41.47, 221.43 54.69, 227.79 67.31 C234.15 79.92, 237.73 93.38, 239.57 107.34 C241.41 121.3, 241.51 137.23, 238.83 151.08 C236.15 164.92, 230.94 178.59, 223.51 190.42 C216.07 202.25, 205.14 213.35, 194.24 222.07 C183.33 230.78, 171.28 238.54, 158.06 242.69 C144.84 246.85, 128.75 247.69, 114.9 247.02 C101.04 246.35, 87.6 243.86, 74.93 238.67 C62.27 233.47, 49.15 225.33, 38.9 215.87 C28.64 206.41, 19.66 194.48, 13.39 181.9 C7.12 169.32, 2.98 154.47, 1.28 140.36 C-0.42 126.25, 0.36 110.98, 3.2 97.25 C6.04 83.52, 11.14 69.97, 18.31 57.99 C25.49 46.01, 33.78 34.36, 46.23 25.37 C58.68 16.38, 83.75 7.75, 93.02 4.04 C102.29 0.33, 101.24 1.27, 101.85 3.12" stroke="#e67700" stroke-width="1.5" fill="none" stroke-dasharray="8 9"></path></g><g transform="translate(482.98124765582645 477.0277968833552) rotate(0 73.6376953125 13.714508518055027)"><text x="73.6376953125" y="0" font-family="Cascadia, Segoe UI Emoji" font-size="22.85751419675806px" fill="#e67700" text-anchor="middle" style="white-space: pre;" direction="ltr" dominant-baseline="text-before-edge">UNSPECIFIED</text></g><g stroke-linecap="round" transform="translate(435.7533162345617 10) rotate(0 120.74580243624433 123.91398419755296)"><path d="M21.47 53.12 C21.47 53.12, 21.47 53.12, 21.47 53.12 M21.47 53.12 C21.47 53.12, 21.47 53.12, 21.47 53.12 M14.62 66.04 C28.8 49.18, 46.39 33.74, 52 22.42 M16.02 64.6 C26 54.75, 37.61 42.31, 53.66 23.93 M9.45 77.1 C26.88 60.14, 43.67 38.42, 62.68 20.5 M10.75 77.22 C27.06 59.62, 42.13 41.65, 60.2 19.04 M6.24 88.51 C18.98 73.89, 34.29 56.68, 71.11 16.35 M4.07 90.06 C26.87 66.06, 48.39 40.12, 69.76 15.1 M8.22 92.75 C25.43 74.42, 42.97 50.33, 77.31 11.12 M8.13 94.68 C33.51 65.24, 57.99 36.49, 77.6 12.14 M4.74 99.41 C36.19 67.21, 63.45 34.54, 88.09 5.77 M6.16 100.5 C39.02 62.75, 70.83 25.69, 90.6 4.37 M4.22 108.06 C37.43 69.95, 69.57 35.13, 96.28 3.45 M5.58 107.05 C28.62 80.22, 51.04 53.55, 95.57 3.02 M6.86 113.63 C37.36 76.06, 69.15 40.19, 101.21 4.13 M5.72 113.84 C38.23 77.49, 71.6 40.47, 101.88 4.37 M3.36 121.51 C35.27 84.31, 68.81 49.15, 109.33 1.58 M4.75 120.73 C47.36 73.57, 88.54 26.74, 107.1 3.07 M2.67 127.58 C38.46 90.41, 72.29 49.38, 113.7 2.63 M4.39 128.47 C26.88 100.74, 49.61 73.89, 112.64 2.89 M2.82 137.76 C35.81 97.42, 71.12 56.54, 119.61 -0.04 M2.93 135.63 C34.79 98.62, 68.16 61.59, 118.43 1.87 M1.85 139.84 C41.85 97.26, 82.13 49.99, 125.49 2.44 M3.24 140.81 C45.33 92.07, 86.21 44.76, 125.96 0.08 M3.56 146.06 C32.36 112.8, 61.41 75.04, 129.93 -0.56 M4.58 146.67 C35.11 112, 65.94 76.07, 130.35 0.33 M6.98 149.4 C53.21 96.52, 99.65 42.47, 136.52 2.65 M5.16 150.59 C35.48 113.66, 66.97 78.08, 135.31 1.4 M7.33 153.98 C48.55 111.56, 87.07 67.17, 138.83 3.53 M7.25 154.43 C51.2 105, 95.09 53.49, 139.17 3.86 M10.11 159.67 C59.76 97.74, 112.83 40.69, 143.19 6.54 M8.51 159.82 C49.1 113.33, 88.84 67.16, 142.08 5.06 M10.87 162.83 C58.78 103.08, 112.84 45.11, 148.62 4.29 M9.12 163.7 C44.31 125.7, 77.6 84.9, 148.07 5.31 M12.12 171.01 C51.28 122.19, 95.1 73.43, 153.09 8.17 M10.77 168.75 C48.23 124.64, 88.82 80.3, 151.02 6.92 M12.18 174.23 C47.25 136.17, 81.74 97.74, 156.78 8.19 M11.18 175.01 C43.59 139.3, 73.68 103.56, 155.02 8.19 M13.72 177.66 C58.56 129.24, 102.05 78.47, 160.41 9 M13.56 177.97 C46.51 140.27, 81.77 99.24, 160.41 8.99 M14.57 182.08 C68.54 118.44, 123.52 57.86, 166.07 10.67 M15.72 181.65 C55.56 134.98, 96.1 89.29, 163.97 11.11 M18.82 185.82 C50.16 147.94, 81.95 109.49, 169.44 12.21 M18.78 185.21 C78.45 116.57, 136.99 47.41, 168.42 10.93 M20.17 190.14 C67.38 134.29, 116.22 79.72, 174.31 13.41 M20.8 187.9 C53.42 150.81, 84.17 113.68, 173.78 13.55 M22.52 191.55 C74.24 132.98, 127.04 73.74, 177.36 15.6 M22.92 191.86 C62.49 144.47, 103.29 97.89, 177.68 14.29 M25.42 195.35 C81.13 131.19, 136.37 65.53, 180.45 18.51 M25.17 194.92 C59.68 152.71, 96.03 112.42, 180.09 17.98 M27.68 197.9 C83.86 130.26, 140.13 64.28, 182.96 20.3 M27.52 200.18 C79.69 140.72, 130.27 82.65, 182.46 19.91 M29.05 203.84 C68.32 156.19, 106.55 111.27, 185.33 20.12 M28.37 202.45 C73.88 153.73, 118.61 102.18, 187.1 22.13 M30.42 205.52 C79.41 151.23, 126.77 97.91, 189.46 23.66 M32.28 206.59 C89.46 139.86, 146.85 75.26, 189.37 23.55 M32.22 210.15 C71.3 164.6, 113.66 118.07, 193.49 27.04 M33.51 209.03 C85.65 151.41, 136.56 91.25, 193.37 27.43 M34.56 212.24 C88.88 152.36, 141.76 90.02, 195.6 29.18 M36.97 212.18 C83.52 158.71, 130.2 103.32, 195.81 28.3 M40.26 216.14 C85.2 160.29, 130.9 106.97, 199.45 32.36 M39.85 214.99 C82.67 165.82, 124.82 116.34, 199.02 31.18 M44.49 216.11 C96.1 158.19, 147.89 99.22, 203.95 34.49 M43.56 218.12 C100.73 149.6, 161.47 81.47, 202.48 33.36 M46.38 220.29 C84.39 175.16, 121.5 131.09, 205.41 36.37 M45.64 219.31 C82.33 176.06, 120.26 133.95, 205.86 35.3 M50.46 221.34 C111.2 151.92, 170.97 81.29, 207.28 38.12 M50.41 222.48 C112.57 149.47, 175.4 77.81, 208.88 39.96 M53.9 225.79 C85.61 184.34, 121.38 143.81, 210.25 44.1 M52.9 225.13 C96.75 175.53, 139.91 124.46, 210.63 43.03 M55.21 227.19 C98.25 180.38, 138.88 131.47, 213.45 44.93 M55.11 226.64 C92.28 183.73, 130.08 140.52, 212.48 46.07 M58.01 228.4 C103.38 178.42, 146.7 129.55, 216.47 51.01 M59.95 228.52 C104.96 176.68, 150.6 123.31, 216.06 48.77 M63.21 232.26 C116.23 170.81, 169.34 109.71, 217.87 53.31 M62.59 232.04 C122.93 162.71, 180.88 94.89, 216.84 54.26 M66.02 232.98 C115.56 175.96, 165.95 118.69, 218.56 55.44 M65.91 234.14 C113.62 179.3, 159.89 127.27, 220.11 56.42 M68.21 237.33 C116.29 183.79, 159.76 131.66, 220.36 61.63 M68.66 235.54 C124.52 172.62, 179.12 109.66, 221.16 60.76 M71.77 239.25 C104.74 204.5, 136.43 167.58, 222.69 65.19 M72.54 238.42 C123.79 180.27, 176.14 121.25, 224.76 63.29 M75 239.89 C134.52 176.39, 188.16 110.01, 227.76 66.22 M75.87 239.86 C123.81 185.61, 169.38 132.81, 226.8 67.67 M81.89 241.42 C114.35 201.26, 150.25 161.73, 227.73 70.02 M81.32 240.24 C137.75 173.06, 195.63 107.08, 229.57 70.44 M86.44 240.72 C131.83 187.43, 181.43 133.7, 231.11 73.57 M84.61 242.52 C115.96 204.88, 147.33 168.46, 230.68 74.06 M90.86 244.71 C122.82 204.56, 156.88 165.39, 231.51 78.96 M89.41 243.04 C126.91 201.53, 164.09 158.24, 232.11 78.68 M92.71 244.57 C138.42 193.98, 182.72 143.06, 235.33 81.29 M93.7 243.92 C133.35 198.63, 172.77 153.31, 233.64 83.2 M97.9 246.91 C135.86 197.58, 177.1 151.94, 235.22 88.52 M97.46 245.77 C135.46 200.24, 175.05 154.19, 234.91 88.09 M104.02 247.74 C151.55 188.14, 203.78 132.36, 235.31 94.46 M102.82 246.24 C151.85 190.59, 199.65 134.22, 236.4 92.27 M106.23 246.33 C141.73 210.37, 172.28 171.02, 235.27 97.52 M106.02 248.54 C136.23 212.81, 167.47 177.4, 236.71 96.58 M112.9 247.87 C154.69 193.94, 201.91 141.2, 238.06 103.99 M110.12 248.93 C148.82 203.84, 187.01 158.99, 237.99 103.05 M115.8 250.41 C163.41 195.6, 210.38 140.49, 237.92 107.53 M116.29 248.06 C140.71 218.42, 164.86 191.06, 240.28 106.82 M122.13 247.04 C148.16 219.03, 174.17 188.26, 240.54 111.53 M121.55 248.17 C149.82 217.46, 177.44 185.43, 241.09 111.07 M129.55 249.49 C163.42 207.72, 197.16 167.06, 241.87 113.63 M127.79 248.02 C165.67 207.03, 200.7 166.03, 243.43 115.71 M133.8 247.77 C159.88 214.23, 189.95 185.51, 243.1 121.77 M134.51 246.85 C160.32 216.32, 185.52 187.16, 242.89 122.91 M139.69 246.16 C169.22 212.75, 199.58 176.7, 240.83 130.26 M139.79 247.86 C161.84 221.84, 182.43 196.9, 242.89 127.44 M145.99 245.34 C176.87 211.82, 206.86 174.35, 239.45 135.33 M144.4 246.68 C174.51 211.67, 205.31 176.15, 241.16 135.76 M151.72 247.15 C183.57 208.57, 216.99 174.83, 240.65 143.96 M150.13 247.58 C170 224.62, 188.03 202.96, 240.36 141.17 M155.73 245.68 C175.07 221.97, 192.78 203.49, 242.45 146.44 M156.45 246.93 C175.67 223.37, 194.52 200.97, 241.2 147.83 M162.96 244.07 C191.68 212.67, 215.74 184.47, 236.15 158.45 M164.88 241.43 C185.31 216.93, 207.92 192.95, 238.41 157.18 M174.82 236.09 C189.2 219.22, 206.06 200.46, 233.79 171.83 M174.49 238.11 C184.78 223.7, 197.71 209.17, 232.46 170.19 M183.37 233.95 C196.95 217.78, 207.23 202.33, 225.18 180.65 M184.11 231.5 C199.19 215.33, 213.11 200.23, 227.48 181.79" stroke="#40c057" stroke-width="0.5" fill="none"></path><path d="M131.73 -0.39 C144.99 -1.22, 159.08 4.87, 171.39 10.9 C183.7 16.93, 195.77 25.48, 205.59 35.77 C215.42 46.06, 224.58 59.72, 230.35 72.63 C236.12 85.54, 239.02 99.2, 240.2 113.24 C241.38 127.27, 240.78 143.16, 237.46 156.84 C234.14 170.53, 228.28 183.9, 220.3 195.36 C212.31 206.81, 200.87 217.41, 189.57 225.58 C178.28 233.74, 165.92 240.85, 152.51 244.36 C139.1 247.87, 122.94 247.98, 109.13 246.63 C95.32 245.28, 82.04 242.09, 69.64 236.28 C57.24 230.47, 44.52 221.71, 34.72 211.76 C24.92 201.81, 16.51 189.46, 10.83 176.58 C5.15 163.69, 1.69 148.64, 0.65 134.46 C-0.4 120.28, 1.09 105.06, 4.57 91.49 C8.05 77.92, 13.8 64.66, 21.53 53.06 C29.25 41.45, 39.53 29.88, 50.89 21.86 C62.25 13.83, 75.65 8.52, 89.68 4.9 C103.71 1.28, 126.63 0.33, 135.08 0.14 C143.54 -0.05, 140.59 1.68, 140.4 3.77 M105.98 -0.44 C118.38 -3.79, 134.28 -0.05, 148.05 3.37 C161.83 6.8, 177.23 12.24, 188.63 20.12 C200.02 28.01, 208.33 39.02, 216.43 50.68 C224.53 62.35, 233.19 76.73, 237.21 90.11 C241.23 103.49, 241.57 116.95, 240.55 130.96 C239.53 144.97, 236.69 161.24, 231.07 174.17 C225.46 187.1, 216.17 198.61, 206.86 208.55 C197.55 218.48, 187.41 227.57, 175.22 233.77 C163.04 239.97, 147.67 243.99, 133.75 245.74 C119.83 247.5, 105.03 247.39, 91.71 244.32 C78.4 241.26, 65.19 235.08, 53.86 227.37 C42.52 219.66, 31.78 209.54, 23.69 198.06 C15.6 186.58, 9.12 172.07, 5.33 158.51 C1.54 144.94, 0.18 130.81, 0.93 116.67 C1.67 102.53, 4.58 86.53, 9.8 73.68 C15.02 60.83, 22.87 49.43, 32.25 39.55 C41.63 29.68, 53.49 20.79, 66.1 14.45 C78.71 8.11, 100.87 3.39, 107.9 1.51 C114.94 -0.37, 108.21 1.3, 108.28 3.17" stroke="#2b8a3e" stroke-width="1" fill="none"></path></g><g transform="translate(516.4529273433265 120.07905716956611) rotate(0 40.166015625 13.714508518055027)"><text x="40.166015625" y="0" font-family="Cascadia, Segoe UI Emoji" font-size="22.85751419675806px" fill="#2b8a3e" text-anchor="middle" style="white-space: pre;" direction="ltr" dominant-baseline="text-before-edge">ACTIVE</text></g><g stroke-linecap="round" transform="translate(822.4167345086507 366.9487397137891) rotate(0 120.74580243624433 123.91398419755296)"><path d="M31.77 40.87 C31.77 40.87, 31.77 40.87, 31.77 40.87 M31.77 40.87 C31.77 40.87, 31.77 40.87, 31.77 40.87 M12.68 67.42 C29.63 52.96, 41.17 34.72, 51.43 23.22 M14.08 67.8 C25.72 55.66, 36 44.15, 52.11 23.8 M10.16 78.96 C27.86 56.8, 46.45 39.39, 66.25 12.14 M10.68 77.9 C30.45 54.74, 50.53 29.95, 65.15 13.54 M8.76 85.64 C34.05 57.02, 58.06 31.02, 73.61 11.83 M9.07 86.49 C32.34 59.5, 54.51 33.2, 72.65 12.45 M6.78 95.47 C20.28 75.97, 36.59 57.5, 81.59 8.06 M8.06 94.31 C36.31 59.79, 64.41 25.45, 81.05 9.77 M7.06 100.9 C29.3 75.53, 50.92 49.66, 89.42 9.16 M6.26 101.45 C33.4 70.39, 62.55 36.85, 88.06 6.88 M3.29 107.87 C26.29 84.39, 48.24 59.13, 94.25 4.52 M3.5 108.86 C32.51 75.54, 62.01 42.15, 95.51 5.25 M0.98 118.12 C26.98 88.24, 54.14 57.21, 103.49 -0.11 M-0.12 120.11 C32.76 83.64, 65.18 46.17, 102.79 2.15 M0.88 123.24 C29.97 93.99, 55.42 63.97, 109.73 1.48 M2.33 123.74 C27.25 96.08, 50.04 68.76, 107.9 2.14 M1.62 132.05 C33.03 95.05, 65.38 59.07, 110.91 1.68 M1.26 130.13 C44.05 79.22, 87.2 30.76, 112.66 3.23 M2.96 135.57 C36.16 95.8, 67.65 58.02, 117.39 4.25 M3 134.89 C28.38 106.71, 52.96 76.43, 117.89 3.39 M4.24 140.91 C43.37 96.86, 77.85 58.74, 123.51 3.27 M4.25 140.06 C51.05 86.39, 98.88 31.28, 122.07 4.04 M3.28 147.03 C39.89 101.2, 77.36 60.12, 126.51 3.3 M4.16 146.38 C36.52 107.48, 67.59 70.93, 128.36 3.48 M5.29 150.57 C38.25 111.65, 75.98 71.51, 131.48 5.35 M5.24 150.45 C57.27 92.05, 108.31 32.85, 132.65 3.36 M7.04 157.07 C37.5 122.47, 67.49 85.7, 138.24 3.15 M4.96 156.48 C42.33 113.02, 80.2 71.83, 138.45 4.2 M5.91 159.71 C54.94 105.71, 104.56 48.99, 142.6 4.52 M7.45 161.8 C61.02 99.23, 113.87 36.63, 143.36 5.63 M7.06 164.13 C53.83 114.37, 101.05 58.46, 147.4 3.98 M8.89 165.85 C52.19 115.25, 97.48 64.81, 148.25 3.9 M8.85 169.68 C51.92 119.1, 94.67 72.29, 152.28 6.99 M9.77 168.86 C41 135.65, 70.55 99.47, 152.08 4.65 M12.78 172.79 C43.4 138.26, 74.78 101.54, 154.77 6.2 M13.23 173.44 C64.69 112.74, 115.03 53.41, 156.31 7.56 M15.85 177.61 C49.53 138.21, 83.74 96.89, 158.89 10.69 M14.04 177.48 C44.2 142.38, 74.55 107.4, 160.56 9.82 M15.28 179.44 C48.6 144.6, 82.88 106.77, 163.16 11.99 M16.42 180.44 C60.14 131.11, 102.79 81.1, 162.92 11.75 M19.43 184.27 C63.77 130.06, 109.49 79.44, 168.97 12.92 M19.15 185.12 C70.21 122.89, 123.92 60.05, 167.44 12.85 M19.07 188.76 C59.8 142.5, 100.71 96.65, 169.43 13.72 M20.52 188.34 C77.95 120.58, 138.42 53.9, 171.33 14.85 M21.34 192.91 C61.56 148.63, 101.18 103.31, 174.73 16.54 M21.44 193.04 C80.6 124.99, 141.27 55.43, 175.86 16.2 M24.57 197.26 C80.22 130.74, 138.25 66.24, 177.85 18.27 M23.45 195.61 C83.93 127.94, 144.48 58.93, 179.6 18.06 M25.73 198.46 C85.02 129.28, 148.28 60.06, 183.17 18.07 M25.97 199.59 C60.4 157.38, 97.41 114.63, 182.26 20.15 M29.76 201.74 C83.6 138.16, 137.24 74.33, 186.7 19.48 M28.2 203.25 C62.44 165.97, 95.67 129.09, 187.04 20.91 M32.1 205.03 C74.09 159.56, 116.05 109.36, 190.35 22.58 M31.83 205.05 C89.84 137.48, 147.7 68.81, 188.97 24.99 M33.41 209.61 C86.12 152.42, 134.09 96.23, 192.85 27.66 M34.94 209.51 C73.09 165.62, 112.86 121.24, 192.63 26.32 M36.62 211.94 C96.37 144.01, 153.87 79.11, 195.38 29.99 M37.52 211.94 C83.95 156.49, 133.03 99.76, 195.35 30 M40.54 213.23 C95.01 148.3, 152.63 84.3, 197.9 32.08 M40.9 213.32 C84.27 162.08, 129.47 110.42, 198.66 32.3 M44.84 216.47 C80.43 175.53, 118.45 131.86, 202.68 36.09 M42.91 216.86 C86.24 166.35, 129.06 115.01, 200.98 35.19 M46.23 219.68 C90.77 166.42, 138.28 112.55, 203.35 37.28 M44.9 219.92 C108.47 150.15, 170.81 77.05, 205.15 37.51 M50.2 222.95 C105.91 156.58, 161.41 90.06, 208.38 39.75 M48.55 222.18 C100.22 160.83, 153.08 101.22, 206.15 41.11 M51.17 224.66 C101.08 165.58, 149.51 111.27, 209.5 43.54 M52.03 225.56 C82.78 187.32, 115.54 150.57, 209.56 42.48 M54.26 228.5 C96.66 178, 141.61 127.61, 211.87 47.5 M55.07 227.47 C99.91 178.16, 142.88 127.72, 212.67 45.86 M58.72 229.35 C108.75 174.64, 157.09 120.78, 215.81 49.67 M58.37 230.24 C94.53 187.31, 132.81 143.66, 216.28 48.24 M61.08 232.47 C97.86 188.82, 137.79 143.66, 220.27 49.74 M61.76 231.59 C112.21 171.34, 164.7 112.77, 219.1 50.45 M63.9 234.26 C120.51 170.26, 175.72 104.76, 220.61 53.97 M65.63 234.01 C128.1 162.65, 189.88 90.1, 220.57 54.87 M70.26 236.65 C130.19 165.55, 189.59 96.58, 224.02 58.28 M68.69 235.3 C106.18 193.77, 143.79 151.1, 222.22 58.92 M74.43 238.81 C112.44 194.58, 147.7 151.01, 225.34 62.5 M73.09 237.38 C112.77 192.55, 152.27 145.87, 225.26 62.13 M78.5 240.24 C137.15 169.5, 197.35 102.19, 227.15 65.32 M77.59 238.77 C137.99 170.01, 197.69 101.87, 226.47 66.45 M80.27 241.3 C133.95 179.88, 184.47 117.94, 230.3 70.41 M79.77 240.56 C136.37 176.03, 195.31 109.42, 228.95 70.07 M83.96 242.24 C136.33 185.03, 185.8 124.99, 229.05 76.12 M85.25 241.49 C130.24 189.71, 174.5 138.58, 229.86 74.37 M88.85 243.73 C139.82 182.64, 188.63 125.43, 232.15 77.65 M88.58 244 C119.68 207.96, 150.79 172.07, 232.92 77.2 M92.2 245.84 C139.96 191.74, 186.87 137.43, 234.23 81.57 M91.81 245.78 C135.85 195.81, 180.39 144.71, 234.47 82.47 M94.37 245.92 C138.6 195.96, 182.13 148.33, 236.67 86.74 M95.02 248.42 C147.7 188.01, 199.66 128.91, 237.59 85.71 M100.55 246.07 C130.58 213.54, 158.96 179.63, 239.73 88.54 M101.56 246.95 C138.47 202.82, 178.02 158.71, 238.16 89.18 M108.15 248.62 C156.06 190.92, 204.04 134.47, 237.84 96.28 M106.29 248.32 C151.75 196.6, 195.11 144.29, 239.61 95.99 M109.63 246.67 C143.92 207.85, 180.58 168.73, 240.14 101.11 M111.3 247.71 C152.78 200.52, 193.96 154.73, 240.85 99.25 M115.51 249.27 C155.77 201.37, 194.26 156.85, 238.47 107.25 M116.95 247.82 C166.1 192.82, 216.22 135.21, 239.62 104.73 M120.2 250.41 C167.42 195.99, 214.93 141.33, 240.06 109.47 M121.1 248.63 C152.54 213.28, 182.35 179.32, 241.54 109.79 M126.57 249.55 C168.86 196.81, 214.33 142.65, 242.09 114.3 M127.94 248.74 C163.61 206.86, 200.06 165.04, 241.47 116.34 M130.42 246.87 C154.76 224.32, 177.64 196.24, 241.7 120.3 M132.39 247.89 C167.95 205.95, 206.24 163.8, 242.86 121.43 M138.04 248.02 C163.12 218.1, 186.2 192.75, 242.34 127.32 M138.7 248.19 C159.86 220.76, 185.09 191.71, 244.18 125.9 M146.49 247.19 C184.29 200.59, 221.2 155.75, 244.71 132.33 M144.86 246.53 C182.63 203.43, 219.59 160.6, 244.93 130.68 M153.29 240.98 C171.54 223.48, 187.89 203.01, 240.33 139 M153.38 242.93 C182.44 207.61, 212.68 171.64, 241.38 139.71 M160.59 238.41 C190.69 205.86, 225.05 166.24, 238.43 148.96 M161.52 239.88 C189.91 205.13, 219.34 171.19, 240.45 149.63 M170.11 237.22 C185.01 219.63, 199.24 200.56, 238.31 157.41 M167.4 237.12 C186.18 217.73, 205.15 195.22, 238.23 156.82 M174.81 235.23 C191.3 216.96, 210.98 197.74, 234.26 167.19 M175.68 234.33 C193.38 213.49, 210.54 194.17, 236 165.83 M191.02 224.59 C204.48 205.22, 219.42 186.6, 235.13 171.52 M190.82 223.86 C202.08 211.93, 213.99 197.01, 233.83 173.59 M204.32 214.93 C209.02 210.29, 212.16 203.09, 222.8 192.75 M205.07 215.23 C209.69 208.16, 215.14 200.87, 222.23 192.47" stroke="#fa5252" stroke-width="0.5" fill="none"></path><path d="M104.71 0.21 C117.28 -3.4, 132.95 -1.05, 146.49 2.32 C160.04 5.7, 174.4 12.74, 185.96 20.45 C197.53 28.17, 207.51 37.44, 215.88 48.63 C224.24 59.82, 231.76 74.06, 236.13 87.59 C240.51 101.13, 242.83 115.81, 242.13 129.82 C241.43 143.83, 237.24 158.53, 231.93 171.65 C226.62 184.78, 219.71 198.29, 210.28 208.55 C200.85 218.82, 187.68 226.86, 175.35 233.27 C163.02 239.67, 149.91 244.97, 136.32 246.96 C122.73 248.95, 107.33 248.25, 93.82 245.21 C80.3 242.18, 66.7 236.44, 55.22 228.75 C43.75 221.06, 33.19 210.4, 24.97 199.07 C16.75 187.73, 10.11 174.15, 5.9 160.74 C1.68 147.32, -0.75 132.75, -0.31 118.59 C0.13 104.43, 3.16 88.76, 8.53 75.78 C13.9 62.8, 22.55 51.16, 31.91 40.7 C41.26 30.25, 51.88 19.74, 64.65 13.04 C77.41 6.34, 100.97 2.26, 108.51 0.49 C116.05 -1.29, 109.86 0.14, 109.9 2.39 M95.37 2.52 C108.18 -1.98, 125.86 -1.3, 139.4 0.83 C152.95 2.95, 164.58 8.27, 176.61 15.27 C188.64 22.28, 202.32 32.48, 211.59 42.86 C220.86 53.25, 227.31 64.53, 232.22 77.57 C237.13 90.6, 240.76 106.97, 241.04 121.07 C241.33 135.17, 238.08 149.05, 233.92 162.15 C229.77 175.25, 224.52 188.69, 216.12 199.67 C207.72 210.66, 195.5 220.47, 183.55 228.06 C171.59 235.64, 157.81 242.08, 144.4 245.18 C130.99 248.28, 116.56 248.62, 103.08 246.67 C89.6 244.71, 75.53 240.29, 63.51 233.47 C51.49 226.65, 39.99 216.32, 30.95 205.76 C21.91 195.19, 14.44 183.23, 9.25 170.07 C4.07 156.9, 0.51 140.8, -0.17 126.78 C-0.85 112.76, 0.96 98.99, 5.18 85.95 C9.41 72.91, 16.38 59.67, 25.2 48.54 C34.02 37.42, 46.12 26.87, 58.11 19.19 C70.11 11.52, 90.76 4.92, 97.18 2.49 C103.6 0.06, 96.25 2.64, 96.62 4.63" stroke="#c92a2a" stroke-width="1" fill="none"></path></g><g transform="translate(909.8106815549156 477.0277968833552) rotate(0 33.4716796875 13.714508518055027)"><text x="33.4716796875" y="0" font-family="Cascadia, Segoe UI Emoji" font-size="22.857514196758057px" fill="#c92a2a" text-anchor="middle" style="white-space: pre;" direction="ltr" dominant-baseline="text-before-edge">ERROR</text></g><g stroke-linecap="round" transform="translate(435.7533162345617 724.8926359414909) rotate(0 120.74580243624433 123.91398419755296)"><path d="M35.85 36.46 C35.85 36.46, 35.85 36.46, 35.85 36.46 M35.85 36.46 C35.85 36.46, 35.85 36.46, 35.85 36.46 M11.98 73.31 C23.77 55.15, 37.46 39.95, 51.5 24.11 M11.63 71.82 C20.24 62.07, 28 51.64, 52.05 23.49 M8.64 78.6 C25.42 62.94, 39.19 43.24, 69.52 12.12 M8.19 80.42 C20.71 63.95, 33.98 49.29, 68.91 12.17 M8.39 86.77 C21.18 73.65, 33.75 57.96, 72.19 12.41 M7.21 87.73 C23.41 67.46, 40.21 49.22, 70.24 14.6 M2.83 96.39 C22.09 74.01, 42.12 53.22, 80.07 13.9 M5.25 97.26 C31.73 63.35, 61.24 31.41, 77.92 11.42 M2.92 104.63 C19 84.56, 40.79 64.82, 85.87 9.88 M2.74 105.32 C24.1 80.03, 44.57 56.47, 84.41 9.39 M0.65 113.35 C31.79 78.63, 60.97 44.21, 91.71 8.09 M-0.16 112.48 C25.32 84.79, 50.56 58.31, 91.05 10.01 M3.15 116.61 C26.83 89.94, 52.39 59.32, 98.67 8.31 M3.56 117.53 C26.23 91.47, 48.27 65.36, 97.74 6.49 M5.31 121.86 C38.68 83.75, 72.68 45.41, 103.24 5.74 M4.52 122.04 C30.3 90.91, 59.88 57.28, 104.43 5.45 M3 128.63 C34.13 93.19, 62.1 57.26, 114.04 4.19 M3.24 127.44 C40.74 86.34, 78.6 43.56, 112.03 3.66 M5.56 132.6 C48.73 81.04, 92.05 33.35, 115.69 4.79 M4.72 134.56 C33.58 99.38, 64.7 64.91, 117.27 3.01 M6.63 137.5 C33.84 106.96, 64 71.23, 124.12 3.67 M4.42 139.86 C39.6 98.69, 73.34 59.77, 122.18 3.7 M3.2 143.07 C43.25 99.01, 81.9 54.87, 126.38 4.6 M5.3 144.87 C52.63 88.94, 102.15 33.25, 126.93 5.24 M4.44 151.2 C37.54 116.42, 64.9 82.25, 134.17 4.02 M5.86 150.68 C43.77 106.87, 80.79 63.59, 131.52 4.92 M5.31 159.27 C37.3 118.48, 72.2 77.69, 136.83 5.15 M3.9 156.97 C40.74 117.93, 76.37 76.87, 137.72 6.15 M7.07 162.65 C48.8 116.71, 89.14 68.02, 143.88 5.92 M7.37 161.72 C48.43 110.51, 93.04 61.63, 142.41 6.37 M9.02 166.36 C39.45 131.82, 65.24 100.84, 147.36 5.4 M8.07 164.57 C37.48 130.79, 64.97 98.37, 147.09 6.83 M11.32 168.77 C68.72 106.13, 122.39 42.69, 151.3 6.21 M11 170.07 C42.43 133.23, 74.08 96.17, 152.03 5.93 M12.55 174.6 C55.48 124.34, 95.58 74.32, 157.44 6.81 M12.29 173.69 C65.24 109.03, 121.04 46.09, 155.92 7.72 M14.64 178.53 C49.97 133.86, 85.84 92.94, 158.53 10.01 M13.97 177.38 C50.25 135.12, 86.32 95.05, 159.42 8.83 M15.67 181.96 C64.88 128.78, 109.32 76.04, 163.74 11.47 M16.74 181.3 C56.16 134.94, 97.14 87.63, 163.85 11.65 M18.38 183.89 C67.89 127.9, 119.22 69.43, 168.5 14.75 M17.45 185.54 C61.11 131.51, 106.57 80.42, 167.16 13.01 M19.49 190.19 C81.05 121.35, 137.76 51.23, 172.72 15.93 M19.01 188.6 C52.69 152.02, 85.59 113.05, 170.78 14.87 M21.55 194.46 C64.5 145.51, 105.65 96.49, 176.3 17.31 M20.99 194.19 C67.04 141.47, 110.96 91.17, 175.39 17.01 M22.47 197.85 C69.93 144.08, 114.88 89.57, 179.98 18.95 M22.84 198.12 C63.43 154.06, 102.67 108.83, 179.27 19.16 M24.42 199.01 C58.52 164.75, 91.21 125.57, 181.72 21.36 M25.27 200.79 C85.63 131.75, 145.79 62.96, 183.21 19.77 M28.93 202.04 C83.55 136.94, 140.98 72.22, 184.92 20.19 M28.8 202.77 C70.35 156.89, 109.34 111.17, 186.21 21.14 M31.63 207.02 C72.45 158.17, 114.21 110.49, 191.39 25.16 M32.72 205.73 C86.29 142.6, 140.36 81.8, 190.25 22.73 M36.73 208.27 C89.38 146.88, 141.53 87.17, 192.27 25.51 M34.69 208.48 C70.97 165.44, 106.73 122.75, 193.75 25.34 M37.15 210.11 C77.77 164.82, 118.78 118.61, 196.36 30.35 M36.71 211.47 C68.71 172.94, 101.24 137.1, 196.69 29.32 M39.56 213.9 C93.07 154.96, 145.02 93.54, 199.01 32.69 M40.28 213.32 C74.77 173.75, 110.9 133.3, 198.71 32.22 M44.58 217.66 C78.12 177.64, 112.05 139.15, 201.17 36.13 M44.22 217.38 C103.96 146.99, 162.83 79.79, 201.55 35.03 M45.21 219.76 C94.59 163.37, 143.19 106.41, 206.16 36.88 M46.41 219.99 C79.97 181.72, 112.89 145.64, 205.13 37.86 M49.57 222.09 C87.96 173.4, 132.09 125.94, 208.18 41.69 M49.2 222.34 C106.97 158.05, 163.01 92, 207.75 40.69 M52.7 223.82 C110.87 159.31, 169.91 90.4, 209.05 43.25 M51.25 225.32 C108.93 158.7, 166.36 91.25, 210.42 42.46 M53.38 227.63 C102.81 172.06, 148.53 120.64, 212.64 45.03 M55.24 227.86 C90.06 186.65, 126.78 144.83, 213.08 45.4 M59.83 229.32 C99.44 185.38, 139.02 138.17, 215.02 49.98 M58.72 229.26 C94.58 187.48, 130.8 145.95, 215.56 49.11 M61.25 232.57 C115.4 171.31, 168.14 110.25, 219.56 51.84 M61.48 231.05 C114.42 172.43, 167.93 110.07, 219.54 51.31 M65.56 233.33 C107.29 184.54, 149.41 137.35, 223.73 53.76 M66.75 234.2 C122.64 167.65, 179 102.21, 222.86 53.52 M70.14 234.96 C123.69 170.77, 182.46 104.43, 222.83 57.36 M69.48 234.53 C103.54 197.32, 137.27 158.31, 223.36 57.92 M75.07 237.9 C120.36 180.23, 171.66 121.98, 224.85 63.22 M74.72 237.01 C112.48 192.08, 150.48 148.2, 226.28 61.51 M77.68 236.8 C121.66 185.57, 164.94 134.58, 228.88 65.33 M78.03 238.16 C119.77 189.53, 162.26 139.45, 227.69 66.92 M82.65 240.62 C127.58 185.01, 177.71 131.11, 230.42 71.71 M80.6 240.49 C113.16 206.11, 142.8 171.36, 229.34 71.16 M86.47 242.97 C116.77 205.64, 146.88 171.59, 230.74 73.76 M84.87 241.89 C133.04 186.17, 182.53 129.02, 231.07 75.34 M90.1 242.59 C142.26 181.28, 197.21 117.9, 230.87 78.85 M88.6 243.75 C127.1 199.01, 166.33 153.75, 232.53 78.24 M92.99 245.27 C137.32 193.82, 179.56 144.65, 234.22 82.89 M91.68 246.25 C127 206.38, 161.92 166.84, 234.07 82.8 M96.91 245.06 C151.15 187.67, 203.4 127.85, 237.54 85.14 M96.69 246.29 C143.86 193.1, 190.24 140.86, 235.66 87.06 M102.87 247.97 C150.98 192.97, 201.82 134.07, 237.1 92.08 M101.48 245.96 C136.85 206.9, 170.65 167.35, 238.09 90.92 M107.02 246.33 C133.78 211.79, 164.32 178.76, 238.48 95.46 M107.58 247.71 C156.38 188.15, 206.91 133.37, 237.58 97.71 M110.74 247.26 C144.83 213.44, 176.61 176.8, 238.56 100.63 M111.53 246.84 C150.72 203.87, 190.34 158.19, 238.39 101.98 M116 247.91 C164.52 192.02, 212.62 137.44, 241.2 106.57 M116.57 248.97 C148.5 212.06, 178.4 175.21, 240.18 107.22 M120.51 249.49 C151.18 214.15, 179.5 179.36, 238.65 111.45 M121.74 247.92 C158.52 206.49, 194.96 164.22, 240.55 113.74 M124.82 250.02 C170.32 195.48, 215.69 144.62, 240.34 118.3 M126.85 249.59 C163.89 205.26, 200.55 161.87, 239.1 118.69 M132.49 250.64 C168.89 209.15, 202.08 168.29, 241.22 126.08 M131.8 248.68 C159.83 218.67, 186.95 186.35, 239.82 124.46 M139.78 245.18 C164.5 217.83, 191.17 186.36, 239.97 130.25 M138.31 247.66 C179.17 199.33, 219.19 153.64, 242.46 129.68 M146.53 244.47 C166.75 217.31, 192.08 191.64, 243.36 133.83 M145.96 245.47 C176.86 209.27, 207.94 173.2, 240.94 135.69 M155.14 243.86 C179.95 214.27, 205.33 180.17, 239.82 144.73 M153.17 242.54 C184.27 205.06, 215.84 168.86, 239.98 144.29 M159.47 241.87 C182 216.54, 198.5 195.86, 237.6 155.5 M161.3 239.71 C186.36 210.1, 212.58 181.29, 235.43 152.86 M167.78 239.68 C190.62 209.98, 217.79 180.58, 232.49 163.93 M167.62 239.19 C182.69 222.13, 196.01 206.64, 233.04 163.42 M171.73 239.7 C188.65 223.96, 198.81 208.57, 230.12 173.41 M173.38 237.6 C195.12 213.5, 216.2 189.36, 230.85 172.32 M186.38 226.59 C202.19 206.7, 221.17 187.58, 231.39 177.63 M188.01 228.29 C196.7 216.95, 204.48 207.5, 231.72 177.44" stroke="#ced4da" stroke-width="0.5" fill="none"></path><path d="M68.48 11.19 C79.61 3.99, 96.02 2.61, 109.7 1.41 C123.38 0.2, 137.24 0.42, 150.56 3.96 C163.89 7.51, 178.06 14.61, 189.65 22.7 C201.23 30.79, 212.19 41.09, 220.07 52.52 C227.96 63.95, 233.35 77.56, 236.97 91.27 C240.59 104.99, 243.04 120.83, 241.8 134.79 C240.57 148.75, 235.41 162.27, 229.55 175.01 C223.7 187.76, 216.29 201.03, 206.67 211.25 C197.05 221.47, 184.36 230.25, 171.83 236.34 C159.3 242.44, 145.07 246.57, 131.48 247.8 C117.89 249.03, 103.47 247.43, 90.28 243.73 C77.1 240.04, 63.81 233.61, 52.38 225.63 C40.96 217.66, 29.89 207.47, 21.75 195.89 C13.6 184.31, 7.06 169.73, 3.5 156.16 C-0.06 142.59, -0.77 128.61, 0.38 114.47 C1.54 100.32, 4.53 84.29, 10.44 71.29 C16.35 58.29, 24.71 47.09, 35.82 36.49 C46.94 25.88, 68.71 12.33, 77.14 7.68 C85.56 3.02, 85.69 6.66, 86.39 8.55 M73.83 9.8 C84.99 2.75, 98.35 1.24, 112 0.69 C125.65 0.13, 142.43 2.63, 155.74 6.48 C169.05 10.33, 180.98 15.46, 191.87 23.78 C202.75 32.09, 213.57 44.6, 221.05 56.36 C228.52 68.12, 233.32 80.9, 236.7 94.32 C240.08 107.75, 242.76 122.98, 241.33 136.91 C239.91 150.85, 234.54 165.13, 228.16 177.93 C221.77 190.74, 212.94 203.77, 203.03 213.74 C193.11 223.7, 181.13 231.97, 168.65 237.69 C156.16 243.41, 141.76 247.31, 128.12 248.05 C114.48 248.8, 99.88 246.17, 86.8 242.14 C73.71 238.11, 60.77 232.3, 49.61 223.86 C38.45 215.42, 27.69 203.17, 19.82 191.49 C11.96 179.81, 5.71 167.14, 2.41 153.77 C-0.9 140.41, -1.86 125.38, -0.01 111.31 C1.84 97.23, 7.07 82.21, 13.5 69.32 C19.93 56.42, 28.72 43.84, 38.55 33.93 C48.38 24.03, 66.52 13.51, 72.47 9.9 C78.43 6.29, 73.27 10.2, 74.26 12.28" stroke="#343a40" stroke-width="1" fill="none"></path></g><g transform="translate(503.06425546832645 834.971693111057) rotate(0 53.5546875 13.714508518055027)"><text x="53.5546875" y="0" font-family="Cascadia, Segoe UI Emoji" font-size="22.85751419675806px" fill="#343a40" text-anchor="middle" style="white-space: pre;" direction="ltr" dominant-baseline="text-before-edge">INACTIVE</text></g><g stroke-linecap="round"><g transform="translate(290.6071318416948 490.5196406993018) rotate(0 65.36742736974378 0.37518283616873305)"><path d="M-1.06 -0.7 C20.59 -0.86, 107.79 -0.81, 129.59 -0.65 M0.59 1.55 C22.63 1.5, 109.86 0.44, 131.79 0.45" stroke="#000000" stroke-width="1" fill="none"></path></g><g transform="translate(290.6071318416948 490.5196406993018) rotate(0 65.36742736974378 0.37518283616873305)"><path d="M132.71 0.11 L119.58 7.93 L120.02 -4.69 L132.22 0.21" stroke="none" stroke-width="0" fill="#000000" fill-rule="evenodd"></path><path d="M130.92 -0.76 C127.06 1.07, 124.49 5.18, 116.96 6.73 M131.93 0.26 C127.6 3.11, 123.85 3.93, 117.71 6.97 M117.75 7.51 C118.54 2.84, 118.76 -1.29, 117.6 -5.29 M118.71 6.49 C117.76 4.62, 118.1 1.05, 117.8 -5.94 M116.93 -6.7 C123.42 -2.03, 128.34 -2.19, 132.25 1.13 M117.96 -5.39 C122.74 -3.64, 129.12 -1.38, 131.47 -0.19 M131.79 0.45 C131.79 0.45, 131.79 0.45, 131.79 0.45 M131.79 0.45 C131.79 0.45, 131.79 0.45, 131.79 0.45" stroke="#000000" stroke-width="1" fill="none"></path></g></g><mask></mask><g stroke-linecap="round"><g transform="translate(685.7062029301569 491.1998278786996) rotate(0 66.31129010934524 0.12209089391308225)"><path d="M-0.7 -0.97 C21.09 -0.9, 108.93 -1.02, 131.04 -0.66 M1.13 1.14 C23.28 1.43, 111.64 0.74, 133.32 0.45" stroke="#c92a2a" stroke-width="1" fill="none"></path></g><g transform="translate(685.7062029301569 491.1998278786996) rotate(0 66.31129010934524 0.12209089391308225)"><path d="M132.98 1.79 L120.84 8.79 L120.77 -5.33 L133.08 -0.26" stroke="none" stroke-width="0" fill="#c92a2a" fill-rule="evenodd"></path><path d="M132.11 -0.58 C127.85 2.6, 125.79 3.3, 119.64 7.13 M133.13 0.48 C128.98 3.35, 122.86 4.66, 119.88 7.04 M120.42 7.18 C119.67 4.25, 119.5 0.01, 120.17 -6.74 M119.4 6.41 C120.32 3.5, 119.54 0.03, 119.52 -5.17 M118.76 -5.81 C124.38 -4.51, 125.31 -1.97, 134 1.83 M120.08 -6.48 C122.75 -3.84, 126.01 -2.91, 132.68 0.04 M133.32 0.45 C133.32 0.45, 133.32 0.45, 133.32 0.45 M133.32 0.45 C133.32 0.45, 133.32 0.45, 133.32 0.45" stroke="#c92a2a" stroke-width="1" fill="none"></path></g></g><mask></mask><g stroke-linecap="round"><g transform="translate(573.9874262990825 625.518913354641) rotate(0 0.7542370913376999 45.518970993323364)"><path d="M-0.97 -0.82 C-0.76 14.34, -0.31 75.28, 0.19 90.27 M0.73 1.36 C1.41 16.79, 2.29 77.1, 2.48 91.86" stroke="#343a40" stroke-width="1" fill="none"></path></g><g transform="translate(573.9874262990825 625.518913354641) rotate(0 0.7542370913376999 45.518970993323364)"><path d="M3.81 92.91 L-2.19 79.47 L9.04 77.93 L1.76 91.1" stroke="none" stroke-width="0" fill="#343a40" fill-rule="evenodd"></path><path d="M1.45 90.84 C1.29 90.27, -1.49 85.94, -3.85 79.32 M2.5 92.4 C0.51 86.1, -3 81.77, -3.94 77.99 M-3.8 78.32 C0.74 78.06, 3.98 78.68, 7.64 77.64 M-4.58 78.92 C-0.44 78.2, 3.12 78.19, 9.2 77.92 M8.56 79.4 C6.65 79.84, 6.19 84.99, 3.85 91.15 M7.89 77.84 C7.27 81.3, 5.02 84.79, 2.06 91.82 M2.48 91.86 C2.48 91.86, 2.48 91.86, 2.48 91.86 M2.48 91.86 C2.48 91.86, 2.48 91.86, 2.48 91.86" stroke="#343a40" stroke-width="1" fill="none"></path></g></g><mask></mask><g stroke-linecap="round"><g transform="translate(538.2123111763535 266.1599763683389) rotate(0 0.14119858447594424 45.20720626852835)"><path d="M-0.82 -0.82 C-0.52 14.55, 0.97 76.09, 1.11 91.23 M0.94 1.37 C1.16 16.51, -0.02 74.67, 0.21 89.66" stroke="#2b8a3e" stroke-width="1" fill="none"></path></g><g transform="translate(538.2123111763535 266.1599763683389) rotate(0 0.14119858447594424 45.20720626852835)"><path d="M0.22 1.05 L6.92 13.06 L-7.1 12.2 L-1.59 -2.58" stroke="none" stroke-width="0" fill="#2b8a3e" fill-rule="evenodd"></path><path d="M-1.85 -0.7 C1.99 1.2, 2.13 5.94, 6.78 13.78 M-0.28 -0.3 C0.6 2.93, 3.46 7.86, 5.44 12.93 M5.78 13.14 C2.33 12.18, -0.3 11.82, -7.4 12.88 M6.37 12.48 C0.89 12.27, -3.81 13.32, -7.12 12.44 M-5.64 12.44 C-6.85 10.38, -3.46 8.3, -1.54 -1.36 M-7.2 13.22 C-5.81 8.9, -4.28 5.05, -0.86 -0.93 M-0.82 -0.82 C-0.82 -0.82, -0.82 -0.82, -0.82 -0.82 M-0.82 -0.82 C-0.82 -0.82, -0.82 -0.82, -0.82 -0.82" stroke="#2b8a3e" stroke-width="1" fill="none"></path></g></g><mask></mask><g transform="translate(403.192506263842 662.2528976808644) rotate(0 53.5546875 13.714508518055027)"><text x="0" y="0" font-family="Cascadia, Segoe UI Emoji" font-size="22.85751419675806px" fill="#2b8a3e" text-anchor="start" style="white-space: pre;" direction="ltr" dominant-baseline="text-before-edge">activate</text></g><g stroke-linecap="round"><g transform="translate(538.5290467954624 627.0396768127066) rotate(0 0.4263505535772083 46.047906756413795)"><path d="M0.1 1.05 C0.23 16.2, -0.19 75.08, -0.01 90.06 M-1.31 0.56 C-0.74 15.97, 1.86 76.79, 2.16 91.53" stroke="#2b8a3e" stroke-width="1" fill="none"></path></g><g transform="translate(538.5290467954624 627.0396768127066) rotate(0 0.4263505535772083 46.047906756413795)"><path d="M1.2 1.48 L6.16 13.95 L-7.03 12.87 L2.02 2.85" stroke="none" stroke-width="0" fill="#2b8a3e" fill-rule="evenodd"></path><path d="M1.42 -0.22 C1.32 4.41, 3.89 8.49, 6.68 14.29 M-0.56 0.53 C2.2 5.25, 3.65 9.55, 6.12 15.04 M6.23 14.11 C2.85 13.72, -2.26 14.67, -5.34 13.85 M6.22 14.3 C3.49 15.21, 0.61 14.15, -6.79 14.25 M-7.66 15.09 C-3.81 12, -3.32 6.07, -0.3 1.88 M-6.79 14.32 C-5.56 11.44, -3.66 8.99, 0.17 1.06 M0.1 1.05 C0.1 1.05, 0.1 1.05, 0.1 1.05 M0.1 1.05 C0.1 1.05, 0.1 1.05, 0.1 1.05" stroke="#2b8a3e" stroke-width="1" fill="none"></path></g></g><mask></mask><g transform="translate(600.9504977467584 300.2899281901191) rotate(0 53.5546875 13.714508518055027)"><text x="0" y="0" font-family="Cascadia, Segoe UI Emoji" font-size="22.857514196758057px" fill="#343a40" text-anchor="start" style="white-space: pre;" direction="ltr" dominant-baseline="text-before-edge">deactive</text></g><g stroke-linecap="round"><g transform="translate(574.9135491646102 267.6807398264027) rotate(0 0.0771892756609418 44.85981454294506)"><path d="M-1.02 -0.12 C-0.84 14.86, 0.68 75.86, 1.18 90.95 M0.64 -1.23 C0.67 13.93, 0.15 73.72, 0.31 89.23" stroke="#343a40" stroke-width="1" fill="none"></path></g><g transform="translate(574.9135491646102 267.6807398264027) rotate(0 0.0771892756609418 44.85981454294506)"><path d="M0.07 88.51 L-6.78 73.87 L8.58 77.43 L-1.55 89.59" stroke="none" stroke-width="0" fill="#343a40" fill-rule="evenodd"></path><path d="M0.17 89.44 C-0.79 86.13, -3.43 80.42, -5.98 76.71 M0.4 89.34 C-2.28 84.45, -4.54 79.52, -5.87 75.61 M-5.52 74.65 C-2.25 75.66, 3.53 74.91, 5.62 76.75 M-6.17 76.21 C-2.79 75.23, 0.44 75.32, 6.63 76.15 M7.34 77.01 C4.11 78.76, 2.73 83.77, -1.14 88.55 M6.01 75.22 C4.36 80.13, 2.3 84.9, 0.54 89.41 M0.31 89.23 C0.31 89.23, 0.31 89.23, 0.31 89.23 M0.31 89.23 C0.31 89.23, 0.31 89.23, 0.31 89.23" stroke="#343a40" stroke-width="1" fill="none"></path></g></g><mask></mask><g transform="translate(309.2053871752937 438.515104194219) rotate(0 40.166015625 13.714508518055027)"><text x="0" y="0" font-family="Cascadia, Segoe UI Emoji" font-size="22.85751419675806px" fill="#000000" text-anchor="start" style="white-space: pre;" direction="ltr" dominant-baseline="text-before-edge">create</text></g></svg>