<svg width="358" height="776" viewBox="0 0 358 776" fill="none" xmlns="http://www.w3.org/2000/svg">
<path d="M232.738 222.307C232.738 181.926 245.818 143.375 268.832 115.927L307.685 69.5889C314.942 60.9332 319.067 48.7754 319.067 36.041" stroke="#F8727D" stroke-width="1.87692"/>
<path d="M172.879 222.307L172.879 187.925C172.879 136.201 181.751 85.2924 181.737 36.041" stroke="#6E35DE" stroke-width="1.87692"/>
<path d="M138.804 222.307L138.804 220.866C138.804 170.429 121.859 124.457 95.2158 102.601L67.9019 80.1969C57.9545 72.037 51.6279 54.8722 51.6279 36.041" stroke="#2EC291" stroke-width="1.87692"/>
<g filter="url(#filter0_d_776_96153)">
<rect x="33.3418" y="551.109" width="286.072" height="220.055" rx="10.1564" fill="#FAFAFA" shape-rendering="crispEdges"/>
<rect x="32.9186" y="550.686" width="286.918" height="220.902" rx="10.5796" stroke="black" stroke-opacity="0.08" stroke-width="0.846367" shape-rendering="crispEdges"/>
<rect x="43.498" y="564.651" width="6.77094" height="6.77094" rx="3.38547" fill="black" fill-opacity="0.08"/>
<rect x="55.3477" y="564.651" width="6.77094" height="6.77094" rx="3.38547" fill="black" fill-opacity="0.08"/>
<rect x="67.1963" y="564.651" width="6.77094" height="6.77094" rx="3.38547" fill="black" fill-opacity="0.08"/>
<g filter="url(#filter1_bddd_776_96153)">
<path d="M43.498 600.199C43.498 595.525 47.2874 591.735 51.9617 591.735H300.794C305.468 591.735 309.257 595.525 309.257 600.199V752.545C309.257 757.219 305.468 761.009 300.794 761.009H51.9617C47.2874 761.009 43.498 757.219 43.498 752.545V600.199Z" fill="white" fill-opacity="0.6" shape-rendering="crispEdges"/>
<path d="M43.9212 600.199C43.9212 595.758 47.5211 592.159 51.9617 592.159H300.794C305.234 592.159 308.834 595.758 308.834 600.199V752.545C308.834 756.986 305.234 760.586 300.794 760.586H51.9617C47.5211 760.586 43.9212 756.986 43.9212 752.545V600.199Z" stroke="white" stroke-opacity="0.2" stroke-width="0.846367" shape-rendering="crispEdges"/>
<g clip-path="url(#clip0_776_96153)">
<rect x="57.04" y="605.277" width="238.675" height="42.3183" rx="3.38547" fill="#CDB4FD"/>
<path d="M132.04 631.28L129.169 626.866L127.869 628.355V631.28H126.338V621.828H127.869V626.622H127.923L129.277 624.902L131.823 621.828H133.61L130.238 625.809L133.881 631.28H132.04ZM136.514 631.28H135.038V624.238H136.514V625.403H136.581C136.879 624.645 137.475 624.076 138.558 624.076C139.994 624.076 140.847 625.078 140.847 626.811V631.28H139.371V627.001C139.371 625.904 138.951 625.349 138.044 625.349C137.272 625.349 136.514 625.742 136.514 626.568V631.28ZM145.655 631.443C143.692 631.443 142.419 630.007 142.419 627.759C142.419 625.511 143.692 624.076 145.655 624.076C147.619 624.076 148.892 625.511 148.892 627.759C148.892 630.007 147.619 631.443 145.655 631.443ZM145.655 630.224C146.658 630.224 147.335 629.601 147.335 628.355V627.164C147.335 625.918 146.658 625.295 145.655 625.295C144.653 625.295 143.976 625.918 143.976 627.164V628.355C143.976 629.601 144.653 630.224 145.655 630.224ZM151.663 631.28L149.74 624.238H151.175L151.893 627.191L152.53 629.858H152.57L153.301 627.191L154.155 624.238H155.482L156.348 627.191L157.093 629.858H157.134L157.757 627.191L158.488 624.238H159.856L157.96 631.28H156.294L155.373 628.071L154.805 626.094H154.778L154.222 628.071L153.288 631.28H151.663ZM163.713 631.28H162.765C161.763 631.28 161.262 630.725 161.262 629.818V621.259H162.738V630.075H163.713V631.28ZM167.886 631.443C165.882 631.443 164.649 630.007 164.649 627.759C164.649 625.511 165.882 624.076 167.886 624.076C169.958 624.076 171.014 625.633 171.014 627.583V628.139H166.18V628.369C166.18 629.452 166.843 630.224 168.035 630.224C168.901 630.224 169.484 629.818 169.89 629.168L170.757 630.021C170.229 630.874 169.199 631.443 167.886 631.443ZM167.886 625.227C166.87 625.227 166.18 625.985 166.18 627.069V627.164H169.457V627.028C169.457 625.945 168.861 625.227 167.886 625.227ZM177.076 631.28V630.116H177.009C176.711 630.942 175.966 631.443 175.031 631.443C173.257 631.443 172.228 630.075 172.228 627.759C172.228 625.444 173.257 624.076 175.031 624.076C175.966 624.076 176.711 624.564 177.009 625.403H177.076V621.259H178.552V631.28H177.076ZM175.478 630.17C176.372 630.17 177.076 629.682 177.076 628.965V626.554C177.076 625.836 176.372 625.349 175.478 625.349C174.463 625.349 173.786 626.067 173.786 627.15V628.369C173.786 629.452 174.463 630.17 175.478 630.17ZM186.837 631.944C186.837 633.406 185.794 634.151 183.262 634.151C180.96 634.151 180.066 633.528 180.066 632.458C180.066 631.687 180.527 631.267 181.271 631.104V630.955C180.757 630.793 180.472 630.4 180.472 629.872C180.472 629.141 181.041 628.789 181.718 628.626V628.572C180.892 628.179 180.432 627.434 180.432 626.486C180.432 625.051 181.447 624.076 183.235 624.076C183.709 624.076 184.142 624.144 184.508 624.293V624.103C184.508 623.48 184.806 623.101 185.429 623.101H186.512V624.293H185.077V624.577C185.713 624.997 186.065 625.674 186.065 626.486C186.065 627.908 185.036 628.87 183.249 628.87C182.91 628.87 182.585 628.829 182.328 628.761C181.976 628.883 181.651 629.114 181.651 629.466C181.651 629.845 182.016 629.994 182.639 629.994H184.373C186.106 629.994 186.837 630.725 186.837 631.944ZM185.456 632.106C185.456 631.619 185.131 631.307 184.169 631.307H181.786C181.461 631.497 181.299 631.781 181.299 632.12C181.299 632.689 181.718 633.081 182.815 633.081H183.736C184.887 633.081 185.456 632.756 185.456 632.106ZM183.249 627.8C184.115 627.8 184.616 627.407 184.616 626.608V626.337C184.616 625.539 184.115 625.146 183.249 625.146C182.382 625.146 181.881 625.539 181.881 626.337V626.608C181.881 627.407 182.382 627.8 183.249 627.8ZM190.619 631.443C188.615 631.443 187.382 630.007 187.382 627.759C187.382 625.511 188.615 624.076 190.619 624.076C192.691 624.076 193.747 625.633 193.747 627.583V628.139H188.912V628.369C188.912 629.452 189.576 630.224 190.768 630.224C191.634 630.224 192.217 629.818 192.623 629.168L193.49 630.021C192.961 630.874 191.932 631.443 190.619 631.443ZM190.619 625.227C189.603 625.227 188.912 625.985 188.912 627.069V627.164H192.19V627.028C192.19 625.945 191.594 625.227 190.619 625.227ZM198.581 631.28V621.259H200.057V625.403H200.125C200.423 624.564 201.168 624.076 202.102 624.076C203.876 624.076 204.905 625.444 204.905 627.759C204.905 630.075 203.876 631.443 202.102 631.443C201.168 631.443 200.423 630.942 200.125 630.116H200.057V631.28H198.581ZM201.655 630.17C202.671 630.17 203.348 629.452 203.348 628.369V627.15C203.348 626.067 202.671 625.349 201.655 625.349C200.761 625.349 200.057 625.836 200.057 626.554V628.965C200.057 629.682 200.761 630.17 201.655 630.17ZM212.581 631.28H211.755C210.983 631.28 210.577 630.793 210.482 630.102H210.414C210.143 630.982 209.385 631.443 208.356 631.443C206.907 631.443 206.081 630.617 206.081 629.344C206.081 627.949 207.123 627.231 209.087 627.231H210.36V626.635C210.36 625.782 209.899 625.281 208.911 625.281C208.085 625.281 207.584 625.687 207.232 626.243L206.352 625.444C206.812 624.658 207.638 624.076 209.006 624.076C210.82 624.076 211.836 624.97 211.836 626.541V630.075H212.581V631.28ZM208.776 630.319C209.683 630.319 210.36 629.885 210.36 629.195V628.179H209.114C208.085 628.179 207.584 628.518 207.584 629.127V629.371C207.584 629.994 208.044 630.319 208.776 630.319ZM216.262 631.443C214.935 631.443 214.068 630.942 213.405 630.116L214.352 629.249C214.867 629.872 215.504 630.251 216.343 630.251C217.196 630.251 217.63 629.899 217.63 629.303C217.63 628.856 217.359 628.518 216.627 628.423L215.977 628.342C214.542 628.166 213.662 627.543 213.662 626.243C213.662 624.875 214.732 624.076 216.275 624.076C217.548 624.076 218.266 624.496 218.903 625.2L217.995 626.067C217.63 625.633 217.034 625.268 216.275 625.268C215.463 625.268 215.084 625.62 215.084 626.148C215.084 626.69 215.422 626.933 216.167 627.055L216.817 627.136C218.361 627.367 219.051 628.044 219.051 629.181C219.051 630.535 217.955 631.443 216.262 631.443ZM223.482 631.443C221.477 631.443 220.245 630.007 220.245 627.759C220.245 625.511 221.477 624.076 223.482 624.076C225.553 624.076 226.61 625.633 226.61 627.583V628.139H221.775V628.369C221.775 629.452 222.439 630.224 223.631 630.224C224.497 630.224 225.08 629.818 225.486 629.168L226.352 630.021C225.824 630.874 224.795 631.443 223.482 631.443ZM223.482 625.227C222.466 625.227 221.775 625.985 221.775 627.069V627.164H225.052V627.028C225.052 625.945 224.457 625.227 223.482 625.227Z" fill="#1D2433" fill-opacity="0.65"/>
</g>
<path d="M57.04 661.138H295.716" stroke="black" stroke-opacity="0.1" stroke-width="0.846367"/>
<rect x="57.04" y="674.68" width="112.567" height="54.1675" rx="3.38547" fill="#91B5FD"/>
<path d="M113.316 696.45H111.718L110.864 693.891H107.33L106.504 696.45H104.947L108.17 686.998H110.093L113.316 696.45ZM110.485 692.577L109.131 688.406H109.063L107.696 692.577H110.485ZM118.49 696.45H114.373V695.204H115.66V688.244H114.373V686.998H118.49V688.244H117.19V695.204H118.49V696.45ZM93.3995 717.45H91.8015L90.9484 714.891H87.414L86.5879 717.45H85.0306L88.2536 707.998H90.1765L93.3995 717.45ZM90.5692 713.577L89.215 709.406H89.1473L87.7796 713.577H90.5692ZM96.9896 717.613C95.6625 717.613 94.7958 717.112 94.1322 716.286L95.0802 715.419C95.5947 716.042 96.2312 716.421 97.0708 716.421C97.9239 716.421 98.3573 716.069 98.3573 715.473C98.3573 715.026 98.0864 714.688 97.3552 714.593L96.7052 714.512C95.2697 714.336 94.3895 713.713 94.3895 712.413C94.3895 711.045 95.4593 710.246 97.0031 710.246C98.276 710.246 98.9938 710.666 99.6302 711.37L98.7229 712.237C98.3573 711.803 97.7614 711.438 97.0031 711.438C96.1906 711.438 95.8114 711.79 95.8114 712.318C95.8114 712.86 96.15 713.103 96.8948 713.225L97.5448 713.306C99.0885 713.537 99.7792 714.214 99.7792 715.351C99.7792 716.705 98.6823 717.613 96.9896 717.613ZM103.602 717.613C102.275 717.613 101.408 717.112 100.744 716.286L101.692 715.419C102.207 716.042 102.843 716.421 103.683 716.421C104.536 716.421 104.97 716.069 104.97 715.473C104.97 715.026 104.699 714.688 103.967 714.593L103.317 714.512C101.882 714.336 101.002 713.713 101.002 712.413C101.002 711.045 102.072 710.246 103.615 710.246C104.888 710.246 105.606 710.666 106.242 711.37L105.335 712.237C104.97 711.803 104.374 711.438 103.615 711.438C102.803 711.438 102.424 711.79 102.424 712.318C102.424 712.86 102.762 713.103 103.507 713.225L104.157 713.306C105.701 713.537 106.391 714.214 106.391 715.351C106.391 716.705 105.295 717.613 103.602 717.613ZM108.804 709.149C108.194 709.149 107.924 708.824 107.924 708.377V708.147C107.924 707.7 108.194 707.375 108.804 707.375C109.413 707.375 109.67 707.7 109.67 708.147V708.377C109.67 708.824 109.413 709.149 108.804 709.149ZM108.059 717.45V710.408H109.535V717.45H108.059ZM113.877 717.613C112.55 717.613 111.683 717.112 111.02 716.286L111.968 715.419C112.482 716.042 113.119 716.421 113.958 716.421C114.812 716.421 115.245 716.069 115.245 715.473C115.245 715.026 114.974 714.688 114.243 714.593L113.593 714.512C112.157 714.336 111.277 713.713 111.277 712.413C111.277 711.045 112.347 710.246 113.891 710.246C115.164 710.246 115.881 710.666 116.518 711.37L115.611 712.237C115.245 711.803 114.649 711.438 113.891 711.438C113.078 711.438 112.699 711.79 112.699 712.318C112.699 712.86 113.038 713.103 113.782 713.225L114.432 713.306C115.976 713.537 116.667 714.214 116.667 715.351C116.667 716.705 115.57 717.613 113.877 717.613ZM121.478 717.45H120.192C119.176 717.45 118.635 716.881 118.635 715.92V711.614H117.538V710.408H118.133C118.621 710.408 118.784 710.205 118.784 709.718V708.485H120.111V710.408H121.587V711.614H120.111V716.245H121.478V717.45ZM129.173 717.45H128.347C127.575 717.45 127.169 716.963 127.074 716.272H127.007C126.736 717.152 125.977 717.613 124.948 717.613C123.499 717.613 122.673 716.787 122.673 715.514C122.673 714.119 123.716 713.401 125.679 713.401H126.952V712.805C126.952 711.952 126.492 711.451 125.503 711.451C124.677 711.451 124.176 711.857 123.824 712.413L122.944 711.614C123.404 710.828 124.231 710.246 125.598 710.246C127.413 710.246 128.428 711.14 128.428 712.711V716.245H129.173V717.45ZM125.368 716.489C126.275 716.489 126.952 716.055 126.952 715.365V714.349H125.707C124.677 714.349 124.176 714.688 124.176 715.297V715.541C124.176 716.164 124.637 716.489 125.368 716.489ZM132.096 717.45H130.62V710.408H132.096V711.573H132.164C132.462 710.815 133.057 710.246 134.141 710.246C135.576 710.246 136.429 711.248 136.429 712.981V717.45H134.953V713.171C134.953 712.074 134.534 711.519 133.626 711.519C132.854 711.519 132.096 711.912 132.096 712.738V717.45ZM141.712 717.45H140.425C139.41 717.45 138.868 716.881 138.868 715.92V711.614H137.771V710.408H138.367C138.854 710.408 139.017 710.205 139.017 709.718V708.485H140.344V710.408H141.82V711.614H140.344V716.245H141.712V717.45Z" fill="#1D2433" fill-opacity="0.65"/>
<g opacity="0.1">
<rect x="57.04" y="735.618" width="26.2374" height="3.38547" rx="1.69273" fill="black" fill-opacity="0.5"/>
</g>
<rect x="183.148" y="674.68" width="112.567" height="54.1675" rx="3.38547" fill="#63D9B2"/>
<path d="M239.079 696.45H237.481L236.628 693.891H233.094L232.268 696.45H230.71L233.933 686.998H235.856L239.079 696.45ZM236.249 692.577L234.895 688.406H234.827L233.459 692.577H236.249ZM244.254 696.45H240.137V695.204H241.423V688.244H240.137V686.998H244.254V688.244H242.954V695.204H244.254V696.45ZM229.736 717.45H228.138L227.285 714.891H223.751L222.925 717.45H221.367L224.59 707.998H226.513L229.736 717.45ZM226.906 713.577L225.552 709.406H225.484L224.116 713.577H226.906ZM237.267 718.114C237.267 719.576 236.224 720.321 233.692 720.321C231.39 720.321 230.496 719.698 230.496 718.628C230.496 717.856 230.956 717.437 231.701 717.274V717.125C231.187 716.963 230.902 716.57 230.902 716.042C230.902 715.311 231.471 714.958 232.148 714.796V714.742C231.322 714.349 230.862 713.604 230.862 712.656C230.862 711.221 231.877 710.246 233.665 710.246C234.139 710.246 234.572 710.314 234.938 710.463V710.273C234.938 709.65 235.236 709.271 235.859 709.271H236.942V710.463H235.506V710.747C236.143 711.167 236.495 711.844 236.495 712.656C236.495 714.078 235.466 715.04 233.678 715.04C233.34 715.04 233.015 714.999 232.757 714.931C232.405 715.053 232.08 715.283 232.08 715.636C232.08 716.015 232.446 716.164 233.069 716.164H234.802C236.536 716.164 237.267 716.895 237.267 718.114ZM235.886 718.276C235.886 717.789 235.561 717.477 234.599 717.477H232.216C231.891 717.667 231.728 717.951 231.728 718.29C231.728 718.859 232.148 719.251 233.245 719.251H234.166C235.317 719.251 235.886 718.926 235.886 718.276ZM233.678 713.97C234.545 713.97 235.046 713.577 235.046 712.778V712.507C235.046 711.708 234.545 711.316 233.678 711.316C232.812 711.316 232.311 711.708 232.311 712.507V712.778C232.311 713.577 232.812 713.97 233.678 713.97ZM241.048 717.613C239.044 717.613 237.812 716.177 237.812 713.929C237.812 711.681 239.044 710.246 241.048 710.246C243.12 710.246 244.177 711.803 244.177 713.753V714.308H239.342V714.539C239.342 715.622 240.006 716.394 241.197 716.394C242.064 716.394 242.646 715.988 243.053 715.338L243.919 716.191C243.391 717.044 242.362 717.613 241.048 717.613ZM241.048 711.397C240.033 711.397 239.342 712.155 239.342 713.239V713.333H242.619V713.198C242.619 712.115 242.023 711.397 241.048 711.397ZM247.287 717.45H245.811V710.408H247.287V711.573H247.354C247.652 710.815 248.248 710.246 249.332 710.246C250.767 710.246 251.62 711.248 251.62 712.981V717.45H250.144V713.171C250.144 712.074 249.724 711.519 248.817 711.519C248.045 711.519 247.287 711.912 247.287 712.738V717.45ZM256.902 717.45H255.616C254.6 717.45 254.059 716.881 254.059 715.92V711.614H252.962V710.408H253.558C254.045 710.408 254.208 710.205 254.208 709.718V708.485H255.535V710.408H257.011V711.614H255.535V716.245H256.902V717.45Z" fill="#1D2433" fill-opacity="0.65"/>
<g opacity="0.1">
<rect x="183.148" y="735.618" width="26.2374" height="3.38547" rx="1.69273" fill="black" fill-opacity="0.5"/>
</g>
</g>
</g>
<path d="M17.5491 160.643L17.6065 160.91L17.874 160.968L22.7405 162.013L17.874 163.058L17.6065 163.115L17.5491 163.383L16.504 168.249L15.459 163.383L15.4016 163.115L15.1341 163.058L10.2676 162.013L15.1341 160.968L15.4016 160.91L15.459 160.643L16.504 155.776L17.5491 160.643Z" fill="#8B55F7" stroke="#316FED" stroke-width="0.846367"/>
<path d="M345.973 165.581L346.03 165.849L346.298 165.906L351.164 166.951L346.298 167.996L346.03 168.054L345.973 168.321L344.928 173.188L343.883 168.321L343.825 168.054L343.558 167.996L338.691 166.951L343.558 165.906L343.825 165.849L343.883 165.581L344.928 160.715L345.973 165.581Z" fill="#8B55F7" stroke="#316FED" stroke-width="0.846367"/>
<path d="M345.973 335.739L346.03 336.006L346.298 336.063L351.164 337.109L346.298 338.154L346.03 338.211L345.973 338.478L344.928 343.345L343.883 338.478L343.825 338.211L343.558 338.154L338.691 337.109L343.558 336.063L343.825 336.006L343.883 335.739L344.928 330.872L345.973 335.739Z" fill="#8B55F7" stroke="#316FED" stroke-width="0.846367"/>
<path d="M9.2971 462.777L9.35454 463.044L9.62201 463.102L14.4885 464.147L9.62201 465.192L9.35454 465.249L9.2971 465.517L8.25208 470.383L7.20705 465.517L7.14962 465.249L6.88215 465.192L2.01563 464.147L6.88215 463.102L7.14962 463.044L7.20705 462.777L8.25208 457.91L9.2971 462.777Z" fill="#8B55F7" stroke="#316FED" stroke-width="0.846367"/>
<g filter="url(#filter2_d_776_96153)">
<rect x="74.6006" y="222.307" width="202.989" height="202.989" rx="13.5419" fill="white"/>
<rect x="75.447" y="223.153" width="201.296" height="201.296" rx="12.6955" stroke="#E1E6EF" stroke-width="1.69273"/>
<g clip-path="url(#clip1_776_96153)">
<path d="M218.522 359.729V366.256H133.712V281.416H218.522V359.729ZM211.998 359.729V340.08H205.47V359.729H211.998ZM211.998 333.553V314.047H192.347V333.553H211.998ZM211.998 307.52V300.994H192.347V307.52H211.998ZM211.998 294.47V287.943H192.347V294.47H211.998ZM198.949 359.729V340.08H192.347V359.729H198.949ZM185.823 353.202V340.071H179.376V346.637H172.929V353.202H185.823ZM185.823 333.553V314.047H179.376V333.553H185.823ZM185.823 300.952V287.943H172.855V294.401L172.816 294.514H166.33V307.52H179.376V300.955L185.823 300.952ZM172.855 346.532V340.08H166.33V346.532H172.855ZM172.855 333.553V314.047H166.33V333.553H172.855ZM159.806 359.729V340.08H140.236V359.729H159.806ZM159.806 333.553V314.047H153.282V333.553H159.806ZM159.806 307.52V294.514H159.752V287.949H153.282V307.526L159.806 307.52ZM146.761 333.553V314.047H140.236V333.553H146.761ZM146.761 307.52V287.943H140.236V307.52H146.761Z" fill="#1A1A1A"/>
<path d="M211.995 340.079H205.471V359.728H211.995V340.079Z" fill="#40A8F5"/>
<path d="M211.995 314.047H192.348V333.553H211.995V314.047Z" fill="#40A8F5"/>
<path d="M211.995 300.993H192.348V307.52H211.995V300.993Z" fill="#FF5353"/>
<path d="M211.995 287.942H192.348V294.469H211.995V287.942Z" fill="#FFDF3A"/>
<path d="M198.947 340.079H192.348V359.728H198.947V340.079Z" fill="#FFDF3A"/>
<path d="M185.826 340.079V353.201H172.93V346.639H179.376V340.079H185.826Z" fill="#FF5353"/>
<path d="M185.823 314.047H179.376V333.553H185.823V314.047Z" fill="#FFDF3A"/>
<path d="M185.826 287.942V300.951H179.376H179.337V294.401H172.852V287.942H185.826Z" fill="#40A8F5"/>
<path d="M179.377 300.952V307.521H166.331V294.515H172.814V300.952H179.338H179.377Z" fill="#FFDF3A"/>
<path d="M179.337 294.401V300.952H172.812V294.515L172.851 294.401H179.337Z" fill="#1A1A1A"/>
<path d="M172.855 340.079H166.331V346.531H172.855V340.079Z" fill="#28F77E"/>
<path d="M172.855 314.047H166.331V333.553H172.855V314.047Z" fill="#FF5353"/>
<path d="M159.806 340.079V359.728H140.236V340.079H146.758H153.282H159.806Z" fill="#40A8F5"/>
<path d="M159.807 314.047H153.282V333.553H159.807V314.047Z" fill="#40A8F5"/>
<path d="M159.807 294.514V307.52H153.282V287.942H159.762V294.514H159.807Z" fill="#FFDF3A"/>
<path d="M146.761 314.047H140.236V333.553H146.761V314.047Z" fill="#FFDF3A"/>
<path d="M146.761 287.942H140.236V307.52H146.761V287.942Z" fill="#FF5353"/>
</g>
</g>
<rect x="65.2562" y="213.088" width="221.426" height="221.426" rx="15.4547" stroke="#316FED" stroke-width="1.86201"/>
<rect opacity="0.8" x="54.1813" y="202.016" width="243.569" height="243.568" rx="17.0001" stroke="#316FED" stroke-width="2.04821"/>
<rect opacity="0.4" x="42.0044" y="189.838" width="267.926" height="267.925" rx="18.7039" stroke="#316FED" stroke-width="2.25303"/>
<rect opacity="0.2" x="28.6083" y="176.442" width="294.718" height="294.718" rx="20.5742" stroke="#316FED" stroke-width="2.47833"/>
<path d="M176.378 476.399V547.11" stroke="#6194FA" stroke-width="3" stroke-linecap="round" stroke-linejoin="bevel"/>
<g filter="url(#filter3_d_776_96153)">
<rect x="125.891" y="5" width="111.72" height="30.4692" rx="3.38547" fill="url(#paint0_linear_776_96153)" shape-rendering="crispEdges"/>
<rect x="126.127" y="5.23614" width="111.248" height="29.9969" rx="3.14933" stroke="white" stroke-opacity="0.3" stroke-width="0.472281" shape-rendering="crispEdges"/>
<path d="M142.756 24.2754C145.112 24.2754 147.022 22.3556 147.022 19.9873C147.022 17.6191 145.112 15.6992 142.756 15.6992C140.399 15.6992 138.489 17.6191 138.489 19.9873C138.489 22.3556 140.399 24.2754 142.756 24.2754Z" fill="#FFD21E"/>
<path d="M147.022 19.9868C147.022 17.6185 145.112 15.6987 142.756 15.6987C140.399 15.6987 138.489 17.6185 138.489 19.9868C138.489 22.355 140.399 24.2749 142.756 24.2749C145.112 24.2749 147.022 22.355 147.022 19.9868ZM137.998 19.9868C137.998 17.3459 140.128 15.2051 142.756 15.2051C145.383 15.2051 147.513 17.3459 147.513 19.9868C147.513 22.6276 145.383 24.7685 142.756 24.7685C140.128 24.7685 137.998 22.6276 137.998 19.9868Z" fill="#FF9D0B"/>
<path d="M144.142 18.8197C144.298 18.8752 144.36 19.1985 144.518 19.114C144.818 18.9541 144.931 18.5805 144.772 18.2796C144.613 17.9787 144.241 17.8645 143.942 18.0245C143.643 18.1845 143.529 18.5581 143.688 18.8589C143.763 19.0009 144.002 18.77 144.142 18.8197Z" fill="#3A3B45"/>
<path d="M141.249 18.8197C141.093 18.8752 141.031 19.1985 140.873 19.114C140.573 18.9541 140.46 18.5805 140.619 18.2796C140.778 17.9787 141.15 17.8645 141.449 18.0245C141.748 18.1845 141.862 18.5581 141.703 18.8589C141.628 19.0009 141.389 18.77 141.249 18.8197Z" fill="#3A3B45"/>
<path d="M142.724 21.781C143.931 21.781 144.32 20.6997 144.32 20.1444C144.32 19.8558 144.127 19.9466 143.818 20.1005C143.532 20.2426 143.147 20.4386 142.724 20.4386C141.843 20.4386 141.128 19.5891 141.128 20.1444C141.128 20.6997 141.517 21.781 142.724 21.781Z" fill="#3A3B45"/>
<path d="M145.64 19.4007C145.861 19.4007 146.039 19.2212 146.039 18.9997C146.039 18.7782 145.861 18.5986 145.64 18.5986C145.42 18.5986 145.241 18.7782 145.241 18.9997C145.241 19.2212 145.42 19.4007 145.64 19.4007Z" fill="#FF9D0B"/>
<path d="M139.931 19.4007C140.152 19.4007 140.33 19.2212 140.33 18.9997C140.33 18.7782 140.152 18.5986 139.931 18.5986C139.711 18.5986 139.532 18.7782 139.532 18.9997C139.532 19.2212 139.711 19.4007 139.931 19.4007Z" fill="#FF9D0B"/>
<path d="M139.11 20.7578C138.911 20.7578 138.734 20.8399 138.61 20.9887C138.533 21.0809 138.453 21.2294 138.447 21.4519C138.363 21.4279 138.283 21.4144 138.208 21.4144C138.018 21.4144 137.846 21.4877 137.725 21.6209C137.568 21.7918 137.499 22.0018 137.529 22.2119C137.544 22.312 137.577 22.4017 137.627 22.4848C137.522 22.57 137.445 22.6888 137.407 22.8315C137.378 22.9435 137.348 23.1766 137.504 23.4167C137.495 23.4324 137.485 23.4486 137.476 23.4653C137.382 23.6447 137.376 23.8475 137.459 24.0363C137.585 24.3224 137.898 24.5479 138.505 24.7899C138.883 24.9404 139.229 25.0367 139.232 25.0375C139.731 25.1677 140.183 25.2339 140.574 25.2339C141.293 25.2339 141.807 25.0126 142.103 24.5763C142.58 23.8736 142.512 23.231 141.895 22.6115C141.554 22.2687 141.327 21.7633 141.28 21.6523C141.184 21.3238 140.932 20.9587 140.514 20.9587H140.513C140.478 20.9587 140.443 20.9615 140.407 20.9671C140.224 20.9961 140.064 21.1022 139.949 21.2619C139.825 21.1074 139.705 20.9845 139.597 20.9151C139.433 20.8108 139.269 20.7578 139.11 20.7578ZM139.11 21.2514C139.173 21.2514 139.249 21.2782 139.334 21.332C139.596 21.4989 140.101 22.372 140.286 22.7116C140.348 22.8254 140.454 22.8735 140.549 22.8735C140.739 22.8735 140.886 22.6843 140.567 22.4439C140.086 22.0823 140.254 21.491 140.484 21.4546C140.494 21.453 140.504 21.4523 140.514 21.4523C140.722 21.4523 140.814 21.8139 140.814 21.8139C140.814 21.8139 141.084 22.495 141.548 22.9606C142.011 23.4263 142.035 23.8001 141.697 24.2981C141.467 24.6377 141.026 24.7403 140.574 24.7403C140.105 24.7403 139.624 24.6299 139.355 24.5597C139.342 24.5563 137.703 24.0912 137.911 23.6953C137.946 23.6288 138.003 23.6022 138.076 23.6022C138.368 23.6022 138.899 24.0392 139.128 24.0392C139.179 24.0392 139.215 24.0174 139.23 23.9641C139.327 23.613 137.749 23.4654 137.882 22.9569C137.906 22.8669 137.969 22.8304 138.059 22.8305C138.445 22.8305 139.311 23.5131 139.493 23.5131C139.507 23.5131 139.516 23.509 139.522 23.5004C139.613 23.3528 139.563 23.2497 138.922 22.8597C138.281 22.4695 137.83 22.2348 138.086 21.9547C138.116 21.9223 138.158 21.908 138.208 21.908C138.598 21.9081 139.517 22.7495 139.517 22.7495C139.517 22.7495 139.766 23.009 139.916 23.009C139.95 23.009 139.98 22.9953 140 22.9615C140.106 22.7811 139.011 21.9469 138.949 21.6027C138.907 21.3695 138.978 21.2514 139.11 21.2514Z" fill="#FF9D0B"/>
<path d="M141.697 24.2987C142.035 23.8006 142.011 23.4269 141.548 22.9612C141.084 22.4956 140.814 21.8144 140.814 21.8144C140.814 21.8144 140.713 21.4188 140.484 21.4552C140.254 21.4916 140.086 22.0828 140.566 22.4445C141.047 22.806 140.471 23.0517 140.286 22.7121C140.101 22.3725 139.595 21.4995 139.333 21.3325C139.072 21.1656 138.887 21.2591 138.949 21.6033C139.011 21.9474 140.106 22.7816 139.999 22.9621C139.893 23.1426 139.517 22.75 139.517 22.75C139.517 22.75 138.342 21.6751 138.086 21.9552C137.83 22.2353 138.28 22.47 138.922 22.8602C139.563 23.2503 139.613 23.3533 139.522 23.5009C139.431 23.6485 138.015 22.4489 137.882 22.9575C137.749 23.466 139.327 23.6136 139.229 23.9646C139.132 24.3158 138.118 23.3001 137.911 23.6959C137.703 24.0917 139.341 24.5568 139.355 24.5603C139.884 24.6982 141.228 24.9906 141.697 24.2987Z" fill="#FFD21E"/>
<path d="M146.462 20.7578C146.66 20.7578 146.838 20.8399 146.962 20.9887C147.039 21.0809 147.119 21.2294 147.125 21.4519C147.208 21.4279 147.289 21.4144 147.364 21.4144C147.554 21.4144 147.726 21.4877 147.847 21.6209C148.003 21.7918 148.073 22.0018 148.043 22.2119C148.028 22.312 147.995 22.4017 147.945 22.4848C148.05 22.57 148.127 22.6888 148.165 22.8315C148.194 22.9435 148.224 23.1766 148.067 23.4167C148.077 23.4324 148.087 23.4486 148.095 23.4653C148.189 23.6447 148.195 23.8475 148.112 24.0363C147.987 24.3224 147.674 24.5479 147.067 24.7899C146.689 24.9404 146.343 25.0367 146.34 25.0375C145.841 25.1677 145.389 25.2339 144.998 25.2339C144.279 25.2339 143.765 25.0126 143.469 24.5763C142.992 23.8736 143.06 23.231 143.677 22.6115C144.018 22.2687 144.245 21.7633 144.292 21.6523C144.388 21.3238 144.64 20.9587 145.058 20.9587H145.058C145.094 20.9587 145.129 20.9615 145.164 20.9671C145.348 20.9961 145.508 21.1022 145.623 21.2619C145.746 21.1074 145.866 20.9845 145.975 20.9151C146.139 20.8108 146.303 20.7578 146.462 20.7578ZM146.462 21.2514C146.399 21.2514 146.323 21.2782 146.238 21.332C145.976 21.4989 145.471 22.372 145.286 22.7116C145.224 22.8254 145.118 22.8735 145.023 22.8735C144.833 22.8735 144.685 22.6843 145.005 22.4439C145.486 22.0823 145.318 21.491 145.088 21.4546C145.078 21.453 145.068 21.4523 145.058 21.4523C144.85 21.4523 144.758 21.8139 144.758 21.8139C144.758 21.8139 144.488 22.495 144.024 22.9606C143.561 23.4263 143.537 23.8001 143.874 24.2981C144.105 24.6377 144.546 24.7403 144.998 24.7403C145.467 24.7403 145.948 24.6299 146.217 24.5597C146.23 24.5563 147.868 24.0912 147.661 23.6953C147.626 23.6288 147.569 23.6022 147.496 23.6022C147.204 23.6022 146.673 24.0392 146.444 24.0392C146.393 24.0392 146.357 24.0174 146.342 23.9641C146.245 23.613 147.823 23.4654 147.69 22.9569C147.666 22.8669 147.603 22.8304 147.513 22.8305C147.127 22.8305 146.261 23.5131 146.079 23.5131C146.065 23.5131 146.055 23.509 146.05 23.5004C145.959 23.3528 146.009 23.2497 146.65 22.8597C147.291 22.4695 147.741 22.2348 147.485 21.9547C147.456 21.9223 147.414 21.908 147.364 21.908C146.974 21.9081 146.054 22.7495 146.054 22.7495C146.054 22.7495 145.806 23.009 145.656 23.009C145.622 23.009 145.592 22.9953 145.572 22.9615C145.466 22.7811 146.561 21.9469 146.623 21.6027C146.665 21.3695 146.593 21.2514 146.462 21.2514Z" fill="#FF9D0B"/>
<path d="M143.874 24.2987C143.536 23.8006 143.56 23.4269 144.023 22.9612C144.487 22.4956 144.757 21.8144 144.757 21.8144C144.757 21.8144 144.858 21.4188 145.087 21.4552C145.317 21.4916 145.485 22.0828 145.005 22.4445C144.524 22.806 145.1 23.0517 145.285 22.7121C145.47 22.3725 145.976 21.4995 146.238 21.3325C146.499 21.1656 146.684 21.2591 146.622 21.6033C146.56 21.9474 145.465 22.7816 145.572 22.9621C145.678 23.1426 146.054 22.75 146.054 22.75C146.054 22.75 147.229 21.6751 147.485 21.9552C147.741 22.2353 147.291 22.47 146.649 22.8602C146.008 23.2503 145.958 23.3533 146.049 23.5009C146.14 23.6485 147.556 22.4489 147.689 22.9575C147.822 23.466 146.244 23.6136 146.342 23.9646C146.439 24.3158 147.453 23.3001 147.66 23.6959C147.868 24.0917 146.23 24.5568 146.216 24.5603C145.687 24.6982 144.343 24.9906 143.874 24.2987Z" fill="#FFD21E"/>
<mask id="mask0_776_96153" style="mask-type:alpha" maskUnits="userSpaceOnUse" x="141" y="19" width="4" height="3">
<path d="M142.725 21.781C143.932 21.781 144.321 20.6997 144.321 20.1444C144.321 19.8558 144.128 19.9466 143.819 20.1005C143.533 20.2426 143.148 20.4386 142.725 20.4386C141.843 20.4386 141.129 19.5891 141.129 20.1444C141.129 20.6997 141.518 21.781 142.725 21.781Z" fill="white"/>
</mask>
<g mask="url(#mask0_776_96153)">
<path d="M142.755 23.0411C143.343 23.0411 143.82 22.562 143.82 21.9709C143.82 21.5105 143.531 21.118 143.125 20.967C143.11 20.9614 143.095 20.9562 143.08 20.9513C142.977 20.9184 142.868 21.2719 142.755 21.2719C142.649 21.2719 142.547 20.9162 142.451 20.945C142.011 21.0766 141.69 21.4861 141.69 21.9709C141.69 22.562 142.167 23.0411 142.755 23.0411Z" fill="#F94040"/>
</g>
<path d="M162.59 24.7344V21.0193H158.44V24.7344H157.453V16.5283H158.44V20.1493H162.59V16.5283H163.578V24.7344H162.59ZM169.41 24.7344V23.7468H169.363C169.127 24.3229 168.669 24.8755 167.658 24.8755C166.412 24.8755 165.612 24.029 165.612 22.5594V18.668H166.553V22.3948C166.553 23.4764 167.035 24.029 167.94 24.029C168.681 24.029 169.41 23.6645 169.41 22.8651V18.668H170.35V24.7344H169.41ZM177.467 25.4045C177.467 26.6507 176.479 27.2268 174.528 27.2268C172.635 27.2268 171.859 26.686 171.859 25.7337C171.859 25.0753 172.224 24.7226 172.823 24.558V24.4287C172.482 24.2641 172.282 23.9937 172.282 23.5822C172.282 22.9709 172.717 22.677 173.329 22.5241V22.4771C172.612 22.1362 172.188 21.466 172.188 20.6196C172.188 19.3851 173.094 18.5269 174.469 18.5269C174.904 18.5269 175.292 18.6092 175.621 18.762V18.6562C175.621 18.186 175.821 17.845 176.327 17.845H177.232V18.668H176.08V19.056C176.515 19.4322 176.773 19.973 176.773 20.6196C176.773 21.854 175.868 22.7122 174.481 22.7122C174.281 22.7122 174.069 22.6887 173.893 22.6535C173.493 22.7593 173.094 22.9591 173.094 23.3353C173.094 23.6998 173.47 23.7938 174.022 23.7938H175.316C176.82 23.7938 177.467 24.4052 177.467 25.4045ZM176.585 25.475C176.585 24.993 176.268 24.6756 175.327 24.6756H173.305C172.917 24.8519 172.741 25.1223 172.741 25.4986C172.741 26.0276 173.105 26.4626 174.058 26.4626H174.928C175.974 26.4626 176.585 26.1334 176.585 25.475ZM174.481 21.9598C175.28 21.9598 175.786 21.5836 175.786 20.7842V20.455C175.786 19.6555 175.28 19.2793 174.481 19.2793C173.681 19.2793 173.176 19.6555 173.176 20.455V20.7842C173.176 21.5836 173.681 21.9598 174.481 21.9598ZM183.701 25.4045C183.701 26.6507 182.714 27.2268 180.762 27.2268C178.869 27.2268 178.093 26.686 178.093 25.7337C178.093 25.0753 178.458 24.7226 179.057 24.558V24.4287C178.716 24.2641 178.517 23.9937 178.517 23.5822C178.517 22.9709 178.952 22.677 179.563 22.5241V22.4771C178.846 22.1362 178.423 21.466 178.423 20.6196C178.423 19.3851 179.328 18.5269 180.703 18.5269C181.138 18.5269 181.526 18.6092 181.855 18.762V18.6562C181.855 18.186 182.055 17.845 182.561 17.845H183.466V18.668H182.314V19.056C182.749 19.4322 183.008 19.973 183.008 20.6196C183.008 21.854 182.102 22.7122 180.715 22.7122C180.515 22.7122 180.304 22.6887 180.127 22.6535C179.727 22.7593 179.328 22.9591 179.328 23.3353C179.328 23.6998 179.704 23.7938 180.257 23.7938H181.55C183.055 23.7938 183.701 24.4052 183.701 25.4045ZM182.819 25.475C182.819 24.993 182.502 24.6756 181.562 24.6756H179.539C179.151 24.8519 178.975 25.1223 178.975 25.4986C178.975 26.0276 179.34 26.4626 180.292 26.4626H181.162C182.208 26.4626 182.819 26.1334 182.819 25.475ZM180.715 21.9598C181.514 21.9598 182.02 21.5836 182.02 20.7842V20.455C182.02 19.6555 181.514 19.2793 180.715 19.2793C179.916 19.2793 179.41 19.6555 179.41 20.455V20.7842C179.41 21.5836 179.916 21.9598 180.715 21.9598ZM185.269 17.2454C184.869 17.2454 184.693 17.0338 184.693 16.7164V16.5636C184.693 16.2461 184.869 16.0345 185.269 16.0345C185.668 16.0345 185.845 16.2461 185.845 16.5636V16.7164C185.845 17.0338 185.668 17.2454 185.269 17.2454ZM184.798 24.7344V18.668H185.739V24.7344H184.798ZM188.678 24.7344H187.737V18.668H188.678V19.6555H188.725C189.019 18.9737 189.536 18.5269 190.441 18.5269C191.688 18.5269 192.475 19.3734 192.475 20.843V24.7344H191.535V21.0075C191.535 19.9259 191.065 19.3734 190.159 19.3734C189.407 19.3734 188.678 19.7496 188.678 20.5255V24.7344ZM199.534 25.4045C199.534 26.6507 198.546 27.2268 196.594 27.2268C194.702 27.2268 193.926 26.686 193.926 25.7337C193.926 25.0753 194.29 24.7226 194.89 24.558V24.4287C194.549 24.2641 194.349 23.9937 194.349 23.5822C194.349 22.9709 194.784 22.677 195.395 22.5241V22.4771C194.678 22.1362 194.255 21.466 194.255 20.6196C194.255 19.3851 195.16 18.5269 196.536 18.5269C196.971 18.5269 197.359 18.6092 197.688 18.762V18.6562C197.688 18.186 197.888 17.845 198.393 17.845H199.298V18.668H198.146V19.056C198.581 19.4322 198.84 19.973 198.84 20.6196C198.84 21.854 197.935 22.7122 196.547 22.7122C196.347 22.7122 196.136 22.6887 195.96 22.6535C195.56 22.7593 195.16 22.9591 195.16 23.3353C195.16 23.6998 195.536 23.7938 196.089 23.7938H197.382C198.887 23.7938 199.534 24.4052 199.534 25.4045ZM198.652 25.475C198.652 24.993 198.334 24.6756 197.394 24.6756H195.372C194.984 24.8519 194.807 25.1223 194.807 25.4986C194.807 26.0276 195.172 26.4626 196.124 26.4626H196.994C198.04 26.4626 198.652 26.1334 198.652 25.475ZM196.547 21.9598C197.347 21.9598 197.852 21.5836 197.852 20.7842V20.455C197.852 19.6555 197.347 19.2793 196.547 19.2793C195.748 19.2793 195.242 19.6555 195.242 20.455V20.7842C195.242 21.5836 195.748 21.9598 196.547 21.9598ZM204.491 24.7344H203.503V16.5283H208.394V17.3983H204.491V20.1493H208.053V21.0193H204.491V24.7344ZM214.443 24.7344H213.914C213.221 24.7344 212.938 24.3111 212.868 23.7468H212.809C212.55 24.4875 211.904 24.8755 211.057 24.8755C209.776 24.8755 209.023 24.1701 209.023 23.0414C209.023 21.901 209.846 21.2662 211.61 21.2662H212.809V20.6666C212.809 19.8084 212.339 19.3381 211.375 19.3381C210.646 19.3381 210.164 19.6908 209.835 20.2434L209.27 19.7143C209.6 19.0677 210.328 18.5269 211.422 18.5269C212.88 18.5269 213.75 19.2911 213.75 20.5726V23.9114H214.443V24.7344ZM211.21 24.076C212.139 24.076 212.809 23.594 212.809 22.9709V21.9716H211.563C210.493 21.9716 210.011 22.3008 210.011 22.8886V23.1355C210.011 23.7351 210.481 24.076 211.21 24.076ZM218.043 24.8755C216.338 24.8755 215.339 23.641 215.339 21.7012C215.339 19.7613 216.338 18.5269 218.043 18.5269C219.242 18.5269 219.959 19.1147 220.312 19.9495L219.524 20.3492C219.301 19.7261 218.784 19.3616 218.043 19.3616C216.926 19.3616 216.35 20.1258 216.35 21.1839V22.2185C216.35 23.2766 216.926 24.0407 218.043 24.0407C218.807 24.0407 219.36 23.6763 219.689 22.9826L220.371 23.4412C219.983 24.3111 219.195 24.8755 218.043 24.8755ZM223.91 24.8755C222.264 24.8755 221.183 23.6293 221.183 21.7012C221.183 19.7731 222.264 18.5269 223.91 18.5269C225.533 18.5269 226.532 19.7731 226.532 21.4896V21.9363H222.17V22.2185C222.17 23.2648 222.84 24.0525 223.969 24.0525C224.733 24.0525 225.321 23.6763 225.638 23.0062L226.309 23.4882C225.921 24.3111 225.051 24.8755 223.91 24.8755ZM223.91 19.3146C222.887 19.3146 222.17 20.0905 222.17 21.1486V21.2309H225.521V21.1016C225.521 20.0317 224.874 19.3146 223.91 19.3146Z" fill="#171717"/>
</g>
<g filter="url(#filter4_d_776_96153)">
<rect x="16.5039" y="5" width="70.2485" height="30.4692" rx="3.38547" fill="url(#paint1_linear_776_96153)" shape-rendering="crispEdges"/>
<rect x="16.74" y="5.23614" width="69.7762" height="29.9969" rx="3.14933" stroke="white" stroke-opacity="0.3" stroke-width="0.472281" shape-rendering="crispEdges"/>
<g clip-path="url(#clip2_776_96153)">
<mask id="mask1_776_96153" style="mask-type:luminance" maskUnits="userSpaceOnUse" x="27" y="14" width="13" height="12">
<path d="M39.7887 14.7314H27.1133V25.5941H39.7887V14.7314Z" fill="white"/>
</mask>
<g mask="url(#mask1_776_96153)">
<path d="M39.2901 23.1069C38.6148 23.4601 35.1105 24.9015 34.3556 25.2971C33.6008 25.6927 33.1965 25.6814 32.6061 25.3992C32.0157 25.117 28.2993 23.6055 27.6258 23.2835C27.2864 23.1242 27.1133 22.9883 27.1133 22.861V21.5789C27.1133 21.5789 31.9681 20.5254 32.7515 20.2414C33.535 19.9575 33.8059 19.9506 34.4716 20.1947C35.1374 20.4388 39.1282 21.1591 39.787 21.398V22.6619C39.787 22.7935 39.6355 22.9216 39.2901 23.106V23.1069Z" fill="#A32422"/>
<path d="M39.29 21.8303C38.6147 22.1818 35.1104 23.6231 34.3555 24.0118C33.6007 24.4005 33.1964 24.3971 32.606 24.1157C32.0156 23.8344 28.2992 22.3229 27.6257 22.0034C26.9522 21.684 26.9392 21.4606 27.5997 21.2027C28.2602 20.9447 31.968 19.4929 32.7514 19.2072C33.5349 18.9216 33.8058 18.9155 34.4715 19.1605C35.1373 19.4055 38.6269 20.7915 39.2822 21.033C39.9375 21.2745 39.9678 21.4728 39.29 21.8234V21.8303Z" fill="#DC382C"/>
<path d="M39.2901 21.0188C38.6148 21.3712 35.1105 22.8117 34.3556 23.2004C33.6008 23.5891 33.2 23.5856 32.6095 23.3025C32.0191 23.0195 28.2993 21.5166 27.6258 21.1954C27.2864 21.0344 27.1133 20.8994 27.1133 20.7713V19.4935C27.1133 19.4935 31.9681 18.4365 32.7515 18.1525C33.535 17.8686 33.8059 17.8608 34.4716 18.1084C35.1374 18.356 39.1282 19.0693 39.787 19.31V20.5739C39.787 20.7055 39.6355 20.837 39.2901 21.0188Z" fill="#A32422"/>
<path d="M39.2896 19.7364C38.6144 20.0896 35.1101 21.5301 34.3552 21.9188C33.6003 22.3075 33.196 22.3049 32.6056 22.0227C32.0152 21.7405 28.2988 20.2351 27.6253 19.913C26.9518 19.591 26.9397 19.372 27.5994 19.114C28.259 18.856 31.9676 17.4008 32.7511 17.1229C33.5345 16.845 33.8055 16.8277 34.4712 17.0692C35.1369 17.3108 38.6265 18.7089 39.2819 18.9435C39.9372 19.1781 39.9675 19.3841 39.2896 19.7338V19.7364Z" fill="#DC382C"/>
<path d="M39.2901 18.8522C38.6148 19.2054 35.1105 20.6467 34.3556 21.0346C33.6008 21.4224 33.2 21.4198 32.6096 21.1384C32.0191 20.8571 28.2993 19.3499 27.6258 19.0288C27.2864 18.8695 27.1133 18.7336 27.1133 18.6054V17.3233C27.1133 17.3233 31.9681 16.2698 32.7515 15.9867C33.535 15.7036 33.8059 15.695 34.4717 15.9391C35.1374 16.1832 39.1265 16.9035 39.7853 17.1441V18.4081C39.787 18.5414 39.6355 18.6712 39.2901 18.8522Z" fill="#A32422"/>
<path d="M39.29 17.5713C38.6147 17.9176 35.1104 19.3677 34.3555 19.7529C33.6007 20.1381 33.1964 20.1373 32.606 19.8568C32.0156 19.5763 28.2992 18.0674 27.6257 17.7471C26.9522 17.4268 26.9392 17.2043 27.5997 16.9463C28.2602 16.6883 31.968 15.234 32.7514 14.9518C33.5349 14.6696 33.8058 14.6609 34.4715 14.905C35.1373 15.1491 38.6269 16.5368 39.2822 16.7775C39.9375 17.0182 39.9678 17.2181 39.29 17.5687V17.5713Z" fill="#DC382C"/>
</g>
<path d="M33.6494 15.7513L34.4857 15.4769L34.2589 16.0188L35.1098 16.3374L34.013 16.4517L33.7663 17.0438L33.3698 16.3833L32.1016 16.269L33.0486 15.9279L32.7638 15.4033L33.6494 15.7513Z" fill="white"/>
<path d="M33.7023 19.2082L31.6523 18.3573L34.5888 17.9062L33.7023 19.2082Z" fill="white"/>
<path d="M30.8594 16.666C31.7251 16.666 32.4289 16.9387 32.4289 17.272C32.4289 17.6053 31.7234 17.878 30.8594 17.878C29.9955 17.878 29.2891 17.6053 29.2891 17.272C29.2891 16.9387 29.9929 16.666 30.8594 16.666Z" fill="white"/>
<path d="M36.4092 16.499L38.1466 17.1855L36.4109 17.872L36.4092 16.499Z" fill="#741113"/>
<path d="M36.4089 16.499L36.4106 17.872L36.2219 17.9456L34.4854 17.2591L36.4089 16.499Z" fill="#AC2724"/>
</g>
<path d="M49.0536 21.2074V24.7344H48.066V16.5283H51.3343C52.7686 16.5283 53.6269 17.363 53.6269 18.8561C53.6269 20.0553 53.0508 20.8665 51.981 21.1134L53.862 24.7344H52.7451L50.9699 21.2074H49.0536ZM49.0536 20.3609H51.3343C52.1103 20.3609 52.5688 19.9377 52.5688 19.1853V18.5739C52.5688 17.8215 52.1103 17.3983 51.3343 17.3983H49.0536V20.3609ZM57.6006 24.8755C55.9547 24.8755 54.8731 23.6293 54.8731 21.7012C54.8731 19.7731 55.9547 18.5269 57.6006 18.5269C59.223 18.5269 60.2223 19.7731 60.2223 21.4896V21.9363H55.8606V22.2185C55.8606 23.2648 56.5307 24.0525 57.6594 24.0525C58.4236 24.0525 59.0114 23.6763 59.3288 23.0062L59.9989 23.4882C59.611 24.3111 58.741 24.8755 57.6006 24.8755ZM57.6006 19.3146C56.5778 19.3146 55.8606 20.0905 55.8606 21.1486V21.2309H59.2112V21.1016C59.2112 20.0317 58.5646 19.3146 57.6006 19.3146ZM65.6518 24.7344V23.7468H65.6048C65.2403 24.4992 64.6643 24.8755 63.8296 24.8755C62.313 24.8755 61.3607 23.641 61.3607 21.7012C61.3607 19.7613 62.313 18.5269 63.8296 18.5269C64.6643 18.5269 65.2874 18.8914 65.6048 19.6555H65.6518V16.0345H66.5923V24.7344H65.6518ZM64.0882 24.029C64.9464 24.029 65.6518 23.5822 65.6518 22.7945V20.5373C65.6518 19.8672 64.9464 19.3734 64.0882 19.3734C63.0301 19.3734 62.3717 20.1023 62.3717 21.1839V22.2185C62.3717 23.3001 63.0301 24.029 64.0882 24.029ZM69.0621 17.2454C68.6624 17.2454 68.4861 17.0338 68.4861 16.7164V16.5636C68.4861 16.2461 68.6624 16.0345 69.0621 16.0345C69.4619 16.0345 69.6382 16.2461 69.6382 16.5636V16.7164C69.6382 17.0338 69.4619 17.2454 69.0621 17.2454ZM68.5919 24.7344V18.668H69.5324V24.7344H68.5919ZM73.3533 24.8755C72.2364 24.8755 71.4958 24.4052 70.9549 23.688L71.6251 23.1472C72.0953 23.7351 72.6597 24.076 73.4238 24.076C74.2233 24.076 74.6935 23.7116 74.6935 23.0885C74.6935 22.6182 74.4349 22.2537 73.6354 22.1362L73.1534 22.0656C72.0366 21.901 71.2018 21.4425 71.2018 20.3139C71.2018 19.1147 72.1306 18.5269 73.365 18.5269C74.3408 18.5269 74.9875 18.8914 75.4812 19.5027L74.8581 20.067C74.5877 19.6908 74.0704 19.3264 73.2945 19.3264C72.5186 19.3264 72.1071 19.6908 72.1071 20.2669C72.1071 20.8547 72.5186 21.0898 73.271 21.2074L73.7413 21.2779C75.0815 21.4778 75.5988 22.0656 75.5988 22.9826C75.5988 24.1583 74.7406 24.8755 73.3533 24.8755Z" fill="#171717"/>
</g>
<g filter="url(#filter5_d_776_96153)">
<rect x="276.749" y="5" width="81.2512" height="30.4692" rx="3.38547" fill="url(#paint2_linear_776_96153)" shape-rendering="crispEdges"/>
<rect x="276.985" y="5.23614" width="80.7789" height="29.9969" rx="3.14933" stroke="white" stroke-opacity="0.3" stroke-width="0.472281" shape-rendering="crispEdges"/>
<path d="M292.978 14.4844C291.727 14.4844 290.615 15.2901 290.228 16.4793C289.83 16.5612 289.454 16.7269 289.126 16.9654C288.797 17.2038 288.523 17.5095 288.322 17.8621C287.694 18.9467 287.838 20.3102 288.678 21.2398C288.419 22.0184 288.508 22.8705 288.922 23.5756C289.546 24.664 290.801 25.2218 292.029 24.9623C292.298 25.2657 292.628 25.5083 292.998 25.674C293.368 25.8396 293.769 25.9245 294.175 25.9229C295.426 25.9229 296.538 25.1172 296.925 23.928C297.731 23.7614 298.424 23.2578 298.827 22.5452C299.459 21.4606 299.315 20.0971 298.475 19.1675V19.1637C298.603 18.7788 298.647 18.371 298.605 17.9675C298.563 17.564 298.436 17.1742 298.231 16.824C297.607 15.7395 296.352 15.1815 295.128 15.4411C294.858 15.1384 294.526 14.8966 294.156 14.7317C293.785 14.5668 293.384 14.4825 292.978 14.4844ZM292.978 15.2282L292.974 15.232C293.478 15.232 293.962 15.4063 294.349 15.7279C294.334 15.7356 294.303 15.755 294.28 15.7666L292.002 17.0797C291.886 17.1456 291.816 17.2696 291.816 17.4052V20.4885L290.836 19.923L290.836 17.3742C290.836 16.8056 291.061 16.2602 291.463 15.8578C291.864 15.4554 292.409 15.2291 292.978 15.2282ZM295.722 16.1258C296.099 16.1251 296.47 16.224 296.797 16.4126C297.124 16.6012 297.395 16.8728 297.584 17.1998C297.832 17.6337 297.924 18.1411 297.839 18.6331C297.824 18.6214 297.793 18.606 297.773 18.5943L295.496 17.2773C295.438 17.2449 295.374 17.2278 295.308 17.2278C295.242 17.2278 295.177 17.2449 295.12 17.2773L292.451 18.8189V17.6878L294.655 16.4134C294.979 16.2255 295.347 16.1264 295.722 16.1258ZM290.088 17.2966L290.088 20.0042C290.088 20.1398 290.158 20.2599 290.274 20.3297L292.939 21.8674L291.955 22.4368L289.755 21.1662C289.263 20.8813 288.905 20.4129 288.758 19.8638C288.611 19.3148 288.689 18.73 288.973 18.2378C289.223 17.8034 289.618 17.4705 290.088 17.2966ZM295.194 17.9667L297.398 19.2372C298.424 19.8299 298.773 21.1392 298.18 22.1657L298.184 22.1695C297.932 22.6034 297.537 22.9365 297.068 23.107V20.3992C297.068 20.2636 296.999 20.1397 296.882 20.0739L294.213 18.5322L295.194 17.9667ZM293.574 18.9003L294.698 19.551V20.8486L293.574 21.4993L292.451 20.8486V19.551L293.574 18.9003ZM295.341 19.923L296.321 20.4885V23.0334C296.321 24.2187 295.36 25.1794 294.179 25.1794V25.1755C293.679 25.1755 293.191 25.0012 292.807 24.6798C292.823 24.6721 292.858 24.6526 292.877 24.6409L295.155 23.3278C295.271 23.2619 295.345 23.138 295.341 23.0024L295.341 19.923ZM294.702 21.5885V22.7195L292.498 23.9901C291.471 24.5789 290.162 24.2303 289.569 23.2076H289.573C289.321 22.7776 289.232 22.2663 289.317 21.7744C289.333 21.7861 289.364 21.8014 289.383 21.8131L291.661 23.1302C291.718 23.1626 291.783 23.1796 291.849 23.1796C291.914 23.1796 291.979 23.1626 292.036 23.1302L294.702 21.5885Z" fill="#1D2433"/>
<path d="M311.38 24.8755C309.263 24.8755 307.9 23.3824 307.9 20.6313C307.9 17.8803 309.263 16.3872 311.38 16.3872C313.496 16.3872 314.86 17.8803 314.86 20.6313C314.86 23.3824 313.496 24.8755 311.38 24.8755ZM311.38 23.9937C312.802 23.9937 313.801 22.9356 313.801 21.3132V19.9495C313.801 18.327 312.802 17.269 311.38 17.269C309.957 17.269 308.958 18.327 308.958 19.9495V21.3132C308.958 22.9356 309.957 23.9937 311.38 23.9937ZM316.541 27.0857V18.668H317.481V19.6555H317.528C317.846 18.8914 318.469 18.5269 319.304 18.5269C320.82 18.5269 321.772 19.7613 321.772 21.7012C321.772 23.641 320.82 24.8755 319.304 24.8755C318.469 24.8755 317.893 24.4992 317.528 23.7468H317.481V27.0857H316.541ZM319.045 24.029C320.103 24.029 320.761 23.3001 320.761 22.2185V21.1839C320.761 20.1023 320.103 19.3734 319.045 19.3734C318.187 19.3734 317.481 19.8672 317.481 20.5373V22.7945C317.481 23.5822 318.187 24.029 319.045 24.029ZM325.641 24.8755C323.995 24.8755 322.914 23.6293 322.914 21.7012C322.914 19.7731 323.995 18.5269 325.641 18.5269C327.264 18.5269 328.263 19.7731 328.263 21.4896V21.9363H323.901V22.2185C323.901 23.2648 324.571 24.0525 325.7 24.0525C326.464 24.0525 327.052 23.6763 327.37 23.0062L328.04 23.4882C327.652 24.3111 326.782 24.8755 325.641 24.8755ZM325.641 19.3146C324.619 19.3146 323.901 20.0905 323.901 21.1486V21.2309H327.252V21.1016C327.252 20.0317 326.605 19.3146 325.641 19.3146ZM330.753 24.7344H329.813V18.668H330.753V19.6555H330.8C331.094 18.9737 331.612 18.5269 332.517 18.5269C333.763 18.5269 334.551 19.3734 334.551 20.843V24.7344H333.61V21.0075C333.61 19.9259 333.14 19.3734 332.235 19.3734C331.482 19.3734 330.753 19.7496 330.753 20.5255V24.7344ZM342.761 24.7344H341.727L340.904 22.3125H337.588L336.765 24.7344H335.766L338.635 16.5283H339.892L342.761 24.7344ZM340.657 21.4425L339.269 17.4453H339.211L337.823 21.4425H340.657ZM347.024 24.7344H343.732V23.9114H344.885V17.3513H343.732V16.5283H347.024V17.3513H345.872V23.9114H347.024V24.7344Z" fill="#171717"/>
</g>
<defs>
<filter id="filter0_d_776_96153" x="30.8024" y="550.263" width="291.15" height="225.134" filterUnits="userSpaceOnUse" color-interpolation-filters="sRGB">
<feFlood flood-opacity="0" result="BackgroundImageFix"/>
<feColorMatrix in="SourceAlpha" type="matrix" values="0 0 0 0 0 0 0 0 0 0 0 0 0 0 0 0 0 0 127 0" result="hardAlpha"/>
<feOffset dy="1.69273"/>
<feGaussianBlur stdDeviation="0.846367"/>
<feComposite in2="hardAlpha" operator="out"/>
<feColorMatrix type="matrix" values="0 0 0 0 0 0 0 0 0 0 0 0 0 0 0 0 0 0 0.04 0"/>
<feBlend mode="normal" in2="BackgroundImageFix" result="effect1_dropShadow_776_96153"/>
<feBlend mode="normal" in="SourceGraphic" in2="effect1_dropShadow_776_96153" result="shape"/>
</filter>
<filter id="filter1_bddd_776_96153" x="26.5707" y="574.808" width="299.613" height="203.128" filterUnits="userSpaceOnUse" color-interpolation-filters="sRGB">
<feFlood flood-opacity="0" result="BackgroundImageFix"/>
<feGaussianBlur in="BackgroundImageFix" stdDeviation="8.46367"/>
<feComposite in2="SourceAlpha" operator="in" result="effect1_backgroundBlur_776_96153"/>
<feColorMatrix in="SourceAlpha" type="matrix" values="0 0 0 0 0 0 0 0 0 0 0 0 0 0 0 0 0 0 127 0" result="hardAlpha"/>
<feOffset dy="4.23183"/>
<feGaussianBlur stdDeviation="2.11592"/>
<feComposite in2="hardAlpha" operator="out"/>
<feColorMatrix type="matrix" values="0 0 0 0 0 0 0 0 0 0 0 0 0 0 0 0 0 0 0.05 0"/>
<feBlend mode="normal" in2="effect1_backgroundBlur_776_96153" result="effect2_dropShadow_776_96153"/>
<feColorMatrix in="SourceAlpha" type="matrix" values="0 0 0 0 0 0 0 0 0 0 0 0 0 0 0 0 0 0 127 0" result="hardAlpha"/>
<feOffset dy="1.69273"/>
<feGaussianBlur stdDeviation="0.846367"/>
<feComposite in2="hardAlpha" operator="out"/>
<feColorMatrix type="matrix" values="0 0 0 0 0 0 0 0 0 0 0 0 0 0 0 0 0 0 0.03 0"/>
<feBlend mode="normal" in2="effect2_dropShadow_776_96153" result="effect3_dropShadow_776_96153"/>
<feColorMatrix in="SourceAlpha" type="matrix" values="0 0 0 0 0 0 0 0 0 0 0 0 0 0 0 0 0 0 127 0" result="hardAlpha"/>
<feOffset dy="0.846367"/>
<feComposite in2="hardAlpha" operator="out"/>
<feColorMatrix type="matrix" values="0 0 0 0 0 0 0 0 0 0 0 0 0 0 0 0 0 0 0.03 0"/>
<feBlend mode="normal" in2="effect3_dropShadow_776_96153" result="effect4_dropShadow_776_96153"/>
<feBlend mode="normal" in="SourceGraphic" in2="effect4_dropShadow_776_96153" result="shape"/>
</filter>
<filter id="filter2_d_776_96153" x="67.8297" y="217.228" width="216.531" height="216.531" filterUnits="userSpaceOnUse" color-interpolation-filters="sRGB">
<feFlood flood-opacity="0" result="BackgroundImageFix"/>
<feColorMatrix in="SourceAlpha" type="matrix" values="0 0 0 0 0 0 0 0 0 0 0 0 0 0 0 0 0 0 127 0" result="hardAlpha"/>
<feOffset dy="1.69273"/>
<feGaussianBlur stdDeviation="3.38547"/>
<feColorMatrix type="matrix" values="0 0 0 0 0 0 0 0 0 0 0 0 0 0 0 0 0 0 0.12 0"/>
<feBlend mode="normal" in2="BackgroundImageFix" result="effect1_dropShadow_776_96153"/>
<feBlend mode="normal" in="SourceGraphic" in2="effect1_dropShadow_776_96153" result="shape"/>
</filter>
<filter id="filter3_d_776_96153" x="119.966" y="0.22649" width="123.57" height="42.3179" filterUnits="userSpaceOnUse" color-interpolation-filters="sRGB">
<feFlood flood-opacity="0" result="BackgroundImageFix"/>
<feColorMatrix in="SourceAlpha" type="matrix" values="0 0 0 0 0 0 0 0 0 0 0 0 0 0 0 0 0 0 127 0" result="hardAlpha"/>
<feOffset dy="1.15106"/>
<feGaussianBlur stdDeviation="2.96228"/>
<feComposite in2="hardAlpha" operator="out"/>
<feColorMatrix type="matrix" values="0 0 0 0 0 0 0 0 0 0 0 0 0 0 0 0 0 0 0.05 0"/>
<feBlend mode="normal" in2="BackgroundImageFix" result="effect1_dropShadow_776_96153"/>
<feBlend mode="normal" in="SourceGraphic" in2="effect1_dropShadow_776_96153" result="shape"/>
</filter>
<filter id="filter4_d_776_96153" x="10.5793" y="0.22649" width="82.0972" height="42.3179" filterUnits="userSpaceOnUse" color-interpolation-filters="sRGB">
<feFlood flood-opacity="0" result="BackgroundImageFix"/>
<feColorMatrix in="SourceAlpha" type="matrix" values="0 0 0 0 0 0 0 0 0 0 0 0 0 0 0 0 0 0 127 0" result="hardAlpha"/>
<feOffset dy="1.15106"/>
<feGaussianBlur stdDeviation="2.96228"/>
<feComposite in2="hardAlpha" operator="out"/>
<feColorMatrix type="matrix" values="0 0 0 0 0 0 0 0 0 0 0 0 0 0 0 0 0 0 0.05 0"/>
<feBlend mode="normal" in2="BackgroundImageFix" result="effect1_dropShadow_776_96153"/>
<feBlend mode="normal" in="SourceGraphic" in2="effect1_dropShadow_776_96153" result="shape"/>
</filter>
<filter id="filter5_d_776_96153" x="270.824" y="0.22649" width="93.1001" height="42.3179" filterUnits="userSpaceOnUse" color-interpolation-filters="sRGB">
<feFlood flood-opacity="0" result="BackgroundImageFix"/>
<feColorMatrix in="SourceAlpha" type="matrix" values="0 0 0 0 0 0 0 0 0 0 0 0 0 0 0 0 0 0 127 0" result="hardAlpha"/>
<feOffset dy="1.15106"/>
<feGaussianBlur stdDeviation="2.96228"/>
<feComposite in2="hardAlpha" operator="out"/>
<feColorMatrix type="matrix" values="0 0 0 0 0 0 0 0 0 0 0 0 0 0 0 0 0 0 0.05 0"/>
<feBlend mode="normal" in2="BackgroundImageFix" result="effect1_dropShadow_776_96153"/>
<feBlend mode="normal" in="SourceGraphic" in2="effect1_dropShadow_776_96153" result="shape"/>
</filter>
<linearGradient id="paint0_linear_776_96153" x1="106.748" y1="0.761421" x2="126.766" y2="69.3613" gradientUnits="userSpaceOnUse">
<stop stop-color="white" stop-opacity="0.4"/>
<stop offset="1" stop-color="white" stop-opacity="0"/>
</linearGradient>
<linearGradient id="paint1_linear_776_96153" x1="4.46735" y1="0.761421" x2="32.892" y2="62.0115" gradientUnits="userSpaceOnUse">
<stop stop-color="white" stop-opacity="0.4"/>
<stop offset="1" stop-color="white" stop-opacity="0"/>
</linearGradient>
<linearGradient id="paint2_linear_776_96153" x1="262.827" y1="0.761421" x2="288.554" y2="64.8803" gradientUnits="userSpaceOnUse">
<stop stop-color="white" stop-opacity="0.4"/>
<stop offset="1" stop-color="white" stop-opacity="0"/>
</linearGradient>
<clipPath id="clip0_776_96153">
<rect x="57.04" y="605.277" width="238.675" height="42.3183" rx="3.38547" fill="white"/>
</clipPath>
<clipPath id="clip1_776_96153">
<rect width="84.807" height="84.807" fill="white" transform="translate(133.712 281.416)"/>
</clipPath>
<clipPath id="clip2_776_96153">
<rect width="12.6391" height="10.9077" fill="white" transform="translate(27.1113 14.7324)"/>
</clipPath>
</defs>
</svg>
