<svg width="960" height="1192" viewBox="0 0 960 1192" fill="none" xmlns="http://www.w3.org/2000/svg">
<mask id="mask0_1_117" style="mask-type:alpha" maskUnits="userSpaceOnUse" x="-288" y="-159" width="1440" height="1439">
<rect x="-287.19" y="102.449" width="1206.07" height="1206.07" rx="31.4081" transform="rotate(-12.5 -287.19 102.449)" fill="url(#paint0_radial_1_117)"/>
</mask>
<g mask="url(#mask0_1_117)">
<rect x="343.098" y="503.989" width="149.188" height="149.188" rx="30.6229" transform="rotate(-12.5 343.098 503.989)" stroke="#EAECF0" stroke-width="1.5704"/>
<rect x="253.192" y="446.712" width="299.947" height="299.947" rx="30.6229" transform="rotate(-12.5 253.192 446.712)" stroke="#EAECF0" stroke-width="1.5704"/>
<rect x="163.283" y="389.435" width="450.706" height="450.706" rx="30.6229" transform="rotate(-12.5 163.283 389.435)" stroke="#EAECF0" stroke-width="1.5704"/>
<rect x="73.375" y="332.156" width="601.465" height="601.465" rx="30.6229" transform="rotate(-12.5 73.375 332.156)" stroke="#EAECF0" stroke-width="1.5704"/>
<rect x="-16.5303" y="274.88" width="752.224" height="752.224" rx="30.6229" transform="rotate(-12.5 -16.5303 274.88)" stroke="#EAECF0" stroke-width="1.5704"/>
<rect x="-106.439" y="217.602" width="902.982" height="902.982" rx="30.6229" transform="rotate(-12.5 -106.439 217.602)" stroke="#EAECF0" stroke-width="1.5704"/>
<rect x="-196.348" y="160.324" width="1053.74" height="1053.74" rx="30.6229" transform="rotate(-12.5 -196.348 160.324)" stroke="#EAECF0" stroke-width="1.5704"/>
<rect x="-286.254" y="103.046" width="1204.5" height="1204.5" rx="30.6229" transform="rotate(-12.5 -286.254 103.046)" stroke="#EAECF0" stroke-width="1.5704"/>
</g>
<g filter="url(#filter0_f_1_117)">
<circle cx="-304.137" cy="67.9999" r="237.221" transform="rotate(-75 -304.137 67.9999)" fill="#91B5FD"/>
</g>
<defs>
<filter id="filter0_f_1_117" x="-769.788" y="-397.651" width="931.302" height="931.301" filterUnits="userSpaceOnUse" color-interpolation-filters="sRGB">
<feFlood flood-opacity="0" result="BackgroundImageFix"/>
<feBlend mode="normal" in="SourceGraphic" in2="BackgroundImageFix" result="shape"/>
<feGaussianBlur stdDeviation="114.186" result="effect1_foregroundBlur_1_117"/>
</filter>
<radialGradient id="paint0_radial_1_117" cx="0" cy="0" r="1" gradientUnits="userSpaceOnUse" gradientTransform="translate(315.845 705.484) rotate(90) scale(603.035 603.035)">
<stop/>
<stop offset="1" stop-opacity="0"/>
</radialGradient>
</defs>
</svg>
