<svg width="1068" height="463" viewBox="0 0 1068 463" fill="none" xmlns="http://www.w3.org/2000/svg">
<g filter="url(#filter0_bdddi_477_95165)">
<g clip-path="url(#clip0_477_95165)">
<path d="M73.0386 185.961C73.0386 181.4 76.7361 177.702 81.2971 177.702H309.602C314.163 177.702 317.86 181.4 317.86 185.961V394.278C317.86 398.839 314.163 402.536 309.602 402.536H81.2971C76.7361 402.536 73.0386 398.839 73.0386 394.278V185.961Z" fill="white" fill-opacity="0.1" shape-rendering="crispEdges"/>
<mask id="path-3-inside-1_477_95165" fill="white">
<path d="M73.0386 177.702H317.86V223.816H73.0386V177.702Z"/>
</mask>
<path d="M73.0386 177.702H317.86V223.816H73.0386V177.702Z" fill="white" fill-opacity="0.6"/>
<path d="M317.86 223H73.0386V224.633H317.86V223Z" fill="white" fill-opacity="0.2" mask="url(#path-3-inside-1_477_95165)"/>
<path d="M86.8269 205.76V204.559H88.0673V197.847H86.8269V196.646H90.7963V197.847H89.5428V204.559H90.7963V205.76H86.8269ZM92.5461 205.76V198.97H93.9694V200.093H94.0347C94.1826 199.727 94.4046 199.423 94.7006 199.179C95.0052 198.935 95.4187 198.813 95.941 198.813C96.6374 198.813 97.1771 199.044 97.5601 199.505C97.9518 199.958 98.1477 200.607 98.1477 201.451V205.76H96.7244V201.634C96.7244 200.572 96.2979 200.041 95.4448 200.041C95.262 200.041 95.0792 200.067 94.8964 200.119C94.7223 200.163 94.5656 200.232 94.4264 200.328C94.2871 200.424 94.1739 200.546 94.0869 200.694C94.0085 200.842 93.9694 201.016 93.9694 201.216V205.76H92.5461ZM100.12 198.97H101.544V200.093H101.609C101.757 199.684 101.996 199.37 102.327 199.153C102.666 198.927 103.063 198.813 103.515 198.813C104.377 198.813 105.043 199.127 105.513 199.753C105.983 200.372 106.218 201.242 106.218 202.365C106.218 203.488 105.983 204.363 105.513 204.989C105.043 205.607 104.377 205.916 103.515 205.916C103.063 205.916 102.666 205.803 102.327 205.577C101.996 205.351 101.757 205.037 101.609 204.637H101.544V208.371H100.12V198.97ZM103.084 204.689C103.58 204.689 103.977 204.532 104.272 204.219C104.568 203.897 104.716 203.475 104.716 202.952V201.777C104.716 201.255 104.568 200.837 104.272 200.524C103.977 200.202 103.58 200.041 103.084 200.041C102.649 200.041 102.283 200.15 101.987 200.367C101.692 200.576 101.544 200.855 101.544 201.203V203.527C101.544 203.875 101.692 204.158 101.987 204.376C102.283 204.585 102.649 204.689 103.084 204.689ZM111.96 204.637H111.908C111.847 204.802 111.765 204.963 111.66 205.12C111.564 205.277 111.438 205.416 111.282 205.538C111.134 205.651 110.951 205.742 110.733 205.812C110.524 205.882 110.28 205.916 110.002 205.916C109.297 205.916 108.748 205.69 108.357 205.237C107.974 204.785 107.782 204.136 107.782 203.292V198.97H109.205V203.109C109.205 204.162 109.641 204.689 110.511 204.689C110.694 204.689 110.872 204.667 111.046 204.624C111.221 204.572 111.373 204.498 111.503 204.402C111.643 204.306 111.752 204.184 111.83 204.036C111.917 203.888 111.96 203.714 111.96 203.514V198.97H113.384V205.76H111.96V204.637ZM117.302 205.76C116.806 205.76 116.431 205.634 116.179 205.381C115.927 205.12 115.8 204.754 115.8 204.284V200.132H114.743V198.97H115.317C115.552 198.97 115.713 198.918 115.8 198.813C115.896 198.709 115.944 198.539 115.944 198.304V197.116H117.224V198.97H118.647V200.132H117.224V204.598H118.542V205.76H117.302Z" fill="black"/>
<rect width="244.822" height="178.72" transform="translate(73.0386 223.816)" fill="white" fill-opacity="0.1"/>
<g filter="url(#filter1_bddd_477_95165)">
<path d="M86.0957 253.195C86.0957 245.501 86.0957 241.654 88.4859 239.264C90.8761 236.874 94.7231 236.874 102.417 236.874H288.481C296.175 236.874 300.022 236.874 302.413 239.264C304.803 241.654 304.803 245.501 304.803 253.195V373.158C304.803 380.852 304.803 384.699 302.413 387.089C300.022 389.479 296.175 389.479 288.481 389.479H102.417C94.7231 389.479 90.8761 389.479 88.4859 387.089C86.0957 384.699 86.0957 380.852 86.0957 373.158V253.195Z" fill="white" fill-opacity="0.6" shape-rendering="crispEdges"/>
<path d="M102.417 237.282H288.481C292.34 237.282 295.193 237.283 297.382 237.577C299.559 237.87 301.018 238.446 302.124 239.553C303.231 240.659 303.807 242.118 304.1 244.295C304.394 246.484 304.395 249.337 304.395 253.195V373.158C304.395 377.017 304.394 379.869 304.1 382.058C303.807 384.235 303.231 385.694 302.124 386.801C301.018 387.907 299.559 388.484 297.382 388.776C295.193 389.071 292.34 389.071 288.481 389.071H102.417C98.5586 389.071 95.7058 389.071 93.517 388.776C91.34 388.484 89.8811 387.907 88.7744 386.801C87.6678 385.694 87.0916 384.235 86.7989 382.058C86.5046 379.869 86.5037 377.017 86.5037 373.158V253.195C86.5037 249.337 86.5046 246.484 86.7989 244.295C87.0916 242.118 87.6678 240.659 88.7744 239.553C89.8811 238.446 91.34 237.87 93.517 237.577C95.7058 237.283 98.5586 237.282 102.417 237.282Z" stroke="white" stroke-opacity="0.5" stroke-width="0.816072" shape-rendering="crispEdges"/>
<g opacity="0.2">
<rect x="112.21" y="262.989" width="63.6536" height="4.89643" rx="2.44822" fill="black" fill-opacity="0.5"/>
</g>
<g opacity="0.6">
<rect x="112.21" y="287.471" width="98.7447" height="6.52857" rx="3.26429" fill="black" fill-opacity="0.5"/>
</g>
<rect x="112.21" y="313.585" width="166.479" height="0.816072" rx="0.408036" fill="black" fill-opacity="0.1"/>
<g opacity="0.2">
<rect x="112.21" y="333.987" width="166.479" height="4.89643" rx="2.44822" fill="black" fill-opacity="0.5"/>
</g>
<g opacity="0.2">
<rect x="112.21" y="358.469" width="145.261" height="4.89643" rx="2.44822" fill="black" fill-opacity="0.5"/>
</g>
<g filter="url(#filter2_bddd_477_95165)">
<rect x="262.874" y="253.195" width="26.1143" height="26.1143" rx="13.0571" fill="#007AFF" shape-rendering="crispEdges"/>
<rect x="263.282" y="253.603" width="25.2982" height="25.2982" rx="12.6491" stroke="white" stroke-opacity="0.5" stroke-width="0.816072" shape-rendering="crispEdges"/>
<g opacity="0.6">
<rect x="269.403" y="263.803" width="13.0571" height="4.89643" rx="2.44822" fill="black" fill-opacity="0.5"/>
</g>
</g>
</g>
</g>
<path d="M81.2971 178.11H309.602C313.937 178.11 317.452 181.625 317.452 185.961V394.278C317.452 398.613 313.937 402.128 309.602 402.128H81.2971C76.9614 402.128 73.4466 398.613 73.4466 394.278V185.961C73.4466 181.625 76.9614 178.11 81.2971 178.11Z" stroke="white" stroke-opacity="0.2" stroke-width="0.816072" shape-rendering="crispEdges"/>
</g>
<g filter="url(#filter3_bdddi_477_95165)">
<g clip-path="url(#clip1_477_95165)">
<path d="M411.3 185.961C411.3 181.4 414.998 177.702 419.559 177.702H647.863C652.424 177.702 656.122 181.4 656.122 185.961V404.887C656.122 409.448 652.424 413.145 647.863 413.145H419.559C414.998 413.145 411.3 409.448 411.3 404.887V185.961Z" fill="white" fill-opacity="0.1" shape-rendering="crispEdges"/>
<mask id="path-18-inside-2_477_95165" fill="white">
<path d="M411.3 177.702H656.122V223.816H411.3V177.702Z"/>
</mask>
<path d="M411.3 177.702H656.122V223.816H411.3V177.702Z" fill="white" fill-opacity="0.6"/>
<path d="M656.122 223H411.3V224.633H656.122V223Z" fill="white" fill-opacity="0.2" mask="url(#path-18-inside-2_477_95165)"/>
<path d="M425.48 205.76V196.646H431.173V197.952H426.956V200.485H430.703V201.79H426.956V205.76H425.48ZM433.541 197.756C433.245 197.756 433.027 197.686 432.888 197.547C432.757 197.408 432.692 197.229 432.692 197.011V196.79C432.692 196.572 432.757 196.393 432.888 196.254C433.027 196.115 433.245 196.045 433.541 196.045C433.837 196.045 434.05 196.115 434.18 196.254C434.311 196.393 434.376 196.572 434.376 196.79V197.011C434.376 197.229 434.311 197.408 434.18 197.547C434.05 197.686 433.837 197.756 433.541 197.756ZM432.823 198.97H434.246V205.76H432.823V198.97ZM436.278 205.76V198.97H437.701V200.093H437.767C437.915 199.727 438.137 199.423 438.433 199.179C438.737 198.935 439.151 198.813 439.673 198.813C440.369 198.813 440.909 199.044 441.292 199.505C441.684 199.958 441.88 200.607 441.88 201.451V205.76H440.456V201.634C440.456 200.572 440.03 200.041 439.177 200.041C438.994 200.041 438.811 200.067 438.628 200.119C438.454 200.163 438.298 200.232 438.158 200.328C438.019 200.424 437.906 200.546 437.819 200.694C437.74 200.842 437.701 201.016 437.701 201.216V205.76H436.278ZM446.516 205.916C446.028 205.916 445.593 205.834 445.21 205.668C444.827 205.503 444.501 205.268 444.231 204.963C443.961 204.65 443.752 204.276 443.604 203.84C443.465 203.396 443.395 202.905 443.395 202.365C443.395 201.825 443.465 201.338 443.604 200.903C443.752 200.459 443.961 200.084 444.231 199.78C444.501 199.466 444.827 199.227 445.21 199.061C445.593 198.896 446.028 198.813 446.516 198.813C447.012 198.813 447.447 198.9 447.822 199.075C448.205 199.249 448.522 199.492 448.775 199.806C449.027 200.11 449.214 200.467 449.336 200.876C449.467 201.286 449.532 201.725 449.532 202.195V202.731H444.871V202.952C444.871 203.475 445.023 203.906 445.328 204.245C445.641 204.576 446.085 204.741 446.66 204.741C447.077 204.741 447.43 204.65 447.717 204.467C448.004 204.284 448.248 204.036 448.448 203.723L449.284 204.545C449.032 204.963 448.666 205.298 448.187 205.551C447.708 205.795 447.151 205.916 446.516 205.916ZM446.516 199.923C446.272 199.923 446.046 199.967 445.837 200.054C445.637 200.141 445.463 200.263 445.315 200.419C445.175 200.576 445.067 200.763 444.988 200.981C444.91 201.198 444.871 201.438 444.871 201.699V201.79H448.031V201.66C448.031 201.138 447.896 200.72 447.626 200.406C447.356 200.084 446.986 199.923 446.516 199.923ZM451.026 202.509V201.059H454.643V202.509H451.026ZM458.356 205.76C457.86 205.76 457.486 205.634 457.233 205.381C456.981 205.12 456.855 204.754 456.855 204.284V200.132H455.797V198.97H456.371C456.606 198.97 456.767 198.918 456.855 198.813C456.95 198.709 456.998 198.539 456.998 198.304V197.116H458.278V198.97H459.701V200.132H458.278V204.598H459.597V205.76H458.356ZM465.358 204.637H465.306C465.245 204.802 465.162 204.963 465.057 205.12C464.962 205.277 464.835 205.416 464.679 205.538C464.531 205.651 464.348 205.742 464.13 205.812C463.921 205.882 463.678 205.916 463.399 205.916C462.694 205.916 462.146 205.69 461.754 205.237C461.371 204.785 461.179 204.136 461.179 203.292V198.97H462.603V203.109C462.603 204.162 463.038 204.689 463.908 204.689C464.091 204.689 464.27 204.667 464.444 204.624C464.618 204.572 464.77 204.498 464.901 204.402C465.04 204.306 465.149 204.184 465.227 204.036C465.314 203.888 465.358 203.714 465.358 203.514V198.97H466.781V205.76H465.358V204.637ZM468.819 205.76V198.97H470.242V200.093H470.307C470.455 199.727 470.677 199.423 470.973 199.179C471.278 198.935 471.692 198.813 472.214 198.813C472.91 198.813 473.45 199.044 473.833 199.505C474.225 199.958 474.42 200.607 474.42 201.451V205.76H472.997V201.634C472.997 200.572 472.571 200.041 471.718 200.041C471.535 200.041 471.352 200.067 471.169 200.119C470.995 200.163 470.838 200.232 470.699 200.328C470.56 200.424 470.447 200.546 470.36 200.694C470.281 200.842 470.242 201.016 470.242 201.216V205.76H468.819ZM479.057 205.916C478.569 205.916 478.134 205.834 477.751 205.668C477.368 205.503 477.042 205.268 476.772 204.963C476.502 204.65 476.293 204.276 476.145 203.84C476.006 203.396 475.936 202.905 475.936 202.365C475.936 201.825 476.006 201.338 476.145 200.903C476.293 200.459 476.502 200.084 476.772 199.78C477.042 199.466 477.368 199.227 477.751 199.061C478.134 198.896 478.569 198.813 479.057 198.813C479.553 198.813 479.988 198.9 480.362 199.075C480.745 199.249 481.063 199.492 481.316 199.806C481.568 200.11 481.755 200.467 481.877 200.876C482.008 201.286 482.073 201.725 482.073 202.195V202.731H477.412V202.952C477.412 203.475 477.564 203.906 477.869 204.245C478.182 204.576 478.626 204.741 479.2 204.741C479.618 204.741 479.971 204.65 480.258 204.467C480.545 204.284 480.789 204.036 480.989 203.723L481.825 204.545C481.572 204.963 481.207 205.298 480.728 205.551C480.249 205.795 479.692 205.916 479.057 205.916ZM479.057 199.923C478.813 199.923 478.587 199.967 478.378 200.054C478.178 200.141 478.003 200.263 477.856 200.419C477.716 200.576 477.607 200.763 477.529 200.981C477.451 201.198 477.412 201.438 477.412 201.699V201.79H480.571V201.66C480.571 201.138 480.436 200.72 480.167 200.406C479.897 200.084 479.527 199.923 479.057 199.923ZM487.918 204.637H487.853C487.705 205.037 487.461 205.351 487.122 205.577C486.791 205.803 486.399 205.916 485.947 205.916C485.085 205.916 484.419 205.607 483.949 204.989C483.479 204.363 483.244 203.488 483.244 202.365C483.244 201.242 483.479 200.372 483.949 199.753C484.419 199.127 485.085 198.813 485.947 198.813C486.399 198.813 486.791 198.927 487.122 199.153C487.461 199.37 487.705 199.684 487.853 200.093H487.918V196.097H489.341V205.76H487.918V204.637ZM486.377 204.689C486.813 204.689 487.178 204.585 487.474 204.376C487.77 204.158 487.918 203.875 487.918 203.527V201.203C487.918 200.855 487.77 200.576 487.474 200.367C487.178 200.15 486.813 200.041 486.377 200.041C485.881 200.041 485.485 200.202 485.189 200.524C484.893 200.837 484.745 201.255 484.745 201.777V202.952C484.745 203.475 484.893 203.897 485.189 204.219C485.485 204.532 485.881 204.689 486.377 204.689ZM494.461 205.76V198.97H495.885V200.093H495.95C496.02 199.919 496.102 199.753 496.198 199.597C496.303 199.44 496.424 199.305 496.564 199.192C496.712 199.07 496.881 198.979 497.073 198.918C497.273 198.848 497.504 198.813 497.765 198.813C498.226 198.813 498.635 198.927 498.992 199.153C499.349 199.379 499.61 199.727 499.776 200.197H499.815C499.937 199.814 500.172 199.488 500.52 199.218C500.868 198.948 501.316 198.813 501.865 198.813C502.544 198.813 503.07 199.044 503.445 199.505C503.819 199.958 504.006 200.607 504.006 201.451V205.76H502.583V201.621C502.583 201.098 502.483 200.707 502.283 200.446C502.082 200.176 501.765 200.041 501.33 200.041C501.147 200.041 500.973 200.067 500.807 200.119C500.642 200.163 500.494 200.232 500.363 200.328C500.241 200.424 500.141 200.546 500.063 200.694C499.985 200.842 499.945 201.011 499.945 201.203V205.76H498.522V201.621C498.522 200.567 498.109 200.041 497.282 200.041C497.108 200.041 496.934 200.067 496.76 200.119C496.594 200.163 496.446 200.232 496.316 200.328C496.185 200.424 496.081 200.546 496.002 200.694C495.924 200.842 495.885 201.011 495.885 201.203V205.76H494.461ZM508.639 205.916C508.169 205.916 507.738 205.834 507.347 205.668C506.964 205.503 506.637 205.268 506.367 204.963C506.098 204.65 505.889 204.276 505.741 203.84C505.593 203.396 505.519 202.905 505.519 202.365C505.519 201.825 505.593 201.338 505.741 200.903C505.889 200.459 506.098 200.084 506.367 199.78C506.637 199.466 506.964 199.227 507.347 199.061C507.738 198.896 508.169 198.813 508.639 198.813C509.109 198.813 509.536 198.896 509.919 199.061C510.311 199.227 510.641 199.466 510.911 199.78C511.181 200.084 511.39 200.459 511.538 200.903C511.686 201.338 511.76 201.825 511.76 202.365C511.76 202.905 511.686 203.396 511.538 203.84C511.39 204.276 511.181 204.65 510.911 204.963C510.641 205.268 510.311 205.503 509.919 205.668C509.536 205.834 509.109 205.916 508.639 205.916ZM508.639 204.741C509.127 204.741 509.519 204.593 509.815 204.297C510.11 203.993 510.258 203.54 510.258 202.939V201.79C510.258 201.19 510.11 200.741 509.815 200.446C509.519 200.141 509.127 199.989 508.639 199.989C508.152 199.989 507.76 200.141 507.464 200.446C507.168 200.741 507.02 201.19 507.02 201.79V202.939C507.02 203.54 507.168 203.993 507.464 204.297C507.76 204.593 508.152 204.741 508.639 204.741ZM517.616 204.637H517.55C517.402 205.037 517.159 205.351 516.819 205.577C516.488 205.803 516.097 205.916 515.644 205.916C514.782 205.916 514.116 205.607 513.646 204.989C513.176 204.363 512.941 203.488 512.941 202.365C512.941 201.242 513.176 200.372 513.646 199.753C514.116 199.127 514.782 198.813 515.644 198.813C516.097 198.813 516.488 198.927 516.819 199.153C517.159 199.37 517.402 199.684 517.55 200.093H517.616V196.097H519.039V205.76H517.616V204.637ZM516.075 204.689C516.51 204.689 516.876 204.585 517.172 204.376C517.468 204.158 517.616 203.875 517.616 203.527V201.203C517.616 200.855 517.468 200.576 517.172 200.367C516.876 200.15 516.51 200.041 516.075 200.041C515.579 200.041 515.183 200.202 514.887 200.524C514.591 200.837 514.443 201.255 514.443 201.777V202.952C514.443 203.475 514.591 203.897 514.887 204.219C515.183 204.532 515.579 204.689 516.075 204.689ZM523.737 205.916C523.249 205.916 522.814 205.834 522.431 205.668C522.048 205.503 521.722 205.268 521.452 204.963C521.182 204.65 520.973 204.276 520.825 203.84C520.686 203.396 520.616 202.905 520.616 202.365C520.616 201.825 520.686 201.338 520.825 200.903C520.973 200.459 521.182 200.084 521.452 199.78C521.722 199.466 522.048 199.227 522.431 199.061C522.814 198.896 523.249 198.813 523.737 198.813C524.233 198.813 524.668 198.9 525.042 199.075C525.425 199.249 525.743 199.492 525.996 199.806C526.248 200.11 526.435 200.467 526.557 200.876C526.688 201.286 526.753 201.725 526.753 202.195V202.731H522.092V202.952C522.092 203.475 522.244 203.906 522.549 204.245C522.862 204.576 523.306 204.741 523.88 204.741C524.298 204.741 524.651 204.65 524.938 204.467C525.225 204.284 525.469 204.036 525.669 203.723L526.505 204.545C526.252 204.963 525.887 205.298 525.408 205.551C524.929 205.795 524.372 205.916 523.737 205.916ZM523.737 199.923C523.493 199.923 523.267 199.967 523.058 200.054C522.858 200.141 522.683 200.263 522.535 200.419C522.396 200.576 522.287 200.763 522.209 200.981C522.131 201.198 522.092 201.438 522.092 201.699V201.79H525.251V201.66C525.251 201.138 525.116 200.72 524.847 200.406C524.577 200.084 524.207 199.923 523.737 199.923ZM529.778 205.76C529.29 205.76 528.925 205.638 528.681 205.394C528.446 205.142 528.328 204.794 528.328 204.35V196.097H529.752V204.598H530.692V205.76H529.778Z" fill="black"/>
<rect width="244.822" height="189.329" transform="translate(411.3 223.816)" fill="white" fill-opacity="0.1"/>
<g filter="url(#filter4_bddd_477_95165)">
<path d="M452.104 245.035C452.104 240.528 455.758 236.874 460.265 236.874H607.158C611.665 236.874 615.318 240.528 615.318 245.035V391.928C615.318 396.435 611.665 400.088 607.158 400.088H460.265C455.758 400.088 452.104 396.435 452.104 391.928V245.035Z" fill="#EFE7FE"/>
<path d="M460.265 237.282H607.158C611.439 237.282 614.91 240.753 614.91 245.035V391.928C614.91 396.209 611.439 399.68 607.158 399.68H460.265C455.983 399.68 452.512 396.209 452.512 391.928V245.035C452.512 240.753 455.983 237.282 460.265 237.282Z" stroke="white" stroke-opacity="0.2" stroke-width="0.816072"/>
<g opacity="0.2">
<rect x="516.981" y="249.932" width="33.4589" height="6.52857" rx="3.26429" fill="black" fill-opacity="0.5"/>
</g>
<g opacity="0.2">
<rect x="501.884" y="269.517" width="63.6536" height="3.26429" rx="1.63214" fill="black" fill-opacity="0.5"/>
</g>
<path d="M465.161 285.839H602.261" stroke="black" stroke-opacity="0.1" stroke-width="0.816072"/>
<path opacity="0.3" fill-rule="evenodd" clip-rule="evenodd" d="M492.907 350.308C492.907 348.054 494.734 346.228 496.988 346.228V346.228C499.241 346.228 501.068 348.054 501.068 350.308V376.422C501.068 378.676 499.241 380.503 496.988 380.503V380.503C494.734 380.503 492.907 378.676 492.907 376.422L492.907 350.308Z" fill="black"/>
<path opacity="0.3" fill-rule="evenodd" clip-rule="evenodd" d="M507.597 333.987C507.597 331.733 509.424 329.906 511.677 329.906V329.906C513.931 329.906 515.757 331.733 515.757 333.987V376.422C515.757 378.676 513.931 380.503 511.677 380.503V380.503C509.424 380.503 507.597 378.676 507.597 376.422V333.987Z" fill="black"/>
<path opacity="0.2" fill-rule="evenodd" clip-rule="evenodd" d="M522.286 302.976C522.286 300.722 524.113 298.896 526.366 298.896V298.896C528.62 298.896 530.447 300.722 530.447 302.976V376.422C530.447 378.676 528.62 380.503 526.366 380.503V380.503C524.113 380.503 522.286 378.676 522.286 376.422V302.976Z" fill="black"/>
<path opacity="0.2" fill-rule="evenodd" clip-rule="evenodd" d="M536.976 317.665C536.976 315.412 538.802 313.585 541.056 313.585V313.585C543.309 313.585 545.136 315.412 545.136 317.665V376.422C545.136 378.676 543.309 380.503 541.056 380.503V380.503C538.802 380.503 536.976 378.676 536.976 376.422V317.665Z" fill="black"/>
<path opacity="0.2" fill-rule="evenodd" clip-rule="evenodd" d="M551.665 309.504C551.665 307.251 553.491 305.424 555.745 305.424V305.424C557.998 305.424 559.825 307.251 559.825 309.504V376.422C559.825 378.676 557.998 380.502 555.745 380.502V380.502C553.491 380.502 551.665 378.676 551.665 376.422V309.504Z" fill="black"/>
<path opacity="0.3" fill-rule="evenodd" clip-rule="evenodd" d="M566.354 333.987C566.354 331.733 568.181 329.906 570.434 329.906V329.906C572.688 329.906 574.515 331.733 574.515 333.987V376.422C574.515 378.676 572.688 380.503 570.434 380.503V380.503C568.181 380.503 566.354 378.676 566.354 376.422L566.354 333.987Z" fill="black"/>
</g>
</g>
<path d="M419.559 178.11H647.863C652.199 178.11 655.714 181.625 655.714 185.961V404.887C655.714 409.222 652.199 412.737 647.863 412.737H419.559C415.223 412.737 411.708 409.222 411.708 404.887V185.961C411.708 181.625 415.223 178.11 419.559 178.11Z" stroke="white" stroke-opacity="0.2" stroke-width="0.816072" shape-rendering="crispEdges"/>
</g>
<g filter="url(#filter5_bdddi_477_95165)">
<g clip-path="url(#clip2_477_95165)">
<path d="M749.562 185.961C749.562 181.4 753.259 177.702 757.821 177.702H986.125C990.686 177.702 994.384 181.4 994.384 185.961V394.278C994.384 398.839 990.686 402.536 986.125 402.536H757.821C753.259 402.536 749.562 398.839 749.562 394.278V185.961Z" fill="white" fill-opacity="0.1" shape-rendering="crispEdges"/>
<mask id="path-34-inside-3_477_95165" fill="white">
<path d="M749.562 177.702H994.384V223.816H749.562V177.702Z"/>
</mask>
<path d="M749.562 177.702H994.384V223.816H749.562V177.702Z" fill="white" fill-opacity="0.6"/>
<path d="M994.384 223H749.562V224.633H994.384V223Z" fill="white" fill-opacity="0.2" mask="url(#path-34-inside-3_477_95165)"/>
<path d="M767.267 205.916C766.676 205.916 766.136 205.816 765.648 205.616C765.17 205.407 764.756 205.107 764.408 204.715C764.068 204.315 763.803 203.823 763.611 203.24C763.429 202.648 763.337 201.969 763.337 201.203C763.337 200.437 763.429 199.762 763.611 199.179C763.803 198.587 764.068 198.095 764.408 197.704C764.756 197.303 765.17 197.003 765.648 196.803C766.136 196.594 766.676 196.489 767.267 196.489C767.859 196.489 768.395 196.594 768.874 196.803C769.361 197.003 769.774 197.303 770.114 197.704C770.462 198.095 770.728 198.587 770.91 199.179C771.102 199.762 771.198 200.437 771.198 201.203C771.198 201.969 771.102 202.648 770.91 203.24C770.728 203.823 770.462 204.315 770.114 204.715C769.774 205.107 769.361 205.407 768.874 205.616C768.395 205.816 767.859 205.916 767.267 205.916ZM767.267 204.598C767.616 204.598 767.933 204.537 768.221 204.415C768.517 204.293 768.765 204.119 768.965 203.893C769.174 203.658 769.335 203.375 769.448 203.044C769.561 202.713 769.618 202.339 769.618 201.921V200.485C769.618 200.067 769.561 199.693 769.448 199.362C769.335 199.031 769.174 198.752 768.965 198.526C768.765 198.291 768.517 198.113 768.221 197.991C767.933 197.869 767.616 197.808 767.267 197.808C766.911 197.808 766.589 197.869 766.301 197.991C766.014 198.113 765.766 198.291 765.557 198.526C765.357 198.752 765.2 199.031 765.087 199.362C764.974 199.693 764.917 200.067 764.917 200.485V201.921C764.917 202.339 764.974 202.713 765.087 203.044C765.2 203.375 765.357 203.658 765.557 203.893C765.766 204.119 766.014 204.293 766.301 204.415C766.589 204.537 766.911 204.598 767.267 204.598ZM777.046 204.637H776.994C776.933 204.802 776.85 204.963 776.746 205.12C776.65 205.277 776.524 205.416 776.367 205.538C776.219 205.651 776.036 205.742 775.819 205.812C775.61 205.882 775.366 205.916 775.088 205.916C774.383 205.916 773.834 205.69 773.442 205.237C773.059 204.785 772.868 204.136 772.868 203.292V198.97H774.291V203.109C774.291 204.162 774.726 204.689 775.597 204.689C775.78 204.689 775.958 204.667 776.132 204.624C776.306 204.572 776.459 204.498 776.589 204.402C776.728 204.306 776.837 204.184 776.916 204.036C777.003 203.888 777.046 203.714 777.046 203.514V198.97H778.469V205.76H777.046V204.637ZM782.388 205.76C781.891 205.76 781.517 205.634 781.265 205.381C781.012 205.12 780.886 204.754 780.886 204.284V200.132H779.828V198.97H780.403C780.638 198.97 780.799 198.918 780.886 198.813C780.982 198.709 781.03 198.539 781.03 198.304V197.116H782.309V198.97H783.732V200.132H782.309V204.598H783.628V205.76H782.388ZM785.276 198.97H786.699V200.093H786.765C786.913 199.684 787.152 199.37 787.483 199.153C787.822 198.927 788.218 198.813 788.671 198.813C789.533 198.813 790.199 199.127 790.669 199.753C791.139 200.372 791.374 201.242 791.374 202.365C791.374 203.488 791.139 204.363 790.669 204.989C790.199 205.607 789.533 205.916 788.671 205.916C788.218 205.916 787.822 205.803 787.483 205.577C787.152 205.351 786.913 205.037 786.765 204.637H786.699V208.371H785.276V198.97ZM788.24 204.689C788.736 204.689 789.132 204.532 789.428 204.219C789.724 203.897 789.872 203.475 789.872 202.952V201.777C789.872 201.255 789.724 200.837 789.428 200.524C789.132 200.202 788.736 200.041 788.24 200.041C787.805 200.041 787.439 200.15 787.143 200.367C786.847 200.576 786.699 200.855 786.699 201.203V203.527C786.699 203.875 786.847 204.158 787.143 204.376C787.439 204.585 787.805 204.689 788.24 204.689ZM797.116 204.637H797.064C797.003 204.802 796.921 204.963 796.816 205.12C796.72 205.277 796.594 205.416 796.437 205.538C796.289 205.651 796.107 205.742 795.889 205.812C795.68 205.882 795.436 205.916 795.158 205.916C794.453 205.916 793.904 205.69 793.513 205.237C793.13 204.785 792.938 204.136 792.938 203.292V198.97H794.361V203.109C794.361 204.162 794.797 204.689 795.667 204.689C795.85 204.689 796.028 204.667 796.202 204.624C796.377 204.572 796.529 204.498 796.659 204.402C796.799 204.306 796.908 204.184 796.986 204.036C797.073 203.888 797.116 203.714 797.116 203.514V198.97H798.54V205.76H797.116V204.637ZM802.458 205.76C801.962 205.76 801.587 205.634 801.335 205.381C801.082 205.12 800.956 204.754 800.956 204.284V200.132H799.899V198.97H800.473C800.708 198.97 800.869 198.918 800.956 198.813C801.052 198.709 801.1 198.539 801.1 198.304V197.116H802.379V198.97H803.803V200.132H802.379V204.598H803.698V205.76H802.458Z" fill="black"/>
<rect width="244.822" height="178.72" transform="translate(749.562 223.816)" fill="white" fill-opacity="0.1"/>
<g filter="url(#filter6_bddd_477_95165)">
<path d="M762.619 253.195C762.619 245.501 762.619 241.654 765.009 239.264C767.4 236.874 771.247 236.874 778.941 236.874H965.005C972.699 236.874 976.546 236.874 978.936 239.264C981.326 241.654 981.326 245.501 981.326 253.195V373.158C981.326 380.852 981.326 384.699 978.936 387.089C976.546 389.479 972.699 389.479 965.005 389.479H778.941C771.247 389.479 767.4 389.479 765.009 387.089C762.619 384.699 762.619 380.852 762.619 373.158V253.195Z" fill="#EFE7FE" shape-rendering="crispEdges"/>
<path d="M778.941 237.282H965.005C968.863 237.282 971.716 237.283 973.905 237.577C976.082 237.87 977.541 238.446 978.648 239.553C979.754 240.659 980.33 242.118 980.623 244.295C980.917 246.484 980.918 249.337 980.918 253.195V373.158C980.918 377.017 980.917 379.869 980.623 382.058C980.33 384.235 979.754 385.694 978.648 386.801C977.541 387.907 976.082 388.484 973.905 388.776C971.716 389.071 968.863 389.071 965.005 389.071H778.941C775.082 389.071 772.229 389.071 770.04 388.776C767.863 388.484 766.405 387.907 765.298 386.801C764.191 385.694 763.615 384.235 763.322 382.058C763.028 379.869 763.027 377.017 763.027 373.158V253.195C763.027 249.337 763.028 246.484 763.322 244.295C763.615 242.118 764.191 240.659 765.298 239.553C766.405 238.446 767.863 237.87 770.04 237.577C772.229 237.283 775.082 237.282 778.941 237.282Z" stroke="white" stroke-opacity="0.5" stroke-width="0.816072" shape-rendering="crispEdges"/>
<g opacity="0.2">
<rect x="788.733" y="262.989" width="63.6536" height="4.89643" rx="2.44822" fill="black" fill-opacity="0.5"/>
</g>
<g opacity="0.6">
<rect x="788.733" y="287.471" width="98.7447" height="6.52857" rx="3.26429" fill="black" fill-opacity="0.5"/>
</g>
<rect x="788.733" y="313.585" width="166.479" height="0.816072" rx="0.408036" fill="black" fill-opacity="0.1"/>
<g opacity="0.2">
<rect x="788.733" y="333.987" width="166.479" height="4.89643" rx="2.44822" fill="black" fill-opacity="0.5"/>
</g>
<g opacity="0.2">
<rect x="788.733" y="358.469" width="145.261" height="4.89643" rx="2.44822" fill="black" fill-opacity="0.5"/>
</g>
<g filter="url(#filter7_bddd_477_95165)">
<rect x="939.397" y="253.195" width="26.1143" height="26.1143" rx="13.0571" fill="#8B55F7" shape-rendering="crispEdges"/>
<rect x="939.805" y="253.603" width="25.2982" height="25.2982" rx="12.6491" stroke="white" stroke-opacity="0.5" stroke-width="0.816072" shape-rendering="crispEdges"/>
<g opacity="0.6">
<rect x="945.926" y="263.803" width="13.0571" height="4.89643" rx="2.44822" fill="black" fill-opacity="0.5"/>
</g>
</g>
</g>
</g>
<path d="M757.821 178.11H986.125C990.461 178.11 993.975 181.625 993.975 185.961V394.278C993.975 398.613 990.461 402.128 986.125 402.128H757.821C753.485 402.128 749.97 398.613 749.97 394.278V185.961C749.97 181.625 753.485 178.11 757.821 178.11Z" stroke="white" stroke-opacity="0.2" stroke-width="0.816072" shape-rendering="crispEdges"/>
</g>
<line x1="324.562" y1="294.773" x2="400.161" y2="294.773" stroke="#BED3FE" stroke-width="2.44822" stroke-dasharray="4.9 4.9"/>
<path d="M329.369 295.216C329.369 298.169 326.914 300.605 323.832 300.605C320.749 300.605 318.295 298.169 318.295 295.216C318.295 292.264 320.749 289.827 323.832 289.827C326.914 289.827 329.369 292.264 329.369 295.216Z" fill="#FBFCFD" stroke="#316FED" stroke-width="2.2787"/>
<path d="M410.16 295.216C410.16 298.169 407.705 300.605 404.623 300.605C401.541 300.605 399.086 298.169 399.086 295.216C399.086 292.264 401.541 289.827 404.623 289.827C407.705 289.827 410.16 292.264 410.16 295.216Z" fill="#FBFCFD" stroke="#316FED" stroke-width="2.2787"/>
<line x1="663.528" y1="294.773" x2="739.126" y2="294.773" stroke="#BED3FE" stroke-width="2.44822" stroke-dasharray="4.9 4.9"/>
<path d="M668.335 295.216C668.335 298.169 665.88 300.605 662.798 300.605C659.715 300.605 657.26 298.169 657.26 295.216C657.26 292.264 659.715 289.827 662.798 289.827C665.88 289.827 668.335 292.264 668.335 295.216Z" fill="#FBFCFD" stroke="#316FED" stroke-width="2.2787"/>
<path d="M749.126 295.216C749.126 298.169 746.671 300.605 743.589 300.605C740.506 300.605 738.051 298.169 738.051 295.216C738.051 292.264 740.506 289.827 743.589 289.827C746.671 289.827 749.126 292.264 749.126 295.216Z" fill="#FBFCFD" stroke="#316FED" stroke-width="2.2787"/>
<line x1="530.117" y1="96.6172" x2="530.117" y2="172.215" stroke="#BED3FE" stroke-width="2.44822" stroke-dasharray="4.9 4.9"/>
<path d="M529.674 101.423C526.721 101.423 524.284 98.9686 524.284 95.8864C524.284 92.8042 526.721 90.3493 529.674 90.3493C532.626 90.3493 535.063 92.8042 535.063 95.8864C535.063 98.9686 532.626 101.423 529.674 101.423Z" fill="#FBFCFD" stroke="#316FED" stroke-width="2.2787"/>
<path d="M529.674 182.214C526.721 182.214 524.284 179.76 524.284 176.677C524.284 173.595 526.721 171.14 529.674 171.14C532.626 171.14 535.063 173.595 535.063 176.677C535.063 179.76 532.626 182.214 529.674 182.214Z" fill="#FBFCFD" stroke="#316FED" stroke-width="2.2787"/>
<g filter="url(#filter8_bddd_477_95165)">
<path d="M448.066 25.2974C448.066 20.7904 451.72 17.1367 456.227 17.1367H603.12C607.627 17.1367 611.281 20.7904 611.281 25.2974V108.951C611.281 113.458 607.627 117.112 603.12 117.112H456.227C451.72 117.112 448.066 113.458 448.066 108.951V25.2974Z" fill="white" fill-opacity="0.6" shape-rendering="crispEdges"/>
<path d="M448.474 25.2974C448.474 21.0157 451.945 17.5448 456.227 17.5448H603.12C607.402 17.5448 610.873 21.0157 610.873 25.2974V108.951C610.873 113.233 607.402 116.704 603.12 116.704H456.227C451.945 116.704 448.474 113.233 448.474 108.951V25.2974Z" stroke="white" stroke-opacity="0.2" stroke-width="0.816072" shape-rendering="crispEdges"/>
<mask id="path-58-inside-4_477_95165" fill="white">
<path d="M461.124 30.1943H598.224V50.1943H461.124V30.1943Z"/>
</mask>
<path d="M598.224 49.3783H461.124V51.0104H598.224V49.3783Z" fill="white" fill-opacity="0.2" mask="url(#path-58-inside-4_477_95165)"/>
<path d="M481.328 45.1943V36.0804H487.021V37.3862H482.804V39.9192H486.551V41.225H482.804V45.1943H481.328ZM489.389 37.1903C489.093 37.1903 488.875 37.1207 488.736 36.9814C488.605 36.8421 488.54 36.6637 488.54 36.446V36.2241C488.54 36.0065 488.605 35.828 488.736 35.6887C488.875 35.5495 489.093 35.4798 489.389 35.4798C489.685 35.4798 489.898 35.5495 490.029 35.6887C490.159 35.828 490.224 36.0065 490.224 36.2241V36.446C490.224 36.6637 490.159 36.8421 490.029 36.9814C489.898 37.1207 489.685 37.1903 489.389 37.1903ZM488.671 38.4046H490.094V45.1943H488.671V38.4046ZM492.126 45.1943V38.4046H493.549V39.5275H493.615C493.763 39.1619 493.985 38.8573 494.281 38.6135C494.585 38.3698 494.999 38.2479 495.521 38.2479C496.217 38.2479 496.757 38.4786 497.14 38.94C497.532 39.3926 497.728 40.0411 497.728 40.8855V45.1943H496.304V41.0683C496.304 40.0063 495.878 39.4753 495.025 39.4753C494.842 39.4753 494.659 39.5014 494.476 39.5536C494.302 39.5972 494.146 39.6668 494.006 39.7626C493.867 39.8583 493.754 39.9802 493.667 40.1282C493.589 40.2761 493.549 40.4502 493.549 40.6504V45.1943H492.126ZM502.364 45.351C501.877 45.351 501.441 45.2683 501.058 45.1029C500.675 44.9375 500.349 44.7025 500.079 44.3978C499.809 44.0845 499.6 43.7102 499.452 43.2749C499.313 42.831 499.243 42.3392 499.243 41.7995C499.243 41.2598 499.313 40.7723 499.452 40.3371C499.6 39.8931 499.809 39.5188 500.079 39.2142C500.349 38.9008 500.675 38.6614 501.058 38.496C501.441 38.3306 501.877 38.2479 502.364 38.2479C502.86 38.2479 503.295 38.335 503.67 38.5091C504.053 38.6832 504.37 38.9269 504.623 39.2403C504.875 39.5449 505.062 39.9018 505.184 40.311C505.315 40.7201 505.38 41.1597 505.38 41.6297V42.1651H500.719V42.387C500.719 42.9093 500.871 43.3402 501.176 43.6797C501.489 44.0105 501.933 44.1759 502.508 44.1759C502.925 44.1759 503.278 44.0845 503.565 43.9017C503.853 43.7189 504.096 43.4708 504.296 43.1574L505.132 43.98C504.88 44.3978 504.514 44.733 504.035 44.9854C503.557 45.2292 502.999 45.351 502.364 45.351ZM502.364 39.3578C502.12 39.3578 501.894 39.4013 501.685 39.4884C501.485 39.5754 501.311 39.6973 501.163 39.854C501.023 40.0106 500.915 40.1978 500.836 40.4154C500.758 40.633 500.719 40.8724 500.719 41.1336V41.225H503.879V41.0944C503.879 40.5721 503.744 40.1543 503.474 39.8409C503.204 39.5188 502.834 39.3578 502.364 39.3578ZM506.874 41.9431V40.4938H510.491V41.9431H506.874ZM514.204 45.1943C513.708 45.1943 513.334 45.0681 513.081 44.8157C512.829 44.5545 512.703 44.1889 512.703 43.7189V39.5667H511.645V38.4046H512.22C512.455 38.4046 512.616 38.3524 512.703 38.2479C512.798 38.1435 512.846 37.9737 512.846 37.7387V36.5505H514.126V38.4046H515.549V39.5667H514.126V44.0322H515.445V45.1943H514.204ZM521.206 44.0714H521.154C521.093 44.2368 521.01 44.3978 520.906 44.5545C520.81 44.7112 520.684 44.8505 520.527 44.9724C520.379 45.0855 520.196 45.1769 519.979 45.2466C519.77 45.3162 519.526 45.351 519.247 45.351C518.542 45.351 517.994 45.1247 517.602 44.672C517.219 44.2194 517.028 43.5709 517.028 42.7265V38.4046H518.451V42.5437C518.451 43.597 518.886 44.1236 519.757 44.1236C519.939 44.1236 520.118 44.1019 520.292 44.0584C520.466 44.0061 520.618 43.9321 520.749 43.8364C520.888 43.7406 520.997 43.6188 521.075 43.4708C521.162 43.3228 521.206 43.1487 521.206 42.9485V38.4046H522.629V45.1943H521.206V44.0714ZM524.667 45.1943V38.4046H526.09V39.5275H526.156C526.304 39.1619 526.526 38.8573 526.821 38.6135C527.126 38.3698 527.54 38.2479 528.062 38.2479C528.758 38.2479 529.298 38.4786 529.681 38.94C530.073 39.3926 530.269 40.0411 530.269 40.8855V45.1943H528.845V41.0683C528.845 40.0063 528.419 39.4753 527.566 39.4753C527.383 39.4753 527.2 39.5014 527.017 39.5536C526.843 39.5972 526.687 39.6668 526.547 39.7626C526.408 39.8583 526.295 39.9802 526.208 40.1282C526.129 40.2761 526.09 40.4502 526.09 40.6504V45.1943H524.667ZM532.959 37.1903C532.663 37.1903 532.446 37.1207 532.306 36.9814C532.176 36.8421 532.111 36.6637 532.111 36.446V36.2241C532.111 36.0065 532.176 35.828 532.306 35.6887C532.446 35.5495 532.663 35.4798 532.959 35.4798C533.255 35.4798 533.469 35.5495 533.599 35.6887C533.73 35.828 533.795 36.0065 533.795 36.2241V36.446C533.795 36.6637 533.73 36.8421 533.599 36.9814C533.469 37.1207 533.255 37.1903 532.959 37.1903ZM532.241 38.4046H533.664V45.1943H532.241V38.4046ZM535.697 45.1943V38.4046H537.12V39.5275H537.185C537.333 39.1619 537.555 38.8573 537.851 38.6135C538.156 38.3698 538.569 38.2479 539.092 38.2479C539.788 38.2479 540.328 38.4786 540.711 38.94C541.102 39.3926 541.298 40.0411 541.298 40.8855V45.1943H539.875V41.0683C539.875 40.0063 539.449 39.4753 538.595 39.4753C538.413 39.4753 538.23 39.5014 538.047 39.5536C537.873 39.5972 537.716 39.6668 537.577 39.7626C537.438 39.8583 537.325 39.9802 537.238 40.1282C537.159 40.2761 537.12 40.4502 537.12 40.6504V45.1943H535.697ZM549.225 45.8341C549.225 46.5392 548.955 47.0702 548.415 47.4271C547.876 47.784 546.997 47.9625 545.778 47.9625C545.221 47.9625 544.746 47.9233 544.355 47.8449C543.972 47.7753 543.654 47.6708 543.402 47.5316C543.158 47.3923 542.979 47.2225 542.866 47.0223C542.753 46.8221 542.696 46.5915 542.696 46.3303C542.696 45.956 542.797 45.6644 542.997 45.4555C543.206 45.2466 543.493 45.1029 543.859 45.0246V44.881C543.345 44.7156 543.088 44.3674 543.088 43.8364C543.088 43.4882 543.206 43.2227 543.441 43.0399C543.676 42.8484 543.959 42.7135 544.289 42.6351V42.5829C543.889 42.3914 543.58 42.1259 543.362 41.7864C543.153 41.4382 543.049 41.0335 543.049 40.5721C543.049 39.8757 543.28 39.3143 543.741 38.8877C544.211 38.4612 544.881 38.2479 545.752 38.2479C546.231 38.2479 546.64 38.3176 546.979 38.4568V38.274C546.979 37.9694 547.049 37.7344 547.188 37.569C547.336 37.3949 547.562 37.3078 547.867 37.3078H548.912V38.4568H547.528V38.731C547.832 38.9313 548.067 39.1924 548.233 39.5145C548.398 39.8278 548.481 40.1804 548.481 40.5721C548.481 41.2598 548.246 41.8169 547.776 42.2434C547.306 42.6612 546.635 42.8702 545.765 42.8702C545.434 42.8702 545.138 42.8353 544.877 42.7657C544.703 42.8266 544.551 42.9137 544.42 43.0268C544.289 43.1313 544.224 43.2706 544.224 43.4447C544.224 43.6275 544.307 43.758 544.472 43.8364C544.638 43.9147 544.873 43.9539 545.177 43.9539H546.849C547.684 43.9539 548.289 44.1236 548.664 44.4631C549.038 44.7939 549.225 45.2509 549.225 45.8341ZM547.893 45.9908C547.893 45.7558 547.802 45.5686 547.619 45.4294C547.445 45.2901 547.123 45.2205 546.653 45.2205H544.355C544.041 45.4033 543.885 45.6644 543.885 46.0039C543.885 46.2824 543.993 46.5044 544.211 46.6698C544.437 46.8439 544.816 46.9309 545.347 46.9309H546.235C547.34 46.9309 547.893 46.6176 547.893 45.9908ZM545.765 41.8386C546.183 41.8386 546.505 41.7472 546.731 41.5644C546.966 41.3729 547.084 41.0813 547.084 40.6896V40.4285C547.084 40.0368 546.966 39.7495 546.731 39.5667C546.505 39.3752 546.183 39.2794 545.765 39.2794C545.347 39.2794 545.021 39.3752 544.786 39.5667C544.559 39.7495 544.446 40.0368 544.446 40.4285V40.6896C544.446 41.0813 544.559 41.3729 544.786 41.5644C545.021 41.7472 545.347 41.8386 545.765 41.8386ZM557.64 44.0714H557.574C557.426 44.4718 557.183 44.7852 556.843 45.0115C556.512 45.2379 556.121 45.351 555.668 45.351C554.806 45.351 554.14 45.042 553.67 44.424C553.2 43.7972 552.965 42.9224 552.965 41.7995C552.965 40.6766 553.2 39.8061 553.67 39.188C554.14 38.5613 554.806 38.2479 555.668 38.2479C556.121 38.2479 556.512 38.3611 556.843 38.5874C557.183 38.805 557.426 39.1184 557.574 39.5275H557.64V35.532H559.063V45.1943H557.64V44.0714ZM556.099 44.1236C556.534 44.1236 556.9 44.0192 557.196 43.8103C557.492 43.5927 557.64 43.3098 557.64 42.9616V40.6374C557.64 40.2892 557.492 40.0106 557.196 39.8017C556.9 39.5841 556.534 39.4753 556.099 39.4753C555.603 39.4753 555.207 39.6363 554.911 39.9584C554.615 40.2718 554.467 40.6896 554.467 41.2119V42.387C554.467 42.9093 554.615 43.3315 554.911 43.6536C555.207 43.967 555.603 44.1236 556.099 44.1236ZM566.072 45.1943C565.697 45.1943 565.41 45.0899 565.21 44.881C565.01 44.6633 564.888 44.3891 564.844 44.0584H564.779C564.649 44.4849 564.409 44.807 564.061 45.0246C563.713 45.2422 563.291 45.351 562.794 45.351C562.089 45.351 561.545 45.1682 561.162 44.8026C560.788 44.437 560.601 43.9452 560.601 43.3272C560.601 42.6482 560.845 42.139 561.332 41.7995C561.828 41.46 562.551 41.2902 563.5 41.2902H564.727V40.7157C564.727 40.2979 564.614 39.9758 564.387 39.7495C564.161 39.5232 563.809 39.41 563.33 39.41C562.929 39.41 562.603 39.4971 562.35 39.6712C562.098 39.8453 561.885 40.0672 561.711 40.3371L560.862 39.5667C561.088 39.1837 561.406 38.8703 561.815 38.6266C562.224 38.3742 562.76 38.2479 563.421 38.2479C564.3 38.2479 564.975 38.4525 565.445 38.8616C565.915 39.2707 566.15 39.8583 566.15 40.6243V44.0322H566.868V45.1943H566.072ZM563.199 44.2673C563.643 44.2673 564.009 44.1715 564.296 43.98C564.583 43.7798 564.727 43.5143 564.727 43.1835V42.2042H563.526C562.542 42.2042 562.05 42.5089 562.05 43.1182V43.3533C562.05 43.6579 562.15 43.8886 562.35 44.0453C562.559 44.1933 562.842 44.2673 563.199 44.2673ZM570.105 45.1943C569.609 45.1943 569.235 45.0681 568.982 44.8157C568.73 44.5545 568.604 44.1889 568.604 43.7189V39.5667H567.546V38.4046H568.12C568.355 38.4046 568.516 38.3524 568.604 38.2479C568.699 38.1435 568.747 37.9737 568.747 37.7387V36.5505H570.027V38.4046H571.45V39.5667H570.027V44.0322H571.346V45.1943H570.105ZM577.969 45.1943C577.594 45.1943 577.307 45.0899 577.107 44.881C576.907 44.6633 576.785 44.3891 576.741 44.0584H576.676C576.545 44.4849 576.306 44.807 575.958 45.0246C575.61 45.2422 575.187 45.351 574.691 45.351C573.986 45.351 573.442 45.1682 573.059 44.8026C572.685 44.437 572.498 43.9452 572.498 43.3272C572.498 42.6482 572.741 42.139 573.229 41.7995C573.725 41.46 574.447 41.2902 575.396 41.2902H576.624V40.7157C576.624 40.2979 576.511 39.9758 576.284 39.7495C576.058 39.5232 575.705 39.41 575.227 39.41C574.826 39.41 574.5 39.4971 574.247 39.6712C573.995 39.8453 573.782 40.0672 573.607 40.3371L572.759 39.5667C572.985 39.1837 573.303 38.8703 573.712 38.6266C574.121 38.3742 574.656 38.2479 575.318 38.2479C576.197 38.2479 576.872 38.4525 577.342 38.8616C577.812 39.2707 578.047 39.8583 578.047 40.6243V44.0322H578.765V45.1943H577.969ZM575.096 44.2673C575.54 44.2673 575.906 44.1715 576.193 43.98C576.48 43.7798 576.624 43.5143 576.624 43.1835V42.2042H575.422C574.439 42.2042 573.947 42.5089 573.947 43.1182V43.3533C573.947 43.6579 574.047 43.8886 574.247 44.0453C574.456 44.1933 574.739 44.2673 575.096 44.2673Z" fill="black"/>
<g filter="url(#filter9_bddd_477_95165)">
<rect x="461.124" y="63.251" width="40.8036" height="40.8036" rx="8.16072" fill="#BFBFBF"/>
<rect x="461.532" y="63.659" width="39.9875" height="39.9875" rx="7.75268" stroke="white" stroke-opacity="0.2" stroke-width="0.816072"/>
</g>
<g filter="url(#filter10_bddd_477_95165)">
<rect x="509.272" y="63.251" width="40.8036" height="40.8036" rx="8.16072" fill="#EFE7FE"/>
<rect x="509.68" y="63.659" width="39.9875" height="39.9875" rx="7.75268" stroke="white" stroke-opacity="0.2" stroke-width="0.816072"/>
</g>
<g filter="url(#filter11_bddd_477_95165)">
<rect x="557.42" y="63.251" width="40.8036" height="40.8036" rx="8.16072" fill="#F0F0F0"/>
<rect x="557.828" y="63.659" width="39.9875" height="39.9875" rx="7.75268" stroke="white" stroke-opacity="0.2" stroke-width="0.816072"/>
</g>
</g>
<defs>
<filter id="filter0_bdddi_477_95165" x="48.5564" y="161.381" width="293.786" height="290.12" filterUnits="userSpaceOnUse" color-interpolation-filters="sRGB">
<feFlood flood-opacity="0" result="BackgroundImageFix"/>
<feGaussianBlur in="BackgroundImageFix" stdDeviation="8.16072"/>
<feComposite in2="SourceAlpha" operator="in" result="effect1_backgroundBlur_477_95165"/>
<feColorMatrix in="SourceAlpha" type="matrix" values="0 0 0 0 0 0 0 0 0 0 0 0 0 0 0 0 0 0 127 0" result="hardAlpha"/>
<feOffset dy="24.4822"/>
<feGaussianBlur stdDeviation="12.2411"/>
<feComposite in2="hardAlpha" operator="out"/>
<feColorMatrix type="matrix" values="0 0 0 0 0 0 0 0 0 0 0 0 0 0 0 0 0 0 0.1 0"/>
<feBlend mode="normal" in2="effect1_backgroundBlur_477_95165" result="effect2_dropShadow_477_95165"/>
<feColorMatrix in="SourceAlpha" type="matrix" values="0 0 0 0 0 0 0 0 0 0 0 0 0 0 0 0 0 0 127 0" result="hardAlpha"/>
<feOffset dy="8.16072"/>
<feGaussianBlur stdDeviation="8.16072"/>
<feComposite in2="hardAlpha" operator="out"/>
<feColorMatrix type="matrix" values="0 0 0 0 0 0 0 0 0 0 0 0 0 0 0 0 0 0 0.05 0"/>
<feBlend mode="normal" in2="effect2_dropShadow_477_95165" result="effect3_dropShadow_477_95165"/>
<feColorMatrix in="SourceAlpha" type="matrix" values="0 0 0 0 0 0 0 0 0 0 0 0 0 0 0 0 0 0 127 0" result="hardAlpha"/>
<feOffset dy="2.44822"/>
<feGaussianBlur stdDeviation="2.44822"/>
<feComposite in2="hardAlpha" operator="out"/>
<feColorMatrix type="matrix" values="0 0 0 0 0 0 0 0 0 0 0 0 0 0 0 0 0 0 0.05 0"/>
<feBlend mode="normal" in2="effect3_dropShadow_477_95165" result="effect4_dropShadow_477_95165"/>
<feBlend mode="normal" in="SourceGraphic" in2="effect4_dropShadow_477_95165" result="shape"/>
<feColorMatrix in="SourceAlpha" type="matrix" values="0 0 0 0 0 0 0 0 0 0 0 0 0 0 0 0 0 0 127 0" result="hardAlpha"/>
<feOffset dy="32.6429"/>
<feGaussianBlur stdDeviation="32.6429"/>
<feComposite in2="hardAlpha" operator="arithmetic" k2="-1" k3="1"/>
<feColorMatrix type="matrix" values="0 0 0 0 1 0 0 0 0 1 0 0 0 0 1 0 0 0 0.15 0"/>
<feBlend mode="normal" in2="shape" result="effect5_innerShadow_477_95165"/>
</filter>
<filter id="filter1_bddd_477_95165" x="69.7743" y="220.553" width="251.35" height="185.248" filterUnits="userSpaceOnUse" color-interpolation-filters="sRGB">
<feFlood flood-opacity="0" result="BackgroundImageFix"/>
<feGaussianBlur in="BackgroundImageFix" stdDeviation="8.16072"/>
<feComposite in2="SourceAlpha" operator="in" result="effect1_backgroundBlur_477_95165"/>
<feColorMatrix in="SourceAlpha" type="matrix" values="0 0 0 0 0 0 0 0 0 0 0 0 0 0 0 0 0 0 127 0" result="hardAlpha"/>
<feOffset dy="8.16072"/>
<feGaussianBlur stdDeviation="4.08036"/>
<feComposite in2="hardAlpha" operator="out"/>
<feColorMatrix type="matrix" values="0 0 0 0 0 0 0 0 0 0 0 0 0 0 0 0 0 0 0.1 0"/>
<feBlend mode="normal" in2="effect1_backgroundBlur_477_95165" result="effect2_dropShadow_477_95165"/>
<feColorMatrix in="SourceAlpha" type="matrix" values="0 0 0 0 0 0 0 0 0 0 0 0 0 0 0 0 0 0 127 0" result="hardAlpha"/>
<feOffset dy="3.26429"/>
<feGaussianBlur stdDeviation="1.63214"/>
<feComposite in2="hardAlpha" operator="out"/>
<feColorMatrix type="matrix" values="0 0 0 0 0 0 0 0 0 0 0 0 0 0 0 0 0 0 0.05 0"/>
<feBlend mode="normal" in2="effect2_dropShadow_477_95165" result="effect3_dropShadow_477_95165"/>
<feColorMatrix in="SourceAlpha" type="matrix" values="0 0 0 0 0 0 0 0 0 0 0 0 0 0 0 0 0 0 127 0" result="hardAlpha"/>
<feOffset dy="0.816072"/>
<feComposite in2="hardAlpha" operator="out"/>
<feColorMatrix type="matrix" values="0 0 0 0 0 0 0 0 0 0 0 0 0 0 0 0 0 0 0.05 0"/>
<feBlend mode="normal" in2="effect3_dropShadow_477_95165" result="effect4_dropShadow_477_95165"/>
<feBlend mode="normal" in="SourceGraphic" in2="effect4_dropShadow_477_95165" result="shape"/>
</filter>
<filter id="filter2_bddd_477_95165" x="246.553" y="236.874" width="58.7571" height="58.7571" filterUnits="userSpaceOnUse" color-interpolation-filters="sRGB">
<feFlood flood-opacity="0" result="BackgroundImageFix"/>
<feGaussianBlur in="BackgroundImageFix" stdDeviation="8.16072"/>
<feComposite in2="SourceAlpha" operator="in" result="effect1_backgroundBlur_477_95165"/>
<feColorMatrix in="SourceAlpha" type="matrix" values="0 0 0 0 0 0 0 0 0 0 0 0 0 0 0 0 0 0 127 0" result="hardAlpha"/>
<feOffset dy="8.16072"/>
<feGaussianBlur stdDeviation="4.08036"/>
<feComposite in2="hardAlpha" operator="out"/>
<feColorMatrix type="matrix" values="0 0 0 0 0 0 0 0 0 0 0 0 0 0 0 0 0 0 0.1 0"/>
<feBlend mode="normal" in2="effect1_backgroundBlur_477_95165" result="effect2_dropShadow_477_95165"/>
<feColorMatrix in="SourceAlpha" type="matrix" values="0 0 0 0 0 0 0 0 0 0 0 0 0 0 0 0 0 0 127 0" result="hardAlpha"/>
<feOffset dy="3.26429"/>
<feGaussianBlur stdDeviation="1.63214"/>
<feComposite in2="hardAlpha" operator="out"/>
<feColorMatrix type="matrix" values="0 0 0 0 0 0 0 0 0 0 0 0 0 0 0 0 0 0 0.05 0"/>
<feBlend mode="normal" in2="effect2_dropShadow_477_95165" result="effect3_dropShadow_477_95165"/>
<feColorMatrix in="SourceAlpha" type="matrix" values="0 0 0 0 0 0 0 0 0 0 0 0 0 0 0 0 0 0 127 0" result="hardAlpha"/>
<feOffset dy="0.816072"/>
<feComposite in2="hardAlpha" operator="out"/>
<feColorMatrix type="matrix" values="0 0 0 0 0 0 0 0 0 0 0 0 0 0 0 0 0 0 0.05 0"/>
<feBlend mode="normal" in2="effect3_dropShadow_477_95165" result="effect4_dropShadow_477_95165"/>
<feBlend mode="normal" in="SourceGraphic" in2="effect4_dropShadow_477_95165" result="shape"/>
</filter>
<filter id="filter3_bdddi_477_95165" x="386.818" y="161.381" width="293.786" height="300.729" filterUnits="userSpaceOnUse" color-interpolation-filters="sRGB">
<feFlood flood-opacity="0" result="BackgroundImageFix"/>
<feGaussianBlur in="BackgroundImageFix" stdDeviation="8.16072"/>
<feComposite in2="SourceAlpha" operator="in" result="effect1_backgroundBlur_477_95165"/>
<feColorMatrix in="SourceAlpha" type="matrix" values="0 0 0 0 0 0 0 0 0 0 0 0 0 0 0 0 0 0 127 0" result="hardAlpha"/>
<feOffset dy="24.4822"/>
<feGaussianBlur stdDeviation="12.2411"/>
<feComposite in2="hardAlpha" operator="out"/>
<feColorMatrix type="matrix" values="0 0 0 0 0 0 0 0 0 0 0 0 0 0 0 0 0 0 0.1 0"/>
<feBlend mode="normal" in2="effect1_backgroundBlur_477_95165" result="effect2_dropShadow_477_95165"/>
<feColorMatrix in="SourceAlpha" type="matrix" values="0 0 0 0 0 0 0 0 0 0 0 0 0 0 0 0 0 0 127 0" result="hardAlpha"/>
<feOffset dy="8.16072"/>
<feGaussianBlur stdDeviation="8.16072"/>
<feComposite in2="hardAlpha" operator="out"/>
<feColorMatrix type="matrix" values="0 0 0 0 0 0 0 0 0 0 0 0 0 0 0 0 0 0 0.05 0"/>
<feBlend mode="normal" in2="effect2_dropShadow_477_95165" result="effect3_dropShadow_477_95165"/>
<feColorMatrix in="SourceAlpha" type="matrix" values="0 0 0 0 0 0 0 0 0 0 0 0 0 0 0 0 0 0 127 0" result="hardAlpha"/>
<feOffset dy="2.44822"/>
<feGaussianBlur stdDeviation="2.44822"/>
<feComposite in2="hardAlpha" operator="out"/>
<feColorMatrix type="matrix" values="0 0 0 0 0 0 0 0 0 0 0 0 0 0 0 0 0 0 0.05 0"/>
<feBlend mode="normal" in2="effect3_dropShadow_477_95165" result="effect4_dropShadow_477_95165"/>
<feBlend mode="normal" in="SourceGraphic" in2="effect4_dropShadow_477_95165" result="shape"/>
<feColorMatrix in="SourceAlpha" type="matrix" values="0 0 0 0 0 0 0 0 0 0 0 0 0 0 0 0 0 0 127 0" result="hardAlpha"/>
<feOffset dy="32.6429"/>
<feGaussianBlur stdDeviation="32.6429"/>
<feComposite in2="hardAlpha" operator="arithmetic" k2="-1" k3="1"/>
<feColorMatrix type="matrix" values="0 0 0 0 1 0 0 0 0 1 0 0 0 0 1 0 0 0 0.15 0"/>
<feBlend mode="normal" in2="shape" result="effect5_innerShadow_477_95165"/>
</filter>
<filter id="filter4_bddd_477_95165" x="435.783" y="220.553" width="195.857" height="195.857" filterUnits="userSpaceOnUse" color-interpolation-filters="sRGB">
<feFlood flood-opacity="0" result="BackgroundImageFix"/>
<feGaussianBlur in="BackgroundImageFix" stdDeviation="8.16072"/>
<feComposite in2="SourceAlpha" operator="in" result="effect1_backgroundBlur_477_95165"/>
<feColorMatrix in="SourceAlpha" type="matrix" values="0 0 0 0 0 0 0 0 0 0 0 0 0 0 0 0 0 0 127 0" result="hardAlpha"/>
<feOffset dy="4.08036"/>
<feGaussianBlur stdDeviation="2.04018"/>
<feComposite in2="hardAlpha" operator="out"/>
<feColorMatrix type="matrix" values="0 0 0 0 0 0 0 0 0 0 0 0 0 0 0 0 0 0 0.05 0"/>
<feBlend mode="normal" in2="effect1_backgroundBlur_477_95165" result="effect2_dropShadow_477_95165"/>
<feColorMatrix in="SourceAlpha" type="matrix" values="0 0 0 0 0 0 0 0 0 0 0 0 0 0 0 0 0 0 127 0" result="hardAlpha"/>
<feOffset dy="1.63214"/>
<feGaussianBlur stdDeviation="0.816072"/>
<feComposite in2="hardAlpha" operator="out"/>
<feColorMatrix type="matrix" values="0 0 0 0 0 0 0 0 0 0 0 0 0 0 0 0 0 0 0.03 0"/>
<feBlend mode="normal" in2="effect2_dropShadow_477_95165" result="effect3_dropShadow_477_95165"/>
<feColorMatrix in="SourceAlpha" type="matrix" values="0 0 0 0 0 0 0 0 0 0 0 0 0 0 0 0 0 0 127 0" result="hardAlpha"/>
<feOffset dy="0.816072"/>
<feComposite in2="hardAlpha" operator="out"/>
<feColorMatrix type="matrix" values="0 0 0 0 0 0 0 0 0 0 0 0 0 0 0 0 0 0 0.03 0"/>
<feBlend mode="normal" in2="effect3_dropShadow_477_95165" result="effect4_dropShadow_477_95165"/>
<feBlend mode="normal" in="SourceGraphic" in2="effect4_dropShadow_477_95165" result="shape"/>
</filter>
<filter id="filter5_bdddi_477_95165" x="725.08" y="161.381" width="293.786" height="290.12" filterUnits="userSpaceOnUse" color-interpolation-filters="sRGB">
<feFlood flood-opacity="0" result="BackgroundImageFix"/>
<feGaussianBlur in="BackgroundImageFix" stdDeviation="8.16072"/>
<feComposite in2="SourceAlpha" operator="in" result="effect1_backgroundBlur_477_95165"/>
<feColorMatrix in="SourceAlpha" type="matrix" values="0 0 0 0 0 0 0 0 0 0 0 0 0 0 0 0 0 0 127 0" result="hardAlpha"/>
<feOffset dy="24.4822"/>
<feGaussianBlur stdDeviation="12.2411"/>
<feComposite in2="hardAlpha" operator="out"/>
<feColorMatrix type="matrix" values="0 0 0 0 0 0 0 0 0 0 0 0 0 0 0 0 0 0 0.1 0"/>
<feBlend mode="normal" in2="effect1_backgroundBlur_477_95165" result="effect2_dropShadow_477_95165"/>
<feColorMatrix in="SourceAlpha" type="matrix" values="0 0 0 0 0 0 0 0 0 0 0 0 0 0 0 0 0 0 127 0" result="hardAlpha"/>
<feOffset dy="8.16072"/>
<feGaussianBlur stdDeviation="8.16072"/>
<feComposite in2="hardAlpha" operator="out"/>
<feColorMatrix type="matrix" values="0 0 0 0 0 0 0 0 0 0 0 0 0 0 0 0 0 0 0.05 0"/>
<feBlend mode="normal" in2="effect2_dropShadow_477_95165" result="effect3_dropShadow_477_95165"/>
<feColorMatrix in="SourceAlpha" type="matrix" values="0 0 0 0 0 0 0 0 0 0 0 0 0 0 0 0 0 0 127 0" result="hardAlpha"/>
<feOffset dy="2.44822"/>
<feGaussianBlur stdDeviation="2.44822"/>
<feComposite in2="hardAlpha" operator="out"/>
<feColorMatrix type="matrix" values="0 0 0 0 0 0 0 0 0 0 0 0 0 0 0 0 0 0 0.05 0"/>
<feBlend mode="normal" in2="effect3_dropShadow_477_95165" result="effect4_dropShadow_477_95165"/>
<feBlend mode="normal" in="SourceGraphic" in2="effect4_dropShadow_477_95165" result="shape"/>
<feColorMatrix in="SourceAlpha" type="matrix" values="0 0 0 0 0 0 0 0 0 0 0 0 0 0 0 0 0 0 127 0" result="hardAlpha"/>
<feOffset dy="32.6429"/>
<feGaussianBlur stdDeviation="32.6429"/>
<feComposite in2="hardAlpha" operator="arithmetic" k2="-1" k3="1"/>
<feColorMatrix type="matrix" values="0 0 0 0 1 0 0 0 0 1 0 0 0 0 1 0 0 0 0.15 0"/>
<feBlend mode="normal" in2="shape" result="effect5_innerShadow_477_95165"/>
</filter>
<filter id="filter6_bddd_477_95165" x="746.298" y="220.553" width="251.35" height="185.248" filterUnits="userSpaceOnUse" color-interpolation-filters="sRGB">
<feFlood flood-opacity="0" result="BackgroundImageFix"/>
<feGaussianBlur in="BackgroundImageFix" stdDeviation="8.16072"/>
<feComposite in2="SourceAlpha" operator="in" result="effect1_backgroundBlur_477_95165"/>
<feColorMatrix in="SourceAlpha" type="matrix" values="0 0 0 0 0 0 0 0 0 0 0 0 0 0 0 0 0 0 127 0" result="hardAlpha"/>
<feOffset dy="8.16072"/>
<feGaussianBlur stdDeviation="4.08036"/>
<feComposite in2="hardAlpha" operator="out"/>
<feColorMatrix type="matrix" values="0 0 0 0 0 0 0 0 0 0 0 0 0 0 0 0 0 0 0.1 0"/>
<feBlend mode="normal" in2="effect1_backgroundBlur_477_95165" result="effect2_dropShadow_477_95165"/>
<feColorMatrix in="SourceAlpha" type="matrix" values="0 0 0 0 0 0 0 0 0 0 0 0 0 0 0 0 0 0 127 0" result="hardAlpha"/>
<feOffset dy="3.26429"/>
<feGaussianBlur stdDeviation="1.63214"/>
<feComposite in2="hardAlpha" operator="out"/>
<feColorMatrix type="matrix" values="0 0 0 0 0 0 0 0 0 0 0 0 0 0 0 0 0 0 0.05 0"/>
<feBlend mode="normal" in2="effect2_dropShadow_477_95165" result="effect3_dropShadow_477_95165"/>
<feColorMatrix in="SourceAlpha" type="matrix" values="0 0 0 0 0 0 0 0 0 0 0 0 0 0 0 0 0 0 127 0" result="hardAlpha"/>
<feOffset dy="0.816072"/>
<feComposite in2="hardAlpha" operator="out"/>
<feColorMatrix type="matrix" values="0 0 0 0 0 0 0 0 0 0 0 0 0 0 0 0 0 0 0.05 0"/>
<feBlend mode="normal" in2="effect3_dropShadow_477_95165" result="effect4_dropShadow_477_95165"/>
<feBlend mode="normal" in="SourceGraphic" in2="effect4_dropShadow_477_95165" result="shape"/>
</filter>
<filter id="filter7_bddd_477_95165" x="923.076" y="236.874" width="58.7571" height="58.7571" filterUnits="userSpaceOnUse" color-interpolation-filters="sRGB">
<feFlood flood-opacity="0" result="BackgroundImageFix"/>
<feGaussianBlur in="BackgroundImageFix" stdDeviation="8.16072"/>
<feComposite in2="SourceAlpha" operator="in" result="effect1_backgroundBlur_477_95165"/>
<feColorMatrix in="SourceAlpha" type="matrix" values="0 0 0 0 0 0 0 0 0 0 0 0 0 0 0 0 0 0 127 0" result="hardAlpha"/>
<feOffset dy="8.16072"/>
<feGaussianBlur stdDeviation="4.08036"/>
<feComposite in2="hardAlpha" operator="out"/>
<feColorMatrix type="matrix" values="0 0 0 0 0 0 0 0 0 0 0 0 0 0 0 0 0 0 0.1 0"/>
<feBlend mode="normal" in2="effect1_backgroundBlur_477_95165" result="effect2_dropShadow_477_95165"/>
<feColorMatrix in="SourceAlpha" type="matrix" values="0 0 0 0 0 0 0 0 0 0 0 0 0 0 0 0 0 0 127 0" result="hardAlpha"/>
<feOffset dy="3.26429"/>
<feGaussianBlur stdDeviation="1.63214"/>
<feComposite in2="hardAlpha" operator="out"/>
<feColorMatrix type="matrix" values="0 0 0 0 0 0 0 0 0 0 0 0 0 0 0 0 0 0 0.05 0"/>
<feBlend mode="normal" in2="effect2_dropShadow_477_95165" result="effect3_dropShadow_477_95165"/>
<feColorMatrix in="SourceAlpha" type="matrix" values="0 0 0 0 0 0 0 0 0 0 0 0 0 0 0 0 0 0 127 0" result="hardAlpha"/>
<feOffset dy="0.816072"/>
<feComposite in2="hardAlpha" operator="out"/>
<feColorMatrix type="matrix" values="0 0 0 0 0 0 0 0 0 0 0 0 0 0 0 0 0 0 0.05 0"/>
<feBlend mode="normal" in2="effect3_dropShadow_477_95165" result="effect4_dropShadow_477_95165"/>
<feBlend mode="normal" in="SourceGraphic" in2="effect4_dropShadow_477_95165" result="shape"/>
</filter>
<filter id="filter8_bddd_477_95165" x="431.745" y="0.815285" width="195.857" height="132.617" filterUnits="userSpaceOnUse" color-interpolation-filters="sRGB">
<feFlood flood-opacity="0" result="BackgroundImageFix"/>
<feGaussianBlur in="BackgroundImageFix" stdDeviation="8.16072"/>
<feComposite in2="SourceAlpha" operator="in" result="effect1_backgroundBlur_477_95165"/>
<feColorMatrix in="SourceAlpha" type="matrix" values="0 0 0 0 0 0 0 0 0 0 0 0 0 0 0 0 0 0 127 0" result="hardAlpha"/>
<feOffset dy="4.08036"/>
<feGaussianBlur stdDeviation="2.04018"/>
<feComposite in2="hardAlpha" operator="out"/>
<feColorMatrix type="matrix" values="0 0 0 0 0 0 0 0 0 0 0 0 0 0 0 0 0 0 0.05 0"/>
<feBlend mode="normal" in2="effect1_backgroundBlur_477_95165" result="effect2_dropShadow_477_95165"/>
<feColorMatrix in="SourceAlpha" type="matrix" values="0 0 0 0 0 0 0 0 0 0 0 0 0 0 0 0 0 0 127 0" result="hardAlpha"/>
<feOffset dy="1.63214"/>
<feGaussianBlur stdDeviation="0.816072"/>
<feComposite in2="hardAlpha" operator="out"/>
<feColorMatrix type="matrix" values="0 0 0 0 0 0 0 0 0 0 0 0 0 0 0 0 0 0 0.03 0"/>
<feBlend mode="normal" in2="effect2_dropShadow_477_95165" result="effect3_dropShadow_477_95165"/>
<feColorMatrix in="SourceAlpha" type="matrix" values="0 0 0 0 0 0 0 0 0 0 0 0 0 0 0 0 0 0 127 0" result="hardAlpha"/>
<feOffset dy="0.816072"/>
<feComposite in2="hardAlpha" operator="out"/>
<feColorMatrix type="matrix" values="0 0 0 0 0 0 0 0 0 0 0 0 0 0 0 0 0 0 0.03 0"/>
<feBlend mode="normal" in2="effect3_dropShadow_477_95165" result="effect4_dropShadow_477_95165"/>
<feBlend mode="normal" in="SourceGraphic" in2="effect4_dropShadow_477_95165" result="shape"/>
</filter>
<filter id="filter9_bddd_477_95165" x="444.802" y="46.9295" width="73.4466" height="73.4466" filterUnits="userSpaceOnUse" color-interpolation-filters="sRGB">
<feFlood flood-opacity="0" result="BackgroundImageFix"/>
<feGaussianBlur in="BackgroundImageFix" stdDeviation="8.16072"/>
<feComposite in2="SourceAlpha" operator="in" result="effect1_backgroundBlur_477_95165"/>
<feColorMatrix in="SourceAlpha" type="matrix" values="0 0 0 0 0 0 0 0 0 0 0 0 0 0 0 0 0 0 127 0" result="hardAlpha"/>
<feOffset dy="4.08036"/>
<feGaussianBlur stdDeviation="2.04018"/>
<feComposite in2="hardAlpha" operator="out"/>
<feColorMatrix type="matrix" values="0 0 0 0 0 0 0 0 0 0 0 0 0 0 0 0 0 0 0.05 0"/>
<feBlend mode="normal" in2="effect1_backgroundBlur_477_95165" result="effect2_dropShadow_477_95165"/>
<feColorMatrix in="SourceAlpha" type="matrix" values="0 0 0 0 0 0 0 0 0 0 0 0 0 0 0 0 0 0 127 0" result="hardAlpha"/>
<feOffset dy="1.63214"/>
<feGaussianBlur stdDeviation="0.816072"/>
<feComposite in2="hardAlpha" operator="out"/>
<feColorMatrix type="matrix" values="0 0 0 0 0 0 0 0 0 0 0 0 0 0 0 0 0 0 0.03 0"/>
<feBlend mode="normal" in2="effect2_dropShadow_477_95165" result="effect3_dropShadow_477_95165"/>
<feColorMatrix in="SourceAlpha" type="matrix" values="0 0 0 0 0 0 0 0 0 0 0 0 0 0 0 0 0 0 127 0" result="hardAlpha"/>
<feOffset dy="0.816072"/>
<feComposite in2="hardAlpha" operator="out"/>
<feColorMatrix type="matrix" values="0 0 0 0 0 0 0 0 0 0 0 0 0 0 0 0 0 0 0.03 0"/>
<feBlend mode="normal" in2="effect3_dropShadow_477_95165" result="effect4_dropShadow_477_95165"/>
<feBlend mode="normal" in="SourceGraphic" in2="effect4_dropShadow_477_95165" result="shape"/>
</filter>
<filter id="filter10_bddd_477_95165" x="492.951" y="46.9295" width="73.4466" height="73.4466" filterUnits="userSpaceOnUse" color-interpolation-filters="sRGB">
<feFlood flood-opacity="0" result="BackgroundImageFix"/>
<feGaussianBlur in="BackgroundImageFix" stdDeviation="8.16072"/>
<feComposite in2="SourceAlpha" operator="in" result="effect1_backgroundBlur_477_95165"/>
<feColorMatrix in="SourceAlpha" type="matrix" values="0 0 0 0 0 0 0 0 0 0 0 0 0 0 0 0 0 0 127 0" result="hardAlpha"/>
<feOffset dy="4.08036"/>
<feGaussianBlur stdDeviation="2.04018"/>
<feComposite in2="hardAlpha" operator="out"/>
<feColorMatrix type="matrix" values="0 0 0 0 0 0 0 0 0 0 0 0 0 0 0 0 0 0 0.05 0"/>
<feBlend mode="normal" in2="effect1_backgroundBlur_477_95165" result="effect2_dropShadow_477_95165"/>
<feColorMatrix in="SourceAlpha" type="matrix" values="0 0 0 0 0 0 0 0 0 0 0 0 0 0 0 0 0 0 127 0" result="hardAlpha"/>
<feOffset dy="1.63214"/>
<feGaussianBlur stdDeviation="0.816072"/>
<feComposite in2="hardAlpha" operator="out"/>
<feColorMatrix type="matrix" values="0 0 0 0 0 0 0 0 0 0 0 0 0 0 0 0 0 0 0.03 0"/>
<feBlend mode="normal" in2="effect2_dropShadow_477_95165" result="effect3_dropShadow_477_95165"/>
<feColorMatrix in="SourceAlpha" type="matrix" values="0 0 0 0 0 0 0 0 0 0 0 0 0 0 0 0 0 0 127 0" result="hardAlpha"/>
<feOffset dy="0.816072"/>
<feComposite in2="hardAlpha" operator="out"/>
<feColorMatrix type="matrix" values="0 0 0 0 0 0 0 0 0 0 0 0 0 0 0 0 0 0 0.03 0"/>
<feBlend mode="normal" in2="effect3_dropShadow_477_95165" result="effect4_dropShadow_477_95165"/>
<feBlend mode="normal" in="SourceGraphic" in2="effect4_dropShadow_477_95165" result="shape"/>
</filter>
<filter id="filter11_bddd_477_95165" x="541.098" y="46.9295" width="73.4466" height="73.4466" filterUnits="userSpaceOnUse" color-interpolation-filters="sRGB">
<feFlood flood-opacity="0" result="BackgroundImageFix"/>
<feGaussianBlur in="BackgroundImageFix" stdDeviation="8.16072"/>
<feComposite in2="SourceAlpha" operator="in" result="effect1_backgroundBlur_477_95165"/>
<feColorMatrix in="SourceAlpha" type="matrix" values="0 0 0 0 0 0 0 0 0 0 0 0 0 0 0 0 0 0 127 0" result="hardAlpha"/>
<feOffset dy="4.08036"/>
<feGaussianBlur stdDeviation="2.04018"/>
<feComposite in2="hardAlpha" operator="out"/>
<feColorMatrix type="matrix" values="0 0 0 0 0 0 0 0 0 0 0 0 0 0 0 0 0 0 0.05 0"/>
<feBlend mode="normal" in2="effect1_backgroundBlur_477_95165" result="effect2_dropShadow_477_95165"/>
<feColorMatrix in="SourceAlpha" type="matrix" values="0 0 0 0 0 0 0 0 0 0 0 0 0 0 0 0 0 0 127 0" result="hardAlpha"/>
<feOffset dy="1.63214"/>
<feGaussianBlur stdDeviation="0.816072"/>
<feComposite in2="hardAlpha" operator="out"/>
<feColorMatrix type="matrix" values="0 0 0 0 0 0 0 0 0 0 0 0 0 0 0 0 0 0 0.03 0"/>
<feBlend mode="normal" in2="effect2_dropShadow_477_95165" result="effect3_dropShadow_477_95165"/>
<feColorMatrix in="SourceAlpha" type="matrix" values="0 0 0 0 0 0 0 0 0 0 0 0 0 0 0 0 0 0 127 0" result="hardAlpha"/>
<feOffset dy="0.816072"/>
<feComposite in2="hardAlpha" operator="out"/>
<feColorMatrix type="matrix" values="0 0 0 0 0 0 0 0 0 0 0 0 0 0 0 0 0 0 0.03 0"/>
<feBlend mode="normal" in2="effect3_dropShadow_477_95165" result="effect4_dropShadow_477_95165"/>
<feBlend mode="normal" in="SourceGraphic" in2="effect4_dropShadow_477_95165" result="shape"/>
</filter>
<clipPath id="clip0_477_95165">
<path d="M73.0386 185.961C73.0386 181.4 76.7361 177.702 81.2971 177.702H309.602C314.163 177.702 317.86 181.4 317.86 185.961V394.278C317.86 398.839 314.163 402.536 309.602 402.536H81.2971C76.7361 402.536 73.0386 398.839 73.0386 394.278V185.961Z" fill="white"/>
</clipPath>
<clipPath id="clip1_477_95165">
<path d="M411.3 185.961C411.3 181.4 414.998 177.702 419.559 177.702H647.863C652.424 177.702 656.122 181.4 656.122 185.961V404.887C656.122 409.448 652.424 413.145 647.863 413.145H419.559C414.998 413.145 411.3 409.448 411.3 404.887V185.961Z" fill="white"/>
</clipPath>
<clipPath id="clip2_477_95165">
<path d="M749.562 185.961C749.562 181.4 753.259 177.702 757.821 177.702H986.125C990.686 177.702 994.384 181.4 994.384 185.961V394.278C994.384 398.839 990.686 402.536 986.125 402.536H757.821C753.259 402.536 749.562 398.839 749.562 394.278V185.961Z" fill="white"/>
</clipPath>
</defs>
</svg>
