<svg width="870" height="995" viewBox="0 0 870 995" fill="none" xmlns="http://www.w3.org/2000/svg">
<path d="M477.588 262.752C477.588 215.042 493.043 169.493 520.233 137.063L566.139 82.3132C574.714 72.0864 579.588 57.7217 579.588 42.6758" stroke="#F8727D" stroke-width="2.21762"/>
<path d="M406.864 262.752L406.864 222.13C406.864 161.017 417.346 100.867 417.33 42.6758" stroke="#6E35DE" stroke-width="2.21762"/>
<path d="M366.604 262.752L366.604 261.05C366.604 201.458 346.584 147.141 315.104 121.318L282.832 94.8469C271.079 85.2058 263.604 64.9252 263.604 42.6758" stroke="#2EC291" stroke-width="2.21762"/>
<g filter="url(#filter0_d_776_84281)">
<rect x="3.41211" y="587.488" width="338" height="260" rx="12" fill="#FAFAFA"/>
<rect x="2.91211" y="586.988" width="339" height="261" rx="12.5" stroke="#E1E6EF"/>
<path d="M120.024 617.488L116.632 612.272L115.096 614.032V617.488H113.288V606.32H115.096V611.984H115.16L116.76 609.952L119.768 606.32H121.88L117.896 611.024L122.2 617.488H120.024ZM125.31 617.488H123.566V609.168H125.31V610.544H125.39C125.742 609.648 126.446 608.976 127.726 608.976C129.422 608.976 130.43 610.16 130.43 612.208V617.488H128.686V612.432C128.686 611.136 128.19 610.48 127.118 610.48C126.206 610.48 125.31 610.944 125.31 611.92V617.488ZM136.112 617.68C133.792 617.68 132.288 615.984 132.288 613.328C132.288 610.672 133.792 608.976 136.112 608.976C138.432 608.976 139.936 610.672 139.936 613.328C139.936 615.984 138.432 617.68 136.112 617.68ZM136.112 616.24C137.296 616.24 138.096 615.504 138.096 614.032V612.624C138.096 611.152 137.296 610.416 136.112 610.416C134.928 610.416 134.128 611.152 134.128 612.624V614.032C134.128 615.504 134.928 616.24 136.112 616.24ZM143.209 617.488L140.937 609.168H142.633L143.481 612.656L144.233 615.808H144.281L145.145 612.656L146.153 609.168H147.721L148.745 612.656L149.625 615.808H149.673L150.409 612.656L151.273 609.168H152.889L150.649 617.488H148.681L147.593 613.696L146.921 611.36H146.889L146.233 613.696L145.129 617.488H143.209ZM157.447 617.488H156.327C155.143 617.488 154.551 616.832 154.551 615.76V605.648H156.295V616.064H157.447V617.488ZM162.377 617.68C160.009 617.68 158.553 615.984 158.553 613.328C158.553 610.672 160.009 608.976 162.377 608.976C164.825 608.976 166.073 610.816 166.073 613.12V613.776H160.361V614.048C160.361 615.328 161.145 616.24 162.553 616.24C163.577 616.24 164.265 615.76 164.745 614.992L165.769 616C165.145 617.008 163.929 617.68 162.377 617.68ZM162.377 610.336C161.177 610.336 160.361 611.232 160.361 612.512V612.624H164.233V612.464C164.233 611.184 163.529 610.336 162.377 610.336ZM173.236 617.488V616.112H173.156C172.804 617.088 171.924 617.68 170.82 617.68C168.724 617.68 167.508 616.064 167.508 613.328C167.508 610.592 168.724 608.976 170.82 608.976C171.924 608.976 172.804 609.552 173.156 610.544H173.236V605.648H174.98V617.488H173.236ZM171.348 616.176C172.404 616.176 173.236 615.6 173.236 614.752V611.904C173.236 611.056 172.404 610.48 171.348 610.48C170.148 610.48 169.348 611.328 169.348 612.608V614.048C169.348 615.328 170.148 616.176 171.348 616.176ZM184.769 618.272C184.769 620 183.537 620.88 180.545 620.88C177.825 620.88 176.769 620.144 176.769 618.88C176.769 617.968 177.313 617.472 178.193 617.28V617.104C177.585 616.912 177.249 616.448 177.249 615.824C177.249 614.96 177.921 614.544 178.721 614.352V614.288C177.745 613.824 177.201 612.944 177.201 611.824C177.201 610.128 178.401 608.976 180.513 608.976C181.073 608.976 181.585 609.056 182.017 609.232V609.008C182.017 608.272 182.369 607.824 183.105 607.824H184.385V609.232H182.689V609.568C183.441 610.064 183.857 610.864 183.857 611.824C183.857 613.504 182.641 614.64 180.529 614.64C180.129 614.64 179.745 614.592 179.441 614.512C179.025 614.656 178.641 614.928 178.641 615.344C178.641 615.792 179.073 615.968 179.809 615.968H181.857C183.905 615.968 184.769 616.832 184.769 618.272ZM183.137 618.464C183.137 617.888 182.753 617.52 181.617 617.52H178.801C178.417 617.744 178.225 618.08 178.225 618.48C178.225 619.152 178.721 619.616 180.017 619.616H181.105C182.465 619.616 183.137 619.232 183.137 618.464ZM180.529 613.376C181.553 613.376 182.145 612.912 182.145 611.968V611.648C182.145 610.704 181.553 610.24 180.529 610.24C179.505 610.24 178.913 610.704 178.913 611.648V611.968C178.913 612.912 179.505 613.376 180.529 613.376ZM189.237 617.68C186.869 617.68 185.413 615.984 185.413 613.328C185.413 610.672 186.869 608.976 189.237 608.976C191.685 608.976 192.933 610.816 192.933 613.12V613.776H187.221V614.048C187.221 615.328 188.005 616.24 189.413 616.24C190.437 616.24 191.125 615.76 191.605 614.992L192.629 616C192.005 617.008 190.789 617.68 189.237 617.68ZM189.237 610.336C188.037 610.336 187.221 611.232 187.221 612.512V612.624H191.093V612.464C191.093 611.184 190.389 610.336 189.237 610.336ZM198.644 617.488V605.648H200.388V610.544H200.468C200.82 609.552 201.7 608.976 202.804 608.976C204.9 608.976 206.116 610.592 206.116 613.328C206.116 616.064 204.9 617.68 202.804 617.68C201.7 617.68 200.82 617.088 200.468 616.112H200.388V617.488H198.644ZM202.276 616.176C203.476 616.176 204.276 615.328 204.276 614.048V612.608C204.276 611.328 203.476 610.48 202.276 610.48C201.22 610.48 200.388 611.056 200.388 611.904V614.752C200.388 615.6 201.22 616.176 202.276 616.176ZM215.185 617.488H214.209C213.297 617.488 212.817 616.912 212.705 616.096H212.625C212.305 617.136 211.409 617.68 210.193 617.68C208.481 617.68 207.505 616.704 207.505 615.2C207.505 613.552 208.737 612.704 211.057 612.704H212.561V612C212.561 610.992 212.017 610.4 210.849 610.4C209.873 610.4 209.281 610.88 208.865 611.536L207.825 610.592C208.369 609.664 209.345 608.976 210.961 608.976C213.105 608.976 214.305 610.032 214.305 611.888V616.064H215.185V617.488ZM210.689 616.352C211.761 616.352 212.561 615.84 212.561 615.024V613.824H211.089C209.873 613.824 209.281 614.224 209.281 614.944V615.232C209.281 615.968 209.825 616.352 210.689 616.352ZM219.534 617.68C217.966 617.68 216.942 617.088 216.158 616.112L217.278 615.088C217.886 615.824 218.638 616.272 219.63 616.272C220.638 616.272 221.15 615.856 221.15 615.152C221.15 614.624 220.83 614.224 219.966 614.112L219.198 614.016C217.502 613.808 216.462 613.072 216.462 611.536C216.462 609.92 217.726 608.976 219.55 608.976C221.054 608.976 221.902 609.472 222.654 610.304L221.582 611.328C221.15 610.816 220.446 610.384 219.55 610.384C218.59 610.384 218.142 610.8 218.142 611.424C218.142 612.064 218.542 612.352 219.422 612.496L220.19 612.592C222.014 612.864 222.83 613.664 222.83 615.008C222.83 616.608 221.534 617.68 219.534 617.68ZM228.065 617.68C225.697 617.68 224.241 615.984 224.241 613.328C224.241 610.672 225.697 608.976 228.065 608.976C230.513 608.976 231.761 610.816 231.761 613.12V613.776H226.049V614.048C226.049 615.328 226.833 616.24 228.241 616.24C229.265 616.24 229.953 615.76 230.433 614.992L231.457 616C230.833 617.008 229.617 617.68 228.065 617.68ZM228.065 610.336C226.865 610.336 226.049 611.232 226.049 612.512V612.624H229.921V612.464C229.921 611.184 229.217 610.336 228.065 610.336Z" fill="black"/>
<rect x="15.4121" y="603.488" width="8" height="8" rx="4" fill="black" fill-opacity="0.08"/>
<rect x="29.4121" y="603.488" width="8" height="8" rx="4" fill="black" fill-opacity="0.08"/>
<rect x="43.4121" y="603.488" width="8" height="8" rx="4" fill="black" fill-opacity="0.08"/>
<g filter="url(#filter1_bddd_776_84281)">
<path d="M15.4121 645.488C15.4121 639.965 19.8893 635.488 25.4121 635.488H319.412C324.935 635.488 329.412 639.965 329.412 645.488V825.488C329.412 831.011 324.935 835.488 319.412 835.488H25.4121C19.8893 835.488 15.4121 831.011 15.4121 825.488V645.488Z" fill="white" fill-opacity="0.6" shape-rendering="crispEdges"/>
<path d="M15.9121 645.488C15.9121 640.242 20.1654 635.988 25.4121 635.988H319.412C324.659 635.988 328.912 640.242 328.912 645.488V825.488C328.912 830.735 324.659 834.988 319.412 834.988H25.4121C20.1654 834.988 15.9121 830.735 15.9121 825.488V645.488Z" stroke="white" stroke-opacity="0.2" shape-rendering="crispEdges"/>
<g opacity="0.2">
<rect x="133.412" y="651.488" width="78" height="4" rx="2" fill="black" fill-opacity="0.5"/>
</g>
<g opacity="0.3">
<rect x="31.4121" y="671.488" width="70" height="40" rx="4" fill="#8B55F7"/>
</g>
<path d="M109.412 671.488V711.488" stroke="black" stroke-opacity="0.1"/>
<g opacity="0.1">
<rect x="117.412" y="671.488" width="60" height="4" rx="2" fill="black" fill-opacity="0.5"/>
</g>
<g opacity="0.1">
<rect x="117.412" y="683.488" width="196" height="4" rx="2" fill="black" fill-opacity="0.5"/>
</g>
<g opacity="0.1">
<rect x="117.412" y="695.488" width="196" height="4" rx="2" fill="black" fill-opacity="0.5"/>
</g>
<g opacity="0.1">
<rect x="117.412" y="707.488" width="196" height="4" rx="2" fill="black" fill-opacity="0.5"/>
</g>
<g opacity="0.2">
<rect x="31.4121" y="727.488" width="70" height="40" rx="4" fill="#8B55F7"/>
</g>
<path d="M109.412 727.488V767.488" stroke="black" stroke-opacity="0.1"/>
<g opacity="0.1">
<rect x="117.412" y="727.488" width="60" height="4" rx="2" fill="black" fill-opacity="0.5"/>
</g>
<g opacity="0.1">
<rect x="117.412" y="739.488" width="196" height="4" rx="2" fill="black" fill-opacity="0.5"/>
</g>
<g opacity="0.1">
<rect x="117.412" y="751.488" width="196" height="4" rx="2" fill="black" fill-opacity="0.5"/>
</g>
<g opacity="0.1">
<rect x="117.412" y="763.488" width="196" height="4" rx="2" fill="black" fill-opacity="0.5"/>
</g>
<g opacity="0.1">
<rect x="31.4121" y="783.488" width="70" height="40" rx="4" fill="#8B55F7"/>
</g>
<path d="M109.412 783.488V823.488" stroke="black" stroke-opacity="0.1"/>
<g opacity="0.1">
<rect x="117.412" y="783.488" width="60" height="4" rx="2" fill="black" fill-opacity="0.5"/>
</g>
<g opacity="0.1">
<rect x="117.412" y="795.488" width="196" height="4" rx="2" fill="black" fill-opacity="0.5"/>
</g>
<g opacity="0.1">
<rect x="117.412" y="807.488" width="196" height="4" rx="2" fill="black" fill-opacity="0.5"/>
</g>
<g opacity="0.1">
<rect x="117.412" y="819.488" width="196" height="4" rx="2" fill="black" fill-opacity="0.5"/>
</g>
</g>
</g>
<g filter="url(#filter2_d_776_84281)">
<rect x="242.104" y="651.488" width="338" height="262" rx="12" fill="#FAFAFA"/>
<rect x="241.604" y="650.988" width="339" height="263" rx="12.5" stroke="#E1E6EF"/>
<path d="M376.344 681.488H374.456L373.448 678.464H369.272L368.296 681.488H366.456L370.264 670.32H372.536L376.344 681.488ZM373 676.912L371.4 671.984H371.32L369.704 676.912H373ZM382.457 681.488H377.593V680.016H379.113V671.792H377.593V670.32H382.457V671.792H380.921V680.016H382.457V681.488ZM397.375 681.488H395.487L394.479 678.464H390.303L389.327 681.488H387.487L391.295 670.32H393.567L397.375 681.488ZM394.031 676.912L392.431 671.984H392.351L390.735 676.912H394.031ZM401.617 681.68C400.049 681.68 399.025 681.088 398.241 680.112L399.361 679.088C399.969 679.824 400.721 680.272 401.713 680.272C402.721 680.272 403.233 679.856 403.233 679.152C403.233 678.624 402.913 678.224 402.049 678.112L401.281 678.016C399.585 677.808 398.545 677.072 398.545 675.536C398.545 673.92 399.809 672.976 401.633 672.976C403.137 672.976 403.985 673.472 404.737 674.304L403.665 675.328C403.233 674.816 402.529 674.384 401.633 674.384C400.673 674.384 400.225 674.8 400.225 675.424C400.225 676.064 400.625 676.352 401.505 676.496L402.273 676.592C404.097 676.864 404.913 677.664 404.913 679.008C404.913 680.608 403.617 681.68 401.617 681.68ZM409.429 681.68C407.861 681.68 406.837 681.088 406.053 680.112L407.173 679.088C407.781 679.824 408.533 680.272 409.525 680.272C410.533 680.272 411.045 679.856 411.045 679.152C411.045 678.624 410.725 678.224 409.861 678.112L409.093 678.016C407.397 677.808 406.357 677.072 406.357 675.536C406.357 673.92 407.621 672.976 409.445 672.976C410.949 672.976 411.797 673.472 412.549 674.304L411.477 675.328C411.045 674.816 410.341 674.384 409.445 674.384C408.485 674.384 408.037 674.8 408.037 675.424C408.037 676.064 408.437 676.352 409.317 676.496L410.085 676.592C411.909 676.864 412.725 677.664 412.725 679.008C412.725 680.608 411.429 681.68 409.429 681.68ZM415.575 671.68C414.855 671.68 414.535 671.296 414.535 670.768V670.496C414.535 669.968 414.855 669.584 415.575 669.584C416.295 669.584 416.599 669.968 416.599 670.496V670.768C416.599 671.296 416.295 671.68 415.575 671.68ZM414.695 681.488V673.168H416.439V681.488H414.695ZM421.57 681.68C420.002 681.68 418.978 681.088 418.194 680.112L419.314 679.088C419.922 679.824 420.674 680.272 421.666 680.272C422.674 680.272 423.186 679.856 423.186 679.152C423.186 678.624 422.866 678.224 422.002 678.112L421.234 678.016C419.538 677.808 418.498 677.072 418.498 675.536C418.498 673.92 419.762 672.976 421.586 672.976C423.09 672.976 423.938 673.472 424.69 674.304L423.618 675.328C423.186 674.816 422.482 674.384 421.586 674.384C420.626 674.384 420.178 674.8 420.178 675.424C420.178 676.064 420.578 676.352 421.458 676.496L422.226 676.592C424.05 676.864 424.866 677.664 424.866 679.008C424.866 680.608 423.57 681.68 421.57 681.68ZM430.551 681.488H429.031C427.831 681.488 427.191 680.816 427.191 679.68V674.592H425.895V673.168H426.599C427.175 673.168 427.367 672.928 427.367 672.352V670.896H428.935V673.168H430.679V674.592H428.935V680.064H430.551V681.488ZM439.642 681.488H438.666C437.754 681.488 437.274 680.912 437.162 680.096H437.082C436.762 681.136 435.866 681.68 434.65 681.68C432.938 681.68 431.962 680.704 431.962 679.2C431.962 677.552 433.194 676.704 435.514 676.704H437.018V676C437.018 674.992 436.474 674.4 435.306 674.4C434.33 674.4 433.738 674.88 433.322 675.536L432.282 674.592C432.826 673.664 433.802 672.976 435.418 672.976C437.562 672.976 438.762 674.032 438.762 675.888V680.064H439.642V681.488ZM435.146 680.352C436.218 680.352 437.018 679.84 437.018 679.024V677.824H435.546C434.33 677.824 433.738 678.224 433.738 678.944V679.232C433.738 679.968 434.282 680.352 435.146 680.352ZM443.096 681.488H441.352V673.168H443.096V674.544H443.176C443.528 673.648 444.232 672.976 445.512 672.976C447.208 672.976 448.216 674.16 448.216 676.208V681.488H446.472V676.432C446.472 675.136 445.976 674.48 444.904 674.48C443.992 674.48 443.096 674.944 443.096 675.92V681.488ZM454.457 681.488H452.937C451.737 681.488 451.097 680.816 451.097 679.68V674.592H449.801V673.168H450.505C451.081 673.168 451.273 672.928 451.273 672.352V670.896H452.841V673.168H454.585V674.592H452.841V680.064H454.457V681.488Z" fill="black"/>
<rect x="254.104" y="667.488" width="8" height="8" rx="4" fill="black" fill-opacity="0.08"/>
<rect x="268.104" y="667.488" width="8" height="8" rx="4" fill="black" fill-opacity="0.08"/>
<rect x="282.104" y="667.488" width="8" height="8" rx="4" fill="black" fill-opacity="0.08"/>
<g filter="url(#filter3_bddd_776_84281)">
<path d="M254.104 709.488C254.104 703.965 258.581 699.488 264.104 699.488H558.104C563.626 699.488 568.104 703.965 568.104 709.488V891.488C568.104 897.011 563.626 901.488 558.104 901.488H264.104C258.581 901.488 254.104 897.011 254.104 891.488V709.488Z" fill="white" fill-opacity="0.6" shape-rendering="crispEdges"/>
<path d="M254.604 709.488C254.604 704.242 258.857 699.988 264.104 699.988H558.104C563.35 699.988 567.604 704.242 567.604 709.488V891.488C567.604 896.735 563.35 900.988 558.104 900.988H264.104C258.857 900.988 254.604 896.735 254.604 891.488V709.488Z" stroke="white" stroke-opacity="0.2" shape-rendering="crispEdges"/>
<g opacity="0.2">
<rect x="372.104" y="715.488" width="78" height="4" rx="2" fill="black" fill-opacity="0.5"/>
</g>
<g opacity="0.5">
<path d="M273.104 744.861C273.104 741.832 273.104 740.318 273.43 739.161C273.718 738.143 274.177 737.316 274.742 736.797C275.383 736.207 276.223 736.207 277.904 736.207L443.961 735.488C445.641 735.488 446.481 735.501 447.123 736.091C447.687 736.609 448.146 737.488 448.434 738.505C448.761 739.662 448.761 741.3 448.761 744.329V754.275C448.761 757.304 448.761 758.942 448.434 760.099C448.146 761.117 447.687 761.995 447.123 762.514C446.481 763.103 445.641 763.116 443.961 763.116L283.787 763.251C283.163 763.251 282.851 763.251 282.553 763.361C282.288 763.459 282.032 763.621 281.791 763.843C281.52 764.093 281.276 764.444 280.789 765.147L278.403 768.588C277.987 769.188 277.779 769.488 277.604 769.488C277.452 769.489 277.308 769.364 277.213 769.149C277.104 768.902 277.104 768.422 277.104 767.461V763.251C276.174 763.251 275.709 763.251 275.327 763.067C274.292 762.566 273.483 761.109 273.206 759.242C273.104 758.554 273.104 757.716 273.104 756.039V744.861Z" fill="#E1F9F1" stroke="#1D7C5C" stroke-width="1.5" stroke-linecap="round" stroke-linejoin="round"/>
<path d="M273.104 786.711C273.104 783.663 273.104 782.14 273.43 780.976C273.718 779.952 274.177 779.119 274.742 778.597C275.383 778.004 276.223 778.004 277.904 778.004L336.51 777.488C338.19 777.488 339.03 777.497 339.672 778.091C340.236 778.612 340.695 779.481 340.983 780.505C341.31 781.669 341.31 783.282 341.31 786.329V796.275C341.31 799.323 341.31 800.935 340.983 802.099C340.695 803.123 340.236 803.992 339.672 804.514C339.03 805.107 338.19 805.116 336.51 805.116L283.787 805.213C283.163 805.213 282.851 805.213 282.553 805.324C282.288 805.422 282.032 805.585 281.791 805.809C281.52 806.06 281.276 806.414 280.789 807.121L278.403 810.582C277.987 811.186 277.779 811.488 277.604 811.488C277.452 811.489 277.308 811.363 277.213 811.147C277.104 810.899 277.104 810.416 277.104 809.449V805.213C276.174 805.213 275.709 805.213 275.327 805.027C274.292 804.524 273.483 803.057 273.206 801.18C273.104 800.488 273.104 799.644 273.104 797.957V786.711Z" fill="#E1F9F1" stroke="#1D7C5C" stroke-width="1.5" stroke-linecap="round" stroke-linejoin="round"/>
<path d="M546.104 828.571C546.104 825.506 546.104 823.974 545.777 822.803C545.489 821.773 545.03 820.936 544.465 820.412C543.824 819.815 542.984 819.815 541.304 819.815L464.943 819.488C463.263 819.488 462.423 819.494 461.781 820.091C461.217 820.615 460.758 821.476 460.47 822.505C460.143 823.676 460.143 825.264 460.143 828.329V838.275C460.143 841.34 460.143 842.928 460.47 844.099C460.758 845.129 461.217 845.989 461.781 846.514C462.423 847.11 463.263 847.116 464.943 847.116L535.42 847.177C536.044 847.177 536.356 847.177 536.654 847.289C536.919 847.388 537.175 847.552 537.416 847.776C537.687 848.029 537.931 848.385 538.418 849.096L540.804 852.577C541.22 853.184 541.428 853.488 541.603 853.488C541.755 853.489 541.899 853.362 541.994 853.145C542.104 852.896 542.104 852.41 542.104 851.438V847.177C543.033 847.177 543.498 847.177 543.88 846.991C544.915 846.485 545.724 845.01 546.001 843.121C546.104 842.425 546.104 841.577 546.104 839.881V828.571Z" fill="#E1F9F1" stroke="#1D7C5C" stroke-width="1.5" stroke-linecap="round" stroke-linejoin="round"/>
</g>
<g opacity="0.2">
<rect x="270.104" y="869.488" width="282" height="16" rx="4" fill="#E1E6EF"/>
<rect x="270.604" y="869.988" width="281" height="15" rx="3.5" stroke="#1D2433" stroke-opacity="0.65"/>
</g>
</g>
</g>
<g filter="url(#filter4_d_776_84281)">
<rect x="528.588" y="729.488" width="338" height="260" rx="12" fill="#FAFAFA"/>
<rect x="528.088" y="728.988" width="339" height="261" rx="12.5" stroke="#E1E6EF"/>
<path d="M675.328 759.488H673.44L672.432 756.464H668.256L667.28 759.488H665.44L669.248 748.32H671.52L675.328 759.488ZM671.984 754.912L670.384 749.984H670.304L668.688 754.912H671.984ZM681.442 759.488H676.578V758.016H678.098V749.792H676.578V748.32H681.442V749.792H679.906V758.016H681.442V759.488ZM696.359 759.488H694.471L693.463 756.464H689.287L688.311 759.488H686.471L690.279 748.32H692.551L696.359 759.488ZM693.015 754.912L691.415 749.984H691.335L689.719 754.912H693.015ZM705.257 760.272C705.257 762 704.025 762.88 701.033 762.88C698.313 762.88 697.257 762.144 697.257 760.88C697.257 759.968 697.801 759.472 698.681 759.28V759.104C698.073 758.912 697.737 758.448 697.737 757.824C697.737 756.96 698.409 756.544 699.209 756.352V756.288C698.233 755.824 697.689 754.944 697.689 753.824C697.689 752.128 698.889 750.976 701.001 750.976C701.561 750.976 702.073 751.056 702.505 751.232V751.008C702.505 750.272 702.857 749.824 703.593 749.824H704.873V751.232H703.177V751.568C703.929 752.064 704.345 752.864 704.345 753.824C704.345 755.504 703.129 756.64 701.017 756.64C700.617 756.64 700.233 756.592 699.929 756.512C699.513 756.656 699.129 756.928 699.129 757.344C699.129 757.792 699.561 757.968 700.297 757.968H702.345C704.393 757.968 705.257 758.832 705.257 760.272ZM703.625 760.464C703.625 759.888 703.241 759.52 702.105 759.52H699.289C698.905 759.744 698.713 760.08 698.713 760.48C698.713 761.152 699.209 761.616 700.505 761.616H701.593C702.953 761.616 703.625 761.232 703.625 760.464ZM701.017 755.376C702.041 755.376 702.633 754.912 702.633 753.968V753.648C702.633 752.704 702.041 752.24 701.017 752.24C699.993 752.24 699.401 752.704 699.401 753.648V753.968C699.401 754.912 699.993 755.376 701.017 755.376ZM709.725 759.68C707.357 759.68 705.901 757.984 705.901 755.328C705.901 752.672 707.357 750.976 709.725 750.976C712.173 750.976 713.421 752.816 713.421 755.12V755.776H707.709V756.048C707.709 757.328 708.493 758.24 709.901 758.24C710.925 758.24 711.613 757.76 712.093 756.992L713.117 758C712.493 759.008 711.277 759.68 709.725 759.68ZM709.725 752.336C708.525 752.336 707.709 753.232 707.709 754.512V754.624H711.581V754.464C711.581 753.184 710.877 752.336 709.725 752.336ZM717.096 759.488H715.352V751.168H717.096V752.544H717.176C717.528 751.648 718.232 750.976 719.512 750.976C721.208 750.976 722.216 752.16 722.216 754.208V759.488H720.472V754.432C720.472 753.136 719.976 752.48 718.904 752.48C717.992 752.48 717.096 752.944 717.096 753.92V759.488ZM728.457 759.488H726.937C725.737 759.488 725.097 758.816 725.097 757.68V752.592H723.801V751.168H724.505C725.081 751.168 725.273 750.928 725.273 750.352V748.896H726.841V751.168H728.585V752.592H726.841V758.064H728.457V759.488Z" fill="black"/>
<rect x="540.588" y="745.488" width="8" height="8" rx="4" fill="black" fill-opacity="0.08"/>
<rect x="554.588" y="745.488" width="8" height="8" rx="4" fill="black" fill-opacity="0.08"/>
<rect x="568.588" y="745.488" width="8" height="8" rx="4" fill="black" fill-opacity="0.08"/>
<g filter="url(#filter5_bddd_776_84281)">
<path d="M540.588 787.488C540.588 781.965 545.065 777.488 550.588 777.488H844.588C850.111 777.488 854.588 781.965 854.588 787.488V967.488C854.588 973.011 850.111 977.488 844.588 977.488H550.588C545.065 977.488 540.588 973.011 540.588 967.488V787.488Z" fill="white" fill-opacity="0.6" shape-rendering="crispEdges"/>
<path d="M541.088 787.488C541.088 782.242 545.341 777.988 550.588 777.988H844.588C849.835 777.988 854.088 782.242 854.088 787.488V967.488C854.088 972.735 849.835 976.988 844.588 976.988H550.588C545.341 976.988 541.088 972.735 541.088 967.488V787.488Z" stroke="white" stroke-opacity="0.2" shape-rendering="crispEdges"/>
<g clip-path="url(#clip0_776_84281)">
<g opacity="0.1">
<rect x="556.588" y="793.488" width="282" height="50" rx="4" fill="#1D5BD7"/>
</g>
<path opacity="0.3" d="M544.838 835.228L549.919 832.82C555.001 830.411 565.164 825.595 575.327 826.063C585.49 826.531 595.653 832.284 605.816 834.06C615.98 835.837 626.143 833.636 636.306 827.253C646.469 820.87 656.632 810.305 666.795 805.875C676.958 801.445 687.121 803.151 697.284 811.251C707.447 819.352 709.318 834.216 727.774 834.669C745.77 835.112 748.744 815.488 766.754 815.488C781.033 815.488 783.735 830.823 799.173 838.488C814.61 846.153 843.17 826.063 843.17 826.063" stroke="black" stroke-width="2" stroke-linecap="round"/>
</g>
<path d="M556.588 859.488H838.588" stroke="black" stroke-opacity="0.1"/>
<g opacity="0.2">
<rect x="556.588" y="875.488" width="133" height="64" rx="4" fill="#1D5BD7"/>
<path d="M650.588 907.488C650.588 922.4 638.5 934.488 623.588 934.488C608.676 934.488 596.588 922.4 596.588 907.488C596.588 892.577 608.676 880.488 623.588 880.488C638.5 880.488 650.588 892.577 650.588 907.488ZM607.388 907.488C607.388 916.435 614.641 923.688 623.588 923.688C632.535 923.688 639.788 916.435 639.788 907.488C639.788 898.541 632.535 891.288 623.588 891.288C614.641 891.288 607.388 898.541 607.388 907.488Z" fill="white" fill-opacity="0.1"/>
<path d="M645.188 907.488C648.17 907.488 650.642 909.93 650.05 912.852C649.144 917.319 647.116 921.514 644.119 925.023C639.944 929.912 634.161 933.15 627.812 934.156C621.462 935.162 614.962 933.869 609.48 930.51C603.999 927.151 599.896 921.946 597.909 915.832C595.923 909.718 596.183 903.095 598.643 897.156C601.103 891.216 605.602 886.35 611.33 883.431C617.058 880.512 623.64 879.734 629.891 881.234C634.379 882.312 638.485 884.514 641.843 887.595C644.04 889.611 643.475 893.039 641.063 894.792C638.65 896.545 635.303 895.908 632.857 894.202C631.211 893.053 629.352 892.212 627.37 891.736C623.619 890.835 619.67 891.303 616.233 893.054C612.796 894.805 610.097 897.725 608.621 901.289C607.145 904.852 606.989 908.826 608.181 912.494C609.373 916.163 611.835 919.286 615.123 921.301C618.412 923.316 622.312 924.092 626.122 923.489C629.932 922.885 633.401 920.942 635.906 918.009C637.231 916.459 638.239 914.686 638.896 912.789C639.872 909.971 642.206 907.488 645.188 907.488Z" fill="#1E428A"/>
</g>
<g opacity="0.1">
<rect x="556.588" y="947.488" width="31" height="4" rx="2" fill="black" fill-opacity="0.5"/>
</g>
<g opacity="0.2">
<rect x="705.588" y="875.488" width="133" height="64" rx="4" fill="#1D5BD7"/>
<path fill-rule="evenodd" clip-rule="evenodd" d="M744.588 897.488C744.588 895.279 746.379 893.488 748.588 893.488C750.797 893.488 752.588 895.279 752.588 897.488V931.488C752.588 933.697 750.797 935.488 748.588 935.488C746.379 935.488 744.588 933.697 744.588 931.488L744.588 897.488Z" fill="#1E428A"/>
<path fill-rule="evenodd" clip-rule="evenodd" d="M760.588 887.488C760.588 885.279 762.379 883.488 764.588 883.488C766.797 883.488 768.588 885.279 768.588 887.488V931.488C768.588 933.697 766.797 935.488 764.588 935.488C762.379 935.488 760.588 933.697 760.588 931.488L760.588 887.488Z" fill="#1E428A"/>
<path fill-rule="evenodd" clip-rule="evenodd" d="M776.588 907.488C776.588 905.279 778.379 903.488 780.588 903.488C782.797 903.488 784.588 905.279 784.588 907.488V931.488C784.588 933.697 782.797 935.488 780.588 935.488C778.379 935.488 776.588 933.697 776.588 931.488L776.588 907.488Z" fill="#1E428A"/>
<path fill-rule="evenodd" clip-rule="evenodd" d="M792.588 883.488C792.588 881.279 794.379 879.488 796.588 879.488C798.797 879.488 800.588 881.279 800.588 883.488V931.488C800.588 933.697 798.797 935.488 796.588 935.488C794.379 935.488 792.588 933.697 792.588 931.488L792.588 883.488Z" fill="#1E428A"/>
</g>
<g opacity="0.1">
<rect x="705.588" y="947.488" width="35" height="4" rx="2" fill="black" fill-opacity="0.5"/>
</g>
</g>
</g>
<path d="M223.338 189.896L223.406 190.212L223.722 190.28L229.472 191.515L223.722 192.749L223.406 192.817L223.338 193.133L222.104 198.883L220.869 193.133L220.801 192.817L220.485 192.749L214.735 191.515L220.485 190.28L220.801 190.212L220.869 189.896L222.104 184.146L223.338 189.896Z" fill="#8B55F7" stroke="#316FED"/>
<path d="M611.377 195.73L611.445 196.046L611.761 196.114L617.511 197.349L611.761 198.583L611.445 198.651L611.377 198.967L610.143 204.717L608.908 198.967L608.84 198.651L608.524 198.583L602.774 197.349L608.524 196.114L608.84 196.046L608.908 195.73L610.143 189.98L611.377 195.73Z" fill="#8B55F7" stroke="#316FED"/>
<path d="M611.377 396.775L611.445 397.091L611.761 397.159L617.511 398.394L611.761 399.628L611.445 399.696L611.377 400.012L610.143 405.762L608.908 400.012L608.84 399.696L608.524 399.628L602.774 398.394L608.524 397.159L608.84 397.091L608.908 396.775L610.143 391.025L611.377 396.775Z" fill="#8B55F7" stroke="#316FED"/>
<path d="M213.588 546.873L213.656 547.189L213.972 547.256L219.722 548.491L213.972 549.726L213.656 549.794L213.588 550.11L212.354 555.86L211.119 550.11L211.051 549.794L210.735 549.726L204.985 548.491L210.735 547.256L211.051 547.189L211.119 546.873L212.354 541.123L213.588 546.873Z" fill="#8B55F7" stroke="#316FED"/>
<g filter="url(#filter6_d_776_84281)">
<rect x="290.742" y="262.752" width="239.835" height="239.835" rx="16" fill="white"/>
<rect x="291.742" y="263.752" width="237.835" height="237.835" rx="15" stroke="#E1E6EF" stroke-width="2"/>
<g clip-path="url(#clip1_776_84281)">
<path d="M460.544 424.896V432.589H360.58V332.59H460.544V424.896ZM452.854 424.896V401.736H445.16V424.896H452.854ZM452.854 394.043V371.051H429.692V394.043H452.854ZM452.854 363.358V355.665H429.692V363.358H452.854ZM452.854 347.976V340.283H429.692V347.976H452.854ZM437.474 424.896V401.736H429.692V424.896H437.474ZM422.002 417.203V401.725H414.403V409.464H406.805V417.203H422.002ZM422.002 394.043V371.051H414.403V394.043H422.002ZM422.002 355.616V340.283H406.717V347.895L406.671 348.029H399.027V363.358H414.403V355.62L422.002 355.616ZM406.717 409.341V401.736H399.027V409.341H406.717ZM406.717 394.043V371.051H399.027V394.043H406.717ZM391.337 424.896V401.736H368.27V424.896H391.337ZM391.337 394.043V371.051H383.647V394.043H391.337ZM391.337 363.358V348.029H391.273V340.29H383.647V363.365L391.337 363.358ZM375.96 394.043V371.051H368.27V394.043H375.96ZM375.96 363.358V340.283H368.27V363.358H375.96Z" fill="#1A1A1A"/>
<path d="M452.849 401.735H445.159V424.895H452.849V401.735Z" fill="#40A8F5"/>
<path d="M452.851 371.053H429.693V394.044H452.851V371.053Z" fill="#40A8F5"/>
<path d="M452.851 355.666H429.693V363.359H452.851V355.666Z" fill="#FF5353"/>
<path d="M452.851 340.283H429.693V347.976H452.851V340.283Z" fill="#FFDF3A"/>
<path d="M437.471 401.735H429.693V424.895H437.471V401.735Z" fill="#FFDF3A"/>
<path d="M422.005 401.735V417.202H406.805V409.467H414.403V401.735H422.005Z" fill="#FF5353"/>
<path d="M422.002 371.053H414.403V394.044H422.002V371.053Z" fill="#FFDF3A"/>
<path d="M422.005 340.283V355.616H414.403H414.357V347.895H406.713V340.283H422.005Z" fill="#40A8F5"/>
<path d="M414.403 355.616V363.358H399.026V348.028H406.667V355.616H414.357H414.403Z" fill="#FFDF3A"/>
<path d="M414.358 347.896V355.617H406.668V348.029L406.714 347.896H414.358Z" fill="#1A1A1A"/>
<path d="M406.716 401.735H399.026V409.34H406.716V401.735Z" fill="#28F77E"/>
<path d="M406.716 371.053H399.026V394.044H406.716V371.053Z" fill="#FF5353"/>
<path d="M391.337 401.735V424.895H368.271V401.735H375.957H383.647H391.337Z" fill="#40A8F5"/>
<path d="M391.338 371.053H383.647V394.044H391.338V371.053Z" fill="#40A8F5"/>
<path d="M391.338 348.029V363.359H383.647V340.283H391.285V348.029H391.338Z" fill="#FFDF3A"/>
<path d="M375.961 371.053H368.271V394.044H375.961V371.053Z" fill="#FFDF3A"/>
<path d="M375.961 340.283H368.271V363.359H375.961V340.283Z" fill="#FF5353"/>
</g>
</g>
<rect x="279.702" y="251.86" width="261.62" height="261.619" rx="18.26" stroke="#316FED" stroke-width="2.2"/>
<rect opacity="0.8" x="266.62" y="238.779" width="287.781" height="287.781" rx="20.086" stroke="#316FED" stroke-width="2.42"/>
<rect opacity="0.4" x="252.231" y="224.391" width="316.56" height="316.559" rx="22.099" stroke="#316FED" stroke-width="2.662"/>
<rect opacity="0.2" x="236.404" y="208.563" width="348.216" height="348.215" rx="24.3089" stroke="#316FED" stroke-width="2.9282"/>
<path d="M410.511 562.242V647.489" stroke="#6194FA" stroke-width="3" stroke-linecap="round" stroke-linejoin="bevel"/>
<path d="M410.512 562.242V619.865C410.512 633.12 421.257 643.865 434.512 643.865H673.588C686.843 643.865 697.588 654.611 697.588 667.865V725.489" stroke="#6194FA" stroke-width="3" stroke-linecap="round" stroke-linejoin="bevel"/>
<g filter="url(#filter7_d_776_84281)">
<rect x="351.346" y="6" width="132" height="36" rx="4" fill="url(#paint0_linear_776_84281)" shape-rendering="crispEdges"/>
<rect x="351.625" y="6.279" width="131.442" height="35.442" rx="3.72099" stroke="white" stroke-opacity="0.3" stroke-width="0.55801" shape-rendering="crispEdges"/>
<path d="M371.271 28.7736C374.055 28.7736 376.312 26.5053 376.312 23.7071C376.312 20.909 374.055 18.6406 371.271 18.6406C368.487 18.6406 366.23 20.909 366.23 23.7071C366.23 26.5053 368.487 28.7736 371.271 28.7736Z" fill="#FFD21E"/>
<path d="M376.312 23.7073C376.312 20.9092 374.055 18.6408 371.271 18.6408C368.487 18.6408 366.231 20.9092 366.231 23.7073C366.231 26.5054 368.487 28.7738 371.271 28.7738C374.055 28.7738 376.312 26.5054 376.312 23.7073ZM365.65 23.7073C365.65 20.5871 368.167 18.0576 371.271 18.0576C374.376 18.0576 376.892 20.5871 376.892 23.7073C376.892 26.8275 374.376 29.357 371.271 29.357C368.167 29.357 365.65 26.8275 365.65 23.7073Z" fill="#FF9D0B"/>
<path d="M372.91 22.3287C373.095 22.3943 373.168 22.7763 373.355 22.6765C373.709 22.4875 373.843 22.0461 373.655 21.6906C373.467 21.3351 373.028 21.2002 372.674 21.3892C372.32 21.5782 372.186 22.0196 372.374 22.3751C372.463 22.5429 372.745 22.2701 372.91 22.3287Z" fill="#3A3B45"/>
<path d="M369.492 22.3287C369.307 22.3943 369.234 22.7763 369.047 22.6765C368.693 22.4875 368.559 22.0461 368.747 21.6906C368.935 21.3351 369.374 21.2002 369.728 21.3892C370.082 21.5782 370.216 22.0196 370.028 22.3751C369.939 22.5429 369.657 22.2701 369.492 22.3287Z" fill="#3A3B45"/>
<path d="M371.235 25.8271C372.661 25.8271 373.121 24.5495 373.121 23.8934C373.121 23.5524 372.893 23.6598 372.528 23.8415C372.19 24.0095 371.736 24.241 371.235 24.241C370.194 24.241 369.35 23.2373 369.35 23.8934C369.35 24.5495 369.81 25.8271 371.235 25.8271Z" fill="#3A3B45"/>
<path d="M374.68 23.0151C374.941 23.0151 375.152 22.8029 375.152 22.5412C375.152 22.2795 374.941 22.0674 374.68 22.0674C374.42 22.0674 374.209 22.2795 374.209 22.5412C374.209 22.8029 374.42 23.0151 374.68 23.0151Z" fill="#FF9D0B"/>
<path d="M367.935 23.0151C368.196 23.0151 368.407 22.8029 368.407 22.5412C368.407 22.2795 368.196 22.0674 367.935 22.0674C367.675 22.0674 367.464 22.2795 367.464 22.5412C367.464 22.8029 367.675 23.0151 367.935 23.0151Z" fill="#FF9D0B"/>
<path d="M366.966 24.6182C366.731 24.6182 366.521 24.7151 366.374 24.891C366.284 24.9999 366.189 25.1754 366.182 25.4383C366.083 25.4098 365.988 25.394 365.9 25.394C365.675 25.394 365.472 25.4806 365.328 25.6379C365.144 25.8398 365.062 26.088 365.098 26.3363C365.115 26.4545 365.154 26.5605 365.213 26.6586C365.089 26.7594 364.998 26.8996 364.953 27.0683C364.919 27.2005 364.884 27.476 365.068 27.7597C365.057 27.7782 365.046 27.7974 365.035 27.8171C364.924 28.0291 364.917 28.2687 365.015 28.4917C365.164 28.8298 365.533 29.0962 366.251 29.3821C366.697 29.56 367.105 29.6737 367.109 29.6747C367.699 29.8286 368.233 29.9067 368.695 29.9067C369.544 29.9067 370.152 29.6453 370.502 29.1297C371.065 28.2996 370.984 27.5403 370.256 26.8083C369.853 26.4033 369.584 25.8061 369.529 25.6751C369.416 25.2869 369.118 24.8555 368.624 24.8555H368.623C368.582 24.8555 368.54 24.8589 368.498 24.8654C368.282 24.8997 368.092 25.0251 367.957 25.2137C367.811 25.0312 367.669 24.886 367.54 24.8041C367.347 24.6807 367.154 24.6182 366.966 24.6182ZM366.966 25.2014C367.04 25.2014 367.13 25.233 367.23 25.2966C367.539 25.4938 368.136 26.5254 368.355 26.9266C368.428 27.061 368.553 27.1179 368.666 27.1179C368.89 27.1179 369.064 26.8944 368.686 26.6104C368.118 26.183 368.317 25.4845 368.589 25.4415C368.601 25.4396 368.612 25.4387 368.624 25.4387C368.87 25.4387 368.979 25.8659 368.979 25.8659C368.979 25.8659 369.298 26.6707 369.846 27.2208C370.393 27.7711 370.422 28.2127 370.022 28.8011C369.75 29.2024 369.229 29.3235 368.695 29.3235C368.141 29.3235 367.573 29.1932 367.255 29.1102C367.239 29.1061 365.304 28.5566 365.549 28.0889C365.59 28.0103 365.658 27.9788 365.743 27.9788C366.088 27.9788 366.716 28.4952 366.986 28.4952C367.047 28.4952 367.089 28.4694 367.107 28.4064C367.222 27.9916 365.358 27.8173 365.515 27.2164C365.542 27.1101 365.618 27.067 365.723 27.0671C366.179 27.0671 367.203 27.8735 367.417 27.8735C367.434 27.8735 367.446 27.8687 367.452 27.8585C367.559 27.6842 367.501 27.5624 366.743 27.1015C365.985 26.6405 365.453 26.3632 365.756 26.0323C365.791 25.9941 365.84 25.9771 365.9 25.9771C366.36 25.9773 367.447 26.9713 367.447 26.9713C367.447 26.9713 367.74 27.278 367.917 27.278C367.958 27.278 367.993 27.2618 368.016 27.2218C368.142 27.0087 366.848 26.0231 366.775 25.6164C366.726 25.3409 366.81 25.2014 366.966 25.2014Z" fill="#FF9D0B"/>
<path d="M370.022 28.8019C370.421 28.2135 370.393 27.7718 369.845 27.2216C369.297 26.6715 368.979 25.8667 368.979 25.8667C368.979 25.8667 368.859 25.3993 368.588 25.4423C368.317 25.4853 368.118 26.1838 368.686 26.6111C369.254 27.0383 368.573 27.3286 368.354 26.9274C368.136 26.5261 367.539 25.4946 367.229 25.2974C366.92 25.1001 366.702 25.2106 366.775 25.6172C366.848 26.0239 368.142 27.0095 368.016 27.2228C367.89 27.4359 367.446 26.9721 367.446 26.9721C367.446 26.9721 366.058 25.7021 365.756 26.0331C365.453 26.364 365.985 26.6413 366.742 27.1023C367.5 27.5632 367.559 27.685 367.452 27.8593C367.344 28.0337 365.671 26.6164 365.514 27.2172C365.357 27.8181 367.221 27.9924 367.106 28.4072C366.991 28.8222 365.793 27.6221 365.548 28.0897C365.303 28.5574 367.239 29.1069 367.254 29.111C367.879 29.274 369.467 29.6194 370.022 28.8019Z" fill="#FFD21E"/>
<path d="M375.651 24.6182C375.885 24.6182 376.095 24.7151 376.242 24.891C376.332 24.9999 376.427 25.1754 376.434 25.4383C376.533 25.4098 376.628 25.394 376.716 25.394C376.941 25.394 377.144 25.4806 377.288 25.6379C377.472 25.8398 377.554 26.088 377.518 26.3363C377.501 26.4545 377.462 26.5605 377.403 26.6586C377.527 26.7594 377.619 26.8996 377.663 27.0683C377.697 27.2005 377.733 27.476 377.548 27.7597C377.559 27.7782 377.571 27.7974 377.581 27.8171C377.692 28.0291 377.699 28.2687 377.601 28.4917C377.452 28.8298 377.083 29.0962 376.365 29.3821C375.919 29.56 375.511 29.6737 375.507 29.6747C374.917 29.8286 374.383 29.9067 373.921 29.9067C373.072 29.9067 372.464 29.6453 372.114 29.1297C371.551 28.2996 371.632 27.5403 372.36 26.8083C372.764 26.4033 373.032 25.8061 373.087 25.6751C373.2 25.2869 373.498 24.8555 373.992 24.8555H373.993C374.034 24.8555 374.076 24.8589 374.118 24.8654C374.335 24.8997 374.524 25.0251 374.659 25.2137C374.805 25.0312 374.947 24.886 375.076 24.8041C375.269 24.6807 375.463 24.6182 375.651 24.6182ZM375.651 25.2014C375.577 25.2014 375.486 25.233 375.387 25.2966C375.077 25.4938 374.48 26.5254 374.261 26.9266C374.188 27.061 374.063 27.1179 373.95 27.1179C373.727 27.1179 373.552 26.8944 373.93 26.6104C374.498 26.183 374.299 25.4845 374.027 25.4415C374.016 25.4396 374.004 25.4387 373.992 25.4387C373.746 25.4387 373.637 25.8659 373.637 25.8659C373.637 25.8659 373.318 26.6707 372.771 27.2208C372.223 27.7711 372.194 28.2127 372.594 28.8011C372.866 29.2024 373.387 29.3235 373.921 29.3235C374.475 29.3235 375.043 29.1932 375.361 29.1102C375.377 29.1061 377.313 28.5566 377.067 28.0889C377.026 28.0103 376.958 27.9788 376.873 27.9788C376.528 27.9788 375.9 28.4952 375.63 28.4952C375.569 28.4952 375.527 28.4694 375.51 28.4064C375.394 27.9916 377.258 27.8173 377.101 27.2164C377.074 27.1101 376.999 27.067 376.893 27.0671C376.437 27.0671 375.413 27.8735 375.199 27.8735C375.182 27.8735 375.171 27.8687 375.164 27.8585C375.057 27.6842 375.116 27.5624 375.873 27.1015C376.631 26.6405 377.163 26.3632 376.86 26.0323C376.825 25.9941 376.776 25.9771 376.716 25.9771C376.256 25.9773 375.169 26.9713 375.169 26.9713C375.169 26.9713 374.876 27.278 374.699 27.278C374.658 27.278 374.623 27.2618 374.6 27.2218C374.474 27.0087 375.768 26.0231 375.841 25.6164C375.89 25.3409 375.806 25.2014 375.651 25.2014Z" fill="#FF9D0B"/>
<path d="M372.594 28.8019C372.195 28.2135 372.223 27.7718 372.771 27.2216C373.319 26.6715 373.638 25.8667 373.638 25.8667C373.638 25.8667 373.757 25.3993 374.028 25.4423C374.299 25.4853 374.498 26.1838 373.93 26.6111C373.362 27.0383 374.043 27.3286 374.262 26.9274C374.48 26.5261 375.077 25.4946 375.387 25.2974C375.696 25.1001 375.914 25.2106 375.841 25.6172C375.768 26.0239 374.474 27.0095 374.6 27.2228C374.726 27.4359 375.17 26.9721 375.17 26.9721C375.17 26.9721 376.558 25.7021 376.861 26.0331C377.163 26.364 376.631 26.6413 375.874 27.1023C375.116 27.5632 375.057 27.685 375.165 27.8593C375.272 28.0337 376.945 26.6164 377.102 27.2172C377.259 27.8181 375.395 27.9924 375.51 28.4072C375.625 28.8222 376.823 27.6221 377.068 28.0897C377.313 28.5574 375.378 29.1069 375.362 29.111C374.737 29.274 373.149 29.6194 372.594 28.8019Z" fill="#FFD21E"/>
<mask id="mask0_776_84281" style="mask-type:alpha" maskUnits="userSpaceOnUse" x="369" y="23" width="5" height="3">
<path d="M371.235 25.8271C372.661 25.8271 373.121 24.5495 373.121 23.8934C373.121 23.5524 372.893 23.6598 372.528 23.8415C372.19 24.0095 371.736 24.241 371.235 24.241C370.194 24.241 369.35 23.2373 369.35 23.8934C369.35 24.5495 369.81 25.8271 371.235 25.8271Z" fill="white"/>
</mask>
<g mask="url(#mask0_776_84281)">
<path d="M371.272 27.3165C371.967 27.3165 372.53 26.7503 372.53 26.052C372.53 25.508 372.188 25.0443 371.709 24.8658C371.691 24.8592 371.673 24.8531 371.655 24.8473C371.534 24.8084 371.405 25.226 371.272 25.226C371.147 25.226 371.026 24.8058 370.912 24.8399C370.393 24.9953 370.014 25.4792 370.014 26.052C370.014 26.7503 370.577 27.3165 371.272 27.3165Z" fill="#F94040"/>
</g>
<path d="M394.708 29V24.6106H389.804V29H388.638V19.3043H389.804V23.5827H394.708V19.3043H395.875V29H394.708ZM402.765 29V27.8332H402.709C402.431 28.5138 401.89 29.1667 400.695 29.1667C399.223 29.1667 398.278 28.1666 398.278 26.4302V21.8324H399.389V26.2358C399.389 27.5137 399.959 28.1666 401.028 28.1666C401.904 28.1666 402.765 27.736 402.765 26.7914V21.8324H403.876V29H402.765ZM412.285 29.7918C412.285 31.2642 411.118 31.9448 408.812 31.9448C406.576 31.9448 405.659 31.3058 405.659 30.1807C405.659 29.4028 406.09 28.9861 406.798 28.7916V28.6388C406.395 28.4444 406.159 28.1249 406.159 27.6387C406.159 26.9164 406.673 26.5691 407.395 26.3886V26.333C406.548 25.9302 406.048 25.1384 406.048 24.1383C406.048 22.6798 407.117 21.6658 408.743 21.6658C409.257 21.6658 409.715 21.763 410.104 21.9436V21.8185C410.104 21.2629 410.34 20.8601 410.937 20.8601H412.007V21.8324H410.646V22.2908C411.16 22.7353 411.465 23.3743 411.465 24.1383C411.465 25.5968 410.396 26.6108 408.757 26.6108C408.52 26.6108 408.27 26.583 408.062 26.5414C407.59 26.6664 407.117 26.9025 407.117 27.347C407.117 27.7776 407.562 27.8887 408.215 27.8887H409.743C411.521 27.8887 412.285 28.6111 412.285 29.7918ZM411.243 29.8751C411.243 29.3056 410.868 28.9305 409.757 28.9305H407.368C406.909 29.1389 406.701 29.4584 406.701 29.9029C406.701 30.528 407.131 31.0419 408.257 31.0419H409.284C410.521 31.0419 411.243 30.653 411.243 29.8751ZM408.757 25.7218C409.701 25.7218 410.298 25.2773 410.298 24.3327V23.9438C410.298 22.9992 409.701 22.5547 408.757 22.5547C407.812 22.5547 407.215 22.9992 407.215 23.9438V24.3327C407.215 25.2773 407.812 25.7218 408.757 25.7218ZM419.651 29.7918C419.651 31.2642 418.484 31.9448 416.178 31.9448C413.942 31.9448 413.025 31.3058 413.025 30.1807C413.025 29.4028 413.455 28.9861 414.164 28.7916V28.6388C413.761 28.4444 413.525 28.1249 413.525 27.6387C413.525 26.9164 414.039 26.5691 414.761 26.3886V26.333C413.914 25.9302 413.414 25.1384 413.414 24.1383C413.414 22.6798 414.483 21.6658 416.109 21.6658C416.622 21.6658 417.081 21.763 417.47 21.9436V21.8185C417.47 21.2629 417.706 20.8601 418.303 20.8601H419.373V21.8324H418.012V22.2908C418.525 22.7353 418.831 23.3743 418.831 24.1383C418.831 25.5968 417.762 26.6108 416.122 26.6108C415.886 26.6108 415.636 26.583 415.428 26.5414C414.956 26.6664 414.483 26.9025 414.483 27.347C414.483 27.7776 414.928 27.8887 415.581 27.8887H417.109C418.887 27.8887 419.651 28.6111 419.651 29.7918ZM418.609 29.8751C418.609 29.3056 418.234 28.9305 417.123 28.9305H414.733C414.275 29.1389 414.067 29.4584 414.067 29.9029C414.067 30.528 414.497 31.0419 415.622 31.0419H416.65C417.887 31.0419 418.609 30.653 418.609 29.8751ZM416.122 25.7218C417.067 25.7218 417.664 25.2773 417.664 24.3327V23.9438C417.664 22.9992 417.067 22.5547 416.122 22.5547C415.178 22.5547 414.581 22.9992 414.581 23.9438V24.3327C414.581 25.2773 415.178 25.7218 416.122 25.7218ZM421.503 20.1517C421.03 20.1517 420.822 19.9016 420.822 19.5266V19.346C420.822 18.971 421.03 18.7209 421.503 18.7209C421.975 18.7209 422.183 18.971 422.183 19.346V19.5266C422.183 19.9016 421.975 20.1517 421.503 20.1517ZM420.947 29V21.8324H422.058V29H420.947ZM425.531 29H424.42V21.8324H425.531V22.9992H425.586C425.934 22.1936 426.545 21.6658 427.614 21.6658C429.087 21.6658 430.017 22.6659 430.017 24.4022V29H428.906V24.5967C428.906 23.3187 428.351 22.6659 427.281 22.6659C426.392 22.6659 425.531 23.1104 425.531 24.0272V29ZM438.357 29.7918C438.357 31.2642 437.19 31.9448 434.884 31.9448C432.648 31.9448 431.731 31.3058 431.731 30.1807C431.731 29.4028 432.162 28.9861 432.87 28.7916V28.6388C432.467 28.4444 432.231 28.1249 432.231 27.6387C432.231 26.9164 432.745 26.5691 433.467 26.3886V26.333C432.62 25.9302 432.12 25.1384 432.12 24.1383C432.12 22.6798 433.19 21.6658 434.815 21.6658C435.329 21.6658 435.787 21.763 436.176 21.9436V21.8185C436.176 21.2629 436.412 20.8601 437.009 20.8601H438.079V21.8324H436.718V22.2908C437.232 22.7353 437.537 23.3743 437.537 24.1383C437.537 25.5968 436.468 26.6108 434.829 26.6108C434.592 26.6108 434.342 26.583 434.134 26.5414C433.662 26.6664 433.19 26.9025 433.19 27.347C433.19 27.7776 433.634 27.8887 434.287 27.8887H435.815C437.593 27.8887 438.357 28.6111 438.357 29.7918ZM437.315 29.8751C437.315 29.3056 436.94 28.9305 435.829 28.9305H433.44C432.981 29.1389 432.773 29.4584 432.773 29.9029C432.773 30.528 433.203 31.0419 434.329 31.0419H435.356C436.593 31.0419 437.315 30.653 437.315 29.8751ZM434.829 25.7218C435.773 25.7218 436.37 25.2773 436.37 24.3327V23.9438C436.37 22.9992 435.773 22.5547 434.829 22.5547C433.884 22.5547 433.287 22.9992 433.287 23.9438V24.3327C433.287 25.2773 433.884 25.7218 434.829 25.7218ZM444.214 29H443.047V19.3043H448.826V20.3322H444.214V23.5827H448.423V24.6106H444.214V29ZM455.973 29H455.348C454.528 29 454.195 28.4999 454.112 27.8332H454.042C453.737 28.7083 452.973 29.1667 451.972 29.1667C450.458 29.1667 449.569 28.3332 449.569 26.9997C449.569 25.6524 450.542 24.9023 452.625 24.9023H454.042V24.1938C454.042 23.1798 453.487 22.6242 452.348 22.6242C451.486 22.6242 450.917 23.0409 450.528 23.6938L449.861 23.0687C450.25 22.3047 451.111 21.6658 452.403 21.6658C454.126 21.6658 455.153 22.5686 455.153 24.0827V28.0277H455.973V29ZM452.153 28.2221C453.25 28.2221 454.042 27.6526 454.042 26.9164V25.7357H452.57C451.306 25.7357 450.736 26.1246 450.736 26.8192V27.1109C450.736 27.8193 451.292 28.2221 452.153 28.2221ZM460.226 29.1667C458.212 29.1667 457.031 27.7082 457.031 25.4162C457.031 23.1243 458.212 21.6658 460.226 21.6658C461.643 21.6658 462.49 22.3603 462.907 23.3465L461.976 23.8188C461.712 23.0826 461.101 22.652 460.226 22.652C458.906 22.652 458.226 23.5549 458.226 24.805V26.0274C458.226 27.2776 458.906 28.1805 460.226 28.1805C461.129 28.1805 461.782 27.7498 462.171 26.9303L462.976 27.472C462.518 28.4999 461.587 29.1667 460.226 29.1667ZM467.158 29.1667C465.214 29.1667 463.936 27.6943 463.936 25.4162C463.936 23.1382 465.214 21.6658 467.158 21.6658C469.075 21.6658 470.256 23.1382 470.256 25.1662V25.694H465.103V26.0274C465.103 27.2637 465.894 28.1943 467.228 28.1943C468.131 28.1943 468.825 27.7498 469.2 26.9581L469.992 27.5276C469.534 28.4999 468.506 29.1667 467.158 29.1667ZM467.158 22.5964C465.95 22.5964 465.103 23.5132 465.103 24.7634V24.8606H469.061V24.7078C469.061 23.4437 468.297 22.5964 467.158 22.5964Z" fill="#171717"/>
</g>
<g filter="url(#filter8_d_776_84281)">
<rect x="222.104" y="6" width="83" height="36" rx="4" fill="url(#paint1_linear_776_84281)" shape-rendering="crispEdges"/>
<rect x="222.383" y="6.279" width="82.442" height="35.442" rx="3.72099" stroke="white" stroke-opacity="0.3" stroke-width="0.55801" shape-rendering="crispEdges"/>
<g clip-path="url(#clip2_776_84281)">
<g clip-path="url(#clip3_776_84281)">
<mask id="mask1_776_84281" style="mask-type:luminance" maskUnits="userSpaceOnUse" x="234" y="17" width="16" height="14">
<path d="M249.615 17.501H234.639V30.3355H249.615V17.501Z" fill="white"/>
</mask>
<g mask="url(#mask1_776_84281)">
<path d="M249.026 27.3958C248.228 27.8131 244.088 29.5161 243.196 29.9836C242.304 30.451 241.826 30.4377 241.129 30.1043C240.431 29.7708 236.04 27.985 235.244 27.6045C234.843 27.4163 234.639 27.2557 234.639 27.1053V25.5905C234.639 25.5905 240.375 24.3457 241.3 24.0102C242.226 23.6748 242.546 23.6666 243.333 23.955C244.119 24.2434 248.835 25.0944 249.613 25.3767V26.8701C249.613 27.0255 249.434 27.1769 249.026 27.3948V27.3958Z" fill="#A32422"/>
<path d="M249.026 25.8879C248.228 26.3032 244.088 28.0062 243.196 28.4654C242.304 28.9247 241.826 28.9206 241.129 28.5882C240.431 28.2557 236.04 26.4699 235.244 26.0925C234.448 25.715 234.433 25.4511 235.214 25.1463C235.994 24.8415 240.375 23.1262 241.3 22.7887C242.226 22.4512 242.546 22.444 243.333 22.7335C244.119 23.0229 248.242 24.6605 249.017 24.9459C249.791 25.2312 249.827 25.4655 249.026 25.8797V25.8879Z" fill="#DC382C"/>
<path d="M249.026 24.928C248.228 25.3443 244.088 27.0463 243.196 27.5056C242.304 27.9648 241.83 27.9607 241.133 27.6263C240.435 27.2918 236.04 25.5162 235.244 25.1367C234.843 24.9465 234.639 24.7869 234.639 24.6355V23.1258C234.639 23.1258 240.375 21.8769 241.3 21.5414C242.226 21.206 242.546 21.1968 243.333 21.4893C244.119 21.7818 248.835 22.6246 249.613 22.909V24.4023C249.613 24.5578 249.434 24.7132 249.026 24.928Z" fill="#A32422"/>
<path d="M249.025 23.4133C248.228 23.8307 244.087 25.5327 243.195 25.9919C242.303 26.4512 241.826 26.4481 241.128 26.1146C240.431 25.7812 236.04 24.0025 235.244 23.622C234.448 23.2415 234.434 22.9827 235.213 22.6779C235.993 22.3731 240.374 20.6537 241.3 20.3254C242.226 19.9971 242.546 19.9766 243.332 20.262C244.119 20.5474 248.242 22.1992 249.016 22.4764C249.791 22.7536 249.826 22.9971 249.025 23.4103V23.4133Z" fill="#DC382C"/>
<path d="M249.026 22.3687C248.228 22.786 244.088 24.489 243.196 24.9472C242.304 25.4054 241.83 25.4024 241.133 25.07C240.435 24.7375 236.04 22.9568 235.244 22.5773C234.843 22.3891 234.639 22.2285 234.639 22.0772V20.5623C234.639 20.5623 240.375 19.3176 241.3 18.9831C242.226 18.6486 242.546 18.6384 243.333 18.9268C244.119 19.2153 248.833 20.0663 249.611 20.3506V21.8439C249.613 22.0015 249.434 22.1549 249.026 22.3687Z" fill="#A32422"/>
<path d="M249.026 20.8556C248.228 21.2647 244.088 22.978 243.196 23.4331C242.304 23.8883 241.826 23.8872 241.129 23.5559C240.431 23.2245 236.04 21.4417 235.244 21.0632C234.448 20.6848 234.433 20.4219 235.214 20.1171C235.994 19.8123 240.375 18.0939 241.3 17.7605C242.226 17.427 242.546 17.4168 243.333 17.7053C244.119 17.9937 248.242 19.6333 249.017 19.9176C249.791 20.202 249.827 20.4383 249.026 20.8525V20.8556Z" fill="#DC382C"/>
</g>
<path d="M242.361 18.7041L243.349 18.3799L243.081 19.0202L244.087 19.3966L242.791 19.5316L242.499 20.2312L242.031 19.4508L240.532 19.3158L241.651 18.9128L241.315 18.293L242.361 18.7041Z" fill="white"/>
<path d="M242.423 22.7883L240.001 21.7829L243.47 21.25L242.423 22.7883Z" fill="white"/>
<path d="M239.065 19.7852C240.088 19.7852 240.92 20.1073 240.92 20.5011C240.92 20.8949 240.086 21.2171 239.065 21.2171C238.045 21.2171 237.21 20.8949 237.21 20.5011C237.21 20.1073 238.042 19.7852 239.065 19.7852Z" fill="white"/>
<path d="M245.621 19.5879L247.674 20.399L245.623 21.2101L245.621 19.5879Z" fill="#741113"/>
<path d="M245.621 19.5879L245.623 21.2101L245.4 21.297L243.349 20.4859L245.621 19.5879Z" fill="#AC2724"/>
</g>
</g>
<path d="M260.562 24.8328V29H259.395V19.3043H263.257C264.952 19.3043 265.966 20.2906 265.966 22.0547C265.966 23.4715 265.285 24.43 264.021 24.7217L266.243 29H264.924L262.826 24.8328H260.562ZM260.562 23.8327H263.257C264.174 23.8327 264.715 23.3326 264.715 22.4436V21.7213C264.715 20.8323 264.174 20.3322 263.257 20.3322H260.562V23.8327ZM270.661 29.1667C268.716 29.1667 267.438 27.6943 267.438 25.4162C267.438 23.1382 268.716 21.6658 270.661 21.6658C272.578 21.6658 273.758 23.1382 273.758 25.1662V25.694H268.605V26.0274C268.605 27.2637 269.397 28.1943 270.73 28.1943C271.633 28.1943 272.328 27.7498 272.703 26.9581L273.494 27.5276C273.036 28.4999 272.008 29.1667 270.661 29.1667ZM270.661 22.5964C269.452 22.5964 268.605 23.5132 268.605 24.7634V24.8606H272.564V24.7078C272.564 23.4437 271.8 22.5964 270.661 22.5964ZM280.173 29V27.8332H280.118C279.687 28.7222 279.007 29.1667 278.02 29.1667C276.228 29.1667 275.103 27.7082 275.103 25.4162C275.103 23.1243 276.228 21.6658 278.02 21.6658C279.007 21.6658 279.743 22.0964 280.118 22.9992H280.173V18.7209H281.285V29H280.173ZM278.326 28.1666C279.34 28.1666 280.173 27.6387 280.173 26.708V24.041C280.173 23.2493 279.34 22.6659 278.326 22.6659C277.076 22.6659 276.298 23.5271 276.298 24.805V26.0274C276.298 27.3053 277.076 28.1666 278.326 28.1666ZM284.203 20.1517C283.73 20.1517 283.522 19.9016 283.522 19.5266V19.346C283.522 18.971 283.73 18.7209 284.203 18.7209C284.675 18.7209 284.883 18.971 284.883 19.346V19.5266C284.883 19.9016 284.675 20.1517 284.203 20.1517ZM283.647 29V21.8324H284.758V29H283.647ZM289.273 29.1667C287.953 29.1667 287.078 28.6111 286.439 27.7637L287.231 27.1248C287.786 27.8193 288.453 28.2221 289.356 28.2221C290.301 28.2221 290.856 27.7915 290.856 27.0553C290.856 26.4997 290.551 26.0691 289.606 25.9302L289.037 25.8468C287.717 25.6524 286.731 25.1106 286.731 23.7771C286.731 22.3603 287.828 21.6658 289.287 21.6658C290.44 21.6658 291.204 22.0964 291.787 22.8187L291.051 23.4854C290.731 23.0409 290.12 22.6103 289.203 22.6103C288.287 22.6103 287.8 23.0409 287.8 23.7216C287.8 24.4161 288.287 24.6939 289.176 24.8328L289.731 24.9162C291.315 25.1523 291.926 25.8468 291.926 26.9303C291.926 28.3194 290.912 29.1667 289.273 29.1667Z" fill="#171717"/>
</g>
<g filter="url(#filter9_d_776_84281)">
<rect x="529.588" y="6" width="96" height="36" rx="4" fill="url(#paint2_linear_776_84281)" shape-rendering="crispEdges"/>
<rect x="529.867" y="6.279" width="95.442" height="35.442" rx="3.72099" stroke="white" stroke-opacity="0.3" stroke-width="0.55801" shape-rendering="crispEdges"/>
<path d="M548.763 17.2061C547.284 17.2061 545.971 18.158 545.513 19.5631C545.043 19.6599 544.6 19.8557 544.211 20.1374C543.823 20.4191 543.499 20.7803 543.261 21.1969C542.52 22.4784 542.689 24.0893 543.683 25.1877C543.376 26.1077 543.481 27.1144 543.971 27.9475C544.708 29.2335 546.191 29.8925 547.641 29.5859C547.959 29.9444 548.35 30.2311 548.787 30.4268C549.224 30.6225 549.698 30.7228 550.177 30.7209C551.655 30.7209 552.969 29.769 553.427 28.3639C554.378 28.1671 555.198 27.5721 555.674 26.7301C556.42 25.4486 556.25 23.8377 555.257 22.7393V22.7347C555.409 22.28 555.461 21.7982 555.412 21.3214C555.362 20.8447 555.211 20.3841 554.969 19.9704C554.232 18.689 552.749 18.0297 551.303 18.3364C550.984 17.9788 550.592 17.6931 550.154 17.4983C549.716 17.3034 549.242 17.2038 548.763 17.2061ZM548.763 18.0849L548.758 18.0894C549.353 18.0894 549.925 18.2954 550.383 18.6753C550.365 18.6844 550.328 18.7073 550.301 18.7211L547.61 20.2725C547.472 20.3504 547.39 20.4968 547.39 20.657V24.3L546.232 23.6319V20.6204C546.232 19.9487 546.498 19.3043 546.973 18.8288C547.447 18.3534 548.091 18.0859 548.763 18.0849ZM552.004 19.1455C552.45 19.1446 552.889 19.2615 553.275 19.4843C553.661 19.7071 553.982 20.028 554.204 20.4144C554.497 20.9271 554.607 21.5266 554.506 22.1078C554.488 22.094 554.452 22.0759 554.429 22.0621L551.738 20.5059C551.67 20.4676 551.593 20.4475 551.516 20.4475C551.438 20.4475 551.361 20.4676 551.294 20.5059L548.14 22.3274V20.9909L550.744 19.4852C551.127 19.2632 551.562 19.1462 552.004 19.1455ZM545.349 20.5288V23.7279C545.349 23.8881 545.431 24.03 545.568 24.1124L548.717 25.9293L547.554 26.602L544.955 25.1008C544.374 24.7641 543.95 24.2107 543.777 23.562C543.604 22.9133 543.695 22.2223 544.03 21.6408C544.327 21.1275 544.793 20.7343 545.349 20.5288ZM551.381 21.3205L553.985 22.8217C555.198 23.5219 555.609 25.0688 554.909 26.2817L554.914 26.2862C554.616 26.7989 554.149 27.1924 553.596 27.3939V24.1946C553.596 24.0344 553.513 23.8879 553.376 23.8102L550.223 21.9886L551.381 21.3205ZM549.467 22.4235L550.795 23.1924V24.7255L549.467 25.4944L548.14 24.7255V23.1924L549.467 22.4235ZM551.554 23.6319L552.712 24.3V27.3069C552.712 28.7074 551.577 29.8424 550.182 29.8424V29.8379C549.591 29.8379 549.014 29.6319 548.561 29.2521C548.58 29.2431 548.621 29.22 548.644 29.2062L551.335 27.6548C551.472 27.5769 551.559 27.4305 551.554 27.2703L551.554 23.6319ZM550.799 25.5998V26.936L548.195 28.4372C546.982 29.1329 545.435 28.721 544.735 27.5127H544.74C544.442 27.0046 544.337 26.4006 544.438 25.8194C544.456 25.8331 544.492 25.8513 544.515 25.8651L547.206 27.4213C547.274 27.4595 547.351 27.4797 547.428 27.4797C547.506 27.4797 547.583 27.4595 547.65 27.4213L550.799 25.5998Z" fill="#1D2433"/>
<path d="M570.505 29.1667C569.875 29.1667 569.306 29.0602 568.797 28.8472C568.297 28.625 567.866 28.3055 567.505 27.8887C567.153 27.4628 566.88 26.9396 566.685 26.3191C566.491 25.6894 566.394 24.9671 566.394 24.1522C566.394 23.3373 566.491 22.6196 566.685 21.9991C566.88 21.3787 567.153 20.8555 567.505 20.4295C567.866 20.0035 568.297 19.684 568.797 19.471C569.306 19.2488 569.875 19.1377 570.505 19.1377C571.126 19.1377 571.691 19.2488 572.2 19.471C572.709 19.684 573.14 20.0035 573.492 20.4295C573.853 20.8555 574.131 21.3787 574.325 21.9991C574.52 22.6196 574.617 23.3373 574.617 24.1522C574.617 24.9671 574.52 25.6894 574.325 26.3191C574.131 26.9396 573.853 27.4628 573.492 27.8887C573.14 28.3055 572.709 28.625 572.2 28.8472C571.691 29.0602 571.126 29.1667 570.505 29.1667ZM570.505 28.1249C570.922 28.1249 571.306 28.0508 571.658 27.9026C572.01 27.7545 572.311 27.5415 572.561 27.2637C572.82 26.9859 573.019 26.6525 573.158 26.2635C573.297 25.8746 573.367 25.4394 573.367 24.9578V23.3465C573.367 22.865 573.297 22.4297 573.158 22.0408C573.019 21.6519 572.82 21.3185 572.561 21.0407C572.311 20.7629 572.01 20.5499 571.658 20.4017C571.306 20.2535 570.922 20.1795 570.505 20.1795C570.088 20.1795 569.704 20.2535 569.352 20.4017C569 20.5499 568.695 20.7629 568.435 21.0407C568.185 21.3185 567.991 21.6519 567.852 22.0408C567.713 22.4297 567.644 22.865 567.644 23.3465V24.9578C567.644 25.4394 567.713 25.8746 567.852 26.2635C567.991 26.6525 568.185 26.9859 568.435 27.2637C568.695 27.5415 569 27.7545 569.352 27.9026C569.704 28.0508 570.088 28.1249 570.505 28.1249ZM576.603 21.8324H577.715V22.9992H577.77C577.955 22.5455 578.224 22.2121 578.576 21.9991C578.937 21.7769 579.367 21.6658 579.868 21.6658C580.312 21.6658 580.715 21.7537 581.076 21.9297C581.437 22.1056 581.743 22.3557 581.993 22.6798C582.252 23.0039 582.447 23.3974 582.576 23.8605C582.715 24.3235 582.785 24.8421 582.785 25.4162C582.785 25.9904 582.715 26.5089 582.576 26.972C582.447 27.435 582.252 27.8286 581.993 28.1527C581.743 28.4768 581.437 28.7268 581.076 28.9028C580.715 29.0787 580.312 29.1667 579.868 29.1667C578.895 29.1667 578.196 28.7222 577.77 27.8332H577.715V31.7781H576.603V21.8324ZM579.562 28.1666C580.192 28.1666 580.687 27.9721 581.048 27.5832C581.409 27.185 581.59 26.6664 581.59 26.0274V24.805C581.59 24.1661 581.409 23.6521 581.048 23.2632C580.687 22.865 580.192 22.6659 579.562 22.6659C579.312 22.6659 579.071 22.7029 578.84 22.777C578.617 22.8418 578.423 22.9344 578.256 23.0548C578.09 23.1752 577.955 23.3234 577.853 23.4993C577.761 23.666 577.715 23.8466 577.715 24.041V26.708C577.715 26.9396 577.761 27.1479 577.853 27.3331C577.955 27.5091 578.09 27.6619 578.256 27.7915C578.423 27.9119 578.617 28.0045 578.84 28.0693C579.071 28.1342 579.312 28.1666 579.562 28.1666ZM587.356 29.1667C586.865 29.1667 586.42 29.0787 586.022 28.9028C585.633 28.7268 585.295 28.4768 585.008 28.1527C584.73 27.8193 584.513 27.4257 584.355 26.972C584.207 26.5089 584.133 25.9904 584.133 25.4162C584.133 24.8513 584.207 24.3374 584.355 23.8744C584.513 23.4113 584.73 23.0178 585.008 22.6937C585.295 22.3603 585.633 22.1056 586.022 21.9297C586.42 21.7537 586.865 21.6658 587.356 21.6658C587.837 21.6658 588.268 21.7537 588.648 21.9297C589.027 22.1056 589.351 22.351 589.62 22.6659C589.888 22.9715 590.092 23.3373 590.231 23.7632C590.379 24.1892 590.453 24.6569 590.453 25.1662V25.694H585.3V26.0274C585.3 26.333 585.346 26.6201 585.439 26.8886C585.541 27.1479 585.68 27.3748 585.856 27.5693C586.041 27.7637 586.263 27.9165 586.522 28.0277C586.791 28.1388 587.092 28.1943 587.425 28.1943C587.879 28.1943 588.272 28.0878 588.606 27.8749C588.948 27.6619 589.212 27.3563 589.398 26.9581L590.189 27.5276C589.958 28.0184 589.597 28.4166 589.106 28.7222C588.615 29.0185 588.032 29.1667 587.356 29.1667ZM587.356 22.5964C587.05 22.5964 586.772 22.652 586.522 22.7631C586.272 22.865 586.055 23.0131 585.869 23.2076C585.693 23.4021 585.555 23.6336 585.453 23.9021C585.351 24.1614 585.3 24.4485 585.3 24.7634V24.8606H589.259V24.7078C589.259 24.0688 589.083 23.5595 588.731 23.1798C588.388 22.7909 587.93 22.5964 587.356 22.5964ZM592.284 29V21.8324H593.396V22.9992H593.451C593.627 22.5918 593.873 22.2677 594.187 22.0269C594.512 21.7861 594.942 21.6658 595.479 21.6658C596.22 21.6658 596.804 21.9065 597.23 22.3881C597.665 22.8603 597.882 23.5317 597.882 24.4022V29H596.771V24.5967C596.771 23.3095 596.229 22.6659 595.146 22.6659C594.924 22.6659 594.706 22.6937 594.493 22.7492C594.289 22.8048 594.104 22.8881 593.937 22.9992C593.771 23.1104 593.636 23.2539 593.535 23.4299C593.442 23.5965 593.396 23.7956 593.396 24.0272V29H592.284ZM606.361 29L605.388 26.1385H601.471L600.499 29H599.318L602.707 19.3043H604.194L607.583 29H606.361ZM603.458 20.3878H603.388L601.749 25.1106H605.097L603.458 20.3878ZM608.731 29V28.0277H610.092V20.2767H608.731V19.3043H612.62V20.2767H611.259V28.0277H612.62V29H608.731Z" fill="#171717"/>
</g>
<path d="M410.511 562.242V562.242C410.511 568.109 405.755 572.865 399.888 572.865H183.035C177.168 572.865 172.412 577.622 172.412 583.489V583.489" stroke="#6194FA" stroke-width="3" stroke-linecap="round" stroke-linejoin="bevel"/>
<defs>
<filter id="filter0_d_776_84281" x="0.412109" y="586.488" width="344" height="266" filterUnits="userSpaceOnUse" color-interpolation-filters="sRGB">
<feFlood flood-opacity="0" result="BackgroundImageFix"/>
<feColorMatrix in="SourceAlpha" type="matrix" values="0 0 0 0 0 0 0 0 0 0 0 0 0 0 0 0 0 0 127 0" result="hardAlpha"/>
<feOffset dy="2"/>
<feGaussianBlur stdDeviation="1"/>
<feComposite in2="hardAlpha" operator="out"/>
<feColorMatrix type="matrix" values="0 0 0 0 0 0 0 0 0 0 0 0 0 0 0 0 0 0 0.04 0"/>
<feBlend mode="normal" in2="BackgroundImageFix" result="effect1_dropShadow_776_84281"/>
<feBlend mode="normal" in="SourceGraphic" in2="effect1_dropShadow_776_84281" result="shape"/>
</filter>
<filter id="filter1_bddd_776_84281" x="-4.58789" y="615.488" width="354" height="240" filterUnits="userSpaceOnUse" color-interpolation-filters="sRGB">
<feFlood flood-opacity="0" result="BackgroundImageFix"/>
<feGaussianBlur in="BackgroundImageFix" stdDeviation="10"/>
<feComposite in2="SourceAlpha" operator="in" result="effect1_backgroundBlur_776_84281"/>
<feColorMatrix in="SourceAlpha" type="matrix" values="0 0 0 0 0 0 0 0 0 0 0 0 0 0 0 0 0 0 127 0" result="hardAlpha"/>
<feOffset dy="5"/>
<feGaussianBlur stdDeviation="2.5"/>
<feComposite in2="hardAlpha" operator="out"/>
<feColorMatrix type="matrix" values="0 0 0 0 0 0 0 0 0 0 0 0 0 0 0 0 0 0 0.05 0"/>
<feBlend mode="normal" in2="effect1_backgroundBlur_776_84281" result="effect2_dropShadow_776_84281"/>
<feColorMatrix in="SourceAlpha" type="matrix" values="0 0 0 0 0 0 0 0 0 0 0 0 0 0 0 0 0 0 127 0" result="hardAlpha"/>
<feOffset dy="2"/>
<feGaussianBlur stdDeviation="1"/>
<feComposite in2="hardAlpha" operator="out"/>
<feColorMatrix type="matrix" values="0 0 0 0 0 0 0 0 0 0 0 0 0 0 0 0 0 0 0.03 0"/>
<feBlend mode="normal" in2="effect2_dropShadow_776_84281" result="effect3_dropShadow_776_84281"/>
<feColorMatrix in="SourceAlpha" type="matrix" values="0 0 0 0 0 0 0 0 0 0 0 0 0 0 0 0 0 0 127 0" result="hardAlpha"/>
<feOffset dy="1"/>
<feComposite in2="hardAlpha" operator="out"/>
<feColorMatrix type="matrix" values="0 0 0 0 0 0 0 0 0 0 0 0 0 0 0 0 0 0 0.03 0"/>
<feBlend mode="normal" in2="effect3_dropShadow_776_84281" result="effect4_dropShadow_776_84281"/>
<feBlend mode="normal" in="SourceGraphic" in2="effect4_dropShadow_776_84281" result="shape"/>
</filter>
<filter id="filter2_d_776_84281" x="239.104" y="650.488" width="344" height="268" filterUnits="userSpaceOnUse" color-interpolation-filters="sRGB">
<feFlood flood-opacity="0" result="BackgroundImageFix"/>
<feColorMatrix in="SourceAlpha" type="matrix" values="0 0 0 0 0 0 0 0 0 0 0 0 0 0 0 0 0 0 127 0" result="hardAlpha"/>
<feOffset dy="2"/>
<feGaussianBlur stdDeviation="1"/>
<feComposite in2="hardAlpha" operator="out"/>
<feColorMatrix type="matrix" values="0 0 0 0 0 0 0 0 0 0 0 0 0 0 0 0 0 0 0.04 0"/>
<feBlend mode="normal" in2="BackgroundImageFix" result="effect1_dropShadow_776_84281"/>
<feBlend mode="normal" in="SourceGraphic" in2="effect1_dropShadow_776_84281" result="shape"/>
</filter>
<filter id="filter3_bddd_776_84281" x="234.104" y="679.488" width="354" height="242" filterUnits="userSpaceOnUse" color-interpolation-filters="sRGB">
<feFlood flood-opacity="0" result="BackgroundImageFix"/>
<feGaussianBlur in="BackgroundImageFix" stdDeviation="10"/>
<feComposite in2="SourceAlpha" operator="in" result="effect1_backgroundBlur_776_84281"/>
<feColorMatrix in="SourceAlpha" type="matrix" values="0 0 0 0 0 0 0 0 0 0 0 0 0 0 0 0 0 0 127 0" result="hardAlpha"/>
<feOffset dy="5"/>
<feGaussianBlur stdDeviation="2.5"/>
<feComposite in2="hardAlpha" operator="out"/>
<feColorMatrix type="matrix" values="0 0 0 0 0 0 0 0 0 0 0 0 0 0 0 0 0 0 0.05 0"/>
<feBlend mode="normal" in2="effect1_backgroundBlur_776_84281" result="effect2_dropShadow_776_84281"/>
<feColorMatrix in="SourceAlpha" type="matrix" values="0 0 0 0 0 0 0 0 0 0 0 0 0 0 0 0 0 0 127 0" result="hardAlpha"/>
<feOffset dy="2"/>
<feGaussianBlur stdDeviation="1"/>
<feComposite in2="hardAlpha" operator="out"/>
<feColorMatrix type="matrix" values="0 0 0 0 0 0 0 0 0 0 0 0 0 0 0 0 0 0 0.03 0"/>
<feBlend mode="normal" in2="effect2_dropShadow_776_84281" result="effect3_dropShadow_776_84281"/>
<feColorMatrix in="SourceAlpha" type="matrix" values="0 0 0 0 0 0 0 0 0 0 0 0 0 0 0 0 0 0 127 0" result="hardAlpha"/>
<feOffset dy="1"/>
<feComposite in2="hardAlpha" operator="out"/>
<feColorMatrix type="matrix" values="0 0 0 0 0 0 0 0 0 0 0 0 0 0 0 0 0 0 0.03 0"/>
<feBlend mode="normal" in2="effect3_dropShadow_776_84281" result="effect4_dropShadow_776_84281"/>
<feBlend mode="normal" in="SourceGraphic" in2="effect4_dropShadow_776_84281" result="shape"/>
</filter>
<filter id="filter4_d_776_84281" x="525.588" y="728.488" width="344" height="266" filterUnits="userSpaceOnUse" color-interpolation-filters="sRGB">
<feFlood flood-opacity="0" result="BackgroundImageFix"/>
<feColorMatrix in="SourceAlpha" type="matrix" values="0 0 0 0 0 0 0 0 0 0 0 0 0 0 0 0 0 0 127 0" result="hardAlpha"/>
<feOffset dy="2"/>
<feGaussianBlur stdDeviation="1"/>
<feComposite in2="hardAlpha" operator="out"/>
<feColorMatrix type="matrix" values="0 0 0 0 0 0 0 0 0 0 0 0 0 0 0 0 0 0 0.04 0"/>
<feBlend mode="normal" in2="BackgroundImageFix" result="effect1_dropShadow_776_84281"/>
<feBlend mode="normal" in="SourceGraphic" in2="effect1_dropShadow_776_84281" result="shape"/>
</filter>
<filter id="filter5_bddd_776_84281" x="520.588" y="757.488" width="354" height="240" filterUnits="userSpaceOnUse" color-interpolation-filters="sRGB">
<feFlood flood-opacity="0" result="BackgroundImageFix"/>
<feGaussianBlur in="BackgroundImageFix" stdDeviation="10"/>
<feComposite in2="SourceAlpha" operator="in" result="effect1_backgroundBlur_776_84281"/>
<feColorMatrix in="SourceAlpha" type="matrix" values="0 0 0 0 0 0 0 0 0 0 0 0 0 0 0 0 0 0 127 0" result="hardAlpha"/>
<feOffset dy="5"/>
<feGaussianBlur stdDeviation="2.5"/>
<feComposite in2="hardAlpha" operator="out"/>
<feColorMatrix type="matrix" values="0 0 0 0 0 0 0 0 0 0 0 0 0 0 0 0 0 0 0.05 0"/>
<feBlend mode="normal" in2="effect1_backgroundBlur_776_84281" result="effect2_dropShadow_776_84281"/>
<feColorMatrix in="SourceAlpha" type="matrix" values="0 0 0 0 0 0 0 0 0 0 0 0 0 0 0 0 0 0 127 0" result="hardAlpha"/>
<feOffset dy="2"/>
<feGaussianBlur stdDeviation="1"/>
<feComposite in2="hardAlpha" operator="out"/>
<feColorMatrix type="matrix" values="0 0 0 0 0 0 0 0 0 0 0 0 0 0 0 0 0 0 0.03 0"/>
<feBlend mode="normal" in2="effect2_dropShadow_776_84281" result="effect3_dropShadow_776_84281"/>
<feColorMatrix in="SourceAlpha" type="matrix" values="0 0 0 0 0 0 0 0 0 0 0 0 0 0 0 0 0 0 127 0" result="hardAlpha"/>
<feOffset dy="1"/>
<feComposite in2="hardAlpha" operator="out"/>
<feColorMatrix type="matrix" values="0 0 0 0 0 0 0 0 0 0 0 0 0 0 0 0 0 0 0.03 0"/>
<feBlend mode="normal" in2="effect3_dropShadow_776_84281" result="effect4_dropShadow_776_84281"/>
<feBlend mode="normal" in="SourceGraphic" in2="effect4_dropShadow_776_84281" result="shape"/>
</filter>
<filter id="filter6_d_776_84281" x="282.742" y="256.752" width="255.836" height="255.836" filterUnits="userSpaceOnUse" color-interpolation-filters="sRGB">
<feFlood flood-opacity="0" result="BackgroundImageFix"/>
<feColorMatrix in="SourceAlpha" type="matrix" values="0 0 0 0 0 0 0 0 0 0 0 0 0 0 0 0 0 0 127 0" result="hardAlpha"/>
<feOffset dy="2"/>
<feGaussianBlur stdDeviation="4"/>
<feColorMatrix type="matrix" values="0 0 0 0 0 0 0 0 0 0 0 0 0 0 0 0 0 0 0.12 0"/>
<feBlend mode="normal" in2="BackgroundImageFix" result="effect1_dropShadow_776_84281"/>
<feBlend mode="normal" in="SourceGraphic" in2="effect1_dropShadow_776_84281" result="shape"/>
</filter>
<filter id="filter7_d_776_84281" x="344.346" y="0.36" width="146" height="50" filterUnits="userSpaceOnUse" color-interpolation-filters="sRGB">
<feFlood flood-opacity="0" result="BackgroundImageFix"/>
<feColorMatrix in="SourceAlpha" type="matrix" values="0 0 0 0 0 0 0 0 0 0 0 0 0 0 0 0 0 0 127 0" result="hardAlpha"/>
<feOffset dy="1.36"/>
<feGaussianBlur stdDeviation="3.5"/>
<feComposite in2="hardAlpha" operator="out"/>
<feColorMatrix type="matrix" values="0 0 0 0 0 0 0 0 0 0 0 0 0 0 0 0 0 0 0.05 0"/>
<feBlend mode="normal" in2="BackgroundImageFix" result="effect1_dropShadow_776_84281"/>
<feBlend mode="normal" in="SourceGraphic" in2="effect1_dropShadow_776_84281" result="shape"/>
</filter>
<filter id="filter8_d_776_84281" x="215.104" y="0.36" width="97" height="50" filterUnits="userSpaceOnUse" color-interpolation-filters="sRGB">
<feFlood flood-opacity="0" result="BackgroundImageFix"/>
<feColorMatrix in="SourceAlpha" type="matrix" values="0 0 0 0 0 0 0 0 0 0 0 0 0 0 0 0 0 0 127 0" result="hardAlpha"/>
<feOffset dy="1.36"/>
<feGaussianBlur stdDeviation="3.5"/>
<feComposite in2="hardAlpha" operator="out"/>
<feColorMatrix type="matrix" values="0 0 0 0 0 0 0 0 0 0 0 0 0 0 0 0 0 0 0.05 0"/>
<feBlend mode="normal" in2="BackgroundImageFix" result="effect1_dropShadow_776_84281"/>
<feBlend mode="normal" in="SourceGraphic" in2="effect1_dropShadow_776_84281" result="shape"/>
</filter>
<filter id="filter9_d_776_84281" x="522.588" y="0.36" width="110" height="50" filterUnits="userSpaceOnUse" color-interpolation-filters="sRGB">
<feFlood flood-opacity="0" result="BackgroundImageFix"/>
<feColorMatrix in="SourceAlpha" type="matrix" values="0 0 0 0 0 0 0 0 0 0 0 0 0 0 0 0 0 0 127 0" result="hardAlpha"/>
<feOffset dy="1.36"/>
<feGaussianBlur stdDeviation="3.5"/>
<feComposite in2="hardAlpha" operator="out"/>
<feColorMatrix type="matrix" values="0 0 0 0 0 0 0 0 0 0 0 0 0 0 0 0 0 0 0.05 0"/>
<feBlend mode="normal" in2="BackgroundImageFix" result="effect1_dropShadow_776_84281"/>
<feBlend mode="normal" in="SourceGraphic" in2="effect1_dropShadow_776_84281" result="shape"/>
</filter>
<linearGradient id="paint0_linear_776_84281" x1="328.728" y1="0.992032" x2="352.38" y2="82.0443" gradientUnits="userSpaceOnUse">
<stop stop-color="white" stop-opacity="0.4"/>
<stop offset="1" stop-color="white" stop-opacity="0"/>
</linearGradient>
<linearGradient id="paint1_linear_776_84281" x1="207.882" y1="0.992032" x2="241.466" y2="73.3602" gradientUnits="userSpaceOnUse">
<stop stop-color="white" stop-opacity="0.4"/>
<stop offset="1" stop-color="white" stop-opacity="0"/>
</linearGradient>
<linearGradient id="paint2_linear_776_84281" x1="513.139" y1="0.992032" x2="543.535" y2="76.7498" gradientUnits="userSpaceOnUse">
<stop stop-color="white" stop-opacity="0.4"/>
<stop offset="1" stop-color="white" stop-opacity="0"/>
</linearGradient>
<clipPath id="clip0_776_84281">
<rect width="282" height="50" fill="white" transform="translate(556.588 793.488)"/>
</clipPath>
<clipPath id="clip1_776_84281">
<rect width="99.9601" height="99.9601" fill="white" transform="translate(360.58 332.59)"/>
</clipPath>
<clipPath id="clip2_776_84281">
<rect width="16" height="16" fill="white" transform="translate(234.104 16)"/>
</clipPath>
<clipPath id="clip3_776_84281">
<rect width="14.9333" height="12.8877" fill="white" transform="translate(234.637 17.498)"/>
</clipPath>
</defs>
</svg>
