<svg width="358" height="700" viewBox="0 0 358 700" fill="none" xmlns="http://www.w3.org/2000/svg">
<g filter="url(#filter0_bdddi_487_96143)">
<g clip-path="url(#clip0_487_96143)">
<path d="M137.635 60.0556C137.635 56.64 140.404 53.8711 143.819 53.8711H316.904C320.319 53.8711 323.088 56.64 323.088 60.0556V217.849C323.088 221.265 320.319 224.034 316.904 224.034H143.819C140.404 224.034 137.635 221.265 137.635 217.849V60.0556Z" fill="white" fill-opacity="0.1" shape-rendering="crispEdges"/>
<mask id="path-5-inside-1_487_96143" fill="white">
<path d="M137.635 53.8711H323.088V88.6528H137.635V53.8711Z"/>
</mask>
<path d="M137.635 53.8711H323.088V88.6528H137.635V53.8711Z" fill="white" fill-opacity="0.6"/>
<path d="M323.088 88.0346H137.635V89.271H323.088V88.0346Z" fill="white" fill-opacity="0.2" mask="url(#path-5-inside-1_487_96143)"/>
<path d="M148.079 74.7617V73.8518H149.019V68.7679H148.079V67.8579H151.086V68.7679H150.137V73.8518H151.086V74.7617H148.079ZM152.412 74.7617V69.6185H153.49V70.4691H153.539C153.651 70.1921 153.819 69.9614 154.044 69.7767C154.274 69.5921 154.588 69.4998 154.983 69.4998C155.511 69.4998 155.92 69.6745 156.21 70.024C156.506 70.3669 156.655 70.8581 156.655 71.4977V74.7617H155.577V71.6362C155.577 70.8318 155.254 70.4295 154.607 70.4295C154.469 70.4295 154.33 70.4493 154.192 70.4889C154.06 70.5218 153.941 70.5746 153.836 70.6471C153.73 70.7197 153.645 70.812 153.579 70.9241C153.519 71.0362 153.49 71.168 153.49 71.3197V74.7617H152.412ZM158.149 69.6185H159.227V70.4691H159.277C159.389 70.1592 159.57 69.9218 159.821 69.7569C160.078 69.5855 160.378 69.4998 160.721 69.4998C161.374 69.4998 161.878 69.7372 162.234 70.2119C162.59 70.6801 162.768 71.3395 162.768 72.1901C162.768 73.0407 162.59 73.7034 162.234 74.1782C161.878 74.6463 161.374 74.8804 160.721 74.8804C160.378 74.8804 160.078 74.7947 159.821 74.6232C159.57 74.4518 159.389 74.2144 159.277 73.9111H159.227V76.7399H158.149V69.6185ZM160.394 73.9507C160.77 73.9507 161.07 73.832 161.294 73.5946C161.519 73.3506 161.631 73.0308 161.631 72.6352V71.745C161.631 71.3494 161.519 71.0329 161.294 70.7955C161.07 70.5515 160.77 70.4295 160.394 70.4295C160.065 70.4295 159.788 70.5119 159.563 70.6768C159.339 70.835 159.227 71.0461 159.227 71.3098V73.0704C159.227 73.3341 159.339 73.5484 159.563 73.7133C159.788 73.8715 160.065 73.9507 160.394 73.9507ZM167.118 73.9111H167.079C167.032 74.0364 166.97 74.1584 166.891 74.2771C166.818 74.3958 166.722 74.5013 166.604 74.5936C166.492 74.6793 166.353 74.7485 166.188 74.8013C166.03 74.854 165.845 74.8804 165.634 74.8804C165.1 74.8804 164.685 74.709 164.388 74.3661C164.098 74.0232 163.953 73.532 163.953 72.8923V69.6185H165.031V72.7539C165.031 73.5517 165.361 73.9507 166.02 73.9507C166.159 73.9507 166.294 73.9342 166.426 73.9012C166.558 73.8617 166.673 73.8056 166.772 73.7331C166.877 73.6605 166.96 73.5682 167.019 73.4561C167.085 73.344 167.118 73.2122 167.118 73.0605V69.6185H168.196V74.7617H167.118V73.9111ZM171.164 74.7617C170.788 74.7617 170.505 74.6661 170.314 74.4749C170.122 74.2771 170.027 74.0001 170.027 73.6441V70.4988H169.226V69.6185H169.661C169.839 69.6185 169.961 69.5789 170.027 69.4998C170.099 69.4207 170.136 69.2921 170.136 69.114V68.214H171.105V69.6185H172.183V70.4988H171.105V73.8814H172.104V74.7617H171.164Z" fill="black"/>
<rect width="185.454" height="135.381" transform="translate(137.635 88.6523)" fill="white" fill-opacity="0.1"/>
<g filter="url(#filter1_bddd_487_96143)">
<path d="M147.525 110.907C147.525 105.078 147.525 102.164 149.336 100.354C151.147 98.543 154.061 98.543 159.889 98.543H300.834C306.662 98.543 309.576 98.543 311.387 100.354C313.197 102.164 313.197 105.078 313.197 110.907V201.779C313.197 207.607 313.197 210.521 311.387 212.332C309.576 214.142 306.662 214.142 300.834 214.142H159.889C154.061 214.142 151.147 214.142 149.336 212.332C147.525 210.521 147.525 207.607 147.525 201.779V110.907Z" fill="white" fill-opacity="0.6" shape-rendering="crispEdges"/>
<path d="M147.834 110.907C147.834 107.984 147.835 105.823 148.058 104.165C148.28 102.516 148.716 101.41 149.555 100.572C150.393 99.7338 151.498 99.2973 153.147 99.0756C154.805 98.8527 156.966 98.8521 159.889 98.8521H300.834C303.757 98.8521 305.918 98.8527 307.576 99.0756C309.225 99.2973 310.33 99.7338 311.168 100.572L311.387 100.354L311.168 100.572C312.006 101.41 312.443 102.516 312.665 104.165C312.887 105.823 312.888 107.984 312.888 110.907V201.779C312.888 204.702 312.887 206.863 312.665 208.521C312.443 210.17 312.006 211.275 311.168 212.113C310.33 212.951 309.225 213.388 307.576 213.61C305.918 213.833 303.757 213.833 300.834 213.833H159.889C156.966 213.833 154.805 213.833 153.147 213.61C151.498 213.388 150.393 212.951 149.555 212.113C148.716 211.275 148.28 210.17 148.058 208.521C147.835 206.863 147.834 204.702 147.834 201.779V110.907Z" stroke="white" stroke-opacity="0.5" stroke-width="0.618178" shape-rendering="crispEdges"/>
<g opacity="0.2">
<rect x="167.307" y="118.324" width="48.2179" height="3.70907" rx="1.85454" fill="black" fill-opacity="0.5"/>
</g>
<g opacity="0.6">
<rect x="167.307" y="136.87" width="74.7996" height="4.94543" rx="2.47271" fill="black" fill-opacity="0.5"/>
</g>
<rect x="167.307" y="156.651" width="126.108" height="0.618178" rx="0.309089" fill="black" fill-opacity="0.1"/>
<g opacity="0.2">
<rect x="167.307" y="172.106" width="126.108" height="3.70907" rx="1.85454" fill="black" fill-opacity="0.5"/>
</g>
<g opacity="0.2">
<rect x="167.307" y="190.651" width="110.036" height="3.70907" rx="1.85454" fill="black" fill-opacity="0.5"/>
</g>
<g filter="url(#filter2_bddd_487_96143)">
<rect x="281.016" y="110.907" width="19.7817" height="19.7817" rx="9.89085" fill="#007AFF" shape-rendering="crispEdges"/>
<rect x="281.325" y="111.216" width="19.1635" height="19.1635" rx="9.58177" stroke="white" stroke-opacity="0.5" stroke-width="0.618178" shape-rendering="crispEdges"/>
<g opacity="0.6">
<rect x="285.961" y="118.942" width="9.89085" height="3.70907" rx="1.85454" fill="black" fill-opacity="0.5"/>
</g>
</g>
</g>
</g>
<path d="M137.944 60.0556C137.944 56.8107 140.574 54.1802 143.819 54.1802H316.904C320.149 54.1802 322.779 56.8107 322.779 60.0556V217.849C322.779 221.094 320.149 223.725 316.904 223.725H143.819C140.574 223.725 137.944 221.094 137.944 217.849V60.0556Z" stroke="white" stroke-opacity="0.2" stroke-width="0.618178" shape-rendering="crispEdges"/>
</g>
<line x1="225.754" y1="229.283" x2="225.754" y2="255.939" stroke="#BED3FE" stroke-width="1.85454" stroke-dasharray="3.71 3.71"/>
<path d="M225.417 232.925C223.18 232.925 221.335 231.065 221.335 228.73C221.335 226.395 223.18 224.536 225.417 224.536C227.653 224.536 229.499 226.395 229.499 228.73C229.499 231.065 227.653 232.925 225.417 232.925Z" fill="#FBFCFD" stroke="#316FED" stroke-width="1.72613"/>
<path d="M225.417 260.134C223.18 260.134 221.335 258.274 221.335 255.939C221.335 253.604 223.18 251.745 225.417 251.745C227.653 251.745 229.499 253.604 229.499 255.939C229.499 258.274 227.653 260.134 225.417 260.134Z" fill="#FBFCFD" stroke="#316FED" stroke-width="1.72613"/>
<g filter="url(#filter3_bdddi_487_96143)">
<g clip-path="url(#clip1_487_96143)">
<path d="M137.635 267.182C137.635 263.766 140.404 260.997 143.819 260.997H316.904C320.319 260.997 323.088 263.766 323.088 267.182V433.012C323.088 436.427 320.319 439.196 316.904 439.196H143.819C140.404 439.196 137.635 436.427 137.635 433.012V267.182Z" fill="white" fill-opacity="0.1" shape-rendering="crispEdges"/>
<mask id="path-23-inside-2_487_96143" fill="white">
<path d="M137.635 260.997H323.088V295.779H137.635V260.997Z"/>
</mask>
<path d="M137.635 260.997H323.088V295.779H137.635V260.997Z" fill="white" fill-opacity="0.6"/>
<path d="M323.088 295.161H137.635V296.397H323.088V295.161Z" fill="white" fill-opacity="0.2" mask="url(#path-23-inside-2_487_96143)"/>
<path d="M153.658 276.606H153.608L153.064 277.724L151.551 280.483L150.038 277.724L149.494 276.606H149.444V281.888H148.376V274.984H149.701L151.551 278.495H151.61L153.46 274.984H154.726V281.888H153.658V276.606ZM158.37 282.006C158.014 282.006 157.688 281.944 157.391 281.818C157.101 281.693 156.854 281.515 156.649 281.284C156.445 281.047 156.287 280.763 156.174 280.434C156.062 280.097 156.006 279.725 156.006 279.316C156.006 278.907 156.062 278.538 156.174 278.208C156.287 277.872 156.445 277.588 156.649 277.358C156.854 277.12 157.101 276.939 157.391 276.814C157.688 276.688 158.014 276.626 158.37 276.626C158.726 276.626 159.049 276.688 159.34 276.814C159.636 276.939 159.887 277.12 160.091 277.358C160.296 277.588 160.454 277.872 160.566 278.208C160.678 278.538 160.734 278.907 160.734 279.316C160.734 279.725 160.678 280.097 160.566 280.434C160.454 280.763 160.296 281.047 160.091 281.284C159.887 281.515 159.636 281.693 159.34 281.818C159.049 281.944 158.726 282.006 158.37 282.006ZM158.37 281.116C158.74 281.116 159.036 281.004 159.26 280.78C159.485 280.549 159.597 280.206 159.597 279.751V278.881C159.597 278.426 159.485 278.086 159.26 277.862C159.036 277.631 158.74 277.516 158.37 277.516C158.001 277.516 157.704 277.631 157.48 277.862C157.256 278.086 157.144 278.426 157.144 278.881V279.751C157.144 280.206 157.256 280.549 157.48 280.78C157.704 281.004 158.001 281.116 158.37 281.116ZM165.17 281.037H165.12C165.008 281.34 164.824 281.578 164.566 281.749C164.316 281.921 164.019 282.006 163.676 282.006C163.023 282.006 162.519 281.772 162.163 281.304C161.807 280.829 161.629 280.167 161.629 279.316C161.629 278.465 161.807 277.806 162.163 277.338C162.519 276.863 163.023 276.626 163.676 276.626C164.019 276.626 164.316 276.711 164.566 276.883C164.824 277.048 165.008 277.285 165.12 277.595H165.17V274.568H166.248V281.888H165.17V281.037ZM164.003 281.077C164.332 281.077 164.609 280.998 164.833 280.839C165.058 280.674 165.17 280.46 165.17 280.196V278.436C165.17 278.172 165.058 277.961 164.833 277.803C164.609 277.638 164.332 277.556 164.003 277.556C163.627 277.556 163.327 277.677 163.103 277.921C162.878 278.159 162.766 278.475 162.766 278.871V279.761C162.766 280.157 162.878 280.477 163.103 280.721C163.327 280.958 163.627 281.077 164.003 281.077ZM169.807 282.006C169.437 282.006 169.108 281.944 168.817 281.818C168.527 281.693 168.28 281.515 168.076 281.284C167.871 281.047 167.713 280.763 167.601 280.434C167.495 280.097 167.443 279.725 167.443 279.316C167.443 278.907 167.495 278.538 167.601 278.208C167.713 277.872 167.871 277.588 168.076 277.358C168.28 277.12 168.527 276.939 168.817 276.814C169.108 276.688 169.437 276.626 169.807 276.626C170.182 276.626 170.512 276.692 170.796 276.824C171.086 276.955 171.326 277.14 171.518 277.377C171.709 277.608 171.851 277.879 171.943 278.189C172.042 278.498 172.091 278.831 172.091 279.187V279.593H168.56V279.761C168.56 280.157 168.676 280.483 168.906 280.74C169.144 280.991 169.48 281.116 169.915 281.116C170.232 281.116 170.499 281.047 170.717 280.909C170.934 280.77 171.119 280.582 171.27 280.345L171.903 280.968C171.712 281.284 171.435 281.538 171.073 281.729C170.71 281.914 170.288 282.006 169.807 282.006ZM169.807 277.466C169.622 277.466 169.45 277.499 169.292 277.565C169.141 277.631 169.009 277.724 168.897 277.842C168.791 277.961 168.709 278.103 168.649 278.268C168.59 278.432 168.56 278.614 168.56 278.812V278.881H170.954V278.782C170.954 278.386 170.852 278.07 170.647 277.832C170.443 277.588 170.163 277.466 169.807 277.466ZM174.383 281.888C174.013 281.888 173.736 281.795 173.552 281.611C173.374 281.42 173.285 281.156 173.285 280.819V274.568H174.363V281.007H175.075V281.888H174.383Z" fill="black"/>
<rect width="185.454" height="143.417" transform="translate(137.635 295.778)" fill="white" fill-opacity="0.1"/>
<g filter="url(#filter4_bddd_487_96143)">
<path d="M168.544 311.851C168.544 308.437 171.312 305.669 174.726 305.669H285.998C289.412 305.669 292.18 308.437 292.18 311.851V423.123C292.18 426.537 289.412 429.305 285.998 429.305H174.726C171.312 429.305 168.544 426.537 168.544 423.123V311.851Z" fill="#EFE7FE"/>
<path d="M168.853 311.851C168.853 308.607 171.482 305.978 174.726 305.978H285.998C289.241 305.978 291.871 308.607 291.871 311.851V423.123C291.871 426.366 289.241 428.996 285.998 428.996H174.726C171.482 428.996 168.853 426.366 168.853 423.123V311.851Z" stroke="white" stroke-opacity="0.2" stroke-width="0.618178"/>
<g opacity="0.2">
<rect x="217.689" y="315.56" width="25.3453" height="4.94543" rx="2.47271" fill="black" fill-opacity="0.5"/>
</g>
<g opacity="0.2">
<rect x="206.253" y="330.396" width="48.2179" height="2.47271" rx="1.23636" fill="black" fill-opacity="0.5"/>
</g>
<path d="M178.435 342.76H282.289" stroke="black" stroke-opacity="0.1" stroke-width="0.618178"/>
<path opacity="0.3" fill-rule="evenodd" clip-rule="evenodd" d="M199.453 391.595C199.453 389.888 200.837 388.504 202.544 388.504C204.251 388.504 205.635 389.888 205.635 391.595V411.377C205.635 413.084 204.251 414.467 202.544 414.467C200.837 414.467 199.453 413.084 199.453 411.377L199.453 391.595Z" fill="black"/>
<path opacity="0.3" fill-rule="evenodd" clip-rule="evenodd" d="M210.581 379.232C210.581 377.524 211.965 376.141 213.672 376.141C215.379 376.141 216.763 377.524 216.763 379.232V411.377C216.763 413.084 215.379 414.468 213.672 414.468C211.965 414.468 210.581 413.084 210.581 411.377V379.232Z" fill="black"/>
<path opacity="0.2" fill-rule="evenodd" clip-rule="evenodd" d="M221.708 355.741C221.708 354.034 223.092 352.65 224.799 352.65C226.506 352.65 227.89 354.034 227.89 355.741V411.377C227.89 413.084 226.506 414.468 224.799 414.468C223.092 414.468 221.708 413.084 221.708 411.377V355.741Z" fill="black"/>
<path opacity="0.2" fill-rule="evenodd" clip-rule="evenodd" d="M232.835 366.868C232.835 365.161 234.219 363.777 235.926 363.777C237.633 363.777 239.017 365.161 239.017 366.868V411.377C239.017 413.084 237.633 414.468 235.926 414.468C234.219 414.468 232.835 413.084 232.835 411.377L232.835 366.868Z" fill="black"/>
<path opacity="0.2" fill-rule="evenodd" clip-rule="evenodd" d="M243.963 360.687C243.963 358.98 245.347 357.596 247.054 357.596C248.761 357.596 250.145 358.98 250.145 360.687V411.377C250.145 413.084 248.761 414.468 247.054 414.468C245.347 414.468 243.963 413.084 243.963 411.377L243.963 360.687Z" fill="black"/>
<path opacity="0.3" fill-rule="evenodd" clip-rule="evenodd" d="M255.09 379.232C255.09 377.524 256.474 376.141 258.181 376.141C259.888 376.141 261.272 377.524 261.272 379.232V411.377C261.272 413.084 259.888 414.468 258.181 414.468C256.474 414.468 255.09 413.084 255.09 411.377L255.09 379.232Z" fill="black"/>
</g>
</g>
<path d="M137.944 267.182C137.944 263.937 140.574 261.306 143.819 261.306H316.904C320.149 261.306 322.779 263.937 322.779 267.182V433.012C322.779 436.257 320.149 438.887 316.904 438.887H143.819C140.574 438.887 137.944 436.257 137.944 433.012V267.182Z" stroke="white" stroke-opacity="0.2" stroke-width="0.618178" shape-rendering="crispEdges"/>
</g>
<line x1="228.226" y1="444.828" x2="228.226" y2="471.484" stroke="#BED3FE" stroke-width="1.85454" stroke-dasharray="3.71 3.71"/>
<path d="M227.891 448.47C225.654 448.47 223.808 446.61 223.808 444.275C223.808 441.94 225.654 440.081 227.891 440.081C230.127 440.081 231.973 441.94 231.973 444.275C231.973 446.61 230.127 448.47 227.891 448.47Z" fill="#FBFCFD" stroke="#316FED" stroke-width="1.72613"/>
<path d="M227.891 475.679C225.654 475.679 223.808 473.819 223.808 471.484C223.808 469.149 225.654 467.29 227.891 467.29C230.127 467.29 231.973 469.149 231.973 471.484C231.973 473.819 230.127 475.679 227.891 475.679Z" fill="#FBFCFD" stroke="#316FED" stroke-width="1.72613"/>
<g filter="url(#filter5_bdddi_487_96143)">
<g clip-path="url(#clip2_487_96143)">
<path d="M137.635 482.727C137.635 479.311 140.404 476.542 143.819 476.542H316.904C320.319 476.542 323.088 479.311 323.088 482.727V640.52C323.088 643.936 320.319 646.705 316.904 646.705H143.819C140.404 646.705 137.635 643.936 137.635 640.52V482.727Z" fill="white" fill-opacity="0.1" shape-rendering="crispEdges"/>
<mask id="path-42-inside-3_487_96143" fill="white">
<path d="M137.635 476.542H323.088V511.324H137.635V476.542Z"/>
</mask>
<path d="M137.635 476.542H323.088V511.324H137.635V476.542Z" fill="white" fill-opacity="0.6"/>
<path d="M323.088 510.706H137.635V511.942H323.088V510.706Z" fill="white" fill-opacity="0.2" mask="url(#path-42-inside-3_487_96143)"/>
<path d="M151.047 497.551C150.598 497.551 150.189 497.475 149.82 497.324C149.457 497.166 149.144 496.938 148.88 496.641C148.623 496.338 148.422 495.965 148.277 495.524C148.139 495.075 148.069 494.561 148.069 493.981C148.069 493.4 148.139 492.889 148.277 492.448C148.422 491.999 148.623 491.627 148.88 491.33C149.144 491.027 149.457 490.799 149.82 490.647C150.189 490.489 150.598 490.41 151.047 490.41C151.495 490.41 151.9 490.489 152.263 490.647C152.632 490.799 152.946 491.027 153.203 491.33C153.466 491.627 153.668 491.999 153.806 492.448C153.951 492.889 154.024 493.4 154.024 493.981C154.024 494.561 153.951 495.075 153.806 495.524C153.668 495.965 153.466 496.338 153.203 496.641C152.946 496.938 152.632 497.166 152.263 497.324C151.9 497.475 151.495 497.551 151.047 497.551ZM151.047 496.552C151.31 496.552 151.551 496.506 151.769 496.414C151.993 496.322 152.181 496.19 152.332 496.018C152.491 495.84 152.613 495.626 152.698 495.375C152.784 495.125 152.827 494.841 152.827 494.525V493.437C152.827 493.12 152.784 492.837 152.698 492.586C152.613 492.336 152.491 492.125 152.332 491.953C152.181 491.775 151.993 491.64 151.769 491.548C151.551 491.455 151.31 491.409 151.047 491.409C150.776 491.409 150.532 491.455 150.315 491.548C150.097 491.64 149.909 491.775 149.751 491.953C149.599 492.125 149.48 492.336 149.395 492.586C149.309 492.837 149.266 493.12 149.266 493.437V494.525C149.266 494.841 149.309 495.125 149.395 495.375C149.48 495.626 149.599 495.84 149.751 496.018C149.909 496.19 150.097 496.322 150.315 496.414C150.532 496.506 150.776 496.552 151.047 496.552ZM158.454 496.582H158.414C158.368 496.707 158.306 496.829 158.226 496.948C158.154 497.067 158.058 497.172 157.94 497.264C157.828 497.35 157.689 497.419 157.524 497.472C157.366 497.525 157.181 497.551 156.97 497.551C156.436 497.551 156.021 497.38 155.724 497.037C155.434 496.694 155.289 496.203 155.289 495.563V492.289H156.367V495.425C156.367 496.223 156.697 496.622 157.356 496.622C157.495 496.622 157.63 496.605 157.762 496.572C157.893 496.533 158.009 496.477 158.108 496.404C158.213 496.331 158.296 496.239 158.355 496.127C158.421 496.015 158.454 495.883 158.454 495.731V492.289H159.532V497.433H158.454V496.582ZM162.5 497.433C162.124 497.433 161.841 497.337 161.649 497.146C161.458 496.948 161.363 496.671 161.363 496.315V493.17H160.561V492.289H160.997C161.175 492.289 161.297 492.25 161.363 492.171C161.435 492.092 161.471 491.963 161.471 491.785V490.885H162.441V492.289H163.519V493.17H162.441V496.552H163.44V497.433H162.5ZM164.688 492.289H165.766V493.14H165.816C165.928 492.83 166.109 492.593 166.36 492.428C166.617 492.256 166.917 492.171 167.26 492.171C167.913 492.171 168.417 492.408 168.773 492.883C169.129 493.351 169.307 494.01 169.307 494.861C169.307 495.712 169.129 496.374 168.773 496.849C168.417 497.317 167.913 497.551 167.26 497.551C166.917 497.551 166.617 497.466 166.36 497.294C166.109 497.123 165.928 496.885 165.816 496.582H165.766V499.411H164.688V492.289ZM166.933 496.622C167.309 496.622 167.609 496.503 167.834 496.265C168.058 496.022 168.17 495.702 168.17 495.306V494.416C168.17 494.02 168.058 493.704 167.834 493.466C167.609 493.222 167.309 493.1 166.933 493.1C166.604 493.1 166.327 493.183 166.103 493.348C165.878 493.506 165.766 493.717 165.766 493.981V495.741C165.766 496.005 165.878 496.219 166.103 496.384C166.327 496.542 166.604 496.622 166.933 496.622ZM173.657 496.582H173.618C173.572 496.707 173.509 496.829 173.43 496.948C173.357 497.067 173.262 497.172 173.143 497.264C173.031 497.35 172.892 497.419 172.728 497.472C172.569 497.525 172.385 497.551 172.174 497.551C171.64 497.551 171.224 497.38 170.927 497.037C170.637 496.694 170.492 496.203 170.492 495.563V492.289H171.57V495.425C171.57 496.223 171.9 496.622 172.559 496.622C172.698 496.622 172.833 496.605 172.965 496.572C173.097 496.533 173.212 496.477 173.311 496.404C173.417 496.331 173.499 496.239 173.558 496.127C173.624 496.015 173.657 495.883 173.657 495.731V492.289H174.735V497.433H173.657V496.582ZM177.703 497.433C177.328 497.433 177.044 497.337 176.853 497.146C176.662 496.948 176.566 496.671 176.566 496.315V493.17H175.765V492.289H176.2C176.378 492.289 176.5 492.25 176.566 492.171C176.638 492.092 176.675 491.963 176.675 491.785V490.885H177.644V492.289H178.722V493.17H177.644V496.552H178.643V497.433H177.703Z" fill="black"/>
<rect width="185.454" height="135.381" transform="translate(137.635 511.323)" fill="white" fill-opacity="0.1"/>
<g filter="url(#filter6_bddd_487_96143)">
<path d="M147.525 533.577C147.525 527.749 147.525 524.835 149.336 523.024C151.147 521.214 154.061 521.214 159.889 521.214H300.834C306.662 521.214 309.576 521.214 311.387 523.024C313.197 524.835 313.197 527.749 313.197 533.577V624.45C313.197 630.278 313.197 633.192 311.387 635.003C309.576 636.813 306.662 636.813 300.834 636.813H159.889C154.061 636.813 151.147 636.813 149.336 635.003C147.525 633.192 147.525 630.278 147.525 624.45V533.577Z" fill="#EFE7FE" shape-rendering="crispEdges"/>
<path d="M147.834 533.577C147.834 530.655 147.835 528.494 148.058 526.836C148.28 525.186 148.716 524.081 149.555 523.243C150.393 522.405 151.498 521.968 153.147 521.747C154.805 521.524 156.966 521.523 159.889 521.523H300.834C303.757 521.523 305.918 521.524 307.576 521.747C309.225 521.968 310.33 522.405 311.168 523.243L311.387 523.024L311.168 523.243C312.006 524.081 312.443 525.186 312.665 526.836C312.887 528.494 312.888 530.655 312.888 533.577V624.45C312.888 627.373 312.887 629.534 312.665 631.192C312.443 632.841 312.006 633.946 311.168 634.784C310.33 635.622 309.225 636.059 307.576 636.281C305.918 636.503 303.757 636.504 300.834 636.504H159.889C156.966 636.504 154.805 636.503 153.147 636.281C151.498 636.059 150.393 635.622 149.555 634.784C148.716 633.946 148.28 632.841 148.058 631.192C147.835 629.534 147.834 627.373 147.834 624.45V533.577Z" stroke="white" stroke-opacity="0.5" stroke-width="0.618178" shape-rendering="crispEdges"/>
<g opacity="0.2">
<rect x="167.307" y="540.995" width="48.2179" height="3.70907" rx="1.85454" fill="black" fill-opacity="0.5"/>
</g>
<g opacity="0.6">
<rect x="167.307" y="559.541" width="74.7996" height="4.94543" rx="2.47271" fill="black" fill-opacity="0.5"/>
</g>
<rect x="167.307" y="579.322" width="126.108" height="0.618178" rx="0.309089" fill="black" fill-opacity="0.1"/>
<g opacity="0.2">
<rect x="167.307" y="594.777" width="126.108" height="3.70907" rx="1.85454" fill="black" fill-opacity="0.5"/>
</g>
<g opacity="0.2">
<rect x="167.307" y="613.322" width="110.036" height="3.70907" rx="1.85454" fill="black" fill-opacity="0.5"/>
</g>
<g filter="url(#filter7_bddd_487_96143)">
<rect x="281.016" y="533.578" width="19.7817" height="19.7817" rx="9.89085" fill="#8B55F7" shape-rendering="crispEdges"/>
<rect x="281.325" y="533.887" width="19.1635" height="19.1635" rx="9.58177" stroke="white" stroke-opacity="0.5" stroke-width="0.618178" shape-rendering="crispEdges"/>
<g opacity="0.6">
<rect x="285.961" y="541.613" width="9.89085" height="3.70907" rx="1.85454" fill="black" fill-opacity="0.5"/>
</g>
</g>
</g>
</g>
<path d="M137.944 482.727C137.944 479.482 140.574 476.851 143.819 476.851H316.904C320.149 476.851 322.779 479.482 322.779 482.727V640.52C322.779 643.765 320.149 646.396 316.904 646.396H143.819C140.574 646.396 137.944 643.765 137.944 640.52V482.727Z" stroke="white" stroke-opacity="0.2" stroke-width="0.618178" shape-rendering="crispEdges"/>
</g>
<path d="M68.9533 239.999L68.9533 292.32C68.9533 295.051 71.1675 297.265 73.8988 297.265L137.467 297.265" stroke="#BED3FE" stroke-width="1.85454" stroke-dasharray="3.71 3.71"/>
<path d="M68.6151 265.191C66.3786 265.191 64.5328 263.332 64.5328 260.997C64.5328 258.662 66.3786 256.803 68.6151 256.803C70.8516 256.803 72.6975 258.662 72.6975 260.997C72.6975 263.332 70.8516 265.191 68.6151 265.191Z" fill="#FBFCFD" stroke="#316FED" stroke-width="1.72613"/>
<path d="M132.691 301.46C130.455 301.46 128.609 299.6 128.609 297.265C128.609 294.931 130.455 293.071 132.691 293.071C134.928 293.071 136.774 294.931 136.774 297.265C136.774 299.6 134.928 301.46 132.691 301.46Z" fill="#FBFCFD" stroke="#316FED" stroke-width="1.72613"/>
<g filter="url(#filter8_bddd_487_96143)">
<path d="M6.79688 186.703C6.79688 183.289 9.56455 180.521 12.9787 180.521H124.251C127.665 180.521 130.433 183.289 130.433 186.703V249.921C130.433 253.335 127.665 256.103 124.251 256.103H12.9787C9.56456 256.103 6.79688 253.335 6.79688 249.921V186.703Z" fill="white" fill-opacity="0.6" shape-rendering="crispEdges"/>
<path d="M7.10596 186.703C7.10596 183.46 9.73526 180.831 12.9787 180.831H124.251C127.494 180.831 130.123 183.46 130.123 186.703V249.921C130.123 253.165 127.494 255.794 124.251 255.794H12.9787C9.73526 255.794 7.10596 253.165 7.10596 249.921V186.703Z" stroke="white" stroke-opacity="0.2" stroke-width="0.618178" shape-rendering="crispEdges"/>
<mask id="path-60-inside-4_487_96143" fill="white">
<path d="M16.6875 190.412H120.541V205.412H16.6875V190.412Z"/>
</mask>
<path d="M120.541 204.794H16.6875V206.03H120.541V204.794Z" fill="white" fill-opacity="0.2" mask="url(#path-60-inside-4_487_96143)"/>
<path d="M31.9927 201.412V194.508H36.3051V195.497H33.1104V197.416H35.9491V198.405H33.1104V201.412H31.9927ZM38.0985 195.349C37.8743 195.349 37.7094 195.296 37.6039 195.191C37.505 195.085 37.4556 194.95 37.4556 194.785V194.617C37.4556 194.452 37.505 194.317 37.6039 194.212C37.7094 194.106 37.8743 194.053 38.0985 194.053C38.3227 194.053 38.4842 194.106 38.5831 194.212C38.682 194.317 38.7315 194.452 38.7315 194.617V194.785C38.7315 194.95 38.682 195.085 38.5831 195.191C38.4842 195.296 38.3227 195.349 38.0985 195.349ZM37.5545 196.269H38.6326V201.412H37.5545V196.269ZM40.1721 201.412V196.269H41.2502V197.119H41.2996C41.4117 196.843 41.5799 196.612 41.8041 196.427C42.0348 196.242 42.3481 196.15 42.7437 196.15C43.2712 196.15 43.68 196.325 43.9702 196.674C44.2669 197.017 44.4152 197.509 44.4152 198.148V201.412H43.3371V198.287C43.3371 197.482 43.014 197.08 42.3678 197.08C42.2294 197.08 42.0909 197.1 41.9524 197.139C41.8205 197.172 41.7019 197.225 41.5964 197.298C41.4909 197.37 41.4051 197.462 41.3392 197.574C41.2798 197.687 41.2502 197.818 41.2502 197.97V201.412H40.1721ZM47.9273 201.531C47.558 201.531 47.2283 201.468 46.9382 201.343C46.6481 201.218 46.4008 201.04 46.1964 200.809C45.992 200.571 45.8337 200.288 45.7216 199.958C45.6161 199.622 45.5634 199.249 45.5634 198.84C45.5634 198.432 45.6161 198.062 45.7216 197.733C45.8337 197.396 45.992 197.113 46.1964 196.882C46.4008 196.645 46.6481 196.463 46.9382 196.338C47.2283 196.213 47.558 196.15 47.9273 196.15C48.3031 196.15 48.6328 196.216 48.9164 196.348C49.2065 196.48 49.4472 196.664 49.6384 196.902C49.8296 197.133 49.9714 197.403 50.0637 197.713C50.1626 198.023 50.2121 198.356 50.2121 198.712V199.117H46.681V199.286C46.681 199.681 46.7964 200.008 47.0272 200.265C47.2646 200.515 47.6009 200.641 48.0361 200.641C48.3526 200.641 48.6196 200.571 48.8372 200.433C49.0548 200.294 49.2395 200.107 49.3911 199.869L50.0241 200.492C49.8329 200.809 49.556 201.063 49.1933 201.254C48.8306 201.438 48.4086 201.531 47.9273 201.531ZM47.9273 196.991C47.7426 196.991 47.5712 197.024 47.413 197.09C47.2613 197.156 47.1294 197.248 47.0173 197.367C46.9118 197.485 46.8294 197.627 46.77 197.792C46.7107 197.957 46.681 198.138 46.681 198.336V198.405H49.0746V198.306C49.0746 197.911 48.9724 197.594 48.768 197.357C48.5636 197.113 48.2833 196.991 47.9273 196.991ZM51.3439 198.949V197.851H54.0836V198.949H51.3439ZM56.8963 201.412C56.5204 201.412 56.2369 201.316 56.0457 201.125C55.8544 200.927 55.7588 200.651 55.7588 200.294V197.149H54.9577V196.269H55.3929C55.5709 196.269 55.6929 196.229 55.7588 196.15C55.8314 196.071 55.8676 195.942 55.8676 195.764V194.864H56.8369V196.269H57.915V197.149H56.8369V200.532H57.8359V201.412H56.8963ZM62.2001 200.561H62.1605C62.1144 200.687 62.0517 200.809 61.9726 200.927C61.9001 201.046 61.8045 201.152 61.6858 201.244C61.5737 201.33 61.4352 201.399 61.2703 201.452C61.1121 201.504 60.9275 201.531 60.7165 201.531C60.1824 201.531 59.7669 201.359 59.4702 201.016C59.1801 200.674 59.035 200.182 59.035 199.543V196.269H60.1131V199.404C60.1131 200.202 60.4428 200.601 61.1022 200.601C61.2407 200.601 61.3758 200.585 61.5077 200.552C61.6396 200.512 61.755 200.456 61.8539 200.383C61.9594 200.311 62.0418 200.219 62.1012 200.107C62.1671 199.994 62.2001 199.863 62.2001 199.711V196.269H63.2782V201.412H62.2001V200.561ZM64.8219 201.412V196.269H65.9V197.119H65.9495C66.0616 196.843 66.2297 196.612 66.4539 196.427C66.6847 196.242 66.9979 196.15 67.3936 196.15C67.9211 196.15 68.3299 196.325 68.62 196.674C68.9168 197.017 69.0651 197.509 69.0651 198.148V201.412H67.987V198.287C67.987 197.482 67.6639 197.08 67.0177 197.08C66.8792 197.08 66.7408 197.1 66.6023 197.139C66.4704 197.172 66.3517 197.225 66.2462 197.298C66.1407 197.37 66.055 197.462 65.9891 197.574C65.9297 197.687 65.9 197.818 65.9 197.97V201.412H64.8219ZM71.1034 195.349C70.8792 195.349 70.7144 195.296 70.6089 195.191C70.51 195.085 70.4605 194.95 70.4605 194.785V194.617C70.4605 194.452 70.51 194.317 70.6089 194.212C70.7144 194.106 70.8792 194.053 71.1034 194.053C71.3276 194.053 71.4891 194.106 71.5881 194.212C71.687 194.317 71.7364 194.452 71.7364 194.617V194.785C71.7364 194.95 71.687 195.085 71.5881 195.191C71.4891 195.296 71.3276 195.349 71.1034 195.349ZM70.5594 196.269H71.6375V201.412H70.5594V196.269ZM73.177 201.412V196.269H74.2551V197.119H74.3046C74.4167 196.843 74.5848 196.612 74.809 196.427C75.0398 196.242 75.353 196.15 75.7486 196.15C76.2761 196.15 76.685 196.325 76.9751 196.674C77.2718 197.017 77.4202 197.509 77.4202 198.148V201.412H76.3421V198.287C76.3421 197.482 76.019 197.08 75.3728 197.08C75.2343 197.08 75.0958 197.1 74.9574 197.139C74.8255 197.172 74.7068 197.225 74.6013 197.298C74.4958 197.37 74.4101 197.462 74.3441 197.574C74.2848 197.687 74.2551 197.818 74.2551 197.97V201.412H73.177ZM83.4247 201.897C83.4247 202.431 83.2203 202.833 82.8115 203.103C82.4027 203.374 81.7367 203.509 80.8135 203.509C80.3915 203.509 80.0321 203.479 79.7354 203.42C79.4453 203.367 79.2046 203.288 79.0134 203.183C78.8288 203.077 78.6936 202.948 78.6079 202.797C78.5221 202.645 78.4793 202.47 78.4793 202.273C78.4793 201.989 78.5551 201.768 78.7068 201.61C78.865 201.452 79.0826 201.343 79.3596 201.284V201.175C78.9705 201.049 78.776 200.786 78.776 200.383C78.776 200.12 78.865 199.919 79.0431 199.78C79.2211 199.635 79.4354 199.533 79.686 199.474V199.434C79.3826 199.289 79.1486 199.088 78.9837 198.831C78.8255 198.567 78.7463 198.26 78.7463 197.911C78.7463 197.383 78.9211 196.958 79.2705 196.635C79.6266 196.312 80.1343 196.15 80.7937 196.15C81.1564 196.15 81.4663 196.203 81.7235 196.308V196.17C81.7235 195.939 81.7762 195.761 81.8817 195.636C81.9938 195.504 82.1653 195.438 82.3961 195.438H83.1873V196.308H82.1389V196.516C82.3697 196.668 82.5477 196.866 82.673 197.11C82.7983 197.347 82.8609 197.614 82.8609 197.911C82.8609 198.432 82.6829 198.854 82.3268 199.177C81.9708 199.493 81.463 199.652 80.8036 199.652C80.5531 199.652 80.3289 199.625 80.1311 199.572C79.9992 199.619 79.8838 199.685 79.7849 199.77C79.686 199.849 79.6365 199.955 79.6365 200.087C79.6365 200.225 79.6992 200.324 79.8244 200.383C79.9497 200.443 80.1278 200.472 80.3585 200.472H81.6246C82.2576 200.472 82.7159 200.601 82.9994 200.858C83.2829 201.109 83.4247 201.455 83.4247 201.897ZM82.4158 202.015C82.4158 201.837 82.3466 201.696 82.2081 201.59C82.0763 201.485 81.8323 201.432 81.4762 201.432H79.7354C79.498 201.57 79.3793 201.768 79.3793 202.025C79.3793 202.236 79.4618 202.404 79.6266 202.53C79.7981 202.662 80.0849 202.728 80.4871 202.728H81.1597C81.9971 202.728 82.4158 202.49 82.4158 202.015ZM80.8036 198.87C81.1201 198.87 81.3641 198.801 81.5356 198.662C81.7136 198.517 81.8026 198.296 81.8026 198V197.802C81.8026 197.505 81.7136 197.288 81.5356 197.149C81.3641 197.004 81.1201 196.932 80.8036 196.932C80.4871 196.932 80.2399 197.004 80.0618 197.149C79.8904 197.288 79.8047 197.505 79.8047 197.802V198C79.8047 198.296 79.8904 198.517 80.0618 198.662C80.2399 198.801 80.4871 198.87 80.8036 198.87ZM89.7987 200.561H89.7493C89.6372 200.865 89.4526 201.102 89.1954 201.274C88.9448 201.445 88.6481 201.531 88.3052 201.531C87.6524 201.531 87.148 201.297 86.7919 200.829C86.4359 200.354 86.2578 199.691 86.2578 198.84C86.2578 197.99 86.4359 197.33 86.7919 196.862C87.148 196.388 87.6524 196.15 88.3052 196.15C88.6481 196.15 88.9448 196.236 89.1954 196.407C89.4526 196.572 89.6372 196.81 89.7493 197.119H89.7987V194.093H90.8768V201.412H89.7987V200.561ZM88.6316 200.601C88.9613 200.601 89.2383 200.522 89.4625 200.364C89.6866 200.199 89.7987 199.985 89.7987 199.721V197.96C89.7987 197.696 89.6866 197.485 89.4625 197.327C89.2383 197.162 88.9613 197.08 88.6316 197.08C88.2558 197.08 87.9557 197.202 87.7316 197.446C87.5074 197.683 87.3953 198 87.3953 198.395V199.286C87.3953 199.681 87.5074 200.001 87.7316 200.245C87.9557 200.482 88.2558 200.601 88.6316 200.601ZM96.1862 201.412C95.9027 201.412 95.6851 201.333 95.5334 201.175C95.3818 201.01 95.2895 200.802 95.2565 200.552H95.207C95.1081 200.875 94.9268 201.119 94.663 201.284C94.3993 201.448 94.0795 201.531 93.7036 201.531C93.1695 201.531 92.7574 201.392 92.4673 201.115C92.1837 200.838 92.042 200.466 92.042 199.998C92.042 199.483 92.2266 199.098 92.5958 198.84C92.9717 198.583 93.519 198.455 94.2377 198.455H95.1675V198.02C95.1675 197.703 95.0817 197.459 94.9103 197.288C94.7389 197.116 94.4718 197.03 94.1091 197.03C93.8058 197.03 93.5586 197.096 93.3673 197.228C93.1761 197.36 93.0146 197.528 92.8827 197.733L92.2398 197.149C92.4112 196.859 92.6519 196.622 92.9618 196.437C93.2717 196.246 93.6772 196.15 94.1784 196.15C94.8444 196.15 95.3554 196.305 95.7115 196.615C96.0675 196.925 96.2456 197.37 96.2456 197.95V200.532H96.7896V201.412H96.1862ZM94.0102 200.71C94.3465 200.71 94.6235 200.637 94.8411 200.492C95.0587 200.341 95.1675 200.139 95.1675 199.889V199.147H94.2575C93.5124 199.147 93.1398 199.378 93.1398 199.839V200.017C93.1398 200.248 93.2157 200.423 93.3673 200.542C93.5256 200.654 93.7399 200.71 94.0102 200.71ZM99.2415 201.412C98.8656 201.412 98.5821 201.316 98.3909 201.125C98.1997 200.927 98.1041 200.651 98.1041 200.294V197.149H97.3029V196.269H97.7381C97.9161 196.269 98.0381 196.229 98.1041 196.15C98.1766 196.071 98.2129 195.942 98.2129 195.764V194.864H99.1822V196.269H100.26V197.149H99.1822V200.532H100.181V201.412H99.2415ZM105.198 201.412C104.915 201.412 104.697 201.333 104.545 201.175C104.394 201.01 104.301 200.802 104.268 200.552H104.219C104.12 200.875 103.939 201.119 103.675 201.284C103.411 201.448 103.091 201.531 102.716 201.531C102.181 201.531 101.769 201.392 101.479 201.115C101.196 200.838 101.054 200.466 101.054 199.998C101.054 199.483 101.238 199.098 101.608 198.84C101.984 198.583 102.531 198.455 103.25 198.455H104.179V198.02C104.179 197.703 104.094 197.459 103.922 197.288C103.751 197.116 103.484 197.03 103.121 197.03C102.818 197.03 102.57 197.096 102.379 197.228C102.188 197.36 102.026 197.528 101.895 197.733L101.252 197.149C101.423 196.859 101.664 196.622 101.974 196.437C102.284 196.246 102.689 196.15 103.19 196.15C103.856 196.15 104.367 196.305 104.723 196.615C105.079 196.925 105.257 197.37 105.257 197.95V200.532H105.801V201.412H105.198ZM103.022 200.71C103.358 200.71 103.635 200.637 103.853 200.492C104.071 200.341 104.179 200.139 104.179 199.889V199.147H103.269C102.524 199.147 102.152 199.378 102.152 199.839V200.017C102.152 200.248 102.228 200.423 102.379 200.542C102.537 200.654 102.752 200.71 103.022 200.71Z" fill="black"/>
<g filter="url(#filter9_bddd_487_96143)">
<rect x="16.6875" y="215.303" width="30.9089" height="30.9089" rx="6.18178" fill="#BFBFBF"/>
<rect x="16.9966" y="215.612" width="30.2907" height="30.2907" rx="5.87269" stroke="white" stroke-opacity="0.2" stroke-width="0.618178"/>
</g>
<g filter="url(#filter10_bddd_487_96143)">
<rect x="53.1602" y="215.303" width="30.9089" height="30.9089" rx="6.18178" fill="#EFE7FE"/>
<rect x="53.4692" y="215.612" width="30.2907" height="30.2907" rx="5.87269" stroke="white" stroke-opacity="0.2" stroke-width="0.618178"/>
</g>
<g filter="url(#filter11_bddd_487_96143)">
<rect x="89.6328" y="215.303" width="30.9089" height="30.9089" rx="6.18178" fill="#F0F0F0"/>
<rect x="89.9419" y="215.612" width="30.2907" height="30.2907" rx="5.87269" stroke="white" stroke-opacity="0.2" stroke-width="0.618178"/>
</g>
</g>
<defs>
<filter id="filter0_bdddi_487_96143" x="107.635" y="33.8711" width="245.453" height="250.163" filterUnits="userSpaceOnUse" color-interpolation-filters="sRGB">
<feFlood flood-opacity="0" result="BackgroundImageFix"/>
<feGaussianBlur in="BackgroundImageFix" stdDeviation="10"/>
<feComposite in2="SourceAlpha" operator="in" result="effect1_backgroundBlur_487_96143"/>
<feColorMatrix in="SourceAlpha" type="matrix" values="0 0 0 0 0 0 0 0 0 0 0 0 0 0 0 0 0 0 127 0" result="hardAlpha"/>
<feOffset dy="30"/>
<feGaussianBlur stdDeviation="15"/>
<feComposite in2="hardAlpha" operator="out"/>
<feColorMatrix type="matrix" values="0 0 0 0 0 0 0 0 0 0 0 0 0 0 0 0 0 0 0.1 0"/>
<feBlend mode="normal" in2="effect1_backgroundBlur_487_96143" result="effect2_dropShadow_487_96143"/>
<feColorMatrix in="SourceAlpha" type="matrix" values="0 0 0 0 0 0 0 0 0 0 0 0 0 0 0 0 0 0 127 0" result="hardAlpha"/>
<feOffset dy="10"/>
<feGaussianBlur stdDeviation="10"/>
<feComposite in2="hardAlpha" operator="out"/>
<feColorMatrix type="matrix" values="0 0 0 0 0 0 0 0 0 0 0 0 0 0 0 0 0 0 0.05 0"/>
<feBlend mode="normal" in2="effect2_dropShadow_487_96143" result="effect3_dropShadow_487_96143"/>
<feColorMatrix in="SourceAlpha" type="matrix" values="0 0 0 0 0 0 0 0 0 0 0 0 0 0 0 0 0 0 127 0" result="hardAlpha"/>
<feOffset dy="3"/>
<feGaussianBlur stdDeviation="3"/>
<feComposite in2="hardAlpha" operator="out"/>
<feColorMatrix type="matrix" values="0 0 0 0 0 0 0 0 0 0 0 0 0 0 0 0 0 0 0.05 0"/>
<feBlend mode="normal" in2="effect3_dropShadow_487_96143" result="effect4_dropShadow_487_96143"/>
<feBlend mode="normal" in="SourceGraphic" in2="effect4_dropShadow_487_96143" result="shape"/>
<feColorMatrix in="SourceAlpha" type="matrix" values="0 0 0 0 0 0 0 0 0 0 0 0 0 0 0 0 0 0 127 0" result="hardAlpha"/>
<feOffset dy="40"/>
<feGaussianBlur stdDeviation="40"/>
<feComposite in2="hardAlpha" operator="arithmetic" k2="-1" k3="1"/>
<feColorMatrix type="matrix" values="0 0 0 0 1 0 0 0 0 1 0 0 0 0 1 0 0 0 0.15 0"/>
<feBlend mode="normal" in2="shape" result="effect5_innerShadow_487_96143"/>
</filter>
<filter id="filter1_bddd_487_96143" x="127.525" y="78.543" width="205.672" height="155.6" filterUnits="userSpaceOnUse" color-interpolation-filters="sRGB">
<feFlood flood-opacity="0" result="BackgroundImageFix"/>
<feGaussianBlur in="BackgroundImageFix" stdDeviation="10"/>
<feComposite in2="SourceAlpha" operator="in" result="effect1_backgroundBlur_487_96143"/>
<feColorMatrix in="SourceAlpha" type="matrix" values="0 0 0 0 0 0 0 0 0 0 0 0 0 0 0 0 0 0 127 0" result="hardAlpha"/>
<feOffset dy="10"/>
<feGaussianBlur stdDeviation="5"/>
<feComposite in2="hardAlpha" operator="out"/>
<feColorMatrix type="matrix" values="0 0 0 0 0 0 0 0 0 0 0 0 0 0 0 0 0 0 0.1 0"/>
<feBlend mode="normal" in2="effect1_backgroundBlur_487_96143" result="effect2_dropShadow_487_96143"/>
<feColorMatrix in="SourceAlpha" type="matrix" values="0 0 0 0 0 0 0 0 0 0 0 0 0 0 0 0 0 0 127 0" result="hardAlpha"/>
<feOffset dy="4"/>
<feGaussianBlur stdDeviation="2"/>
<feComposite in2="hardAlpha" operator="out"/>
<feColorMatrix type="matrix" values="0 0 0 0 0 0 0 0 0 0 0 0 0 0 0 0 0 0 0.05 0"/>
<feBlend mode="normal" in2="effect2_dropShadow_487_96143" result="effect3_dropShadow_487_96143"/>
<feColorMatrix in="SourceAlpha" type="matrix" values="0 0 0 0 0 0 0 0 0 0 0 0 0 0 0 0 0 0 127 0" result="hardAlpha"/>
<feOffset dy="1"/>
<feComposite in2="hardAlpha" operator="out"/>
<feColorMatrix type="matrix" values="0 0 0 0 0 0 0 0 0 0 0 0 0 0 0 0 0 0 0.05 0"/>
<feBlend mode="normal" in2="effect3_dropShadow_487_96143" result="effect4_dropShadow_487_96143"/>
<feBlend mode="normal" in="SourceGraphic" in2="effect4_dropShadow_487_96143" result="shape"/>
</filter>
<filter id="filter2_bddd_487_96143" x="261.016" y="90.9072" width="59.7812" height="59.7812" filterUnits="userSpaceOnUse" color-interpolation-filters="sRGB">
<feFlood flood-opacity="0" result="BackgroundImageFix"/>
<feGaussianBlur in="BackgroundImageFix" stdDeviation="10"/>
<feComposite in2="SourceAlpha" operator="in" result="effect1_backgroundBlur_487_96143"/>
<feColorMatrix in="SourceAlpha" type="matrix" values="0 0 0 0 0 0 0 0 0 0 0 0 0 0 0 0 0 0 127 0" result="hardAlpha"/>
<feOffset dy="10"/>
<feGaussianBlur stdDeviation="5"/>
<feComposite in2="hardAlpha" operator="out"/>
<feColorMatrix type="matrix" values="0 0 0 0 0 0 0 0 0 0 0 0 0 0 0 0 0 0 0.1 0"/>
<feBlend mode="normal" in2="effect1_backgroundBlur_487_96143" result="effect2_dropShadow_487_96143"/>
<feColorMatrix in="SourceAlpha" type="matrix" values="0 0 0 0 0 0 0 0 0 0 0 0 0 0 0 0 0 0 127 0" result="hardAlpha"/>
<feOffset dy="4"/>
<feGaussianBlur stdDeviation="2"/>
<feComposite in2="hardAlpha" operator="out"/>
<feColorMatrix type="matrix" values="0 0 0 0 0 0 0 0 0 0 0 0 0 0 0 0 0 0 0.05 0"/>
<feBlend mode="normal" in2="effect2_dropShadow_487_96143" result="effect3_dropShadow_487_96143"/>
<feColorMatrix in="SourceAlpha" type="matrix" values="0 0 0 0 0 0 0 0 0 0 0 0 0 0 0 0 0 0 127 0" result="hardAlpha"/>
<feOffset dy="1"/>
<feComposite in2="hardAlpha" operator="out"/>
<feColorMatrix type="matrix" values="0 0 0 0 0 0 0 0 0 0 0 0 0 0 0 0 0 0 0.05 0"/>
<feBlend mode="normal" in2="effect3_dropShadow_487_96143" result="effect4_dropShadow_487_96143"/>
<feBlend mode="normal" in="SourceGraphic" in2="effect4_dropShadow_487_96143" result="shape"/>
</filter>
<filter id="filter3_bdddi_487_96143" x="107.635" y="240.997" width="245.453" height="258.199" filterUnits="userSpaceOnUse" color-interpolation-filters="sRGB">
<feFlood flood-opacity="0" result="BackgroundImageFix"/>
<feGaussianBlur in="BackgroundImageFix" stdDeviation="10"/>
<feComposite in2="SourceAlpha" operator="in" result="effect1_backgroundBlur_487_96143"/>
<feColorMatrix in="SourceAlpha" type="matrix" values="0 0 0 0 0 0 0 0 0 0 0 0 0 0 0 0 0 0 127 0" result="hardAlpha"/>
<feOffset dy="30"/>
<feGaussianBlur stdDeviation="15"/>
<feComposite in2="hardAlpha" operator="out"/>
<feColorMatrix type="matrix" values="0 0 0 0 0 0 0 0 0 0 0 0 0 0 0 0 0 0 0.1 0"/>
<feBlend mode="normal" in2="effect1_backgroundBlur_487_96143" result="effect2_dropShadow_487_96143"/>
<feColorMatrix in="SourceAlpha" type="matrix" values="0 0 0 0 0 0 0 0 0 0 0 0 0 0 0 0 0 0 127 0" result="hardAlpha"/>
<feOffset dy="10"/>
<feGaussianBlur stdDeviation="10"/>
<feComposite in2="hardAlpha" operator="out"/>
<feColorMatrix type="matrix" values="0 0 0 0 0 0 0 0 0 0 0 0 0 0 0 0 0 0 0.05 0"/>
<feBlend mode="normal" in2="effect2_dropShadow_487_96143" result="effect3_dropShadow_487_96143"/>
<feColorMatrix in="SourceAlpha" type="matrix" values="0 0 0 0 0 0 0 0 0 0 0 0 0 0 0 0 0 0 127 0" result="hardAlpha"/>
<feOffset dy="3"/>
<feGaussianBlur stdDeviation="3"/>
<feComposite in2="hardAlpha" operator="out"/>
<feColorMatrix type="matrix" values="0 0 0 0 0 0 0 0 0 0 0 0 0 0 0 0 0 0 0.05 0"/>
<feBlend mode="normal" in2="effect3_dropShadow_487_96143" result="effect4_dropShadow_487_96143"/>
<feBlend mode="normal" in="SourceGraphic" in2="effect4_dropShadow_487_96143" result="shape"/>
<feColorMatrix in="SourceAlpha" type="matrix" values="0 0 0 0 0 0 0 0 0 0 0 0 0 0 0 0 0 0 127 0" result="hardAlpha"/>
<feOffset dy="40"/>
<feGaussianBlur stdDeviation="40"/>
<feComposite in2="hardAlpha" operator="arithmetic" k2="-1" k3="1"/>
<feColorMatrix type="matrix" values="0 0 0 0 1 0 0 0 0 1 0 0 0 0 1 0 0 0 0.15 0"/>
<feBlend mode="normal" in2="shape" result="effect5_innerShadow_487_96143"/>
</filter>
<filter id="filter4_bddd_487_96143" x="148.544" y="285.669" width="163.636" height="163.636" filterUnits="userSpaceOnUse" color-interpolation-filters="sRGB">
<feFlood flood-opacity="0" result="BackgroundImageFix"/>
<feGaussianBlur in="BackgroundImageFix" stdDeviation="10"/>
<feComposite in2="SourceAlpha" operator="in" result="effect1_backgroundBlur_487_96143"/>
<feColorMatrix in="SourceAlpha" type="matrix" values="0 0 0 0 0 0 0 0 0 0 0 0 0 0 0 0 0 0 127 0" result="hardAlpha"/>
<feOffset dy="5"/>
<feGaussianBlur stdDeviation="2.5"/>
<feComposite in2="hardAlpha" operator="out"/>
<feColorMatrix type="matrix" values="0 0 0 0 0 0 0 0 0 0 0 0 0 0 0 0 0 0 0.05 0"/>
<feBlend mode="normal" in2="effect1_backgroundBlur_487_96143" result="effect2_dropShadow_487_96143"/>
<feColorMatrix in="SourceAlpha" type="matrix" values="0 0 0 0 0 0 0 0 0 0 0 0 0 0 0 0 0 0 127 0" result="hardAlpha"/>
<feOffset dy="2"/>
<feGaussianBlur stdDeviation="1"/>
<feComposite in2="hardAlpha" operator="out"/>
<feColorMatrix type="matrix" values="0 0 0 0 0 0 0 0 0 0 0 0 0 0 0 0 0 0 0.03 0"/>
<feBlend mode="normal" in2="effect2_dropShadow_487_96143" result="effect3_dropShadow_487_96143"/>
<feColorMatrix in="SourceAlpha" type="matrix" values="0 0 0 0 0 0 0 0 0 0 0 0 0 0 0 0 0 0 127 0" result="hardAlpha"/>
<feOffset dy="1"/>
<feComposite in2="hardAlpha" operator="out"/>
<feColorMatrix type="matrix" values="0 0 0 0 0 0 0 0 0 0 0 0 0 0 0 0 0 0 0.03 0"/>
<feBlend mode="normal" in2="effect3_dropShadow_487_96143" result="effect4_dropShadow_487_96143"/>
<feBlend mode="normal" in="SourceGraphic" in2="effect4_dropShadow_487_96143" result="shape"/>
</filter>
<filter id="filter5_bdddi_487_96143" x="107.635" y="456.542" width="245.453" height="250.163" filterUnits="userSpaceOnUse" color-interpolation-filters="sRGB">
<feFlood flood-opacity="0" result="BackgroundImageFix"/>
<feGaussianBlur in="BackgroundImageFix" stdDeviation="10"/>
<feComposite in2="SourceAlpha" operator="in" result="effect1_backgroundBlur_487_96143"/>
<feColorMatrix in="SourceAlpha" type="matrix" values="0 0 0 0 0 0 0 0 0 0 0 0 0 0 0 0 0 0 127 0" result="hardAlpha"/>
<feOffset dy="30"/>
<feGaussianBlur stdDeviation="15"/>
<feComposite in2="hardAlpha" operator="out"/>
<feColorMatrix type="matrix" values="0 0 0 0 0 0 0 0 0 0 0 0 0 0 0 0 0 0 0.1 0"/>
<feBlend mode="normal" in2="effect1_backgroundBlur_487_96143" result="effect2_dropShadow_487_96143"/>
<feColorMatrix in="SourceAlpha" type="matrix" values="0 0 0 0 0 0 0 0 0 0 0 0 0 0 0 0 0 0 127 0" result="hardAlpha"/>
<feOffset dy="10"/>
<feGaussianBlur stdDeviation="10"/>
<feComposite in2="hardAlpha" operator="out"/>
<feColorMatrix type="matrix" values="0 0 0 0 0 0 0 0 0 0 0 0 0 0 0 0 0 0 0.05 0"/>
<feBlend mode="normal" in2="effect2_dropShadow_487_96143" result="effect3_dropShadow_487_96143"/>
<feColorMatrix in="SourceAlpha" type="matrix" values="0 0 0 0 0 0 0 0 0 0 0 0 0 0 0 0 0 0 127 0" result="hardAlpha"/>
<feOffset dy="3"/>
<feGaussianBlur stdDeviation="3"/>
<feComposite in2="hardAlpha" operator="out"/>
<feColorMatrix type="matrix" values="0 0 0 0 0 0 0 0 0 0 0 0 0 0 0 0 0 0 0.05 0"/>
<feBlend mode="normal" in2="effect3_dropShadow_487_96143" result="effect4_dropShadow_487_96143"/>
<feBlend mode="normal" in="SourceGraphic" in2="effect4_dropShadow_487_96143" result="shape"/>
<feColorMatrix in="SourceAlpha" type="matrix" values="0 0 0 0 0 0 0 0 0 0 0 0 0 0 0 0 0 0 127 0" result="hardAlpha"/>
<feOffset dy="40"/>
<feGaussianBlur stdDeviation="40"/>
<feComposite in2="hardAlpha" operator="arithmetic" k2="-1" k3="1"/>
<feColorMatrix type="matrix" values="0 0 0 0 1 0 0 0 0 1 0 0 0 0 1 0 0 0 0.15 0"/>
<feBlend mode="normal" in2="shape" result="effect5_innerShadow_487_96143"/>
</filter>
<filter id="filter6_bddd_487_96143" x="127.525" y="501.214" width="205.672" height="155.6" filterUnits="userSpaceOnUse" color-interpolation-filters="sRGB">
<feFlood flood-opacity="0" result="BackgroundImageFix"/>
<feGaussianBlur in="BackgroundImageFix" stdDeviation="10"/>
<feComposite in2="SourceAlpha" operator="in" result="effect1_backgroundBlur_487_96143"/>
<feColorMatrix in="SourceAlpha" type="matrix" values="0 0 0 0 0 0 0 0 0 0 0 0 0 0 0 0 0 0 127 0" result="hardAlpha"/>
<feOffset dy="10"/>
<feGaussianBlur stdDeviation="5"/>
<feComposite in2="hardAlpha" operator="out"/>
<feColorMatrix type="matrix" values="0 0 0 0 0 0 0 0 0 0 0 0 0 0 0 0 0 0 0.1 0"/>
<feBlend mode="normal" in2="effect1_backgroundBlur_487_96143" result="effect2_dropShadow_487_96143"/>
<feColorMatrix in="SourceAlpha" type="matrix" values="0 0 0 0 0 0 0 0 0 0 0 0 0 0 0 0 0 0 127 0" result="hardAlpha"/>
<feOffset dy="4"/>
<feGaussianBlur stdDeviation="2"/>
<feComposite in2="hardAlpha" operator="out"/>
<feColorMatrix type="matrix" values="0 0 0 0 0 0 0 0 0 0 0 0 0 0 0 0 0 0 0.05 0"/>
<feBlend mode="normal" in2="effect2_dropShadow_487_96143" result="effect3_dropShadow_487_96143"/>
<feColorMatrix in="SourceAlpha" type="matrix" values="0 0 0 0 0 0 0 0 0 0 0 0 0 0 0 0 0 0 127 0" result="hardAlpha"/>
<feOffset dy="1"/>
<feComposite in2="hardAlpha" operator="out"/>
<feColorMatrix type="matrix" values="0 0 0 0 0 0 0 0 0 0 0 0 0 0 0 0 0 0 0.05 0"/>
<feBlend mode="normal" in2="effect3_dropShadow_487_96143" result="effect4_dropShadow_487_96143"/>
<feBlend mode="normal" in="SourceGraphic" in2="effect4_dropShadow_487_96143" result="shape"/>
</filter>
<filter id="filter7_bddd_487_96143" x="261.016" y="513.578" width="59.7812" height="59.7812" filterUnits="userSpaceOnUse" color-interpolation-filters="sRGB">
<feFlood flood-opacity="0" result="BackgroundImageFix"/>
<feGaussianBlur in="BackgroundImageFix" stdDeviation="10"/>
<feComposite in2="SourceAlpha" operator="in" result="effect1_backgroundBlur_487_96143"/>
<feColorMatrix in="SourceAlpha" type="matrix" values="0 0 0 0 0 0 0 0 0 0 0 0 0 0 0 0 0 0 127 0" result="hardAlpha"/>
<feOffset dy="10"/>
<feGaussianBlur stdDeviation="5"/>
<feComposite in2="hardAlpha" operator="out"/>
<feColorMatrix type="matrix" values="0 0 0 0 0 0 0 0 0 0 0 0 0 0 0 0 0 0 0.1 0"/>
<feBlend mode="normal" in2="effect1_backgroundBlur_487_96143" result="effect2_dropShadow_487_96143"/>
<feColorMatrix in="SourceAlpha" type="matrix" values="0 0 0 0 0 0 0 0 0 0 0 0 0 0 0 0 0 0 127 0" result="hardAlpha"/>
<feOffset dy="4"/>
<feGaussianBlur stdDeviation="2"/>
<feComposite in2="hardAlpha" operator="out"/>
<feColorMatrix type="matrix" values="0 0 0 0 0 0 0 0 0 0 0 0 0 0 0 0 0 0 0.05 0"/>
<feBlend mode="normal" in2="effect2_dropShadow_487_96143" result="effect3_dropShadow_487_96143"/>
<feColorMatrix in="SourceAlpha" type="matrix" values="0 0 0 0 0 0 0 0 0 0 0 0 0 0 0 0 0 0 127 0" result="hardAlpha"/>
<feOffset dy="1"/>
<feComposite in2="hardAlpha" operator="out"/>
<feColorMatrix type="matrix" values="0 0 0 0 0 0 0 0 0 0 0 0 0 0 0 0 0 0 0.05 0"/>
<feBlend mode="normal" in2="effect3_dropShadow_487_96143" result="effect4_dropShadow_487_96143"/>
<feBlend mode="normal" in="SourceGraphic" in2="effect4_dropShadow_487_96143" result="shape"/>
</filter>
<filter id="filter8_bddd_487_96143" x="-5.56669" y="168.158" width="148.363" height="100.308" filterUnits="userSpaceOnUse" color-interpolation-filters="sRGB">
<feFlood flood-opacity="0" result="BackgroundImageFix"/>
<feGaussianBlur in="BackgroundImageFix" stdDeviation="6.18178"/>
<feComposite in2="SourceAlpha" operator="in" result="effect1_backgroundBlur_487_96143"/>
<feColorMatrix in="SourceAlpha" type="matrix" values="0 0 0 0 0 0 0 0 0 0 0 0 0 0 0 0 0 0 127 0" result="hardAlpha"/>
<feOffset dy="3.09089"/>
<feGaussianBlur stdDeviation="1.54545"/>
<feComposite in2="hardAlpha" operator="out"/>
<feColorMatrix type="matrix" values="0 0 0 0 0 0 0 0 0 0 0 0 0 0 0 0 0 0 0.05 0"/>
<feBlend mode="normal" in2="effect1_backgroundBlur_487_96143" result="effect2_dropShadow_487_96143"/>
<feColorMatrix in="SourceAlpha" type="matrix" values="0 0 0 0 0 0 0 0 0 0 0 0 0 0 0 0 0 0 127 0" result="hardAlpha"/>
<feOffset dy="1.23636"/>
<feGaussianBlur stdDeviation="0.618178"/>
<feComposite in2="hardAlpha" operator="out"/>
<feColorMatrix type="matrix" values="0 0 0 0 0 0 0 0 0 0 0 0 0 0 0 0 0 0 0.03 0"/>
<feBlend mode="normal" in2="effect2_dropShadow_487_96143" result="effect3_dropShadow_487_96143"/>
<feColorMatrix in="SourceAlpha" type="matrix" values="0 0 0 0 0 0 0 0 0 0 0 0 0 0 0 0 0 0 127 0" result="hardAlpha"/>
<feOffset dy="0.618178"/>
<feComposite in2="hardAlpha" operator="out"/>
<feColorMatrix type="matrix" values="0 0 0 0 0 0 0 0 0 0 0 0 0 0 0 0 0 0 0.03 0"/>
<feBlend mode="normal" in2="effect3_dropShadow_487_96143" result="effect4_dropShadow_487_96143"/>
<feBlend mode="normal" in="SourceGraphic" in2="effect4_dropShadow_487_96143" result="shape"/>
</filter>
<filter id="filter9_bddd_487_96143" x="4.32393" y="202.939" width="55.6363" height="55.6363" filterUnits="userSpaceOnUse" color-interpolation-filters="sRGB">
<feFlood flood-opacity="0" result="BackgroundImageFix"/>
<feGaussianBlur in="BackgroundImageFix" stdDeviation="6.18178"/>
<feComposite in2="SourceAlpha" operator="in" result="effect1_backgroundBlur_487_96143"/>
<feColorMatrix in="SourceAlpha" type="matrix" values="0 0 0 0 0 0 0 0 0 0 0 0 0 0 0 0 0 0 127 0" result="hardAlpha"/>
<feOffset dy="3.09089"/>
<feGaussianBlur stdDeviation="1.54545"/>
<feComposite in2="hardAlpha" operator="out"/>
<feColorMatrix type="matrix" values="0 0 0 0 0 0 0 0 0 0 0 0 0 0 0 0 0 0 0.05 0"/>
<feBlend mode="normal" in2="effect1_backgroundBlur_487_96143" result="effect2_dropShadow_487_96143"/>
<feColorMatrix in="SourceAlpha" type="matrix" values="0 0 0 0 0 0 0 0 0 0 0 0 0 0 0 0 0 0 127 0" result="hardAlpha"/>
<feOffset dy="1.23636"/>
<feGaussianBlur stdDeviation="0.618178"/>
<feComposite in2="hardAlpha" operator="out"/>
<feColorMatrix type="matrix" values="0 0 0 0 0 0 0 0 0 0 0 0 0 0 0 0 0 0 0.03 0"/>
<feBlend mode="normal" in2="effect2_dropShadow_487_96143" result="effect3_dropShadow_487_96143"/>
<feColorMatrix in="SourceAlpha" type="matrix" values="0 0 0 0 0 0 0 0 0 0 0 0 0 0 0 0 0 0 127 0" result="hardAlpha"/>
<feOffset dy="0.618178"/>
<feComposite in2="hardAlpha" operator="out"/>
<feColorMatrix type="matrix" values="0 0 0 0 0 0 0 0 0 0 0 0 0 0 0 0 0 0 0.03 0"/>
<feBlend mode="normal" in2="effect3_dropShadow_487_96143" result="effect4_dropShadow_487_96143"/>
<feBlend mode="normal" in="SourceGraphic" in2="effect4_dropShadow_487_96143" result="shape"/>
</filter>
<filter id="filter10_bddd_487_96143" x="40.7966" y="202.939" width="55.6363" height="55.6363" filterUnits="userSpaceOnUse" color-interpolation-filters="sRGB">
<feFlood flood-opacity="0" result="BackgroundImageFix"/>
<feGaussianBlur in="BackgroundImageFix" stdDeviation="6.18178"/>
<feComposite in2="SourceAlpha" operator="in" result="effect1_backgroundBlur_487_96143"/>
<feColorMatrix in="SourceAlpha" type="matrix" values="0 0 0 0 0 0 0 0 0 0 0 0 0 0 0 0 0 0 127 0" result="hardAlpha"/>
<feOffset dy="3.09089"/>
<feGaussianBlur stdDeviation="1.54545"/>
<feComposite in2="hardAlpha" operator="out"/>
<feColorMatrix type="matrix" values="0 0 0 0 0 0 0 0 0 0 0 0 0 0 0 0 0 0 0.05 0"/>
<feBlend mode="normal" in2="effect1_backgroundBlur_487_96143" result="effect2_dropShadow_487_96143"/>
<feColorMatrix in="SourceAlpha" type="matrix" values="0 0 0 0 0 0 0 0 0 0 0 0 0 0 0 0 0 0 127 0" result="hardAlpha"/>
<feOffset dy="1.23636"/>
<feGaussianBlur stdDeviation="0.618178"/>
<feComposite in2="hardAlpha" operator="out"/>
<feColorMatrix type="matrix" values="0 0 0 0 0 0 0 0 0 0 0 0 0 0 0 0 0 0 0.03 0"/>
<feBlend mode="normal" in2="effect2_dropShadow_487_96143" result="effect3_dropShadow_487_96143"/>
<feColorMatrix in="SourceAlpha" type="matrix" values="0 0 0 0 0 0 0 0 0 0 0 0 0 0 0 0 0 0 127 0" result="hardAlpha"/>
<feOffset dy="0.618178"/>
<feComposite in2="hardAlpha" operator="out"/>
<feColorMatrix type="matrix" values="0 0 0 0 0 0 0 0 0 0 0 0 0 0 0 0 0 0 0.03 0"/>
<feBlend mode="normal" in2="effect3_dropShadow_487_96143" result="effect4_dropShadow_487_96143"/>
<feBlend mode="normal" in="SourceGraphic" in2="effect4_dropShadow_487_96143" result="shape"/>
</filter>
<filter id="filter11_bddd_487_96143" x="77.2692" y="202.939" width="55.6363" height="55.6363" filterUnits="userSpaceOnUse" color-interpolation-filters="sRGB">
<feFlood flood-opacity="0" result="BackgroundImageFix"/>
<feGaussianBlur in="BackgroundImageFix" stdDeviation="6.18178"/>
<feComposite in2="SourceAlpha" operator="in" result="effect1_backgroundBlur_487_96143"/>
<feColorMatrix in="SourceAlpha" type="matrix" values="0 0 0 0 0 0 0 0 0 0 0 0 0 0 0 0 0 0 127 0" result="hardAlpha"/>
<feOffset dy="3.09089"/>
<feGaussianBlur stdDeviation="1.54545"/>
<feComposite in2="hardAlpha" operator="out"/>
<feColorMatrix type="matrix" values="0 0 0 0 0 0 0 0 0 0 0 0 0 0 0 0 0 0 0.05 0"/>
<feBlend mode="normal" in2="effect1_backgroundBlur_487_96143" result="effect2_dropShadow_487_96143"/>
<feColorMatrix in="SourceAlpha" type="matrix" values="0 0 0 0 0 0 0 0 0 0 0 0 0 0 0 0 0 0 127 0" result="hardAlpha"/>
<feOffset dy="1.23636"/>
<feGaussianBlur stdDeviation="0.618178"/>
<feComposite in2="hardAlpha" operator="out"/>
<feColorMatrix type="matrix" values="0 0 0 0 0 0 0 0 0 0 0 0 0 0 0 0 0 0 0.03 0"/>
<feBlend mode="normal" in2="effect2_dropShadow_487_96143" result="effect3_dropShadow_487_96143"/>
<feColorMatrix in="SourceAlpha" type="matrix" values="0 0 0 0 0 0 0 0 0 0 0 0 0 0 0 0 0 0 127 0" result="hardAlpha"/>
<feOffset dy="0.618178"/>
<feComposite in2="hardAlpha" operator="out"/>
<feColorMatrix type="matrix" values="0 0 0 0 0 0 0 0 0 0 0 0 0 0 0 0 0 0 0.03 0"/>
<feBlend mode="normal" in2="effect3_dropShadow_487_96143" result="effect4_dropShadow_487_96143"/>
<feBlend mode="normal" in="SourceGraphic" in2="effect4_dropShadow_487_96143" result="shape"/>
</filter>
<clipPath id="clip0_487_96143">
<path d="M137.635 60.0556C137.635 56.64 140.404 53.8711 143.819 53.8711H316.904C320.319 53.8711 323.088 56.64 323.088 60.0556V217.849C323.088 221.265 320.319 224.034 316.904 224.034H143.819C140.404 224.034 137.635 221.265 137.635 217.849V60.0556Z" fill="white"/>
</clipPath>
<clipPath id="clip1_487_96143">
<path d="M137.635 267.182C137.635 263.766 140.404 260.997 143.819 260.997H316.904C320.319 260.997 323.088 263.766 323.088 267.182V433.012C323.088 436.427 320.319 439.196 316.904 439.196H143.819C140.404 439.196 137.635 436.427 137.635 433.012V267.182Z" fill="white"/>
</clipPath>
<clipPath id="clip2_487_96143">
<path d="M137.635 482.727C137.635 479.311 140.404 476.542 143.819 476.542H316.904C320.319 476.542 323.088 479.311 323.088 482.727V640.52C323.088 643.936 320.319 646.705 316.904 646.705H143.819C140.404 646.705 137.635 643.936 137.635 640.52V482.727Z" fill="white"/>
</clipPath>
</defs>
</svg>
