<svg width="174" height="159" viewBox="0 0 174 159" fill="none" xmlns="http://www.w3.org/2000/svg">
<path d="M0.607544 116.845C0.141409 117.141 0.00365054 117.759 0.299853 118.225C0.596056 118.691 1.21405 118.829 1.68019 118.533L0.607544 116.845ZM21.462 104.778L21.9983 105.622L21.9983 105.622L21.462 104.778ZM155.575 54.056L155.73 55.044L155.73 55.044L155.575 54.056ZM167.495 53.7785C168.046 53.8201 168.526 53.4073 168.567 52.8566C168.609 52.3059 168.196 51.8257 167.646 51.7842L167.495 53.7785ZM148.428 71.9408C148.028 72.3209 148.011 72.9538 148.391 73.3545C148.771 73.7552 149.404 73.7718 149.805 73.3917L148.428 71.9408ZM170.322 52.5481L171.01 53.2735C171.222 53.0723 171.336 52.7882 171.32 52.4962C171.305 52.2042 171.163 51.9334 170.931 51.7552L170.322 52.5481ZM146.262 32.7928C145.824 32.4562 145.196 32.5383 144.86 32.9762C144.523 33.414 144.605 34.0418 145.043 34.3784L146.262 32.7928ZM1.68019 118.533L21.9983 105.622L20.9256 103.934L0.607544 116.845L1.68019 118.533ZM21.9983 105.622C62.6506 79.7858 108.15 62.4635 155.73 55.044L155.421 53.0679C107.565 60.5305 61.8062 77.9527 20.9256 103.934L21.9983 105.622ZM155.73 55.044C158.639 54.5899 161.164 54.2394 163.184 54.0196C165.227 53.7973 166.684 53.7172 167.495 53.7785L167.646 51.7842C166.63 51.7075 165.007 51.8095 162.967 52.0314C160.905 52.2558 158.346 52.6115 155.421 53.068L155.73 55.044ZM149.805 73.3917L171.01 53.2735L169.634 51.8226L148.428 71.9408L149.805 73.3917ZM170.931 51.7552L146.262 32.7928L145.043 34.3784L169.712 53.3409L170.931 51.7552Z" fill="white"/>
</svg>
