<svg width="105" height="105" viewBox="0 0 105 105" fill="none" xmlns="http://www.w3.org/2000/svg">
<path d="M5.44837 26.3357C4.89855 26.3878 4.49508 26.8758 4.54719 27.4256C4.5993 27.9754 5.08726 28.3789 5.63708 28.3268L5.44837 26.3357ZM99.861 79.9422C100.065 80.4553 100.647 80.7057 101.16 80.5014C101.673 80.2971 101.923 79.7155 101.719 79.2024L99.861 79.9422ZM21.2736 9.1961C21.6574 8.79903 21.6467 8.16595 21.2497 7.78208C20.8526 7.39822 20.2195 7.40891 19.8357 7.80598L21.2736 9.1961ZM5.74781 23.817L5.02885 23.1219L5.02823 23.1225L5.74781 23.817ZM5.41545 31.1921L6.19446 30.5651L6.19386 30.5643L5.41545 31.1921ZM18.1705 48.6341C18.5168 49.0643 19.1463 49.1324 19.5765 48.7861C20.0067 48.4398 20.0748 47.8103 19.7285 47.3801L18.1705 48.6341ZM5.54273 27.3312C5.63708 28.3268 5.63694 28.3268 5.63694 28.3268C5.63712 28.3268 5.63725 28.3268 5.6376 28.3267C5.63831 28.3267 5.63954 28.3266 5.6413 28.3264C5.64483 28.3261 5.65045 28.3255 5.65816 28.3248C5.67358 28.3235 5.69734 28.3213 5.72927 28.3186C5.79312 28.3131 5.88964 28.3051 6.01744 28.2953C6.27304 28.2757 6.65377 28.2489 7.14865 28.2206C8.1385 28.1641 9.58461 28.1018 11.3994 28.0797C15.0299 28.0355 20.1305 28.152 26.0018 28.7955C37.7627 30.0845 52.5258 33.4784 64.7715 41.8465L65.8999 40.1952C53.2696 31.5644 38.1362 28.1135 26.2197 26.8074C20.2522 26.1534 15.0688 26.0348 11.375 26.0799C9.52762 26.1024 8.0515 26.1658 7.03465 26.2239C6.52619 26.2529 6.13245 26.2806 5.86443 26.3012C5.73042 26.3114 5.62783 26.3199 5.55803 26.3259C5.52313 26.3289 5.49643 26.3313 5.4781 26.333C5.46893 26.3338 5.46186 26.3344 5.45689 26.3349C5.45441 26.3351 5.45246 26.3353 5.45104 26.3355C5.45033 26.3355 5.44966 26.3356 5.44931 26.3356C5.44878 26.3357 5.44837 26.3357 5.54273 27.3312ZM64.7715 41.8465C89.4806 58.7312 98.0807 75.4712 99.861 79.9422L101.719 79.2024C99.7941 74.3679 90.9429 57.3081 65.8999 40.1952L64.7715 41.8465ZM19.8357 7.80598L5.02885 23.1219L6.46676 24.512L21.2736 9.1961L19.8357 7.80598ZM5.02823 23.1225C2.72786 25.5063 2.55145 29.2337 4.63703 31.8198L6.19386 30.5643C4.74391 28.7664 4.86452 26.1723 6.46738 24.5114L5.02823 23.1225ZM4.63643 31.8191L18.1705 48.6341L19.7285 47.3801L6.19446 30.5651L4.63643 31.8191Z" fill="white"/>
</svg>
