<svg width="587" height="31" viewBox="0 0 587 31" fill="none" xmlns="http://www.w3.org/2000/svg">
<path fill-rule="evenodd" clip-rule="evenodd" d="M194.518 2.81179C129.815 2.17855 64.8477 4.49276 2.22041 14.2102C1.10303 14.3829 0.639167 14.7225 0.547745 14.8003C0.0127583 15.2608 -0.0449028 15.7501 0.022817 16.1531C0.0634489 16.3977 0.337833 17.4311 1.83783 17.5376C2.87394 17.6095 10.2282 17.1058 13.0657 16.9763C26.4234 16.369 39.7542 15.5026 53.0781 14.5009C83.2879 12.2385 113.457 10.2812 143.714 8.49948C160.702 7.4978 177.696 6.6688 194.68 5.9895C235.539 6.39535 276.296 7.97849 316.291 9.61341C300.394 10.4453 285.787 11.2886 273.675 11.8355C253.251 12.7566 232.864 13.8446 212.48 15.278C202.008 16.012 191.548 16.8094 181.096 17.7506C179.938 17.8571 177.3 17.9665 176.023 18.096C175.482 18.1478 175.089 18.2313 174.913 18.2889C173.809 18.6515 173.67 19.3941 173.657 19.7683C173.65 19.9957 173.741 21.2363 175.604 21.4781C262.193 32.8247 352.532 19.6244 439.433 30.6544C440.452 30.7839 441.407 30.1852 441.56 29.3159C441.712 28.4495 441.008 27.6378 439.985 27.5083C358.139 17.1202 273.242 28.2279 191.291 20.0734C198.452 19.4834 205.617 18.9509 212.788 18.4471C233.135 17.0166 253.485 15.9315 273.875 15.0104C294.394 14.0864 322.132 12.2817 351.167 11.1447C376.085 12.3248 400.989 13.6489 425.909 14.7714C436.423 15.2435 446.94 15.635 457.45 16.1157C461.771 16.3114 472.887 17.1317 474.498 16.8266C475.751 16.5877 476.053 15.825 476.127 15.4421C476.205 15.0276 476.158 14.5124 475.589 14.0202C475.413 13.8648 474.885 13.5424 473.801 13.2776C444.495 6.14208 396.509 6.25432 351.567 7.97847C341.9 7.51793 332.233 7.08042 322.562 6.68608C300.425 5.77939 278.043 4.86981 255.533 4.15309C318.97 2.8204 382.437 3.20324 445.921 4.1675C472.575 4.57335 544.423 7.01999 572.719 9.18165C572.374 9.48388 572.171 9.90412 572.195 10.3618C572.242 11.2368 573.119 11.9161 574.152 11.8758C579.989 11.6455 583.365 11.3519 584.702 11.0497C585.535 10.8626 585.989 10.5633 586.199 10.3675C586.714 9.89549 586.808 9.38888 586.707 8.90819C586.643 8.60883 586.484 8.2807 586.118 7.97847C585.874 7.77123 585.278 7.45462 584.262 7.23874C573.139 4.88711 477.725 1.47044 445.989 0.986874C362.121 -0.285371 278.287 -0.5444 194.518 2.81179ZM451.115 12.6501C434.727 10.759 415.515 10.0941 395.473 10.1373C405.682 10.641 415.894 11.1332 426.109 11.5937C434.442 11.9708 442.779 12.2932 451.115 12.6501ZM117.222 6.91925C95.7212 8.26633 74.2438 9.72278 52.7496 11.3347C50.2676 11.5189 47.7891 11.7002 45.3071 11.8787C69.0768 9.40329 93.0937 7.82882 117.222 6.91925Z" fill="#3B7AF7"/>
</svg>
