<svg width="480" height="74" viewBox="0 0 480 74" fill="none" xmlns="http://www.w3.org/2000/svg">
<g clip-path="url(#clip0_3942_72052)">
<path d="M66.1684 38.813L66.167 20.813L60.9704 11.813L50.5781 5.81299L50.5799 29.813L66.1684 38.813Z" fill="#9D8400" stroke="#2B2B2B"/>
<path fill-rule="evenodd" clip-rule="evenodd" d="M59.2412 31.8135L64.4374 34.8135L60.1067 25.3135L57.4109 28.1154L55.7768 24.8135L52.313 27.8135L55.7771 29.8135L59.2412 31.8135Z" fill="#2B2B2B"/>
<circle cx="1.5" cy="1.5" r="1.5" transform="matrix(0.866025 0.5 7.53359e-05 1 53.1777 17.314)" fill="#2B2B2B"/>
</g>
<g clip-path="url(#clip1_3942_72052)">
<path d="M57.059 42.9458L57.0577 24.9458L51.8611 15.9458L41.4688 9.9458L41.4706 33.9458L57.059 42.9458Z" fill="#B79900" stroke="#2B2B2B"/>
<path fill-rule="evenodd" clip-rule="evenodd" d="M50.1319 35.9463L55.328 38.9463L50.9974 29.4463L48.3016 32.2482L46.6674 28.9463L43.2037 31.9463L46.6678 33.9463L50.1319 35.9463Z" fill="#2B2B2B"/>
<circle cx="1.5" cy="1.5" r="1.5" transform="matrix(0.866025 0.5 7.53359e-05 1 44.0684 21.4468)" fill="#2B2B2B"/>
</g>
<g clip-path="url(#clip2_3942_72052)">
<path d="M47.9496 47.0747L47.9483 29.0747L42.7517 20.0747L32.3594 14.0747L32.3612 38.0747L47.9496 47.0747Z" fill="#CFAE00" stroke="#2B2B2B"/>
<path fill-rule="evenodd" clip-rule="evenodd" d="M41.0225 40.0752L46.2186 43.0752L41.888 33.5752L39.1922 36.3771L37.558 33.0752L34.0943 36.0752L37.5584 38.0752L41.0225 40.0752Z" fill="#2B2B2B"/>
<circle cx="1.5" cy="1.5" r="1.5" transform="matrix(0.866025 0.5 7.53359e-05 1 34.959 25.5757)" fill="#2B2B2B"/>
</g>
<g clip-path="url(#clip3_3942_72052)">
<path d="M38.8403 51.2075L38.8389 33.2075L33.6423 24.2075L23.25 18.2075L23.2518 42.2075L38.8403 51.2075Z" fill="#F1CA00" stroke="#2B2B2B"/>
<path fill-rule="evenodd" clip-rule="evenodd" d="M31.9131 44.208L37.1093 47.208L32.7786 37.708L30.0828 40.5099L28.4486 37.208L24.9849 40.208L28.449 42.208L31.9131 44.208Z" fill="#2B2B2B"/>
<circle cx="1.5" cy="1.5" r="1.5" transform="matrix(0.866025 0.5 7.53359e-05 1 25.8496 29.7085)" fill="#2B2B2B"/>
</g>
<g clip-path="url(#clip4_3942_72052)">
<path d="M29.7309 55.3364L29.7295 37.3364L24.5329 28.3364L14.1406 22.3364L14.1424 46.3364L29.7309 55.3364Z" fill="#F2CF1A" stroke="#2B2B2B"/>
<path fill-rule="evenodd" clip-rule="evenodd" d="M22.8037 48.3369L27.9999 51.3369L23.6692 41.8369L20.9734 44.6388L19.3393 41.3369L15.8755 44.3369L19.3396 46.3369L22.8037 48.3369Z" fill="#2B2B2B"/>
<circle cx="1.5" cy="1.5" r="1.5" transform="matrix(0.866025 0.5 7.53359e-05 1 16.7402 33.8374)" fill="#2B2B2B"/>
</g>
<g clip-path="url(#clip5_3942_72052)">
<path d="M20.6215 59.4653L20.6202 41.4653L15.4236 32.4653L5.03125 26.4653L5.03306 50.4653L20.6215 59.4653Z" fill="#FFDF3A" stroke="#2B2B2B"/>
<path fill-rule="evenodd" clip-rule="evenodd" d="M15.4251 44.4653L7.63086 39.9653L7.63139 46.9653L15.4256 51.4653L15.4254 48.5903L18.0236 51.9653L18.0232 46.9653L15.4253 47.3403L15.4251 44.4653Z" fill="#2B2B2B"/>
</g>
<path d="M105.042 25.2V28.56H115.122V25.2H105.042ZM101.682 42H115.122V38.64H105.042V35.28H115.122V31.92H105.042V28.56H101.682V42ZM118.487 28.584H121.847V25.2H118.487V28.584ZM131.951 25.2V28.584H135.287V25.2H131.951ZM131.951 28.584H128.567V31.92H125.207V28.584H121.847V31.968H125.207V35.256H121.847V38.64H125.207V35.28H128.567V38.64H131.927V35.256H128.567V31.968H131.951V28.584ZM121.847 41.976V38.64H118.487V41.976H121.847ZM135.287 38.64H131.927V42H135.287V38.64ZM155.443 25.2H138.643V28.56H145.363V42H148.723V28.56H155.443V25.2ZM162.135 28.536H172.287V25.2H158.799V42.024H162.135V38.664H172.287V35.304H162.135V28.536ZM175.599 28.536H172.287V35.304H175.599V28.536ZM175.599 38.664H172.287V42.024H175.599V38.664ZM189.035 25.2V28.56H192.395V35.28H185.675V31.92H182.315V38.64H192.395V42H195.755V25.2H189.035ZM185.675 28.56V31.92H189.035V28.56H185.675ZM182.315 42V38.64H178.955V42H182.315ZM202.472 25.2V28.56H212.552V25.2H202.472ZM199.112 28.56V38.616H202.472V28.56H199.112ZM212.552 28.56V31.92H215.912V28.56H212.552ZM212.552 35.256V38.616H215.912V35.256H212.552ZM202.472 38.616V42H212.552V38.616H202.472ZM236.068 25.2H219.268V28.56H225.988V42H229.348V28.56H236.068V25.2Z" fill="#DEC800"/>
<defs>
<clipPath id="clip0_3942_72052">
<rect width="28.2367" height="28.2367" fill="white" transform="matrix(0.866025 0.5 7.53359e-05 1 45.5469 0.496094)"/>
</clipPath>
<clipPath id="clip1_3942_72052">
<rect width="28.2367" height="28.2367" fill="white" transform="matrix(0.866025 0.5 7.53359e-05 1 36.4375 4.62891)"/>
</clipPath>
<clipPath id="clip2_3942_72052">
<rect width="28.2367" height="28.2367" fill="white" transform="matrix(0.866025 0.5 7.53359e-05 1 27.3281 8.75781)"/>
</clipPath>
<clipPath id="clip3_3942_72052">
<rect width="28.2367" height="28.2367" fill="white" transform="matrix(0.866025 0.5 7.53359e-05 1 18.2188 12.8906)"/>
</clipPath>
<clipPath id="clip4_3942_72052">
<rect width="28.2367" height="28.2367" fill="white" transform="matrix(0.866025 0.5 7.53359e-05 1 9.10938 17.0195)"/>
</clipPath>
<clipPath id="clip5_3942_72052">
<rect width="28.2367" height="28.2367" fill="white" transform="matrix(0.866025 0.5 7.53359e-05 1 0 21.1484)"/>
</clipPath>
</defs>
</svg>
