<svg width="480" height="74" viewBox="0 0 480 74" fill="none" xmlns="http://www.w3.org/2000/svg">
<g clip-path="url(#clip0_3942_72255)">
<path d="M20.5189 29.0263L20.5195 11.0263L15.3237 8.02646L4.93164 14.0269L4.93074 38.0269L20.5189 29.0263Z" fill="#0062AB" stroke="#2B2B2B"/>
<rect width="26" height="10" transform="matrix(0.866007 -0.500033 -3.76274e-05 1 1.73047 24.8745)" fill="#1A1A1A"/>
<g clip-path="url(#clip1_3942_72255)">
<path d="M6.94157 23.9662L6.94141 28.2123C6.94441 28.4442 6.90223 28.7004 6.81736 28.9659C6.73824 29.2106 6.61775 29.4587 6.46447 29.6925C6.30553 29.9326 6.11899 30.1535 5.91631 30.3414C5.68658 30.5543 5.44543 30.7329 5.20303 30.8698C4.71107 31.1538 4.31961 31.2525 4.02864 31.1657C3.73768 31.0789 3.54904 30.8359 3.46272 30.4368L4.31236 29.7615C4.35293 29.9585 4.44728 30.1099 4.58641 30.2014C4.71978 30.2855 4.92831 30.2456 5.21197 30.0818C5.47371 29.9306 5.6779 29.7308 5.82453 29.4823C5.97117 29.2338 6.04472 28.9408 6.04519 28.6033L6.04532 25.2644L4.09666 26.3896L4.09669 25.6082L6.94157 23.9662Z" fill="#40A8F5"/>
<path d="M10.1555 28.0099C9.669 28.2908 9.26018 28.4393 8.92902 28.4553C8.60992 28.4728 8.33158 28.3938 8.11504 28.2241L8.69199 27.3177C8.87792 27.4523 9.11 27.5178 9.37373 27.5101C9.6283 27.491 9.90831 27.3933 10.1911 27.225C10.5433 27.0216 10.8144 26.7815 11.0045 26.5046C11.1945 26.2277 11.2893 25.9331 11.2888 25.6208C11.2889 25.3693 11.2203 25.2156 11.0833 25.1577C10.9463 25.0997 10.7065 25.1401 10.37 25.2726L9.76092 25.5248C9.52603 25.627 9.29831 25.684 9.08739 25.6935C8.9192 25.6995 8.7696 25.6619 8.64684 25.5827C8.53534 25.5081 8.45214 25.3953 8.40224 25.2509C8.34912 25.1032 8.32165 24.9335 8.32073 24.7474C8.32075 24.1994 8.49183 23.6844 8.83397 23.2022C9.17612 22.72 9.64639 22.3064 10.2448 21.9613C10.6334 21.7263 11.0197 21.5775 11.3788 21.5247C11.6762 21.4875 11.9356 21.5487 12.1324 21.7026L11.5712 22.6084C11.4192 22.5047 11.2332 22.4527 11.0231 22.4553C10.7812 22.4689 10.5127 22.5627 10.242 22.728C9.91039 22.9195 9.65778 23.1392 9.48419 23.3872C9.31061 23.6352 9.22381 23.9015 9.2238 24.1862C9.21785 24.294 9.23307 24.3897 9.26847 24.4671C9.30387 24.5445 9.35867 24.602 9.42933 24.6358C9.56636 24.6935 9.80823 24.6529 10.1549 24.5138L10.7483 24.2791C11.2508 24.0837 11.6162 24.0622 11.8446 24.2145C12.0761 24.3737 12.1978 24.6733 12.1871 25.0581C12.1907 25.3039 12.1471 25.5753 12.059 25.8567C11.9736 26.1251 11.839 26.3977 11.6663 26.6517C11.4777 26.9237 11.2597 27.1722 11.025 27.3829C10.7433 27.6344 10.4499 27.846 10.1555 28.0099Z" fill="#40A8F5"/>
<path d="M15.0128 25.2053C14.6956 25.3967 14.381 25.5087 14.0947 25.5322C13.8361 25.5462 13.6153 25.472 13.4534 25.3165C13.2728 25.135 13.1464 24.8893 13.0807 24.5925C12.9208 23.8467 12.9209 22.9841 13.0808 22.0536C13.146 21.68 13.2725 21.2869 13.4536 20.8957C13.6155 20.5532 13.8363 20.2239 14.0949 19.9393C14.3835 19.6382 14.6963 19.3881 15.0127 19.2054C15.3291 19.0227 15.6419 18.9116 15.9305 18.8794C16.1891 18.8654 16.4099 18.9397 16.5718 19.0952C16.7529 19.2774 16.8794 19.5243 16.9445 19.8226C17.1044 20.5685 17.1044 21.4311 16.9444 22.3616C16.8787 22.7342 16.7522 23.126 16.5717 23.516C16.4097 23.8585 16.1889 24.1877 15.9303 24.4723C15.6442 24.7793 15.3298 25.0304 15.0128 25.2053ZM15.0129 24.4409C15.413 24.2098 15.6962 23.8893 15.8625 23.4793C16.0288 23.0693 16.1115 22.5953 16.1106 22.0574L16.1106 21.0799C16.1107 20.5457 16.028 20.1693 15.8627 19.9508C15.6973 19.7323 15.4141 19.7388 15.013 19.9704C14.6124 20.2017 14.3292 20.5222 14.1634 20.9319C13.9976 21.3417 13.9146 21.8136 13.9146 22.3479L13.9146 23.3318C13.9146 23.866 13.9975 24.2422 14.1633 24.4605C14.3291 24.6787 14.6123 24.6722 15.0129 24.4409Z" fill="#40A8F5"/>
<path d="M18.8519 18.4268L18.7793 18.4688L18.7791 22.9315L17.9939 23.3849L17.9941 17.5845L19.1466 16.919L20.7909 20.4315L20.8635 20.3896L20.8637 15.9276L21.6489 15.4742L21.6487 21.2746L20.4948 21.9408L18.8519 18.4268Z" fill="#40A8F5"/>
</g>
</g>
<g clip-path="url(#clip2_3942_72255)">
<path d="M29.7435 33.1283L29.7441 15.1283L24.5483 12.1285L14.1562 18.1289L14.1553 42.1289L29.7435 33.1283Z" fill="#007AD5" stroke="#2B2B2B"/>
<rect width="26" height="10" transform="matrix(0.866007 -0.500033 -3.76274e-05 1 10.9551 28.9766)" fill="#1A1A1A"/>
<g clip-path="url(#clip3_3942_72255)">
<path d="M16.1662 28.0683L16.166 32.3143C16.169 32.5462 16.1268 32.8025 16.042 33.0679C15.9629 33.3127 15.8424 33.5608 15.6891 33.7945C15.5301 34.0347 15.3436 34.2555 15.1409 34.4435C14.9112 34.6563 14.67 34.835 14.4276 34.9718C13.9357 35.2559 13.5442 35.3545 13.2533 35.2677C12.9623 35.181 12.7736 34.938 12.6873 34.5389L13.537 33.8636C13.5775 34.0605 13.6719 34.212 13.811 34.3035C13.9444 34.3875 14.1529 34.3476 14.4366 34.1838C14.6983 34.0327 14.9025 33.8329 15.0491 33.5843C15.1958 33.3358 15.2693 33.0428 15.2698 32.7054L15.2699 29.3665L13.3213 30.4917L13.3213 29.7102L16.1662 28.0683Z" fill="#40A8F5"/>
<path d="M19.3801 32.112C18.8936 32.3929 18.4848 32.5413 18.1536 32.5573C17.8345 32.5749 17.5562 32.4958 17.3397 32.3262L17.9166 31.4197C18.1025 31.5543 18.3346 31.6198 18.5983 31.6122C18.8529 31.593 19.1329 31.4954 19.4158 31.327C19.7679 31.1237 20.039 30.8836 20.2291 30.6067C20.4191 30.3298 20.5139 30.0351 20.5135 29.7228C20.5135 29.4714 20.445 29.3177 20.3079 29.2597C20.1709 29.2017 19.9311 29.2422 19.5947 29.3746L18.9855 29.6269C18.7506 29.729 18.5229 29.786 18.312 29.7955C18.1438 29.8016 17.9942 29.7639 17.8714 29.6848C17.7599 29.6102 17.6767 29.4973 17.6269 29.3529C17.5737 29.2052 17.5463 29.0356 17.5453 28.8494C17.5454 28.3015 17.7164 27.7864 18.0586 27.3042C18.4007 26.822 18.871 26.4084 19.4694 26.0634C19.858 25.8283 20.2444 25.6795 20.6034 25.6267C20.9008 25.5895 21.1602 25.6508 21.357 25.8046L20.7959 26.7104C20.6439 26.6067 20.4578 26.5548 20.2477 26.5574C20.0058 26.571 19.7373 26.6647 19.4666 26.8301C19.135 27.0216 18.8824 27.2413 18.7088 27.4893C18.5352 27.7373 18.4484 28.0036 18.4484 28.2882C18.4425 28.396 18.4577 28.4917 18.4931 28.5692C18.5285 28.6466 18.5833 28.7041 18.6539 28.7378C18.791 28.7956 19.0328 28.7549 19.3795 28.6158L19.9729 28.3812C20.4754 28.1858 20.8408 28.1642 21.0692 28.3165C21.3007 28.4758 21.4224 28.7754 21.4117 29.1601C21.4153 29.406 21.3717 29.6773 21.2836 29.9587C21.1983 30.2271 21.0636 30.4997 20.8909 30.7537C20.7023 31.0257 20.4843 31.2743 20.2496 31.4849C19.9679 31.7365 19.6745 31.9481 19.3801 32.112Z" fill="#40A8F5"/>
<path d="M24.2375 29.3073C23.9202 29.4987 23.6056 29.6108 23.3193 29.6343C23.0607 29.6483 22.8399 29.574 22.678 29.4185C22.4974 29.2371 22.371 28.9914 22.3053 28.6946C22.1454 27.9487 22.1455 27.0861 22.3054 26.1556C22.3706 25.782 22.4971 25.389 22.6782 24.9977C22.8401 24.6552 23.0609 24.3259 23.3195 24.0413C23.6081 23.7403 23.9209 23.4902 24.2373 23.3075C24.5537 23.1248 24.8665 23.0137 25.1551 22.9815C25.4137 22.9674 25.6345 23.0417 25.7964 23.1972C25.9775 23.3794 26.104 23.6264 26.1691 23.9247C26.329 24.6706 26.329 25.5331 26.169 26.4637C26.1034 26.8363 25.9769 27.228 25.7963 27.618C25.6343 27.9605 25.4135 28.2898 25.1549 28.5744C24.8688 28.8813 24.5544 29.1324 24.2375 29.3073ZM24.2375 28.5429C24.6376 28.3119 24.9208 27.9914 25.0871 27.5814C25.2534 27.1714 25.3361 26.6974 25.3352 26.1594L25.3352 25.1819C25.3353 24.6477 25.2526 24.2713 25.0873 24.0528C24.9219 23.8343 24.6387 23.8408 24.2376 24.0724C23.837 24.3037 23.5538 24.6242 23.388 25.034C23.2222 25.4437 23.1393 25.9157 23.1392 26.4499L23.1392 27.4338C23.1392 27.968 23.2221 28.3443 23.3879 28.5625C23.5537 28.7808 23.8369 28.7742 24.2375 28.5429Z" fill="#40A8F5"/>
<path d="M28.0766 22.5289L28.0039 22.5708L28.0038 27.0335L27.2185 27.4869L27.2188 21.6865L28.3712 21.0211L30.0155 24.5336L30.0881 24.4916L30.0883 20.0296L30.8735 19.5763L30.8733 25.3766L29.7194 26.0429L28.0766 22.5289Z" fill="#40A8F5"/>
</g>
</g>
<g clip-path="url(#clip4_3942_72255)">
<path d="M38.9622 37.2533L38.9629 19.2533L33.7671 16.2535L23.375 22.2539L23.3741 46.2539L38.9622 37.2533Z" fill="#0084E7" stroke="#2B2B2B"/>
<rect width="26" height="10" transform="matrix(0.866007 -0.500033 -3.76274e-05 1 20.1738 33.1016)" fill="#1A1A1A"/>
<g clip-path="url(#clip5_3942_72255)">
<path d="M25.3849 32.1933L25.3848 36.4393C25.3878 36.6712 25.3456 36.9275 25.2607 37.1929C25.1816 37.4377 25.0611 37.6858 24.9078 37.9195C24.7489 38.1597 24.5623 38.3805 24.3597 38.5685C24.1299 38.7813 23.8888 38.96 23.6464 39.0968C23.1544 39.3809 22.763 39.4795 22.472 39.3927C22.181 39.306 21.9924 39.063 21.9061 38.6639L22.7557 37.9886C22.7963 38.1855 22.8906 38.337 23.0298 38.4285C23.1631 38.5125 23.3717 38.4726 23.6553 38.3088C23.9171 38.1577 24.1213 37.9579 24.2679 37.7093C24.4145 37.4608 24.4881 37.1678 24.4886 36.8304L24.4887 33.4915L22.54 34.6167L22.54 33.8352L25.3849 32.1933Z" fill="#40A8F5"/>
<path d="M28.5988 36.237C28.1124 36.5179 27.7035 36.6663 27.3724 36.6823C27.0533 36.6999 26.7749 36.6208 26.5584 36.4512L27.1354 35.5447C27.3213 35.6793 27.5534 35.7448 27.8171 35.7372C28.0717 35.718 28.3517 35.6204 28.6345 35.452C28.9867 35.2487 29.2578 35.0086 29.4478 34.7317C29.6379 34.4548 29.7326 34.1601 29.7322 33.8478C29.7322 33.5964 29.6637 33.4427 29.5267 33.3847C29.3896 33.3267 29.1498 33.3672 28.8134 33.4996L28.2043 33.7519C27.9694 33.854 27.7417 33.911 27.5308 33.9205C27.3626 33.9266 27.213 33.8889 27.0902 33.8098C26.9787 33.7352 26.8955 33.6223 26.8456 33.4779C26.7925 33.3302 26.765 33.1606 26.7641 32.9744C26.7641 32.4265 26.9352 31.9114 27.2773 31.4292C27.6195 30.947 28.0897 30.5334 28.6881 30.1884C29.0767 29.9533 29.4631 29.8045 29.8221 29.7517C30.1196 29.7145 30.379 29.7758 30.5758 29.9296L30.0146 30.8354C29.8626 30.7317 29.6765 30.6798 29.4665 30.6824C29.2246 30.696 28.956 30.7897 28.6854 30.9551C28.3537 31.1466 28.1011 31.3663 27.9276 31.6143C27.754 31.8623 27.6672 32.1286 27.6672 32.4132C27.6612 32.521 27.6764 32.6167 27.7118 32.6942C27.7472 32.7716 27.802 32.8291 27.8727 32.8628C28.0097 32.9206 28.2516 32.8799 28.5983 32.7408L29.1917 32.5062C29.6941 32.3108 30.0595 32.2892 30.2879 32.4415C30.5195 32.6008 30.6412 32.9004 30.6305 33.2851C30.634 33.531 30.5905 33.8023 30.5023 34.0837C30.417 34.3521 30.2824 34.6247 30.1097 34.8787C29.921 35.1507 29.703 35.3993 29.4683 35.6099C29.1867 35.8615 28.8932 36.0731 28.5988 36.237Z" fill="#40A8F5"/>
<path d="M33.4562 33.4323C33.139 33.6237 32.8244 33.7358 32.5381 33.7593C32.2795 33.7733 32.0587 33.699 31.8968 33.5435C31.7162 33.3621 31.5897 33.1164 31.524 32.8196C31.3642 32.0737 31.3642 31.2111 31.5241 30.2806C31.5893 29.907 31.7159 29.514 31.8969 29.1227C32.0589 28.7802 32.2797 28.4509 32.5383 28.1663C32.8269 27.8653 33.1397 27.6152 33.4561 27.4325C33.7725 27.2498 34.0853 27.1387 34.3739 27.1065C34.6325 27.0924 34.8533 27.1667 35.0152 27.3222C35.1962 27.5044 35.3227 27.7514 35.3879 28.0497C35.5477 28.7956 35.5477 29.6581 35.3878 30.5887C35.3221 30.9613 35.1956 31.353 35.015 31.743C34.8531 32.0855 34.6323 32.4148 34.3737 32.6994C34.0876 33.0063 33.7732 33.2574 33.4562 33.4323ZM33.4562 32.6679C33.8564 32.4369 34.1396 32.1164 34.3059 31.7064C34.4722 31.2964 34.5549 30.8224 34.554 30.2844L34.554 29.3069C34.554 28.7727 34.4714 28.3963 34.306 28.1778C34.1407 27.9593 33.8575 27.9658 33.4564 28.1974C33.0558 28.4287 32.7726 28.7492 32.6068 29.159C32.4409 29.5687 32.358 30.0407 32.358 30.5749L32.3579 31.5588C32.3579 32.093 32.4408 32.4693 32.6066 32.6875C32.7724 32.9058 33.0556 32.8992 33.4562 32.6679Z" fill="#40A8F5"/>
<path d="M37.2953 26.6539L37.2227 26.6958L37.2225 31.1585L36.4373 31.6119L36.4375 25.8115L37.59 25.1461L39.2342 28.6586L39.3069 28.6166L39.307 24.1546L40.0923 23.7013L40.0921 29.5016L38.9382 30.1679L37.2953 26.6539Z" fill="#40A8F5"/>
</g>
</g>
<g clip-path="url(#clip6_3942_72255)">
<path d="M48.1888 41.3314L48.1895 23.3314L42.9936 20.3316L32.6016 26.332L32.6007 50.332L48.1888 41.3314Z" fill="#0093FF" stroke="#2B2B2B"/>
<rect width="26" height="10" transform="matrix(0.866007 -0.500033 -3.76274e-05 1 29.4004 37.1797)" fill="#1A1A1A"/>
<g clip-path="url(#clip7_3942_72255)">
<path d="M34.6115 36.2714L34.6113 40.5175C34.6143 40.7493 34.5722 41.0056 34.4873 41.271C34.4082 41.5158 34.2877 41.7639 34.1344 41.9976C33.9755 42.2378 33.7889 42.4587 33.5862 42.6466C33.3565 42.8595 33.1153 43.0381 32.873 43.175C32.381 43.459 31.9895 43.5577 31.6986 43.4709C31.4076 43.3841 31.219 43.1411 31.1326 42.742L31.9823 42.0667C32.0229 42.2637 32.1172 42.4151 32.2563 42.5066C32.3897 42.5906 32.5982 42.5507 32.8819 42.387C33.1436 42.2358 33.3478 42.036 33.4945 41.7875C33.6411 41.5389 33.7146 41.2459 33.7151 40.9085L33.7152 37.5696L31.7666 38.6948L31.7666 37.9133L34.6115 36.2714Z" fill="#40A8F5"/>
<path d="M37.8254 40.3151C37.3389 40.596 36.9301 40.7444 36.5989 40.7604C36.2798 40.778 36.0015 40.6989 35.785 40.5293L36.3619 39.6229C36.5478 39.7574 36.7799 39.8229 37.0436 39.8153C37.2982 39.7962 37.5782 39.6985 37.8611 39.5302C38.2132 39.3268 38.4844 39.0867 38.6744 38.8098C38.8644 38.5329 38.9592 38.2383 38.9588 37.926C38.9588 37.6745 38.8903 37.5208 38.7532 37.4628C38.6162 37.4049 38.3764 37.4453 38.04 37.5777L37.4308 37.83C37.196 37.9321 36.9682 37.9892 36.7573 37.9987C36.5891 38.0047 36.4395 37.9671 36.3168 37.8879C36.2053 37.8133 36.1221 37.7004 36.0722 37.556C36.019 37.4083 35.9916 37.2387 35.9906 37.0526C35.9907 36.5046 36.1618 35.9895 36.5039 35.5074C36.846 35.0252 37.3163 34.6116 37.9147 34.2665C38.3033 34.0315 38.6897 33.8827 39.0487 33.8299C39.3461 33.7927 39.6055 33.8539 39.8024 34.0077L39.2412 34.9136C39.0892 34.8098 38.9031 34.7579 38.693 34.7605C38.4511 34.7741 38.1826 34.8678 37.9119 35.0332C37.5803 35.2247 37.3277 35.4444 37.1541 35.6924C36.9805 35.9404 36.8937 36.2067 36.8937 36.4913C36.8878 36.5991 36.903 36.6948 36.9384 36.7723C36.9738 36.8497 37.0286 36.9072 37.0993 36.941C37.2363 36.9987 37.4782 36.958 37.8249 36.8189L38.4182 36.5843C38.9207 36.3889 39.2861 36.3673 39.5145 36.5196C39.7461 36.6789 39.8677 36.9785 39.857 37.3633C39.8606 37.6091 39.8171 37.8805 39.7289 38.1618C39.6436 38.4303 39.509 38.7029 39.3363 38.9568C39.1476 39.2289 38.9296 39.4774 38.6949 39.688C38.4132 39.9396 38.1198 40.1512 37.8254 40.3151Z" fill="#40A8F5"/>
<path d="M42.6828 37.5104C42.3655 37.7018 42.0509 37.8139 41.7646 37.8374C41.506 37.8514 41.2852 37.7771 41.1233 37.6216C40.9428 37.4402 40.8163 37.1945 40.7506 36.8977C40.5908 36.1518 40.5908 35.2893 40.7507 34.3588C40.8159 33.9851 40.9424 33.5921 41.1235 33.2008C41.2854 32.8583 41.5062 32.5291 41.7648 32.2445C42.0535 31.9434 42.3663 31.6933 42.6826 31.5106C42.999 31.3279 43.3118 31.2168 43.6004 31.1846C43.859 31.1706 44.0798 31.2448 44.2418 31.4003C44.4228 31.5826 44.5493 31.8295 44.6145 32.1278C44.7743 32.8737 44.7743 33.7363 44.6144 34.6668C44.5487 35.0394 44.4222 35.4312 44.2416 35.8211C44.0797 36.1636 43.8588 36.4929 43.6002 36.7775C43.3141 37.0844 42.9998 37.3356 42.6828 37.5104ZM42.6828 36.7461C43.0829 36.515 43.3662 36.1945 43.5324 35.7845C43.6987 35.3745 43.7814 34.9005 43.7805 34.3626L43.7806 33.3851C43.7806 32.8508 43.6979 32.4745 43.5326 32.2559C43.3672 32.0374 43.084 32.044 42.683 32.2755C42.2824 32.5068 41.9991 32.8274 41.8333 33.2371C41.6675 33.6468 41.5846 34.1188 41.5845 34.653L41.5845 35.6369C41.5845 36.1711 41.6674 36.5474 41.8332 36.7656C41.999 36.9839 42.2822 36.9774 42.6828 36.7461Z" fill="#40A8F5"/>
<path d="M46.5219 30.732L46.4492 30.7739L46.4491 35.2366L45.6638 35.69L45.6641 29.8896L46.8165 29.2242L48.4608 32.7367L48.5334 32.6948L48.5336 28.2328L49.3188 27.7794L49.3186 33.5798L48.1648 34.246L46.5219 30.732Z" fill="#40A8F5"/>
</g>
</g>
<g clip-path="url(#clip8_3942_72255)">
<path d="M57.4153 45.4291L57.416 27.4291L52.2202 24.4293L41.8281 30.4297L41.8272 54.4297L57.4153 45.4291Z" fill="#229FFC" stroke="#2B2B2B"/>
<rect width="26" height="10" transform="matrix(0.866007 -0.500033 -3.76274e-05 1 38.627 41.2773)" fill="#1A1A1A"/>
<g clip-path="url(#clip9_3942_72255)">
<path d="M43.8381 40.3691L43.8379 44.6151C43.8409 44.847 43.7987 45.1032 43.7138 45.3687C43.6347 45.6134 43.5142 45.8615 43.361 46.0953C43.202 46.3355 43.0155 46.5563 42.8128 46.7443C42.5831 46.9571 42.3419 47.1358 42.0995 47.2726C41.6076 47.5567 41.2161 47.6553 40.9251 47.5685C40.6342 47.4817 40.4455 47.2388 40.3592 46.8397L41.2088 46.1644C41.2494 46.3613 41.3438 46.5128 41.4829 46.6043C41.6163 46.6883 41.8248 46.6484 42.1085 46.4846C42.3702 46.3335 42.5744 46.1337 42.721 45.8851C42.8677 45.6366 42.9412 45.3436 42.9417 45.0061L42.9418 41.6673L40.9931 42.7924L40.9932 42.011L43.8381 40.3691Z" fill="#40A8F5"/>
<path d="M47.052 44.4128C46.5655 44.6937 46.1567 44.8421 45.8255 44.8581C45.5064 44.8756 45.2281 44.7966 45.0115 44.6269L45.5885 43.7205C45.7744 43.8551 46.0065 43.9206 46.2702 43.913C46.5248 43.8938 46.8048 43.7961 47.0876 43.6278C47.4398 43.4245 47.7109 43.1843 47.901 42.9074C48.091 42.6305 48.1858 42.3359 48.1853 42.0236C48.1853 41.7721 48.1168 41.6185 47.9798 41.5605C47.8428 41.5025 47.603 41.5429 47.2665 41.6754L46.6574 41.9277C46.4225 42.0298 46.1948 42.0868 45.9839 42.0963C45.8157 42.1023 45.6661 42.0647 45.5433 41.9856C45.4318 41.911 45.3486 41.7981 45.2987 41.6537C45.2456 41.506 45.2181 41.3363 45.2172 41.1502C45.2172 40.6023 45.3883 40.0872 45.7305 39.605C46.0726 39.1228 46.5429 38.7092 47.1413 38.3642C47.5298 38.1291 47.9162 37.9803 48.2752 37.9275C48.5727 37.8903 48.8321 37.9516 49.0289 38.1054L48.4677 39.0112C48.3157 38.9075 48.1296 38.8555 47.9196 38.8582C47.6777 38.8717 47.4091 38.9655 47.1385 39.1309C46.8069 39.3223 46.5543 39.5421 46.3807 39.7901C46.2071 40.0381 46.1203 40.3044 46.1203 40.589C46.1143 40.6968 46.1296 40.7925 46.165 40.8699C46.2004 40.9474 46.2552 41.0048 46.3258 41.0386C46.4628 41.0964 46.7047 41.0557 47.0514 40.9166L47.6448 40.682C48.1472 40.4866 48.5127 40.465 48.7411 40.6173C48.9726 40.7765 49.0943 41.0761 49.0836 41.4609C49.0872 41.7068 49.0436 41.9781 48.9554 42.2595C48.8701 42.5279 48.7355 42.8005 48.5628 43.0545C48.3742 43.3265 48.1562 43.575 47.9215 43.7857C47.6398 44.0372 47.3463 44.2489 47.052 44.4128Z" fill="#40A8F5"/>
<path d="M51.9093 41.6081C51.5921 41.7995 51.2775 41.9115 50.9912 41.9351C50.7326 41.9491 50.5118 41.8748 50.3499 41.7193C50.1693 41.5378 50.0428 41.2922 49.9772 40.9954C49.8173 40.2495 49.8174 39.3869 49.9773 38.4564C50.0425 38.0828 50.169 37.6898 50.35 37.2985C50.512 36.956 50.7328 36.6267 50.9914 36.3421C51.28 36.0411 51.5928 35.7909 51.9092 35.6083C52.2256 35.4256 52.5384 35.3145 52.827 35.2822C53.0856 35.2682 53.3064 35.3425 53.4683 35.498C53.6493 35.6802 53.7758 35.9271 53.841 36.2255C54.0009 36.9714 54.0008 37.8339 53.8409 38.7644C53.7752 39.1371 53.6487 39.5288 53.4681 39.9188C53.3062 40.2613 53.0854 40.5906 52.8268 40.8752C52.5407 41.1821 52.2263 41.4332 51.9093 41.6081ZM51.9094 40.8437C52.3095 40.6127 52.5927 40.2921 52.759 39.8821C52.9253 39.4721 53.008 38.9982 53.0071 38.4602L53.0071 37.4827C53.0071 36.9485 52.9245 36.5721 52.7591 36.3536C52.5938 36.1351 52.3106 36.1416 51.9095 36.3732C51.5089 36.6045 51.2257 36.925 51.0599 37.3348C50.8941 37.7445 50.8111 38.2165 50.8111 38.7507L50.8111 39.7346C50.8111 40.2688 50.8939 40.645 51.0597 40.8633C51.2256 41.0815 51.5088 41.075 51.9094 40.8437Z" fill="#40A8F5"/>
<path d="M55.7484 34.8297L55.6758 34.8716L55.6756 39.3343L54.8904 39.7877L54.8906 33.9873L56.0431 33.3219L57.6874 36.8344L57.76 36.7924L57.7602 32.3304L58.5454 31.877L58.5452 37.6774L57.3913 38.3437L55.7484 34.8297Z" fill="#40A8F5"/>
</g>
</g>
<g clip-path="url(#clip10_3942_72255)">
<path d="M66.6648 49.5547L66.6661 31.5547L61.4704 28.5547L51.0781 34.5547L51.0763 58.5547L66.6648 49.5547Z" fill="#40A8F5" stroke="#2B2B2B"/>
<rect width="26" height="10" transform="matrix(0.866025 -0.5 -7.53359e-05 1 47.875 45.4023)" fill="#1A1A1A"/>
<g clip-path="url(#clip11_3942_72255)">
<path d="M53.0862 44.4942L53.0859 48.7402C53.0888 48.9721 53.0467 49.2284 52.9618 49.4938C52.8827 49.7386 52.7622 49.9867 52.6089 50.2204C52.4499 50.4606 52.2634 50.6814 52.0607 50.8694C51.8309 51.0822 51.5898 51.2608 51.3474 51.3977C50.8554 51.6817 50.4639 51.7803 50.173 51.6935C49.882 51.6067 49.6934 51.3638 49.6071 50.9647L50.4567 50.2894C50.4973 50.4864 50.5917 50.6378 50.7308 50.7293C50.8642 50.8133 51.0727 50.7735 51.3563 50.6097C51.6181 50.4586 51.8223 50.2587 51.9689 50.0102C52.1156 49.7617 52.1891 49.4687 52.1896 49.1312L52.1899 45.7924L50.2412 46.9175L50.2412 46.136L53.0862 44.4942Z" fill="#40A8F5"/>
<path d="M56.2998 48.5383C55.8133 48.8192 55.4045 48.9676 55.0733 48.9836C54.7543 49.0011 54.4759 48.9221 54.2594 48.7524L54.8364 47.846C55.0223 47.9806 55.2544 48.0461 55.5181 48.0385C55.7727 48.0194 56.0527 47.9217 56.3355 47.7534C56.6877 47.55 56.9588 47.3099 57.1489 47.033C57.3389 46.7561 57.4337 46.4615 57.4333 46.1492C57.4333 45.8977 57.3648 45.7441 57.2278 45.6861C57.0907 45.6281 56.8509 45.6685 56.5145 45.801L55.9054 46.0532C55.6705 46.1553 55.4427 46.2124 55.2318 46.2219C55.0636 46.2279 54.914 46.1902 54.7913 46.1111C54.6798 46.0365 54.5966 45.9236 54.5467 45.7792C54.4936 45.6315 54.4661 45.4618 54.4652 45.2757C54.4652 44.7278 54.6363 44.2127 54.9785 43.7305C55.3207 43.2484 55.791 42.8348 56.3894 42.4898C56.7779 42.2547 57.1643 42.1059 57.5233 42.0531C57.8208 42.0159 58.0802 42.0772 58.277 42.231L57.7158 43.1368C57.5638 43.0331 57.3777 42.9811 57.1677 42.9838C56.9258 42.9973 56.6572 43.0911 56.3866 43.2564C56.0549 43.4479 55.8023 43.6676 55.6287 43.9156C55.4551 44.1636 55.3683 44.4299 55.3683 44.7145C55.3623 44.8223 55.3776 44.918 55.413 44.9955C55.4484 45.0729 55.5031 45.1304 55.5738 45.1642C55.7108 45.2219 55.9527 45.1812 56.2994 45.0422L56.8928 44.8076C57.3953 44.6122 57.7607 44.5906 57.9891 44.7429C58.2206 44.9022 58.3423 45.2018 58.3316 45.5866C58.3351 45.8324 58.2916 46.1038 58.2034 46.3851C58.1181 46.6536 57.9834 46.9261 57.8107 47.1801C57.6221 47.4521 57.4041 47.7006 57.1694 47.9113C56.8877 48.1628 56.5942 48.3744 56.2998 48.5383Z" fill="#40A8F5"/>
<path d="M61.1572 45.7337C60.84 45.9251 60.5254 46.0371 60.239 46.0606C59.9805 46.0746 59.7597 46.0003 59.5977 45.8448C59.4172 45.6633 59.2907 45.4177 59.2251 45.1209C59.0652 44.375 59.0653 43.5124 59.2253 42.5819C59.2905 42.2083 59.417 41.8153 59.5981 41.424C59.76 41.0815 59.9809 40.7522 60.2395 40.4676C60.5281 40.1666 60.8409 39.9165 61.1573 39.7338C61.4737 39.5512 61.7865 39.4401 62.0751 39.4078C62.3337 39.3938 62.5545 39.4681 62.7164 39.6236C62.8974 39.8058 63.0239 40.0528 63.0891 40.3511C63.2489 41.097 63.2488 41.9596 63.0889 42.8901C63.0232 43.2627 62.8967 43.6545 62.7161 44.0444C62.5541 44.3869 62.3333 44.7162 62.0747 45.0008C61.7886 45.3077 61.4742 45.5588 61.1572 45.7337ZM61.1572 44.9693C61.5574 44.7382 61.8406 44.4177 62.0069 44.0077C62.1732 43.5977 62.2559 43.1238 62.2551 42.5858L62.2551 41.6083C62.2552 41.0741 62.1725 40.6977 62.0072 40.4792C61.8419 40.2607 61.5587 40.2672 61.1576 40.4988C60.757 40.73 60.4737 41.0506 60.3079 41.4603C60.1421 41.87 60.0591 42.342 60.0591 42.8762L60.059 43.8601C60.059 44.3943 60.1418 44.7706 60.3076 44.9888C60.4734 45.2071 60.7566 45.2006 61.1572 44.9693Z" fill="#40A8F5"/>
<path d="M64.9964 38.9552L64.9238 38.9971L64.9235 43.4598L64.1382 43.9132L64.1387 38.1128L65.2912 37.4474L66.9353 40.96L67.0079 40.918L67.0083 36.456L67.7935 36.0027L67.7931 41.803L66.6392 42.4692L64.9964 38.9552Z" fill="#40A8F5"/>
</g>
</g>
<path d="M106.066 25.0452H102.682V41.8452H116.122V38.4612H106.066V25.0452ZM122.823 25.0452V28.4052H132.951V25.0452H122.823ZM119.487 28.4052V38.5092H122.823V28.4052H119.487ZM132.951 28.4052V38.5332H136.287V28.4052H132.951ZM122.823 38.5332V41.8692H132.951V38.5332H122.823ZM149.723 25.0452V28.4052H153.083V35.1252H146.363V31.7652H143.003V38.4852H153.083V41.8452H156.443V25.0452H149.723ZM146.363 28.4052V31.7652H149.723V28.4052H146.363ZM143.003 41.8452V38.4852H139.643V41.8452H143.003ZM173.239 28.4052V25.0452H159.799V41.8452H173.239V38.4852H163.159V28.4052H173.239ZM173.239 38.4852H176.599V28.4052H173.239V38.4852Z" fill="#0268B5"/>
<defs>
<clipPath id="clip0_3942_72255">
<rect width="28.6963" height="28.6963" fill="white" transform="matrix(0.866007 -0.500033 -3.76274e-05 1 0.00195312 14.4077)"/>
</clipPath>
<clipPath id="clip1_3942_72255">
<rect width="21" height="6" fill="white" transform="matrix(0.866007 -0.500033 -3.76274e-05 1 3.46289 25.8745)"/>
</clipPath>
<clipPath id="clip2_3942_72255">
<rect width="28.6963" height="28.6963" fill="white" transform="matrix(0.866007 -0.500033 -3.76274e-05 1 9.22656 18.5098)"/>
</clipPath>
<clipPath id="clip3_3942_72255">
<rect width="21" height="6" fill="white" transform="matrix(0.866007 -0.500033 -3.76274e-05 1 12.6875 29.9766)"/>
</clipPath>
<clipPath id="clip4_3942_72255">
<rect width="28.6963" height="28.6963" fill="white" transform="matrix(0.866007 -0.500033 -3.76274e-05 1 18.4453 22.6348)"/>
</clipPath>
<clipPath id="clip5_3942_72255">
<rect width="21" height="6" fill="white" transform="matrix(0.866007 -0.500033 -3.76274e-05 1 21.9062 34.1016)"/>
</clipPath>
<clipPath id="clip6_3942_72255">
<rect width="28.6963" height="28.6963" fill="white" transform="matrix(0.866007 -0.500033 -3.76274e-05 1 27.6719 26.7129)"/>
</clipPath>
<clipPath id="clip7_3942_72255">
<rect width="21" height="6" fill="white" transform="matrix(0.866007 -0.500033 -3.76274e-05 1 31.1328 38.1797)"/>
</clipPath>
<clipPath id="clip8_3942_72255">
<rect width="28.6963" height="28.6963" fill="white" transform="matrix(0.866007 -0.500033 -3.76274e-05 1 36.8984 30.8105)"/>
</clipPath>
<clipPath id="clip9_3942_72255">
<rect width="21" height="6" fill="white" transform="matrix(0.866007 -0.500033 -3.76274e-05 1 40.3594 42.2773)"/>
</clipPath>
<clipPath id="clip10_3942_72255">
<rect width="28.6963" height="28.6963" fill="white" transform="matrix(0.866025 -0.5 -7.53359e-05 1 46.1484 34.9355)"/>
</clipPath>
<clipPath id="clip11_3942_72255">
<rect width="21" height="6" fill="white" transform="matrix(0.866025 -0.5 -7.53359e-05 1 49.6074 46.4023)"/>
</clipPath>
</defs>
</svg>
