<svg width="481" height="68" viewBox="0 0 481 68" fill="none" xmlns="http://www.w3.org/2000/svg">
<path d="M33.625 47.4668L65.9878 28.7821C66.0983 28.7183 66.1878 28.7701 66.1878 28.8976L66.1875 33.2583L33.8247 51.943C33.7142 52.0068 33.6247 51.9551 33.6247 51.8275L33.625 47.4668Z" fill="#C2FFDC" stroke="#2B2B2B" stroke-width="0.976048" stroke-linejoin="round"/>
<path d="M33.6152 47.459L1.1999 28.744C1.08941 28.6802 0.999842 28.7319 0.999851 28.8595L1.00018 33.2215L33.4155 51.9365C33.526 52.0003 33.6156 51.9486 33.6156 51.821L33.6152 47.459Z" fill="#F3FFF8" stroke="#2B2B2B" stroke-width="0.976048" stroke-linejoin="round"/>
<path d="M17.2955 19.3525L9.1543 24.0291L17.2955 28.7057L25.4407 23.9864L17.2955 19.3525Z" fill="#28F77E" stroke="#2B2B2B" stroke-width="0.976048" stroke-miterlimit="10"/>
<path d="M33.5807 19.3525L25.4395 24.0291L33.5807 28.7057L41.7258 23.9864L33.5807 19.3525Z" fill="#EAFFF3" stroke="#2B2B2B" stroke-width="0.976048" stroke-miterlimit="10"/>
<path d="M49.8659 19.3525L41.7246 24.0291L49.8659 28.7057L58.011 23.9864L49.8659 19.3525Z" fill="#EAFFF3" stroke="#2B2B2B" stroke-width="0.976048" stroke-miterlimit="10"/>
<path d="M25.4381 24.0288L17.293 28.7054L25.4381 33.3819L33.5794 28.6626L25.4381 24.0288Z" fill="#28F77E" stroke="#2B2B2B" stroke-width="0.976048" stroke-miterlimit="10"/>
<path d="M41.7272 24.0288L33.582 28.7054L41.7272 33.3819L49.8684 28.6626L41.7272 24.0288Z" fill="#EAFFF3" stroke="#2B2B2B" stroke-width="0.976048" stroke-miterlimit="10"/>
<path d="M58.0123 24.0288L49.8672 28.7054L58.0123 33.3819L66.1536 28.6626L58.0123 24.0288Z" fill="#EAFFF3" stroke="#2B2B2B" stroke-width="0.976048" stroke-miterlimit="10" stroke-linejoin="round"/>
<path d="M33.5807 28.707L25.4395 33.3836L33.5807 38.0563L41.7258 33.3409L33.5807 28.707Z" fill="#EAFFF3" stroke="#2B2B2B" stroke-width="0.976048" stroke-miterlimit="10"/>
<path d="M49.8659 28.707L41.7246 33.3836L49.8659 38.0563L58.011 33.3409L49.8659 28.707Z" fill="#EAFFF3" stroke="#2B2B2B" stroke-width="0.976048" stroke-miterlimit="10"/>
<path d="M41.7272 33.3833L33.582 38.056L41.7272 42.7325L49.8684 38.0171L41.7272 33.3833Z" fill="#EAFFF3" stroke="#2B2B2B" stroke-width="0.976048" stroke-miterlimit="10"/>
<path d="M9.15295 24.0288L1.00781 28.7054L9.15295 33.3819L17.2942 28.6626L9.15295 24.0288Z" fill="#28F77E" stroke="#2B2B2B" stroke-width="0.976048" stroke-miterlimit="10" stroke-linejoin="round"/>
<path d="M17.2955 28.707L9.1543 33.3836L17.2955 38.0563L25.4407 33.3409L17.2955 28.707Z" fill="#28F77E" stroke="#2B2B2B" stroke-width="0.976048" stroke-miterlimit="10"/>
<path d="M25.4381 33.3833L17.293 38.056L25.4381 42.7325L33.5794 38.0171L25.4381 33.3833Z" fill="#EAFFF3" stroke="#2B2B2B" stroke-width="0.976048" stroke-miterlimit="10"/>
<path d="M33.5807 38.0557L25.4395 42.7322L33.5807 47.4088L41.7258 42.6934L33.5807 38.0557Z" fill="#EAFFF3" stroke="#2B2B2B" stroke-width="0.976048" stroke-miterlimit="10" stroke-linejoin="round"/>
<path d="M41.7272 24.0294L49.8684 19.3528L41.7272 14.6763L33.582 19.3917L41.7272 24.0294Z" fill="#EAFFF3" stroke="#2B2B2B" stroke-width="0.976048" stroke-miterlimit="10"/>
<path d="M25.4381 24.0294L33.5794 19.3528L25.4381 14.6763L17.293 19.3917L25.4381 24.0294Z" fill="#EAFFF3" stroke="#2B2B2B" stroke-width="0.976048" stroke-miterlimit="10"/>
<path d="M33.5807 19.3531L41.7258 14.6766L33.5807 10L25.4395 14.7154L33.5807 19.3531Z" fill="#EAFFF3" stroke="#2B2B2B" stroke-width="0.976048" stroke-miterlimit="10" stroke-linejoin="round"/>
<path d="M114.668 24.2293H97.8675V27.5893H104.588V41.0293H107.948V27.5893H114.668V24.2293ZM121.36 27.5653H131.512V24.2293H118.024V41.0533H121.36V37.6933H131.512V34.3333H121.36V27.5653ZM134.824 27.5653H131.512V34.3333H134.824V27.5653ZM134.824 37.6933H131.512V41.0533H134.824V37.6933ZM148.26 24.2293V27.5893H151.62V34.3093H144.9V30.9493H141.54V37.6693H151.62V41.0293H154.98V24.2293H148.26ZM144.9 27.5893V30.9493H148.26V27.5893H144.9ZM141.54 41.0293V37.6693H138.18V41.0293H141.54ZM161.696 24.2293H158.336V41.0293H161.696V30.9493H165.056V27.5893H161.696V24.2293ZM171.776 34.3093H168.416V37.6693H171.776V41.0293H175.136V24.2293H171.776V34.3093ZM165.056 34.3093H168.416V30.9493H165.056V34.3093ZM181.853 30.9493V27.5893H191.933V24.2293H178.493V34.3093H191.933V37.6693H195.293V30.9493H181.853ZM191.933 41.0293V37.6693H178.493V41.0293H191.933ZM202.009 24.2293V27.5893H212.089V24.2293H202.009ZM198.649 41.0293H202.009V34.3093H212.089V30.9493H202.009V27.5893H198.649V41.0293ZM218.789 24.2293V27.5893H228.917V24.2293H218.789ZM215.453 27.5893V37.6933H218.789V27.5893H215.453ZM228.917 27.5893V37.7173H232.253V27.5893H228.917ZM218.789 37.7173V41.0533H228.917V37.7173H218.789ZM238.946 27.5653H249.098V24.2293H235.61V41.0533H238.946V37.6933H249.098V34.3333H238.946V27.5653ZM252.41 27.5653H249.098V34.3333H252.41V27.5653ZM252.41 37.6933H249.098V41.0533H252.41V37.6933ZM259.126 24.2293H255.766V41.0293H259.126V30.9973H262.486V27.6373H259.126V24.2293ZM269.206 27.6373H265.846V30.9973H269.206V41.0293H272.566V24.2293H269.206V27.6373ZM265.846 34.3573V30.9973H262.486V34.3573H265.846Z" fill="#02D12F"/>
</svg>
